<svg width="33" height="32" viewBox="0 0 33 32" fill="none" xmlns="http://www.w3.org/2000/svg">
<rect x="0.539062" y="0.5" width="31" height="31" rx="15.5" fill="white"/>
<rect x="0.539062" y="0.5" width="31" height="31" rx="15.5" stroke="#D81E05"/>
<g clip-path="url(#clip0_1709_2915)">
<path d="M12.0391 20C10.9324 20 9.98893 19.6099 9.20866 18.8296C8.4284 18.0493 8.03853 17.1061 8.03906 16C8.03906 14.8933 8.4292 13.9499 9.20946 13.1696C9.98973 12.3893 10.9329 11.9995 12.0391 12H14.4391C14.6657 12 14.8559 12.0768 15.0095 12.2304C15.1631 12.384 15.2396 12.5739 15.2391 12.8C15.2391 13.0267 15.1623 13.2168 15.0087 13.3704C14.8551 13.524 14.6652 13.6005 14.4391 13.6H12.0391C11.3724 13.6 10.8057 13.8333 10.3391 14.3C9.8724 14.7667 9.63906 15.3333 9.63906 16C9.63906 16.6667 9.8724 17.2333 10.3391 17.7C10.8057 18.1667 11.3724 18.4 12.0391 18.4H14.4391C14.6657 18.4 14.8559 18.4768 15.0095 18.6304C15.1631 18.784 15.2396 18.9739 15.2391 19.2C15.2391 19.4267 15.1623 19.6168 15.0087 19.7704C14.8551 19.924 14.6652 20.0005 14.4391 20H12.0391ZM13.6391 16.8C13.4124 16.8 13.2223 16.7232 13.0687 16.5696C12.9151 16.416 12.8385 16.2261 12.8391 16C12.8391 15.7733 12.9159 15.5832 13.0695 15.4296C13.2231 15.276 13.4129 15.1995 13.6391 15.2H18.4391C18.6657 15.2 18.8559 15.2768 19.0095 15.4304C19.1631 15.584 19.2396 15.7739 19.2391 16C19.2391 16.2267 19.1623 16.4168 19.0087 16.5704C18.8551 16.724 18.6652 16.8005 18.4391 16.8H13.6391ZM17.6391 20C17.4124 20 17.2223 19.9232 17.0687 19.7696C16.9151 19.616 16.8385 19.4261 16.8391 19.2C16.8391 18.9733 16.9159 18.7832 17.0695 18.6296C17.2231 18.476 17.4129 18.3995 17.6391 18.4H20.0391C20.7057 18.4 21.2724 18.1667 21.7391 17.7C22.2057 17.2333 22.4391 16.6667 22.4391 16C22.4391 15.3333 22.2057 14.7667 21.7391 14.3C21.2724 13.8333 20.7057 13.6 20.0391 13.6H17.6391C17.4124 13.6 17.2223 13.5232 17.0687 13.3696C16.9151 13.216 16.8385 13.0261 16.8391 12.8C16.8391 12.5733 16.9159 12.3832 17.0695 12.2296C17.2231 12.076 17.4129 11.9995 17.6391 12H20.0391C21.1457 12 22.0892 12.3901 22.8695 13.1704C23.6497 13.9507 24.0396 14.8939 24.0391 16C24.0391 17.1067 23.6489 18.0501 22.8687 18.8304C22.0884 19.6107 21.1452 20.0005 20.0391 20H17.6391Z" fill="#D81E05"/>
</g>
<defs>
<clipPath id="clip0_1709_2915">
<rect width="16" height="16" fill="white" transform="translate(8.03906 8)"/>
</clipPath>
</defs>
</svg>