<svg width="12" height="12" viewBox="0 0 12 12" fill="none" xmlns="http://www.w3.org/2000/svg">
<path d="M10.789 1.71795C10.9358 1.57265 11.1046 1.5 11.2954 1.5C11.4862 1.5 11.655 1.57265 11.8018 1.71795C11.9339 1.84872 12 2.01218 12 2.20833C12 2.40449 11.9339 2.56795 11.8018 2.69872L4.77798 9.69487L4.68991 9.78205C4.5578 9.92735 4.39266 10 4.1945 10C3.99633 10 3.83119 9.92735 3.69908 9.78205L0.198165 6.33846C0.0660544 6.20769 0 6.04423 0 5.84808C0 5.65192 0.0660544 5.48846 0.198165 5.35769C0.344955 5.21239 0.513761 5.13974 0.704587 5.13974C0.895414 5.13974 1.06422 5.21239 1.21101 5.35769L4.18349 8.3L10.789 1.71795Z" fill="white"/>
</svg>
