<svg width="12" height="12" viewBox="0 0 12 12" fill="none" xmlns="http://www.w3.org/2000/svg">
<path fill-rule="evenodd" clip-rule="evenodd" d="M11.25 1.125C11.4609 1.125 11.6387 1.19726 11.7832 1.3418C11.9277 1.48633 12 1.66406 12 1.875V11.25C12 11.4531 11.9277 11.6289 11.7832 11.7773C11.6387 11.9258 11.4609 12 11.25 12H0.75C0.539061 12 0.361329 11.9258 0.216797 11.7773C0.0722649 11.6289 0 11.4531 0 11.25V1.875C0 1.66406 0.0722649 1.48633 0.216797 1.3418C0.361329 1.19726 0.539061 1.125 0.75 1.125H3.75V0.375C3.75 0.273437 3.78711 0.185547 3.86133 0.111328C3.93555 0.037109 4.02344 0 4.125 0C4.22656 0 4.31445 0.037109 4.38867 0.111328C4.46289 0.185547 4.5 0.273437 4.5 0.375V1.125H7.5V0.375C7.5 0.273437 7.53711 0.185547 7.61133 0.111328C7.68555 0.037109 7.77344 0 7.875 0C7.97656 0 8.06445 0.037109 8.13867 0.111328C8.21289 0.185547 8.25 0.273437 8.25 0.375V1.125H11.25ZM11.25 11.25V1.875H8.25V2.25C8.25 2.35156 8.21289 2.43945 8.13867 2.51367C8.06445 2.58789 7.97656 2.625 7.875 2.625C7.77344 2.625 7.68555 2.58789 7.61133 2.51367C7.53711 2.43945 7.5 2.35156 7.5 2.25V1.875H4.5V2.25C4.5 2.35156 4.46289 2.43945 4.38867 2.51367C4.31445 2.58789 4.22656 2.625 4.125 2.625C4.02344 2.625 3.93555 2.58789 3.86133 2.51367C3.78711 2.43945 3.75 2.35156 3.75 2.25V1.875H0.75V11.25H11.25ZM8.625 6C8.52344 6 8.43555 5.96289 8.36133 5.88867C8.28711 5.81445 8.25 5.72656 8.25 5.625V4.875C8.25 4.77344 8.28711 4.68555 8.36133 4.61133C8.43555 4.53711 8.52344 4.5 8.625 4.5H9.375C9.47656 4.5 9.56445 4.53711 9.63867 4.61133C9.71289 4.68555 9.75 4.77344 9.75 4.875V5.625C9.75 5.72656 9.71289 5.81445 9.63867 5.88867C9.56445 5.96289 9.47656 6 9.375 6H8.625ZM8.625 9C8.52344 9 8.43555 8.96289 8.36133 8.88867C8.28711 8.81445 8.25 8.72656 8.25 8.625V7.875C8.25 7.77344 8.28711 7.68555 8.36133 7.61133C8.43555 7.53711 8.52344 7.5 8.625 7.5H9.375C9.47656 7.5 9.56445 7.53711 9.63867 7.61133C9.71289 7.68555 9.75 7.77344 9.75 7.875V8.625C9.75 8.72656 9.71289 8.81445 9.63867 8.88867C9.56445 8.96289 9.47656 9 9.375 9H8.625ZM6.375 7.5C6.47656 7.5 6.56445 7.53711 6.63867 7.61133C6.71289 7.68555 6.75 7.77344 6.75 7.875V8.625C6.75 8.72656 6.71289 8.81445 6.63867 8.88867C6.56445 8.96289 6.47656 9 6.375 9H5.625C5.52344 9 5.43555 8.96289 5.36133 8.88867C5.28711 8.81445 5.25 8.72656 5.25 8.625V7.875C5.25 7.77344 5.28711 7.68555 5.36133 7.61133C5.43555 7.53711 5.52344 7.5 5.625 7.5H6.375ZM6.375 4.5C6.47656 4.5 6.56445 4.53711 6.63867 4.61133C6.71289 4.68555 6.75 4.77344 6.75 4.875V5.625C6.75 5.72656 6.71289 5.81445 6.63867 5.88867C6.56445 5.96289 6.47656 6 6.375 6H5.625C5.52344 6 5.43555 5.96289 5.36133 5.88867C5.28711 5.81445 5.25 5.72656 5.25 5.625V4.875C5.25 4.77344 5.28711 4.68555 5.36133 4.61133C5.43555 4.53711 5.52344 4.5 5.625 4.5H6.375ZM3.375 4.5C3.47656 4.5 3.56445 4.53711 3.63867 4.61133C3.71289 4.68555 3.75 4.77344 3.75 4.875V5.625C3.75 5.72656 3.71289 5.81445 3.63867 5.88867C3.56445 5.96289 3.47656 6 3.375 6H2.625C2.52344 6 2.43555 5.96289 2.36133 5.88867C2.28711 5.81445 2.25 5.72656 2.25 5.625V4.875C2.25 4.77344 2.28711 4.68555 2.36133 4.61133C2.43555 4.53711 2.52344 4.5 2.625 4.5H3.375ZM3.375 7.5C3.47656 7.5 3.56445 7.53711 3.63867 7.61133C3.71289 7.68555 3.75 7.77344 3.75 7.875V8.625C3.75 8.72656 3.71289 8.81445 3.63867 8.88867C3.56445 8.96289 3.47656 9 3.375 9H2.625C2.52344 9 2.43555 8.96289 2.36133 8.88867C2.28711 8.81445 2.25 8.72656 2.25 8.625V7.875C2.25 7.77344 2.28711 7.68555 2.36133 7.61133C2.43555 7.53711 2.52344 7.5 2.625 7.5H3.375Z" fill="white"/>
</svg>
