<svg width="33" height="32" viewBox="0 0 33 32" fill="none" xmlns="http://www.w3.org/2000/svg">
<rect x="0.539062" y="0.5" width="31" height="31" rx="15.5" fill="white"/>
<rect x="0.539062" y="0.5" width="31" height="31" rx="15.5" stroke="#D81E05"/>
<g clip-path="url(#clip0_1709_2920)">
<path fill-rule="evenodd" clip-rule="evenodd" d="M20.5391 18H19.5391V19.5H18.0391V20.5H19.5391V22H20.5391V20.5H22.0391V19.5H20.5391V18ZM20.0391 16C17.8336 16 16.0391 17.7945 16.0391 20C16.0391 22.2055 17.8336 24 20.0391 24C22.2446 24 24.0391 22.2055 24.0391 20C24.0391 17.7945 22.2446 16 20.0391 16ZM20.0391 23C18.3846 23 17.0391 21.6545 17.0391 20C17.0391 18.3455 18.3846 17 20.0391 17C21.6936 17 23.0391 18.3455 23.0391 20C23.0391 21.6545 21.6936 23 20.0391 23ZM23.5391 9H21.0391V8H20.0391V9H16.5391V8H15.5391V9H12.0391V8H11.0391V9H8.53906C8.26306 9 8.03906 9.224 8.03906 9.5V23.5C8.03906 23.776 8.26306 24 8.53906 24H15.5391V23H9.03906V14.5H23.0391V16H24.0391V9.5C24.0391 9.224 23.8151 9 23.5391 9ZM9.03906 13.5V10H11.0391V12H12.0391V10H15.5391V12H16.5391V10H20.0391V12H21.0391V10H23.0391V13.5H9.03906Z" fill="#D81E05"/>
</g>
<defs>
<clipPath id="clip0_1709_2920">
<rect width="16" height="16" fill="white" transform="translate(8.03906 8)"/>
</clipPath>
</defs>
</svg>
