<?xml version="1.0" encoding="utf-8"?>
<!-- Generator: Adobe Illustrator 22.0.1, SVG Export Plug-In . SVG Version: 6.00 Build 0)  -->
<svg version="1.1" id="Layer_1" xmlns="http://www.w3.org/2000/svg" xmlns:xlink="http://www.w3.org/1999/xlink" x="0px" y="0px"
	 viewBox="0 0 200 100" style="enable-background:new 0 0 200 100;" xml:space="preserve">
<style type="text/css">
	.st0{fill:#FFFFFF;}
	.st1{fill:#E0E0E0;}
	.st2{fill:#303030;}
	.st3{fill:#D81E05;}
</style>
<title>imagemaking / error</title>
<desc>Created with Sketch.</desc>
<g id="imagemaking-_x2F_-error">
	<g id="img_confirmacion_error" transform="translate(37.000000, 1.000000)">
		<path id="Path" class="st0" d="M31.5,9.1v34c0,29.6,31.9,37.2,31.9,37.2s31.9-6.2,31.9-37.2v-34l-6.6,2.1
			c-7.6,2.4-15.9,0.1-21.2-5.8l-4.1-4.6l-4.9,5.1c-5.4,5.7-13.6,7.7-21,5.3L31.5,9.1z"/>
		<path id="Path_1_" class="st1" d="M38.2,11.2c0.7,0.2,1.4,0.4,2.2,0.5v22.8c0,31.1,31.9,37.2,31.9,37.2c5.9-1.6,11.5-4.3,16.4-7.8
			c-9.3,12.6-25.2,16.4-25.2,16.4s-31.9-6.2-31.9-37.2V9.1L38.2,11.2z"/>
		<path id="Shape" class="st2" d="M63.4,81.1c-0.1,0-0.1,0-0.2,0c-0.3-0.1-32.5-8.1-32.5-38v-34c0-0.2,0.1-0.5,0.3-0.6
			c0.2-0.1,0.4-0.2,0.7-0.1l6,2c7.2,2.4,15,0.4,20.2-5l4.8-5.1C63,0.1,63.2,0,63.4,0c0.2,0,0.4,0.1,0.5,0.2L68,4.9
			c5.1,5.7,13.1,7.9,20.4,5.6L95,8.4c0.2-0.1,0.5,0,0.7,0.1C95.9,8.6,96,8.9,96,9.1v34c0,31.4-32.2,37.9-32.5,38L63.4,81.1z
			 M32.2,10.1v33c0,27.7,28.8,35.9,31.2,36.5c2.4-0.5,31.1-7.5,31.1-36.5v-33l-5.6,1.8c-7.9,2.5-16.4,0.1-22-6l-3.6-4L59,6.4
			c-5.6,5.8-14.1,7.9-21.8,5.4L32.2,10.1z"/>
		<path id="Path_2_" class="st2" d="M24.8,64.2H14.6c-0.4,0-0.7-0.3-0.7-0.7c0-0.4,0.3-0.7,0.7-0.7h10.2c0.4,0,0.7,0.3,0.7,0.7
			C25.5,63.9,25.2,64.2,24.8,64.2L24.8,64.2z"/>
		<path id="Path_3_" class="st2" d="M19.3,71.3H0.7C0.3,71.3,0,71,0,70.6c0-0.4,0.3-0.7,0.7-0.7h18.5c0.4,0,0.7,0.3,0.7,0.7
			C20,71,19.7,71.3,19.3,71.3L19.3,71.3z"/>
		<path id="Path_4_" class="st2" d="M34,81.1H15.5c-0.4,0-0.7-0.3-0.7-0.7c0-0.4,0.3-0.7,0.7-0.7H34c0.4,0,0.7,0.3,0.7,0.7
			C34.7,80.7,34.4,81.1,34,81.1z"/>
		<ellipse id="Oval" class="st1" cx="63.2" cy="95.6" rx="21" ry="3.2"/>
		<path id="Combined-Shape" class="st3" d="M63,36.9l4.8-4.8c0.5-0.7,1.3-1.1,2.3-1.1c1.6,0,2.9,1.3,2.9,2.9c0,0.8-0.4,1.6-0.9,2.1
			l0,0l-4.9,5l5,5l0,0c0.5,0.5,0.8,1.2,0.8,2c0,1.6-1.3,2.9-2.9,2.9c-0.9,0-1.7-0.4-2.3-1.1l-4.5-4.5l0,0L63,45.2l-0.2,0.2l0,0
			l-4.5,4.5C57.8,50.6,57,51,56.1,51c-1.6,0-2.9-1.3-2.9-2.9c0-0.8,0.3-1.5,0.8-2l0,0l5-5l-4.9-5l0,0c-0.6-0.5-0.9-1.3-0.9-2.1
			c0-1.6,1.3-2.9,2.9-2.9c0.9,0,1.7,0.4,2.2,1L63,36.9z"/>
	</g>
</g>
</svg>
