<?xml version="1.0" encoding="utf-8"?>
<!-- Generator: Adobe Illustrator 22.0.1, SVG Export Plug-In . SVG Version: 6.00 Build 0)  -->
<svg version="1.1" id="Layer_1" xmlns="http://www.w3.org/2000/svg" xmlns:xlink="http://www.w3.org/1999/xlink" x="0px" y="0px"
	 viewBox="0 0 200 100" style="enable-background:new 0 0 200 100;" xml:space="preserve">
<style type="text/css">
	.st0{fill:#FFFFFF;}
	.st1{fill:#E0E0E0;}
	.st2{fill:#303030;}
	.st3{fill:#8DB602;}
</style>
<title>imagemaking / confirmacion_ok</title>
<desc>Created with Sketch.</desc>
<g id="imagemaking-_x2F_-confirmacion_x5F_ok">
	<g transform="translate(32.000000, 0.000000)">
		<path id="Path" class="st0" d="M35.9,9v33.8c0,29.5,31.7,37.1,31.7,37.1s31.8-6.1,31.8-37.1V9l-6.6,2.1
			c-7.6,2.4-15.8,0.1-21.1-5.8l-4.1-4.6l-4.8,5.1c-5.4,5.6-13.5,7.7-20.9,5.2L35.9,9z"/>
		<path id="Path_1_" class="st1" d="M43.7,11.1c0.7,0.2,1.4,0.4,2.2,0.5v22.7c0,31,31.8,37.1,31.8,37.1c5.9-1.6,11.4-4.3,16.4-7.8
			c-9.3,12.5-25.1,16.3-25.1,16.3s-31.8-6.1-31.8-37V9L43.7,11.1z"/>
		<path id="Shape" class="st2" d="M67.7,80.7h-0.2c-0.3-0.1-32.4-8.1-32.4-37.8V9c0-0.2,0.1-0.5,0.3-0.6c0.2-0.1,0.4-0.2,0.7-0.1
			l6,2c7.1,2.4,15,0.4,20.2-5l4.8-5.1C67.3,0.1,67.5,0,67.7,0c0.2,0,0.4,0.1,0.5,0.2l4.1,4.6c5.1,5.7,13,7.9,20.3,5.6l6.6-2.1
			c0.2-0.1,0.5,0,0.7,0.1c0.2,0.1,0.3,0.4,0.3,0.6v33.8c0,31.2-32,37.7-32.4,37.8L67.7,80.7z M36.6,10.1v32.8
			c0,27.4,28.7,35.7,31,36.3c2.4-0.5,31-7.4,31-36.3V10l-5.5,1.8c-7.9,2.5-16.4,0.1-21.9-6l-3.6-4l-4.3,4.5c-5.6,5.8-14,8-21.7,5.4
			L36.6,10.1z"/>
		<path id="Path_2_" class="st2" d="M29.3,63.9H19.1c-0.4,0-0.7-0.3-0.7-0.7c0-0.4,0.3-0.7,0.7-0.7h10.1c0.4,0,0.7,0.3,0.7,0.7
			C30,63.6,29.7,63.9,29.3,63.9L29.3,63.9z"/>
		<path id="Path_3_" class="st2" d="M23.8,70.9h-23c-0.4,0-0.7-0.3-0.7-0.7s0.3-0.7,0.7-0.7h23c0.4,0,0.7,0.3,0.7,0.7
			S24.2,70.9,23.8,70.9z"/>
		<path id="Path_4_" class="st2" d="M38.4,80.7H15.4c-0.4,0-0.7-0.3-0.7-0.7c0-0.4,0.3-0.7,0.7-0.7h23.1c0.4,0,0.7,0.3,0.7,0.7
			C39.2,80.3,38.9,80.7,38.4,80.7z"/>
		<ellipse id="Oval" class="st1" cx="67.3" cy="95.6" rx="20.9" ry="3.1"/>
		<ellipse id="Oval_1_" class="st3" cx="63.1" cy="49" rx="3" ry="3"/>
		<polygon id="Rectangle" class="st3" points="65.1,51.2 60.8,47 66,41.8 70.2,46.1 		"/>
		<ellipse id="Oval_2_" class="st3" cx="77.4" cy="34.6" rx="3" ry="3"/>
		<polygon id="Rectangle_1_" class="st3" points="75.2,32.6 79.5,36.8 70,46.3 65.7,42.1 		"/>
		<ellipse id="Oval_3_" class="st3" cx="63.1" cy="49" rx="3" ry="3"/>
		<ellipse id="Oval_4_" class="st3" cx="58" cy="43.9" rx="3" ry="3"/>
		<polygon id="Rectangle_2_" class="st3" points="55.9,46.1 60.2,41.8 65.3,47 61.1,51.2 		"/>
	</g>
</g>
</svg>
