<svg width="12" height="12" viewBox="0 0 12 12" fill="none" xmlns="http://www.w3.org/2000/svg">
<path fill-rule="evenodd" clip-rule="evenodd" d="M4.9028 5.88762C4.93258 6.61278 5.42373 7.18083 6.02099 7.18083C6.62673 7.18083 7.10603 6.62012 7.13888 5.87487C7.14752 5.73573 7.15192 5.60542 7.15612 5.4793C7.16033 5.35378 7.16431 5.23515 7.17211 5.12062L7.17314 5.1022C7.18943 4.71489 7.20939 4.48255 7.23049 4.23695L7.23062 4.23536L7.23072 4.2342C7.25218 3.98422 7.27438 3.72554 7.29197 3.30747L7.29224 3.30009L7.2924 3.2949C7.30745 2.81937 7.32446 2.28146 7.35825 1.76281C7.38561 1.4741 7.34465 1.17901 7.2426 0.930195C7.00716 0.356414 6.54177 0 6.028 0C5.91883 0 5.80931 0.0165324 5.70241 0.049089L5.69771 0.0505204C5.10887 0.237779 4.68153 0.933797 4.68153 1.7056L4.68244 1.74157C4.69089 1.90675 4.69938 2.07707 4.70783 2.24738C4.71628 2.41709 4.72473 2.58679 4.73314 2.75143C4.75891 3.38847 4.7893 3.86874 4.81871 4.33321C4.8477 4.79085 4.87763 5.26406 4.9028 5.88762ZM4.5 10.4043C4.5 11.2842 5.1686 12 5.99043 12C6.79254 12 7.46955 11.3026 7.49962 10.4454L7.5 10.4245C7.5 9.51836 6.84532 8.80852 6.00957 8.80852C5.17719 8.80852 4.5 9.52432 4.5 10.4043Z" fill="white"/>
</svg>
