<svg width="33" height="32" viewBox="0 0 33 32" fill="none" xmlns="http://www.w3.org/2000/svg">
<rect x="0.539062" y="0.5" width="31" height="31" rx="15.5" fill="white"/>
<rect x="0.539062" y="0.5" width="31" height="31" rx="15.5" stroke="#D81E05"/>
<path fill-rule="evenodd" clip-rule="evenodd" d="M22.5391 10.6667C22.9557 10.6667 23.3099 10.8148 23.6016 11.1111C23.8932 11.4074 24.0391 11.7672 24.0391 12.1905V19.8095C24.0391 20.2328 23.8932 20.5926 23.6016 20.8889C23.3099 21.1852 22.9557 21.3333 22.5391 21.3333H9.53906C9.12239 21.3333 8.76823 21.1852 8.47656 20.8889C8.18489 20.5926 8.03906 20.2328 8.03906 19.8095V12.1905C8.03906 11.7672 8.18489 11.4074 8.47656 11.1111C8.76823 10.8148 9.12239 10.6667 9.53906 10.6667H22.5391ZM9.53906 11.6824C9.40365 11.6824 9.28646 11.7327 9.1875 11.8332C9.08854 11.9337 9.03906 12.0528 9.03906 12.1903V13.2062H23.0391V12.1903C23.0391 12.0528 22.9896 11.9337 22.8906 11.8332C22.7917 11.7327 22.6745 11.6824 22.5391 11.6824H9.53906ZM22.5391 20.3176C22.6745 20.3176 22.7917 20.2673 22.8906 20.1668C22.9896 20.0662 23.0391 19.9472 23.0391 19.8096V15.2382H9.03906V19.8096C9.03906 19.9472 9.08854 20.0662 9.1875 20.1668C9.28646 20.2673 9.40365 20.3176 9.53906 20.3176H22.5391Z" fill="#D81E05"/>
</svg>
