<?xml version="1.0" encoding="utf-8"?>
<svg xmlns="http://www.w3.org/2000/svg" xmlns:xlink="http://www.w3.org/1999/xlink" version="1.1" id="11" x="0px" y="0px" viewBox="0 0 74 71" enable-background="new 0 0 74 71" xml:space="preserve">
	<title>Ica</title>
<g>
	<path id="101" data-ng-click="$ctrl.openMap(2, '101', true, $event)" fill="none" stroke="#020202" stroke-width="0.3" stroke-miterlimit="10" d="M38.691,56.761l0.688,0.4l0.469,0.482   l0.799,1.405l0.441,0.937l-0.083,0.606c0,0,0.193,0.276,0.22,0.413c0.028,0.138,0.303,0.22,0.303,0.22l0.441,0.083l1.323,0.248   l0.992,0.441l0.882,0.634c0,0,0,0.909-0.028,1.13s-0.248,0.689-0.248,0.689l-0.276,0.276c0,0,0.358,0.606,0.551,0.772   s0.276-0.055,0.496-0.055c0.22,0,0.717-0.028,0.717-0.028l0.524,0.331l0.579,0.854v0.882c0,0-0.551,0-0.689,0   c-0.138,0-0.276,0.468-0.276,0.468s0.248,0.22,0.248,0.303c0,0.083,0.524,0.276,0.661,0.413c0.138,0.138,0.413,0.22,0.413,0.22   s0.358,0.11,0.579,0.11s0.303,0.165,0.303,0.165s0.331,0.165,0.551,0.331s0.441,0.248,0.441,0.248l0.358-0.138l0.496-0.827   l0.276-1.433c0,0,0.11-0.11,0.193-0.165c0.083-0.055,0.441-0.303,0.496-0.413c0.055-0.11,0.496-0.799,0.634-0.992   c0.138-0.193,0.303-1.13,0.331-1.213c0.028-0.083,0.276-0.441,0.303-0.551c0.028-0.11,0.22-0.772,0.22-0.772   s0.661-0.799,0.785-1.033c0.124-0.234,0.317-0.124,0.482-0.289c0.165-0.165,0.579-0.358,0.579-0.358s0.303-0.083,0.386-0.193   s0.524-0.248,0.937-0.551c0.413-0.303,0.744-0.193,0.992-0.303c0.248-0.11,0.386-0.124,0.386-0.124s0.785-0.333,1.047-0.51   c0.263-0.176,1.075-0.606,1.185-0.634c0.11-0.028,0.606-0.386,0.606-0.386s0.358-0.827,0.358-0.909s0.255-1.323,0.255-1.323   l-0.172-0.882c0,0-0.138-0.138-0.138-0.22s0-0.579,0.028-0.689c0.028-0.11,0.165-0.083,0.165-0.083s-0.055-0.386-0.083-0.717   c-0.028-0.331-0.138-0.386-0.248-0.551c-0.11-0.165-0.386-0.386-0.468-0.386c-0.083,0-0.579-0.331-0.579-0.331l-0.524-0.055   c0,0,0.028-0.468-0.11-0.772c-0.138-0.303,0-0.22-0.11-0.496c-0.11-0.276-0.055-0.358-0.028-0.496   c0.028-0.138,0.138-0.551,0.138-0.799c0-0.248,0-0.441,0-0.441s-0.606,0.165-0.799,0.165s-0.524,0.138-0.686,0.079   c-0.162-0.059-0.417,0.17-0.527,0.17s-0.138-0.22-0.083-0.441c0.055-0.22-0.138-0.165-0.358-0.303   c-0.22-0.138-0.11-0.358-0.248-0.524c-0.138-0.165-0.138-0.524-0.138-0.524l0.165-0.496c0,0,0.413-0.358,0.551-0.496   c0.138-0.138,0.441-0.358,0.606-0.496c0.165-0.138-0.386-0.11-0.386-0.11l-0.965-0.413l-0.496-0.386c0,0-0.524-0.524-0.661-0.606   c-0.138-0.083-0.579-0.744-0.579-0.744l-0.303,0.248l-0.772,0.386l-0.193,0.358l-0.606,0.493c0,0-1.516,0.113-1.902,0.031   s-0.606,0.028-0.606,0.028l-0.441,0.909l-0.937,0.165v0.496l-1.047,0.248v0.909l-0.689-0.083v-0.717l-1.488,0.028l-0.193-0.882   l-0.634,0.11v-1.02h-0.827l-0.303,0.661h-1.268h-1.157l0.193,0.992l-0.413-0.028v-0.496h-0.992c0,0-0.22,1.654-0.22,1.819   s0,1.047,0,1.047l-0.386,0.551l0.606,0.937v1.984H39.27l-0.276,0.331v0.772l-0.496,0.551l-0.717,0.717l0.413,0.276L38.691,56.761z"> 
	<title>Nasca</title></path>
	<path id="100" data-ng-click="$ctrl.openMap(2, '100', true, $event)" fill="none" stroke="#020202" stroke-width="0.3" stroke-miterlimit="10" d="M17.471,10.16v1.433l0.468,0.661l0.441,0.772   V14.9l-0.165,0.827l0.441,0.386l0.276,0.551c0,0,0.11,0.717,0,0.882c-0.11,0.165-0.22,0.992-0.22,0.992s-0.122,0.386,0.269,0.386   s0.888-0.496,0.888-0.496l1.709-0.055l0.772-0.331l0.992-0.165l0.717,1.047l0.717,0.276v0.551h1.213l0.496-0.386h1.874l0.496-0.441   v-0.496l0.441-0.055v-0.772l0.827-0.055v-1.102l0.386-0.055v-0.717l1.102,0.055v-1.213l0.22-1.268l-0.766-0.34l-1.108,0.12   l-0.661-0.331v-0.827l0.551-0.716l0.551-0.331l0.064-0.22l0.707-0.331l0.628-0.996l-0.105-0.562c0,0,0.272-0.105,0.358-0.537   c0.086-0.432,0.165-0.827,0.165-0.827l0.165-0.827L32.206,5.65L32.16,5.42l0.11-1.213l0.22-1.102h1.654l0.11-1.047h-0.827h-0.413   l-1.157-0.413l-1.35,0.138l-0.386,0.423L29.625,3.05h-0.579l-1.012-0.54l-1.322-0.527l-0.652-0.307L25.27,1.644l-0.358-0.083   l-0.165,1.24l-1.736,0.827l-0.555,0.864l-0.561,0.211l-0.248,0.372l-0.785,0.372l-0.205,0.378l-0.994,0.78h-0.289l-0.152,1.107   l-0.386,1.311l-0.041,0.723l-0.413,0.413H17.471z"> 
	<title>Chincha</title></path>
	<path id="103" data-ng-click="$ctrl.openMap(2, '103', true, $event)" fill="none" stroke="#020202" stroke-width="0.3" stroke-miterlimit="10" d="M18.711,18.538l-0.461,0.661l-0.145,1.213   c0,0,0.291,0.606,0.145,0.882c-0.145,0.276,0,0.661,0,0.661l-1.303,1.433c0,0,0.11,0.717,0,1.047s-0.992,1.047-0.992,1.047   l-0.661-0.882l-0.937-0.772l-0.717,0.331v1.102l-0.661,0.264l0.551,0.955h1.874l0.6,0.435l-0.159,0.717l0.159,0.276v0.882   l0.116,0.551l-0.116,0.882c0,0-0.38,0.441-0.269,0.772c0.11,0.331,0.304,3.252,0.304,3.252l0.468-0.276c0,0,1.886,0.11,2.205,0.606   c0.318,0.496,0.661,0.923,0.661,0.923l0.551,0.565l0.551,0.441v1.433l0.276,1.598c0,0,1.213,0.331,1.488,0.717   s1.102,0.661,1.102,0.661v-0.882c0,0,0.165-0.331,0.331-0.386c0.165-0.055,0.441-0.165,0.441-0.165v-1.047l-0.606-0.055   l-0.165-0.496l-0.827-0.055v-0.441l-0.441-0.331l-0.386-0.22L21.357,35.5h0.551v-1.254h0.606v-0.551l0.441-0.165L22.9,32.427h0.496   l0.386-2.205h-1.047L22.68,29.01l-0.551-0.717l-0.11-1.047v-0.765h0.441l0.276-0.447l7.606-0.276l0.441-0.331l0.496-0.055   l0.331-0.441l1.378-0.055l0.827-0.055V24.38l0.441-0.331v-0.496l0.827-0.276v-0.386l0.717-0.165l0.441-0.496l0.992-0.827   l0.772-0.992l-0.4-1.157l-0.372-0.386v-0.882l-0.041-0.468l0.413-0.703l0.604-0.807l0.347-0.847l0.248-0.744l0.294-0.73   l-1.865-1.764l-0.551,0.772l-1.102,0.11l-0.551,0.22l-0.611,0.198l-1.153,0.243l-0.331,0.248L32.387,13.8l-0.609-0.257   l-0.169,2.184l-1.102-0.055v0.717l-0.386,0.055v1.102l-0.827,0.055v0.772l-0.441,0.055v0.496l-0.496,0.441h-1.874l-0.496,0.386   h-1.213v-0.551l-0.717-0.276l-0.717-1.047l-0.992,0.165l-0.772,0.331l-1.709,0.055c0,0-0.321,0.356-0.604,0.426   C18.981,18.924,18.711,18.538,18.711,18.538z"> 
	<title>Pisco</title></path>
	<path id="99" data-ng-click="$ctrl.openMap(2, '99', true, $event)" fill="none" stroke="#020202" stroke-width="0.3" stroke-miterlimit="10" d="M23.562,41.136l0.441,0.661   c0,0,0.579,0.468,0.551,0.661c-0.028,0.193,0,1.433,0,1.433h0.331v0.817l0.524,1.112c0,0,0.68,0.799,0.629,0.896   c-0.051,0.097,0.17,1.144,0.17,1.144h0.772l0.606,0.441l1.157,1.543c0,0,0.799-0.028,0.909-0.028c0.11,0,0.413,0.028,0.413,0.028   l2.976,2.315h0.396l0.789,0.413l0.441,0.441l0.606,0.882l0.634,0.579l0.551,0.11h0.648h0.335l0.306,0.634l-0.186,0.475l0.22,0.434   l1.213-1.268v-0.772l0.276-0.331h0.441v-1.984l-0.606-0.937l0.386-0.551l0.22-2.866h0.992v0.496l0.413,0.028l-0.193-0.992   l0.069-1.054l0.517-0.021v-0.413h0.455l0.165-0.496l0.393-0.021l0.124-1.405l0.434-0.083v-0.599l1.178,0.083V41.99l0.434-0.083   l-0.103-0.599h0.599v-1.426h-0.475l-0.062-2.852l0.31-0.227v-0.393l-0.413-0.744l0.31-0.165l0.331-0.351l-0.475-0.31l-0.269-0.682   c0,0,0.227-0.331,0.31-0.331s0.434-0.351,0.434-0.455s0-0.682,0-0.682v-0.62v-0.723l-0.31-0.641l-0.041-0.703l-0.248-0.331   c0,0-0.461-0.202-0.689-0.185c-0.228,0.017-1.089-0.001-1.089-0.001s-0.372,0.083-0.455,0.062c-0.083-0.021-0.62-0.344-0.723-0.331   c-0.103,0.014-0.806-0.723-0.806-0.723s-0.517-0.434-0.641-0.496c-0.124-0.062-0.475-0.31-0.537-0.31   c-0.062,0-0.641-0.372-0.641-0.372l0.087-0.434l-0.253-0.145l-0.475-0.103l-1.24-0.152l-0.703-0.24l-0.289-0.145   c0,0-0.31-0.413-0.31-0.496s0.186-0.413,0.186-0.413s0.214-0.034,0.331-0.145c0.117-0.11,0.186-0.269,0.207-0.351   c0.021-0.083,0.041-0.186,0.145-0.31c0.103-0.124,0.241-0.237,0.307-0.346c0.065-0.109,0.107-0.15,0.107-0.274   c0-0.124-0.248-0.517-0.248-0.517l-0.269-0.331l-0.572-0.434l-0.336,0.275l-0.601,0.139v0.269l-0.827,0.393v0.372l-0.441,0.455   v0.351l-2.205,0.2l-0.331,0.441l-0.496,0.055l-0.441,0.331l-7.606,0.276l-0.276,0.447h-0.441l0.11,1.813l0.551,0.717l0.055,1.213   h1.047l-0.386,2.205H22.9l0.055,1.102l-0.441,0.165v0.551h-0.606V35.5h-0.551l0.331,1.337l0.386,0.22l0.441,0.331v0.441   l0.827,0.055l0.165,0.496l0.606,0.055v0.868c0,0-0.772,0.53-0.772,0.73c0,0.2,0,0.882,0,0.882L23.562,41.136z"> 
	<title>Ica</title></path>
	<path id="102" data-ng-click="$ctrl.openMap(2, '102', true, $event)" fill="none" stroke="#020202" stroke-width="0.3" stroke-miterlimit="10" d="M49.797,46.351l0.041-0.641l-0.083-0.785   l-0.234-0.648l-0.441-0.22v-0.496v-0.772l0.551-0.344l0.331-0.372v-0.441l-0.79-0.292l-0.698-0.314l-0.231-0.21l-0.183-0.189   l-0.083-0.262l0.441-0.496l0.22-0.441l0.11-0.496l0.204-0.312l0.447-0.56l1.223-0.781c0,0,1.089-0.427,0.606-0.441   c-0.482-0.014-1.02-0.193-1.02-0.193l-0.413-0.413l-0.606-0.606l0.11-0.744l-0.041-0.661l0.207-0.634l0.386-0.331l0.069-0.524   l0.065-0.634l-0.299-0.44l-0.295-0.464l0.116-0.322c0,0-0.413-0.124-0.537-0.165c-0.124-0.041-0.289-0.289-0.289-0.289   l-0.317,0.138l-0.261,0.174l-0.401,0.267h-0.661H46.49c0,0-0.372-0.165-0.744-0.207c-0.372-0.041-0.868-0.083-0.868-0.083   l0.31,0.641v2.026l-0.258,0.335l-0.176,0.119c0,0-0.142,0.112-0.173,0.15c-0.031,0.038-0.137,0.181-0.137,0.181l0.269,0.682   l0.475,0.31L44.858,35.5l-0.31,0.165l0.413,0.744v0.393l-0.31,0.227l0.062,2.852h0.475v1.364l-0.599,0.062l0.103,0.599   l-0.434,0.083v0.951l-1.178-0.083v0.599l-0.434,0.083l-0.124,1.405l-0.393,0.021l-0.165,0.496h-0.455v0.413l-0.517,0.021   l-0.069,1.054h2.425l0.303-0.661h0.827v1.02l0.634-0.11l0.193,0.882l1.488-0.028v0.717l0.689,0.083v-0.909l1.047-0.248v-0.496   l0.937-0.165L49.797,46.351z"> 
	<title>Palpa</title></path>
</g>
</svg>
