<?xml version="1.0" encoding="utf-8"?>
<svg xmlns="http://www.w3.org/2000/svg" xmlns:xlink="http://www.w3.org/1999/xlink" version="1.1" id="12" x="0px" y="0px" viewBox="-260 385.89 74 71" enable-background="new -260 385.89 74 71" xml:space="preserve">
	<title>Junín</title>
<path id="109" data-ng-click="$ctrl.openMap(2, '109', true, $event)" fill="none" stroke="#020202" stroke-width="0.3" stroke-miterlimit="10" d="M-213.917,432.619l0.923,0.079l0.517,0.044  l0.453,1.152l0.37,0.782l0.193,0.206l0.469,0.386c0,0,0.12-0.181,0.243,0.19c0.123,0.37,0.373,0.738,0.373,0.738l0.277,0.283  l0.399,0.432l1.244,0.91l1.41,0.846l0.809-0.123l0.604-0.344l0.068-0.397c0,0,0.64-0.252,0.896-0.352  c0.256-0.101,0.955-0.389,0.955-0.389l0.793-0.288l0.565-0.205l0.453,0.041c0,0,0.453,0.453,0.576,0.535  c0.123,0.082,0.453,0.288,0.453,0.288l0.494,0.946l0.411,0.617l0.704,0.572l0.366,0.21c0,0,0.411,0.165,0.535,0.123  c0.123-0.041,0.329-0.288,0.453-0.37c0.123-0.082,0.37-0.37,0.37-0.37l0.897,0.283l0.42,0.088l0.288,0.123l0.494-0.041  c0,0,0.248,0.155,0.3-0.179c0.051-0.334,0.112-1.015,0.112-1.015l0.082-0.7l0.082-0.494l1.44-0.165l0.576-0.247l0.411-0.552  l-0.04-0.625v-0.427h1.358l0.617-0.494v-0.823l-0.907-1.8l-0.821-1.45l-0.123-0.617v-1.605l-0.617,0.247l-0.518,0.007l-0.963-0.254  v-0.658l0.165-0.905l-0.206-0.658l-0.329-0.288l-0.017-1.051l0.14-1.13l0.535-1.152l0.576-0.7l0.247-0.247h1.111l0.041-0.741  l0.082-0.494c0,0,0.329-0.37,0.37-0.494s0.37-0.494,0.37-0.494l0.206-0.576l-1.111-1.152c0,0-0.082-0.329-0.082-0.658  c0-0.329,0-1.975,0-1.975l-0.283-2.073l-0.828-1.013l-0.741-0.658l-0.453-1.07l0.082-1.605l-0.946-1.029l-1.111-0.535l-0.809-0.766  l-0.426-0.468l-0.905,0.082l-0.082,0.988l-0.329,0.576c0,0-0.329,0.082-0.329,0.247c0,0.165,0,1.975,0,1.975l-0.864,1.07  l-0.206,0.494v3.58l-0.494,0.082l-0.741-0.288h-0.713l-0.151-0.946l-0.288-0.617l-0.034-0.591l-0.171-1.013l-0.535-0.37  l-0.741-0.082l-0.905-0.165l-1.234,0.296l-0.885,0.176l-0.555,0.31l-0.617,0.194l-0.782,0.135c0,0-0.453,0.247-0.7,0.288  s-1.481,0-1.481,0l-0.62-1.103l-0.573-0.625l-0.841-0.386l-0.27-0.025l-0.411-0.37l-0.411-0.535l-0.329-0.082l-1.193-0.123  l-0.453,0.023l-1.352-0.141l0.076,1.27l0.504,0.288l0.864,0.185l0.072,0.761h-0.411l-0.453,0.31l-1.81,0.101v1.152  c0,0-0.134,0.206-0.225,0.253c-0.092,0.047-0.442,0.137-0.54,0.168c-0.098,0.031-0.411,0.216-0.411,0.216l-0.716,0.432  c0,0-0.242,0.176-0.258,0.195c-0.016,0.019-0.113,0.216-0.113,0.216l-0.576,0.225l-0.288,0.886v0.874l-0.304,0.437l-0.143,0.156  l-0.132,0.089c0,0-0.105,0.003-0.139,0.059c-0.035,0.056-0.148,0.369-0.148,0.369s0.025,0.061-0.174,0.092  c-0.199,0.031-0.69,0.095-0.69,0.095l-0.375,0.038l-0.241,0.013l-0.454,0.098l-0.231,0.084l0.411,0.222l0.186,0.097l0.169,0.324  l0.208,0.206l0.236,0.277l0.17,0.359l0.132,0.525l0.037,0.289l0.127,0.179l0.153,0.215l0.545,0.555l0.594,0.285l-0.19,0.18  l-0.365,0.345l-0.309,0.617l-0.25,0.252l0.312,0.427l0.494-0.427l0.504-0.199c0,0,0.22-0.111,0.486-0.024  c0.266,0.088,0.496,0.221,0.552,0.273s0.244,0.278,0.28,0.345c0.035,0.067,0.135,0.285,0.144,0.415s0.021,0.22,0.032,0.241  c0.011,0.021,0.119,0.131,0.229,0.153c0.11,0.021,0.256,0.038,0.348,0.053s0.214,0.043,0.25,0.059  c0.036,0.016,0.204,0.098,0.233,0.105c0.029,0.007,0.344-0.052,0.495-0.06c0.151-0.008,0.429,0.034,0.502,0.134  s0.16,0.289,0.178,0.428s-0.035,0.417-0.035,0.417l0.478-0.009l0.283,0.009l0.617,0.411l0.206,0.741l0.103,0.473l0.638,1.008  l0.019,0.335l0.29,0.509l0.011,0.564l0.17,0.273l0.479,0.249l0.616,0.107l0.494,0.309c0,0,0.125,0.061,0.129,0.195  c0.003,0.134,0.031,0.408,0.056,0.504s0.055,0.278,0.055,0.278l-0.044,0.216l-0.025,0.396l-0.357,0.489l0.082,0.267  L-213.917,432.619z"> 
<title>Satipo</title></path>
<path id="108" data-ng-click="$ctrl.openMap(2, '108', true, $event)" fill="none" stroke="#020202" stroke-width="0.3" stroke-miterlimit="10" d="M-249.948,414.608c0,0,0.212-0.156,0.274-0.217  c0.062-0.062,0.206,0,0.185-0.206c-0.021-0.206-0.021-0.473-0.082-0.699c-0.062-0.226-0.062-0.613-0.103-0.8  c-0.041-0.187-0.082-0.575-0.165-0.618c-0.082-0.043-0.421-0.37-0.421-0.37l-0.073-0.454l-0.309-0.617l-0.062-0.405l-0.062-0.377  c0,0,0.309-0.309,0.432-0.309s0.597-0.103,0.597-0.103s0.127-0.041,0.249,0.103s0.533,0.473,0.533,0.473l0.288,0.103  c0,0,0.226,0,0.329,0c0.103,0,0.247,0.041,0.432,0c0.185-0.041,0.494-0.144,0.494-0.144s0.72-0.144,0.823-0.267  s0.35-0.432,0.35-0.432l0.37-0.37l0.432-0.514c0,0,0.309-0.226,0.432-0.247s0.535-0.288,0.535-0.288s0.165-0.103,0.206-0.103  c0.041,0,0.617,0.329,0.617,0.329l0.514,0.411l0.555,0.247l0.494,0.185c0,0,0.267,0.123,0.35,0.123s-0.041,0.041,0.082,0  s0.267-0.411,0.267-0.411l0.165-0.329c0,0,0.267-0.247,0.37-0.267c0.103-0.021,0.463-0.288,0.463-0.288l0.607-0.226l0.411-0.041  l0.72,0.185l0.247-0.144h0.37l0.432,0.041l1.142-0.123l0.309-0.185l0.093-0.597v-0.36h0.309h0.185h0.215l0.525,0.339l0.658-0.144  l0.165,0.273v0.609c0,0-0.298,0.054-0.329,0.352c-0.031,0.298,0.031,0.73,0.031,0.73l-0.031,0.339l0.782,0.514l-0.452,0.226h-0.453  v0.596h-0.37v0.454l-0.432-0.454h-0.679v0.577l-0.38-0.054l-0.22-0.031l-0.151-0.022l-0.112-0.016h-0.231h-0.17l-0.187,0.009  l-0.108,0.011l-0.414,0.041l-0.381-0.515l-0.902,1.133h-0.94l-0.511,0.458c0,0-0.383,0.273-0.425,0.304  c-0.042,0.031-0.37,0.278-0.37,0.278l-0.175,0.132c0,0-0.101,0.08-0.105,0.187c-0.004,0.106,0.071,0.537,0.084,0.629  s-0.003,0.438-0.03,0.494c-0.027,0.056-0.177,0.252-0.177,0.252s-0.259,0.177-0.306,0.206c-0.047,0.029-0.321,0.196-0.409,0.25  s-0.332,0.203-0.332,0.203l-0.363,0.372v0.926l-0.442-0.027l-0.216,0.027h-0.357l0.357,0.37l0.014,0.432l0.259,0.357l0.182,0.264  l0.176,0.304v0.54l-0.343,0.368l-0.275,0.295l-0.236,0.031l-0.2,0.066l-0.198,0.083l-0.29,0.126l-0.191,0.083l-0.136,0.058  l-0.199,0.077c0,0-0.277,0.038-0.323,0.042c-0.046,0.004-0.233,0.019-0.233,0.019l-0.294,0.075l-0.286,0.069l-0.223,0.042  l-0.186-0.177l-0.153-0.225l-0.159-0.261l-0.16-0.286c0,0-0.063-0.126-0.075-0.151c-0.011-0.025-0.03-0.061-0.043-0.101  c-0.013-0.04-0.046-0.152-0.046-0.152l-0.049-0.061l-0.2-0.083l-0.15-0.041l-0.124-0.08c0,0-0.111-0.184-0.119-0.204  c-0.008-0.02-0.079-0.185-0.079-0.185l-0.036-0.124c0,0,0.004-0.067,0.016-0.091c0.012-0.024,0.042-0.11,0.042-0.11l-0.006-0.076  l-0.016-0.063l-0.186-0.405l-0.254-0.475l-0.433-0.722l-0.299-0.481l-0.279-0.449L-249.948,414.608z"> 
<title>Junín</title></path>
<path id="107" data-ng-click="$ctrl.openMap(2, '107', true, $event)" fill="none" stroke="#020202" stroke-width="0.3" stroke-miterlimit="10" d="M-245.405,431.662l0.926,0.123  c0,0,0.278,0.247,0.37,0.216c0.093-0.031,0.786-0.168,0.786-0.168l0.233,0.076l0.833,0.278l0.329-0.055c0,0,0.115-0.099,0.325,0.055  c0.21,0.154,0.303,0.154,0.426,0.216c0.123,0.062,0.123-0.031,0.432,0.247c0.309,0.278,0.185,0.165,0.432,0.298  s0.463,0.195,0.463,0.195l0.339,0.093c0,0,0.305,0.062,0.322,0c0.017-0.062,0.141-0.154,0.233-0.154  c0.093,0,0.031,0.041,0.123-0.134c0.093-0.175,0.286-0.298,0.286-0.298c0.146-0.123,0.301-0.158,0.393-0.187  c0.093-0.029,0.37,0,0.37,0s0.401,0.279,0.555,0.279c0.154,0-0.093,0.247,0.154,0c0.247-0.247,0.278-0.189,0.494-0.279  c0.216-0.091,0.679,0,0.679,0l0.185,0.125c0,0,0.062-0.158,0.278-0.125c0.216,0.033,0.37,0.06,0.494,0s0.309-0.06,0.401-0.153  c0.093-0.093,0.37-0.494,0.37-0.494l-0.247-0.339c0,0,0-0.432,0.062-0.463s-0.062-0.216,0.185-0.185  c0.247,0.031,0.744,0.185,0.744,0.185s-0.274,0.278,0,0.247c0.274-0.031,0.274-0.123,0.49-0.247  c0.216-0.124,0.494-0.247,0.617-0.371s0.154-0.154,0.216-0.278s0-0.401,0-0.401l0.027-0.309c0,0-0.027-0.154,0.158-0.216  c0.185-0.062,0.555-0.123,0.648-0.123c0.093,0,0.339,0.123,0.463,0s0.309-0.37,0.309-0.37l0.401-0.864c0,0,0.298-0.154,0.334-0.154  s1.178-0.679,1.178-0.679s0.278-0.494,0.309-0.679c0.031-0.185,0.062-0.494,0-0.586c-0.062-0.093-0.278-0.339-0.278-0.339  l-0.216-0.432c0,0-0.062-0.247,0.062-0.463c0.123-0.216,0.216-0.463,0.278-0.679c0.062-0.216,0.195-0.247,0.19-0.401  c-0.005-0.154,0.057-0.278,0.15-0.37c0.093-0.093,0.864-0.988,0.864-0.988c0.154-0.093,0.648-0.648,0.833-0.648  s0.525-0.185,0.525-0.185s0.37-0.339,0.494-0.432s0.432-0.192,0.679-0.374c0.247-0.182,0.309-0.243,0.586-0.336  c0.278-0.093,0.247,0.154,0.278-0.093c0.031-0.247-0.093-0.339-0.123-0.586c-0.031-0.247-0.123-0.494-0.216-0.586  c-0.093-0.093-0.278-0.353-0.401-0.439c-0.123-0.086-0.093-0.333-0.278-0.41s-0.463-0.231-0.463-0.231s0.093-0.123-0.247,0  c-0.339,0.123-0.463-0.123-0.833,0c-0.37,0.123-2.901-0.055-2.901-0.055l-0.468-0.254c0,0-0.704,0-0.828,0s-0.895-0.37-0.895-0.37  l-0.741-0.401l-0.988-0.278h-0.365l0.101,0.409l0.044,0.272c0,0,0.03,0.201,0.032,0.218c0.002,0.017,0.021,0.152,0.028,0.192  c0.006,0.04,0.058,0.257,0.058,0.257l0.072,0.175l0.079,0.149l0.039,0.05l0.071,0.056l0.064,0.032l0.064,0.049  c0,0,0.034,0.136,0.034,0.172c0,0.035-0.009,0.195-0.012,0.222s-0.007,0.208-0.007,0.208l0.024,0.141c0,0-0.014-0.006,0.014,0.035  c0.028,0.041,0.075,0.06,0.006,0.146s-0.349,0.395-0.349,0.395l-0.198,0.159l-0.14,0.127c0,0-0.104,0.11-0.116,0.127  c-0.012,0.017-0.083,0.154-0.083,0.154l-0.038,0.148l-0.048,0.149l-0.197,0.47l-0.199,0.447l-0.145,0.327l-0.066,0.148l-0.035,0.048  l-0.036,0.022l-0.036,0.009c0,0-0.048,0.001-0.06,0s-0.098-0.026-0.098-0.026l-0.077-0.037l-0.079-0.05l-0.126-0.105  c0,0-0.016-0.101,0.01-0.127c0.027-0.026,0.071-0.059,0.063-0.096c-0.008-0.037-0.043-0.088-0.079-0.109  c-0.036-0.021-0.097-0.054-0.172-0.076c-0.074-0.022-0.139-0.038-0.139-0.038s0.085,0.156,0.115,0.2s0.131,0.172,0.131,0.172  l-0.122,0.058l-0.456,0.298l-0.224,0.205l-0.127,0.139l-0.057,0.069c0,0,0.026,0.163,0.027,0.227  c0.001,0.064,0.006,0.133-0.016,0.198s-0.017,0.086-0.061,0.131c-0.044,0.045-0.077,0.075-0.122,0.088  c-0.045,0.013-0.273,0.035-0.322,0.035s-0.288,0-0.322,0s-0.665,0-0.665,0s-0.128-0.127-0.15-0.16s-0.04-0.056-0.058-0.102  c-0.019-0.046-0.063-0.163-0.063-0.163s-0.092-0.113-0.143-0.137c-0.051-0.025-0.145-0.061-0.145-0.061l-0.191-0.056l-0.259-0.062  l-0.269-0.057l-0.176-0.031l-0.14-0.02l-0.174-0.015l-0.029-0.082c0,0-0.148,0.021-0.237,0.046s-0.183,0.053-0.227,0.067  c-0.044,0.014-0.123,0.036-0.281,0.099c-0.157,0.063-0.309,0.125-0.419,0.179c-0.11,0.054-0.388,0.201-0.436,0.226  c-0.048,0.025-0.175,0.092-0.175,0.092l0.055,0.072l0.07-0.001l0.11,0.008l0.051,0.016c0,0,0.079,0.046,0.108,0.112  c0.029,0.066,0.07,0.156,0.084,0.186c0.014,0.031,0.109,0.255,0.109,0.255s0.022,0.124,0.033,0.164  c0.011,0.04,0.087,0.254,0.101,0.288s0.066,0.162,0.101,0.236s0.133,0.225,0.161,0.256s0.028,0.034,0.121,0.126  c0.093,0.093,0.133,0.142,0.178,0.177c0.045,0.036,0.117,0.085,0.155,0.097s0.141,0.029,0.165,0.042  c0.023,0.013,0.077,0.094,0.113,0.179c0.036,0.085,0.078,0.179,0.093,0.212c0.015,0.034,0.069,0.162,0.08,0.215  s0.015,0.229,0.013,0.27s-0.009,0.215-0.009,0.215l0.022,0.342l0.005,0.186l-0.021,0.282l-0.08,0.101l-0.075,0.056l-0.085,0.052  l-0.096,0.061l-0.086,0.059l-0.095,0.066l-0.082,0.053l-0.061,0.034l-0.38,0.095c0,0-0.138,0.024-0.155,0.027  c-0.017,0.003-0.118,0.021-0.148,0.025c-0.029,0.005-0.132,0.022-0.132,0.022l-0.216,0.401h-0.37l-0.096-0.233l-0.066-0.132  l-0.066-0.103l-0.071-0.062l-0.103,0.021l-0.105,0.023l-0.158,0.026l-0.371,0.048l-0.382,0.041l-0.112,0.53l-0.012,0.056  c0,0-0.141,0.088-0.157,0.103s-0.071,0.082-0.08,0.113c-0.009,0.031-0.036,0.164-0.04,0.182s-0.044,0.217-0.046,0.229  s-0.036,0.178-0.039,0.197s-0.008,0.105-0.008,0.147s0,0.225,0,0.259s0.002,0.092,0.017,0.132c0.015,0.041,0.035,0.084,0.06,0.13  c0.025,0.046,0.051,0.111,0.043,0.122c-0.008,0.012-0.107,0.025-0.149,0.016s-0.111-0.029-0.126-0.034  c-0.015-0.005-0.245-0.1-0.296-0.125c-0.051-0.025-0.095-0.046-0.153-0.077c-0.058-0.031-0.29-0.161-0.29-0.161  s-0.165,0.047-0.229,0.107c-0.064,0.06-0.126,0.133-0.126,0.133l-0.176,0.184l-0.137,0.114l-0.103,0.048  c0,0-0.177-0.014-0.231-0.014c-0.054,0.001-0.074,0-0.143,0.005s-0.119,0.01-0.181,0.014c-0.063,0.004-0.121,0.007-0.194,0.008  s-0.047,0.003-0.167,0.001c-0.12-0.002-0.104,0.001-0.244-0.006c-0.14-0.006-0.11,0.04-0.166-0.008  c-0.056-0.048-0.081-0.069-0.135-0.116s0.001-0.063-0.081-0.069s-0.102-0.01-0.102,0.029s0.511,1.154,0.511,1.154l0.105,0.128  l0.07,0.198l0.112,0.136L-245.405,431.662z"> 
<title>Jauja</title></path>
<path id="106" data-ng-click="$ctrl.openMap(2, '106', true, $event)" fill="none" stroke="#020202" stroke-width="0.3" stroke-miterlimit="10" d="M-224.502,417.686  c0.288-0.009,1.23-0.16,1.394-0.206s0.109-0.497,0.314-0.503c0.206-0.006,0.596-0.707,0.596-0.707l-0.026-0.874l0.262-0.894  l0.569-0.242c0,0-0.006-0.206,0.358-0.422c0.364-0.217,0.882-0.378,1.044-0.465s0.786-0.276,0.813-0.757  c0.027-0.481-0.047-0.817-0.047-0.817s1.707-0.242,1.831-0.226c0.124,0.015,0.586-0.298,0.586-0.298l0.257-0.01l-0.015-0.771  l-1.075-0.174l-0.384-0.441c0,0-0.069-0.945-0.073-1.068s-0.231-0.858-0.231-0.858l-1.123-0.378c0,0,0.037-0.125-0.05-0.287  c-0.087-0.162-0.384-0.441-0.384-0.441l-0.386-0.524l-0.546-0.354l-0.341-0.402l-0.309,0.668l-0.078,0.358l-0.468-0.299  l-0.238-0.149l-0.294-0.207l-0.331-0.072l-0.246,0.031l-0.748-0.248l-0.342-0.443l-0.3-0.403l-0.313-0.239l-0.692-0.348  l-0.525,0.345l-0.152,0.416l-0.197,0.294l-0.582,0.141c0,0,0.131-0.086-0.194,0.047c-0.325,0.133-0.742-0.019-0.742-0.019  l-0.526,0.315l-0.323,0.204l-0.193,0.417c0,0-0.116,0.263-0.069,0.44s-0.112,0.388-0.112,0.388l-0.353,0.587  c0,0-0.125-0.037-0.246,0.048c-0.121,0.086-0.689,0.35-0.689,0.35s0.035-0.207-0.204,0.047s-0.605,0.276-0.834,0.256  c-0.229-0.019-0.31,0.025-0.517-0.01c-0.207-0.035-0.777,0.188-0.777,0.188l-0.519,0.551l-0.408,0.136l-0.367,0.134l0.182,0.188  l-0.02,0.054l0.432,0.583l0.017,0.577l-0.041,0.557c0,0-0.285,0.173-0.337,0.209c-0.052,0.036-0.155,0.121-0.247,0.154  c-0.092,0.034-0.135,0.008-0.278,0.054c-0.143,0.046-0.207,0.098-0.262,0.131c-0.055,0.034-0.216,0.062-0.188,0.191  c0.018,0.085-0.082-0.114-0.082-0.114s-0.139,0.177-0.16,0.285c-0.023,0.113,0.031-0.078-0.094-0.031s-0.164,0.102-0.309,0.123  c-0.145,0.022-0.191,0.027-0.27,0.062c-0.079,0.035-0.25,0.039-0.347,0.093c-0.097,0.054-0.33,0.189-0.401,0.231  c-0.071,0.043-0.216,0.139-0.216,0.139l-0.779,0.285l-0.434,0.679l0.103,0.527c0,0,0.241,0.228,0.268,0.268  c0.028,0.04,0.073,0.044,0.17,0.077c0.097,0.034,0.169,0.051,0.239,0.023c0.267-0.105,0.264-0.024,0.363-0.031  c0.116-0.008,0.185,0.108,0.185,0.108s0.161,0.173,0.216,0.221c0.055,0.048,0.216,0.259,0.241,0.31s0.17,0.245,0.145,0.328  c-0.025,0.083,0.525,0.313,0.525,0.313l0.162,0.031c-0.054-0.166,0.336,0.114,0.436,0.207c0.073,0.067,0.28,0.169,0.321,0.189  c0.041,0.02,0.833,0.314,0.833,0.314s0.102-0.218,0.173-0.133c0.071,0.086,0.119,0.063,0.119,0.063l0.123,0.015l0.152,0.037  l0.06-0.002l0.305,0.076l0.691,0.172l0.815,0.406l0.813,0.313l0.858-0.021l0.476,0.24l1.42,0.036l1.189-0.022l0.254-0.034  c0,0,0.147-0.049,0.215-0.051s0.114-0.003,0.213,0.019c0.099,0.021,0.131,0.044,0.201,0.04c0.07-0.004,0.22-0.037,0.272-0.055  c0.052-0.019,0.114-0.02,0.172-0.049c0.058-0.029,0.178-0.074,0.178-0.074L-224.502,417.686z"> 
<title>Chanchamayo</title></path>
<path id="111" data-ng-click="$ctrl.openMap(2, '111', true, $event)" fill="none" stroke="#020202" stroke-width="0.3" stroke-miterlimit="10" d="M-250.589,414.485l-0.772-0.629l-0.654-0.607  l-0.773-0.394l-0.796-0.192l-0.772,0.329l-1.072,0.201l-0.069,0.664l0.046,1.026l0.139,0.908l0.303,0.614c0,0,0.14,1.188,0.16,1.464  c0.02,0.276,0.144,0.231,0.139,0.424c-0.005,0.193,0.756,0.625,0.756,0.625l0.494,0.741l-0.123,1.015l0.949,0.615l0.532,0.345  l0.123,0.741l0.638,0.35l0.35,0.144c0,0,0.75-0.077,0.93-0.081s0.675-0.042,0.675-0.042l-0.34,1.085c0,0,0.02,0.692,0.137,0.826  c0.117,0.134,0.327,0.681,0.327,0.681l0.256,0.994l0.344,0.768l0.758,0.83l1.111,1.111l0.482,0.933l0.21,0.13l1.252-0.014  c0,0,0.291-0.213,0.417-0.346c0.126-0.133,0.355-0.24,0.355-0.24l0.29,0.161l0.255,0.127l0.262,0.094l0.208-0.002l-0.102-0.252  l-0.017-0.499l0.123-0.617l0.196-0.215l0.051-0.032l0.123-0.586l1.08-0.16c0,0,0.11,0.033,0.177,0.165  c0.066,0.132,0.163,0.365,0.163,0.365h0.37l0.216-0.401l0.814-0.17l0.451-0.292l0.216-0.216v-0.72v-0.422l-0.018-0.127l-0.198-0.49  l-0.088-0.116l-0.252-0.09l-0.154-0.134l-0.269-0.297l-0.168-0.32l-0.14-0.382l-0.226-0.605l-0.108-0.112l-0.23-0.023l-0.155-0.02  l-0.302-0.18l-0.234-0.139l-0.051-0.175l-1.09-1.389v-0.278l-0.249-0.281c0,0-0.084-0.255-0.077-0.315s0.1-0.278,0.1-0.278  l0.113-0.154l0.134-0.164l-0.117-0.085l-0.172-0.019l-0.741-0.772l-0.49,0.119l-0.961,0.406l-0.555,0.062l-0.802,0.185l-0.082-0.031  c0,0-0.375-0.546-0.435-0.658c-0.059-0.113-0.201-0.38-0.201-0.38l-0.099-0.269c0,0-0.031-0.066-0.076-0.085  c-0.045-0.019-0.111-0.06-0.178-0.074c-0.066-0.014-0.131-0.02-0.179-0.049c-0.047-0.029-0.096-0.072-0.096-0.072  s-0.098-0.132-0.119-0.204c-0.021-0.072-0.108-0.281-0.115-0.308c-0.007-0.027,0.005-0.059,0.026-0.115  c0.021-0.056,0.032-0.086,0.032-0.086s0-0.091-0.104-0.318c-0.104-0.226-0.422-0.809-0.422-0.809l-0.329-0.549l-0.617-0.995  l-0.253-0.049L-250.589,414.485z"> 
<title>Yauli</title></path>
<path id="105" data-ng-click="$ctrl.openMap(2, '105', true, $event)" fill="none" stroke="#020202" stroke-width="0.3" stroke-miterlimit="10" d="M-239.199,433.236l0.233-0.154l0.123-0.134  l0.072-0.105l0.319-0.267l0.288-0.113h0.37l0.222,0.141l0.333,0.138h0.154l0.187-0.159l0.307-0.12l0.216-0.05l0.136,0.012  l0.327,0.038l0.185,0.125l0.101-0.102l0.177-0.023l0.276,0.034l0.341-0.076l0.18-0.072l0.361-0.39l0.107-0.142l-0.107-0.147  l-0.138-0.285l0.03-0.185l0.03-0.185l0.065-0.175c0,0,0.296,0.018,0.39,0.044s0.474,0.131,0.474,0.131l-0.104,0.139v0.09  l0.104,0.018l0.097-0.016l0.237-0.121l0.07-0.055l0.187-0.106l0.338-0.192l0.179-0.127l0.167-0.205l0.049-0.073l0.031-0.123  l-0.008-0.116l-0.023-0.161l0.001-0.106l0.026-0.203l0.02-0.107l0.138-0.109l0.155-0.037l0.269-0.057l0.224-0.03l0.154,0.031  l0.14,0.023c0,0,0.179-0.05,0.215-0.1c0.036-0.05,0.208-0.253,0.208-0.253l0.284-0.565l0.172-0.369l0.304-0.141l1.208-0.693  l0.271-0.557l0.069-0.381l-0.031-0.327l-0.278-0.339l-0.216-0.432l0.015-0.351c0,0,0.166-0.347,0.191-0.418  c0.026-0.072,0.049-0.143,0.095-0.265s0.032-0.133,0.092-0.24s0.136-0.267,0.136-0.267l0.025-0.165l0.046-0.103l0.101-0.119  l0.552-0.636l0.198-0.217l0.092-0.119l0.226-0.194l0.403-0.343l0.169-0.092l0.299-0.084l0.261-0.12l0.146-0.132l0.184-0.163  l0.156-0.099l0.153-0.123l0.225-0.108l0.169-0.1l0.183-0.114l0.187-0.134l0.633-0.262l0.28,0.394l0.237,0.254l0.247,0.255  l0.162,0.108l0.494,0.224l-0.339,0.347l-0.216,0.177l-0.309,0.617l-0.25,0.252l0.312,0.427l0.494-0.427c0,0,0.35-0.153,0.504-0.199  c0.153-0.046,0.278-0.074,0.382-0.049c0.104,0.025,0.315,0.069,0.367,0.112c0.052,0.043,0.168,0.085,0.228,0.135  c0.06,0.051,0.183,0.184,0.237,0.254c0.054,0.07,0.204,0.252,0.226,0.404c0.021,0.152,0.008,0.301,0.031,0.347  s0.016,0.144,0.251,0.199c0.235,0.056,0.412,0.058,0.505,0.085c0.093,0.027,0.326,0.132,0.326,0.132s0.508-0.106,0.646-0.069  s0.371,0.139,0.433,0.285c0.061,0.147,0.108,0.294,0.112,0.393c0.004,0.099-0.026,0.269-0.078,0.36  c-0.051,0.09-0.143,0.268-0.143,0.268l-0.048,0.09l-0.168,0.234l-0.046,0.036l-0.37,0.309l-0.432,0.802c0,0-0.248,0.264-0.258,0.265  c-0.011,0.001-0.149,0.115-0.242,0.15s-0.342,0.12-0.342,0.12l-0.208,0.047l-0.431-0.063l-0.247,0.842c0,0-0.298,0.126-0.341,0.152  s-0.144,0.087-0.203,0.123c-0.059,0.036-0.319,0.19-0.319,0.19l-0.157,0.002l-0.184-0.094l-0.138-0.003l-0.139-0.003  c0,0-0.307-0.152-0.345-0.169c-0.038-0.018-0.237-0.095-0.306-0.123c-0.07-0.027-0.32-0.102-0.32-0.102l-0.092,0.004l-0.083,0.003  l-0.126,0.06l-0.074,0.074l-0.152,0.175l-0.091,0.09l-0.07,0.037l-0.113,0.009c0,0-0.081,0.012-0.148,0.168  c-0.067,0.156-0.104,0.241-0.104,0.241l-0.26,0.21l-0.13,0.052l-0.091,0.01l-0.159-0.133l-0.114-0.3l-0.602-0.108l-0.262-0.123  l-0.195-0.077l-0.294-0.167l-0.298-0.157l-0.324-0.201l-0.401-0.201l-0.648,0.154l-0.247,0.123l-0.262,0.17l-0.185,0.062  l0.097,0.339l-0.03,0.17l-0.092,0.236l-0.191,0.366l-0.339,0.139l-0.231,0.139v0.139l-0.108,0.293l-0.093,0.293l-0.139,0.231  l-0.123,0.031l-0.031,0.201l0.143,0.164l0.212,0.161l0.1,0.123l-0.022,0.307l-0.108,0.248h-0.256l-0.176,0.031l-0.473,0.592  l-0.067,0.072l-0.093,0.159l-0.607,0.01l-0.432,0.329l-0.874-0.041l-0.381,0.339l-0.16,0.306l-0.169,0.476l-0.322,0.305  l-0.182,0.188l-0.378,0.284l-0.247,0.303l-0.157,0.813h-0.185l-0.165-0.319l-0.525-0.271l-0.804-0.216l-0.399-0.13l-0.208-0.118  l0.126-0.231l-0.021-0.185l-0.213-0.327l-0.428-0.428c0,0-0.282-0.237-0.302-0.249c-0.021-0.012-0.357-0.195-0.357-0.195  l-0.432-0.239L-239.199,433.236z"> 
<title>Concepción</title></path>
<path id="104" data-ng-click="$ctrl.openMap(2, '104', true, $event)" fill="none" stroke="#020202" stroke-width="0.3" stroke-miterlimit="10" d="M-235.835,444.915c0,0,0.099-0.114,0.132-0.098  c0.033,0.017,0.4,0.115,0.4,0.115l0.216,0.37c0,0,0.096,0.129,0.137,0.181s0.429,0.587,0.48,0.588c0.051,0.001,0.119,0.009,0.243,0  c0.124-0.009,0.241-0.041,0.419,0.002c0.178,0.043,0.569-0.187,0.569-0.187s0.174-0.155,0.251-0.297s0.185-0.309,0.216-0.494  c0.031-0.185,0.17-0.382,0.247-0.535c0.077-0.153,0.026-0.403,0.113-0.453s0.102-0.185,0.308-0.211  c0.206-0.026,0.217,0.025,0.381-0.047c0.165-0.072,0.164-0.015,0.237-0.072c0.072-0.057,0.278-0.309,0.278-0.309l0.081-0.383  c0,0,0.338-0.122,0.406-0.127s0.145-0.045,0.253-0.079c0.108-0.034,0.481-0.394,0.534-0.453c0.053-0.059,0.567-0.283,0.665-0.325  c0.098-0.043,0.195-0.339,0.195-0.339s0.479-0.681,0.479-0.722c0-0.041-0.16-0.384-0.083-0.47c0.076-0.085,0.125-0.353,0.125-0.353  s0.298-0.041,0.339-0.051c0.041-0.01,0.905-0.089,0.946-0.116c0.041-0.028,0.93-1.367,0.93-1.367l0.53-0.882  c0,0,0.301-0.867,0.32-0.904c0.019-0.037,0.121-0.913,0.121-0.913l-0.07-0.775l0.07-0.445l0.115-0.327c0,0,0.151-0.756,0.123-0.833  s0.062-0.617,0.062-0.617l0.27-0.72l0.191-0.245l0.875,0.15l0.87,0.244l0.671,0.245l1.088,0.697l1.188,0.077l0.586-0.123  l0.772,0.123c0,0,0.509-0.015,0.555-0.015s0.375-0.473,0.375-0.473s0.195-0.376,0.334-0.453c0.14-0.077,0.463-0.226,0.463-0.226  l0.957-0.021l1.558,0.108l0.098-0.215l0.154-0.222l0.11-0.139l0.014-0.273l0.055-0.339l-0.033-0.183l-0.053-0.295l-0.017-0.17  l-0.003-0.178l-0.048-0.074l-0.13-0.096l-0.116-0.069l-0.334-0.221l-0.114-0.02l-0.502-0.087l-0.479-0.249l-0.079-0.128l-0.09-0.145  l-0.022-0.269l0.01-0.296l-0.29-0.509l-0.019-0.335l-0.638-1.008l-0.309-1.214l-0.617-0.411l-0.721-0.009l-0.238,0.374l-0.107,0.183  l-0.139,0.132l-0.37,0.309l-0.432,0.802l-0.219,0.207l-0.089,0.107l-0.312,0.137l-0.172,0.068l-0.259,0.063l-0.185-0.027  l-0.246-0.036l-0.247,0.842c0,0-0.508,0.224-0.591,0.31c-0.083,0.086-0.18,0.153-0.271,0.154c-0.091,0.001-0.157,0.002-0.157,0.002  l-0.184-0.094l-0.278-0.006l-0.16-0.079l-0.211-0.108l-0.28-0.105l-0.32-0.102l-0.175,0.007l-0.2,0.134l-0.152,0.175l-0.091,0.09  l-0.183,0.047l-0.107,0.091l-0.145,0.319l-0.11,0.133l-0.193,0.108l-0.178,0.031l-0.159-0.133l-0.114-0.3l-0.602-0.108l-0.457-0.201  l-0.199-0.113l-0.282-0.167l-0.416-0.199l-0.229-0.151l-0.191-0.095l-0.304,0.072l-0.344,0.082l-0.509,0.293l-0.185,0.062  l0.059,0.208l0.038,0.132l-0.03,0.17l-0.283,0.602l-0.376,0.14l-0.195,0.138v0.139l-0.041,0.174l-0.088,0.193l-0.063,0.193  l-0.071,0.134l-0.059,0.075c0,0-0.041,0.055-0.059,0.059c-0.018,0.004-0.091,0.081-0.091,0.081l-0.022,0.14l0.143,0.164l0.146,0.083  l0.166,0.201c0,0-0.019,0.258-0.02,0.283c-0.002,0.024-0.11,0.273-0.11,0.273h-0.256l-0.176,0.031l-0.18,0.264l-0.168,0.205  l-0.214,0.232l-0.071,0.122l0.239,0.016l0.255,0.038l0.141,0.089l0.228,0.172l0.244,0.098l0.417,0.121c0,0,0.098,0.047,0.115,0.053  c0.017,0.006,0.157,0.076,0.157,0.076l0.19,0.088l0.083,0.092l-0.004,0.616l0.009,0.238l0.025,0.628l-0.339,0.309l-0.309,0.144  l-0.062,0.473l0.206,0.206l0.079,1.152l-0.375,0.197l-0.201,0.055l-0.133,0.048l-0.135,0.026l-0.199,0.073l-0.179,0.101  l-0.167,0.103l-0.274,0.241l-0.185,0.514l-0.422,0.381l-0.212,0.21l-0.168,0.16l-0.08,0.208l-0.048,0.035  c0,0-0.031,0.079-0.242,0.112c-0.21,0.033-0.377,0.058-0.395,0.061c-0.018,0.003-0.486,0.085-0.486,0.085s-0.11-0.011-0.212,0.076  s-0.17,0.163-0.17,0.163l-0.171,0.154l-0.216,0.126l-0.162,0.072l-0.163,0.056l-0.215,0.047l-0.128-0.041l-0.128-0.023l-0.139-0.053  l-0.149-0.039l-0.158-0.012l0.05,1.852l-0.316,1.01l-0.109,0.482l-0.073,0.28l-0.06,0.241l-0.025,0.107L-235.835,444.915z"> 
<title>Huancayo</title></path>
<path id="112" data-ng-click="$ctrl.openMap(2, '112', true, $event)" fill="none" stroke="#020202" stroke-width="0.3" stroke-miterlimit="10" d="M-238.308,435.82l0.531,0.598l0.239,0.403  c0,0,0.212,0.543,0.361,0.563c0.149,0.02,0.37,0.278,0.37,0.278l0.226,0.257c0,0,0.329,0.37,0.37,0.432  c0.041,0.062,0.039,0.236,0.115,0.363c0.076,0.127,0.11,0.326,0.129,0.428s0.003,0.237,0.024,0.608c0.021,0.37,0,0.576,0,0.576  l0.216,0.267c0,0,0.358,0.225,0.597,0.247c0.239,0.021,0.609-0.145,0.819-0.289c0.21-0.143,0.287-0.355,0.436-0.375  s0.687-0.121,0.843-0.143c0.156-0.022,0.386-0.022,0.445-0.168c0.058-0.147,0.139-0.333,0.248-0.368s0.42-0.424,0.42-0.424  l0.214-0.167l0.185-0.514l0.442-0.344l0.378-0.174l0.251-0.048l0.594-0.278l-0.079-1.152l-0.206-0.206l0.062-0.473l0.309-0.144  l0.339-0.309l-0.062-1.574l-0.643-0.277l-0.344-0.072l-0.555-0.347l-0.363-0.055l-0.727,0.01l-0.432,0.329l-0.874-0.041  l-0.381,0.339l-0.194,0.371l-0.076,0.251l-0.059,0.161l-0.158,0.14l-0.255,0.257l-0.091,0.097l-0.378,0.284l-0.247,0.303  l-0.157,0.812h-0.185l-0.165-0.319l-0.525-0.271l-0.401-0.129l-0.494-0.146l-0.517-0.19L-238.308,435.82z"> 
<title>Chupaca</title></path>
<path id="110" data-ng-click="$ctrl.openMap(2, '110', true, $event)" fill="none" stroke="#020202" stroke-width="0.3" stroke-miterlimit="10" d="M-243.908,418.944l0.617-0.664  c0,0,0.062-0.355,0-0.54c-0.062-0.185-0.617-0.926-0.617-0.926l-0.014-0.432l-0.357-0.37c0,0,0.158,0.062,0.357,0  c0.199-0.062,0.658,0,0.658,0v-0.926l0.363-0.372l0.905-0.554c0,0,0.37-0.185,0.37-0.617c0-0.432-0.247-0.864,0-1.049  c0.247-0.185,0.617-0.473,0.864-0.638s0.617-0.535,0.617-0.535h0.94l0.902-1.133l0.381,0.515l0.617-0.062h0.494l0.864,0.123v-0.577  h0.679l0.432,0.454v-0.454h0.37v-0.596h0.607l0.415,0.596v0.577l-0.058,0.555c0,0-0.223,0.312-0.655,0.434s-0.432,0.101-0.679,0.266  c-0.247,0.165,0-0.144-0.247,0.165c-0.247,0.309-0.679,0.247-0.864,0.309c-0.185,0.062-0.802,0.418-0.802,0.418l-0.741,0.261  l-0.494,0.679c0,0,0,0.216,0.123,0.417c0.123,0.201,0.062,0.321,0.432,0.446c0.37,0.125,0.679,0,0.679,0s0.309,0.187,0.432,0.372  c0.123,0.185,0.37,0.926,0.37,0.926h0.617c0,0,0.247,0.062,0.494,0.247c0.247,0.185,1.088,0.509,1.088,0.509  s0.099-0.571,0.246,0.293c0.147,0.864,0.085,0.833,0.271,1.219c0.185,0.386,0.37,0.015,0.309,0.664  c-0.062,0.648,0.247,0.278-0.062,0.648c-0.309,0.37-0.171,0.185-0.517,0.494c-0.347,0.309-0.244,0.363-0.357,0.645  c-0.113,0.281,0.381-0.83-0.113,0.281c-0.494,1.111-0.494,1.111-0.494,1.111s-0.062,0.185-0.37,0  c-0.309-0.185-0.494-0.586-0.494-0.586s0.741,0.154,0.185,0.401c-0.555,0.247-0.926,0.741-0.926,0.741  c0.123,0.679-0.185,0.679-0.494,0.679c-0.309,0-0.988,0-0.988,0c-0.432-0.37-0.021-0.494-0.751-0.679  c-0.73-0.185-1.018-0.185-1.018-0.185s0.226-0.185-0.391,0c-0.617,0.185-1.049,0.437-1.049,0.437l-0.463,0.242l-0.535-0.319  l-0.051-0.175l-1.09-1.389v-0.278l-0.298-0.35c0,0-0.064-0.264,0-0.36c0.064-0.096,0.298-0.432,0.298-0.432s0-0.122-0.095-0.136  c-0.095-0.014-0.172-0.019-0.172-0.019L-243.908,418.944z"> 
<title>Tarma</title></path>
</svg>
