<?xml version="1.0" encoding="utf-8"?>
<svg xmlns="http://www.w3.org/2000/svg" xmlns:xlink="http://www.w3.org/1999/xlink" version="1.1" id="13" x="0px" y="0px" viewBox="0 0 74 71" enable-background="new 0 0 74 71" xml:space="preserve">
	<title>La Libertad</title>
<g>
	<path id="119" data-ng-click="$ctrl.openMap(2, '119', true, $event)" fill="none" stroke="#020202" stroke-width="0.3" stroke-miterlimit="10" d="M7.057,27.221l0.453-0.194c0,0,0.01,0,0.18-0.194   c0.17-0.194,0.053-0.272,0.325-0.427c0.272-0.155,0.582-0.233,0.582-0.233l0.388-0.388v-0.272c0,0,0.233-0.465,0.504-0.272   c0.272,0.194,0.97,0.659,0.97,0.659s0.194-0.194,0.194-0.388c0-0.194,0-0.465,0-0.621s-0.194-0.155,0-0.349   c0.194-0.194-0.039,0,0.194-0.194c0.233-0.194,0.388-0.194,0.504-0.272c0.116-0.078-0.039,0.194,0.194-0.272   c0.233-0.465,0.582-0.815,0.582-0.815s-0.233-0.155,0-0.31c0.233-0.155,0.126-0.349,0.374-0.543   c0.247-0.194,0.402-0.388,0.48-0.543c0.078-0.155,0.233-0.504,0.233-0.504s0.116-0.168,0-0.181c-0.116-0.013-0.621,0-0.621,0   c-0.465,0-0.388-0.362-0.388-0.362s-0.53-0.207-0.595-0.414c-0.065-0.207-0.259-0.362-0.375-0.362   c-0.116,0-0.504,0.052-0.504,0.052s-0.129-0.414-0.349-0.362s-0.609-0.233-0.609-0.233l-0.18-0.129H9.138l-0.215,0.129   l-0.138-0.388l-0.742-0.75c0,0-0.213-0.312-0.354-0.569c-0.141-0.256-0.451-0.698-0.451-0.698l-0.776-0.517l-0.536,0.892   c0,0-0.969,0.274-1.046,0.296s-0.05,0.017-0.359,0.1c-0.309,0.083-0.687,0.146-0.687,0.146l-0.243,0.014v0.621l-0.388,0.194   c0,0,0.233,0.362,0.233,0.685c0,0.323,0.233,0.944,0.272,1.215c0.039,0.272,0.246-0.078,0.039,0.543s-0.259,0.194-0.207,0.621   c0.052,0.427,0.091,0.194,0.052,0.427c-0.039,0.233,0.362,1.125,0.362,1.125l0.375,0.659L4.755,24.7c0,0,0,0.31,0.31,0.388   c0.31,0.078,0.853,1.319,0.853,1.319c0.233,0.116,0.6,0.479,0.6,0.479l0.214,0.336H7.057z"> 
	<title>Pacasmayo</title></path>
	<path id="113" data-ng-click="$ctrl.openMap(2, '113', true, $event)" fill="none" stroke="#020202" stroke-width="0.3" stroke-miterlimit="10" d="M13.388,36.621v-0.31l0.737-0.388   c0,0-0.233-0.497,0-0.423c0.233,0.074,1.086-0.007,1.086-0.007s-0.233,0.504,0,0.564c0.233,0.06,0.543,0.564,0.543,0.564h1.59   v-0.349l0.465-0.039l0.31-1.008h0.194v-1.086h2.444l0.194-0.31h0.349v-0.853h0.388v-0.582h0.543v-0.582h1.435h0.465v2.211   l1.202-0.116l-0.194,1.319h0.815v0.698l-0.427,0.272c0,0,0.039,0.698,0.039,0.815c0,0.116-0.039,2.405-0.039,2.405h0.97v1.008   l-0.388,0.427v0.465h-1.513l-0.233,1.047h-0.582h-1.552l0.388,0.737h0.659l-0.116,1.901h-0.698l-0.388,0.621h-0.388v0.659h-0.427   l-0.504-0.737c0,0-0.233-0.853-0.349-0.97c-0.116-0.116-0.621-1.047-0.659-1.164c-0.039-0.116-0.31-0.97-0.31-0.97l-0.659-0.504   c0,0-1.125-1.047-1.241-1.125c-0.116-0.078-1.047-1.086-1.047-1.086l-0.719-0.039v-1.345l-1.065-0.456l-1.319-1.031V36.621z"> 
	<title>Trujillo</title></path>
	<path id="124" data-ng-click="$ctrl.openMap(2, '124', true, $event)" fill="none" stroke="#020202" stroke-width="0.3" stroke-miterlimit="10" d="M21.262,46.279l-0.168,0.905l-0.233,0.879v0.465   l0.2,0.336l0.575,0.233l0.543,0.284c0,0,0.336,0.207,0.44,0.362c0.103,0.155,0.414,0.548,0.414,0.548l0.491,0.072l0.44-0.072   l0.31,0.564c0,0,0,0.31,0.155,0.465c0.155,0.155,0.259,0.362,0.259,0.362l0.543,1.008l0.44,0.75c0,0-0.026,0.698-0.026,0.853   c0,0.155-0.129,1.396-0.129,1.396l-0.052,0.233l-0.31,0.776c0,0,0.181,0.129,0.181,0.284s0.155,0.465,0.155,0.465l0.362,0.362   l0.607,1.008c0,0,0.169,0.414,0.195,0.491c0.026,0.078,0.362,0.362,0.362,0.362l0.672,0.698l0.129,0.724l-0.103,0.233l-0.181,0.569   l0.181,0.181l0.207,0.072h0.368l0.278-0.305L28.93,61.2v-0.563l0.132-0.607c0,0,0.152-0.589,0.204-0.718   c0.052-0.129,0.181-0.698,0.181-0.698l0.129-0.336c0,0,0.045-0.595,0.155-0.646c0.11-0.052,0.44-0.672,0.44-0.672   s0.543-0.31,0.672-0.388c0.129-0.078,0.336-0.284,0.44-0.362s0.284-0.517,0.284-0.517l0.44-0.233l0.129-0.155l0.879-0.103   l0.517,0.052c0,0,0.233-0.052,0.362-0.078c0.129-0.026,0.569-0.284,0.569-0.284s0.129-0.078,0.207-0.155   c0.078-0.078,0.44-0.362,0.517-0.388c0.078-0.026,0.414-0.109,0.491-0.132s0.595-0.127,0.595-0.127l0.604-0.306l0.301-0.082   l0.697-0.064v-1.073c0,0-0.438-0.026-0.515-0.026s0-0.259-0.078-0.336S37,52.072,37,52.072s0.028-0.233,0-0.414   s-0.132-0.362-0.132-0.362s-0.052-0.259,0.026-0.259s0.31,0.026,0.388-0.026c0.078-0.052,0-0.517,0-0.517l0.052-0.569l0.207-0.698   l-0.957-0.181l-1.19,0.233c0,0,0.052,0.465-0.052,0.388s-0.465-0.931-0.465-0.931l-0.052-0.181c0,0-0.155-0.233-0.181-0.31   s-0.388-0.595-0.388-0.595l-0.724-0.129l-0.44-0.672c0,0-0.853-0.026-0.983-0.026c-0.129,0-0.595-0.75-0.595-0.75l-0.31-0.207   l-0.595-0.388h-1.242l-0.413-0.621c0,0,0.284-0.362,0.259-0.44c-0.026-0.078,0.154-0.724,0.154-0.724l0.182-0.129l-0.336-0.465   l-0.336,0.129l-0.44-0.491v-0.336l-0.149-0.517l-0.42-0.129h-0.414v-0.465v-0.31l-0.078-0.362l-0.879,0.103l-0.388,0.129v0.465   h-1.513l-0.233,1.047h-2.133l0.388,0.737h0.659l-0.116,1.901h-0.698l-0.388,0.621h-0.388v0.659H21.262z"> 
	<title>Virú</title></path>
	<path id="114" data-ng-click="$ctrl.openMap(2, '114', true, $event)" fill="none" stroke="#020202" stroke-width="0.3" stroke-miterlimit="10" d="M7.001,27.273v0.621l-0.246,0.892v0.504   c0,0,0.291,0.465,0.368,0.582c0.078,0.116,0.368,0.349,0.427,0.388c0.058,0.039,0.627,0.627,0.627,0.627l0.323,0.343l0.194,0.31   l0.136,0.621l0.032,0.284c0,0,0.705,0.297,0.802,0.472c0.097,0.175,0.698,0.524,0.698,0.524s0.368,0.31,0.368,0.368   c0,0.058-0.078,0.272,0,0.388s0.155,0.31,0.155,0.31l0.149,0.524l0.453,0.621l0.582,0.414l0.233,0.614l0.175,0.291h0.349   l0.381,0.046l0.181-0.163v-0.543l0.737-0.388l-0.102-0.33c0,0-0.053-0.092,0.179-0.077c0.233,0.015,1.008-0.023,1.008-0.023   s-0.087,0.224-0.095,0.303s-0.032,0.192,0.095,0.261c0.127,0.069,0.334,0.272,0.384,0.337c0.05,0.065,0.159,0.227,0.159,0.227h1.59   v-0.349l0.465-0.039l0.31-1.008h0.194v-1.086h2.444l0.194-0.31h0.349v-0.853h0.388v-0.582h0.543v-0.582v-0.31l-0.378-0.291   l-0.233-0.32l-0.165-0.204l-0.456-0.259c0,0-0.165-0.1-0.165-0.129s-0.039-0.281-0.039-0.398s-0.039-0.456-0.039-0.495   c0-0.039,0.019-0.213,0.019-0.301c0-0.087,0.029-0.495,0.029-0.495l-0.252-0.33l-0.01-0.145l-0.356-0.368l-0.411,0.038   l-0.572-0.068L18.77,27.68l-0.344-0.257l-0.383-0.606l-0.155-0.485l-0.27-0.445l-0.186-0.289l-0.117-0.343l-0.407-1.067   c0,0,0.058-0.33,0.078-0.359s0.068-0.388,0.068-0.417s0.058-0.427,0.058-0.427l-0.136-0.427l-0.261-0.165l-0.417-0.126   l-0.785-0.116l-0.417-0.184c0,0-0.23-0.194-0.281-0.184c-0.052,0.01-0.32-0.052-0.32-0.052l-0.281-0.171   c0,0-0.233-0.145-0.252-0.184c-0.019-0.039-0.272-0.264-0.272-0.264s0,0-0.037-0.046s-0.118-0.104-0.196-0.104   c-0.078,0-0.249,0-0.249,0l-0.052,0.181l-0.158,0.347l-0.125,0.243l-0.121,0.164l-0.091,0.099l-0.09,0.086l-0.128,0.108   l-0.089,0.086l-0.105,0.204l-0.093,0.175l-0.087,0.078c0,0-0.083,0.076-0.091,0.095C11.971,22.849,12,22.976,12,22.976l0.07,0.07   l-0.376,0.467L11.53,23.78l-0.18,0.359l-0.145,0.038l-0.266,0.12l-0.286,0.241l-0.14,0.178c0,0-0.002,0.05,0.007,0.066   c0.01,0.016,0.063,0.104,0.063,0.104l0.012,0.06l-0.003,0.658l-0.015,0.07l-0.031,0.078l-0.052,0.088l-0.039,0.052l-0.054,0.062   l-0.999-0.678c0,0-0.073-0.059-0.159-0.021c-0.086,0.038-0.238,0.188-0.238,0.188l-0.078,0.123v0.272L8.54,26.226   c0,0-0.299,0.097-0.362,0.125c-0.063,0.028-0.352,0.158-0.422,0.313c-0.071,0.154-0.15,0.254-0.15,0.254l-0.13,0.142L7.001,27.273z   "> 
	<title>Ascope</title></path>
	<path id="117" data-ng-click="$ctrl.openMap(2, '117', true, $event)" fill="none" stroke="#020202" stroke-width="0.3" stroke-miterlimit="10" d="M26.499,39.55l0.776-0.194   c0,0,0.731,0.097,0.724,0c-0.006-0.097,0-0.388,0-0.388l0.498-0.097l0.872,0.175c0,0,0.524,0,0.641-0.078   c0.116-0.078,0.524-0.194,0.524-0.194V38.25l0.175-0.365c0,0,0.388-0.236,0.446-0.255c0.058-0.019,0.485-0.368,0.485-0.368   l0.272-0.245c0,0,0.136,0.085,0.407,0c0.272-0.085,0.601-0.124,0.718-0.143c0.116-0.019,0.737,0,0.737,0l0.116,0.143l0.815,0.439   l0.213,0.43l0.756,0.191v0.427l0.834,0.097c0,0,0.078,0.368,0,0.543c-0.078,0.175-0.019,0.601-0.097,0.873   c-0.078,0.272-0.252,0.213-0.291,0.407c-0.039,0.194-0.194,0.388-0.175,0.465c0.019,0.078,0.019,0.155,0.155,0.213   c0.136,0.058,0.213-0.058,0.272,0.116c0.058,0.175,0.224,0.291,0.17,0.465c-0.054,0.175-0.062,0.368,0,0.679   c0.062,0.31,0.082,0.485,0.082,0.64c0,0.155,0.136,0.136,0,0.252c-0.136,0.116-0.058,0.31-0.291,0.33   c-0.233,0.019-0.776,0.136-0.776,0.136v0.388l-0.31,0.621c0,0-0.465,0.155-0.524,0.252c-0.058,0.097-0.155,0.233-0.349,0.194   c-0.194-0.039-0.601-0.233-0.64-0.097c-0.039,0.136-0.058,0.427-0.097,0.543c-0.039,0.116-0.175,0.485-0.252,0.659   c-0.078,0.175-0.291,0.569-0.291,0.569l-0.983-0.026l-0.595-0.75l-0.905-0.595l-1.267-0.038l-0.388-0.583l0.234-0.349l0.024-0.09   l0.154-0.724l0.182-0.129l-0.336-0.465l-0.336,0.129l-0.44-0.491v-0.336l-0.149-0.517l-0.42-0.129h-0.414v-0.776l-0.078-0.362   l-0.95,0.127l-0.213,0.042l0.013-0.065l0.271-0.299V39.55z"> 
	<title>Julcán</title></path>
	<path id="116" data-ng-click="$ctrl.openMap(2, '116', true, $event)" fill="none" stroke="#020202" stroke-width="0.3" stroke-miterlimit="10" d="M1.593,13.804v0.243c0,0-0.349,0.252-0.358,0.291   c-0.01,0.039-0.097,0.213-0.136,0.291c-0.039,0.078-0.223,0.398-0.233,0.436c-0.01,0.039-0.048,0.078-0.058,0.126   c-0.01,0.048-0.116,0.33-0.116,0.33l0.252,0.223c0,0,0.32,0.194,0.349,0.213c0.029,0.019,0.467,0.226,0.51,0.375   c0.043,0.149,0.198,0.478,0.246,0.566c0.048,0.087,0.621,0.679,0.65,0.708c0.029,0.029,0.136,0.058,0.175,0.145   c0.039,0.087,0.213,0.456,0.213,0.485c0,0.029,0.097,0.359,0.097,0.359l0.388-0.194V17.78l0.335-0.031l0.712-0.161l0.449-0.127   l0.838-0.237l0.536-0.892l0.776,0.517l0.27,0.402l0.245,0.408l0.239,0.381l0.241,0.268l0.573,0.617l0.117,0.329l0.215-0.129H9.39   l0.359-0.181l0.12-0.159l0.23-0.19c0,0,0.039-0.058,0.068-0.087s0.129-0.107,0.129-0.107l0.307-0.058l0.485-0.184   c0,0,0.118-0.183,0.116-0.223c-0.001-0.04,0.333-0.414,0.333-0.414s0.036-0.129,0.084-0.178s0.272-0.272,0.272-0.31   s0.175-0.31,0.175-0.31s0.155-0.262,0.155-0.301c0-0.039-0.058-0.427-0.058-0.427s-0.165-0.339-0.223-0.388   s-0.562-0.485-0.562-0.485s-0.388-0.611-0.388-0.698c0-0.087-0.204-0.368-0.233-0.465c-0.029-0.097-0.175-0.368-0.175-0.368   l-0.291-0.921l-0.165-0.465l0.194-1.008l-0.281-0.339l-0.65-0.407c0,0-0.339-0.378-0.368-0.427   C8.992,9.974,8.876,9.809,8.876,9.809L8.213,9.557c0,0-0.433-0.009-0.544-0.038S7.004,9.479,7.004,9.479s-0.272,0.155-0.33,0.184   s-0.64,0.456-0.64,0.456s-0.293,0.203-0.438,0.358c-0.144,0.156-0.416,0.388-0.581,0.543s-0.698,0.543-0.727,0.582   c-0.029,0.039-0.572,0.495-0.64,0.553c-0.068,0.058-0.727,0.543-0.824,0.621c-0.097,0.078-0.863,0.737-0.863,0.737L1.593,13.804z"> 
	<title>Chepén</title></path>
	<path id="118" data-ng-click="$ctrl.openMap(2, '118', true, $event)" fill="none" stroke="#020202" stroke-width="0.3" stroke-miterlimit="10" d="M33.888,37.016l0.524-0.55   c0,0,0.078-0.272,0.194-0.349c0.116-0.078,0.659-0.497,0.776-0.617c0.116-0.12,0.543-0.702,0.543-0.702s0.547-0.233,0.759-0.31   c0.211-0.078,0.444-0.155,0.56-0.194c0.116-0.039,0.632-0.31,0.632-0.31s0.05-0.737,0-0.892c-0.05-0.155-0.166-0.582-0.283-0.621   c-0.116-0.039-0.116-0.039-0.116-0.039l-0.155-0.621l0.039-0.776v-0.427v-0.905c0,0-0.139-0.575-0.328-0.623   c-0.189-0.049-0.986-0.43-0.895-0.676c0.091-0.246-0.367-0.317-0.406-0.433c-0.039-0.116,0.075-0.626,0.075-0.626   s-0.308,0.161-0.695,0.161c-0.388,0-1.086,0.292-1.222,0.263c-0.136-0.03-0.562-0.164-0.873,0c-0.31,0.164-1.319,0.591-1.319,0.591   s0.233,0.486,0,0.631c-0.233,0.145-0.582,0.3-0.659,0.494c-0.078,0.194-0.194,0.349-0.465,0.349c-0.272,0-1.203-0.078-1.203-0.078   l-0.659,0.078l-0.42,0.595l-0.291,0.453c0,0-0.297,0.31-0.375,0.427c-0.078,0.116-0.465,0.194-0.465,0.194   c-0.388,0-1.073,0.078-0.944-0.039c0.129-0.116-0.09-0.349,0-0.543c0.09-0.194-0.016-0.659-0.016-0.659L25.762,29.6   c0,0-0.31-0.233-0.427-0.427c-0.116-0.194-0.737-0.659-0.737-0.659c-0.272-0.116-0.97-0.746-0.97-0.746v-0.263l0.194-0.233   l-0.892,0.272l-0.698,0.224h-0.659l-0.711,0.319l-0.055,0.524l-0.029,0.495l0.058,1.193l0.621,0.388l0.776,0.815v0.31h1.901v2.211   l1.202-0.116l-0.194,1.319h0.815v0.698l-0.427,0.272v3.219h0.97v0.136l0.776-0.194l0.581,0.042l0.143-0.042v-0.388l0.439-0.086   c0,0,0.557,0.088,0.644,0.106c0.087,0.017,0.351,0.064,0.521,0.05c0.17-0.014,0.407-0.07,0.407-0.07l0.524-0.194V38.25l0.175-0.365   c0,0,0.334-0.181,0.446-0.255c0.112-0.075,0.395-0.295,0.395-0.295l0.362-0.318c0,0,0.13,0.061,0.268,0.03   c0.139-0.03,0.191-0.051,0.322-0.079c0.131-0.028,0.314-0.061,0.424-0.078c0.11-0.017,0.389-0.028,0.492-0.025   c0.103,0.003,0.356,0.009,0.356,0.009L33.888,37.016z"> 
	<title>Otuzco</title></path>
	<path id="122" data-ng-click="$ctrl.openMap(2, '122', true, $event)" fill="none" stroke="#020202" stroke-width="0.3" stroke-miterlimit="10" d="M37.875,33.984l0.933,0.737   c0,0,0.026,0.155,0.103,0.259c0.078,0.103,0.233,0.207,0.284,0.362c0.052,0.155,0,0.31,0,0.31h0.569c0,0,0.259-0.026,0.465,0   c0.207,0.026,0.465-0.026,0.802,0c0.336,0.026,0.646,0.052,0.905,0s0.776-0.151,0.776-0.151h0.517h0.491   c0,0,0.233,0.177,0.414,0.513s0.026,0.078,0.181,0.336s0.155,0.403,0.336,0.667s0.336,0.471,0.491,0.497s0.155,0.026,0.155,0.026   s0.026-0.554,0.155-0.523c0.129,0.031,0.327,0,0.327,0s0.294-0.206,0.553-0.152c0.259,0.054,0.207-0.054,0.646,0   c0.44,0.054,0.543-0.002,0.802,0s0.517,0,0.517,0s0.621-0.205,0.75-0.231c0.129-0.026,0.129-0.259,0.31,0.052   c0.181,0.31-0.026,0.233,0.181,0.31s0.251-0.037,0.462,0.02c0.211,0.057,0.521-0.154,0.599-0.152s0.388,0.205,0.543,0   c0.155-0.205,0.233-0.334,0.414-0.386c0.181-0.052,0.491-0.155,0.491-0.155l0.621,0.207c0,0,0,0.28,0.103,0.334   c0.103,0.054,0.284-0.054,0.414,0c0.129,0.054,0.362,0.024,0.44,0c0.078-0.024,0.31-0.061,0.362,0.152c0.052,0.212,0,0.868,0,0.868   c-0.207,0.068-0.576-0.128-0.959,0.042s-1.166,0.222-1.166,0.222s-1.315,0.321-1.496,0.347c-0.181,0.026-0.543-0.026-0.543-0.026   s-0.291,0.078-0.414,0.078s-0.5-0.005-0.627-0.078c-0.127-0.073-0.433,0-0.511,0s-0.517,0-0.517,0s0.055-0.062-0.207,0.259   c-0.262,0.32-0.501,0.82-0.543,0.957c-0.042,0.137-0.052-0.284-0.103,0.414c-0.052,0.698-0.129,1.008-0.129,1.008l-0.11,0.377   l0.083,0.372c0,0,0.027,0.027-0.335,0.079c-0.362,0.052-0.347,0.062-0.637,0.072c-0.29,0.009-0.616,0.028-0.616,0.028H44.91   l-0.362,0.339c0,0-0.136,0.207-0.078,0.414l-0.336,0.414l-0.414,0.207l-0.129,0.284l-0.304,0.129c0,0-0.204,0.041-0.351,0.175   s-0.302,0.29-0.302,0.29l-0.336,0.233c0,0-0.103-0.078-0.129,0.129c-0.026,0.207-0.099,0.22-0.215,0.409   c-0.116,0.189-0.199,0.315-0.199,0.315s-0.078,0.31-0.155,0.44c-0.078,0.129-0.155,0.052-0.155,0.336s-0.2,0.308-0.207,0.569   c-0.007,0.261,0.018,0.197-0.068,0.417c-0.086,0.22-0.242,0.617-0.191,1.031s0.026,0.595-0.103,0.75   c-0.129,0.155-0.129,0.155-0.129,0.155s-0.006,0.44-0.129,0.44s-0.905,0.672-0.905,0.672l-0.336,0.465l-0.181,0.543   c0,0,0.039,0.31,0.058,0.491s0.442,0.527,0.442,0.527s-0.086,0.119-0.06,0.274c0.026,0.155,0.129,0.388,0.026,0.621   s-0.103,0.233-0.103,0.233l0.11,0.7l-0.163-0.216l-0.398,0.243l-0.124,0.13l-0.098-0.078l-0.051-0.078L38.51,54.07l-0.182-0.006   l-0.453-0.034v-0.393v-1.073l-0.515-0.026c0,0,0.011-0.278-0.078-0.336C37.194,52.143,37,52.072,37,52.072v-0.414l-0.132-0.362   c0,0-0.065-0.262,0.026-0.259c0.09,0.004,0.36,0.045,0.388-0.026s0.033-0.282,0.016-0.4c-0.016-0.118-0.001-0.287,0.004-0.338   c0.005-0.051,0.032-0.349,0.032-0.349l0.059-0.201l0.077-0.259l0.071-0.239l-0.957-0.181l-1.19,0.233v0.297   c0,0-0.019,0.15-0.08,0.057c-0.06-0.093-0.438-0.897-0.438-0.897l-0.052-0.181l-0.569-0.905l-0.724-0.129l-0.44-0.672   c0,0,0.316-0.625,0.337-0.679c0.022-0.054,0.096-0.246,0.121-0.313c0.024-0.066,0.085-0.237,0.085-0.237l0.054-0.303l0.043-0.24   c0,0,0.058-0.062,0.153-0.041c0.095,0.021,0.254,0.07,0.307,0.086c0.053,0.017,0.058,0.051,0.18,0.052   c0.122,0.001,0.219-0.01,0.284-0.102c0.065-0.092,0.075-0.125,0.17-0.171c0.095-0.046,0.114-0.06,0.235-0.105   c0.121-0.045,0.184-0.068,0.184-0.068l0.165-0.33l0.145-0.291v-0.388c0,0,0.203-0.042,0.3-0.061   c0.097-0.018,0.358-0.062,0.417-0.069s0.117-0.011,0.152-0.032c0.034-0.021,0.101-0.135,0.101-0.135l0.024-0.062l0.073-0.106   l0.06-0.048l-0.05-0.139l-0.019-0.246l-0.024-0.19l-0.038-0.212l-0.03-0.164l-0.024-0.252l0.007-0.146l0.024-0.127l0.019-0.142   c0,0-0.07-0.17-0.093-0.206c-0.023-0.037-0.109-0.218-0.109-0.218l-0.072-0.046c0,0-0.027,0.009-0.078,0.002   c-0.051-0.007-0.172-0.062-0.172-0.062l-0.06-0.09l-0.021-0.079l0.03-0.117c0,0,0.026-0.053,0.043-0.089   c0.017-0.035,0.074-0.168,0.074-0.168l0.047-0.151l0.073-0.085l0.087-0.073l0.083-0.11l0.049-0.168l0.021-0.2l0.01-0.272   l0.012-0.171l0.059-0.236l0.008-0.127l-0.034-0.32l-0.834-0.097v-0.427l-0.756-0.191l-0.213-0.43l-0.815-0.439l0.524-0.55   l0.114-0.261l0.409-0.335l0.446-0.37l0.543-0.702l0.417-0.174L37,34.376L37.875,33.984z"> 
	<title>Santiago de Chuco </title></path>
	<path id="121" data-ng-click="$ctrl.openMap(2, '121', true, $event)" fill="none" stroke="#020202" stroke-width="0.3" stroke-miterlimit="10" d="M51.09,23.86l0.388,0.427l0.427,0.543   l0.272,0.292l0.31,0.561v0.427l0.272,0.892c0,0,0.306,0.331,0.269,0.767c-0.037,0.436,0,0.979,0,0.979l0.157,0.621l0.272,0.892   c0,0,0.078,0.427,0.116,0.931c0.039,0.504,0.233,1.474,0.233,1.474l0.204,0.582v1.086c0,0-0.029,0.272,0,0.659   c0.029,0.388,0.243,0.621,0,0.776c-0.243,0.155-0.359,0.504-0.359,0.504l-0.026,0.593l-0.358,0.02l-0.082-0.02l-0.157-0.009   l-0.088,0.014l-0.168-0.005l-0.056-0.068l-0.048-0.266l-0.621-0.207l-0.191,0.062c0,0-0.09,0.029-0.144,0.046   s-0.157,0.047-0.157,0.047l-0.153,0.081l-0.125,0.126c0,0-0.162,0.275-0.292,0.267c-0.13-0.008-0.387-0.088-0.387-0.088   s-0.101,0.034-0.159,0.058c-0.058,0.024-0.065,0.047-0.192,0.074c-0.127,0.027-0.248,0.019-0.248,0.019L49.875,37l-0.136,0.017   l-0.2-0.021l-0.083-0.034l-0.023-0.111l-0.075-0.165l-0.117-0.147l-0.095,0.029l-0.098,0.067l-0.75,0.231   c0,0-0.505-0.001-0.562,0.001c-0.057,0.002-0.213,0.013-0.213,0.013l-0.214,0.009l-0.255-0.015l-0.201-0.02l-0.192,0.002   l-0.123,0.019l-0.123,0.004c0,0-0.001-0.005-0.082-0.013c-0.081-0.008-0.173-0.003-0.173-0.003l-0.084,0.019   c0,0-0.09,0.028-0.132,0.047s-0.111,0.056-0.111,0.056l-0.052,0.032c0,0-0.184,0.02-0.255,0.01c-0.071-0.01-0.123-0.027-0.151,0.06   c-0.028,0.087-0.035,0.12-0.035,0.12l-0.04,0.332c0,0-0.12,0-0.192-0.036s-0.081-0.039-0.11-0.064s-0.046-0.036-0.083-0.078   c-0.038-0.042-0.113-0.135-0.129-0.157c-0.016-0.022-0.055-0.074-0.082-0.114c-0.028-0.04-0.028-0.029-0.081-0.12   s-0.078-0.132-0.099-0.18c-0.022-0.048-0.037-0.083-0.05-0.116c-0.013-0.033-0.042-0.102-0.048-0.114   c-0.005-0.012-0.01-0.036-0.059-0.123c-0.049-0.087-0.089-0.141-0.119-0.204c-0.029-0.063-0.084-0.169-0.098-0.194   c-0.014-0.025-0.061-0.109-0.083-0.143c-0.022-0.034-0.089-0.127-0.104-0.147c-0.016-0.02-0.071-0.087-0.099-0.116   c-0.028-0.03-0.141-0.133-0.141-0.133h-1.008l-0.136,0.026l-0.118,0.023l-0.114,0.022l-0.122,0.024l-0.104,0.02l-0.182,0.036   c0,0-0.113,0.018-0.157,0.022c-0.044,0.003-0.147,0.008-0.147,0.008s-0.124,0-0.168-0.002c-0.044-0.002-0.131-0.006-0.131-0.006   l-0.118-0.008l-0.185-0.014l-0.143-0.007c0,0-0.125,0-0.161,0.001c-0.036,0.001-0.16,0.007-0.204,0.009   c-0.044,0.002-0.132,0.005-0.169,0.004c-0.037-0.001-0.089-0.003-0.125-0.007c-0.036-0.004-0.08-0.008-0.109-0.009   c-0.029-0.001-0.139-0.002-0.139-0.002l-0.787,0.011c0,0,0.023-0.141,0.023-0.151c0-0.01-0.004-0.074-0.004-0.074l-0.032-0.118   l-0.026-0.049L39.13,35.22l-0.028-0.035l-0.037-0.041l-0.062-0.064l-0.048-0.05l-0.064-0.081l-0.028-0.052l-0.056-0.176   l-0.933-0.737c0,0,0.025-0.588,0.022-0.655c-0.002-0.067-0.015-0.213-0.022-0.237c-0.008-0.024-0.05-0.159-0.061-0.193   c-0.011-0.034-0.037-0.124-0.074-0.207c-0.037-0.083-0.051-0.145-0.099-0.183c-0.048-0.037-0.035-0.033-0.09-0.051   c-0.054-0.018-0.075-0.025-0.075-0.025l-0.155-0.621l0.039-1.769l0.053-0.664l0.839,0.822c0,0,0.252,0.048,0.291,0.048   s0.359-0.107,0.359-0.107s0.407-0.184,0.475-0.242s0.223-0.078,0.398-0.301c0.175-0.223,0.349-0.33,0.349-0.33   s0.398-0.175,0.543-0.33c0.145-0.155,0.145-0.187,0.204-0.281c0.058-0.094,0.145-0.281,0.213-0.33s0.01-0.087,0.116-0.107   c0.107-0.019,0.213-0.01,0.31-0.029c0.097-0.019,0.145-0.048,0.204-0.01s0.087,0.107,0.223,0.184   c0.136,0.078,0.301,0.126,0.33,0.175s0.136,0.116,0.175,0.145c0.039,0.029-0.019,0.116,0.039,0.175   c0.058,0.058,0.165,0.087,0.233,0.068s0.107-0.087,0.233-0.194c0.126-0.107,0.087-0.145,0.242-0.165   c0.155-0.019,0.301-0.058,0.301-0.058s-0.329-0.019,0.063-0.029c0.393-0.01,0.47,0,0.548-0.01c0.078-0.01,0.33-0.039,0.33-0.039   h0.485l0.301-0.01l0.339-0.048c0,0,0.301-0.107,0.359-0.184s0.097-0.165,0.097-0.165l0.427-0.155c0,0,0.407-0.611,0.436-0.601   s0.136-0.184,0.223-0.359c0.087-0.175,0.194-0.465,0.194-0.465l0.039-0.31l0.65-0.107c0,0,0.223-0.087,0.31-0.145   s0.398-0.136,0.398-0.136s-0.029-1.038-0.019-1.096c0.01-0.058,0-0.349,0-0.349l0.368-0.039l0.252-0.039l0.213-0.107h0.097   l0.485-0.068l0.375-0.116l0.284-0.078H51.09z"> 
	<title>Sánchez Carrión </title></path>
	<path id="115" data-ng-click="$ctrl.openMap(2, '115', true, $event)" fill="none" stroke="#020202" stroke-width="0.3" stroke-miterlimit="10" d="M52.698,26.718l0.547-0.284h0.446l0.379,0.504   l0.203,0.33c0,0,0.64,0.349,0.659,0.407c0.019,0.058,0.078,0.136,0.155,0.213c0.078,0.078-0.136,0.039,0.175,0.175   c0.31,0.136,0.368,0.155,0.524,0.155c0.155,0,0.349,0.019,0.407,0c0.058-0.019,0.524-0.116,0.524-0.116l0.368-0.116   c0,0,0.039-0.356,0.039-0.498c0-0.142-0.116-0.53-0.058-0.705c0.058-0.175,0.116-0.679,0.116-0.679s-0.078-0.407,0-0.621   c0.078-0.213-0.116-0.853-0.116-0.853v-0.31l-0.233-0.504l-0.465-0.524c0,0-0.252-0.407-0.349-0.504   c-0.097-0.097-0.381-0.213-0.543-0.368c-0.162-0.155-0.621-0.349-0.64-0.427c-0.019-0.078-0.427-0.368-0.427-0.427   s-0.168-0.401-0.181-0.491c-0.013-0.09-0.043-1.08-0.043-1.08s0.069-1.842,0.108-1.92c0.039-0.078-0.019-0.698-0.019-0.698v-0.349   c0,0,0.078-0.058,0.136-0.078c0.058-0.019,0.233-0.039,0.291-0.097c0.058-0.058,0.175-0.175,0.175-0.175s0.019-0.388-0.039-0.388   c-0.058,0-0.142-0.8-0.168-0.846c-0.026-0.046-0.026-0.182-0.143-0.24c-0.116-0.058-0.1-0.213-0.341-0.291   c-0.241-0.078-0.28-0.175-0.416-0.213c-0.136-0.039-0.562-0.155-0.621-0.155c-0.058,0-0.213,0-0.213,0s-0.582-0.627-0.621-0.711   c-0.039-0.084,0-0.22,0-0.22s0.024-0.793-0.017-0.93c-0.041-0.137-0.254-0.408-0.254-0.408s-0.33-0.155-0.33-0.272   c0-0.116-0.136-0.291-0.136-0.291V9.775l-0.155-0.465l-0.233-0.155c0,0-0.11-0.155-0.2,0c-0.091,0.155-0.498,0.252-0.498,0.252   l-0.213,0.116l-0.97,0.272c0,0-0.33-0.039-0.427,0c-0.097,0.039-0.465,0.019-0.601,0.019s-0.394-0.129-0.679-0.078   c-0.284,0.052-0.525,0.084-0.65,0.052c-0.126-0.032-0.507,0.032-0.772,0c-0.265-0.032-0.886-0.032-0.886-0.032   s-0.194-0.039-0.213,0.019c-0.019,0.058-0.058,0.213-0.039,0.368c0.019,0.155,0.252,0.659,0.31,0.776   c0.058,0.116,0.194,0.465,0.252,0.659c0.058,0.194,0.504,0.756,0.543,0.834c0.039,0.078,0.407,0.582,0.407,0.582   s0.272,1.125,0.272,1.183c0,0.058,0.233,0.795,0.233,0.795l0.601,0.595c0,0,0.144,0.257,0.253,0.452   c0.109,0.194,0.201,0.31,0.248,0.401s0.162,0.276,0.292,0.458c0.13,0.182,0.386,0.664,0.369,0.825   c-0.017,0.16-0.017,0.16,0.06,0.412c0.078,0.252,0.407,1.493,0.407,1.493s0.407,1.073,0.388,1.157   c-0.019,0.084,0.582,1.112,0.582,1.112s0.291,0.097,0.368,0.175s0.31,0.188,0.31,0.188s0.11,0.103,0.181,0.335   c0.071,0.233,0.216,0.465,0.202,0.698c-0.014,0.233-0.341,0.322-0.38,0.38c-0.039,0.058,0.21,0.318,0.21,0.318l0.481,0.545   l0.605,0.717l0.31,0.561v0.427L52.698,26.718z"> 
	<title>Bolívar</title></path>
	<path id="123" data-ng-click="$ctrl.openMap(2, '123', true, $event)" fill="none" stroke="#020202" stroke-width="0.3" stroke-miterlimit="10" d="M20.202,27.627c0,0-0.02-0.367-0.02-0.522   c0-0.155-0.013-0.465,0-0.562c0.013-0.097-0.078-0.465-0.078-0.465s-0.077-0.634,0.111-0.763c0.187-0.129,0.781,0.103,0.781,0.103   s0.213-0.094,0.388-0.251c0.175-0.157,0.64-0.467,0.756-0.506c0.116-0.039,0.213,0.039,0.272-0.175   c0.058-0.213,0.018-0.352-0.061-0.526c-0.079-0.174-0.307-0.579-0.307-0.579l-0.101-0.402c0,0,0.598-0.141,0.65-0.257   c0.052-0.116,0.517-0.485,0.517-0.485l0.136-0.472l0.116-0.362l0.582-0.155l0.601,0.155c0,0,0.194-0.078,0.349-0.019   c0.155,0.058,0.136,0.084,0.368,0.062s0.349-0.042,0.562-0.081c0.213-0.039,0.56-0.097,0.629-0.116   c0.069-0.019,0.011-0.058,0.283-0.039c0.272,0.019,0.465,0.233,0.776,0.233s0.31,0,0.31,0s0.175,0.065,0.233,0.246   c0.058,0.181,0.129,0.473,0.129,0.473s0.156,0.034,0.11,0.404c-0.045,0.371,0.187,1.114,0.071,1.295   c-0.116,0.181-0.123,0.252-0.071,0.556c0.052,0.304,0.104,0.391,0.104,0.391l0.161-0.029c0,0-0.155-0.019,0.31,0.097   s1.409,0.226,1.409,0.226s-0.065,0.132,0.511,0.066s1.17-0.036,1.17-0.036s0.284,0.164,0.439,0.022   c0.155-0.142,0.207-0.621,0.207-0.621s-0.103-0.168,0-0.239c0.103-0.071,0.414-0.223,0.491-0.237   c0.078-0.015,0.323-0.209,0.336-0.248c0.013-0.039,0.099-0.233,0.246-0.272c0.146-0.039,0.385,0.09,0.679,0.078   c0.294-0.012,0.834,0.136,0.834,0.136l0.672,0.058c0,0,0.138-0.333,0.013,0.103s-0.259,0.239-0.375,0.504   c-0.116,0.265-0.129,0.349-0.168,0.569s-0.088,0.166-0.105,0.465c-0.017,0.298,0.002,0.182,0.002,0.473   c0,0.291,0.019,0.194,0,0.427c-0.019,0.233-0.115,0.702-0.115,0.702l-0.001,0.403l-1.222,0.263l-0.58-0.076l-1.611,0.667   l0.101,0.408l-0.101,0.223l-0.517,0.323c0,0-0.09,0.062-0.142,0.171c-0.052,0.109-0.246,0.302-0.246,0.302s-0.124,0.05-0.22,0.047   c-0.096-0.002-1.203-0.078-1.203-0.078l-0.659,0.078l-0.711,1.047l-0.375,0.427c0,0-0.098,0.177-0.534,0.195   c-0.436,0.018-0.747,0.025-0.783,0.021s-0.051-0.177-0.051-0.177L26.2,31.018l0.01-0.119l0.041-0.157l0.005-0.139l-0.051-0.394   l-0.437-0.659l-0.611-0.631l-0.552-0.456l-0.97-0.746v-0.263l0.194-0.233l-1.59,0.495h-0.659l-0.711,0.319l-0.055,0.524   l-0.252-0.33l-0.01-0.145l-0.356-0.368L20.202,27.627z"> 
	<title>Gran Chimú</title></path>
	<path id="120" data-ng-click="$ctrl.openMap(2, '120', true, $event)" fill="none" stroke="#020202" stroke-width="0.3" stroke-miterlimit="10" d="M54.426,38.005L54.4,38.729   c0,0-0.236,0.16-0.201,0.251c0.035,0.091-0.032,0.189-0.032,0.396c0,0.207-0.106,0.313-0.004,0.354   c0.102,0.041,0.236,0.138,0.236,0.138l0.698,0.336v0.698l0.66,0.623l0.189,0.527c0,0,0.218,0.33,0.253,0.534l0.326,0.824   l0.373,0.112c0,0,0.287,0.043,0.474,0.121s0.515,0.331,0.515,0.331l0.264,0.312c0,0,0.334,0.6,0.407,0.727   c0.073,0.127,0.319,0.838,0.424,1.044c0.105,0.206,0.305,0.643,0.409,0.911c0.104,0.268,0.074,0.335,0.261,0.673   c0.187,0.338,0.72,0.941,0.72,0.941l0.698,0.879l1.017,0.933c0,0,0.577-0.118,0.664,0s0.814-0.137,0.814-0.137   s0.305-0.281,0.413-0.35c0.109-0.069,0.458-0.292,0.458-0.292s0.205-0.14,0.462-0.176c0.257-0.036,0.982-0.164,1.059-0.227   s1.617-0.523,1.617-0.523l0.499-0.39l0.523-0.408c0,0,0.283,0.187,0.412-0.086s0.362-0.414,0.362-0.414s1.062,0.049,1.121-0.173   c0.059-0.223,1.051-0.447,1.051-0.447l1.3-0.877c0,0,0.149-0.571,0.2-0.648s0.385-0.897,0.425-1.03   c0.04-0.133,0.04-0.857,0.04-0.857l-0.362-0.623l-0.351-0.388c0,0-0.063-0.517,0.066-0.49c0.129,0.027,0.284-0.594,0.284-0.594   l-0.207-0.646l-0.776-0.362l-1.06-0.957l-0.765-0.97l-0.588-0.545l-1.458-0.244c0,0-0.423-0.076-0.614,0   c-0.192,0.076-0.849,0.059-0.849,0.059l-1.26-0.524H64.64l-0.75,0.336c0,0,0.014,0.039-0.233,0.317s-0.795,0.129-0.698,0.278   c0.097,0.149-0.44,0.181-0.44,0.181s-0.253,0.165-0.43,0.105s-0.733-0.105-0.733-0.105l-0.605-0.646c0,0-0.391-0.574-0.481-0.674   s-0.286-0.418-0.286-0.418s0.17-0.608,0.312-0.614s0.498-0.66,0.498-0.66s0.194-0.253,0.275-0.43   c0.081-0.177-0.902-0.746-0.902-0.746l-0.359-0.822c0,0-0.138-0.204-0.184-0.529c-0.046-0.325,0.026-0.407-0.388-0.718   c-0.414-0.31-0.725-0.509-0.906-0.565c-0.18-0.056-1.008-0.521-1.008-0.521l0.776-0.543l0.537-0.427l0.006-0.866l-1.058-0.563   l-0.328-0.501l-0.23-0.068l-0.163,0.052l-0.777,0.187l-0.447,0.002l-0.589-0.241l-0.059-0.137l-0.118-0.173l-0.659-0.407   l-0.582-0.834h-0.446l-0.547,0.284l0.12,0.394c0,0,0.133,0.18,0.17,0.264c0.036,0.084,0.108,0.309,0.102,0.434   c-0.006,0.125-0.011,0.882-0.011,0.882s0.113,0.612,0.19,0.866c0.077,0.254,0.247,0.812,0.247,0.812s0.164,1.35,0.193,1.531   c0.029,0.181,0.16,0.884,0.241,1.117c0.081,0.232,0.119,0.339,0.119,0.339s0.009,1.377,0,1.474   c-0.009,0.097,0.001,0.355,0.035,0.488c0.034,0.133,0.132,0.39,0.049,0.475c-0.084,0.085-0.234,0.197-0.304,0.314   c-0.069,0.116-0.144,0.383-0.144,0.383l-0.021,0.485c0,0,0.123-0.044,0.2-0.01c0.077,0.034,0.156,0.049,0.17,0.207   c0.013,0.159-0.053,0.865-0.053,0.865L54.426,38.005z"> 
	<title>Pataz</title></path>
</g>
</svg>
