<?xml version="1.0" encoding="utf-8"?>
<svg xmlns="http://www.w3.org/2000/svg" xmlns:xlink="http://www.w3.org/1999/xlink" version="1.1" id="18" x="0px" y="0px" viewBox="0 0 74 71" enable-background="new 0 0 74 71" xml:space="preserve">
	<title>Moquegua</title>
<g>
	<path id="149" data-ng-click="$ctrl.openMap(2, '149', true, $event)" fill="none" stroke="#020202" stroke-width="0.3" stroke-miterlimit="10" d="M12.434,47.858l0.809,1.188   c0.648,0.054,0.648,0.054,0.648,0.054s0.324,0.971,0.324,1.133s0,0.701,0,0.701v0.378c0,0,0.485-0.324,0.594,0   c0.108,0.324,0.216,0.864,0.216,1.133s-0.216,0.378,0,0.701c0.216,0.324,0.918,0.864,0.918,0.864   c0.27,0.216,0.648,0.161,0.701,0.594c0.054,0.431,0.36,0.648,0.288,0.809c-0.072,0.161,0.011,0.485,0.011,0.485l0.457-0.27   c0,0,0.809-0.161,1.025,0c0.216,0.161,0.27,0.27,0.864,0.27c0.594,0,1.511,0,1.511,0s0-0.485,0.324,0   c0.324,0.485,0.918,0.378,0.918,0.378h0.378c0,0,0.288-0.378,0.63-0.324c0.341,0.054,0.18-0.033,0.504,0.334   c0.324,0.367,0.54,0.475,0.701,0.692c0.161,0.216,0.161,0.216,0.161,0.216h0.648c0,0,0.216-0.431,0.324,0   c0.108,0.431,0.216,0.161,0.27,0.809s0.054,0.971,0.054,0.971h0.594c0,0,0.485-0.971,0.485,0s0.054,0.864,0.108,1.322   c0.054,0.459,0.27,0.836,0.378,1.053c0.108,0.216,0.485,0.378,0.701,0.485c0.216,0.108,0.485,0,0.485,0l0.971,0.594   c0,0,0.54-0.054,0.755,0.054c0.216,0.108,1.025,0.701,1.025,0.701l-1.157,0.576c0,0-0.246-0.252-0.516-0.145   c-0.27,0.108-0.431,0.161-0.755,0.108c-0.324-0.054-1.079-0.054-1.079-0.054s0.042-0.134-0.26-0.108   c-0.302,0.026-0.117-0.283-0.549,0.209c-0.431,0.492-0.161,0.33-0.431,0.492c-0.27,0.161-0.585,0.257-0.831,0.324   c-0.246,0.066-0.788,0.216-0.788,0.216l-0.354,0.63c0,0-0.131-0.145-0.185,0.287s-0.431,0.809-0.431,0.809   s-0.046,0.114-0.177,0.459c-0.132,0.343-0.074,0.783-0.362,1.053c-0.288,0.27-0.288,0.27-0.288,0.27l-0.791,0.161   c0,0-0.594,0.54-0.431,0c0.161-0.54,0.324-0.701-0.108-0.971s-1.079-0.864-1.079-0.864h-0.27c0,0,0-0.216-0.216-0.324   c-0.216-0.108-1.188-0.324-1.188-0.324s0.161-0.324-0.216-0.324s-0.809-0.216-0.809-0.216L17.509,65.5l-0.648-0.054l-0.378-0.485   c0,0,0.161,0.054-0.324-0.161c-0.485-0.216-0.809-0.161-0.809-0.161l-0.648-0.054v-0.755c0,0,0.054-0.054,0-0.324   c-0.054-0.27-0.324-0.431,0-0.648c0.324-0.216,0.755-0.864,0.755-0.864l0.324-0.648c-0.216-0.648-0.205-0.431-0.292-1.053   c-0.086-0.62-0.248-1.322-0.248-1.322s-0.038,0.132,0.197-0.69c0.235-0.822,0.342-0.282,0.235-0.822   c-0.108-0.54-0.27-0.918-0.27-0.918l-0.378-0.485l-0.485-0.755l-0.468-1.692c0,0-0.18-0.52-0.396-0.736   c-0.216-0.216-0.594-0.918-0.594-0.918l-1.025-1.133l-0.864-0.485l-0.27-0.648l-0.072-0.396l0.072-0.479l0.431-0.312L12.434,47.858   z"> 
	<title>Ilo</title></path>
	<path id="147" data-ng-click="$ctrl.openMap(2, '147', true, $event)" fill="none" stroke="#020202" stroke-width="0.3" stroke-miterlimit="10" d="M14.917,39.223l0.54-0.403l0.27-0.515v-0.324   h1.565h0.378c0,0-0.27-0.216,0-0.431c0.27-0.216,0.809-0.431,0.809-0.431s0.161-0.054,0.324,0c0.161,0.054,0.864-0.024,0.864-0.024   h0.378l0.431-0.462c0,0,0.414-0.324,0.558-0.431c0.144-0.108,0.306-0.27,0.468-0.27c0.161,0,0.701-0.431,0.701-0.431l0.54-0.809   c0,0-0.324-0.27,0-0.485c0.324-0.216,0.971-0.648,0.971-0.648s0.216-0.216,0.485-0.594c0.27-0.378,0.648-0.809,0.648-0.809   l0.485-0.324l0.27-0.864l0.485-0.428h1.349c0,0,0.324,0.266,0.378,0.59c0.054,0.324,0.054,0.324,0.054,0.324l0.594,0.161   l0.918-0.108c0,0,0.594,0,1.188,0c0.594,0,1.619,0,1.619,0l1.78-0.54c0,0,0.054,0.161,0.485,0.054s0.378-0.262,0.648-0.482   c0.27-0.22,0.755-0.382,0.755-0.382s-0.161-0.755,0-0.918c0.161-0.161,0-0.809,0-0.809l0.864-1.025c0,0-0.054-0.54,0-0.755   c0.054-0.216,0.078-0.378,0.282-0.378s0.366-0.161,0.851-0.108c0.485,0.054,0.755,0.248,0.809-0.011   c0.054-0.259-0.108-1.176,0-1.392c0.108-0.216,0.012-0.594,0.012-0.594s0.474,0.378,0.798,0c0.324-0.378,0.485-0.54,0.755-0.54   c0.27,0,2.213,0,2.213,0h0.971c0,0,0.505-0.108,0.738,0c0.233,0.108,1.15-0.096,1.367-0.048c0.216,0.048,0.594,0,0.594,0   s0.161-0.009,0.594-0.008c0.431,0.001,1.079,0,1.079,0v-0.646c0,0,0.324-0.27,0.755-0.378c0.431-0.108,0.54,0.27,0.755,0   c0.216-0.27,0.809-0.485,0.809-0.485s0.216-0.216,0.378-0.324c0.161-0.108,0.876-0.648,0.876-0.648l1.067-0.701l2.32,0.701   l1.943,0.755l1.619,1.403l-1.079,1.133l0.604,0.787l1.017,0.325l1.94,0.076l2.484,0.053v3.886l-3.67,5.99l-0.485,0.135   c0,0-0.132-0.136-0.216-0.128c-0.083,0.008-0.463-0.007-0.463-0.007s-0.109-0.067-0.212,0c-0.104,0.067-0.458,0.161-0.458,0.161   l0.064,0.351l-0.347,0.48c0,0-0.107,0.378-0.256,0.356c-0.15-0.022-0.324,0-0.324,0s0.321,0.2-0.189,0.081   s-0.675-0.161-0.675-0.161l-0.971-0.513l-0.234-0.257l0.045-0.202l-0.14-0.296l-0.282-0.219l-0.28-0.24   c0,0,0.203-0.126,0.277-0.163c0.073-0.038,0.343-0.295,0.343-0.295l0.292-0.243c0,0,0.086-0.054,0.302-0.081   c0.216-0.027,0.62-0.27,0.62-0.27s0.165-0.077,0.393-0.173c0.228-0.097,0.308-0.286,0.308-0.286l0.161-0.216   c0,0,0.108-0.054,0.081-0.243c-0.027-0.189,0.108-0.634,0.108-0.634s-0.033-0.273-0.192-0.279c-0.158-0.006-0.24-0.006-0.482-0.006   c-0.243,0-0.027,0.081-0.243,0c-0.216-0.081-0.701-0.161-0.701-0.161s-0.054,0.135-0.161,0c-0.108-0.135-0.161,0-0.351-0.378   c-0.189-0.378-0.27-0.513-0.27-0.513s-0.293-0.177-0.376-0.229c-0.082-0.052-0.664-0.469-0.811-0.445   c-0.147,0.023-0.293,0.122-0.293,0.122l-0.893,0.201c0,0-0.026,0.023-0.35,0.133s-0.648,0.164-0.836,0.218   c-0.189,0.054-0.566,0.108-0.566,0.108s0.012-0.019-0.106,0.163c-0.117,0.182-0.817,0.799-0.895,0.871   c-0.078,0.071-0.321,0.288-0.321,0.288l-0.296,0.216l-0.648,0.431c0,0,0.089-0.054-0.216,0.324s-0.305,0.378-0.305,0.378   s0.003,0.162-0.022,0.297c-0.024,0.135,0.014-0.026-0.072,0.338c-0.087,0.364-0.26,0.445-0.141,0.715   c0.119,0.27,0.127,0.403,0.16,0.512s0.041,0.168,0.102,0.3c0.062,0.132-0.115-0.403,0.062,0.132   c0.177,0.535,0.216,0.675,0.216,0.675s0.081,0.189,0.081,0.513c0,0.324,0.027,0.135-0.027,0.459c-0.054,0.324,0,0.836,0,0.944   c0,0.108,0.05,0.032,0.054,0.243c0.004,0.21,0.264,0.389,0.216,0.675s0.022-0.319-0.108,0.485c-0.13,0.804,0,0.836,0,0.836   s-0.054,0.296-0.27,0.378c-0.216,0.081-0.62,0-0.62,0s-0.085-0.246-0.431,0.243c-0.346,0.488-0.675,0.648-0.675,0.648l0.281,0.693   l-0.281,0.602c0,0,0.024,0.048-0.177,0.281c-0.202,0.233-1.129,1.349-1.129,1.349s-0.124,0.835-0.294,0.664   c-0.17-0.171-0.665,0-0.665,0L43.7,45.883c0,0,0.115,0.206-0.195,0.2c-0.31-0.007-0.633,0.155-0.633,0.155h-0.504   c0,0-0.431,0.108-0.575,0.108c-0.144,0-0.971-0.108-0.971-0.108s-0.068,0.108-0.216,0.27c-0.148,0.162-0.428,0.343-0.54,0.594   c-0.112,0.25-0.216,0.18-0.216,0.485c0,0.306-0.216,0.485-0.216,0.485s0.089,0.135-0.324,0.216   c-0.413,0.081-0.575,0.251-0.575,0.251l-0.617,1.008l-0.318,0.413c0,0-0.251-0.108-0.288,0.27   c-0.036,0.378-0.426,0.357-0.468,0.755c-0.042,0.398-0.042,0.398-0.042,0.398l-0.174,0.825l0.174,1.848l-0.649,1.059l-0.281,0.402   c0,0,0.108,0.108-0.161,0.27c-0.27,0.161-0.54,0.431-0.54,0.431s-0.161-0.27-0.378,0.27c-0.216,0.54-0.54,0.826-0.54,0.826   l-0.27,0.201c0,0-0.813,0.51-0.919,0.768c-0.107,0.258-0.592,0.312-0.592,0.312l-0.378,0.701l-0.635,0.815l-0.121,0.588   l-0.045,1.553c0,0-0.043,0.048-0.033,0.112c0.01,0.064-0.084,0.281-0.102,0.338s-0.173,0.061-0.194,0.121   c-0.021,0.061-0.041,0.102-0.051,0.142c-0.01,0.041-0.101,0.07-0.101,0.07l-0.601-0.419l-0.438-0.191h-0.54l-0.971-0.594   c0,0-0.363,0.157-0.756-0.135c-0.393-0.292-0.51-0.506-0.51-0.506l-0.187-0.429l-0.089-0.322l-0.048-0.323l-0.04-0.229   l-0.021-0.162l-0.022-0.528c0,0,0-0.175-0.001-0.225c-0.001-0.05-0.013-0.221-0.013-0.221l-0.018-0.091l-0.165-0.092l-0.065,0.058   c0,0-0.032,0.037-0.051,0.062c-0.019,0.025-0.098,0.146-0.098,0.146l-0.076,0.138H25.79h-0.081c0,0-0.004-0.172-0.005-0.203   c-0.001-0.03-0.007-0.163-0.009-0.194s-0.006-0.112-0.008-0.143c-0.002-0.031-0.016-0.226-0.019-0.266   c-0.003-0.04-0.014-0.167-0.014-0.167l-0.012-0.117l-0.063-0.293c0,0-0.032-0.064-0.058-0.098   c-0.025-0.034-0.248-0.485-0.248-0.485s-0.07-0.005-0.112,0.04c-0.04,0.045-0.104,0.144-0.104,0.144s-0.094,0-0.124,0   c-0.03,0-0.523,0-0.523,0l-0.296-0.365l-0.492-0.46l-0.364-0.308l-0.105-0.093l-0.263-0.011c0,0-0.052,0.008-0.089,0.023   c-0.036,0.017-0.087,0.035-0.145,0.076c-0.059,0.041-0.057,0.113-0.128,0.099c-0.072-0.014-0.113,0.12-0.113,0.12s-0.101,0-0.152,0   c-0.051,0-0.226,0-0.226,0l-0.14,0.01l-0.148-0.009l-0.355-0.118c0,0-0.078-0.052-0.107-0.075c-0.028-0.023-0.056-0.048-0.08-0.075   c-0.024-0.027-0.088-0.11-0.088-0.11s-0.067-0.093-0.09-0.119c-0.023-0.026-0.111-0.088-0.111-0.088L20.853,55.7l-0.041,0.079   l-0.081,0.114h-0.122c0,0,0.01,0-0.051,0c-0.061,0-0.366,0-0.366,0s-0.102,0-0.132,0s-0.142-0.05-0.173,0   c-0.03,0.05-0.376,0-0.376,0l-0.569-0.018c0,0-0.193-0.039-0.226-0.055c-0.033-0.016-0.347-0.223-0.347-0.223l-0.227-0.043   l-0.123-0.002l-0.165,0.009c0,0-0.195-0.026-0.193,0.021c0.002,0.047-0.177,0.026-0.177,0.026l-0.086,0.016   c-0.068,0.04-0.102,0.061-0.102,0.061s-0.001,0.001-0.063,0.037c-0.062,0.036-0.188,0.111-0.188,0.111l-0.121-0.017l-0.018-0.124   l-0.004-0.062c0,0-0.009-0.083,0.009-0.152c0.019-0.068,0.02-0.167,0.02-0.167s-0.019-0.059-0.034-0.09   c-0.016-0.031-0.061-0.109-0.075-0.136c-0.016-0.027-0.083-0.159-0.083-0.159s-0.035-0.08-0.043-0.108   c-0.008-0.027-0.036-0.142-0.052-0.218c-0.016-0.076-0.053-0.175-0.053-0.175l-0.214-0.201l-0.434-0.218l-0.212-0.169   c0,0-0.032-0.026-0.065-0.054c-0.032-0.027-0.192-0.166-0.192-0.166l-0.152-0.141c0,0-0.011-0.009-0.052-0.05   c-0.041-0.041-0.039-0.035-0.101-0.105c-0.061-0.069-0.144-0.177-0.144-0.177c-0.03-0.052-0.084-0.181-0.084-0.181   s-0.002-0.18,0.021-0.244c0.022-0.064,0.056-0.422,0.056-0.422l-0.02-0.161c0,0-0.023-0.144-0.028-0.175   c-0.006-0.031-0.091-0.415-0.091-0.415l-0.069-0.237v-0.056l-0.108-0.067l-0.083-0.019l-0.093,0.008l-0.253,0.1l-0.056,0.034   v-0.264v-0.544l-0.006-0.325l-0.104-0.401l-0.214-0.68l-0.648-0.054l-0.841-1.188l-0.041-0.083l0.102-0.162   c0,0,0.105-0.109,0.132-0.151c0.027-0.041,0.063-0.097,0.113-0.157c0.05-0.06,0.084-0.102,0.113-0.127   c0.029-0.025,0.152-0.086,0.182-0.104c0.03-0.018,0.089-0.051,0.123-0.071c0.034-0.021,0.149-0.088,0.149-0.088l0.307-0.44   c0,0,0.021-0.028,0.041-0.072c0.022-0.043,0.133-0.277,0.133-0.277s-0.028-0.063,0.039-0.157s0.149-0.149,0.175-0.189   c0.027-0.04,0.122-0.241,0.122-0.241l0.208-0.302l0.182-0.199l0.485-0.324l0.549-0.747c0,0,0.306-0.369,0.437-0.507   c0.13-0.138,0.323-0.594,0.323-0.594l0.54-0.351c0,0,0.014-0.13,0.054-0.189c0.04-0.059,0.149-0.229,0.149-0.27   c0-0.04-0.163-0.489-0.163-0.489s-0.012-0.171-0.012-0.266c0-0.095-0.108-0.499-0.108-0.499l-0.296-0.27l-0.135-0.296l-0.383-0.256   l-0.231-0.176L14.917,39.223z"> 
	<title>Mariscal Nieto</title></path>
	<path id="148" data-ng-click="$ctrl.openMap(2, '148', true, $event)" fill="none" stroke="#020202" stroke-width="0.3" stroke-miterlimit="10" d="M15.132,28.322l-0.701,0.54l-0.38,0.16   c0,0-0.592,0.002-0.726,0.11c-0.135,0.108-0.62,0.161-0.675,0.243c-0.054,0.081-0.189,0.216-0.189,0.216s-0.079-0.087-0.135,0.135   c-0.056,0.222-0.161,0.513-0.189,0.594s-0.087-0.009-0.057,0.36s0.008,0.611-0.008,0.774c-0.016,0.161-0.106,0.431-0.106,0.431   s0.11,0.256,0.148,0.394c0.038,0.139,0.212,0.685,0.212,0.685l-0.013,0.643c0,0,0.013,0.328-0.041,0.598s-0.306,0.62-0.306,0.62   s0.045,0.378,0,0.485c-0.045,0.108-0.261,0.216-0.369,0.431c-0.108,0.216-0.215,0.487-0.215,0.487l0.045,0.404l1.169,0.324   l0.351,0.675c0,0,0.62,0.431,0.675,0.62c0.054,0.189,0.575,0.54,0.575,0.54l0.719,0.431l0.54-0.403l0.27-0.515v-0.324h1.78   l0.064-0.306l0.246-0.228c0,0,0.542-0.308,0.662-0.33c0.12-0.022,0.324,0,0.324,0l1.241-0.024l0.431-0.462l0.851-0.646   c0,0,0.362-0.112,0.565-0.258s0.31-0.229,0.31-0.229l0.54-0.809c0,0-0.23-0.236-0.114-0.361c0.114-0.125,1.086-0.773,1.086-0.773   l1.133-1.403l0.485-0.324l0.27-0.864l0.485-0.428h1.349l0.303,0.378l0.128,0.536l0.594,0.161c0,0,1.053-0.108,1.578-0.108   c0.525,0,2.145,0,2.145,0l1.78-0.54c0,0,0.124,0.13,0.337,0.083c0.212-0.047,0.356-0.045,0.577-0.278   c0.22-0.233,0.344-0.338,0.525-0.424c0.181-0.086,0.451-0.191,0.451-0.191s-0.072-0.526-0.071-0.594   c0.001-0.068,0.02-0.222,0.071-0.324s0.057-0.498,0.057-0.498l-0.057-0.312l0.864-1.025c0,0-0.027-0.507-0.02-0.593   c0.007-0.086,0.064-0.338,0.086-0.387c0.022-0.05,0.145-0.14,0.145-0.14l0.304-0.063l0.244-0.057l0.376-0.003l0.258,0.043   l0.346,0.072l0.174-0.05l0.037-0.147l-0.031-0.703l-0.009-0.456l0.033-0.163l0.048-0.202v-0.284h0.151l0.274,0.057l0.21-0.057   l0.271-0.273l0.203-0.203l0.216-0.138l0.287-0.033h0.513h1.376h0.877l0.457-0.023l0.271-0.023h0.097l0.361,0.074l0.313-0.005   l0.754-0.074h0.525h0.688l1.228-0.003v-0.646l0.216-0.149l0.348-0.168l0.353-0.08c0,0,0.172,0.028,0.246,0.058   s0.172,0.057,0.172,0.057l0.175-0.096l0.171-0.155l0.41-0.235l0.229-0.096l0.454-0.377l0.667-0.495l1.2-0.801l-0.387-0.625   c0,0-0.045-0.454-0.045-0.616c0-0.161,0-0.378,0-0.459c0-0.081-0.135-0.62-0.135-0.62l-0.189-0.216l-0.846-0.51l-0.503-0.776   l0.324-1.088v-0.971c0,0-0.188-0.856-0.17-0.931c0.018-0.074-0.069-0.904-0.069-0.904l0.586-1.136c0,0,0.502-0.893,0.563-0.999   s0.143-0.375,0.143-0.375L50.549,8.95l-1.687-1.457l-0.504-0.624l0.018-2.398l-3.959-1.368l-1.602-0.545l-0.675-0.147l-0.376-0.126   c0,0-0.729,0.405-0.783,0.485c-0.054,0.081-1.405,0.377-1.554,0.454c-0.15,0.077-1.9,0.221-1.9,0.221l-1.924-0.665l-0.856,0.338   l-0.511,1.029l-0.359,0.627l-0.923,0.707c0.001,0-1.093,0.392-1.093,0.392l0.041,1.295c0,0,0.608,0.533,0.644,0.734   c0.035,0.202-0.001,0.777,0.143,1.047c0.144,0.27,0.216,0.918,0.396,1.025c0.18,0.108,0.251,0.648,0.18,0.971   c-0.071,0.324,0,0.971,0,0.971l-1.655,0.935c0,0-0.416,0.17-0.719,0.36c-0.304,0.19-0.988,0.564-1.14,0.595   c-0.152,0.03-0.767,0.089-0.767,0.089l-0.108,0.755l-0.251,1.043c0,0,0.324,0.468,0.431,0.719c0.108,0.251,0.216,0.108,0.161,0.684   c-0.054,0.575,0.27,2.05,0.27,2.05l0.016,1.003c0,0-0.711,0.13-0.932,0.239c-0.222,0.109-0.342,0.012-0.809,0   c-0.468-0.012-0.864,0.054-1.188-0.324c-0.324-0.378-0.791-0.594-0.791-0.594l-6.655,0.396v0.899l-0.971,0.864l0.144,1.188   l-0.09,1.457l-0.108,1.025L17.7,26.34l0.133,1.118l-0.36,1.511c0,0-0.182,0.191-0.424,0.161c-0.242-0.029-0.494,0.054-0.799,0.054   c-0.305,0-0.54,0.036-0.54,0.036L15.132,28.322z"> 
	<title>General Sánchez Cerro</title></path>
</g>
</svg>
