<?xml version="1.0" encoding="utf-8"?>
<svg xmlns="http://www.w3.org/2000/svg" xmlns:xlink="http://www.w3.org/1999/xlink" version="1.1" id="19" x="0px" y="0px" viewBox="0 0 74 71" enable-background="new 0 0 74 71" xml:space="preserve">
	<title>Pasco</title>
<g>
	<path id="151" data-ng-click="$ctrl.openMap(2, '151', true, $event)" fill="none" stroke="#020202" stroke-width="0.3" stroke-miterlimit="10" d="M6.755,44.622l0.351,0.376L7.533,45.4   l0.401,0.276l0.452,0.125c0,0,0.025,0.151,0.1,0.276c0.075,0.125,0.075,0.125,0.075,0.125s0.452-0.025,0.527,0   c0.075,0.025,0.477,0.527,0.477,0.527s0.125-0.025,0.176,0.151c0.05,0.176,0,0.351,0.125,0.326   c0.125-0.025,0.276-0.753,0.276-0.753l0.552-0.376l-0.125-0.452l0.125-0.1l0.125-0.602c0,0,0.502-0.075,0.703-0.1   s0.803-0.201,0.803-0.201v-0.201c0,0,0.452-0.176,0.527-0.176c0.075,0,0-0.452,0-0.452s0.577,0.05,0.652,0   c0.075-0.05,0.351-0.326,0.351-0.326s0.075-0.226,0.201-0.226s0.602,0,0.602,0l0.552-0.125c0,0,0.477-0.176,0.602-0.201   c0.125-0.025,0.226-0.427,0.201-0.527c-0.025-0.1,0.004-0.427,0.004-0.427h0.95v-0.201v-0.627c0,0-0.1-0.527-0.201-0.552   s0.201,0.025-0.1-0.025c-0.301-0.05-0.477-0.176-0.477-0.176s-0.652-0.253-0.652-0.465s0.05-0.463,0.05-0.463l0.025-0.226   l0.04-1.203l-0.141-0.98c0,0,0-0.376-0.05-0.602c-0.05-0.226-0.152-0.552-0.076-0.678c0.076-0.125,0.051-0.477,0.051-0.477   l-0.392-0.395c0,0-0.587-0.056-0.662-0.056c-0.075,0-0.477,0.05-0.627,0.025c-0.151-0.025-1.179,0.477-1.179,0.477   S12.201,35.539,12,35.589c-0.201,0.05-0.527,0.276-0.527,0.276l-0.652-0.075c0,0-0.401-0.1-0.401,0s-0.075,0.226,0.025,0.577   c0.1,0.351,0.05,0.351,0.1,0.552s-0.452,0.201-0.577,0.276c-0.125,0.075-1.129,0.201-1.129,0.201l-0.993,0.442   c0,0-0.287,0.135-0.412,0.261c-0.125,0.125-0.502,0.125-0.552,0.326s-0.477,0.427-0.627,0.452   c-0.151,0.025-0.913,0.251-0.913,0.251s-0.451,0.201-0.593,0.226c-0.142,0.025-0.339,0.07-0.395,0.198S3.97,39.916,3.97,39.916   l0.627,0.817c0,0,0.309,0.278,0.268,0.29s-0.242,0.438-0.242,0.438s0.1,0.251,0.151,0.326c0.05,0.075,0.07,0.031,0.151,0.176   c0.081,0.145-0.14-0.087,0.081,0.145s0.296,0.206,0.371,0.332c0.075,0.125,0.201,0.326,0.276,0.427   c0.075,0.1,0.1-0.025,0.251,0.326c0.151,0.351,0.123,0.258,0.25,0.455c0.127,0.197,0.152,0.348,0.202,0.473   C6.404,44.246,6.755,44.622,6.755,44.622z"> 
	<title>Daniel Alcides Carrión</title></path>
	<path id="150" data-ng-click="$ctrl.openMap(2, '150', true, $event)" fill="none" stroke="#020202" stroke-width="0.3" stroke-miterlimit="10" d="M23.492,39.916l0.975,0.711h0.23   c0,0,0.602,0.283,0.753,0.395c0.151,0.112,0.05,0.062,0.351,0.212c0.301,0.151,0.703,0.452,0.703,0.452l0.853,0.301l0.452,0.151   c0,0,0.251,0.151,0.703,0.401c0.452,0.251,0.753,0.452,0.753,0.452h0.552c0,0,0.151,0.151,0.552,0.301   c0.401,0.151,0.853,0.409,1.079,0.355c0.226-0.054,0.326-0.082,0.477,0.007c0.151,0.09,0.452,0.842,0.602,0.892   c0.151,0.05,0.351,0.201,0.351,0.201s0.24,0.05,0.371,0.301c0.131,0.251,0.231,0.678,0.231,0.678v0.591l0.427,0.702l-0.125,0.439   c0,0-0.038,0.244-0.049,0.318s-0.016,0.105-0.04,0.257s-0.111,0.107-0.143,0.224c-0.032,0.117-0.257,0.154-0.257,0.154   s-0.019-0.019-0.263,0c-0.245,0.019-0.395-0.038-0.659-0.075c-0.263-0.038-0.583-0.056-0.659-0.056s-0.489,0-0.489,0   s-0.508,0.107-0.602,0.082c-0.094-0.025-0.245,0.039-0.32,0.054c-0.075,0.015-0.47-0.104-0.602-0.079   c-0.132,0.025-0.772-0.046-0.828,0.08c-0.056,0.127-0.37,0.371-0.37,0.371l-0.439,0.176l-0.125,0.176c0,0-0.047,0.055-0.194,0.251   c-0.147,0.196-0.169,0.301-0.169,0.301l-0.245,0.376c0,0-0.094,0.113-0.151,0.226c-0.056,0.113-0.119,0.237-0.22,0.231   s-0.1,0.051-0.232-0.005c-0.132-0.056-0.307-0.019-0.376-0.188c-0.069-0.169-0.282-0.158-0.404-0.295s-0.442-0.345-0.593-0.439   c-0.151-0.094-0.339-0.151-0.452-0.226c-0.113-0.075-0.452-0.32-0.64-0.395c-0.188-0.075-0.721-0.301-0.765-0.301   s-0.552,0.358-0.627,0.395s-0.604,0.563-0.659,0.64s-0.602,0.452-0.696,0.565c-0.094,0.113-0.075,0.151-0.282,0.358   c-0.207,0.207-0.282,0.263-0.395,0.339c-0.113,0.075-0.678,0.433-0.678,0.433s-0.275,0.075-0.872,0.113c-0.596,0.038-1.01,0-1.01,0   s-0.272-0.213-0.433-0.245c-0.161-0.032-0.332-0.207-0.443-0.301c-0.111-0.094-0.36-0.144-0.429-0.091s-0.328-0.061-0.602,0.091   c-0.275,0.152-0.299,0.17-0.336,0.202c-0.038,0.032-0.341,0.576-0.191,0.852c0.151,0.276,0.213,0.678,0.213,0.678l0.094,0.151   c0,0-0.094,0.038,0,0.263c0.094,0.226,0.263,0.414,0.263,0.414l0.045,0.077l0.246,0.231l0.198,0.407l0.27,0.567l0.125,0.976   l0.1,0.853c0,0-0.361,0.242-0.533,0.295c-0.173,0.053-0.809,0.071-0.809,0.071l-0.339-0.215l-0.602-0.552l-0.339-0.489   l-0.665-0.364c0,0-0.108-0.255-0.403-0.22c-0.294,0.036-0.664-0.132-0.664-0.132s-0.715-0.376-0.903-0.188   c-0.188,0.188-0.151,0.177-0.414,0.258c-0.263,0.081-0.602,0.062-0.602,0.062h-0.489l-0.696-0.263c0,0,0.157,0.483-0.245-0.22   c-0.401-0.703-0.602-0.954-0.602-0.954l-0.097-0.41c0,0-0.053-0.142-0.129-0.543C8.788,52.376,8.75,52.288,8.75,52.1   c0-0.188-0.063-1.932-0.063-1.932l-0.269-0.146l-0.244-0.624l-0.478-0.422c0,0-0.401-0.665-0.314-0.916   c0.088-0.251-0.367-0.351-0.234-0.778c0.133-0.427-0.049-0.244-0.025-0.64c0.025-0.396,0.045-0.64,0.045-0.64   s0.038-0.201-0.188-0.251s-0.703-0.602-0.703-0.602v-0.703l0.155-0.201l0.272,0.322l0.592,0.61c0,0,0.275,0.249,0.332,0.288   s0.306,0.21,0.306,0.21l0.452,0.125l0.176,0.401h0.527l0.477,0.527c0,0,0.082-0.004,0.117,0.043   c0.035,0.047,0.088,0.33,0.098,0.364s0.091,0.15,0.161-0.018c0.069-0.167,0.202-0.666,0.202-0.666l0.552-0.376l-0.125-0.452   l0.125-0.1l0.125-0.602c0,0,0.756-0.103,0.931-0.147c0.175-0.044,0.575-0.154,0.575-0.154v-0.201l0.527-0.176v-0.452   c0,0,0.245,0.024,0.395,0.022s0.234,0.003,0.304-0.059c0.069-0.062,0.191-0.177,0.248-0.233s0.118-0.23,0.188-0.256   c0.07-0.026,0.22-0.026,0.258-0.026c0.038,0,0.414,0,0.414,0s0.327-0.074,0.439-0.1c0.113-0.026,0.168-0.049,0.357-0.113   s0.358-0.113,0.358-0.113s0.151-0.078,0.176-0.303c0.025-0.224,0.015-0.347,0.015-0.347l0.014-0.304h0.95v-0.9l-0.201-0.48   c0,0-0.32-0.076-0.394-0.107c-0.073-0.032-0.184-0.093-0.184-0.093l-0.389-0.19c0,0-0.146-0.096-0.174-0.126   s-0.073-0.096-0.073-0.096s-0.022-0.097-0.009-0.211c0.012-0.114,0.043-0.306,0.043-0.306l0.03-0.374l0.025-0.755l0.293-0.259   l0.156-0.248c0,0,0.055-0.119,0.128-0.12c0.072-0.001,0.113-0.12,0.113-0.12s-0.014-0.043,0.057-0.099   c0.071-0.057,0.177-0.319,0.227-0.358c0.05-0.039,0.312-0.077,0.312-0.077s0.446,0.109,0.495,0.151   c0.05,0.043,0.7,0.399,0.73,0.432s0.822,0.432,0.822,0.432l1.217,0.715l0.299,0.124l0.22,0.181l0.156,0.142   c0,0,0.072,0.116,0.098,0.134c0.026,0.018,0.107,0.156,0.129,0.192c0.021,0.035,0.135,0.156,0.142,0.198   c0.007,0.043-0.007,0.05,0.057,0.082c0.064,0.032,0.425,0.039,0.425,0.039l0.482-0.039l0.475-0.04c0,0,0.39-0.07,0.432-0.07   c0.043,0,0.255,0.11,0.255,0.11L23.492,39.916z"> 
	<title>Pasco</title></path>
	<path id="152" data-ng-click="$ctrl.openMap(2, '152', true, $event)" fill="none" stroke="#020202" stroke-width="0.3" stroke-miterlimit="10" d="M33.248,26.338l2.038,1.101l0.674,0.346   l0.982-0.602l0.401-0.845l0.552-0.761l0.703-0.502l1.104-0.602l1.305-0.602l-0.1-1.004l-0.351-0.652h1.154l1.706,1.355l0.401-0.151   l1.305,0.301l0.401,0.301c0,0,1.188-0.321,1.272-0.336s1.589-0.367,1.589-0.367l0.903-0.652l0.502-0.703l1.004-0.351h1.405   l1.305-0.903v-0.452v-0.753l0.456-0.652c0,0,0.648-0.954,0.648-1.105s0.351-1.305,0.351-1.305l0.201-0.703l0.201-1.255l0.351-0.703   h0.728l0.668,0.593l0.963-0.041l0.852,0.15c0,0-0.049,0.653,0.252,1.105c0.301,0.452-0.401,1.299-0.401,1.299l-0.217,0.358   l0.678,0.122c0,0,0.108,0.251,0.501,0.215s0.744,0.014,0.744,0.014l0.703,0.251l0.301,0.401l0.009,1.593   c0,0,0.166,0.417,0.078,0.666s0.05,1.034,0.232,1.244c0.182,0.21,0.621,0.649,0.621,0.649l0.364,1.694c0,0,0.063,0.326,0.031,0.753   c-0.031,0.427,0.122,0.612,0.122,0.612l0.549,0.417v0.703c0,0-0.226-0.226-0.113,0.226s0.247,1.48,0.247,1.48   s0.051,0.326,0.128,0.659c0.077,0.333,0.24,0.546,0.24,0.546l1.861,1.983l1.249,1.283c0,0-0.153,0.248,0,0.398   s-0.098,0.452-0.249,0.703c-0.151,0.251-0.401,0.325-0.753,0.388c-0.351,0.063-1.204,0.365-1.204,0.365l-1.255,0.226l-0.05,1.512   l1.131,0.633c0,0,0.685-0.048,0.776,0.239c0.091,0.287,0.376,0.903,0.703,1.305c0.326,0.401,0.949,0.04,0.949,0.04l0.318,0.041   l0.79,0.671l0.853,0.351c0,0,0.301,0.552,0.452,0.703s0.318,0.489,0.452,0.803c0.134,0.314,0.215,0.501,0.132,0.903   c-0.082,0.402,0.001,0.897,0.001,0.897v1.01c0,0-0.887,0.22-1.238,0.301c-0.351,0.082-1.198-0.257-1.198-0.257l-0.257,0.006   l-0.892,1.33l-1.888,1.57l-0.858,0.744l-0.744,0.302l-1.389,0.42c0,0-0.552,0.853-0.652,1.004c-0.1,0.151-0.259,0.233-0.456,0.518   c-0.197,0.285-0.799,0.686-0.799,0.686l-0.803-0.251l-1.104-0.251l-0.502,0.279l-1.719-0.952l-1.104-0.703l-0.84-0.531   c0,0-0.619-0.934-0.887-1.12c-0.268-0.185-0.669-0.687-0.669-0.687l-0.401,0.803l-0.351,0.053c0,0-0.251,0.073-0.602-0.191   c-0.351-0.263-1.556-0.565-1.556-0.565s-0.803-0.401-0.803-0.652c0-0.251-0.351-0.502-0.351-0.502l-1.204-0.753l-0.954,0.502   l-0.151,0.753c0,0-0.476,0.1-0.715,0.151c-0.239,0.05-1.142,0-1.142,0h-0.753l-0.552,1.104l-0.251,1.004   c0,0-0.151,0.652-0.452,0.703c-0.301,0.05-0.241,0.08-0.572,0.191c-0.331,0.11-0.833,0.311-0.833,0.311s-0.903,0.502-1.204,0.502   c-0.301,0-0.703-0.301-0.703-0.301l-0.703,0.251l-0.652,0.652l-0.954,0.007l-0.364-0.722l-0.038-0.891l0.401-0.429v-0.743   l-1.21-0.381l-0.697-0.253l-0.401-0.201l-0.156,0.131l-0.346-0.569v-0.591l-0.231-0.678l-0.371-0.301l-0.351-0.201l-0.428-0.659   l-0.174-0.234l-0.201-0.057l-0.276,0.05L31.1,43.594l-1.284-0.603h-0.552l-0.753-0.452l-0.703-0.401l-1.305-0.452l-1.807-1.059   h-0.23l-1.414-0.939l0.612-0.301c0,0,0.344-0.29,0.367-0.361c0.023-0.07,0.201-0.552,0.201-0.59c0-0.038,0.106-0.697,0.106-0.697   s0.06-0.793,0.065-0.909c0.005-0.116,0.064-0.916,0.064-0.916l0.794-0.213c0,0,0.652-0.226,0.728-0.276   c0.075-0.05,0.339-0.389,0.351-0.427s0.089-0.667,0.083-0.754c-0.006-0.086,0.13-0.288,0.13-0.288l0.414-0.063   c0,0,0.765-0.1,0.803-0.113c0.038-0.013,1.079,0.163,1.154,0.113c0.075-0.05,0.69-0.289,0.74-0.314   c0.05-0.025,0.699-0.527,0.699-0.527l0.116-0.697l0.24-0.282l0.626-0.451l0.063-0.602l-0.183-0.54l0.082-0.928l0.439-0.238   c0,0,0.667-0.872,0.678-0.928c0.011-0.057,0.201-0.489,0.211-0.527C32.648,27.821,33.248,26.338,33.248,26.338z"> 
	<title>Oxapampa</title></path>
</g>
</svg>
