<?xml version="1.0" encoding="utf-8"?>
<svg xmlns="http://www.w3.org/2000/svg" xmlns:xlink="http://www.w3.org/1999/xlink" version="1.1" id="21" x="0px" y="0px" viewBox="-260 385.89 74 71" enable-background="new -260 385.89 74 71" xml:space="preserve">
	<title>Puno</title>
<g>
	<path id="169" data-ng-click="$ctrl.openMap(2, '169', true, $event)" fill="none" stroke="#020202" stroke-width="0.3" stroke-miterlimit="10" d="M-218.463,423.504h0.366h0.549l0.248,0.32   c0,0,0.118-0.229,0.3,0c0.183,0.229,0.183,0.229,0.183,0.229s0.366-0.503,0.457-0.548s0.091-0.046,0.091-0.046h0.648h0.205   l0.518-0.503h0.366l0.366-0.229h0.366v-0.411h0.503h0.64h0.503v0.229l0.594,0.411c0,0,0.274-0.274,0.457,0s0.183,0.274,0.183,0.274   l-0.823,1.188l-0.891,1.257c-0.114,0.114-0.274,0.343-0.274,0.343s0.023,0.091-0.091,0.114s-0.114,0.251-0.114,0.251l-0.091,0.229   c0,0-0.206,0.16-0.274,0.274c-0.069,0.114,0.069-0.046-0.069,0.114c-0.137,0.16-0.16,0.251-0.251,0.206s-0.32-0.206-0.411-0.229   s0.023,0.137-0.091-0.023s-0.366-0.434-0.366-0.434c-0.206-0.046-0.549-0.274-0.549-0.274l-0.594-0.114l-0.457-0.617l-0.503-0.549   l-0.351-0.2l-0.654-0.257L-218.463,423.504z"> 
	<title>Moho</title></path>
	<path id="163" data-ng-click="$ctrl.openMap(2, '163', true, $event)" fill="none" stroke="#020202" stroke-width="0.3" stroke-miterlimit="10" d="M-236.187,405.453l0.297-0.183l0.366,0.091   l0.686,0.091h0.389c0,0,0.046-0.137,0.137,0c0.091,0.137,0.206,0.343,0.206,0.343l0.457,0.137l0.183,0.32l0.114,0.206   c0,0,0.069-0.046,0.251,0c0.183,0.046,0.503,0,0.503,0l0.343,0.02c0,0,0.16,0.117,0.16,0.231c0,0.114,0.137,0.297,0.137,0.297   s0.114,0.137,0.183,0.137s-0.137-0.069,0.069,0s0.366,0.229,0.366,0.229v0.114c0,0,0.114,0.046,0.297,0s0.526,0,0.526,0   s0.183-0.16,0.206-0.229s-0.137-0.091,0-0.183s0.229-0.137,0.297-0.137c0.069,0,0.571,0.137,0.571,0.137v-0.206   c0,0,0.137-0.206,0.251-0.206s0.274,0.069,0.274,0.069s0.091,0,0.229,0.206c0.137,0.206,0.206,0.183,0.251,0.32   c0.046,0.137,0.069,0.251,0.114,0.343c0.046,0.091,0.16,0.183,0.251,0.297c0.091,0.114,0.046-0.069,0.091,0.114   s-0.069,0.206,0,0.343s0.114,0.274,0.114,0.274s0.046-0.023,0.16,0s0.274,0.251,0.343,0.251s-0.046,0.137,0.069,0   s0.16-0.16,0.16-0.274c0-0.114,0.229-0.183,0.297-0.229c0.069-0.046-0.091-0.229,0.069-0.046s0.251,0.206,0.297,0.366   c0.046,0.16,0,0.244,0,0.244s0.137-0.076,0.229,0c0.091,0.076,0.091,0.076,0.091,0.076l0.366,0.297l0.251,0.16c0,0,0.137,0,0.206,0   s0.046-0.137,0.183,0s0.297,0.16,0.32,0.229c0.023,0.069-0.137,0.069,0.229,0.137c0.366,0.069,0.754-0.023,0.96,0   s0.571,0.029,0.651,0.026s0.309,0.385,0.309,0.385h0.343c0,0,0.251,0.206,0.274,0.297s0.114,0.457,0.114,0.457h0.251h1.554   c0,0-0.023,0.206,0,0.274s0.343,0.206,0.411,0.206s0.206-0.137,0.251,0c0.046,0.137,0.16,0.526,0.16,0.526s0.503,0.114,0.503,0   s0-0.48,0-0.48l0.251-0.16v-0.48l-0.48-0.297l-0.411-0.206v-0.914c0,0-0.229-0.206-0.389-0.251   c-0.16-0.046-0.389-0.023-0.389-0.023s0.137-0.297,0.091-0.434c-0.046-0.137-0.206-0.389-0.251-0.457   c-0.046-0.069,0.046-0.229-0.091-0.229s-0.777,0.046-0.777,0.046l-0.046-1.006c0,0,0.114-0.137,0.206-0.137   c0.091,0,0.114-0.983,0.114-0.983l0.32-0.16l-0.069-0.389l0.389-0.183l-0.023-0.343h0.297c0,0-0.274-0.48-0.16-0.434   c0.114,0.046,1.028-0.003,1.028-0.003l-0.16-1.071l0.16-0.16l0.389-0.183l0.114-0.137l0.32-0.137l-0.137-0.823h-0.389   c0,0,0-0.297-0.069-0.297s-0.594,0-0.594,0l-0.046-0.48h-0.251l-0.114-0.548c0,0-0.251-0.091-0.297-0.16   c-0.046-0.069-0.091-0.32-0.091-0.32l0.411-0.183c0,0,0.046-0.183,0.046-0.32s0.046-0.48,0.046-0.594c0-0.114,0-0.32,0-0.32   s0.137-0.023,0.206-0.137c0.069-0.114,0.137-0.32,0.206-0.343c0.069-0.023,0.16,0,0.16,0s0.206-1.371,0.137-1.394   s-0.069-0.411-0.069-0.411H-219l0.366-0.777h0.389l0.183-0.708v-0.57l0.251-0.343v-0.16l-11.702-3.474l-0.594,1.417l0.777,1.006   c0,0-0.381,0.846-0.442,0.823s-0.632,0.16-0.632,0.16l-0.434,0.328l0.033,0.746l-0.124,0.777l-1.122,1.006v0.64   c0,0-1.026,0.229-1.529,0.823s-1.463,1.737-1.463,1.737l0.914,0.549l-0.549,0.731l-0.731-0.274c0,0-0.32-0.046-0.434-0.046   s-0.48-0.046-0.549-0.046s-0.389,0-0.389,0l0.914,1.554l-0.731,0.914l-0.137,1.211l0.297,0.343L-236.187,405.453z"> 
	<title>Carabaya</title></path>
	<path id="170" data-ng-click="$ctrl.openMap(2, '170', true, $event)" fill="none" stroke="#020202" stroke-width="0.3" stroke-miterlimit="10" d="M-210.098,411.163   c-0.229,0.091-0.823-0.183-0.823-0.183h-0.411v-0.32v-0.274l-0.503-0.32v-0.503v-0.503l-0.369-0.183l-0.362,0.686   c0,0-0.32,0.339-0.366,0.466c-0.046,0.128,0,0.585,0,0.585s0.229-0.091,0.229,0.229s0.091,0.046,0,0.32s-0.178,0.183-0.249,0.411   s-0.117,0.063-0.163,0.489s-0.046,0.38-0.137,0.791c-0.091,0.411,0,0.777,0,0.777s0,0.046-0.411,0s-0.046-0.046-0.411-0.046   c-0.366,0-0.777,0.046-0.777,0.046l-0.64-0.503c0,0,0-0.229-0.229-0.137c-0.229,0.091-0.731,0.32-0.731,0.32   c-0.503,0.457-1.051,0.503-1.051,0.503l-0.308,0.503c-0.149-0.366,0-0.686,0-0.686l-0.652-0.686c0,0,0.046-0.32,0-0.457   s-0.354-0.476-0.354-0.476h-0.503l-0.21-0.584l-0.201,0.058l-0.411-0.206v-0.274h-1.806l-0.248,0.415l-0.396,0.061   c0,0-0.046,0.152-0.076,0.213s-0.297,0.015-0.331,0.061s-0.019,0.152-0.095,0.198s-0.274,0.063-0.366,0.108   s-0.168,0.182-0.198,0.273s0.076,0.076,0,0.244s-0.087,0.35-0.006,0.381c0.082,0.03,1.941-0.03,1.941-0.03l-0.015,0.381   c0,0,0.137,0.152,0.168,0.259s0.107,0.503,0.107,0.548c0,0.046,0.168-0.107,0.168,0.107c0,0.213,0,0.32,0,0.411   s0.046,0.701,0.046,0.808c0,0.107-0.046,0.518-0.076,0.594s-0.366,0.518-0.366,0.518l-0.366,0.198c0,0-0.183,0.259-0.168,0.335   s0.076,0.244,0.076,0.244h-1.112l0.03,2.727l0.305,0.335l0.594-0.076c0,0,0.137,0.549,0.122,0.609c-0.015,0.061,0.381,0,0.381,0   l0.274-0.457c0,0,0.168-0.289,0.168-0.335s0.061-0.503,0.061-0.503s0.107-0.137,0.183-0.137s0.274-0.229,0.274-0.229h0.213   l0.198-0.32l0.152-0.229c0,0,0.472,0.076,0.472,0.168c0,0.091,0.183,0.366,0.183,0.366s0.198-0.137,0.229-0.213   c0.03-0.076,0.137-0.335,0.137-0.335l1.204-0.061l0.061-0.213l0.305-0.104l0.152-0.201l1.021-0.015l0.305-0.152l0.091-1.143   l0.168-0.107l-0.137-0.655l0.32-0.152l0.396,0.015c0,0,0.229,0.381,0.229,0.442s0.046,0.396,0.046,0.396l0.503,0.03l0.366-0.046   l0.198-0.274l0.03-0.274h0.411h0.32l0.152-0.366l0.137-0.122l0.259-0.244c0,0,0.076-0.015,0.183-0.015s0.381-0.03,0.381-0.03   l0.168,0.046l-0.091-0.914l-0.046-0.274l-0.076-0.183l-0.152-0.183c0,0,0.076-0.168,0.137-0.198   c0.061-0.03,0.274-0.244,0.305-0.289s0.107-0.244,0.168-0.289s0.168-0.198,0.168-0.198s0.03-0.122,0.137-0.122s0.366,0,0.366,0   l0.442-0.274l0.091-0.35c0,0-0.012-0.013,0.047-0.121s0.151-0.138,0.151-0.245C-210.373,411.711-210.098,411.163-210.098,411.163z"> 
	<title>San Antonio de Putina</title></path>
	<path id="162" data-ng-click="$ctrl.openMap(2, '162', true, $event)" fill="none" stroke="#020202" stroke-width="0.3" stroke-miterlimit="10" d="M-230.568,418.584v-1.068h0.373l-0.091-0.868   l0.091-0.777h0.244l-0.076-0.518h0.366v-0.579h0.335v-1.067l-0.621-0.076l-0.08-0.762l0.488-0.091l0.414,0.446l0.287-0.004v-1.356   l0.366-0.152v-1.371h0.229v-0.609l0.025-0.156l0.173-0.042v-0.32l0.305-0.091l0.034-0.492l0.343,0.251c0,0,0.109,0.01,0.168-0.116   s0.072-0.2,0.072-0.2l0.079-0.077l0.143-0.076l0.065-0.034v-0.109c0,0,0.143,0.143,0.189,0.187   c0.046,0.044,0.177,0.242,0.177,0.242s0.021,0.097,0.02,0.129c-0.001,0.032,0.033,0.05,0.033,0.05s0.062,0.008,0.119,0.036   c0.056,0.028,0.355,0.273,0.402,0.311s0.363,0.25,0.363,0.25h0.206l0.104-0.058l0.156,0.122l0.233,0.147l0.013,0.03   c0,0-0.033,0.035-0.017,0.052c0.016,0.018,0.193,0.063,0.193,0.063s0.27,0.046,0.471,0.033s0.208-0.026,0.374-0.025   c0.165,0.001,0.285,0.013,0.396,0.018s0.42,0.009,0.42,0.009s0.095,0.068,0.14,0.131s0.168,0.255,0.168,0.255h0.343l0.192,0.179   l0.197,0.576l-0.248,0.415l-0.396,0.061l-0.076,0.213l-0.331,0.061l-0.095,0.198l-0.401,0.132l-0.162,0.249l0.026,0.129   c0,0-0.127,0.375-0.079,0.435c0.047,0.06,1.988,0.03,1.988,0.03l-0.015,0.381c0,0,0.151,0.191,0.168,0.259s0.069,0.32,0.073,0.338   c0.003,0.018,0.034,0.21,0.034,0.21s0.168-0.082,0.168,0.158s0.026,0.806,0.031,0.88s0.016,0.255,0.015,0.288   c-0.001,0.032-0.019,0.247-0.026,0.303s-0.038,0.247-0.038,0.247l-0.378,0.562l-0.366,0.198l-0.159,0.282l0.068,0.297h-1.112   l0.03,2.727l0.305,0.335l0.542-0.069l0.174,0.603l0.319,0.009l0.115,0.224l0.034,0.48l-0.251,0.069l-0.057,0.411h0.434   l-0.046,0.674h-0.251l-0.046,0.16l-0.788,0.08l0.011,0.263h-0.457v0.32l-0.4-0.057l-0.034,0.868h0.354l-0.046,0.594l-0.003,0.078   l0.01,0.163l-0.025,0.072l-0.244,0.224c0,0-0.071,0.011-0.138,0s-0.147-0.309-0.147-0.309h-0.274l0.057-0.446l-0.423,0.023   l-0.08,0.24l-0.297,0.023l-0.034,0.286l-0.4-0.034l-0.4-0.091l-0.186-0.069l-0.039-0.417l0.077-0.486c0,0-0.114-0.139-0.301-0.195   c-0.188-0.056-0.599-0.247-0.599-0.247s-0.122-0.059-0.122-0.183c0-0.124,0.015-0.309-0.03-0.475   c-0.045-0.166-0.116-0.426-0.135-0.494c-0.018-0.067-0.072-0.232-0.123-0.275s-0.06-0.055-0.17-0.097s-0.155-0.061-0.197-0.1   c-0.043-0.039-0.138-0.174-0.138-0.174s-0.781,0.028-0.935,0.027c-0.155-0.001-0.243,0.007-0.324-0.01   c-0.081-0.017-0.101,0.042-0.132-0.21c-0.031-0.252-0.132-1.641-0.132-1.87s0-0.771,0-0.771s-0.337-0.193-0.396-0.213   c-0.059-0.021-0.237-0.063-0.288-0.087c-0.051-0.024-0.109-0.075-0.157-0.101C-230.094,418.781-230.568,418.584-230.568,418.584z"> 
	<title>Azángaro</title></path>
	<path id="168" data-ng-click="$ctrl.openMap(2, '168', true, $event)" fill="none" stroke="#020202" stroke-width="0.3" stroke-miterlimit="10" d="M-239.17,420.956v-0.629v-0.404v-0.785   c0,0,0.069-0.48,0.092-0.548c0.023-0.069,0-0.823,0-0.823s0.137-0.571,0.206-0.708s0.069-0.549,0.069-0.549l0.091-0.594   l0.091-0.183l-0.457-0.274h-0.366l-0.265,0.075l-0.58-0.618l-0.16-0.463v-0.708l1.28-0.937l0.366-1.188v-1.92l0.894-1.326   l0.316-0.663l0.07-1.119l1.463-0.64v-0.576l0.172-0.106c0,0,0.498,0.109,0.639,0.128s0.469,0.055,0.469,0.055h0.332l0.096-0.045   l0.202,0.309l0.045,0.079l0.457,0.137l0.268,0.473c0,0,0.178,0.037,0.28,0.052s0.58,0.005,0.684,0.011   c0.104,0.006,0.18,0.013,0.228,0.068c0.047,0.055,0.092,0.237,0.138,0.319s0.185,0.258,0.23,0.273s0.266,0.077,0.341,0.132   s0.138,0.111,0.138,0.111v0.114l0.226,0.012l0.242-0.032l0.355,0.019l0.206-0.229l-0.052-0.13l0.221-0.153   c0,0,0.036-0.053,0.128-0.037s0.571,0.137,0.571,0.137s-0.033-0.212,0.078-0.303c0.11-0.091,0.161-0.146,0.337-0.079   c0.176,0.066,0.289,0.175,0.289,0.175l0.201,0.247c0,0,0.093,0.11,0.125,0.22s0.103,0.299,0.222,0.431s0.177,0.102,0.197,0.193   s0,0.258,0,0.258l0.013,0.137l0.114,0.274h0.16l-0.034,0.492l-0.305,0.091v0.32l-0.173,0.042l-0.025,0.156v0.609h-0.229v1.371   l-0.366,0.152v1.356l-0.287,0.004l-0.414-0.446l-0.488,0.091l0.08,0.762l0.621,0.076v1.067h-0.335v0.579h-0.366l0.076,0.518h-0.244   l-0.091,0.777l0.091,0.868h-0.373v1.068l-0.449-0.201l-0.311-0.014l-0.398,0.747l-0.435,0.213l0.122,0.701l0.027,0.644   c0,0,0.011,0.125,0.067,0.172s0.198,0.101,0.192,0.173s0.041,0.05,0.033,0.218c-0.007,0.168-0.02,0.235-0.011,0.301   c0.01,0.066,0.082,0.18,0.086,0.194c0.004,0.013,0.04,0.05-0.044,0.143c-0.084,0.093-0.178,0.177-0.266,0.237   c-0.088,0.06-0.153,0.055-0.187,0.149c-0.035,0.095-0.078,0.084-0.078,0.084l-0.026-0.043l-0.143-0.283l-0.095-0.238l-0.042-0.079   l-0.183-0.149l-0.152-0.201l-1.679-0.017l-0.149-0.727l-0.612-0.427c0,0,0.093-0.13,0.064-0.176s-0.063-0.085-0.407-0.163   s-0.805-0.167-0.858-0.163s-0.123,0.003-0.228,0.076s-0.16,0.098-0.227,0.14c-0.067,0.042-0.173,0.137-0.173,0.137l-0.125,0.078   l-0.099,0.01l-0.118-0.014l-0.126-0.053c0,0-0.036-0.001-0.067,0.012c-0.031,0.012-0.31,0.178-0.31,0.178l-0.187,0.121   l-0.037,0.058l-0.141,0.106l-0.767,0.537L-239.17,420.956z"> 
	<title>Melgar</title></path>
	<path fill="none" stroke="#020202" stroke-width="0.3" stroke-miterlimit="10" d="M-213.725,427.374l-0.739-0.442l-0.229-0.274   c0,0-0.004-0.135-0.106-0.181s-0.352,0-0.352,0s-0.389-0.048-0.434-0.116c-0.046-0.069-0.319-0.373-0.319-0.373l-0.663-0.701   l-0.457-0.434l-0.48-0.218l-0.274-0.125l-0.686-0.81l-0.396-0.241l-0.244-0.206l-0.594-0.297c0,0-0.023,0.389-0.046,0.457   s0.046,0.823,0.046,0.823s0.077,0.011-0.145-0.021c-0.222-0.032-0.495-0.071-0.495-0.071l-0.297-0.297l-0.221-0.026l-0.214-0.134   h-0.457l-0.563,0.395l-0.311,0.828c0,0-0.19,0.51-0.195,0.546c-0.005,0.037,0,0.38,0,0.38l0.109,0.64l0.297,0.411l0.389,1.097   v0.251c0,0,0.137,0.206,0,0.206s-0.434-0.069-0.549,0c-0.114,0.069,0,0,0,0l-0.181,0.073l-0.276,0.475c0,0-0.015,0.35-0.061,0.396   s-0.213,0.183-0.213,0.183l-0.152,0.123l-0.122,0.121c0,0-0.35,0-0.411,0s-0.32,0-0.32,0l0.061,0.564c0,0,0.044,0.409,0.052,0.456   s0.117,0.519,0.117,0.519l0.021,0.816l0.876,0.587l0.975,0.305l0.206-0.777l0.434-0.366l0.366-0.457l0.411,0.503l0.183,0.299   l0.32,0.935h1.28l0.32,0.359l0.96,0.306l1.036,0.326l0.594,0.213l0.381,0.168c0,0,0.244,0.609,0.244,0.67s-0.061,0.32-0.076,0.381   s-0.381,0.472-0.396,0.518c-0.015,0.046-0.32,0.442-0.32,0.442v0.274c0,0,0.305,0.442,0.32,0.488   c0.015,0.046,0.32,0.122,0.32,0.122l0.35,0.137l0.198,0.076l0.29-0.437h0.13l0.575,0.54l0.344,0.532l0.304,0.465l0.415,0.088   l0.333,0.061c0,0,0.467,0.022,0.5,0.025c0.034,0.003,0.544-0.213,0.544-0.213l0.942-0.913l0.103-0.057l-0.469-0.183   c0,0-0.16-0.114-0.194-0.16s-0.297-0.286-0.297-0.286l-0.263-0.514c0,0-0.305-0.392-0.301-0.442   c0.004-0.049-0.236-0.975-0.236-0.975l-0.137-0.571l-0.389-0.743l-0.137-0.377c0,0-0.149-1.131-0.149-1.166   s-0.057-0.663-0.057-0.663s-0.069-0.24-0.103-0.343s-0.171-0.286-0.171-0.286l-0.206-0.24l-0.263-0.206c0,0-0.046-0.149-0.057-0.24   s-0.194-0.503-0.194-0.503s-0.114-0.251-0.126-0.297s-0.091-0.366-0.091-0.366l-0.103-0.446l0.042-0.076l0.221-0.164l0.206-0.354   l0.069-0.488L-213.725,427.374z" style="fill: rgba(0, 197, 242, 0.76);"></path>
	<path id="166" data-ng-click="$ctrl.openMap(2, '166', true, $event)" fill="none" stroke="#020202" stroke-width="0.3" stroke-miterlimit="10" d="M-210.914,423.192l0.267-0.968l-0.396-0.396   l-0.274-0.213l-0.465-0.305l-0.305-0.152l-0.305-0.122l-0.389-0.289l-0.609-1.394c0,0-0.114-0.137-0.16-0.168   c-0.046-0.03-0.206-0.213-0.206-0.213l-0.091-0.053l0.038-0.091l0.023-0.579l-0.135-0.302l0.158-0.529l-0.175-0.457l-0.198-0.259   l-0.056-0.053l-0.194,0.107l-0.376,0.021l-0.365-0.022l-0.046-0.396l-0.229-0.442l-0.396-0.015l-0.32,0.152l0.137,0.655   l-0.168,0.107l-0.091,1.143l-0.305,0.152l-1.021,0.015l-0.152,0.201l-0.305,0.104l-0.061,0.213l-1.204,0.061l-0.137,0.335   l-0.229,0.213l-0.169-0.307l-0.014-0.059l-0.472-0.168l-0.35,0.549h-0.213l-0.212,0.201l-0.062,0.028c0,0-0.178,0.1-0.183,0.137   c-0.005,0.038-0.061,0.503-0.061,0.503l-0.442,0.792l0.053,0.232l0.034,0.48l-0.251,0.069l-0.057,0.411h0.434l-0.046,0.674h-0.251   l-0.046,0.16l-0.788,0.08l0.011,0.263h-0.457v0.32l-0.4-0.057l-0.034,0.868h0.354l-0.063,0.338l-0.024,0.202l-0.016,0.212v0.133   l-0.344,0.246l-0.182,0.64l0.24,0.377l0.229,0.217c0,0,0.149,0.171,0.149,0.24s0.023,0.526,0.023,0.526l-0.039,0.219l0.169,0.15   l0.266,0.236l0.337,0.348l0.284-0.028l0.25-0.063c0,0,0.242-0.103,0.241-0.102s-0.011-0.292-0.022-0.395s-0.137-0.469-0.137-0.469   s-0.057-0.206-0.16-0.297s-0.375-0.387-0.343-0.457s-0.16-0.4-0.183-0.457s-0.16-0.251-0.137-0.354   c0.023-0.103,0.08-0.437,0.08-0.437s0.086-0.5,0.171-0.523s0.229-0.423,0.229-0.423l0.194-0.537l0.389-0.229l0.331-0.114   l0.274,0.057l0.457,0.331l0.45,0.151l0.319,0.046l0.202-0.025l-0.057-1.234l0.766,0.343l0.411,0.32l0.057-0.114h0.914l0.219,0.283   l0.153-0.063l0.086,0.022l0.222,0.244l0.124-0.036c0,0,0.303-0.379,0.326-0.401c0.023-0.022,0.149-0.094,0.149-0.094h0.853   l0.518-0.503h0.366l0.366-0.229h0.366v-0.411h1.646v0.229l0.594,0.411c0,0,0.129-0.115,0.21-0.117   c0.082-0.002,0.161-0.008,0.232,0.098c0.072,0.105,0.197,0.293,0.197,0.293L-210.914,423.192z"> 
	<title>Huancané</title></path>
	<path id="171" data-ng-click="$ctrl.openMap(2, '171', true, $event)" fill="none" stroke="#020202" stroke-width="0.3" stroke-miterlimit="10" d="M-236.476,434.743l0.468-0.04l0.282-0.046   l0.67,0.145c0,0,0.69,0.023,0.718,0s0.47-0.213,0.501-0.236s0.442-0.168,0.442-0.168l0.457,0.046l0.587,0.259l0.229,0.053   l-0.038-0.038c0,0,0.294-0.146,0.432-0.275s0.379-0.384,0.421-0.425s0.2-0.197,0.244-0.244c0.043-0.047,0.131-0.146,0.141-0.2   c0.011-0.054-0.019-0.135-0.019-0.135l0.335-0.366l0.457-0.731v-0.427c0,0,0.062-0.276,0.085-0.356   c0.024-0.079,0.139-0.411,0.17-0.48s0.202-0.383,0.202-0.383s0.443-0.056,0.508-0.064c0.064-0.007,0.175,0.006,0.36,0.002   s0.38-0.015,0.468-0.073c0.087-0.058,0.269-0.199,0.269-0.199l0.59-0.459c0,0,0.134-0.207,0.233-0.27s0.312-0.184,0.355-0.216   c0.043-0.031,0.172-0.144,0.216-0.207c0.044-0.064,0.108-0.202,0.108-0.202s0.058,0.042,0.105,0.089   c0.047,0.048,0.166,0.161,0.166,0.161l0.18,0.124l0.192,0.124l0.335-0.274l0.975-0.274l0.305-0.213l0.152-0.244   c0,0,0.123-0.106,0.161-0.172c0.039-0.066,0.091-0.17,0.091-0.17s0.097-0.072,0.11-0.08s0.163-0.129,0.163-0.129l0.237-0.272   l0.114,0.101l0.039-0.219l-0.023-0.526l-0.078-0.151l-0.07-0.089l-0.229-0.217l-0.24-0.377l0.182-0.64l-0.147-0.309h-0.274   l0.057-0.446l-0.423,0.023l-0.08,0.24l-0.297,0.023l-0.034,0.286l-0.985-0.195c0,0-0.007,0.097-0.014,0.127   c-0.007,0.031-0.013,0.053-0.025,0.082s-0.017,0.04-0.017,0.04s-0.051-0.039-0.074-0.04c-0.023-0.001-0.305-0.061-0.305-0.061   l-0.386-0.314l-0.101-0.082c0,0-0.213-0.059-0.292-0.07s-0.267-0.032-0.267-0.032l-0.01-0.036c0,0-0.038-0.025-0.069-0.048   s-0.074-0.069-0.074-0.069s-0.041-0.07-0.055-0.132c-0.014-0.061-0.071-0.29-0.071-0.29s-0.032-0.047-0.069-0.041   s-0.072,0.005-0.131,0.056s-0.059,0.052-0.059,0.052l0.025,0.102l0.065,0.241l0.086,0.236c0,0,0.048,0.093,0.051,0.099   c0.004,0.006,0.042,0.065,0.047,0.095s0.008,0.139,0.003,0.17c-0.005,0.031-0.034,0.154-0.034,0.154l-0.335-0.122h-0.305   l-0.457,0.305l0.061,0.64c0,0,0.256,0.192,0.276,0.212c0.021,0.019,0.147,0.156,0.179,0.195c0.033,0.04,0.215,0.263,0.215,0.263   l0.03,0.152l0.335,0.305v0.579l-0.82,0.889l-0.978,1.061l-1.364-0.255c0,0-0.034,0.016-0.092,0.033s-0.145,0.036-0.176,0.043   c-0.031,0.007-0.101,0.02-0.136,0.045s-0.053,0.056-0.062,0.072c-0.008,0.016-0.029,0.029-0.06,0.031   c-0.03,0.003-0.051,0.001-0.093,0.021s-0.303,0.192-0.303,0.192s-0.079,0.187-0.105,0.238s-0.044,0.089-0.076,0.139   s-0.082,0.114-0.082,0.114s-0.064,0.065-0.083,0.081s-0.128,0.095-0.147,0.107s-0.087,0.049-0.087,0.049l-0.305,0.035   c0,0-0.135-0.015-0.163-0.018s-0.203-0.035-0.324-0.002s-0.212,0.068-0.259,0.087s-0.108,0.04-0.108,0.04s-0.058,0.017-0.093,0.108   c-0.034,0.09-0.06,0.182-0.06,0.182s-0.131,0.138-0.159,0.171s-0.145,0.195-0.145,0.195s-0.04,0.102-0.163,0.125   s-0.331,0.023-0.344,0.02c-0.014-0.003-0.085-0.03-0.155-0.09c-0.07-0.06-0.374-0.268-0.374-0.268h-0.67   c0,0-0.302,0.161-0.335,0.183s-0.183,0.122-0.183,0.122l-0.366,0.366l-0.07,0.239c0,0-0.051,0.068-0.082,0.062   s-0.143-0.056-0.143-0.056l-0.105-0.034c0,0-0.162,0.021-0.231,0.08s-0.405,0.227-0.405,0.227l0.398,0.449l0.274,0.189l0.211,0.154   l0.057,0.217l0.08,0.731l-0.039,0.103L-236.476,434.743z"> 
	<title>San Román</title></path>
	<path id="165" data-ng-click="$ctrl.openMap(2, '165', true, $event)" fill="none" stroke="#020202" stroke-width="0.3" stroke-miterlimit="10" d="M-224.177,444.256v1.417l-1.76,2.823l0.206,0.514   l0.122,0.975l0.667,0.979l0.167,0.613l0.446,0.267l0.653,0.371l0.688,0.269l0.638,0.305l1.12,0.573l0.71,0.311l0.823,0.274   l1.028,0.229l0.708-0.137l0.165-0.366l0.292-0.653l0.274-0.627l-0.213,0.061v-0.548c0,0,0.039-0.199,0.141-0.287   c0.102-0.088,0.407-0.292,0.407-0.292l0.183-0.457l0.122-0.183l-0.044-0.602c0,0,0.003-0.286,0.01-0.317   c0.007-0.031,0.077-0.199,0.077-0.199l0.075-0.182l-0.036-0.056l-0.166-0.115l-0.127-0.172l-0.155-0.308v-0.518l0.184-0.609v-0.244   l0.082,0.076c0,0,0.054-0.019,0.087-0.157s0.138-0.486,0.175-0.559s0.205-0.387,0.205-0.387v-0.162l-0.286-0.544l-0.08-0.34   c0,0-0.088-0.126,0.03-0.152s0.335,0,0.335,0l0.183-0.548l0.244-0.244v-1.127c0,0,0.1-0.443,0.131-0.526   c0.031-0.083,0.102-0.297,0.102-0.297v-0.186l-0.024-0.172l0.039-0.17l-0.218-0.416l-0.146-0.038l-0.281-0.114h-0.579l-0.213,0.183   l-0.316,0.091l-0.507-0.061l-0.457-0.213h-0.305v-0.427l-0.253-0.386l-0.021-0.163l0.4-0.483l0.118-0.157l0.328-0.222l0.342-0.174   c0,0,0.241-0.244,0.33-0.419c0.089-0.175,0.133-0.357,0.152-0.449s0.097-0.472,0.12-0.552s0.059-0.311,0.199-0.329   s0.418-0.018,0.418-0.018l0.132-0.135l0.169,0.249l0.095,0.19h0.42l0.205-0.183l0.312,0.017l-0.061-0.169l-0.472-0.168   l-0.267-0.213l-0.107-0.183l0.084-0.648c0,0,0.053-0.122,0.091-0.145c0.038-0.023,0.187-0.175,0.242-0.168   c0.055,0.008,0.322-0.206,0.322-0.206l0.038-0.236l-0.118-0.596l-0.24-0.501l-0.373-0.091l-1.021-0.358   c0,0-0.319-0.098-0.365-0.072s-0.153-0.048-0.153-0.048v0.432l-0.274,0.731h-0.244l-0.122,0.305l-0.048,0.154l-0.08,0.128   l-0.11,0.1l-0.082,0.105l-0.396,0.305v0.274l0.137,0.213v0.305c0,0-0.034,0.082-0.097,0.132s-0.238,0.193-0.238,0.193   s-0.07,0.066-0.053,0.11c0.017,0.044,0.09,0.142,0.053,0.235c-0.037,0.092-0.158,0.265-0.158,0.265l-0.147,0.131l-0.072,0.039   c0,0-0.061,0.007-0.136-0.017s-0.149-0.04-0.231,0.026c-0.083,0.066-0.182,0.166-0.201,0.226c-0.019,0.06-0.086,0.275-0.086,0.275   l-0.141,0.362l-0.077,0.089l-0.193,0.31l-0.232,0.319c0,0,0.001,0.103,0.028,0.168s0.073,0.141,0.142,0.2s0.176,0.136,0.176,0.136   s-0.021,0.213-0.023,0.253s0.009,0.173,0.009,0.173v0.366h-0.579c0,0-0.055-0.012-0.106,0.025s-0.229,0.279-0.229,0.279   l-0.062,0.078l-0.029-0.017c0,0-0.18,0.197-0.219,0.25s-0.167,0.22-0.195,0.327s-0.074,0.259-0.074,0.337s0,0.427,0,0.427   l-0.013,0.066c0,0,0.072-0.006-0.16,0.096s-0.352,0.131-0.352,0.131l-0.142,0.043l-0.129,0.08l-0.097,0.08l-0.217,0.232   l-0.171,0.186l-0.158,0.152l-0.118,0.088l-0.15,0.065c0,0-0.08,0.012-0.078,0.055s0.036,0.107,0.036,0.107l-0.028,0.052h-0.173   L-224.177,444.256z"> 
	<title>El Collao</title></path>
	<path id="167" data-ng-click="$ctrl.openMap(2, '167', true, $event)" fill="none" stroke="#020202" stroke-width="0.3" stroke-miterlimit="10" d="M-239.108,421.066l0.411-0.288l0.497-0.355   c0,0,0.022-0.066,0.098-0.11c0.075-0.044,0.335-0.191,0.335-0.191l0.101-0.055c0,0,0.059-0.015,0.095,0s0.134,0.045,0.134,0.045   s0.128,0.033,0.181,0c0.054-0.034,0.194-0.137,0.194-0.137l0.104-0.078l0.129-0.076l0.098-0.064l0.12-0.06   c0,0,0.097-0.021,0.164-0.011s0.497,0.092,0.497,0.092l0.491,0.112l0.138,0.048l0.083,0.069l-0.022,0.108l-0.042,0.068l0.612,0.427   l0.152,0.744h1.676c0,0,0.129,0.182,0.152,0.201s0.183,0.149,0.183,0.149l0.306,0.642h0.047l0.016-0.048l0.042-0.065   c0,0,0.052-0.046,0.061-0.052c0.008-0.006,0.2-0.137,0.2-0.137s0.041-0.042,0.054-0.055s0.112-0.113,0.112-0.113l0.048-0.072   c0,0,0.012-0.032,0.006-0.038c-0.005-0.006-0.056-0.12-0.056-0.12l-0.032-0.076l-0.007-0.169l0.009-0.138l-0.005-0.135   l-0.027-0.108l-0.031-0.062l-0.084-0.061l-0.097-0.074l-0.036-0.099l-0.036-0.304l-0.001-0.115v-0.274l-0.122-0.701l0.435-0.213   l0.373-0.742h0.048l0.086-0.019l0.051,0.022l0.15,0.007l0.449,0.201l0.479,0.202l0.151,0.092l0.077,0.04l0.261,0.076l0.396,0.213   v0.691l0.06,1.086l0.083,0.896c0,0-0.003,0.166,0.121,0.177c0.124,0.011,1.259-0.017,1.259-0.017s0.079,0.133,0.138,0.174   c0.059,0.041,0.258,0.11,0.312,0.154c0.055,0.043,0.14,0.182,0.177,0.319c0.037,0.136,0.164,0.603,0.164,0.603v0.366   c0,0-0.01,0.128,0.227,0.231s0.494,0.2,0.494,0.2l0.186,0.093l0.078,0.039c0,0,0.054,0.051,0.036,0.12   c-0.019,0.068-0.076,0.429-0.076,0.429l0.039,0.417l-0.057,0.25l-0.074-0.04l-0.305-0.061l-0.488-0.396l-0.559-0.102l-0.01-0.036   c0,0-0.113-0.077-0.144-0.117c-0.031-0.04-0.125-0.421-0.125-0.421l-0.069-0.041l-0.103,0.035l-0.087,0.073l0.137,0.486   l0.046,0.131l0.093,0.156l0.005,0.107l-0.037,0.217l-0.335-0.122h-0.305l-0.457,0.305l0.061,0.64c0,0,0.348,0.281,0.423,0.369   c0.075,0.089,0.247,0.301,0.247,0.301l0.03,0.152l0.335,0.305v0.579l-1.798,1.95l-1.364-0.255c0,0-0.163,0.061-0.207,0.067   c-0.044,0.006-0.158,0.017-0.197,0.055s-0.002,0.041-0.062,0.072s-0.456,0.245-0.456,0.245l-0.182,0.377l-0.164,0.195l-0.233,0.155   l-0.305,0.035l-0.345-0.035l-0.142,0.014c0,0-0.216,0.07-0.259,0.087s-0.133,0.026-0.167,0.087   c-0.034,0.061-0.094,0.243-0.094,0.243l-0.159,0.171l-0.145,0.195c0,0-0.087,0.115-0.163,0.125c-0.076,0.01-0.344,0.02-0.344,0.02   l-0.155-0.09l-0.374-0.268h-0.67l-0.493,0.288l-0.391,0.383c0,0-0.052,0.187-0.061,0.213s-0.052,0.117-0.143,0.074   c-0.091-0.042-0.223-0.074-0.223-0.074l-0.143,0.051l-0.438,0.253l-0.063,0.06l-0.215-0.451l-0.236-0.372l-0.19-0.351l-0.24-0.517   l0.153-0.229l0.183-0.091l0.478-0.615l-0.944-1.643l-0.108-1.825c0,0-0.048-0.178-0.176-0.305s-0.186-0.205-0.186-0.205   l-0.606-0.41l-0.019-0.329l0.35-0.427c0,0,0.127-0.367,0.186-0.482s0.294-0.432,0.294-0.432l0.549-0.457l-0.137-0.343l-0.137-0.206   l-0.161-0.64L-239.108,421.066z"> 
	<title>Lampa</title></path>
	<path id="161" data-ng-click="$ctrl.openMap(2, '161', true, $event)" fill="none" stroke="#020202" stroke-width="0.3" stroke-miterlimit="10" d="M-232.057,434.683l1.638,0.541v1.097l0.868,0.769   c0,0,0.251,0.244,0.282,0.282c0.03,0.038,0.221,0.32,0.221,0.32l-0.177,0.384l-0.336,0.622l0.061,0.739l0.041,0.45l-0.137,0.461   l0.213,0.329l0.519,0.399l-0.091,0.731l2.057,0.777l0.137,0.046l0.549,0.549l-0.457,0.48l0.256,0.333l0.994,0.162l1.31,0.03   l0.335-0.213h0.173l0.028-0.052l-0.034-0.094l0.01-0.04l0.066-0.028l0.15-0.065l0.242-0.207l0.334-0.356   c0,0,0.187-0.187,0.268-0.226s0.199-0.083,0.268-0.096s0.335-0.113,0.378-0.146c0.042-0.033,0.066-0.043,0.066-0.169s0-0.38,0-0.38   s0.051-0.296,0.083-0.365s0.12-0.216,0.174-0.284c0.054-0.067,0.23-0.265,0.23-0.265l0.029,0.017c0,0,0.117-0.169,0.156-0.221   c0.04-0.052,0.141-0.165,0.224-0.163c0.083,0.001,0.596,0.001,0.596,0.001l0.012-0.285c0,0-0.037-0.264-0.017-0.327   s0.019-0.18,0.019-0.18s-0.187-0.136-0.222-0.18s-0.1-0.165-0.115-0.224c-0.015-0.058-0.01-0.099-0.01-0.099l0.401-0.59   l0.101-0.128c0,0,0.142-0.365,0.166-0.442s0.058-0.222,0.098-0.264s0.134-0.13,0.178-0.161c0.044-0.03,0.115-0.061,0.184-0.037   c0.069,0.024,0.152,0.049,0.209,0.01c0.056-0.039,0.216-0.181,0.249-0.234c0.033-0.054,0.094-0.203,0.094-0.203   s0.004-0.081-0.028-0.146s-0.069-0.104,0.009-0.166c0.077-0.062,0.316-0.277,0.316-0.277s0.031-0.054,0.031-0.208   c0-0.154-0.137-0.367-0.137-0.367v-0.274l0.383-0.295l0.094-0.115c0,0,0.133-0.101,0.173-0.201c0.04-0.1,0.187-0.486,0.187-0.486   h0.244l0.274-0.731v-0.432l-0.96-0.306l-0.32-0.359H-220l-0.457-1.159l-0.457-0.578l-0.8,0.823l-0.206,0.777l-0.975-0.305   l-0.876-0.587l-0.021-0.815l-0.231-1.539h0.731l0.488-0.427l0.061-0.396l0.069-0.404l0.023-0.145l-0.152-0.274l-0.435-0.386   l-0.114-0.101c0,0-0.245,0.278-0.296,0.318c-0.05,0.04-0.214,0.162-0.214,0.162l-0.091,0.17l-0.161,0.172l-0.152,0.244   l-0.305,0.213l-0.975,0.274l-0.335,0.274c0,0-0.32-0.183-0.404-0.259s-0.236-0.259-0.236-0.259s-0.077,0.204-0.152,0.274   c-0.075,0.07-0.168,0.151-0.202,0.173c-0.034,0.021-0.157,0.095-0.195,0.117c-0.037,0.022-0.156,0.085-0.212,0.151   c-0.057,0.067-0.152,0.199-0.152,0.199l-0.666,0.517c0,0-0.219,0.17-0.317,0.185c-0.098,0.015-0.724,0.03-0.724,0.03l-0.488,0.061   c0,0-0.231,0.444-0.301,0.653c-0.07,0.21-0.156,0.566-0.156,0.566v0.427l-0.457,0.731l-0.335,0.366c0,0,0.069,0.09-0.006,0.19   c-0.075,0.099-0.457,0.49-0.457,0.49l-0.403,0.389l-0.314,0.191v0.055H-232.057z"> 
	<title>Puno</title></path>
	<path id="173" data-ng-click="$ctrl.openMap(2, '173', true, $event)" fill="none" stroke="#020202" stroke-width="0.3" stroke-miterlimit="10" d="M-211.527,439.1l0.135,0.011l0.265,0.003   l0.206,0.183l0.174,0.153l0.126,0.054l0.22,0.026l0.143,0.019l0.126,0.095l0.125,0.043l0.206,0.137l0.27,0.097l0.012,0.08   l0.06,0.034h0.08l0.263,0.131l-0.023,0.297l-0.029,0.137c0,0-0.086,0.015,0.021,0.045c0.107,0.031,0.145,0,0.145,0l0.114-0.114   h0.099l0.138,0.066l0.109,0.188l0.066,0.14l0.025,0.117l0.271,0.274h0.146l0.261-0.269l0.015-0.219v-0.236l-0.026-0.279   l0.035-0.354v-0.106l0.079-0.162l-0.211-0.12l-0.08-0.086l-0.3-0.213l-0.157-0.114l-0.065-0.095c0,0-0.005-0.031,0.039-0.07   c0.043-0.039,0.108-0.103,0.108-0.103l0.05-0.05l0.043-0.059h0.03l0.021,0.052l0.034,0.06l0.092,0.062l0.092-0.058   c0,0-0.062-0.049-0.054-0.088s-0.022-0.011,0.009-0.039c0.05-0.045,0.025-0.094,0.002-0.09c0,0,0.004-0.049,0.026-0.08   c0.021-0.03,0.066-0.076,0.092-0.095c0.028-0.019,0.054-0.06,0.092-0.159c0.037-0.095,0.052-0.065,0.082-0.172   c0.03-0.108,0.054-0.176,0.054-0.176l0.084-0.12l0.052-0.047c0,0-0.05-0.156-0.05-0.179s-0.108-0.135-0.108-0.135l-0.372-0.084   h-0.503c0,0-0.206,0.015-0.282,0.013s-0.419-0.003-0.419-0.003s-0.307-0.034-0.382,0.034s-0.296,0.182-0.296,0.182   s-0.239,0.089-0.271,0.098s-0.245,0.199-0.299,0.226s-0.549,0.507-0.549,0.507l-0.259,0.32L-211.527,439.1z"> 
	<title>Yunguyo</title></path>
	<path id="164" data-ng-click="$ctrl.openMap(2, '164', true, $event)" fill="none" stroke="#020202" stroke-width="0.3" stroke-miterlimit="10" d="M-215.401,437.56l-0.054,0.119l-0.166,0.148   h-0.42l-0.147-0.267l-0.117-0.173l-0.132,0.135l-0.282,0.007c0,0-0.199,0.009-0.237,0.078c-0.039,0.069-0.127,0.387-0.127,0.387   l-0.09,0.427c0,0-0.11,0.377-0.152,0.449c-0.042,0.072-0.33,0.419-0.33,0.419l-0.342,0.174l-0.328,0.222l-0.518,0.64v0.111   l0.274,0.437v0.427h0.305l0.457,0.213l0.507,0.061l0.316-0.091l0.213-0.183h0.579l0.427,0.152c0,0,0.105,0.2,0.131,0.251   c0.027,0.051,0.087,0.165,0.087,0.165l-0.039,0.17l0.024,0.251l-0.039,0.222l-0.139,0.398l-0.056,0.309v1.127l-0.244,0.244   l-0.183,0.548l-0.2-0.027l-0.135,0.027l-0.059,0.051l0.029,0.102l0.08,0.34l0.073,0.178l0.088,0.166l0.083,0.119l0.043,0.081v0.162   c0,0-0.231,0.434-0.285,0.614c-0.054,0.18-0.124,0.459-0.124,0.459l-0.033,0.032l-0.078-0.027l-0.051,0.027l0.023,0.165   l-0.049,0.161l-0.08,0.263l-0.056,0.185v0.518c0,0,0.11,0.218,0.133,0.263s0.15,0.217,0.15,0.217l0.131,0.091   c0,0,0.099,0.011,0.048,0.136c-0.052,0.125-0.129,0.324-0.129,0.324l-0.011,0.191l0.046,0.728l-0.122,0.183l-0.183,0.457   c0,0-0.21,0.141-0.29,0.201c-0.08,0.06-0.175,0.131-0.21,0.228s-0.049,0.149-0.049,0.149v0.548l0.179-0.051l0.195-0.176   c0,0,0.04-0.04,0.086-0.04s0.232,0.008,0.241,0.016s0.097,0.066,0.126,0.061c0.028-0.006,0.432-0.38,0.462-0.408   c0.03-0.028,0.263-0.291,0.263-0.291l0.413-0.358l0.376,0.021c0,0,0.21-0.015,0.24-0.091c0.03-0.077,0.291-0.332,0.352-0.397   s0.542-0.753,0.574-0.814s0.6-1.006,0.6-1.006l0.649-0.564l0.27-0.294c0,0,0.22-0.146,0.262-0.159   c0.042-0.013,0.439-0.521,0.474-0.599s0.343-0.884,0.396-0.998c0.053-0.114,0.224-0.547,0.224-0.547s0.177-0.158,0.198-0.176   s0.214-0.149,0.221-0.164c0.007-0.015,0.362-0.797,0.362-0.797l0.204,0.15l0.573-0.029l0.739-0.046c0,0,0.037-0.129,0.036-0.152   s-0.074-0.29-0.074-0.29s-0.051-0.863-0.057-0.896s-0.029-0.174-0.029-0.174l-0.101-0.473c0,0,0.019-0.21,0.034-0.255   c0.015-0.046,0.135-0.199,0.135-0.199l0.687-0.776l0.206-0.091l-0.252-0.075l-0.271-0.274l-0.018-0.086l-0.038-0.098l-0.034-0.074   l-0.109-0.188l-0.138-0.066h-0.099c0,0-0.088,0.105-0.114,0.114c-0.026,0.01-0.118,0.006-0.118,0.006l-0.08-0.034l0.051-0.104   l0.015-0.115l0.018-0.233l-0.263-0.131h-0.08l-0.06-0.034l-0.012-0.08l-0.227-0.081l-0.043-0.016l-0.131-0.088l-0.074-0.049   l-0.125-0.043l-0.126-0.095l-0.363-0.045l-0.126-0.054l-0.38-0.336l-0.4-0.014l-0.299-0.151l-0.379-0.052l-0.258,0.027l-0.53-0.103   l-0.283-0.11c0,0-0.305-0.485-0.316-0.52c-0.011-0.036-0.092-0.189-0.092-0.189s-0.263-0.388-0.278-0.448   c-0.015-0.061-0.427-0.315-0.427-0.315l-0.26,0.062l-0.063,0.162c0,0-0.057,0.086-0.085,0.129   c-0.028,0.042-0.087,0.145-0.087,0.145L-215.401,437.56z"> 
	<title>Chucuito</title></path>
	<path fill="none" stroke="#020202" stroke-width="0.3" stroke-miterlimit="10" d="M-207.43,437.783l1.171,1.171l0.091,0.548   c0,0,0.337,0.11,0.425,0.174s0.217,0.155,0.192,0.251c-0.025,0.095-0.151,0.241-0.201,0.274s-0.781,0.49-0.781,0.49   s-0.17-0.216-0.252-0.246c-0.081-0.03-0.189-0.082-0.306-0.002s-0.349,0.361-0.349,0.361l-0.258,0.306l-0.061-0.282v-0.177   l-0.016-0.23v-0.136v-0.189l0.025-0.244l0.071-0.146l-0.15-0.106l-0.054-0.03l-0.08-0.086l-0.206-0.147l-0.148-0.106l-0.102-0.074   l-0.065-0.095l0.039-0.07l0.08-0.076l0.077-0.077l0.043-0.059l0.086,0.112l0.092,0.062l0.092-0.058l-0.057-0.116l0.035-0.042   l-0.025-0.055l0.066-0.129l0.086-0.08l0.049-0.094l0.071-0.139l0.078-0.243l0.065-0.093L-207.43,437.783z" style="fill: #3dd3f5;"></path>

	<path id="172" data-ng-click="$ctrl.openMap(2, '172', true, $event)" fill="none" stroke="#020202" stroke-width="0.3" stroke-miterlimit="10" d="M-206.545,388.605l0.229,0.868v0.32   c0,0-0.137,0.8-0.114,0.914s-0.023,0.434,0.046,0.731s0.069,1.257,0.069,1.257l-0.087,1.211l-0.233,0.457l-0.229,0.503l-0.16,0.731   c0,0,0.091,0.229,0.046,0.343c-0.046,0.114-0.183,0.526-0.251,0.64c-0.069,0.114-0.229,0.206-0.297,0.297s-0.183,0.229-0.183,0.229   l-0.229,0.229v0.16l-0.137,0.251c0,0,0.297-0.046,0.046,0.137c-0.251,0.183-0.251,0.251-0.48,0.343s-0.32,0.023-0.434,0.114   s-0.251,0.091-0.251,0.091v0.16c0,0-0.069,0.09,0,0.331s0.069,0.103,0.069,0.241c0,0.137,0.183,0.251,0.229,0.32   s0.137,0.297,0.137,0.297s-0.023,0.137,0.091,0.206s0.229,0.137,0.229,0.137l0.114,0.183l0.48,0.32c0,0,0.114,0.069,0.229,0.069   s0.221,0.061,0.221,0.061s0.099-0.038,0.03,0.19s-0.04,0.126-0.112,0.28c-0.071,0.154-0.026,0.085-0.094,0.314   c-0.069,0.229-0.198,0.32-0.198,0.32h-0.316c0,0,0.057,0.389,0.103,0.548c0.046,0.16,0.091,0.846,0.091,0.846s0,0.297,0,0.411   s0.137,0.343,0.137,0.343s0.206,0.091,0.297,0.183c0.091,0.091,0.297,0.32,0.411,0.343s0.297,0.069,0.389,0.16   c0.091,0.091,0.229,0.297,0.229,0.297s0.052,0.434,0.095,0.571s0.18,0.366,0.18,0.457s0.16,0.64,0.183,0.754   c0.023,0.114,0.229,0.251,0.229,0.251s-0.549-0.091-0.663,0s-0.48,0.091-0.617,0.091s-0.16-0.023-0.274,0s-0.549,0-0.549,0   l-0.091,0.731l-0.228,0.398c0,0-0.024-0.055-0.047,0.151s-0.091,0.366-0.091,0.366s-0.046,0.229-0.023,0.434   c0.023,0.206,0.183,0,0.023,0.206s-0.091,0.183-0.229,0.366c-0.137,0.183,0,0.046-0.137,0.183c-0.137,0.137-0.32,0.251-0.32,0.251   l-0.236,0.137c0,0,0.19,0.023,0.008,0.16c-0.183,0.137-0.183,0.137-0.183,0.137l-0.251,0.297h-0.124l-0.104,0.16l-0.16,0.046   l-0.358-0.017c0,0-0.121-0.034-0.143-0.041s-0.101-0.035-0.122-0.043c-0.022-0.008-0.199-0.082-0.199-0.082h-0.411v-0.594   l-0.503-0.32v-1.006l-0.369-0.183l-0.269,0.51l-0.093,0.176c0,0-0.203,0.228-0.237,0.272s-0.081,0.1-0.105,0.147   s-0.044,0.251-0.043,0.289s0.02,0.343,0.02,0.343s0.097-0.015,0.126,0c0.028,0.014,0.08,0.052,0.09,0.117s0.011,0.174,0.017,0.21   s0.033,0.105,0.033,0.105s-0.019,0.068-0.037,0.117s-0.087,0.173-0.087,0.173l-0.095,0.102l-0.067,0.136l-0.058,0.126l-0.045,0.068   l-0.032,0.104v0.113l-0.027,0.077l-0.024,0.21l-0.025,0.177l-0.073,0.337l-0.037,0.186l-0.016,0.156l-0.003,0.137   c0,0,0.005,0.112,0.006,0.125c0.001,0.013,0.012,0.116,0.012,0.116l0.022,0.125l-0.146,0.02l-0.151-0.009l-0.137-0.014l-0.1-0.013   l-0.088-0.018l-0.041-0.012l-0.142-0.001l-0.181,0.003l-0.172,0.008c0,0-0.12,0.007-0.133,0.008s-0.039,0.002-0.099,0.008   c-0.06,0.005-0.211,0.02-0.211,0.02s-0.163-0.128-0.173-0.136c-0.011-0.008-0.199-0.157-0.199-0.157l-0.185-0.145l-0.082-0.065   l-0.013-0.07l-0.045-0.065c0,0-0.043-0.02-0.055-0.021s-0.021-0.002-0.033-0.001c-0.012,0.001-0.115,0.034-0.115,0.034   l-0.208,0.088l-0.224,0.099l-0.266,0.119l-0.184,0.148l-0.134,0.089l-0.14,0.077l-0.201,0.088l-0.315,0.089l-0.078,0.012   l-0.308,0.503c0,0-0.04-0.118-0.047-0.155c-0.007-0.036-0.019-0.188-0.019-0.188v-0.16l0.066-0.183l-0.158-0.166l-0.494-0.52   l0.013-0.395c0,0-0.104-0.22-0.143-0.27c-0.039-0.049-0.225-0.269-0.225-0.269v-0.148v-0.332l0.251-0.16v-0.48l-0.891-0.503v-0.914   c0,0-0.301-0.217-0.323-0.226s-0.215-0.052-0.275-0.053c-0.061-0.001-0.179,0.005-0.179,0.005s0.08-0.222,0.087-0.259   c0.007-0.037,0.004-0.175,0.004-0.175s-0.086-0.184-0.109-0.225c-0.024-0.041-0.098-0.163-0.098-0.163l-0.057-0.109   c0,0,0.061-0.115-0.009-0.152c-0.07-0.037-0.096-0.037-0.127-0.035c-0.03,0.001-0.252,0.013-0.282,0.015s-0.438,0.029-0.438,0.029   l-0.046-1.006c0,0,0.098-0.104,0.143-0.12c0.045-0.015,0.079-0.028,0.079-0.028s0.058-0.245,0.068-0.38s0.031-0.592,0.031-0.592   l0.32-0.16l-0.069-0.389l0.389-0.183l-0.023-0.343h0.297l-0.176-0.362c0,0-0.045-0.073,0.047-0.065   c0.093,0.008,0.997-0.011,0.997-0.011l-0.16-1.071l0.147-0.147l0.402-0.196l0.114-0.137l0.32-0.137l-0.137-0.823h-0.389   c0,0-0.016-0.199-0.021-0.222s-0.024-0.075-0.047-0.075s-0.103,0-0.103,0h-0.491l-0.046-0.48h-0.251l-0.114-0.548   c0,0-0.249-0.09-0.282-0.143s-0.05-0.099-0.052-0.105c-0.002-0.007-0.055-0.232-0.055-0.232l0.411-0.183   c0,0,0.037-0.19,0.041-0.231c0.003-0.041,0.005-0.107,0.005-0.107l0.02-0.262l0.025-0.634c0,0,0.105-0.017,0.155-0.077   s0.15-0.26,0.158-0.275c0.008-0.015,0.054-0.107,0.085-0.12s0.063-0.023,0.111-0.017s0.062,0.009,0.062,0.009l0.04-0.279   l0.095-0.779l0.015-0.215l-0.001-0.08c0,0-0.003-0.029-0.008-0.035c-0.005-0.006-0.019-0.018-0.019-0.018l-0.008-0.012   c0,0-0.025-0.082-0.03-0.118c-0.004-0.036-0.017-0.27-0.017-0.27h0.229l0.366-0.777h0.389l0.183-0.708v-0.571l0.251-0.343   l-0.012-0.141l9.599-4.788l1.326-0.491L-206.545,388.605z"> 
	<title>Sandia</title></path>
</g>
</svg>
