<?xml version="1.0" encoding="utf-8"?>
<svg xmlns="http://www.w3.org/2000/svg" xmlns:xlink="http://www.w3.org/1999/xlink" version="1.1" id="22" x="0px" y="0px" viewBox="0 0 74 71" enable-background="new 0 0 74 71" xml:space="preserve">
	<title>San Martín</title>
<g>
	<path id="178" data-ng-click="$ctrl.openMap(2, '178', true, $event)" fill="none" stroke="#020202" stroke-width="0.3" stroke-miterlimit="10" d="M34.808,13.14l-0.256,0.429l-0.239,0.237   l-0.299,0.449l-0.598,0.239h-0.778c0,0-0.269,0.389-0.239,0.568s-0.002,0.449-0.002,0.449H32.07c0,0,0.09,0.419,0,0.508   c-0.09,0.09-0.508,0.239-0.568,0.419s-0.239,0.807-0.299,0.987c-0.06,0.179-0.179,0.299-0.359,0.419s-0.389,0.329-0.449,0.449   s0,0.359,0,0.359l0.15,0.957c0,0-0.179-0.03,0.269,0c0.449,0.03,0.867-0.06,0.957,0c0.09,0.06,0.15-0.197,0.359,0.006   c0.209,0.203,0.319,0.323,0.459,0.472c0.139,0.15,0.349,0.329,0.409,0.538c0.06,0.209,0.06,0.179,0.06,0.389   c0,0.209,0,0.449,0,0.449l0.209,0.179c0,0,0,0.209,0.239,0.299c0.239,0.09,0.299,0.06,0.688,0.06c0.389,0,0.748-0.06,0.748-0.06   l0.179-0.538l0.299-0.209l0.389,0.479c0,0,0.359,0.808,0.389,0.897c0.03,0.09-0.269-0.269,0.179,0.479   c0.449,0.748,0.724,1.436,0.724,1.436l0.323,0.449l0.239,0.359c0,0,0.12,0.03,0.179,0.15s-0.12,0.179,0,0.269   c0.12,0.09,1.286,0.239,1.286,0.239v1.017h-0.449l0.179,0.748h2.183c0,0,0.09-0.568,0.179-0.598c0.09-0.03,1.166-0.09,1.166-0.09   v-0.897c0,0-0.987-0.718-1.107-0.897c-0.12-0.179-0.389-0.598-0.389-0.598s-0.479-0.688-0.479-0.778c0-0.09-0.09-0.538-0.09-0.658   s0.239-0.897,0.419-1.107c0.179-0.209-0.09-0.568,0.329-0.658c0.419-0.09,0.419-0.09,0.419-0.09l0.897-0.12l0.209-0.329v-0.468   c0,0,0.329-0.22,0.449-0.13c0.12,0.09,0.658,0.598,0.658,0.598v0.808l0.957,0.897l0.628-0.299c0,0,0.419,0.269,0.419,0.389   s0.299,0.508,0.329,0.748s0,0.508,0,0.508h0.897l0.179-0.329l0.688-0.06c0,0,0.538,0,0.658,0.03c0.12,0.03,1.465,0.269,1.465,0.269   s-0.179,0.209,0,0.239c0.179,0.03,0.538-0.179,0.538-0.179s0.179-0.239,0.299-0.239s0.329-0.15,0.508-0.299   c0.179-0.15,0.359-0.568,0.359-0.568S51.36,22.33,51.27,22.27c-0.09-0.06-0.15-0.538-0.15-0.778s0.12-0.449,0-0.538   c-0.12-0.09-0.209-0.209-0.239-0.389c-0.03-0.179,0.03-0.389-0.12-0.449s-0.329-0.179-0.329-0.179s-0.09-0.329-0.03-0.419   c0.06-0.09,0.06-0.12,0.09-0.239s0.03-0.209,0.15-0.389s0.419-0.419,0.479-0.508c0.06-0.09,0.239-0.299,0.239-0.299l-0.024-1.344   l-0.398-0.449l-0.359-0.389l-0.985-0.138l-1.019-0.071l-0.419,0.299c0,0-0.279,0.23-0.394,0.324s-0.441,0.332-0.441,0.332   s-1.376-0.03-1.615,0c-0.239,0.03-0.215,0.122-0.362-0.029s-0.508-0.269-0.508-0.269l-0.685-0.091l-0.359-0.239l-0.352-0.344   l-0.488-0.084l-0.087-1.515v-0.389l-0.09-0.449l-0.269-1.047l-0.322,0.191l-0.794,0.508l-1.097,0.378l-0.222,0.35l-0.598,0.199   c0,0-0.2,0.188-0.379,0.313c-0.179,0.125-0.357,0.132-0.357,0.132l-1.058-0.286l-0.167,0.068l-0.791,0.091l-0.196,0.029   l-0.561,0.091l-0.522-0.207L34.808,13.14z"> 
	<title>Lamas</title></path>
	<path id="176" data-ng-click="$ctrl.openMap(2, '176', true, $event)" fill="none" stroke="#020202" stroke-width="0.3" stroke-miterlimit="10" d="M30.544,19.609c0,0-0.113,0.528-0.176,0.608   c-0.063,0.08-0.076,0.439,0,0.558s0.336,0.399,0.356,0.459c0.02,0.06,0.319,0.498,0.319,0.498s-0.328,0.199-0.364,0.259   s0,0.538,0,0.538l0.364,0.239c0,0-0.02,0.219,0,0.319c0.02,0.1,0.359,0.299,0.419,0.299s0.817,0.618,0.817,0.618   s0.16,0.08,0.199,0.179c0.04,0.1,0.399,0.817,0.399,0.817l0.439,0.678v0.279c0,0,0.219-0.12,0.239,0   c0.02,0.12,0.02,1.037,0.02,1.037h0.299v1.735l0.518,0.319c0,0,0.219,0.02,0.199,0.239c-0.02,0.219,0.399,0.459,0.399,0.459   l0.339,0.558c0,0,0.718-0.219,0.758-0.299c0.04-0.08,0.498-0.179,0.558-0.179s0.618-0.12,0.698-0.12c0.08,0,0.957-0.06,0.957-0.06   l0.439-0.319c0,0,0.179-0.379,0.239-0.379s0.379-0.339,0.379-0.339v-0.897l-0.521-0.094l-0.157-0.653h0.359l0.09-1.017   l-1.286-0.239v-0.269l-0.179-0.15l-0.454-0.657l-0.265-0.509l-0.746-1.556l-0.102-0.245l-0.287-0.652l-0.389-0.479l-0.299,0.209   l-0.152,0.455L33.7,21.996l-0.341-0.147l-0.094-0.206l-0.209-0.179v-0.449l-0.06-0.389l-0.176-0.294l-0.232-0.245l-0.272-0.286   l-0.319-0.264l-0.227,0.072H30.544z"> 
	<title>El Dorado</title></path>
	<path id="180" data-ng-click="$ctrl.openMap(2, '180', true, $event)" fill="none" stroke="#020202" stroke-width="0.3" stroke-miterlimit="10" d="M41.073,27.541l0.447,0.173l0.493,0.329   l0.254,0.194l0.359-0.105l0.09-0.344l1.75-0.075l0.179,1.854h0.882l-0.15-0.419l0.538-0.045v-0.55l0.449-0.063v-0.299l0.807-0.105   l0.269-0.06c0,0,0.314,0.38,0.314,0.527c0,0.146,0.299,0.251,0.299,0.251l0.09,0.763l0.359,0.314l0.181,0.405l0.372,0.328h0.254   c0,0,0.015,0.733,0,0.882c-0.015,0.15,0.007,0.568,0.007,0.568s-0.081,0.598-0.081,0.643c0,0.045,0.239,0.508,0.239,0.508   l0.284,0.15l0.09,0.135c0,0,0.105,0.194,0.075,0.314c-0.03,0.12-0.157,0.228-0.179,0.464c-0.023,0.236-0.254,0.643-0.254,0.643   l0.064,0.599l0.127,0.549L49.55,37c0,0-0.224,0.105-0.299,0.135c-0.075,0.03-0.434,0.209-0.538,0.224   c-0.105,0.015-0.34,0.127-0.506,0.146c-0.167,0.019-0.361,0.063-0.361,0.063v-0.299l-0.164-0.673l-0.957,0.239l-0.045-0.329   c0,0-0.852,0.03-0.912,0.03s-0.266-0.374-0.266-0.374l-0.572-0.045l-0.03-0.479h-0.583l0.015-0.449l-1.047-0.075l-0.269-0.374   l-0.359-0.045l-0.105-0.389h-2.019v-0.344H39.83V33.62l-0.389-0.06v-0.269l-0.419-0.045v-0.389l-0.194-0.389h0.404l0.125-0.135   l0.115-0.299l0.015-0.284c0,0,0.374-0.12,0.419-0.105c0.045,0.015,0.239,0.015,0.239,0.015l0.015-2.138l-0.12-0.194h-0.314   l-0.03-0.449l-0.55-0.058l0.211-0.212v-0.897h1.685L41.073,27.541z"> 
	<title>Picota</title></path>
	<path id="174" data-ng-click="$ctrl.openMap(2, '174', true, $event)" fill="none" stroke="#020202" stroke-width="0.3" stroke-miterlimit="10" d="M14.903,2.442c0,0,0.987,0.598,0.987,0.688   c0,0.09,0.718,0.778,0.718,0.778s0.299,0.449,0.299,0.538c0,0.09-0.329,0.508-0.359,0.598c-0.03,0.09,0.06,0.748,0.06,0.748   l0.449,0.239v0.748l0.449,0.449h0.239c0,0,0.269,0.269,0.269,0.389s0,0.508,0,0.508l1.017,0.094V7.735l0.389,0.03V7.406l1.824,0.03   v0.538l0.269,0.09l1.136,0.154v0.623h0.837c0,0,0.718,0.389,0.718,0.479c0,0.09,0.329,0.449,0.329,0.449l0.269,0.897v1.047h0.359   l0.269,0.837h0.419l0.269,0.239h0.598v1.406v1.974l0.479,0.15l0.239,1.321l-0.359,0.623h-0.568l-0.179,0.628l0.151,0.646   l0.334,0.416l-0.006,0.822c0,0-0.162,0.309-0.268,0.469c-0.106,0.159-0.24,0.638-0.24,0.638h0.613h0.703l0.179-0.179l1.017,0.179   v0.389h1.107v-0.688l0.919-0.162l-0.467-0.645l-0.052-0.259v-0.179l0.229-0.728l-0.15-0.957c0,0-0.094-0.324,0.128-0.529   c0.221-0.206,0.471-0.371,0.539-0.459c0.067-0.088,0.2-0.438,0.32-0.832c0.12-0.393,0.167-0.5,0.427-0.656   c0.261-0.156,0.33-0.198,0.295-0.431c-0.035-0.234-0.035-0.234-0.035-0.234h0.327l0.014-0.217l-0.013-0.276l0.042-0.165l0.198-0.36   h0.754l0.621-0.239l0.299-0.449l0.239-0.237l0.256-0.429l-0.279-0.359l-0.479-1.156l-0.04-0.558l-0.282-0.473l-0.191-0.431   l-0.142-0.169l-0.03-0.164l-0.631-0.956l-0.239,0.279l-0.359,0.12l-0.319-0.199l0.043-0.231l-3.734-2.255L27.165,6.42l-0.469-0.459   l-1.39-0.031l-0.547-0.287l-0.236-0.48l-1.156,0.299l-0.807,0.12l-2.824-0.896l-0.077-1.317l-0.96-0.876l-0.377-0.434L18.02,1.735   l-0.558-0.439l-1.236,0.279l-0.598-0.319l-0.196,0.537L14.903,2.442z"> 
	<title>Moyobamba</title></path>
	<path id="175" data-ng-click="$ctrl.openMap(2, '175', true, $event)" fill="none" stroke="#020202" stroke-width="0.3" stroke-miterlimit="10" d="M36.139,35.984l0.367,0.701l0.359,0.244   l0.235,0.474l0.203,0.877v0.678h0.399l0.479,0.399v0.42h0.239l0.409,0.696h0.349l0.399,1.117v0.558v1.914h0.479v1.874l-0.359,0.279   l0.04,0.359h-0.379h-0.319l-0.209,0.518h-0.189l-0.06,0.598l-0.917,0.399l-0.359,0.239L37.1,50.383l0.403,0.199l0.1,0.738h0.359   l0.04,0.618l-0.379,0.16l-0.08,0.399L37.1,52.716l0.104,0.459h0.339l0.1,0.658h0.239l0.06,0.459h0.698l0.08,0.459l0.738-0.1v0.638   l0.259-0.08l0.1-0.172h0.598l0.12,0.411l0.199-0.08l0.239,0.399h0.14l0.239,0.359h0.259l0.279,0.339l0.179,0.379h0.419l0.339-0.219   l0.299-0.06l0.179,0.06l0.16,0.319c0,0-0.02,0.16,0,0.259c0.02,0.1-0.259,0.319-0.259,0.319l-0.239,0.16v0.558h0.499l0.398,0.179   c0,0-0.1,0.16,0,0.16s0.279-0.299,0.339-0.319c0.06-0.02,0.598-0.02,0.598-0.02l0.239,0.339c0,0,0.279,0.12,0.339,0.12   s0.12,0.339,0.16,0.419c0.04,0.08,0.259,0.239,0.259,0.239v1.037h0.518h0.199l0.14,1.176h0.718l0.419-0.558l0.239-0.259l0.459-0.06   c0,0,0.219-0.031,0.359-0.08c0.14-0.049,0.219,0,0.479-0.04c0.259-0.04,0.465-0.04,0.465-0.04l0.312-0.219l0.837-0.239l0.323-0.35   l0.212-0.366l0.16-0.718c0,0-0.154-0.521-0.157-0.619c-0.003-0.098,0-0.319-0.08-0.439c-0.08-0.12-0.08-0.199-0.1-0.259   c-0.02-0.06-0.04-0.219-0.02-0.319c0.02-0.1,0.037-0.437,0.037-0.437v-0.38v-0.258l0.442-0.201c0,0,0.282-0.001,0.439-0.06   c0.157-0.058,0.635-0.058,0.635-0.058s0.561-0.261,0.561-0.36c0-0.1-0.08-0.957-0.08-0.957s0-0.239,0-0.618s0.02-0.479,0-0.658   s-0.162-0.517-0.162-0.517l-0.256-0.4c0,0-0.299-0.06-0.419-0.06s-1.06,0.386-1.06,0.386s-0.355,0.053-0.415,0.112   s-0.066,0.16-0.162,0.14c-0.097-0.02-0.436-0.439-0.456-0.518c-0.02-0.08-0.379-0.439-0.379-0.439s-0.279-0.498-0.279-0.598   s-0.202-0.497-0.202-0.497s-0.276-0.261-0.356-0.34c-0.08-0.08-0.299-0.538-0.299-0.538s-0.319-0.219-0.379-0.239   c-0.06-0.02-0.521-0.238-0.521-0.238l-0.137-0.525l-0.262-0.552l-0.077-0.58l0.14-0.219l0.814-0.517l-0.017-0.48l-0.382-1.315   l-0.319-0.12l-0.422-0.479l-0.313-0.679l-0.262-0.078l-0.436-0.241l-0.379-0.977l-0.14-0.299l-0.362-0.358l-0.137-0.34l0.359-0.179   l0.299-0.16l0.219-0.16l-0.023-1.315l0.202-0.3l0.1-0.299c0,0,0.103-0.161,0.219-0.299c0.117-0.138,0.538-0.359,0.538-0.359   l0.176-0.417l-0.316-0.3l0.399-0.02l0.394-0.135v-0.299l-0.164-0.673l-0.957,0.239l-0.045-0.329l-0.912,0.03l-0.266-0.374   l-0.572-0.045l-0.03-0.479h-0.583l0.015-0.449l-1.047-0.075l-0.269-0.374l-0.359-0.045l-0.105-0.389h-2.019v-0.344H39.83V33.62   l-0.389-0.06v-0.269l-0.419-0.045v-0.389l-0.194-0.389h0.404l0.125-0.135l0.115-0.299l0.015-0.284l0.359-0.099l0.299,0.009   l0.015-2.138l-0.12-0.194h-0.314l-0.03-0.449l-0.55-0.058l-0.219,0.173l-0.187,0.333L38.3,29.647l-0.837,0.054l-0.592,0.088   l-0.388,0.067l-0.345,0.11l-0.052,0.04l-0.335,0.158l-0.423,0.141l0.03,0.997l0.449,0.06l-0.09,0.658l0.359,0.269l0.389,0.479   l0.03,0.419h0.239l-0.06,1.465l0.628,0.329L37.1,35.908L36.139,35.984z"> 
	<title>Bellavista</title></path>
	<path id="181" data-ng-click="$ctrl.openMap(2, '181', true, $event)" fill="none" stroke="#020202" stroke-width="0.3" stroke-miterlimit="10" d="M16.707,13.597c0,0,0.12,0.04,0.179,0.12   c0.06,0.08,0.055,0.189,0.055,0.189l0.563,0.05l0.394-0.05c0,0,0.224,0.169,0.304,0.229c0.08,0.06,0.798,0.399,0.798,0.399   l0.254,0.09l0.563-0.289l0.121-0.224h0.297c0,0,0.05-0.135,0.294,0.194c0.244,0.329,0.184,0.269,0.284,0.409   c0.1,0.14,0.219,0.279,0.219,0.279l0.135,0.189l0.324-0.189c0,0,0.02-0.12,0.08-0.14c0.06-0.02,0.085-0.13,0.239,0.06   s0.259,0.319,0.319,0.379c0.06,0.06,0.062-0.023,0.219,0.179s0.12,0.299,0.16,0.399c0.04,0.1,0.219,0.16,0.259,0.299   c0.04,0.14,0.089,0.201,0.202,0.285c0.112,0.084,0.536,0.253,0.536,0.253l0.339,0.105c0,0,0.08,0.094,0.518,0.214   s0.872-0.01,0.872-0.01c0.065,0.169,0.244,0.623,0.244,0.623s0.04,0.025,0.08,0.184c0.04,0.16,0.08,0.598,0.08,0.598   s0.045,0.169,0.06,0.299c0.015,0.13,0.06,0.381,0.06,0.381s0.1,0.078,0.159,0.197s-0.1-0.02,0.06,0.12s0.499,0.117,0.499,0.117   l-0.151-0.646l0.179-0.628h0.568l0.359-0.623l-0.239-1.321l-0.479-0.15v-3.38h-0.598l-0.269-0.239H25.43l-0.269-0.837h-0.359   v-1.047l-0.269-0.897l-0.329-0.449l-0.718-0.479h-0.837V8.219l-1.136-0.154l-0.269-0.09V7.436l-1.824-0.03v0.359l-0.389-0.03v0.483   l-1.017-0.094V7.616l-0.269-0.389h-0.239l-0.449-0.449V6.031l-0.449-0.239l-0.06-0.748l0.359-0.598l-0.299-0.538L16.198,3.5   l-0.256-0.283l-0.086-0.134l-0.047-0.042l-0.085-0.066l-0.821-0.534l-0.354,0.06v0.877l-0.262,0.263l-0.084,0.189l0.138,0.23   l0.143,0.186l0.145,0.409l-0.025,0.269l-0.055,0.449l0.479,0.319l0.35,0.718l-0.829,0.479l-0.204,0.469L14.03,7.765l0.275,0.658   L14.23,9.314l0.164,0.874l0.131,0.173l0.707,0.215l0.356,0.135l0.556-0.235l0.249,1.06l0.131,0.732c0,0-0.037,0.481-0.037,0.511   s0.09,0.662,0.09,0.662L16.707,13.597z"> 
	<title>Rioja</title></path>
	<path id="179" data-ng-click="$ctrl.openMap(2, '179', true, $event)" fill="none" stroke="#020202" stroke-width="0.3" stroke-miterlimit="10" d="M27.454,54.67l-0.02-1.473h-0.523   c0,0,0.344-1.179,0.523-1.169c0.179,0.01,0.498-0.441,0.498-0.441l0.399-0.825l0.558-0.409c0,0,0.239,0.229,0.558,0   c0.319-0.229,0.319-0.229,0.319-0.229s-0.479-0.16,0,0c0.479,0.16,1.742,1.117,1.742,1.117s0.571,0.857,0.89,0.788   c0.319-0.07,0.558-0.01,1.196,0c0.638,0.01,1.213,0,1.213,0l0.028-0.947l-0.028-0.728c0,0-0.256,0.187-0.336-0.3   c-0.08-0.487-0.239-1.125-0.239-1.125h1.097c0,0,0.897,0.16,1.136,0c0.239-0.16,0.837-0.598,0.837-0.598l1.276-0.638l0.052-0.522   l0.197-0.076l0.209-0.518h0.698l-0.04-0.359l0.359-0.279v-1.874h-0.479V41.59l-0.399-1.117h-0.349l-0.409-0.696h-0.239v-0.42   l-0.479-0.399h-0.399v-0.678L37.1,37.403l-0.235-0.474l-0.359-0.244l-0.367-0.701l-1.302,0.103v0.389l-0.374,0.179l-0.183,0.037   l-0.148,0.034l-0.237,0.078l-0.08,0.028l-0.197,0.031l-0.202,0.028l-0.119,0.033l-0.091-0.039l-0.139-0.219l-0.099-0.22V35.4   l-0.299-0.03l-0.449,0.449l-0.389,0.239l-0.508-0.538l0.363-1.287l-0.183-0.389h-1.186l0.052-0.987l-0.392-0.209l-0.12-2.343   c0,0-0.233,0.02-0.299,0c-0.066-0.02-0.176-0.06-0.211-0.087c-0.035-0.027-0.088-0.142-0.088-0.142s0.009-0.06,0.011-0.12   c0.002-0.06-0.011-0.598-0.011-0.598H28.81v-2.064h-0.299l-0.09-0.269h-0.269c0,0,0.014-0.467,0.025-0.548s0.025-0.166,0.03-0.183   c0.005-0.017,0.011-0.035,0.018-0.047c0.007-0.012,0.028-0.043,0.053-0.046c0.024-0.003,0.055,0,0.072,0.007   s0.04,0.019,0.059,0.033c0.018,0.014,0.043,0.036,0.043,0.036l0.359-0.389v-0.568h-0.329l-0.359-0.4h-0.15l-0.209-0.288h-0.239   l-0.15-0.598l-0.688,0.15v-0.479h-0.389v-0.389l-0.583-0.877l-0.454-0.07l-0.479-0.269l-0.299-0.229c0,0-0.229-0.06-0.269,0.02   c-0.04,0.08-0.199,0.279-0.199,0.279l-0.09,0.16l-0.01,0.269l-0.12,0.14l-0.314,0.259l-0.184,0.11c0,0-0.12,0.12-0.179,0.279   c-0.06,0.16-0.15,0.728-0.15,0.728s-0.086,0.175-0.185,0.406c-0.099,0.232-0.204,0.391-0.224,0.541   c-0.02,0.15-0.022,0.27-0.022,0.27l-0.318,0.218c0,0-0.288,0.239-0.457,0.239s-0.389-0.01-0.419-0.01s-0.259,0.309-0.259,0.309   l0.085,0.498l0.294,0.897l0.503,0.259c0,0,0.045,0,0.045,0.07c0,0.07,0,0.548,0,0.548l-0.239,0.15c0,0-0.07,0.14-0.199,0.01   c-0.13-0.13-0.199-0.14-0.359-0.289c-0.16-0.15-0.239-0.269-0.299-0.269c-0.06,0-0.345-0.029-0.528-0.01   c-0.183,0.019-0.289,0.06-0.289,0.06s-0.09-0.02-0.244-0.09s-0.593-0.229-0.663-0.209s-0.239,0.01-0.409-0.11   c-0.169-0.12-0.528-0.349-0.528-0.349s-0.309-0.289-0.429-0.429c-0.12-0.14-0.249-0.279-0.279-0.299   c-0.03-0.02-0.319-0.15-0.359-0.169c-0.04-0.02-0.528-0.06-0.558-0.01c-0.03,0.05-0.1,0.249-0.14,0.279   c-0.04,0.03-0.259,0.031-0.309,0.13c-0.05,0.098-0.169,0.07-0.209,0.1c-0.04,0.03-0.13,0.122-0.13,0.122s-0.04,0.017-0.158,0.067   c-0.118,0.05-0.353,0.218-0.353,0.218s-0.194,0.323-0.235,0.352c-0.041,0.029-0.111,0.19-0.126,0.289s-0.085,0.219-0.135,0.338   c-0.05,0.12-0.05,0.12-0.05,0.12s0.07,0.01,0,0.09c-0.07,0.08,0,0.179,0,0.179s0.04,0.02,0.05,0.05   c0.01,0.03-0.02,0.399-0.02,0.399s0.02,0.249,0.02,0.289s0,0.16-0.02,0.189c-0.02,0.03-0.199,0.369-0.199,0.369   s-0.182,0.087-0.214,0.175c-0.032,0.088-0.112,0.114-0.073,0.199c0.039,0.085,0.287,0.793,0.287,0.793s0.15-0.006,0.179,0.04   s0.107,0.157,0.107,0.157l0.072,0.261l0.169,0.207l0.033,0.064l0.088,0.173l0.114,0.095l0.024,0.07l-0.44,0.458l-0.171,0.217   l-0.079,0.055l-0.108,0.502c0,0,0.045,0.512,0.045,0.557c0,0.045,0.12,0.553,0.135,0.688c0.015,0.135,0.104,0.446,0.104,0.446   l0.151,0.227c0,0,0.149-0.046,0.142,0.082c-0.007,0.128-0.041,0.227,0.038,0.441c0.079,0.215,0.045,0.389,0.105,0.493   s0.179,0.224,0.179,0.224s0.135,0.105,0.164,0.15c0.03,0.045,0.12,0.045,0.194,0.15c0.075,0.105,0.224,0.136,0.284,0.151   c0.06,0.016,0.27,0.073,0.27,0.073s0.138,0.026,0.32,0.164c0.182,0.139,0.263,0.224,0.263,0.224s0.105,0.06,0.209,0.254   c0.105,0.194,0.279,0.404,0.279,0.404l-0.294,0.374c0,0,0.046,0.193-0.06,0.239s-0.12,0.015-0.224,0.075s-0.09,0.135-0.09,0.179   c0,0.045-0.035,0.18-0.015,0.299c0.02,0.119-0.04,0.151,0.025,0.27c0.065,0.119,0.139,0.418,0.095,0.642   c-0.045,0.224-0.06,0.299-0.06,0.434s-0.03,0.434-0.03,0.434l-0.065,0.483c0,0,0.062,0.504,0.065,0.563   c0.002,0.059,0.209,0.239,0.314,0.344c0.105,0.105,0.209,0.15,0.299,0.239c0.09,0.09,0.209,0.329,0.284,0.329   c0.075,0,0.508,0.224,0.508,0.224l0.404,0.553l0.135,0.299l0.283,0.344L19,45.658l-0.045,0.733l0.03,0.09l0.074,1.136l0.285,0.239   c0,0,0.583,0.15,0.673,0.179c0.09,0.03,0.219,0.055,0.219,0.055l0.005,0.439l-0.03,0.329c0,0-0.164,0.269-0.224,0.314   c-0.06,0.045-0.374,0.15-0.449,0.194s-0.209,0.224-0.209,0.224s0.359,0.209,0.434,0.269c0.075,0.06,0.269,0.179,0.389,0.269   s0.449,0.269,0.523,0.314s0.125-0.004,0.194,0.15c0.069,0.153,0.09,0.179,0.105,0.404s0.198,0.445,0.181,0.559   c-0.017,0.114,0.028,0.174,0.103,0.278c0.075,0.105,0.224,0.194,0.224,0.194s0.12,0.075,0.224,0.105   c0.105,0.03,0.239,0.06,0.239,0.06l0.329,0.15c0,0-0.12,0.314-0.164,0.359c-0.045,0.045-0.209,0.179-0.314,0.359   c-0.105,0.179-0.105,0.179-0.105,0.179l-0.09,0.209l-0.105,0.359c0,0-0.164,0.15-0.15,0.224c0.015,0.075,0.135,0.314,0.224,0.434   c0.09,0.12,0.213,0.174,0.271,0.304c0.058,0.13,0.113,0.224,0.228,0.259c0.115,0.035,0.414,0.199,0.414,0.199l0.254,0.075   c0,0,0.339,0.125,0.434,0.105c0.095-0.02,0.389-0.164,0.449-0.164s0.202-0.035,0.273-0.115c0.071-0.08,0.146-0.214,0.191-0.214   s0.284-0.14,0.314-0.145c0.03-0.005,0.015-0.065,0.12-0.125c0.105-0.06,0.329-0.135,0.374-0.15c0.045-0.015,0.045-0.03,0.12-0.045   c0.075-0.015,0.224-0.015,0.284-0.015s0.374,0.075,0.419,0.075c0.045,0,0.329,0.075,0.329,0.075s0.253,0.219,0.336,0.184   c0.083-0.035,0.263,0.13,0.263,0.13s0.254,0.06,0.314,0.045C27.015,54.929,27.454,54.67,27.454,54.67z"> 
	<title>Mariscal Cáceres</title></path>
	<path id="183" data-ng-click="$ctrl.openMap(2, '183', true, $event)" fill="none" stroke="#020202" stroke-width="0.3" stroke-miterlimit="10" d="M28.212,54.989l0.459,0.14c0,0,0.38-0.02,0.37,0   c-0.011,0.02,0.069,0.04,0.109,0.1c0.04,0.06,0.08,0.14,0.199,0.339s0.339,0.379,0.339,0.379s0.359,0.399,0.399,0.498   s0.08,0.199,0.239,0.319c0.16,0.12,0.379,0.239,0.379,0.239l0.459,0.319c0,0,0.12,0.06,0.14,0.12c0.02,0.06,0.1,0.12,0.1,0.199   c0,0.08-0.1,0.399-0.12,0.479c-0.02,0.08-0.06,0.04-0.06,0.219s0.179,0.437,0.179,0.437s0.12-0.038,0.14,0.101   c0.02,0.14,0.1,0.538,0.1,0.698s-0.04,0.457,0,0.637c0.04,0.18-0.08,0.519-0.199,0.599s-0.339,0.239-0.459,0.319   c-0.12,0.08-0.461,0.299-0.599,0.439c-0.138,0.14-0.298,0.419-0.457,0.498c-0.16,0.08-0.877,0.239-1.097,0.279   c-0.219,0.04-0.698,0.179-0.698,0.179l-0.379,0.359c-0.12,0.12-0.459,0.658-0.459,0.658l1.356,1.336l0.477,0.298l0.64,0.101   c0,0,0.319,0.16,0.598,0.199c0.279,0.04,1.171,0.027,1.144,0.153c-0.027,0.126,0.81,0.007,0.81,0.007l0.758-0.46l0.359-0.377h0.558   l1.755-0.12l1.475-0.08c0,0-0.199,0.008,0.12,0.004c0.319-0.004,0.439-0.323,0.718-0.203c0.279,0.12,0.917,0.203,0.917,0.203   l0.798,0.315c0,0,0.04,0.135,0,0.526c-0.04,0.391-0.16,0.75-0.16,0.75s-0.439,0.319,0.04,0.359s0.12,0.399,0.479,0.04   s0.399-0.558,0.399-0.678s-0.04-0.518-0.04-0.518s0.239-0.12,0.279-0.399c0.04-0.279,0.16-1.276,0.16-1.276v-0.199   c0,0,0.12-0.239,0.239-0.279s0.279-0.319,0.279-0.319l0.558-0.239c0,0,0.142,0.178,0.47,0.129c0.328-0.049,0.647,0.07,0.687,0.429   s0.16,0.965,0.239,1.36s0.239,0.833,0.239,0.833s0.08,0.518,0.359,0.798c0.279,0.279,0.585,0.868,0.585,0.868l0.317,0.92   l-0.024,1.043l0.199,0.439c0,0,0.279,0.16,0.638,0.04s0.558-0.279,0.758-0.399s0.359-0.917,0.359-0.917l0.319-0.736l0.16-0.58   l0.08-0.319l-0.239-0.917l0.114-1.595l-0.034-1.196l0.16-1.211l-0.02-0.105h-0.718l-0.14-1.176l-0.718-0.035v-1.002l-0.259-0.239   l-0.16-0.419l-0.339-0.12L44.8,58.239l-0.598,0.02c0,0-0.155,0.171-0.194,0.213s-0.105,0.127-0.144,0.106s0-0.16,0-0.16   l-0.398-0.179h-0.499V57.68c0,0,0.289-0.199,0.324-0.232s0.174-0.246,0.174-0.246v-0.259l-0.16-0.319l-0.179-0.06l-0.299,0.06   l-0.339,0.219h-0.419l-0.179-0.379l-0.279-0.339h-0.259l-0.239-0.359h-0.14l-0.239-0.399l-0.199,0.08l-0.12-0.411h-0.598   l-0.1,0.172l-0.259,0.08l-0.028-0.634l-0.709,0.096l-0.08-0.459h-0.698l-0.06-0.459h-0.239l-0.1-0.658h-0.339L37.1,52.716   l0.443-0.219l0.08-0.399l0.379-0.16l-0.04-0.618h-0.359l-0.1-0.738L37.1,50.383l0.203-2.054l-0.424,0.307l-0.245,0.174   l-0.169,0.116c0,0-0.151,0.082-0.404,0.071c-0.253-0.011-0.612-0.051-0.673-0.061c-0.06-0.01-0.337-0.01-0.337-0.01h-0.82   l0.154,0.676l0.064,0.328c0,0,0.053,0.26,0.062,0.282s0.072,0.14,0.115,0.156s0.061,0.025,0.098,0.016   c0.036-0.009,0.083-0.033,0.083-0.033s0.014,0.801,0.025,0.824c0.011,0.023-0.009,0.299-0.009,0.313s-0.016,0.538-0.016,0.538   l-0.78,0.004l-0.377-0.003l-0.22-0.005l-0.214-0.009l-0.209-0.011l-0.208-0.009l-0.124,0l-0.101,0.006c0,0-0.088,0.01-0.106,0.013   c-0.018,0.003-0.064,0.017-0.102,0.016s-0.099-0.016-0.099-0.016l-0.104-0.054l-0.083-0.059c0,0-0.221-0.211-0.234-0.226   c-0.013-0.015-0.339-0.435-0.339-0.435l-0.262-0.194l-0.272-0.195l-0.266-0.184l-0.319-0.21l-0.295-0.178l-0.241-0.123   l-0.087-0.034c0,0-0.173,0.124-0.203,0.146c-0.03,0.022-0.122,0.089-0.148,0.104c-0.026,0.015-0.12,0.065-0.174,0.072   c-0.054,0.007-0.123,0.018-0.189-0.007s-0.162-0.087-0.162-0.087l-0.558,0.409l-0.399,0.825c0,0-0.254,0.328-0.35,0.38   s-0.141,0.045-0.172,0.068c-0.031,0.022-0.119,0.137-0.224,0.389c-0.105,0.252-0.275,0.774-0.275,0.774h0.523l0.02,1.473   L28.212,54.989z"> 
	<title>Tocache</title></path>
	<path id="182" data-ng-click="$ctrl.openMap(2, '182', true, $event)" fill="none" stroke="#020202" stroke-width="0.3" stroke-miterlimit="10" d="M51.336,16.739l0.111-0.179l0.159-0.074   l0.439,0.014l0.212,0.178l0.296,0.121h0.332c0,0,0.259-0.133,0.369-0.157c0.11-0.024,0.137-0.202,0.137-0.202l0.123-0.121   l0.413,0.045l0.225,0.323l0.459,0.111l0.344,0.014h0.173c0,0-0.025-0.145,0.112-0.205c0.137-0.06,0.328-0.239,0.328-0.239   l0.279-0.08l0.117-0.058c0,0,0.488,0.104,0.599,0.291c0.111,0.187,0.08,0.247,0.321,0.291c0.241,0.044,0.755,0.106,0.755,0.106   s-0.105-0.022,0.097,0.154c0.202,0.175,0.624,0.513,0.624,0.513v0.101l0.676,0.349c0,0,0.387,0.33,0.437,0.43   c0.05,0.099,0.289,0.398,0.289,0.398l0.047,0.674c0,0,0.186,0.067-0.094,0.241c-0.279,0.174-0.365,0.302-0.462,0.28   c-0.097-0.021-0.389-0.15-0.389-0.15l-0.101,0.582l-0.066,0.324c0,0,0.034,1.02,0.107,1.158s0.133,0.417,0.133,0.417   s0.037,0.236,0.028,0.377c-0.008,0.141,0.084,0.25,0.111,0.341c0.027,0.091,0.06,0,0.179,0.199c0.12,0.199,0.12,0.199,0.12,0.199   s0.12,0.04,0.14,0.219s0.173,0.222,0.097,0.34s-0.196,0.258-0.196,0.258s0.073,0.188-0.06,0.219   c-0.133,0.031-0.199,0.14-0.279,0.239c-0.08,0.1-0.16,0.479-0.16,0.479s-0.095,0.44-0.098,0.454   c-0.003,0.015,0.072-0.013,0.015,0.145c-0.057,0.158,0.043,0.338,0.043,0.338l0.239,0.459l0.196,0.041l-0.077,2.152   c0,0,0.109,0.337,0.14,0.459c0.03,0.122-0.093,0.38-0.093,0.38l-0.508,0.299l-0.239,0.09c0,0-0.219,0.097-0.394,0.228   c-0.175,0.131-0.12,0.104-0.401,0.239c-0.281,0.135-0.142,0.131-0.281,0.135c-0.138,0.004-0.299,0.048-0.306,0   c-0.008-0.048-0.248-0.196-0.33-0.235c-0.083-0.039-0.026-0.064-0.06-0.179c-0.034-0.116-0.126-0.212-0.12-0.419   c0.006-0.206-0.222-0.517-0.222-0.517l-0.37-0.155l-0.205-0.01l-0.06,0.104l-0.259,0.141c0,0-0.146-0.058-0.183-0.159   c-0.037-0.101-0.35-0.253-0.376-0.341c-0.025-0.087-0.108-0.408-0.148-0.51s-0.21-0.422-0.242-0.51   c-0.032-0.088-0.064-0.238-0.13-0.349c-0.066-0.11-0.218-0.326-0.218-0.326s-0.302-0.206-0.36-0.233   c-0.059-0.026-0.378,0.013-0.378,0.013s0.007,0.079,0.008,0.179c0.001,0.1-0.033,0.366-0.033,0.366s-0.084,0.076-0.074,0.173   c0.009,0.097-0.2,0.287-0.381,0.354c-0.18,0.066-0.454,0.144-0.576,0.165c-0.123,0.021-0.953,0.222-0.953,0.222   s-0.478-0.004-0.649-0.063s-0.71-0.1-0.71-0.1l-0.194,0.041c0,0,0.121-0.002,0,0.138c-0.121,0.14-0.424,0.351-0.424,0.351   s0.04,0.339,0,0.353c-0.04,0.014-0.179,0.313-0.179,0.313s0.173-0.197-0.003,0.081c-0.176,0.278-0.176,0.278-0.176,0.278   s-0.1,0.199-0.1,0.339c0,0.14,0.01,0.429,0.01,0.429l-0.433-0.464l-0.084-0.188l-0.395-0.394l-0.09-0.763l-0.299-0.251   l-0.314-0.527l-1.077,0.164v0.299l-0.449,0.063v0.55l-0.538,0.045l0.15,0.419h-0.882l-0.179-1.854l-1.75,0.075l-0.09,0.344   l-0.359,0.105l-1.195-0.696l0.148-0.425l1.166-0.09v-0.897l-1.107-0.897l-0.867-1.376l-0.076-0.517c0,0-0.021-0.299,0.136-0.682   c0.157-0.382,0.198-0.468,0.234-0.517c0.035-0.049,0.091-0.162,0.091-0.162s-0.025-0.354,0.069-0.431   c0.094-0.077,0.376-0.151,0.376-0.151l1.144-0.172l0.209-0.329v-0.468l0.259-0.13c0,0,0.112-0.064,0.189,0   c0.077,0.064,0.658,0.598,0.658,0.598v0.808l0.957,0.897l0.628-0.299l0.385,0.317l0.085,0.214l0.277,0.605v0.508h0.897l0.179-0.329   l0.612-0.053c0,0,0.536,0.003,0.558,0.005c0.022,0.001,1.641,0.288,1.641,0.288l-0.065,0.104c0,0-0.037,0.115,0.038,0.126   c0.075,0.011,0.213-0.009,0.281-0.036c0.069-0.027,0.284-0.134,0.284-0.134l0.195-0.197l0.056-0.031l0.12-0.025   c0,0,0.247-0.134,0.325-0.196c0.078-0.062,0.173-0.151,0.173-0.151s0.136-0.191,0.157-0.228c0.021-0.037,0.14-0.278,0.14-0.278   l-0.298-0.473l-0.08-0.086c0,0-0.062-0.152-0.075-0.224c-0.013-0.072-0.048-0.363-0.048-0.363l-0.007-0.169l0.015-0.161   l0.018-0.097l0.02-0.129c0,0-0.029-0.132-0.052-0.151s-0.068-0.059-0.068-0.059l-0.082-0.097l-0.055-0.107l-0.018-0.056   l-0.027-0.268l-0.01-0.116l-0.032-0.079c0,0-0.032-0.039-0.066-0.054c-0.034-0.015-0.306-0.164-0.306-0.164l-0.061-0.194   l-0.012-0.151l0.02-0.089l0.047-0.087l0.043-0.153l0.04-0.169l0.08-0.174l0.105-0.143l0.163-0.169l0.115-0.11l0.206-0.241   l0.158-0.191L51.336,16.739z"> 
	<title>San Martín</title></path>
	<path id="177" data-ng-click="$ctrl.openMap(2, '177', true, $event)" fill="none" stroke="#020202" stroke-width="0.3" stroke-miterlimit="10" d="M26.597,21.85l1.017,0.032l0.179-0.179   l1.017,0.179v0.389h1.107v-0.688l0.756-0.133l0.371,0.283l-0.364,0.259v0.538l0.364,0.239v0.319l0.642,0.448l0.594,0.469   c0,0,0.374,0.545,0.451,0.701c0.077,0.156,0.586,0.973,0.586,0.973v0.279h0.239l0.02,1.037h0.299v1.735l0.518,0.319l0.166,0.095   v0.364l0.278,0.134l0.493,0.664l0.03,0.997l0.449,0.06l-0.09,0.658l0.748,0.748l0.03,0.419h0.239l-0.06,1.465l0.628,0.329   L37.1,35.908l-0.933,0.13l-1.33,0.05v0.389l-0.374,0.179l-0.649,0.177l-0.518,0.092l-0.091-0.039l-0.238-0.439V35.4l-0.299-0.03   l-0.449,0.449l-0.389,0.239l-0.508-0.538l0.363-1.287l-0.183-0.389h-1.186l0.05-0.938l-0.389-0.259l-0.12-2.343h-0.299   l-0.211-0.087l-0.088-0.142v-0.718H28.81v-2.014v-0.05H28.56h-0.05l-0.09-0.269h-0.269l0.043-0.669l0.083-0.155l0.174,0.076   l0.359-0.389v-0.568h-0.329l-0.359-0.4h-0.15l-0.209-0.288h-0.239l-0.15-0.598l-0.688,0.15v-0.479h-0.389v-0.389l-0.583-0.877   L26.597,21.85z"> 
	<title>Huallaga</title></path>
</g>
</svg>
