<?xml version="1.0" encoding="utf-8"?>
<svg xmlns="http://www.w3.org/2000/svg" xmlns:xlink="http://www.w3.org/1999/xlink" version="1.1" id="23" x="0px" y="0px" viewBox="0 0 74 71" enable-background="new 0 0 74 71" xml:space="preserve">
	<title>Tacna</title>
<g>
	<path id="184" data-ng-click="$ctrl.openMap(2, '184', true, $event)" fill="none" stroke="#020202" stroke-width="0.3" stroke-miterlimit="10" d="M13.935,51.89l1.102-1.338l1.73-2.124v-1.102   l0.63-0.55l1.409-1.18c0,0,0.715-0.314,0.872-0.55s0.786-1.18,0.786-1.18l0.708-0.786l0.472-0.944l0.866-0.866l0.866-0.786   c0,0,0.158-0.314,0.708-0.63c0.55-0.315,2.674-2.596,2.674-2.596s0.394-0.55,0.786-1.022c0.394-0.472,2.045-1.494,2.045-1.494   l1.258-0.866h0.944l2.045-2.202c0,0,0.394-0.55,0.786-0.55c0.393,0,1.941,0.314,2.032,0.55c0.092,0.236,0.721,1.652,0.721,1.652   l-0.721,0.63v0.55l0.721,0.904l1.73,0.668l2.124,0.394c0,0,0.078-0.078,0.472,0s0.708,0.236,0.708,0.236s-0.236,0.314,0,0.708   s-0.078,0.078,0,0.786c0.078,0.708,0.078,0.472-0.314,1.338c-0.394,0.866-0.236,0.394-0.63,1.416s-0.944,1.573-0.944,1.966   s-0.314,0,0,0.394s0.944,0.63,0.944,0.63c1.258,0.314,0.472,0.314,1.888,0.314c1.416,0,1.416,0,1.416,0v-0.394l0.63-0.866   l0.394-0.708l0.55-0.786c0,0,0.158-0.55,0.55-0.786s0.866-0.708,0.866-0.708l1.102-0.866v-0.866c0,0,0.236-0.708,0.472-0.944   c0.236-0.236,1.229-0.63,1.229-0.63s0.501-0.078,1.288-0.078c0.787,0,1.022-0.078,1.416,0c0.394,0.078,0.708,0.078,0.708,0.078   l0.866-0.472V35.41v-1.534c0,0,0.236-1.258,0.55-1.416c0.314-0.158,0.394-0.63,0.394-0.63s2.124-0.314,2.438-0.314   c0.314,0,2.438,0,2.438,0v0.708l1.258-1.102v-0.55l1.494-0.866l1.859,0.472c0,0,1.051-0.314,1.287-0.472s2.202,0,2.202,0   s-0.55,1.258,0,1.494c0.55,0.236,0.97,0.55,0.997,0.866c0.026,0.314,0,0.63,0,0.63l-0.303,0.194l-0.355,0.256l-0.211,0.478   c0,0-0.023,0.011-0.044,0.077c-0.022,0.066-0.289,0.544-0.289,0.544c-0.089,0.1-0.345,0.445-0.345,0.445l-0.122,0.077l-0.819,0.417   l-0.196,0.432c0,0,0.078,0.04,0,0.236c-0.078,0.196-0.354,0.394-0.354,0.394l-0.904,0.55l-0.276,0.158l-0.59,0.196   c0,0-0.196,0.118-0.314,0.276c-0.118,0.158-0.354,0.708-0.354,0.708s-0.314,0.196-0.472,0.354s-0.472,0.432-0.472,0.432   s-0.668,0.394-0.786,0.394c-0.118,0,0.354,0.04-0.472,0c-0.826-0.04-1.455-0.04-1.455-0.04s0.04-0.118-0.748,0.04   c-0.786,0.158-1.429,0.118-1.639,0.196s-0.761-0.078-1.035,0.078c-0.276,0.158-0.276,0.158-0.472,0.158s-0.59,0.118-0.59,0.118   l-0.786,0.276c0,0-0.158,0.158-0.118,0.55c0.04,0.393-0.078,0.118-0.04,0.59c0.04,0.472-0.196,0.826-0.078,1.022   c0.118,0.196,0.158,0,0.354,0.276s0.276,0.354,0.276,0.668c0,0.314-0.078,0.354,0,0.63c0.078,0.276,0.118,0.59,0.158,0.866   c0.04,0.276-0.158,0.04,0.04,0.276c0.197,0.236,0.04-0.118,0.196,0.236c0.158,0.354,0.276,1.612,0.276,1.612   s0.196,0.078,0.276,0.276c0.078,0.196,0.078,0.196,0.078,0.196l0.708,1.494l0.394,0.944c0,0,0.078,0.158,0.196,0.432   c0.118,0.276,0.118,0.236,0.118,0.826c0,0.59,0,0.59,0,0.59s0.196-0.748-0.158,0.59c-0.354,1.338-0.236,1.14-0.472,1.494   s-0.55,1.338-0.55,1.338l-0.118,0.196l-1.338,1.966l-0.118,0.472l-1.062,1.77c0,0,0.078,0.158-0.236,0.394   c-0.314,0.236-1.102,0.55-1.102,0.55c-0.394,0.55-0.63,0.55-0.786,0.866c-0.158,0.314-0.63,0.866-0.63,0.866   s-0.049-0.196-0.472,0.394s-0.55,0.472-0.786,0.472s-0.158-0.059-0.55,0.009c-0.394,0.069-1.062,0.463-1.062,0.463   s-0.59,0.078-1.062,0c-0.472-0.078-0.944,0.314-1.298,0.236c-0.354-0.078-0.354-0.078-0.354-0.078s0,0-0.472,0.196   c-0.472,0.196-1.033,1.033-1.033,1.033s-0.059,0.177-0.118,0.265s-0.501,0.472-0.59,0.561c-0.089,0.089-0.501,0.236-0.501,0.236   s0.236,0.147-0.089,0.177c-0.325,0.029-0.649,0.059-0.797,0.059c-0.147,0-0.737-0.059-0.855-0.147   c-0.118-0.088-0.059-0.147-0.443-0.265c-0.383-0.118-0.443-0.236-0.561-0.265c-0.118-0.029-0.531-0.147-0.531-0.147   s-0.501-0.265-0.679-0.295c-0.177-0.029-2.772,0.649-2.772,0.649s0.472-0.147,0.059-0.177c-0.412-0.029-1.091-0.118-1.269-0.059   s-0.443,0.324-0.443,0.324l-0.708,0.295c0,0-0.383,0.147-0.383,0.265s0.118,0.207-0.059,0.265c-0.177,0.059-0.472,0-0.59,0   s-0.118,0-0.59-0.295c-0.472-0.295-0.443-0.265-0.708-0.501c-0.265-0.236-0.619-0.354-0.737-0.649   c-0.118-0.295-0.118-0.472-0.443-0.826c-0.325-0.354-0.443-0.561-0.737-0.767c-0.295-0.207-0.531-0.561-0.885-0.737   c-0.354-0.177-0.648-0.236-0.766-0.325c-0.118-0.089-3.068-1.209-3.068-1.209s-0.236-0.177-0.472-0.265   c-0.236-0.088-0.501-0.177-0.501-0.177s-1.445-0.737-1.711-0.826c-0.265-0.089-0.59-0.089-0.708-0.236   c-0.118-0.147-0.531-0.501-0.531-0.501s-0.443-0.147-0.443-0.295s0.147-0.236,0-0.443c-0.147-0.207-0.236-0.383-0.472-0.561   c-0.236-0.177-0.885-0.413-1.033-0.619c-0.147-0.207-0.387-0.501-0.429-0.649c-0.042-0.148-0.249-0.413-0.426-0.679   c-0.177-0.265-0.797-0.679-0.797-0.679s-0.472-0.059-0.708-0.325c-0.236-0.265-0.737-0.649-0.737-0.649l-0.413-0.501   c0,0,0.118,0.737-0.147,0.619c-0.265-0.118-0.265-0.118-0.265-0.118l-1.769-0.586l0.147-0.797v-0.443L13.935,51.89z"> 
	<title>Tacna</title></path>
	<path id="186" data-ng-click="$ctrl.openMap(2, '186', true, $event)" fill="none" stroke="#020202" stroke-width="0.3" stroke-miterlimit="10" d="M13.938,52.726l-0.531-0.944l-0.412-0.531   l-0.472-0.649c0,0-0.472,0-0.826-0.236c-0.354-0.236-0.708-0.59-0.708-0.59h-0.295l-0.53-0.53L9.69,49.068   c0,0-0.059-0.236-0.295-0.354c-0.236-0.118-0.766-0.353-0.766-0.353l-0.294-0.233l-0.65,0.233l-0.531-0.118c0,0,0.059,0-0.354,0   c-0.412,0-0.59,0.064-0.766-0.115c-0.177-0.179-0.649-0.357-0.649-0.357c-0.648-0.295-1.356-0.826-1.356-0.826l-0.314-0.715   c0,0-0.02-0.346,0-0.523c0.02-0.177,0.374-0.531,0.432-0.708c0.059-0.177,0.472-1.239,0.472-1.239l0.059-0.413l0.413-0.472   l0.202-0.314l0.388-0.688c0.412-0.118,0.862-0.236,0.862-0.236l0.318-0.236l0.59-0.118l0.472-0.537c0,0,0.315-0.345,0.6-0.228   c0.285,0.117,0.285,0.117,0.285,0.117h0.826l0.354,0.059h0.531l0.859,0.04l1.265-0.63l0.354-1.18v-0.708v-0.472l0.132-0.997   l0.694-0.891c0,0,0.116-0.236,0.382-0.354c0.266-0.118,0.562-0.472,0.562-0.472l1.12-1.121l0.295-0.219l0.354-0.312l0.236-0.59   c0,0,0.118,0,0.412-0.295c0.295-0.295,0.59-0.472,0.59-0.472l0.177-0.294l0.307-0.44c0,0,0.107-0.209,0.225-0.445   c0.118-0.236,0.374-0.413,0.374-0.413s-0.111-0.514,0-0.788c0.111-0.274,0.111-0.274,0.111-0.274s0.282-0.354,0.046-0.708   c-0.236-0.354,0.144-0.362-0.046-0.682c-0.19-0.32,0-0.769,0-0.769s-0.426-0.023,0.046-0.436c0.472-0.413,0.472-0.413,0.472-0.413   l0.353-0.708l0.347-0.452l0.301-0.065c0,0-0.177-0.453,0.177-0.735c0.354-0.282,0.484-0.766,0.484-0.766l0.696-0.047l0.236-0.531   l0.236-0.531l0.59-0.649l0.708-0.293h1.77c0,0,0.016-0.185,0.354-0.177s0.884-0.236,0.884-0.236l0.885,1.003v0.59l0.53,0.708   c0.413,0.649,1.003,0.931,1.003,0.931l0.354,0.426l0.354,0.31c0,0,0.118,0.576,0.294,0.635c0.177,0.059,0.649,0.767,0.767,0.944   c0.118,0.177,0.236,0.826,0.236,0.826s0.236-0.059,0.412,0.177c0.177,0.236,0.708,0.531,0.708,0.531s0.177-0.059,0.472,0   c0.295,0.058,0.413,0.058,0.649,0.058c0.236,0,0.412,0.118,0.826,0.295c0.412,0.177,0.118-0.177,0.412,0.177   c0.295,0.354,0,0.864,0,0.864s-0.236-0.021-0.412,0c-0.177,0.021-0.472-0.021-0.708,0s-0.354-0.139-0.472,0   c-0.118,0.139-0.059,0.552-0.059,0.552l0.059,0.354l0.676,1.373l-1.82,1.96h-0.944l-2.278,1.535l-1.026,0.825l-0.334,0.418   l-0.222,0.291c0,0-1.723,1.857-1.782,1.916c-0.059,0.059-0.513,0.493-0.513,0.493l-0.185,0.168c0,0-0.035,0.054-0.229,0.194   c-0.194,0.14-0.195,0.14-0.195,0.14l-0.351,0.238l-0.241,0.231l-0.116,0.16l-1.188,1.11l-0.542,0.542l-0.403,0.805l-1.564,2.105   l-0.872,0.55l-2.039,1.73v1.102l-2.832,3.461L13.938,52.726z"> 
	<title>Jorge Basadre</title></path>
	<path id="187" data-ng-click="$ctrl.openMap(2, '187', true, $event)" fill="none" stroke="#020202" stroke-width="0.3" stroke-miterlimit="10" d="M36.654,31.675l0.586-0.717l0.295-0.354   l0.708-0.59c0,0-0.118-0.101,0-0.375s0.412-0.687,0.412-0.687s0.295-0.413,0.472-0.413c0.177,0,0.413,0,0.413,0   s0-0.295,0.648-0.472c0.649-0.177,1.239-0.413,1.239-0.413s0.022-0.531,0.306-0.531s0.108,0.118,0.934,0s1.062,0.236,1.239,0   c0.177-0.236,1.062-0.118,1.062-0.295c0-0.177-0.354-0.649-0.354-0.826c0-0.177-0.177,0.118-0.177-0.649s0.059-1.239,0.059-1.239   s-0.295-0.236,0.059-0.708c0.354-0.472,0.413-1.003,0.413-1.003s-0.236-0.177,0-0.531s-0.236-0.767,0-1.003   c0.236-0.236,0.068-0.826,0.068-0.826s-0.288-0.472,0.058-0.649s0.405-0.649,0.582-0.649c0.177,0,0.648-0.413,0.648-0.413   s0.118-0.236,0.413,0.059c0.294,0.295,0.059,0.472,0.59,0.708c0.53,0.236,1.356,0.472,1.356,0.472s0.354,0.059,0.767,0.354   c0.412,0.295,0.472,0.354,0.708,0.354s0.02-0.161,0.59,0s0.766,0.413,0.766,0.413c1.265,0.603,0.7,0.203,1.265,0.603   c0.564,0.4,0.859,0.754,1.272,0.99c0.412,0.236,1.18,0.472,1.534,0.649s0.177-0.118,1.534,0.413   c1.356,0.531,1.356,0.531,1.356,0.531l1.18,0.354c0,0-0.412-0.118,0.531,0.059c0.944,0.177,1.71,0.354,1.71,0.354s0.413,0,0.767,0   s0.766,0,0.766,0l1.947-0.472l0.472,0.223L67.387,26l0.589,0.297l0.708,0.649l0.59,0.413l0.59,0.353c0,0,0.236,0,0.294,0.59   c0.059,0.59,0,0.843,0.059,1.336c0.059,0.493,0,0.788,0,0.788s0.177,0.767,0,1.003c-0.177,0.236-0.462,0.639-0.462,0.639   l-0.534-0.626c0,0-0.258-0.014-0.463-0.24c-0.205-0.226-0.205-0.226-0.205-0.226s-0.04-0.059-0.038-0.21   c0.002-0.151,0.071-0.543,0.071-0.543l0.172-0.517c0,0-0.076-0.097-0.371-0.07c-0.295,0.026-0.294,0.022-0.59,0.013   c-0.296-0.008-0.649-0.013-0.649-0.013h-0.353c0,0-0.119,0.066-0.631,0.244c-0.513,0.177-0.513,0.177-0.513,0.177   s0.109,0.244-0.381,0.12c-0.491-0.125-0.698-0.177-1.003-0.255c-0.305-0.077-0.856-0.217-0.856-0.217l-1.494,0.866v0.55   l-1.258,1.102l-0.144-0.708l-3.01,0.075l-0.881,0.119c0,0-0.177,0.025-0.355,0.05s-0.486,0.071-0.486,0.071s0.03-0.009-0.043,0.162   s-0.58,0.781-0.58,0.781l-0.131,0.354l-0.147,0.548c0,0-0.042,0.052-0.042,0.199c0,0.148,0,0.059,0,0.295s0,0.207,0,0.501   c0,0.294,0,0.442,0,0.737s0,0.03,0,0.295c0,0.265,0,0.53,0,0.53l-0.996,0.467l-1.438-0.088l-0.384,0.012   c0,0-0.177,0.001-0.325,0.004c-0.146,0.003-0.264,0.003-0.467,0.016c-0.204,0.013-0.506-0.086-0.506-0.086l-0.16,0.147   c0,0-0.567,0.235-0.773,0.345c-0.205,0.11-0.297,0.06-0.456,0.284c-0.16,0.224-0.295,0.489-0.322,0.554s-0.15,0.39-0.15,0.39   s0,0.167,0,0.315s0,0.177,0,0.295c0,0.118,0,0.255,0,0.255l-0.174,0.137l-0.395,0.311l-0.203,0.16c0,0-0.047,0.037-0.126,0.099   c-0.079,0.062-0.203,0.16-0.203,0.16c-0.209,0.196-0.334,0.308-0.334,0.308l-0.111,0.092l-0.186,0.147l-0.233,0.16l-0.167,0.133   l-0.179,0.219c0,0,0.062-0.193-0.071,0.121c-0.133,0.313-0.133,0.313-0.133,0.313l0,0c0,0-0.071,0.102-0.132,0.189   c-0.061,0.087,0.094-0.135-0.061,0.087c-0.155,0.222-0.103,0.146-0.23,0.328c-0.127,0.182-0.127,0.182-0.127,0.182   s0.03-0.054-0.078,0.142c-0.109,0.195-0.179,0.323-0.179,0.323l-0.135,0.244l-0.39,0.537l-0.239,0.328v0.394h-1.039h-1.242   l-0.425-0.142c0,0-0.198-0.066-0.331-0.102c-0.133-0.036-0.389-0.122-0.389-0.122s-0.076-0.026-0.212-0.105   c-0.136-0.078-0.43-0.29-0.43-0.29l-0.32-0.378l0.301-0.665c0,0,0.037-0.068,0.082-0.146c0.045-0.078,0.093-0.156,0.159-0.271   c0.066-0.115,0.06-0.101,0.112-0.194c0.053-0.093,0.23-0.44,0.23-0.44s0.039-0.063,0.117-0.257c0.078-0.193,0.09-0.223,0.133-0.335   c0.043-0.112,0.106-0.269,0.106-0.269l0.109-0.261v-0.212l0.36-0.531c0,0,0.085-0.185,0.12-0.257   c0.035-0.072,0.101-0.207,0.138-0.286c0.037-0.078,0.042,0.009,0.069-0.166c0.026-0.176,0.026-0.176,0.026-0.176   s-0.01-0.201-0.025-0.328c-0.014-0.126-0.025-0.293-0.025-0.293l0.052-0.314l0.021-0.193c0,0,0.02,0.09-0.062-0.113   c-0.082-0.203-0.139-0.194-0.103-0.381c0.036-0.188,0.103-0.327,0.103-0.327l-0.895-0.264l-0.285,0.028c0,0-0.268-0.05-0.36-0.066   c-0.092-0.016-0.273-0.05-0.512-0.094c-0.239-0.044-0.444-0.082-0.444-0.082l-0.319-0.059l-0.267-0.049   c-0.224-0.042-0.446-0.127-0.446-0.127l-0.322-0.125l-0.168-0.065l-0.322-0.125c-0.215-0.083-0.422-0.163-0.466-0.18   c-0.044-0.017-0.23-0.089-0.23-0.089l-0.147-0.185c0,0,0.011,0.014-0.126-0.159c-0.138-0.173-0.447-0.562-0.447-0.562V34.17v-0.217   l0.384-0.335l0.337-0.294L36.654,31.675z"> 
	<title>Tarata</title></path>
	<path id="185" data-ng-click="$ctrl.openMap(2, '185', true, $event)" fill="none" stroke="#020202" stroke-width="0.3" stroke-miterlimit="10" d="M26.916,21.164l0.619-0.472l0.236-0.443   c0,0,0.207-0.089,0.325-0.236c0.118-0.147,0.443-0.472,0.443-0.472s-0.089-0.089,0.147-0.325c0.236-0.236,0.265-0.325,0.412-0.561   c0.147-0.236,0.177-0.296,0.236-0.413c0.059-0.117,0.089-0.324,0.089-0.412s0-0.59,0-0.59s0.089-0.295,0-0.383   c-0.089-0.089,0-0.325,0.207-0.354c0.207-0.029,1.002-0.089,1.12-0.147c0.118-0.059,0.354-0.236,0.354-0.236   s0.118-1.091,0.177-1.18c0.059-0.089,0.118-0.531,0.118-0.531s-0.325-0.5-0.236-0.736s0.207-1.888,0.059-1.977   c-0.147-0.089-0.177-0.383-0.177-0.383s-0.177-0.649-0.236-0.737c-0.059-0.089-0.241-0.59-0.224-0.737   c0.017-0.147-0.16-0.443-0.071-0.679c0.089-0.236,0.089-0.472,0.147-0.619s0.029-0.767,0.118-0.827   c0.089-0.059,0.029-0.059,0.207-0.265c0.177-0.207,0-0.383,0.413-0.531c0.412-0.147,0.561-0.236,0.561-0.236l1.033-0.59   c0,0,0.325-0.265,0.383-0.354c0.059-0.089,0.383-0.59,0.383-0.59s-0.178-0.088,0.235-0.206c0.412-0.118,0.59-0.263,0.944-0.207   c0.354,0.057,0.737,0.059,0.826,0.059c0.089,0,0.888,0,0.888,0V4.426c0,0,0.557-0.075,0.911,0.161   c0.354,0.236,0.708,0.443,0.708,0.443s0.207,0.472,0.295,0.561c0.089,0.089,0.561,0.265,0.561,0.412c0,0.147-0.383,0.325,0,0.236   s0.442-0.177,0.53-0.147c0.089,0.03,0.118,0.089,0.236,0.089c0.118,0,0.472,0,0.619,0c0.147,0,0.354,0,0.383,0.089   s-0.029-0.088,0,0.222c0.029,0.31-0.029,0.457-0.118,0.693c-0.089,0.236,0.171,0.472-0.092,0.59   c-0.262,0.118-0.013,0.012-0.262,0.118c-0.249,0.106-0.443,0.089-0.679,0.295c-0.236,0.207-0.059,0.118-0.443,0.265   s-0.531,0.029-0.708,0.207c-0.177,0.176,0.119-0.296-0.177,0.176c-0.294,0.472-0.708,0.265-0.501,0.59s0.59,0.619,0.59,0.737   c0,0.118-0.207,0.266,0.207,0.502c0.412,0.236,0.118,0.295,0.737,0.472c0.619,0.177,1.062,0.265,1.062,0.265   s-0.147-0.089,0.207-0.089s0.501-0.207,0.501-0.207l0.513-0.708l-0.07-0.383c0,0,0.879-0.265,1.015-0.177   c0.136,0.089,0.194-0.118,0.46,0.147c0.265,0.265,0.236,0.089,0.325,0.443c0.089,0.354,0.118,0.265,0.147,0.649   c0.029,0.383-0.059,0.295,0.089,0.797c0.147,0.501,0.207,0.624,0.265,0.917c0.059,0.293,0.118,0.499,0.207,0.677   c0.089,0.177,0.059,0.207,0.207,0.531c0.147,0.325,0.114,0.42,0.383,0.797c0.27,0.376,0.354,0.767,0.354,0.767   s0.501,0.443,0.59,0.797c0.089,0.354,0.089,0.236,0.118,0.649c0.029,0.412,0.059,0.501,0.089,0.708s0.23,0.768,0.23,0.768   l-0.466,0.264c0,0-0.182,0.186-0.236,0.273s-0.198,0.267-0.198,0.267c-0.147,0.109-0.291,0.264-0.291,0.264   s-0.093,0.06-0.004,0.278c0.09,0.217,0.057,0.061,0.09,0.217s0.011-0.014,0.033,0.156c0.022,0.17,0.034,0.235,0.02,0.343   c-0.014,0.108-0.121,0.328-0.121,0.328s-0.048,0.302-0.01,0.426c0.039,0.124,0.001-0.063,0.039,0.124   c0.038,0.187-0.028,0.453-0.028,0.453L44.872,22.1c0,0,0.126,0.152,0.097,0.306c-0.029,0.154,0.029-0.058-0.029,0.154   C44.882,22.772,44.794,23,44.794,23l-0.365,0.634l0.068,0.482c-0.033,0.385-0.034,0.351-0.042,0.559   c-0.008,0.207-0.016,0.681-0.016,0.681s-0.037-0.049,0.007,0.211c0.043,0.261,0.171,0.437,0.171,0.437s-0.08-0.076,0.079,0.226   c0.159,0.303,0.275,0.6,0.275,0.6h-0.177c0,0-0.113,0.107-0.292,0.126c-0.177,0.019,0.056-0.03-0.177,0.019   c-0.233,0.049-0.233,0.049-0.233,0.049l-0.183,0.099h-0.265c0,0-0.064,0.055-0.149,0.036c-0.084-0.019-0.825-0.036-0.825-0.036   l-0.412,0.04l-0.52-0.04l-0.211,0.151c0,0-0.028-0.046-0.061,0.166c-0.033,0.213-0.033,0.213-0.033,0.213l-0.562,0.204   l-0.345,0.111l-0.333,0.097l-0.515,0.252l-0.133,0.22h-0.413l-0.472,0.413l-0.204,0.308l-0.09,0.148l-0.119,0.231v0.375   c0,0,0.395-0.328-0.157,0.13c-0.551,0.46-1.272,1.335-1.272,1.335h-0.872c0,0-0.149-0.159-0.296-0.192   c-0.146-0.032-0.538-0.108-0.538-0.108s-0.113-0.021-0.229-0.034c-0.116-0.012-0.257-0.022-0.257-0.022l-0.219,0.056   c0,0-0.01-0.018-0.132,0.072c-0.122,0.091-0.435,0.423-0.435,0.423H33.49l-0.209-0.423c0,0-0.15-0.305-0.249-0.506   s-0.158-0.555-0.158-0.555s-0.059-0.259,0-0.406c0.059-0.146,0.059-0.146,0.059-0.146s0.147-0.055,0.234-0.033   c0.087,0.023,0.614,0.033,0.614,0.033s0.037,0.156,0.332,0c0.294-0.156,0.486-0.169,0.486-0.169l-0.074-0.696l-0.412-0.177   l-0.243-0.109l-0.583-0.184c0,0-0.09,0.002-0.178-0.002c-0.089-0.004-0.117,0.091-0.471-0.058s-0.354-0.147-0.354-0.147   s0.099,0.278-0.118,0.147c-0.217-0.131-0.417-0.268-0.417-0.268l-0.291-0.263l-0.412-0.177l-0.236-0.826l-0.531-0.729   c0,0-0.448-0.545-0.473-0.629c-0.024-0.082-0.058-0.22-0.058-0.22l-0.885-0.839c0,0-0.446-0.354-0.5-0.414   c-0.054-0.06-0.325-0.412-0.325-0.412l-0.354-0.472l-0.177-0.236v-0.59l-0.727-0.824L26.916,21.164z"> 
	<title>Candarave</title></path>
</g>
</svg>
