<?xml version="1.0" encoding="utf-8"?>
<svg xmlns="http://www.w3.org/2000/svg" xmlns:xlink="http://www.w3.org/1999/xlink" version="1.1" id="24" x="0px" y="0px" viewBox="0 0 74 71" enable-background="new 0 0 74 71" xml:space="preserve">
	<title>Tumbes</title>
<path id="190" data-ng-click="$ctrl.openMap(2, '190', true, $event)" fill="none" stroke="#020202" stroke-width="0.3" stroke-miterlimit="10" d="M51.038,11.65c0,0-0.329,1.205,0,2.081  c0.329,0.876,0,1.971,0,1.971s-0.584,0.109,0.146,0.657c0.73,0.548,1.168,0.767,1.497,1.643c0.329,0.876,0.657,1.533,0.657,1.533  s0.438,1.095,0,1.533c-0.438,0.438-0.706,0.548,0.195,0.876c0.901,0.329,1.407-0.267,1.667,0.548C56,25,55.452,23.905,56,25  s0.076,0.45,0.076,1.107c0,0.657,0.219-0.109-0.219,1.424c-0.438,1.533-0.657,2.19-0.657,2.19s1.194,1.381,1.643,2.19  C58,34,57,33,57.908,34.649c0.537,0.975,0.906,0.264,1.125,0.899c0.219,0.635,0.657,1.292,0.657,2.168c0,0.876,0,0.548,0,1.424  c0,0.876-0.477,1.031,0,1.533C60,41,59.091,40.67,60,41l1,1c0,0,1.319-0.998,1.866,0.754c0.548,1.752,0.329,1.095,0.548,1.752  c0.219,0.657,1.314,1.095,1.314,1.095s0.323-1.041,0.762-1.041s0.702-0.461,1.031-0.68S67,43,67.576,42.645  c0.466-0.288,0.767-0.803,1.424-0.402c0.657,0.402,1.095-0.475,1.424-0.475s1.643,0.146,1.205-0.694  c-0.438-0.84-0.219-1.059-0.986-1.606c-0.767-0.548-1.533-1.095-2.3-1.424c-0.767-0.329-0.584,0.256-0.767-0.329  c-0.183-0.584-0.657-2.957-0.876-3.395c-0.219-0.438-0.548-1.205-0.767-1.862c-0.219-0.657-0.146-1.46-0.438-2.19  c-0.292-0.73-1.095-1.971-1.095-2.519c0-0.548-0.219-1.205,0-1.752c0.219-0.548-0.365-1.387,0.365-2.008  c0.73-0.621,1.213-0.367,0.73-1.168C65,22,65.219,22.424,65,21c-0.219-1.424,0-1,0-1l-1.988-1.706l-0.438-1.168  c0,0-0.219-0.292,0.183-1.752s0.767-2.081,0.548-2.409c-0.219-0.329,0.037-1.424-0.584-1.533C62.1,11.321,62.1,11.321,62.1,11.321  s-0.219-0.548-0.329-1.862s0.073-2.117,0.073-2.117s0.78-0.629-0.577-1.118S59.026,6.21,58,6c-0.471-0.096-1.815-0.703-1.815-0.703  s-0.438,0.438-0.438,1.095S56,7,55.638,7.707c-1.696,3.309-2.519,2.957-2.848,3.286C52.462,11.321,51.038,11.65,51.038,11.65z"> 
<title>Zarumilla</title></path>
<path id="188" data-ng-click="$ctrl.openMap(2, '188', true, $event)" fill="none" stroke="#020202" stroke-width="0.3" stroke-miterlimit="10" d="M33.514,22.931c0,0-0.329,0.986,0,1.971  c0.329,0.986,0.657,1.752,0.657,1.752s0.829,0.346,0.548,0c-0.594-0.731,0.986,0.876,1.314,1.752  c0.329,0.876,0.948,1.314,0.948,1.314v1.314c-0.838,0.876,0.147,0.109-0.838,0.876c-0.986,0.767-1.533,0.876-1.533,1.533  s0.219,1.907-0.219,2.104c-0.438,0.196-0.438,0.196-0.438,0.196l1.222,0.876h1.297c0,0,0.143-1.095,0.51,0  c0.366,1.095,1.133,3.505,1.133,3.505v1.643c0,0,0.657,0.109,1.095,1.752c0.438,1.643,0.876,1.314,0.438,3.067  s-0.219,1.971-0.986,3.614c-0.767,1.643-0.11,0.548-0.767,1.643s-0.914,2.957-0.914,2.957s0.292,0-0.383,0.986  c-0.675,0.986-1.661,1.095-1.989,1.971c-0.329,0.876,1.46-0.11-1.241,1.971c-2.702,2.081-3.14,1.971-3.359,2.3  c-0.219,0.329-0.219,0.767-0.986,1.095c-0.767,0.329-1.862,0-1.862,0v2.113l3.067,0.516c0,0,0.876-0.876,1.533-0.876  c0.657,0,0.219,1.424,1.314,0.438c1.095-0.986,2.19-1.533,2.519-1.862C35.924,63.125,37.374,61.626,38,61  c1-1,1.428-2.694,1.428-2.694l2.519-2.19l1.643-2.848l0.329-1.424l2.008-1.862l0.876-1.168l2.483-1.314l2.629,0.511  c0,0,1.205,0.438,2.3,0.876c1.095,0.438,2.22,0.803,2.957,0.657s0.767,0.438,1.205-0.109C58.814,48.887,59.748,48.989,60,48  c0.164-0.646,0.019-0.208,0.676-0.755c0.657-0.548,0.438-1.059,0.438-1.059s0.657-0.913,1.314-0.584  c0.657,0.329,1.275-0.655,1.275-0.655l-0.29-0.44l-0.292-0.929l-0.169-0.545l-0.087-0.277l-0.294-0.701l-0.965-0.175  c0,0-0.116,0.301-0.34,0.229c-0.224-0.072-1.576-1.434-1.576-1.434v-2.355l-0.657-2.77l-1.125-0.899l-0.651-1.443L55.2,29.721  l0.769-2.581l0.122-1.421L55.2,22.492l-1.667-0.548l-0.557-0.292l0.362-0.585l0.192-0.654l-0.849-2.413c0,0-0.245-0.519-0.297-0.588  s-0.385-0.431-0.385-0.431s-0.279-0.229-0.547-0.426c-0.268-0.197-0.521-0.431-0.521-0.431l0.17-0.696c0,0,0.086-0.437,0.081-0.714  c-0.005-0.277-0.043-0.593-0.144-0.985c-0.102-0.392-0.221-0.712-0.221-0.712s-0.13-0.517,0-0.712  c0.13-0.195,0.221-0.657,0.221-0.657s-0.493-0.109-0.657-0.055c-0.164,0.055-0.548,0.164-0.931,0.329  c-0.383,0.164-3.505,0.318-3.505,0.318l-0.456,0.065l-2.72,0.329l-1.04-0.219c0,0-0.219,0.274-0.329,0.767  c-0.11,0.493-0.438,0-0.438,0.821c0,0.821-1.533,4.819-1.533,4.819s-0.274,0.548-0.548,0.931c-0.274,0.383-0.274,0.548-0.876,0.931  c-0.602,0.383-0.876,0.493-1.479,0.821c-0.602,0.329-0.493,0.219-1.095,0.602C34.828,22.492,33.514,22.931,33.514,22.931z"> 
<title>Tumbes</title></path>
<path id="189" data-ng-click="$ctrl.openMap(2, '189', true, $event)" fill="none" stroke="#020202" stroke-width="0.3" stroke-miterlimit="10" d="M32.93,23.113c0,0-1.387,0.803-1.533,1.022  c-0.146,0.219-0.365,0.219-0.876,0.584c-0.511,0.365-1.606,1.314-1.606,1.314s-0.73,0.146-1.095,0.365  c-0.365,0.219-1.022,0.949-1.022,0.949s-0.219,0.073-0.73,0.146s-2.044,0.146-2.044,0.146s0,0.292-0.584,0.73  c-0.584,0.438,0.146-0.365-0.584,0.438c-0.73,0.803-1.022,0.876-1.314,1.314c-0.292,0.438-0.146,0.584-0.584,0.657  c-0.438,0.073-0.365,0.511-0.511,1.095c-0.146,0.584,0.219,0.73-0.146,1.168c-0.365,0.438-0.511,1.606-0.803,2.19  c-0.292,0.584-0.438,0.292-0.73,1.168c-0.292,0.876-0.146,0.365-0.657,1.606c-0.511,1.241-0.511,2.044-0.511,2.044  s-0.146,0.438-0.73,0.73c-0.584,0.292-1.606,0.803-1.606,0.803s0.949-0.803-1.168,0.511c-2.117,1.314-1.533,0.803-2.117,1.314  c-0.584,0.511-3.505,2.19-3.505,2.19s-0.292-0.511-0.803,0s-1.022,0.511-1.241,0.876s-0.219,0.438-0.438,0.876  c-0.219,0.438,0.073,0.584-0.438,1.022c-0.511,0.438-0.219,0.584-0.511,0.949s-0.511,0.584-0.73,0.949  C4.089,50.64,4.673,49.69,4.089,50.64c-0.584,0.949-0.73,1.241-0.949,1.606c-0.219,0.365-0.701,0.657-0.752,1.095  c-0.051,0.438,0.098,0.584-0.05,1.022c-0.148,0.438,0.05,2.224,0.05,2.224l0.533-0.253l1.314-0.219c0,0,0.803-0.073,1.022,0.073  c0.219,0.146,0.365,0.584,0.73,0.949c0.365,0.365,0.803,0.365,0.803,0.365l0.438,0.803c0,0,0.146,0.584,0.219,1.022  c0.073,0.438,0.365,1.387,0.365,1.387c0.292,0.438,1.679,0.292,1.679,0.292s0.657,0.146,1.022,0.292  c0.365,0.146,1.533,0.657,1.971,0.949c0.438,0.292-0.073,0.219,1.168,0.657c1.241,0.438,2.775,0.438,2.775,0.438  s0.119,0.634,0.584,0C18,62,18,63,18,63l1.787-0.97c0,0,1.314,0,1.533,0.073c0.219,0.073,2.117,0.365,2.117,0.365l1.095-0.219  c0,0,1.175,0.24,1.467,0.751s0.329,0.474,0.329,0.474l1.626-0.215c0,0,0.445,0.31,1.068-0.134s0.803-0.745,0.803-0.745  s0.241-0.457,0.536-0.621c0.295-0.165,0.713-0.405,0.975-0.576c0.262-0.171,0.694-0.463,0.979-0.669  C32.602,60.307,32.07,60.379,33,60c0.679-0.277,0.988-0.748,1.229-0.955c0.241-0.207,0.617-0.601,0.617-0.601l-0.237-0.685  c0,0-0.218,0.024,0.237-0.398c0.455-0.421,0.669-0.553,0.953-0.779c0.284-0.226,0.799-0.795,0.799-0.795s0.327-0.652,0.383-0.986  s-0.048-0.499,0.18-0.934C37.431,53.356,37.434,52.893,37,53c0,0,0.985-1.295,1.097-1.494c0.113-0.199,0.372-0.87,0.564-1.304  s0.503-1.206,0.589-1.647c0.086-0.441,0.05-1.832,0.479-2.32c0.429-0.487,0-1.3,0-1.3l-1.274-2.944c0,0-0.342,0.179-0.342-0.222  c0-0.402,0.161-1.194,0-1.643C37.967,39.716,37.988,39.249,38,39c0,0-1.197-1.311-1.019-1.576c0.178-0.265-0.179-1.19-0.179-1.19  l-0.33,0.386h-0.84c0,0-2.117-0.68-1.679-0.876c0.438-0.196,0.673-0.481,0.69-0.713c0.017-0.232,0.107-2.047,0.107-2.047  l1.861-1.499l0.371-1.764l-1.939-2.669l-0.871-0.398l-0.657-1.752l-0.125-0.614L32.93,23.113z"> 
<title>Contralmirante Villar</title></path>
</svg>
