<?xml version="1.0" encoding="utf-8"?>
<svg xmlns="http://www.w3.org/2000/svg" xmlns:xlink="http://www.w3.org/1999/xlink" version="1.1" id="8" x="0px" y="0px" viewBox="0 0 74 71" enable-background="new 0 0 74 71" xml:space="preserve">
	<title>Cusco</title>
<path id="77" data-ng-click="$ctrl.openMap(2, '77', true, $event)" fill="none" stroke="#020202" stroke-width="0.3" stroke-miterlimit="10" d="M38.853,44.921h0.848v0.391h0.46l0.161,0.489  l0.414-0.099v0.735h0.368c0,0-0.069,0.345,0,0.414s0.414,0,0.414,0l-0.161,1.471l0.368,0.207v0.437h0.919v-0.253h0.368l0.62,0.069  l0.115,0.368v0.368v0.391v0.345h0.804l0.253-0.138l-0.138-0.965V48.23l-0.3-0.23l0.092-0.873l-0.345-0.276l0.069-1.31l-0.804-0.62  l-0.069-0.62h-0.551l0.023-1.212h-0.299L42.39,42.21h0.253l0.069-0.582h0.276l0.046-0.567h-0.506l-0.069-1.034l-0.322-0.161H41.7  l-0.184-0.276h-0.414l-0.115,0.345l-1.54-0.069v0.276h-0.276l-0.023,0.322h-0.827V40.21l-0.574-0.023v0.299l-0.483-0.023v0.391  L37,40.808l-0.102,0.207l-0.299,0.069v0.345l0.123,0.199l0.245,0.123l0.138,0.345l0.069,0.322l0.161,0.191l0.542,0.481l0.262,0.453  l0.276,0.827l0.276,0.551H38.853z"> <title>Paruro</title></path>
<path id="74" data-ng-click="$ctrl.openMap(2, '74', true, $event)" fill="none" stroke="#020202" stroke-width="0.3" stroke-miterlimit="10" d="M38.744,45.243l0.107,0.414l-0.107,0.541  c0,0,0.011,0.08-0.09,0.241s-0.193,0.322-0.216,0.391s-0.091,0.22-0.091,0.22s-0.047,0.178-0.093,0.277  c-0.046,0.1,0,0.031-0.092,0.283c-0.092,0.253-0.337,1.8-0.337,1.8L37,49.835l-1.443,1.903l-1.471,0.735h-0.751l-0.659,0.735  l-0.559,0.927v0.483v0.53l-0.054,0.45l0.191,0.25l0.069,0.608l0.069,0.735l0.437,0.138l0.069,0.322l1.126,1.025l0.214-0.258  l0.498,0.258l0.886-0.289l0.231-0.133l0.439-0.143l1.211-0.306l0.333,0.371l0.072,0.142l0.939,1.08l0.003-3.033l0.002-0.337  l0.565-0.49l0.797,0.735l0.486,0.719l0.157,0.797l0.643,0.015V57.13l0.306-0.061V56.67l0.49-0.031l0.368,0.19h0.368l0.123-0.312  l0.337-0.276l0.153-0.527l0.337-0.177l0.123-0.521l0.368-0.092v-0.276l0.705,0.061v-1.103l0.551-0.031v-0.797l0.674-0.031V52.32  v-2.068l0.337-0.106v-0.308l0.337-0.031l0.153-0.705l-0.368-0.061l-0.061-0.49l-0.245,0.031l-0.031-0.306l-0.674,0.061l-0.153-0.306  L45.392,48l-0.214-0.368l-0.773-0.001L44.366,48l0.299,0.23l0.013,1.008l0.125,0.877l-0.253,0.138h-0.804V49.15l-0.115-0.368  l-0.62-0.069h-0.368v0.253h-0.919v-0.437l-0.368-0.207l0.161-1.471c0,0-0.145,0.032-0.24,0.03s-0.201-0.05-0.203-0.121  s0.029-0.323,0.029-0.323h-0.368v-0.735l-0.414,0.099l-0.161-0.489H39.7v-0.391h-1.01L38.744,45.243z"> <title>Chumbivilcas</title></path>
<path id="68" data-ng-click="$ctrl.openMap(2, '68', true, $event)" fill="none" stroke="#020202" stroke-width="0.3" stroke-miterlimit="10" d="M42.29,39.942l0.115-0.521l0.352-0.077v-0.628  v-0.342l-0.161,0.066l-0.115-0.597l-0.345,0.046v0.199l-0.428,0.034l-0.147-0.257l-0.391-0.253v-0.551h-0.919L39.648,37.2  c0,0-0.107,0-0.092,0.184s-0.199,0.414-0.199,0.414l-0.184,0.061v0.291l-0.414,0.092l0.094,0.26h-0.231v0.199l-0.383,0.138  l-0.077,0.291l-0.214-0.276l-0.475-0.092v0.26l-0.306,0.276v0.506l0.368,0.061l0.184,0.077l0.031,0.245l0.574,0.023v0.191  l0.74,0.061l0.11-0.322h0.276v-0.276l1.54,0.069l0.115-0.345h0.414l0.134,0.201l0.486,0.074L42.29,39.942z"> <title>Cusco</title></path>
<path id="78" data-ng-click="$ctrl.openMap(2, '78', true, $event)" fill="none" stroke="#020202" stroke-width="0.3" stroke-miterlimit="10" d="M43.676,39.131v0.46h0.447v0.506  c0,0,0.22-0.092,0.243,0s0,0.368,0,0.368h0.574v-0.391l0.551-0.046v-0.23l-0.253-0.207l0.069-0.345l0.988-0.115v0.666h0.643V39.59  l0.299-0.827l-0.276-0.184l-0.023-0.781h0.46l0.115,0.643h0.322l0.391,0.184l0.23,0.138l0.184-0.414l0.207,0.023v-0.574h0.184  v-0.276h1.195v0.391l0.46-0.115l0.253,0.483l0.437-0.138v0.368l0.322,0.253h0.483v-0.506l0.276-0.138h0.253v-0.46l-0.276-0.138  l-0.115-0.896l0.391-0.092l-0.253-0.483c0,0,0.023-0.391,0.092-0.322s0.322-0.23,0.322-0.23s0.023-0.138,0.184-0.138  s0.322-0.276,0.322-0.276h0.23v-0.299h0.23V33.89h-0.138v-0.414l-0.506-0.184l0.138-0.368l0.666-0.115l0.138-0.276h0.276  l0.138-0.574V31.41v-0.345l-0.207-0.207l-0.322-0.689l-0.799,0.23l-0.588-0.23l-1.141-0.551l-1.109-0.396l-0.959-0.845H48.41  l-1.834-1.11l-0.463-0.153l-1.425,0.712l-0.781-0.276v-0.506l-0.735-0.368l-0.302-0.241l-0.525-0.173l0.046-0.184l-0.046-0.368  l-0.827-0.092l-0.061,0.169l-0.414,0.153l-0.064,0.071l0.171,0.207l0.092,0.112l0.391,0.184l-0.046,1.93l0.391,0.092l-0.023,0.299  l0.23-0.023l-0.046,0.299l0.368-0.092l0.023,0.804l-0.666,0.046l-0.023,0.207l-0.437-0.069l-0.161,0.551l-0.345,0.161l-0.023,0.138  h0.46l-0.046,0.345h0.368l-0.046,0.506l0.345,0.092l-0.069,2.298l0.322,0.023l-0.046,0.506l0.276,0.046l0.069,0.735l0.368,0.092  l-0.046,0.115l0.414,0.115l0.092,0.138l0.184,0.138l-0.046,0.207l0.506,0.161l0.046,0.368l-0.184,0.23l-0.184,0.161l0.47,0.161  l-0.01,1.838h-0.442C43.676,39.132,43.676,39.131,43.676,39.131z"> <title>Paucartambo</title></path>
<path id="72" data-ng-click="$ctrl.openMap(2, '72', true, $event)" fill="none" stroke="#020202" stroke-width="0.3" stroke-miterlimit="10" d="M45.178,54.25l0.49,0.123v0.306h0.429V54.25h0.49  v0.643l0.643-0.123l0.123,0.46l0.356-0.153v0.306h0.594h1.134h0.214l0.153,0.331l0.123,0.313l0.214,0.153l0.276-0.306l0.429,0.153  l1.103-0.184v-0.245h0.276l0.214,0.429h0.919l0.337-0.123v-0.253l1.287-0.942l0.368-1.195l-0.046-0.896h-0.758l-0.23,0.276  l-0.437-0.023l-0.184,0.506l-0.161-0.046l-0.735-0.138l-0.023-0.23l-0.62-0.092l-0.276-0.253l-0.551-0.46l-0.345-0.161l0.069-1.034  h-0.988l-0.161-0.551H49.33l0.092-0.85h-0.551V49.31h-0.23l0.023-0.253h-0.23l-0.161-1.08l0.023-0.391l-0.414,0.115L47.709,48  l-0.379,0.115c0,0-0.015-0.046-0.1-0.115c-0.084-0.069-0.084-0.069-0.084-0.069l-0.184-0.092l-0.092-0.253h-0.184l-0.161-0.23  l-0.253,0.299c0,0-0.345,0.069-0.345,0.138s-0.23,0.237-0.23,0.237l0.153,0.306l0.674-0.061l0.031,0.306L46.8,48.55l0.061,0.49  l0.368,0.061l-0.153,0.705l-0.337,0.031v0.308l-0.337,0.106v2.497l-0.674,0.031l-0.046,0.799l-0.506,0.028v0.644H45.178z"> <title>Canas</title></path>
<path id="69" data-ng-click="$ctrl.openMap(2, '69', true, $event)" fill="none" stroke="#020202" stroke-width="0.3" stroke-miterlimit="10" d="M43.001,41.452h0.514v0.642l0.506-0.138v1.132  l0.506,0.316h0.735l-0.084,0.643l0.222,0.161l0.276,0.483l0.414-0.115l0.368,0.597h0.414l0.184,0.46l0.322,0.299  c0,0,0.414,0.414,0.333,0.506c-0.08,0.092,0.172,0.299,0.172,0.299l0.299,0.62v0.262l-0.299,0.083c0,0-0.073,0.269-0.172,0.299  s-0.479,0-0.479,0l-0.268-0.161l-0.276-0.253l-0.161-0.23l-0.253,0.299l-0.172,0.043l-0.173,0.095l-0.23,0.237  c0,0-0.118-0.012-0.212-0.021s-0.308-0.377-0.308-0.377h-0.375h-0.398l0.053-0.505l-0.345-0.276l0.069-1.31l-0.804-0.62l-0.069-0.62  h-0.551l0.023-1.212h-0.299l-0.093-0.88h0.253l0.069-0.582h0.276L43.001,41.452z"> <title>Acomayo</title></path>
<path id="80" data-ng-click="$ctrl.openMap(2, '80', true, $event)" fill="none" stroke="#020202" stroke-width="0.3" stroke-miterlimit="10" d="M38.753,38.15l0.098-0.283l-0.046-0.23  c0,0-0.046-0.184-0.161-0.23c-0.115-0.046-0.299-0.184-0.299-0.184s-0.253-0.138-0.322-0.161s-0.276-0.276-0.276-0.276  s-0.046-0.115-0.115-0.115s-0.467,0-0.467,0l-0.383-0.322h-0.437V35.5H35.38l-0.345-0.23c0,0-0.207,0.023-0.276,0  s-0.345,0.069-0.506,0s-0.597-0.138-0.597-0.138s-0.092,0.276-0.092,0.368s0,0.23,0,0.23s0.069,0.092-0.23,0.092  s-0.483-0.092-0.483-0.092l-0.115,0.276c0,0-0.176,0.092-0.306,0.115c-0.13,0.023-0.797-0.115-0.797-0.115s0.046,0.115,0,0.184  c-0.046,0.069,0.138-0.023-0.046,0.069s-0.414,0.092-0.414,0.092v-0.115c0,0-0.207-0.161-0.207-0.23s-0.069-0.482-0.069-0.505  c0-0.023,0.069-0.437,0.069-0.437l-0.069-0.506l0.161-0.483l-0.161-0.138l-0.138-0.597H30.51l-0.138-0.643l0.092-0.536l0.023-0.176  l1.287-0.138l0.115,0.371c0,0,0.138-0.065,0.161,0s0.023,0.18,0.023,0.18l0.36,0.023l0.26,0.023l0.184,0.345l0.184,0.138  l0.161,0.345l0.253-0.069v-0.161h1.034l0.103-0.276l0.264-0.092l0.069-0.345l0.697,0.115l0.202,0.322l0.158-0.345l0.138-0.203  c0,0,0.184,0.004,0.253-0.057s0.322,0,0.322,0L37,32.398c0,0,0.181,0.483,0.166,0.643c-0.015,0.161,0,0.345,0,0.345l0.375,0.046  l0.437,0.069h0.161c0,0,0.322,0.046,0.345,0.115c0.023,0.069,0,0.437,0,0.437l0.368,0.046c0,0,0.069,0.781,0,0.85s0,0.414,0,0.414  l0.138,0.023l0.253,0.115l0.23,0.23l0.115,0.574l0.184,0.092l0.191,0.069c0,0-0.015,0.299,0,0.414s0.015,0.115,0.015,0.115  l0.041,0.123l-0.252,0.057l-0.092,0.021l-0.049,0.011l-0.04,0.031c0,0-0.023,0.045-0.025,0.059  c-0.003,0.014-0.005,0.041-0.005,0.054s0.001,0.014,0.001,0.035s-0.001,0.039-0.001,0.039l-0.014,0.071c0,0-0.01,0.031-0.018,0.051  c-0.009,0.02-0.005,0.017-0.023,0.049c-0.018,0.033-0.06,0.099-0.06,0.099s-0.029,0.039-0.036,0.049  c-0.008,0.01,0.001,0.001-0.023,0.028s-0.045,0.034-0.045,0.034l-0.163,0.054v0.291h-0.421C38.753,38.151,38.753,38.15,38.753,38.15  z"> <title>Urubamba</title></path>
<path id="71" data-ng-click="$ctrl.openMap(2, '71', true, $event)" fill="none" stroke="#020202" stroke-width="0.3" stroke-miterlimit="10" d="M36.381,32.042l0.23-0.402  c0,0,0.23-0.207,0.23-0.241c0-0.034,0-0.563,0-0.563s-0.023-0.207-0.057-0.218s-0.115-0.092-0.172-0.069  c-0.057,0.023-0.425,0.046-0.425,0.046l-0.138-0.839h-0.735l-0.287-0.069l-0.218-0.207l-0.184-0.184v-0.632l-0.241-0.161v-0.264  l-0.264-0.195l-0.138-1.448l-0.218-0.276l0.126-0.23l0.23-0.069l0.011-0.253l0.31-0.218l0.046-0.287h0.333L37,25.16l0.093-0.253  l0.253-0.092l0.069-0.632h0.287l0.069-0.506l0.276-0.08L37.978,23l0.218-0.08h0.322h0.643h0.218l0.207,0.126l0.385,0.819  l0.337,0.537l0.243,0.666l0.015,0.46l0.306,0.345l0.105,0.14l0.263,0.319l0.391,0.184l-0.046,1.93l0.391,0.092l-0.023,0.299  l0.23-0.023l-0.046,0.299l0.368-0.092l0.023,0.804l-0.666,0.046l-0.023,0.207l-0.437-0.069l-0.161,0.551l-0.345,0.161l-0.023,0.138  h0.46l-0.046,0.345h0.368l-0.046,0.506l0.345,0.092L41.885,34.1l0.322,0.023l-0.046,0.506l0.276,0.046l0.069,0.735l0.368,0.092  l-0.046,0.115l0.414,0.115l0.092,0.138l0.184,0.138l-0.046,0.207l0.506,0.161l0.046,0.368l-0.184,0.23l-0.184,0.161l0.47,0.161  l-0.01,1.838h-0.551l-0.414-0.253l-0.253-0.253l-0.138-0.25l-0.161,0.066l-0.115-0.597l-0.345,0.046v0.199l-0.428,0.034  l-0.147-0.257l-0.391-0.253v-0.551h-0.919l-0.235,0.054l-0.056-0.163v-0.488l-0.375-0.161l-0.115-0.574l-0.23-0.23l-0.253-0.115  l-0.138-0.023l-0.022-0.364l0.022-0.05l0.03-0.195l-0.03-0.655l-0.368-0.046v-0.437c0,0-0.102-0.063-0.142-0.073  s-0.157-0.035-0.157-0.035l-0.206-0.007l-0.073-0.012l-0.364-0.057l-0.375-0.046l-0.007-0.161l0.002-0.109l0.003-0.145l-0.014-0.085  l-0.077-0.28L37,32.398l-0.084-0.07l-0.087-0.072l-0.088-0.073l-0.068-0.031l-0.149-0.018l-0.09,0.007l-0.042,0.019l-0.061-0.064  L36.381,32.042z"> <title>Calca</title></path>
<path id="70" data-ng-click="$ctrl.openMap(2, '70', true, $event)" fill="none" stroke="#020202" stroke-width="0.3" stroke-miterlimit="10" d="M30.993,36.063  c0.007,0.026,0.028,0.043,0.035,0.051s0.164,0.152,0.164,0.152v0.115l0.05-0.002l0.125-0.015l0.129-0.031l0.094-0.036l0.049-0.024  l0.008-0.03l0.005-0.022c0,0,0.02-0.082,0.019-0.102s-0.019-0.081-0.019-0.081s0.125,0.025,0.299,0.057  c0.173,0.032,0.452,0.06,0.511,0.055c0.059-0.005,0.293-0.112,0.293-0.112l0.115-0.276c0,0,0.026,0.011,0.068,0.027  s0.05,0.016,0.108,0.031c0.058,0.015,0.155,0.026,0.218,0.031c0.063,0.005,0.149,0.001,0.197-0.003  c0.048-0.004,0.063-0.012,0.09-0.021c0.027-0.01,0.038-0.039,0.037-0.054s-0.005-0.241-0.005-0.241s0.036-0.182,0.044-0.213  c0.009-0.031,0.047-0.155,0.047-0.155s0.28,0.051,0.332,0.063c0.052,0.011,0.23,0.062,0.23,0.062l0.05,0.019  c0,0,0.024,0.008,0.055,0.014c0.031,0.007,0.046,0.005,0.112,0.006c0.066,0.001,0.07-0.005,0.113-0.009  c0.043-0.005,0.13-0.017,0.156-0.019s0.055,0.003,0.089,0.01s0.098,0.003,0.15,0.001c0.052-0.002,0.092-0.008,0.092-0.008  l0.345,0.23h0.965v0.85H36.8l0.383,0.322c0,0,0.362,0,0.432,0c0.069,0,0.091,0.025,0.091,0.025l0.06,0.089l0.069,0.081l0.099,0.107  l0.108,0.088l0.135,0.063l0.186,0.098l0.161,0.11l0.192,0.112l0.152,0.422l0.002,0.251v0.348l-0.231,0.036v0.199l-0.383,0.138  l-0.077,0.291l-0.214-0.276l-0.475-0.092v0.26l-0.306,0.276v0.506l0.368,0.061l0.184,0.077l0.031,0.245v0.276h-0.483v0.391  l-0.265-0.046l-0.102,0.207l-0.299,0.069v0.345l-0.319-0.021l-0.285-0.173c0,0-0.339-0.242-0.354-0.289s-0.329-0.252-0.329-0.252  s-0.345,0.015-0.49,0.015c-0.146,0-0.383,0-0.383,0h-0.414l-0.264-0.245h-0.132c0,0-0.278-0.245-0.408-0.322  s-0.176-0.169-0.176-0.169l-0.236-0.383c0,0-0.071-0.069-0.232-0.184c-0.161-0.115-0.146-0.175-0.146-0.175l-0.222-0.054  c0,0-0.329,0-0.451-0.046c-0.121-0.046-0.377-0.115-0.377-0.115l-0.712-0.092l-0.322-0.115c0,0-0.23-0.115-0.345-0.184  c-0.115-0.069-0.391-0.061-0.391-0.061l-0.276-0.054l-0.322-0.069c0,0-0.391-0.506-0.528-0.574  c-0.138-0.069-0.368-0.543-0.368-0.543v-0.261l0.23-0.115h0.368l0.345-0.207l0.253-0.161c0,0,0.23-0.115,0.299-0.115  s0.391-0.184,0.506-0.23s0.253-0.184,0.253-0.184l0.253-0.184l0.309-0.138L30.993,36.063z"> <title>Anta</title></path>
<path id="79" data-ng-click="$ctrl.openMap(2, '79', true, $event)" fill="none" stroke="#020202" stroke-width="0.3" stroke-miterlimit="10" d="M54.545,31.961l-0.138,0.574h-0.276l-0.194,0.285  l-0.611,0.105l-0.138,0.368l0.506,0.184v0.414h0.138v0.896h-0.23v0.299h-0.23c0,0-0.119,0.158-0.152,0.191  c-0.034,0.034-0.169,0.084-0.233,0.094s-0.12,0.129-0.12,0.129s-0.041,0.046-0.085,0.093s-0.176,0.137-0.176,0.137h-0.061  c0,0-0.036,0.011-0.051,0.044s-0.041,0.277-0.041,0.277l0.253,0.483l-0.391,0.092l0.005,0.038l0.11,0.858l0.276,0.138v0.46h-0.253  l-0.276,0.138v0.506h-0.483l-0.322-0.253v-0.368l-0.437,0.138l-0.253-0.483l-0.46,0.115v-0.391H49.03v0.276h-0.184v0.574  l-0.207-0.023l-0.184,0.414l-0.62-0.322h-0.322l-0.115-0.643h-0.46l0.023,0.781l0.276,0.184l-0.299,0.827v0.207h-0.643v-0.666  l-0.988,0.115l-0.069,0.345l0.253,0.207v0.23l-0.551,0.046v0.391h-0.574v-0.368l-0.03-0.032l-0.213-0.003V39.59h-0.447v-0.425  l-0.115-0.034l-0.414-0.253l-0.144-0.144l-0.184-0.195h-0.063v0.806l-0.352,0.077l-0.115,0.521l0.169,0.084l0.069,1.034h0.506  l-0.032,0.392h0.514v0.642l0.506-0.138v1.132l0.506,0.316h0.735l-0.084,0.643l0.222,0.161l0.276,0.483l0.414-0.115l0.368,0.597  h0.414l0.666-0.138l0.253-0.115c0,0,0.437,0.023,0.528,0s0.414-0.179,0.414-0.179l0.138-0.349l0.391-0.046  c0,0,0.437,0.161,0.506,0.161s0.253-0.115,0.391-0.115s0.46,0,0.46,0l-0.046-0.758l0.138-0.207c0,0,0.437-0.161,0.551-0.161  c0.115,0,0.345-0.172,0.368-0.178s0.092-0.328,0.092-0.328l0.483-0.069l0.276-0.023l0.046-0.413c0,0,0.161-0.116,0.253-0.093  c0.092,0.023,0.712,0.093,0.712,0.093s0.069-0.162,0.207-0.207c0.138-0.046,0.528-0.299,0.528-0.299s0.253,0,0.322,0.092  s0.253,0.207,0.253,0.207l0.551,0.207l0.184-0.093l0.299,0.735c0,0,0.299,0.288,0.368,0.19s0.528-0.19,0.528-0.19l0.85-0.161  l0.897-0.032l0.287,0.035l0.735,0.276l0.551-0.735l-0.919-0.551l1.471-1.746c0,0,0.437-0.491,0.861-0.624s0.675-0.203,0.675-0.203  v-0.643l1.128-1.011l0.125-0.782l-0.033-0.75l0.437-0.329l0.636-0.161l0.444-0.827l-0.781-1.011l0.597-1.425l-0.471-0.41  l-0.276-0.414l-0.276-0.123l-0.613,0.015l-0.184,0.199l-1.286,0.188l-0.277,0.001l-0.306-0.097l-0.72-0.123l-0.199,0.015  l-0.092,0.398l-1.379,0.046l-0.873-0.597l-1.501-0.184l-2.173-0.861l0.273,0.585l0.207,0.207v0.898  C54.547,31.961,54.545,31.961,54.545,31.961z"> <title>Quispicanchi</title></path>
<path id="73" data-ng-click="$ctrl.openMap(2, '73', true, $event)" fill="none" stroke="#020202" stroke-width="0.3" stroke-miterlimit="10" d="M57.796,47.647c0,0-0.241-1.014-0.264-1.06  s-0.207-0.333-0.207-0.391s-0.023-0.207,0-0.333s0.172-0.437,0.172-0.437l0.138-0.345c0,0,0.051-0.095,0.103-0.161  c0.052-0.065,0.377-0.475,0.407-0.513c0.03-0.038,0.156-0.195,0.156-0.195l-0.853-1.45l-0.721,0.136c0,0-0.298,0.074-0.353,0.094  s-0.145,0.063-0.16,0.079s-0.025,0.048-0.07,0.035s-0.226-0.132-0.226-0.132l-0.087-0.077l-0.299-0.735l-0.184,0.093l-0.551-0.207  c0,0-0.151-0.107-0.174-0.127s-0.081-0.087-0.095-0.097s-0.097-0.047-0.097-0.047s-0.036-0.01-0.067-0.015  c-0.031-0.005-0.129-0.012-0.129-0.012s-0.189,0.112-0.259,0.153s-0.162,0.094-0.208,0.115s-0.1,0.029-0.148,0.071  s-0.089,0.09-0.105,0.118s-0.027,0.05-0.027,0.05l-0.743-0.095c0,0-0.045,0.002-0.088,0.022c-0.043,0.02-0.133,0.074-0.133,0.074  l-0.046,0.413l-0.758,0.092l-0.092,0.328c0,0-0.286,0.162-0.314,0.168c-0.028,0.007-0.158,0.024-0.236,0.048  s-0.369,0.123-0.369,0.123l-0.138,0.207l0.046,0.758l-0.506,0.004l-0.344,0.111l-0.506-0.161l-0.391,0.046l-0.138,0.349  l-0.414,0.179H47.79l-0.253,0.115l-0.666,0.138l0.184,0.46l0.403,0.384c0,0,0.135,0.156,0.149,0.175s0.101,0.159,0.106,0.177  c0.005,0.017-0.017,0.064-0.017,0.098c0.001,0.034,0.022,0.099,0.065,0.148c0.043,0.048,0.121,0.121,0.121,0.121l0.283,0.589  l0.015,0.293l0.085-0.024l0.03-0.008l-0.023,0.391l0.161,1.08h0.23l-0.023,0.25h0.23v0.253h0.551l-0.092,0.85h0.574l0.161,0.551  h0.988l-0.069,1.034l0.345,0.161l0.827,0.712l0.62,0.092l0.023,0.23l0.735,0.138l0.161,0.046l0.184-0.506l0.437,0.023l0.23-0.276  h0.758c0,0,0.046-0.741,0.046-0.753s-0.092-0.109-0.023-0.23c0.069-0.12,0.063-0.299,0.063-0.299l0.27-0.304  c0,0,0.287-0.253,0.339-0.299c0.052-0.046,0.247-0.345,0.276-0.373c0.029-0.029,0.12-0.572,0.167-0.592s0.103-0.636,0.103-0.636  l0.092-0.674l1.16-1.031"> <title>Canchis</title></path>
<path id="76" data-ng-click="$ctrl.openMap(2, '76', true, $event)" fill="none" stroke="#020202" stroke-width="0.3" stroke-miterlimit="10" d="M17.926,5.154l0.506-0.199  c0,0-0.046-0.118,0-0.166s0.414-0.14,0.46-0.202c0.046-0.061,0.042-0.052,0.12-0.118c0.079-0.066,0.278-0.051,0.355-0.066  s0.873-0.107,0.873-0.107s0.309-0.123,0.415-0.199c0.106-0.077,0.198-0.138,0.244-0.169s0.429-0.184,0.49-0.184  c0.061,0,0.46,0,0.46,0l0.414-0.046c0,0,0.429-0.153,0.551-0.138c0.123,0.015,0.475-0.184,0.551-0.184s0.398-0.153,0.444-0.184  s0.521-0.214,0.582-0.26s0.243,0,0.243,0s0.201,0.245,0.201,0.306s0,0.398,0,0.398s0.031,0.092,0.031,0.169s0.031,0.237,0.031,0.237  s-0.046,0.161,0,0.207s0.158,0.219,0.158,0.219s0.041,0.072,0.148,0.148s0.306,0.107,0.352,0.123c0.046,0.015,0.46,0.23,0.46,0.23  s0.077,0.107,0.184,0.061s0.23,0,0.23,0s0.214,0.199,0.291,0.26s0.23,0.138,0.23,0.138s-0.061,0.061,0.077,0  s0.245-0.184,0.337-0.214c0.092-0.031,0.23-0.031,0.306-0.061s0.061,0,0.153-0.031s0.23-0.092,0.23-0.092l0.26-0.046l0.199,0.199  c0,0,0.015-0.061,0.23,0.092s0.327,0.18,0.327,0.18l0.898-0.043l0.322,0.075c0,0,0.169,0.14,0.214,0.216  c0.046,0.077,0.245,0.383,0.245,0.383s0.046,0.092,0.092,0.092s0.291-0.015,0.337-0.015s0.169-0.046,0.291-0.092  c0.123-0.046,0.306-0.123,0.368-0.199c0.061-0.077,0.138-0.092,0.153-0.184c0.015-0.092,0.444-0.337,0.444-0.337l0.444-0.245  c0,0,0.123-0.184,0.26-0.214c0.138-0.031,0.512-0.327,0.669-0.347s0.541-0.266,0.541-0.266l0.107-0.092c0,0,0.214-0.015,0.26-0.015  s0.245,0,0.245,0s0.383,0,0.429,0s0.475-0.015,0.475-0.015l-0.072,0.647c0,0-0.086,0.12-0.059,0.222s0.056,0.171,0.016,0.234  s-0.339,0.333-0.339,0.333S35.346,5.673,35.3,5.76s-0.093,0.15-0.116,0.233s-0.042,0.143-0.057,0.186s-0.061,0.184-0.061,0.184  l-0.03,0.16c0,0-0.059,0.236-0.056,0.373s-0.025,0.276-0.025,0.276l-0.069,0.402l-0.132,0.35c0,0-0.018,0.092-0.052,0.184  c-0.032,0.094-0.292,0.91-0.292,0.91s-0.12,0.212-0.137,0.258c-0.017,0.046-0.115,0.264-0.126,0.316s-0.385,0.844-0.385,0.844  l-0.023,0.304c0,0-0.402,0.391-0.402,0.408s-0.126,0.299-0.126,0.299l0.184,0.253l0.567,0.692c0,0,0.191,0.238,0.237,0.255  s0.126,0.069,0.126,0.069s0.086,0.247,0.086,0.304s-0.017,1.338-0.017,1.338h1.103l0.011,0.839l0.167,0.666l1.155-0.264l1.241,0.689  v1.333l0.138,0.827l0.645,0.567l1.653,0.123l0.46,0.368l-0.827,0.46l-0.506,0.965l-0.827,0.322l-0.306,0.276l0.077,1.057  l0.846,0.228l-0.105,0.105h-1.12L37.978,23l0.069,0.597l-0.276,0.08l-0.069,0.506h-0.287l-0.069,0.632l-0.253,0.092L37,25.16  l-2.515,0.103l-0.046,0.287l-0.31,0.218l-0.011,0.253l-0.23,0.069l-0.126,0.157l0.218,0.348l0.138,1.448l0.264,0.195v0.264  l0.241,0.161v0.632l0.402,0.391l1.023,0.069l0.138,0.839l0.425-0.046l0.172,0.069l0.057,0.781l-0.23,0.241l-0.279,0.457  l-0.192,0.121l-0.296,0.548l-0.202-0.322l-0.697-0.115l-0.069,0.345l-0.264,0.092l-0.103,0.276h-1.034v0.161l-0.253,0.069  l-0.161-0.345l-0.184-0.138l-0.184-0.345l-0.62-0.046l-0.023-0.18l-0.046-0.028l-0.115,0.028l-0.115-0.371l-1.287,0.138  l-0.115,0.712l0.138,0.643h0.253l0.138,0.597l0.161,0.138L30.9,34.557l0.069,0.506L30.901,35.5l0.034,0.23l-0.113,0.05  c0,0-0.096,0.043-0.112,0.05c-0.017,0.007-0.112,0.058-0.112,0.058l-0.162,0.118l-0.198,0.16l-0.162,0.089l-0.175,0.087l-0.17,0.083  l-0.117,0.041c0,0-0.147,0.045-0.169,0.055c-0.021,0.009-0.13,0.06-0.13,0.06l-0.253,0.161l-0.345,0.207H28.35l-0.23,0.115v0.261  l-0.559-0.461l-0.72-0.092l-0.536-0.054l-0.444-0.36c0,0-0.49-0.055-0.597-0.027s-0.741,0.016-0.83,0.022s-0.824,0.006-0.824,0.006  l-0.412,0.554l-0.354,0.089l-0.567,0.037l-0.598,0.131l-0.246,0.061l-0.336-0.015c0,0-0.128-0.087-0.194-0.212  s-0.511-0.678-0.511-0.678L19.709,35.5l-0.91-1.118l-0.615-0.62l0.125-0.146l-0.153-0.444l-0.781-1.134l-0.521-1.013l-0.276,0.155  l-0.153-0.521l-0.113-0.665l-0.071-0.882l-0.243-0.57l-1.028-0.763l-0.119-0.643l-0.862-0.643l-0.123-0.521l-0.551-0.928  l-1.071-0.056v-0.265l-0.676-1.202L10.68,22.02v-0.429L9.764,21l-0.493-0.513L9,19.505l0.064-1.224l0.362-0.131l0.341,0.004  l0.386,0.322l0.335,0.211c0,0,0.158,0.197,0.174,0.227c0.016,0.03,0.025,0.179,0.063,0.263s0.153,0.306,0.176,0.398  c0.023,0.092,0.069,0.161,0.069,0.161l0.191,0.276l0.139,0.105l0.152,0.063l0.115,0.138l0.367,0.128c0,0,0.162,0.09,0.249,0.116  s0.127-0.004,0.196,0.052s0.268,0.118,0.299,0.087s0.092-0.191,0.092-0.191s0.077-0.153,0.107-0.184  c0.031-0.031,0.169-0.138,0.169-0.138h0.253c0,0,0.1,0.069,0.237,0.123s0.414,0.138,0.414,0.138l0.13,0.038l0.322,0.008  c0,0,0.13-0.046,0.169-0.046s0.103,0.011,0.172-0.03s0.098-0.251,0.151-0.405c0.053-0.155-0.07-0.292,0.045-0.507  c0.115-0.214,0.107-0.406,0.115-0.46c0.008-0.054-0.031-0.161,0.015-0.199c0.046-0.038,0.237-0.092,0.237-0.092  s0.245-0.092,0.306-0.1c0.061-0.008,0.187-0.123,0.187-0.123s0.25-0.077,0.372-0.092s0.167-0.042,0.306-0.094  s0.391-0.09,0.399-0.128s-0.003-0.242-0.008-0.319c-0.005-0.078-0.007-0.255,0.008-0.286s0.015-0.161,0.015-0.207  c0-0.046-0.054-0.169-0.054-0.184s0.398-0.065,0.398-0.065l0.23-0.043h0.322c0,0,0.105-0.106,0.175-0.091  c0.07,0.015,0.208-0.008,0.254-0.047c0.046-0.038,0.092-0.161,0.092-0.161l-0.26-1.042c0,0-0.016-0.189-0.031-0.218  c-0.015-0.03-0.237-0.203-0.245-0.234c-0.008-0.031-0.107-0.161-0.107-0.161l-0.13-0.483l-0.169-0.429c0,0-0.373-0.679-0.373-0.678  s-0.133-0.188-0.133-0.188l0.069-1.095c0,0-0.023-0.276-0.046-0.268c-0.023,0.008-0.383,0.169-0.383,0.169s-0.153,0.031-0.268,0.031  s-0.084,0-0.214-0.015c-0.13-0.015-0.337-0.046-0.337-0.046l-0.314-0.1c0,0-0.031-0.069-0.038-0.092  c-0.008-0.023-0.031-0.153-0.015-0.184c0.015-0.031,0.191-0.567,0.191-0.567l-0.023-0.574l-0.207-0.123l-0.138-0.521l0.023-0.276  V8.899l0.024-0.329l0.268-0.751l0.184-0.291l0.559-0.521h0.827V6.292l0.3-0.46l0.274-0.364L17.926,5.154z"> <title>La Convención</title></path>
<path id="75" data-ng-click="$ctrl.openMap(2, '75', true, $event)" fill="none" stroke="#020202" stroke-width="0.3" stroke-miterlimit="10" d="M52.27,63.61  c-0.015,0.038-0.077,0.322-0.077,0.322l-0.169,0.46c0,0-0.084,0.47-0.076,0.483s0.36,0.436,0.388,0.558  c0.029,0.122,0.255,0.276,0.255,0.276s0.084,0.283,0.084,0.329c0,0.046,0.068,0.46,0.054,0.49c-0.015,0.03-0.1,0.23-0.146,0.291  s-0.069,0.153-0.161,0.253s0.006,0.216,0.023,0.306c0.016,0.09,0.046,0.13,0.035,0.166s0.264,0.179,0.295,0.194  s0.329,0.008,0.329,0.008s0.21,0.101,0.329,0.115s0.285,0.137,0.324,0.144c0.039,0.007,0.258,0.047,0.281,0.047  s0.151-0.101,0.169-0.124s0.112-0.144,0.112-0.144s0.026-0.238,0.026-0.299c0-0.061,0.077-0.214,0.077-0.214l0.352-0.429  l0.115-0.345c0,0,0.13-0.253,0.161-0.316c0.03-0.063,0.123-0.098,0.123-0.098l0.62-0.582c0,0-0.046-0.138-0.069-0.214  c-0.023-0.077-0.107-0.248-0.107-0.248s-0.154-0.893-0.177-0.939c-0.023-0.046-0.153-0.291-0.153-0.291l-0.13-0.274l-0.177-0.633  l-0.092-0.288c0,0-0.023-0.483,0-0.643c0.023-0.161,0.092-0.46,0.138-0.62c0.046-0.161,0.023-0.717,0.023-0.717  s0.23-1.076,0.232-1.236c0.002-0.161,0.136-0.85,0.067-1.103c-0.069-0.253,0.092-0.46,0.092-0.46l-0.092-0.294l-0.414-0.188  l-0.23-0.092c0,0-0.161,0-0.267-0.046l-0.321-0.081l-0.13-0.163l-0.132-0.141c0,0,0-0.19,0-0.282c0-0.092-0.161-0.643-0.161-0.643  l-0.177,0.064l-1.079,0.058l-0.214-0.429h-0.276v0.245l-0.988,0.184l-0.544-0.153l-0.276,0.306l-0.262-0.276l-0.228-0.521h-1.942  v-0.306l-0.356,0.153l-0.123-0.46l-0.643,0.123V54.25h-0.49v0.429h-0.429l-0.084-0.429h-0.406v0.46l-0.705-0.061v0.276l-0.368,0.092  l-0.123,0.521l-0.337,0.177l-0.153,0.527l-0.337,0.276l-0.051,0.13l-0.072,0.183h-0.368l-0.479-0.183l-0.379,0.024v0.398  l-0.306,0.061v0.429l0.081,0.216L41.322,57.8c0,0,0.218,0.122,0.217,0.136c0,0.014,0.02,0.06,0,0.104s0.078,0.314,0.086,0.334  c0.009,0.02,0.22,0.334,0.22,0.334s0.069,0.199,0.084,0.222s0.077,0.191,0.077,0.222s0.015,0.061,0.031,0.107  c0.015,0.046,0.023,0.069,0.084,0.138s0.13,0.1,0.13,0.1l0.153,0.1l0.169,0.008c0,0,0.111,0.044,0.193,0.072  c0.083,0.028,0.197,0.112,0.197,0.112s0.046,0.015,0.146,0.107s0.268,0.306,0.268,0.306s0.138,0.207,0.153,0.245  s0.054,0.23,0.054,0.23L43.553,60.8c0,0,0.008,0.011-0.092,0.069s-0.118,0.079-0.161,0.1s-0.225,0.168-0.291,0.199  c-0.066,0.031-0.176,0.123-0.245,0.146c-0.069,0.022-0.193,0.116-0.193,0.116l-0.204,0.117l-0.069,0.036l-0.267,0.294l0.013,0.096  l0.1,0.161c0,0,0.146,0.012,0.262,0.04s0.175,0.052,0.443,0.052s0.605,0.015,0.651,0.015s0.471,0.056,0.516,0.068  s0.457,0.124,0.457,0.124l0.238,0.061c0,0,0.115,0.015,0.123,0.046c0.008,0.031,0.475,0.674,0.475,0.674s-0.038,0.1,0.008,0.146  s0.046,0.115,0.107,0.084c0.061-0.031,0.146,0.031,0.222-0.031c0.077-0.061,0.13-0.027,0.172-0.11  c0.042-0.082,0.134-0.158,0.134-0.158s0.169,0.026,0.169-0.184s0.003-0.227,0.013-0.28c0.01-0.053,0.02-0.081,0.049-0.165  c0.029-0.083,0.06-0.168,0.125-0.271s0.073-0.149,0.119-0.18c0.046-0.031,0.081-0.081,0.115-0.084  c0.033-0.003,0.204,0.09,0.259,0.102c0.055,0.013,0.224,0.089,0.262,0.104c0.038,0.015,0.383,0.084,0.383,0.084l-0.008-0.237  c0,0-0.176-0.322-0.207-0.352c-0.031-0.031-0.038-0.061-0.038-0.1c0-0.038-0.107-0.214-0.115-0.283  c-0.008-0.069-0.017-0.084,0.015-0.214c0.032-0.13,0.061-0.291,0.061-0.291l0.015-0.092l0.329,0.092c0,0,0.308,0.064,0.333,0.073  s0.226,0.165,0.226,0.165l0.429,0.436l0.161,0.263l0.145,0.216c0,0,0.044,0.038,0.13,0.111c0.086,0.074,0.146,0.191,0.177,0.221  c0.031,0.031,0.098,0.014,0.168,0.074c0.071,0.061,0.038,0.11,0.199,0.171c0.161,0.061,0.111,0.108,0.214,0.092  c0.103-0.016,0.306-0.015,0.36,0s0.26,0.089,0.29,0.093c0.03,0.004,0.154,0.022,0.154,0.022l0.351-0.139l0.354-0.432l0.222-0.035  h0.283c0,0,0.146-0.008,0.184,0.008c0.038,0.015,0.222,0.084,0.222,0.084l0.169,0.031l0.207,0.123c0,0,0.138,0.115,0.161,0.13  s0.046,0.115,0.046,0.115l0.171,0.404l-0.124,0.253L52.27,63.61z"> <title>Espinar</title></path>
</svg>
