<?xml version="1.0" encoding="utf-8"?>
<svg xmlns="http://www.w3.org/2000/svg" xmlns:xlink="http://www.w3.org/1999/xlink" version="1.1" id="01" x="0px" y="0px" viewBox="0 0 74 71" enable-background="new 0 0 74 71" xml:space="preserve">
	<title>Amazonas</title>
<g>
	<path id="0104" data-ng-click="$ctrl.openMap(2, '0104', true, $event)" fill="none" stroke="#020202" stroke-width="0.3" stroke-miterlimit="10" d="M25.147,27.536h0.856   c-0.2,0.309-0.2,0.309-0.2,0.309l-0.067,0.468l0.267,0.468c0,0,0.033,0.234,0.367,0.267s1.67,0,1.67,0l0.367-0.434   c0,0,0.234-0.261,0.334-0.314s0.534,0,0.534,0s0.468-0.514,0.301,0c-0.167,0.514-0.134,0.281-0.167,0.514   c-0.033,0.234-0.033,0.25-0.033,0.526s0,0.476,0,0.476l0.067,0.468l0.17,0.334c0,0,0.064-0.067,0.198,0   c0.134,0.067,0.501,0.213,0.501,0.213l0.367,0.355c0.167-0.134,0.267-0.334,0.334-0.501c0.067-0.167,0.434-0.2,0.468-0.334   s0.033-0.134,0.033-0.134v-0.234l0.802,0.167c0,0,0.134-0.067,0.301-0.033s0.468,0.267,0.468,0.267s0.234,0.292,0.267,0.447   c0.033,0.154-0.134,1.223-0.134,1.223s-0.134-0.167-0.1,0.301c0.033,0.468,0.2,0.816,0.2,0.816v0.386l-0.267,0.134   c0,0-0.167,0.635-0.2,0.802c-0.033,0.167-0.067,0.301-0.134,0.635c-0.067,0.334-0.1,0.267-0.167,0.902s-0.267,0.367-0.067,0.635   c0.2,0.267,0.873,2.004,0.873,2.004l0.163,0.2c0,0,0.167,0.1,0.234,0.301c0.067,0.2,0.134-0.128,0.2,0.554s0.067,0.849,0.1,0.982   c0.033,0.134,0.167-0.434,0.167,0.534c0,0.968,0,0.968,0,0.968s-0.134,0.267,0,0.401c0.134,0.134-0.2,0.267,0.134,0.134   c0.334-0.134,0.468-0.167,0.534-0.334s0.401-0.398,0.534-0.249c0.134,0.149,0.768,0.316,0.768,0.316s0.167,0.033,0.301,0   c0.134-0.033,0.2-0.098,0.334-0.316c0.134-0.218,0.2-0.318,0.401-0.552s0.434-0.167,0.568-0.434   c0.134-0.267,0.401-0.501,0.401-0.601s0.1-0.434,0.1-0.434s0.467-0.161,0.584-0.415s0.318-0.454,0.418-0.621   s0.192-0.367,0.28-0.468c0.088-0.1,0.206-0.301,0.247-0.401s0.456-0.817,0.456-0.817l-0.1-0.935l-0.1-1.102   c0,0-0.039-0.151-0.415-0.452c-0.376-0.301-0.503-0.717-0.503-0.717s-0.15-0.38-0.15-0.586s-0.217-0.212-0.108-0.465   c0.108-0.252,0.108-0.612,0.108-0.612s-0.127-0.184-0.048-0.559c0.079-0.376,0.429-0.348,0.415-0.583   c-0.014-0.235-0.009-0.049,0.136-0.36c0.149-0.319,0.348-0.241,0.474-0.331c0.214-0.153,0.004-0.363,0.214-0.42   c0.21-0.057,1.012-0.525,1.012-0.525s0.053-0.702,0.065-0.978c0.013-0.276,0.057-0.444,0.063-0.651   c0.006-0.208,0.363-0.551,0.363-0.551s-0.113,0.276,0.326-0.075c0.438-0.351,0.496-0.223,0.586-0.35   c0.09-0.126,0.306-0.136,0.186-0.419c-0.119-0.283,0.004-0.409,0.004-0.409s0.226-0.076,0.225-0.301   c-0.001-0.225,0.033-0.858-0.215-1.076c-0.248-0.218-0.234-0.668-0.234-0.668s-0.017,0.023-0.067-0.234s-0.277-0.567-0.114-0.652   c0.163-0.085,0.016-0.666,0.248-0.784c0.232-0.118,0.395-0.318,0.332-0.469c-0.063-0.15-0.085-0.235-0.025-0.401   s0.065-0.068,0.213-0.351c0.148-0.283,0.148-0.55,0.148-0.55l-0.134-0.868c0,0,0.194-0.383,0.134-0.534   c-0.06-0.151-0.11-0.436,0.012-0.619c0.122-0.183-0.075-0.303-0.078-0.45c-0.003-0.146-0.006-0.786-0.169-1.011   c-0.163-0.225-0.23-0.209-0.288-0.376c-0.058-0.167-0.363-0.526-0.363-0.526s-0.296-0.109-0.43-0.175   c-0.134-0.067-0.331-0.181-0.32-0.416c0.011-0.235-0.064-0.535-0.064-0.535l-0.017-0.317l0.549-0.917V13.57   c0,0,0.134-0.301-0.067-0.401c-0.2-0.1-0.2-0.1-0.2-0.1l-0.768-1.436h-0.2c0,0-0.1-0.134-0.334-0.167   c-0.234-0.033-0.229-0.069-0.415-0.218c-0.186-0.149-0.186-0.149-0.186-0.149l-0.482-2.356c0,0,0.228-0.118,0.004-0.267   s-0.263-0.301-0.263-0.301l0.058-0.2l-0.058-1.803l-0.028-2.988l-0.2-0.401V2.348l-0.132-0.385l-0.367,0.063l-0.438,0.426   c0,0,0.013-0.025-0.225,0.25c-0.238,0.276-0.376,0.351-0.376,0.351c-0.225,0.213-0.513,0.213-0.513,0.213s-0.463,0.096-0.601,0.468   c-0.138,0.372-0.338,0.822-0.338,0.822l-0.313,0.589c0,0-0.426,0.125-0.551,0.326c-0.125,0.2-0.184,0.05-0.267,0.2   s-0.321,0.388-0.321,0.388s-0.164-0.117-0.307,0.18c-0.143,0.296-0.406,0.434-0.406,0.434s-0.013,0.013-0.025,0.288   c-0.013,0.276-0.276,0.413-0.276,0.413s-0.342,0.276-0.338,0.438s0.1,0.351-0.075,0.463c-0.175,0.113-0.376,0.2-0.376,0.2   s-0.15-0.096-0.113,0.234s0.125,0.505,0.125,0.505l0.501,0.263c0,0,0.109-0.067,0.075,0.15c-0.033,0.217,0.038,0.05-0.063,0.388   c-0.1,0.338,0.071,0.313-0.1,0.338c-0.171,0.025-0.213,0.05-0.551,0.188s-0.288-0.063-0.338,0.138s-0.163,0.338-0.163,0.338   l-0.313-0.175c0,0-0.075-0.038-0.075-0.25c0-0.213-0.025-0.313-0.088-0.651s-0.05-0.476-0.175-0.601   c-0.125-0.125-0.271-0.129-0.271-0.129s-0.058,0-0.23-0.083c-0.171-0.083-0.605-0.284-0.605-0.284   c-0.484,0.171-0.735,0.701-0.735,0.701s0.067,0.134,0.067,0.267c0,0.134,0.067-0.2,0,0.134c-0.067,0.334-0.067,0.334-0.067,0.334   l-0.025,0.626l-0.003,0.426c-0.135,0.25-0.473,0.751-0.473,0.751l-0.234,0.601l0.134,0.334l0.313,0.159   c0,0-0.013-0.058,0.021,0.175s0.033,0.234,0.033,0.234s-0.134,0-0.2,0.167c-0.067,0.167-0.042,0.25-0.255,0.626   c-0.213,0.376-0.213,0.376-0.213,0.376l0.079,0.426c0,0,0.447,0.058,0,0.401c-0.341,0.261-0.771,0.712-0.956,0.911   c-0.058,0.062-0.091,0.099-0.091,0.099s0.326,0.351,0.113,0.326s-0.447,0.175-0.447,0.175l0.167,0.267c0,0,0.121,0.175-0.033,0.167   s-0.355,0.192-0.355,0.192c-0.267,0-0.334,0.334-0.334,0.334l-0.067,0.267l-0.246,0.442l-0.067,0.2c0,0-0.276-0.417-0.154,0.092   s0.088-0.125,0.121,0.509c0.033,0.635,0.213,0.96,0.213,0.96s-0.079-0.025-0.18,0.075c-0.1,0.1-0.008,0.117-0.154,0.326   c-0.146,0.209-0.146,0.209-0.146,0.209s-0.342-0.017-0.255,0.192s0.088,0.409,0.088,0.409l-0.134,0.835l-0.088,0.292l-0.079,0.206   c0,0-0.134,0.169-0.2,0.303c-0.067,0.134,0.125,0.15-0.054,0.359c-0.18,0.209-0.204,0.134-0.302,0.301   c-0.099,0.167-0.186,0.092-0.165,0.367s-0.003,0.757-0.003,0.757s0.116-0.031,0.003,0.245c-0.113,0.276-0.178,0.083-0.113,0.276   C24.966,25.867,25.414,26,25.414,26s0.021,0.242,0.021,0.342s0.18-0.075,0.046,0.326s-0.134,0.401-0.134,0.401L25.147,27.536z"> <title>Condorcanqui</title></path>
	<path id="0102" data-ng-click="$ctrl.openMap(2, '0102', true, $event)" fill="none" stroke="#020202" stroke-width="0.3" stroke-miterlimit="10" d="M24.107,29.465l0.25,0.326l0.125,0.301   l0.397,0.785c-0.096,0.217,0.046,0.197,0,0.408c-0.046,0.21-0.004,0.335,0,0.486c0.004,0.15-0.077,0.025-0.005,0.401   c0.072,0.376,0.072,0.376,0.072,0.376s-0.102,0.447-0.057,0.624c0.045,0.177,0.099,0.344,0.045,0.528   c-0.054,0.184,0.106,0.031-0.06,0.366c-0.166,0.335-0.318,0.51-0.342,0.811c-0.024,0.301,0,0.745,0,0.745l-0.099,0.107l0.524,0.424   c0,0,0.209,0.085,0.006,0.206c-0.204,0.121-0.206,0.096-0.43,0.247c-0.224,0.15-0.181,0.375-0.181,0.375s-0.093,0.101-0.118,0.201   c-0.025,0.1-0.125,0.225-0.125,0.225s-0.134,0.125-0.029,0.351c0.104,0.225,0.029,1.102,0.029,1.102s-0.109-0.041-0.069,0.163   s-0.049,0.53-0.049,0.739c0,0.209,0,0.401,0,0.401l1.145,0.601l0.2,0.05c0,0,0.125,0.05,0.175,0.175   c0.05,0.125,0.2,0.2,0.225,0.301c0.025,0.1,0.28,0.342,0.28,0.342c0.196,0.159,0.372,0.334,0.497,0.434   c0.125,0.1-0.088,0.05,0.276,0.276c0.363,0.225,0.484,0.468,0.484,0.468s-0.259,0.359-0.284,0.434   c-0.025,0.075,0.071-0.008-0.25,0.125C26.416,43.5,26.416,43.5,26.416,43.5l-0.079,1.369c-0.163,0.238-0.225,0.25-0.225,0.626   c0,0.376,0.075,0.651,0.175,0.827c0.1,0.175,0.15,0.2,0.2,0.376c0.05,0.175,0.125,0.301,0.175,0.401s0.451,0.351,0.451,0.351   l0.159,0.125c0,0,0.292,0.326,0.367,0.351c0.075,0.025,0.075,0.05,0.175,0c0.1-0.05,0.351-0.075,0.351-0.075   s-0.025-0.075,0.225-0.276c0.25-0.2,0.401-0.451,0.401-0.451s0.225-0.225,0.276-0.376c0.05-0.15,0-0.25,0-0.25s0-0.025,0.326-0.15   c0.326-0.125,0.526-0.25,0.526-0.25s0.351-0.05,0.476-0.175c0.125-0.125,0.276-0.276,0.276-0.276s-0.175-0.175-0.175-0.276   s-0.05-0.451-0.05-0.451s-0.075-0.225,0.025-0.276c0.1-0.05,0.376-0.05,0.476-0.175c0.1-0.125,0.25-0.401,0.351-0.501   c0.1-0.1,0.301-0.25,0.476-0.351c0.175-0.1,0.476-0.276,0.476-0.276l0.551-0.276c0,0,0.301-0.09,0.326-0.27   c0.025-0.181,0.05-0.356,0.125-0.456c0.075-0.1,0.301-0.183,0.301-0.183l0.175-0.218l0.493-0.175l-0.167-1.06   c0,0-0.016-0.042-0.031-0.217c-0.015-0.174-0.041-0.47-0.048-0.547s-0.034-0.339-0.034-0.339l-0.187-0.434l-0.234-0.301   l-0.207-0.313l-0.182-0.458l-0.647-1.433l0.041-0.459c0,0,0.006,0.004,0.026-0.175c0.02-0.179-0.011-0.083,0.043-0.352   c0.055-0.268,0.169-0.773,0.197-0.903c0.028-0.13,0.001-0.029,0.06-0.282s0.2-0.802,0.2-0.802l0.267-0.134V33.17l-0.189-0.701   c0,0-0.02-0.249-0.016-0.299c0.004-0.05,0.104-0.117,0.104-0.117s-0.006,0.042,0.012-0.082c0.018-0.124,0.058-0.407,0.065-0.456   c0.006-0.049,0.035-0.281,0.041-0.347c0.007-0.066,0.064-0.215,0.015-0.338s-0.407-0.546-0.407-0.546s-0.165-0.163-0.328-0.167   c-0.163-0.005-0.163-0.005-0.163-0.005s-0.459-0.029-0.587-0.055c-0.128-0.027-0.353-0.073-0.353-0.073s0.039,0.286-0.033,0.367   c-0.073,0.081-0.073,0.081-0.073,0.081l-0.212,0.102c0,0-0.006-0.045-0.095,0.053c-0.089,0.098-0.018-0.06-0.089,0.098   s-0.137,0.281-0.184,0.341c-0.047,0.06-0.15,0.16-0.15,0.16l-0.186-0.18l-0.181-0.175l-0.699-0.213l-0.17-0.334l-0.022-0.154   l-0.045-0.313c0,0,0-0.1,0-0.2s0-0.434,0-0.434l0.004-0.13l0.01-0.103l0.018-0.136l0.071-0.239l0.096-0.276   c0,0,0.106-0.202,0.027-0.208c-0.078-0.006-0.078-0.006-0.078-0.006l-0.249,0.214l-0.319-0.023l-0.216,0.023l-0.127,0.102   c0,0-0.166,0.008-0.12,0.119s-0.331,0.381-0.331,0.381s-0.275,0.15-0.325,0.151s-1.469-0.004-1.469-0.004l-0.282-0.119   c0,0,0.045,0.08-0.085-0.148c-0.131-0.228-0.075-0.131-0.131-0.228c-0.055-0.097-0.137-0.239-0.137-0.239s-0.04-0.177,0-0.228   s-0.067-0.073,0-0.156c0.067-0.083,0-0.167,0-0.167l0.221-0.154c0,0-0.154,0.072-0.221,0c-0.067-0.072-0.083-0.072-0.2-0.072   c-0.117,0-0.301,0-0.301,0s-0.075-0.092-0.088,0c-0.013,0.092-0.046,0.142-0.079,0.309c-0.033,0.167-0.067,0.317-0.067,0.317   s-0.036,0.2-0.126,0.284c-0.091,0.083-0.124,0.167-0.124,0.167s-0.017-0.017-0.117,0.083c-0.1,0.1,0.017,0-0.1,0.1   c-0.117,0.1-0.367,0.284-0.367,0.284s0.025,0.134-0.017,0.259C24.107,29.465,24.107,29.465,24.107,29.465z"> <title>Bagua</title></path>
	<path id="0107" data-ng-click="$ctrl.openMap(2, '0107', true, $event)" fill="none" stroke="#020202" stroke-width="0.3" stroke-miterlimit="10" d="M23.989,48.91c0,0,0.132,0.368,0.05,0.505   c-0.082,0.137-0.088,0.764-0.088,0.764s-0.156,0.417,0,0.534c0.156,0.117,0.532,0.593,0.532,0.593s0.25,0.326,0.175,0.426   c-0.075,0.1-0.18,0.384-0.18,0.384l0.395,0.161c0,0,0.11,0.432,0.26,0.783c0.15,0.351,0.614,0.66,0.614,0.66   s0.165-0.196,0.389-0.115c0.224,0.081,0.7,0.457,0.775,0.532c0.075,0.075,0.376,0.401,0.438,0.526   c0.063,0.125,0.337,0.355,0.438,0.303c0.101-0.052,0.276-0.278,0.276-0.278s0.125-0.15,0.25-0.15c0.125,0,0.175-0.526,0.175-0.526   v-0.225l0.802-0.225l0.401,0.1c0,0,0.1,0.225,0.326,0.225c0.225,0,0.651-0.075,0.726,0c0.075,0.075,0.351,0.376,0.351,0.376   s0.802-0.15,0.776-0.25c-0.025-0.1-0.124-0.276,0.001-0.276s0.4,0.15,0.4,0.025c0-0.125,0-0.326,0-0.326l0.276-0.15   c0,0-0.025-0.2,0-0.276c0.025-0.075,0-0.373,0-0.373h0.476v-0.695v-0.485v-0.426l0.551,0.075v-0.401l0.301-0.125v-1.152l0.676-0.2   v-1.879h0.225v-0.401l0.501-0.125v-0.376v-0.526c0,0,0.351,0.05,0.451,0c0.1-0.05,0-1.177,0-1.177h0.326v-0.25h0.501V44.23   l0.326-0.237v-0.326l-0.225-0.125v-0.351l-0.351-0.15l0-0.554l-0.765-0.245c0,0,0.046-0.045-0.12-0.085   c-0.166-0.04-0.279,0-0.279,0l-0.256,0.249l-0.392,0.278l-0.276,0.108v-0.185v-0.401v-0.192v-0.25l-0.493,0.175l-0.175,0.218   c0,0-0.246,0.072-0.301,0.183c-0.055,0.11-0.125,0.456-0.125,0.456l-0.326,0.27l-0.551,0.276l-0.658,0.391l-0.366,0.323   l-0.279,0.413l-0.476,0.175c0,0-0.077,0.017-0.044,0.199c0.033,0.183,0.057,0.377,0.057,0.377s0.019,0.193,0.032,0.219   c0.013,0.026,0.155,0.207,0.155,0.207l-0.276,0.276l-0.476,0.175l-0.852,0.401l0.021,0.108l-0.021,0.142l-0.219,0.316l-0.119,0.152   l-0.203,0.237l-0.136,0.123l-0.14,0.127c0,0-0.065,0.059-0.075,0.104s0.109,0.029-0.01,0.045c-0.12,0.016-0.351,0.075-0.351,0.075   l-0.111,0.024l-0.207-0.14l-0.225-0.235l-0.201-0.153c0,0-0.209-0.143-0.229-0.158c-0.02-0.015-0.179-0.165-0.179-0.165   l-0.126-0.26c0,0-0.017-0.098-0.072-0.21s-0.079-0.15-0.099-0.181c-0.02-0.031-0.145-0.269-0.145-0.269l-0.073-0.271   c0,0-0.026-0.164-0.03-0.255c-0.004-0.091-0.005-0.158-0.005-0.158l0.006-0.16l0.042-0.193l0.118-0.188l0.007-0.026l0.064-0.242   l-0.054-0.067l-0.031-0.038l-0.046,0.188l-0.01,0.056l-0.019,0.038L26.155,44.9l-0.075-0.019v-0.05l0.038-0.025l0.031-0.025   l0.013-0.031c-0.025,0.088-0.088,0.301-0.088,0.301l-0.058-0.056v-0.05l0.033-0.006c0,0,0.169-0.038,0.157-0.019   c-0.013,0.019-0.025,0.069-0.025,0.069l-0.075,0.106l-0.031,0.047l-0.031,0.066l-0.014-0.066l-0.013-0.06l0.04,0.169l-0.069-0.188   l-0.015,0.417l-0.236,0.109l-0.157,0.048l-0.182,0.105c0,0-0.053,0.07-0.051,0.183s-0.008,0.293-0.017,0.327   c-0.009,0.035-0.029,0.099-0.048,0.137c-0.019,0.037-0.049,0.081-0.08,0.137c-0.03,0.056-0.052,0.097-0.072,0.157   c-0.02,0.061-0.036,0.145-0.074,0.215c-0.039,0.07-0.056,0.122-0.114,0.159c-0.057,0.037-0.056,0.057-0.141,0.105   c-0.085,0.048-0.137,0.091-0.152,0.106c-0.015,0.015-0.191,0.202-0.197,0.255s0.004,0.116,0.034,0.162   c0.03,0.047,0.047,0.063,0.064,0.098c0.016,0.035,0.071,0.128-0.011,0.242c-0.081,0.114-0.193,0.204-0.237,0.273   c-0.044,0.069-0.103,0.082-0.103,0.082s-0.079-0.026-0.12-0.007s-0.105,0.071-0.109,0.134s-0.01,0.198-0.011,0.248   c-0.002,0.05-0.021,0.088-0.026,0.102"> <title>Utcubamba</title></path>
	<path id="0105" data-ng-click="$ctrl.openMap(2, '0105', true, $event)" fill="none" stroke="#020202" stroke-width="0.3" stroke-miterlimit="10" d="M35.187,65.282l0.367-0.635l0.691-0.134   l0.636-0.21l0.276-0.024l0.468-0.1l0.401-0.301l0.431-0.167l0.137-0.468c0,0-0.14-0.568-0.137-0.668s-0.164-0.763-0.164-0.763   l-0.167-0.458l-0.334-0.482c0,0,0.033-0.401,0.033-0.501s-0.067-0.367-0.067-0.367s-0.334-0.267-0.401-0.284   C37.29,59.705,37,59.271,37,59.271l-0.119-0.434c0,0-0.259-0.614-0.292-0.758c-0.033-0.144-0.344-0.511-0.344-0.511l0.177-0.367   l0.267-0.367c0,0,0.184-0.1,0.192-0.434S37,55.598,37,55.598s-0.057-0.008,0-0.255s-0.043,0.026,0.124-0.378   s0.167-0.704,0.167-0.704s-0.434-0.014-0.401-0.307c0.033-0.294-0.644-1.095-0.644-1.095l-0.224-0.434c0,0-0.115-0.334-0.258-0.167   s-0.176,0.267-0.31,0.267c-0.134,0-0.434,0-0.434,0s-0.1-0.067-0.167-0.167c-0.067-0.1-0.427-0.334-0.427-0.334   s-0.14-0.134-0.174-0.234c-0.033-0.1-0.134-0.2-0.134-0.367s0-0.167,0-0.167l-0.543-0.15l-0.551-0.075v1.606h-0.476v0.648   l-0.276,0.15v0.326l-0.4-0.025l-0.001,0.276l-0.776,0.25l-0.351-0.376h-0.726l-0.326-0.225l-0.401-0.1l-0.802,0.225l-0.175,0.751   l-0.25,0.15l-0.276,0.278c0,0,0.102,0.264,0.156,0.312c0.054,0.048,0.208,0.312,0.208,0.312l0.274,0.255l0.147,0.171   c0,0,0.109,0.036,0.146,0.102c0.037,0.065,0.204,0.232,0.204,0.232s0.068,0,0.163,0.109c0.095,0.109,0.183,0.229,0.183,0.229   s0.173,0.079,0.162,0.192c-0.011,0.113,0.227,0.439,0.227,0.439l0.363,0.209l0.025,0.084c0,0,0.062,0.096,0.052,0.173   c-0.01,0.077-0.073,0.169-0.073,0.169l0.129,0.376c0,0,0.038,0.025,0.088,0.092s0.138,0.193,0.138,0.193s0.149,0.057,0.231,0.191   c0.082,0.134,0.282,0.301,0.282,0.301l0.134,0.1l0.167,0.033h0.217h0.134l0.184,0.033c0,0,0.038,0.042,0.167,0.05   c0.129,0.008,0.117,0.1,0.15,0.167c0.033,0.067,0.113,0.242,0.113,0.242l0.255,0.493l0.367,0.25l0.15,0.25l0.43,0.609   c0,0,0.02,0.437,0.037,0.481c0.017,0.045,0.184,0.913,0.184,0.913l0.1,0.167c0,0,0.05,0.134,0.083,0.234   c0.033,0.1,0.083,0.25,0.083,0.25l0.234,0.1l0.217,0.033l0.234,0.083c0,0,0.157,0.512,0.162,0.515   c0.005,0.003,0.189,0.47,0.189,0.47L35.187,65.282z"> <title>Luya</title></path>
	<path id="0103" data-ng-click="$ctrl.openMap(2, '0103', true, $event)" fill="none" stroke="#020202" stroke-width="0.3" stroke-miterlimit="10" d="M37.273,54.439c0,0,0.21-0.073,0.26,0   c0.05,0.073,0.2,0.248,0.2,0.248s0.225-0.1,0.301,0s0.626,0.2,0.701,0.15c0.075-0.05,0.133-0.05,0.142-0.15   c0.009-0.1,0.016-0.376,0-0.476s0-0.476,0-0.476s-0.159-0.476,0-0.626s0.384-0.301,0.384-0.301v-0.25l0.15-0.501   c0,0,0.125-0.05,0.163-0.125c0.038-0.075,0.564-0.15,0.564-0.15l0,0l0.451,0.495c0,0,0.125,0.106,0.2,0.106   c0.075,0,0.526-0.188,0.601-0.106c0.075,0.081,0.028,0.09,0.089-0.115s0.061-0.505,0.061-0.505l-0.096-0.676l-0.07-0.297   l-0.126-0.537l-0.071-0.301c0,0-0.213,0.109-0.413,0.184c-0.2,0.075-0.351-0.1-0.351-0.1s-0.25-0.067-0.276-0.083   c-0.025-0.017-0.316-0.097-0.316-0.097l-0.109-0.145l-0.138-0.732l0.052-0.503l0.01-0.243l-0.23-0.551l0.167-0.225l0.138-0.225   l0.129-0.284c0,0,0.238-0.117,0.296-0.171s0.398-0.23,0.398-0.23l-0.206-0.459l-0.088-0.142l-0.401-0.267   c0,0,0.047-0.257,0.057-0.429s-0.136-0.573-0.136-0.573l-0.188-0.192c0,0-0.092-0.125,0.088-0.301   c0.18-0.175,0.18-0.175,0.18-0.175l0.021-0.426l-0.021-0.309l0.296-0.05l0.271-0.332l0.126-0.085l0.209-1.042l0.167-0.067   c0,0,0.23-0.553,0.265-0.494s-0.092-0.148-0.095-0.295c-0.003-0.147-0.051-0.599-0.051-0.599l-0.389-0.481l-0.107-0.362   c0,0,0.064-0.176,0.003-0.476s-0.061-0.667-0.061-0.667s0.014,0.118,0.033-0.2s-0.267-0.768-0.267-0.768l-0.029,0.274l-0.489,0.892   l-0.152,0.219L39.407,38.9l-0.169,0.284l-0.148,0.197l-0.213,0.34l-0.083,0.114l-0.501,0.3l-0.1,0.434l-0.173,0.266l-0.122,0.161   l-0.106,0.174l-0.149,0.169l-0.261,0.135l-0.216,0.2L37,41.884l-0.177,0.272l-0.101,0.151l-0.113,0.112l-0.194,0.064l-0.11,0.003   l0,0.554l0.351,0.15v0.351l0.225,0.125v0.326l-0.326,0.237v0.264h-0.501v0.25h-0.326l0.032,1.087c0,0,0.004,0.104-0.108,0.108   c-0.112,0.004-0.375-0.018-0.375-0.018v0.902l-0.501,0.125v0.401h-0.225v1.879l-0.676,0.2v1.152l-0.301,0.125v0.401l0.543,0.15   v0.167l0.021,0.129l0.05,0.112l0.054,0.104l0.066,0.124l0.069,0.084l0.078,0.069l0.111,0.076l0.092,0.066l0.052,0.04l0.072,0.059   l0.089,0.099l0.101,0.104l0.047,0.036h0.434c0,0,0.105-0.01,0.169-0.091s0.141-0.176,0.141-0.176s0.076-0.069,0.119-0.035   c0.043,0.033,0.112,0.134,0.125,0.168s0.224,0.442,0.224,0.442l0.227,0.297l0.277,0.407c0,0,0.096,0.176,0.113,0.223   c0.017,0.047,0.042,0.165,0.041,0.195c-0.001,0.029,0.003,0.09,0.016,0.116c0.013,0.026,0.044,0.081,0.095,0.108   c0.051,0.028,0.143,0.06,0.143,0.06l0.147,0.023L37.273,54.439z"> <title>Bongará</title></path>
	<path id="0101" data-ng-click="$ctrl.openMap(2, '0101', true, $event)" fill="none" stroke="#020202" stroke-width="0.3" stroke-miterlimit="10" d="M43.333,53.13c0,0,0.26,0.556,0.286,0.631   c0.026,0.075,0.001,0.15,0.101,0.376c0.1,0.225,0.326,0.553,0.401,0.715s0.125,0.492,0.125,0.492s0.125,0.096,0,0.221   c-0.125,0.125-0.25,0.351-0.301,0.451s0.02,0.125-0.128,0.276s-0.395,0.351-0.484,0.426c-0.089,0.075-0.014,0.25-0.19,0.376   c-0.175,0.125-0.401,0.34-0.401,0.34s-0.225,0.035-0.426,0.16c-0.2,0.125-0.326,0-0.426,0.188c-0.1,0.188-0.2,0.283-0.351,0.298   c-0.15,0.015-0.25-0.14-0.426,0c-0.175,0.14-0.551,0.552-0.626,0.534c-0.075-0.018,0.025-0.256-0.175,0.001   c-0.2,0.257-0.432,0.357-0.492,0.507s0.059,0.05,0,0.301c-0.059,0.25,0.034,0.626,0,0.726s0.216,0.225,0.316,0.225   s0.125,0,0.125,0.15c0,0.15-0.075,0.2-0.125,0.401s-0.1,0.314-0.1,0.432s0.15,0.372,0.1,0.458c-0.05,0.086-0.05,0.086-0.05,0.086   s0.15,0.175,0.225,0.276s0.326,0.15,0.326,0.15h0.476c0,0,0.075,0.075,0.1,0.175c0.025,0.1,0.1,0.526,0.125,0.626   c0.025,0.1,0.038,0.342,0.038,0.342l-0.373,0.159l-0.412,0.175c0,0-0.217,0.207-0.242,0.282s-0.094,0.247-0.094,0.247   s-0.069,0.116-0.088,0.141s-0.244,0.351-0.244,0.351l-0.031,0.175l0.215,0.273l-0.065,0.465c0,0-0.232,0.263-0.222,0.294   c0.01,0.031-0.105,0.247-0.105,0.247l-0.061,0.166l0.15,0.326l0.376,0.582l0.157,0.313c0,0,0.044,0.081,0.05,0.1   C40.394,67.787,40.513,68,40.513,68s-0.232,0.238-0.232,0.257s-0.077,0.131-0.108,0.157s-0.068,0.1-0.13,0.157   c-0.063,0.056-0.188,0.106-0.188,0.106s-0.175,0.019-0.2,0c-0.025-0.019-0.176-0.041-0.216-0.025   c-0.04,0.015-0.146,0.046-0.183,0.066c-0.037,0.02-0.353,0.141-0.353,0.141s-0.163,0.033-0.273,0.063   c-0.109,0.031-0.39,0.067-0.453,0.043c-0.063-0.024-0.142-0.047-0.326-0.043c-0.184,0.004-0.371-0.018-0.432-0.007   c-0.061,0.011-0.363,0.007-0.363,0.007s-0.733,0.014-0.752,0.013s-0.219,0.018-0.375-0.007c-0.157-0.025-0.232-0.063-0.232-0.063   s-0.05-0.138-0.05-0.175c0-0.038-0.023-0.169-0.015-0.276c0.008-0.106-0.004-0.194,0.027-0.369   c0.031-0.175,0.031-0.182,0.038-0.338c0.006-0.157,0-0.213-0.025-0.319c-0.025-0.106-0.056-0.163-0.094-0.257   c-0.038-0.094-0.092,0.033-0.146-0.253c-0.054-0.286-0.123-0.455-0.136-0.474c-0.013-0.019-0.144-0.232-0.144-0.232   s-0.05-0.2-0.05-0.276s0-0.426,0-0.426l0.004-0.148l0.286-0.397l0.16-0.277l0.447-0.086c0,0,0.263-0.053,0.301-0.066   c0.038-0.013,0.137-0.045,0.194-0.064c0.057-0.019,0.385-0.127,0.385-0.127s0.248-0.018,0.276-0.024s0.309-0.066,0.369-0.079   c0.061-0.013,0.133-0.047,0.133-0.047s0.097-0.073,0.134-0.101c0.037-0.028,0.231-0.174,0.231-0.174l0.431-0.167l0.137-0.468   c0,0-0.106-0.465-0.109-0.484c-0.004-0.019-0.015-0.077-0.017-0.095c-0.003-0.018-0.011-0.119-0.016-0.148   s-0.017-0.098-0.028-0.148c-0.011-0.05-0.122-0.533-0.138-0.578c-0.016-0.045-0.042-0.116-0.054-0.149s-0.104-0.287-0.104-0.287   l-0.334-0.482l0.033-0.501l-0.067-0.367l-0.265-0.202l-0.056-0.039l-0.079-0.044l-0.081-0.074L37,59.271l-0.104-0.381l-0.03-0.09   l-0.234-0.588l-0.043-0.133l-0.067-0.139l-0.277-0.372l0.177-0.367l0.267-0.367l0.098-0.1c0,0,0.085-0.167,0.09-0.279   s0.025-0.315,0.027-0.334c0.002-0.019,0.025-0.169,0.025-0.169L37,55.598c0,0-0.046-0.025-0.017-0.166   c0.029-0.141,0.042-0.232,0.042-0.232l0.165-0.415l0.067-0.257l0.015-0.088c0,0,0.122-0.033,0.16-0.032   c0.038,0.001,0.075-0.002,0.1,0.032c0.025,0.034,0.2,0.248,0.2,0.248s0.103-0.035,0.127-0.038c0.024-0.004,0.074-0.03,0.124,0.004   c0.049,0.034,0.095,0.07,0.11,0.077c0.015,0.007,0.077,0.034,0.126,0.048c0.049,0.014,0.211,0.051,0.262,0.058   s0.166,0.015,0.181,0.015s0.093-0.025,0.124-0.043c0.032-0.019,0.084-0.053,0.089-0.12c0.004-0.067,0.007-0.117,0.007-0.117   l0.002-0.252l-0.008-0.078l-0.005-0.087c0,0-0.002-0.059-0.002-0.066c0-0.007,0-0.061,0-0.061l0.007-0.29   c0,0-0.036-0.129-0.043-0.162c-0.007-0.033-0.013-0.064-0.017-0.097c-0.004-0.033-0.013-0.157-0.009-0.191   c0.004-0.034,0.01-0.088,0.029-0.121s0.028-0.046,0.055-0.07c0.027-0.024,0.369-0.286,0.369-0.286v-0.25l0.15-0.501   c0,0,0.061-0.027,0.088-0.048c0.027-0.02,0.054-0.043,0.064-0.06c0.011-0.017,0.027-0.035,0.039-0.041   c0.012-0.007,0.076-0.031,0.076-0.031l0.114-0.031l0.345-0.064l0.256,0.281l0.195,0.214l0.141,0.092c0,0,0.036,0.028,0.126,0.001   c0.09-0.027,0.154-0.047,0.186-0.056c0.032-0.009,0.145-0.046,0.212-0.051c0.066-0.005,0.086,0.002,0.153,0.033   s0.174,0.101,0.174,0.101s0.075,0.097,0.085,0.113c0.009,0.016,0.085,0.072,0.091,0.085s0.041,0.079,0.057,0.097   c0.016,0.019,0.148,0.069,0.148,0.069l0.038-0.003l0.201-0.009l0.289,0.031l0.176,0.06c0,0,0.132,0.031,0.148,0.035   s0.171,0.083,0.21,0.103s0.144,0.072,0.144,0.072L43.333,53.13z"> <title>Chachapoyas</title></path>
	<path id="0106" data-ng-click="$ctrl.openMap(2, '0106', true, $event)" fill="none" stroke="#020202" stroke-width="0.3" stroke-miterlimit="10" d="M43.332,53.102l0.449,0.188l0.367-0.188   l0.105-0.054l0.102-0.188h0.249l0.781,0.898l0.271-0.159l0.067-0.117l0.108-0.033l0.36,0.401l0.242,0.238l0.154,0.404l0.307,0.331   l0.449,0.212l0.447,0.125l0.435,0.173l0.567-0.04l0.205,0.522l0.134,0.655c0,0,0.038,0.142,0.05,0.25   c0.013,0.109,0.05,0.319,0.05,0.319l0.363,0.19l0.321,0.276c0,0,0.293,0.192,0.28,0.246c-0.013,0.054,0.023,0.295-0.087,0.55   c-0.11,0.255-0.226,0.531-0.226,0.531l-0.201,0.534c0,0-0.15,0.342-0.217,0.326c-0.067-0.017-0.129,0.159-0.2,0.15   c-0.071-0.008-0.375-0.024-0.451-0.067c-0.076-0.043-0.319-0.173-0.319-0.173l-0.332-0.244l-0.225,0.017l-0.28,0.468   c0,0-0.011,0.274-0.113,0.317c-0.102,0.043-0.375,0.173-0.375,0.173s-0.042,0.103-0.069,0.145c-0.027,0.041-0.082,0.15-0.082,0.15   l-0.008,0.367l-0.245,0.507c0,0-0.147,0.194-0.11,0.269s-0.025,0.217-0.013,0.309c0.013,0.092-0.184,0.284-0.184,0.284   l-0.401,0.117c0,0-0.267,0-0.317,0.033c-0.05,0.033-0.447,0.284-0.447,0.284l-0.021,0.351l0.317,0.685c0,0,0.117,0.083,0.217,0.2   c0.1,0.117,0.374,0.217,0.374,0.217l-0.09,0.543l-0.2,0.125c0,0,0.001,0.131-0.167,0.008c-0.168-0.122-0.235-0.45-0.338-0.417   s-0.094-0.043-0.213-0.05s-0.289-0.025-0.443-0.008c-0.153,0.016-0.447-0.025-0.447-0.025s-0.288-0.208-0.367-0.184   c-0.079,0.024-0.564,0.083-0.583,0.008s-0.448-0.534-0.448-0.534s-0.618-0.334-0.685-0.367c-0.067-0.033-0.334-0.256-0.334-0.256   s-0.122,0.101-0.201,0.14c-0.078,0.039-0.293,0.134-0.293,0.134l-0.097-0.587l-0.061-0.307l-0.1-0.175h-0.476l-0.326-0.15   l-0.225-0.276l0.06-0.126l-0.104-0.369v-0.19l0.211-0.619l0.005-0.14c0,0-0.04-0.078-0.055-0.08   c-0.015-0.002-0.067-0.004-0.067-0.004l-0.298-0.152l-0.012-0.19l-0.026-0.393l0.037-0.349l-0.037-0.102l0.098-0.177l0.105-0.062   l0.183-0.195l0.161-0.183l0.046-0.051l0.072,0.073l0.053,0.012c0,0,0.037-0.021,0.044-0.026s0.26-0.23,0.26-0.23l0.223-0.211   l0.146-0.104c0,0,0.091-0.022,0.162,0.003c0.071,0.025,0.166,0.045,0.188,0.042c0.022-0.003,0.123-0.021,0.176-0.07   c0.053-0.049,0.094-0.092,0.125-0.144c0.031-0.052,0.064-0.126,0.098-0.151c0.034-0.025,0.071-0.045,0.134-0.052   c0.063-0.007,0.094,0.012,0.191-0.042c0.097-0.054,0.067-0.048,0.164-0.088s0.226-0.071,0.278-0.093   c0.052-0.022,0.159-0.12,0.188-0.145c0.029-0.025,0.123-0.106,0.164-0.138c0.041-0.032,0.101-0.071,0.123-0.096   c0.022-0.024,0.063-0.09,0.063-0.09s0.03-0.143,0.047-0.185c0.018-0.041,0.039-0.068,0.054-0.081s0.161-0.135,0.199-0.167   c0.037-0.032,0.206-0.184,0.206-0.184l0.143-0.161c0,0,0.017-0.084,0.034-0.132s0.079-0.163,0.079-0.163l0.122-0.193l0.117-0.143   l0.045-0.065c0,0,0.014-0.091-0.015-0.123s-0.098-0.416-0.155-0.524c-0.057-0.109-0.309-0.536-0.309-0.536l-0.156-0.36   l-0.019-0.104l-0.017-0.09l-0.054-0.127L43.332,53.102z"> <title>Rodríguez de Mendoza</title></path>
</g>
</svg>
