<?xml version="1.0" encoding="utf-8"?>
<svg xmlns="http://www.w3.org/2000/svg" xmlns:xlink="http://www.w3.org/1999/xlink" version="1.1" id="03" x="0px" y="0px" viewBox="0 0 74 71" enable-background="new 0 0 74 71" xml:space="preserve">
	<title>Apurímac</title>
<g>
	<path id="0305" data-ng-click="$ctrl.openMap(2, '0305', true, $event)" fill="none" stroke="#020202" stroke-width="0.3" stroke-miterlimit="10" d="M54.298,27.849l0.763-0.555v-2.497l0.936-0.624   V23.34l1.561,0.555h2.497l1.318,0.902l2.636,1.179l0.52,1.058l0.156,0.728l1.591,1.522l0.879,1.882l0.703,1.954l0.624,1.977   l-0.243,1.224c0,0-0.688,1.3-0.899,1.928c-0.211,0.628-1.182,5.344-1.182,5.344l-1.867,0.963l-3.266,4.308l-3.329,1.665   l-0.191-2.774l1.196-0.381l0.26-1.196l-0.52-0.676c0,0-0.572,0.52-0.936,0.52c-0.364,0-0.832-0.104-0.832-0.104l-0.364-0.78   l-0.988,0.364l0.156-1.457l-0.416-0.52h-0.763V42.64l-0.277-0.503h0.902l1.02,0.341l1.13,0.075l0.069-0.971l0.902-0.902v-2.15   l-1.11-0.694H56.17l-0.347-1.595H55.13v-1.595l-0.694,0.069l0.416-2.636l-0.902-0.069L54.298,27.849z"> <title>Cotabambas</title></path>
	<path id="0304" data-ng-click="$ctrl.openMap(2, '0304', true, $event)" fill="none" stroke="#020202" stroke-width="0.3" stroke-miterlimit="10" d="M17.191,54.708   c0.052-0.156,0.832-0.884,0.832-0.884v-0.572c0,0-0.26-0.312,0-0.572c0.26-0.26,0.78-1.04,0.78-1.04v-0.624   c0,0,0.572-0.728,0.572-0.884c0-0.156,0-0.78,0-0.78l0.728-0.416l0.26-0.572v-0.468l0.936-0.468l0.676-0.52   c0,0-0.416-0.832-0.416-1.04s0-0.936,0-0.936s0-0.988,0.052-1.248c0.052-0.26,0-0.624,0-0.624l-1.144-0.312l0.312-0.676   c0,0,0.156-0.468,0.156-0.676s0-1.248,0-1.248l-0.156-0.676l0.52-0.52l0.26-0.676v-0.988l0.416-0.676l0.26-0.26v-1.3v-0.78   c0,0,0.572-0.104,0.624-0.26c0.052-0.156,0-0.978,0-0.978l-0.26-0.218l0.936-0.364h0.884l0.659-0.572l0.329-0.832v-0.468   l0.615-0.364l0.429-0.572h0.568c0,0,0.312-0.208,0.52-0.26c0.208-0.052,0.728,0,0.728,0s1.353-0.624,1.405-0.416   c0.052,0.208,0.572,0.728,0.728,0.936c0.156,0.208,0.832,0.728,0.832,0.728s0.208,0.293,0.364,0.771   c0.156,0.478,0.52,0.894,0.52,0.894l0.624,0.052c0,0,0.364-0.208,0.52-0.104c0.156,0.104,0,2.445,0,2.445l0.624,0.312   c0,0,0.312,0.135,0.26,0.432c-0.052,0.297,0.116-0.015,0.006,0.921c-0.11,0.936,0.082,1.248,0.038,1.873   C34.149,38.842,34.2,39.31,34.2,39.31s-0.363,0.156-0.519,0.26c-0.156,0.104-0.26,0.104-0.468,0.468   c-0.208,0.364-0.468,0.433-0.468,0.433s-0.468,0.087-0.468,0.347c0,0.26,0,2.081,0,2.081l0.208,0.416l0.78,0.676   c0,0,0.156,0.52,0,0.832c-0.156,0.312-0.364,0.676-0.364,0.676l-0.676,0.78v1.353l0.936,0.416c0,0,0.468,0.26,0.468,0.572   c0,0.312-0.052,0.832-0.052,0.832s0.518-0.052,0.623,0.052c0.105,0.104,0.313,1.006,0.261,1.023   c-0.052,0.017,0.624,0.381,0.624,0.381s0.364,0.676,0.364,0.832c0,0.156,0,0.624,0,0.624l-0.52,0.624v0.624l0.208,1.092   c0,0,0,0.624-0.052,0.78c-0.052,0.156-0.104,0.208-0.156,0.468c-0.052,0.26-0.312,0.572-0.312,0.572l-0.52,0.208   c0,0-0.468,0-0.676,0c-0.208,0-0.572,0.312-0.624,0.468c-0.052,0.156-1.353,0.884-1.353,0.884s-0.624,0.208-0.936,0.364   c-0.312,0.156-1.214,0.468-1.214,0.468l-1.855,0.676c0,0-0.954,0.035-1.231,0.225c-0.277,0.191-0.85,0.347-0.85,0.347l-0.954,0.543   l-1.353-0.647l-0.659-0.486l-0.139,0.798l-0.104,0.59l-0.416,0.555l-0.454,0.51l-0.829,0.392l-0.694,0.798l-0.768,0.798   l-0.515,0.242l-0.139,0.46l-0.833-0.806l-0.589-0.843l-0.804-0.642l-0.305-0.388v-1.17l-0.173-0.945v-0.496   c0,0,0.37-0.333,0.566-0.491c0.197-0.158,0.821-0.609,0.821-0.609l0.312-0.381l-0.52-1.665l0.035-0.451L17.191,54.708z"> <title>Aymaraes</title></path>
	<path id="0303" data-ng-click="$ctrl.openMap(2, '0303', true, $event)" fill="none" stroke="#020202" stroke-width="0.3" stroke-miterlimit="10" d="M34.2,39.31l1.25,0.676l0.403-0.338l1.626,0.824   c0,0,0.728,0.971,0.728,1.179c0,0.208,0.277,0.763,0.277,0.763l0.208,0.902c0,0,0.555,0.832,0.624,1.04   c0.069,0.208,0.763,1.144,0.763,1.144h0.416l1.04-0.312l0.347,0.312h0.512l0.529-0.381c0.555-0.277,1.266-0.624,1.266-0.624   l0.399,0.069l0.59,0.694c0,0-0.312,0.832,0,1.318s0.659,1.11,0.659,1.11h0.694h1.124h0.332v-1.318c0,0-0.277-0.347,0-0.555   c0.277-0.208,0.277-0.208,0.277-0.208l0.416-0.555c0,0-0.277-0.555,0-0.763s0.381-0.416,0.607-0.416   c0.225,0,0.642,0.069,0.642,0.069s0.069,0.139,0.347,0c0.277-0.139,0.364-0.442,0.364-0.442h0.399c0,0,0.416-0.39,0.624-0.39   c0.208,0,0.208,0,0.208,0l1.248-0.555l1.179,0.087v0.884h0.763l0.416,0.52l-0.135,1.26l0.967-0.168l0.364,0.78   c0,0,0.594,0.162,0.832,0.104c0.238-0.058,0.936-0.52,0.936-0.52l0.52,0.676l-0.26,1.196l-1.196,0.381l0.191,2.774h-0.763   c0,0-0.948,0.128-1.04,0.173s-0.451,0.447-0.451,0.447l-0.719,0.802l-0.91,0.936l-0.312,0.59l-0.381,0.659l0.121,0.336v0.912   l0.26,0.694l-0.035,0.486c0,0-0.262,0.332-0.275,0.439c-0.013,0.107-0.072,0.602-0.072,0.602l-2.081,0.971l-1.153-0.199   l-0.546,0.65l-0.971,0.277l-0.856-0.271l-0.628-0.143l-1.073-0.315l-0.46-0.139l-0.833-0.341l-1.525-0.248l-0.598-0.036   l-0.337-0.045l-0.418,0.531l-0.182,0.26l-0.234,1.37l-0.173,0.416l-0.227,0.338c0,0-0.189,0.078-0.328-0.026   c-0.139-0.104-0.659-0.694-0.659-0.694s-0.312-0.243-0.451-0.347s-0.38-0.292-0.38-0.292s0.034,0.015-0.174-0.055   s-0.173-0.173-0.52-0.243s-0.659-0.069-0.832-0.173s-0.486-0.312-0.624-0.451s-0.381,0-0.381-0.312s0.31-0.486,0.068-0.624   s-0.068-0.208-0.415-0.381c-0.347-0.173-0.555-0.277-0.676-0.347c-0.121-0.069-0.243-0.208-0.538-0.208c-0.295,0-0.295,0-0.295,0   l0.312-0.572l0.187-0.674l0.021-0.574l-0.163-0.855l-0.045-0.237v-0.624l0.34-0.408l0.18-0.217v-0.624l-0.364-0.832l-0.624-0.381   L34.2,49.506l-0.623-0.052l0.046-0.624l-0.046-0.386l-0.268-0.295l-1.084-0.515v-1.353l0.676-0.78l0.364-0.676   c0,0,0.104-0.322,0.052-0.577c-0.052-0.255-0.346-0.51-0.44-0.591s-0.392-0.34-0.392-0.34L32.276,42.9v-2.081   c0,0,0.055-0.218,0.262-0.282c0.206-0.065,0.249-0.065,0.335-0.128c0.086-0.063,0.162-0.101,0.251-0.235   c0.089-0.135,0.138-0.261,0.247-0.369c0.109-0.107,0.169-0.149,0.24-0.191C33.681,39.571,34.2,39.31,34.2,39.31z"> <title>Antabamba</title></path>
	<path id="0307" data-ng-click="$ctrl.openMap(2, '0307', true, $event)" fill="none" stroke="#020202" stroke-width="0.3" stroke-miterlimit="10" d="M37.732,40.825c0,0,0.543-0.352,0.751-0.352   s0.832-0.104,0.936-0.173c0.104-0.069,0.52-0.486,0.52-0.486l0.347-0.503c0,0,0.035-0.052,0.277-0.191   c0.243-0.139,0.277-0.139,0.52-0.312c0.243-0.173,0.451-0.277,0.659-0.59c0.208-0.312,0.381-0.659,0.381-0.659l0.104-0.624   l-0.59-0.971c0,0,0.312-0.173,0.381-0.277s0.277-0.347,0.381-0.59s0.139-0.347,0.347-0.624c0.208-0.277,0.139-0.243,0.451-0.416   c0.312-0.173,0.728-0.416,0.728-0.416l0.416-0.614c0,0,0.173-0.426,0.277-0.6s-0.069-0.139,0.208-0.347   c0.277-0.208,0.069-0.104,0.59-0.347s0.486-0.158,0.624-0.339c0.139-0.181,0.243-0.424,0.243-0.424s0.243-0.243,0.416-0.277   c0.173-0.035,0.867-0.347,0.867-0.347v-0.832c0,0-0.104-0.397-0.208-0.597c-0.104-0.2-0.763-0.131-0.728-0.582   s0.035-0.52,0.208-0.624s-0.277,0.035,0.347-0.416c0.624-0.451,0.728-0.451,0.971-0.624s0.832-0.728,0.832-0.728s0.069,0,0.555,0   s0.52,0.173,0.971,0.208c0.451,0.035,0.659,0.104,0.832,0.104s0.798,0.069,0.936,0.208c0.139,0.139,0.312,0.381,0.486,0.486   s0.347,0.243,0.52,0.381c0.173,0.139,0.139,0.173,0.277,0.347s0.677,0.793,0.677,0.793l-0.295,3.542l0.902,0.069l-0.416,2.636   l0.694-0.069v1.595c0,0,0.659-0.158,0.694,0c0.034,0.158,0.347,1.595,0.347,1.595h0.763l1.11,0.694v2.15l-0.902,0.902l-0.069,0.971   l-0.555-0.037l-0.575-0.038l-0.552-0.184l-0.468-0.156H54.02l0.277,0.503l-1.179-0.087l-1.248,0.555h-0.208l-0.367,0.179   l-0.257,0.211h-0.399l-0.127,0.241l-0.237,0.201l-0.177,0.059l-0.17-0.059l-0.642-0.069l-0.282,0.128l-0.22,0.201   c0,0-0.202,0.191-0.213,0.265s0.006,0.29,0.006,0.29l0.102,0.295l-0.207,0.276l-0.209,0.279l-0.209,0.157l-0.069,0.051   l-0.118,0.185c0,0-0.008,0.117,0.02,0.185c0.028,0.069,0.098,0.185,0.098,0.185v1.318h-2.15l-0.154-0.272   c0,0-0.16-0.275-0.177-0.304s-0.159-0.264-0.18-0.298c-0.021-0.034-0.182-0.299-0.182-0.299l-0.075-0.21   c0,0-0.035-0.136-0.029-0.281s0.138-0.763,0.138-0.763l-0.354-0.416l-0.236-0.277l-0.399-0.069l-1.266,0.624l-0.529,0.381h-0.512   l-0.347-0.312l-1.04,0.312h-0.416l-0.763-1.144l-0.624-1.04l-0.208-0.902l-0.242-0.584l-0.036-0.179L37.732,40.825z"> <title>Grau</title></path>
	<path id="0301" data-ng-click="$ctrl.openMap(2, '0301', true, $event)" fill="none" stroke="#020202" stroke-width="0.3" stroke-miterlimit="10" d="M29.363,28.916v-0.582c0,0-0.468-0.208-0.26-0.26   c0.208-0.052,0.312,0.364,0.572,0c0.26-0.364,0.26-0.416,0.572-0.572c0.312-0.156,0.624-0.312,0.624-0.312l0.624-0.433   c0,0,0.572-0.087,0.728-0.243c0.156-0.156,0.208-0.208,0.468-0.364c0.26-0.156,0.104,0.156,0.52-0.208   c0.416-0.364,0.416-0.156,0.676-0.416c0.26-0.26,0.572-0.312,0.78-0.312c0.208,0,0.052,0.26,0.416,0   c0.364-0.26,0.936-0.572,0.936-0.572l0.156-0.832c0,0,1.072-0.624,0.822-0.988c-0.25-0.364-0.302-0.78-0.458-0.78   c-0.156,0-0.416,0.104-0.572,0c-0.156-0.104-1.04-0.364-1.04-0.676c0-0.312-0.26-0.78-0.26-0.78s-0.364-0.364-0.416-0.52   c-0.052-0.156-0.052-0.26-0.26-0.572c-0.208-0.312-0.624-0.832-0.624-0.832s-0.338-0.26-0.325-0.26c0.013,0,0.482,0.156-0.013,0   c-0.495-0.156-0.235-0.104-0.807-0.312c-0.572-0.208-0.364-0.208-0.832-0.416c-0.468-0.208-0.052-0.052-0.468-0.208   c-0.416-0.156-0.572-0.416-0.728-0.468c-0.156-0.052-0.676-0.338-0.676-0.338l-0.26-0.442h0.416l0.624-0.416l0.347-0.187   c0,0,0.538-0.073,0.85,0.031c0.312,0.104,0.728,0,0.728,0l0.642-0.031l0.178-0.309l0.242-0.421l0.395-0.435   c0,0,0.468-0.156,0.676-0.26c0.208-0.104-0.208-0.104,0.208-0.104c0.416,0,0.798-0.035,0.798-0.035s0.971-0.035,1.127,0   c0.156,0.035,0.78-0.015,0.78-0.015s0.52,0.054,0.728,0s-0.312-0.062,0.468-0.054c0.78,0.008,0.78,0.008,0.78,0.008   s0.312,0.46,0.572,0.669c0.26,0.208,0.26,0.208,0.26,0.208v0.302c0,0,0.621,0.042,0.753,0c0.131-0.042,0.114-0.01,0.357,0   c0.243,0.01,0.607,0.01,0.607,0.01s0.052,0.052,0.416,0.104c0.364,0.052,0.104,0,0.364,0.052c0.26,0.052-0.052,0,0.26,0.052   c0.312,0.052,0.78,0.52,0.78,0.52s0.243,0.35,0.572,0.635c0.329,0.284,0.832,0.926,0.832,0.926s0.416,0.334,0.572,0.505   c0.156,0.171,0.243,0.518,0.624,0.795c0.381,0.277,0.728,0.156,0.728,0.156l0.624,0.121c0,0,0.209-0.067,0.547,0.036   c0.338,0.103,0.019,0.216,0.702,0.415c0.683,0.199,1.144,0.364,1.144,0.364s0.156,0.312,1.144,0.468   c0.988,0.156,1.595,0.104,1.595,0.104s0.087,0,0.416,0c0.329,0,0.913,0.335,1.162,0.52c0.249,0.186,0.524,0.416,0.524,0.416   l0.534,0.867c0,0,0.104,0.208,0.399,0.381c0.295,0.173,0.26,1.561,0.26,1.561l-0.936,0.624v2.497l-0.763,0.555l-0.052,0.62   l-0.954-1.14l-0.52-0.381l-0.486-0.486L51.793,26.3c0,0-0.162-0.012-0.443-0.046c-0.281-0.034-0.832-0.104-0.832-0.104   l-0.558-0.147l-0.968-0.061L48.16,26.67l-0.971,0.624l-0.299,0.248l-0.048,0.168l-0.157,0.188l-0.035,0.572l0.081,0.126l0.632,0.32   l0.208,0.597v0.832L46.973,30.6l-0.452,0.18l-0.234,0.191l-0.157,0.297l-0.238,0.265l-0.298,0.123l-0.173,0.078l-0.326,0.154   L44.83,32.08l-0.157,0.15l-0.235,0.574l-0.51,0.837l-0.91,0.521l-0.269,0.311l-0.126,0.179l-0.221,0.445c0,0,0,0.066-0.191,0.328   c-0.191,0.262-0.191,0.262-0.191,0.262l-0.381,0.277l0.516,0.85c0,0,0.053,0.247,0.031,0.377c-0.022,0.131-0.061,0.368-0.061,0.368   l-0.192,0.351c0,0-0.04,0.117-0.19,0.308c-0.15,0.191-0.419,0.422-0.419,0.422s-0.343,0.25-0.493,0.332   c-0.15,0.082-0.379,0.214-0.379,0.214l-0.166,0.124l-0.226,0.328c0,0-0.19,0.244-0.243,0.296s-0.298,0.283-0.298,0.283l-0.1,0.083   l-0.352,0.098h-0.264l-0.321,0.076h-0.173c0,0-0.197,0.13-0.269,0.17c-0.072,0.04-0.309,0.182-0.309,0.182l-0.254-0.352   l-0.36-0.182l-0.622-0.315l-0.644-0.326l-0.403,0.338L34.2,39.31l-0.024-0.52l0.008-1.062l-0.056-0.578l0.026-0.805l0.038-0.507   l-0.043-0.257l-0.007-0.099l0.011-0.138l-0.04-0.145l-0.106-0.129l-0.742-0.389l0.048-2.287c0,0-0.134-0.214-0.264-0.174   c-0.13,0.04-0.304,0.12-0.304,0.12l-0.624-0.052l-0.316-0.451l-0.133-0.261l-0.299-0.722l-0.136-0.231l-0.244-0.193l-0.275-0.23   l-0.135-0.121l-0.294-0.325l-0.253-0.288l-0.266-0.333l-0.093-0.175L29.363,28.916z"> <title>Abancay</title></path>
	<path id="0302" data-ng-click="$ctrl.openMap(2, '0302', true, $event)" fill="none" stroke="#020202" stroke-width="0.3" stroke-miterlimit="10" d="M8.451,26.531c0,0,1.347,1.681,1.595,1.873   c0.249,0.192,0.853,0.68,0.981,0.947c0.129,0.267-0.285,1.194-0.165,1.545c0.12,0.352,1.555,2.02,1.555,2.02l1.117,1.16   l0.188,1.749v0.832l-0.069,0.971l1.04,2.219l1.942,2.636l1.02,1.662l-0.493,0.102l-0.11,1.704l-0.832,0.832l-0.59,1.11   l-0.237,0.725l0.04,0.94l0.231,1.665l0.52,0.798l0.288,0.839l0.232,1.416l0.312,0.347l1.006-0.798v-0.572l-0.103-0.393l0.883-1.22   v-0.624l0.572-0.884v-0.78l0.728-0.416l0.26-0.572v-0.468l0.936-0.468l0.676-0.52l-0.416-1.04l0.052-2.809l-1.144-0.312   l0.368-0.858l0.1-0.494v-1.248l-0.156-0.676l0.52-0.52l0.26-0.676v-0.988l0.416-0.676l0.26-0.26v-2.081l0.624-0.26v-0.978   l-0.26-0.218l0.936-0.364h0.884l0.659-0.572l0.329-0.832v-0.468l0.615-0.364l0.429-0.572h0.568l0.52-0.26h0.728l1.092-0.459v-0.582   l0.261-0.197l0.218-0.299c0,0,0.091-0.155,0.225-0.233s0.911-0.488,0.911-0.488l0.518-0.359c0,0,0.526-0.108,0.627-0.175   c0.101-0.068,0.323-0.271,0.323-0.271l0.246-0.161l0.163-0.04c0,0,0.274-0.098,0.315-0.133c0.041-0.035,0.203-0.163,0.203-0.163   l0.355-0.163c0,0,0.191-0.175,0.304-0.244c0.113-0.069,0.382-0.171,0.46-0.18s0.176-0.065,0.244,0   c0.068,0.065,0.134,0.108,0.181,0.087c0.047-0.022,1.105-0.672,1.105-0.672l0.156-0.832l0.645-0.488c0,0,0.282-0.311,0.195-0.46   c-0.087-0.149-0.259-0.512-0.259-0.512s-0.106-0.331-0.294-0.301c-0.188,0.029-0.391,0.031-0.391,0.031l-0.888-0.41l-0.183-0.149   l-0.05-0.072c0,0-0.071-0.377-0.108-0.472c-0.037-0.096-0.175-0.391-0.175-0.391l-0.416-0.52c0,0-0.095-0.321-0.211-0.496   c-0.116-0.174-0.527-0.723-0.527-0.723l-0.262-0.275l-0.21-0.171l-1.322-0.552l-1.01-0.484l-0.516-0.369l-0.676-0.338l-0.529-0.248   l-1.048-0.118l-2.212-0.103l-1.578-0.162l-1.41-0.499l-1.719-0.343l-1.297-0.362l-0.734,0.255l-0.187,0.076l-0.089,0.489v0.832   c0,0-0.431,1.326-0.446,1.401s-0.169,0.755-0.169,0.755l0.754,0.86l0.486,1.873l-0.098,0.18l-0.274,0.133l-0.31,0.064l-0.172-0.006   l-0.176-0.058l-0.373-0.221l-0.176-0.085l-0.988-0.007l-0.347,0.59c0,0-0.487-0.207-0.664-0.426s-0.301-0.38-0.347-0.37   c-0.046,0.01-0.061,0.178-0.149,0.192c-0.088,0.014-0.251-0.027-0.251-0.027l-0.462,0.041l-0.486,0.59v1.734l-0.347,0.832v1.69   l-0.763,0.044c0,0-0.4,0.425-0.542,0.425c-0.142,0.001-0.485,0.016-0.485,0.016l-0.594-0.293l-0.301-0.107L8.451,26.531z"> <title>Andahuaylas</title></path>
	<path id="0306" data-ng-click="$ctrl.openMap(2, '0306', true, $event)" fill="none" stroke="#020202" stroke-width="0.3" stroke-miterlimit="10" d="M9.423,6.278L7.92,6.666L7.134,7.457   l-1.441,2.844l0.123,1.283L5.693,14.15l0.544,2.301l1.383,1.618l0.243,1.665l-0.243,2.15v0.902l1.318,0.381   c0,0,0.952,0.788,1.119,0.963c0.167,0.175,1.071,1.048,1.207,1.222c0.136,0.174,0.865,0.174,0.865,0.174l-0.789,0.877l0.594,0.293   l0.485-0.016l0.542-0.425l0.763-0.044v-1.69l0.347-0.832v-1.734l0.486-0.59h0.624l0.237-0.207l1.011,0.796l0.347-0.59l1.163,0.092   l0.64,0.29l0.763-0.381l-0.486-1.873l-0.694-0.659l0.555-2.358l0.089-1.321l-0.401-0.725l-1.699-0.798l-1.075-0.668l-1.665-1.69   l-1.422-1.283c0,0-1.63-0.199-1.769-0.377c-0.139-0.178-1.401-0.733-1.401-0.733L9.423,6.278z"> <title>Chincheros</title></path>
</g>
</svg>
