<?xml version="1.0" encoding="utf-8"?>
<svg xmlns="http://www.w3.org/2000/svg" xmlns:xlink="http://www.w3.org/1999/xlink" version="1.1" id="04" x="0px" y="0px" viewBox="0 0 74 71" enable-background="new 0 0 74 71" xml:space="preserve">
	<title>Arequipa</title>
<g>
	<path id="0402" data-ng-click="$ctrl.openMap(2, '0402', true, $event)" fill="none" stroke="#020202" stroke-width="0.3" stroke-miterlimit="10" d="M31.356,42.73c0,0,0.05-0.124,0.124-0.149   c0.075-0.025,0.149-0.05,0.223-0.124c0.074-0.075,0.074-0.075,0.074-0.075s0.124-0.149,0.124-0.273s0-0.372,0-0.372l0.149-0.124   c0,0-0.05-0.075,0.124-0.174s0.298-0.273,0.298-0.273c0.05-0.124-0.074-0.273,0-0.372c0.075-0.099-0.125,0.025,0.012-0.273   s0.137-0.422,0.137-0.422v-0.844c0,0,0.149-0.223,0-0.273s-0.223-0.174-0.223-0.174l-0.075-0.348c0,0,0.025-0.199,0.025-0.323   s0-0.348,0-0.348l-0.05-0.174l-0.099-0.149l-0.178-0.174v-0.248c0,0-0.12-0.124-0.12-0.199s0.12-0.372,0.12-0.372   s0.004-0.124,0.103-0.248s0.099-0.124,0.099-0.124s0.05-0.273-0.05-0.348c-0.099-0.074-0.153-0.248-0.153-0.248   s-0.004-0.124,0-0.223s0-0.323,0-0.323s-0.029-0.497,0-0.571c0.029-0.074,0.377,0,0.377,0s-0.091-0.074,0.29,0.099   c0.381,0.174,0.455,0.397,0.455,0.397s-0.025-0.174,0,0.199c0.025,0.372,0,0.695,0,0.695s-0.075,0.174,0,0.397   c0.074,0.223,0.011,0.397,0.011,0.397c0.486-0.074,0.486-0.074,0.486-0.074h0.447c0,0,0.348-0.05,0.422-0.05   c0.075,0,0.447-0.025,0.521,0s0.174,0.124,0.323,0.124s0.621,0.025,0.621,0.025l0.149,0.074v0.397c0,0,0.223,0.025,0.323,0   c0.099-0.025,0.223-0.074,0.372-0.074s0.323,0.05,0.323,0.05s0.174,0,0.348,0.05s0.447,0.397,0.447,0.472s0.174,0.323,0.298,0.472   s0.335,0.505,0.335,0.505s-0.212,0.19,0,0.488s0.162,0.223,0.261,0.472s-0.074,0.025,0.099,0.248   c0.174,0.223,0.199-0.124,0.273,0.497c0.074,0.621,0.05,0.819,0.074,0.919c0.025,0.099-0.199,0.074,0,0.273   c0.199,0.199,0,0.199,0.323,0.348s0.397,0.099,0.497,0.149c0.099,0.05,0.298,0.099,0.372,0.248   c0.075,0.149-0.472-0.497,0.075,0.149c0.546,0.646,0.77,0.894,0.869,0.993s0.223,0.174,0.298,0.298s0,0.124,0.223,0.199   s0.223,0.075,0.223,0.075s0.025-0.075,0.199,0c0.174,0.074,0,0.074,0.174,0.074s0.248,0.174,0.248,0s0.074-0.447,0.074-0.447   l0.273-0.372c0,0-0.248-0.124,0-0.149c0.248-0.025,0.397-0.075,0.497,0.025c0.099,0.099,0.124,0.099,0.223,0.174   s0.224,0.124,0.224,0.025s0.05-0.397,0.174-0.422s0.372-0.199,0.372-0.199s0.074-0.273,0.199,0c0.124,0.273-0.05,0,0.124,0.273   s0.025,0.149,0.174,0.273s0.149,0.025,0.372,0.149c0.223,0.124,0.025,0.223,0.372,0.298s3.104-0.05,3.104-0.05   s0.223-0.025,0.323,0.149c0.099,0.174,0.149,0.35,0.149,0.35s0.025,0.022,0.074,0.246c0.05,0.223,0,0.372-0.099,0.497   s-0.273,0.149-0.372,0.248c-0.099,0.099,0.074,0-0.099,0.099c-0.174,0.099-0.199,0.149-0.248,0.248   c-0.05,0.099-0.099,0.124-0.199,0.323c-0.099,0.199,0.124-0.298-0.099,0.199s-0.223,0.497-0.223,0.497s-0.149,0.248-0.149,0.323   s0.05,0.646,0.075,0.745s-0.149,0.149,0.025,0.099s0.596,0.019,0.596,0.019s0.025-0.254,0.199,0s0.273,0.403,0.422,0.502   c0.149,0.099,0.348,0.124,0.348,0.124s0.025-0.199,0.174,0s0.149,0.174,0.248,0.348c0.099,0.174,0.124,0.124,0.174,0.298   s0.099,0.149,0.074,0.372c-0.025,0.223-0.099,0.372-0.248,0.372c-0.149,0-0.273,0-0.422,0s-0.422,0.223-0.422,0.223   s-0.05-0.025-0.174,0.174s-0.124,0.199-0.124,0.199s0,0.149,0.075,0.174c0.074,0.025,0.248-0.124,0.397,0s0.199,0.074,0.273,0.149   c0.075,0.075,0.422,0.223,0.422,0.223v0.174c0,0,0.099,0.124,0.099,0.248s0.223-0.074,0,0.124   c-0.224,0.199-0.348,0.372-0.348,0.372l-0.223-0.174l-0.174-0.074l-0.025-0.149c-0.149-0.05-0.323-0.05-0.323-0.05l-0.248,0.025   l-0.215-0.099c-0.182-0.223,0.091-0.05-0.182-0.223c-0.273-0.174-0.447-0.273-0.447-0.273c-0.124-0.199-0.298-0.372-0.298-0.372   s0-0.025-0.149-0.124s-0.315-0.406-0.315-0.406s-0.083,0.058-0.257-0.166c-0.174-0.223-0.372-0.497-0.372-0.497   s0.099,0.05-0.099-0.174s-0.199-0.223-0.199-0.223s-0.124-0.025-0.223-0.025s0.124,0.149-0.099,0s-0.422-0.248-0.422-0.248   l-0.248-0.19c0,0,0.025-0.033,0.025-0.108c0-0.074,0-0.074,0-0.074s-0.124-0.174-0.223-0.199s0.397,0-0.099-0.025   c-0.497-0.025-0.323-0.025-0.497-0.025s-0.174,0-0.174,0h-0.248l-0.174-0.033l-0.075-0.24c-0.199-0.074-0.372-0.099-0.447-0.099   c-0.074,0-0.166-0.116-0.406-0.058c-0.24,0.058-0.265,0.033-0.464,0.058s-0.397-0.058-0.397-0.058l-0.819-0.339l-0.248-0.099   l-0.124-0.124l-0.066-0.166c0,0-0.058-0.008-0.182-0.008s-0.546,0.008-0.546,0.008l-0.124-0.132l-0.397-0.298   c0,0-0.05,0-0.124-0.05c-0.075-0.05-0.025,0-0.248-0.149s-0.497-0.323-0.497-0.323c-0.298-0.223-0.298-0.223-0.298-0.223   l-0.248-0.348l-0.844-0.273c0,0-0.323,0.017-0.447,0.008c-0.124-0.008-0.099-0.008-0.348-0.008s-0.248,0-0.248,0s0-0.05-0.174-0.05   s-0.025,0-0.174,0s-0.745-0.348-0.745-0.348s-0.132,0.074-0.116-0.124c0.017-0.199-0.108-0.348-0.108-0.348l-0.497-0.248   l-0.124-0.132l-0.174-0.017h-0.174l-0.397-0.323c0,0,0.041,0.066-0.116,0.008c-0.157-0.058-0.461-0.248-0.461-0.248   s-0.035-0.05-0.218-0.132c-0.182-0.083-0.182-0.083-0.182-0.083h-0.53C31.853,42.797,31.356,42.73,31.356,42.73z"> <title>Camaná</title></path>
	<path id="0407" data-ng-click="$ctrl.openMap(2, '0407', true, $event)" fill="none" stroke="#020202" stroke-width="0.3" stroke-miterlimit="10" d="M50.325,49.389c0,0,0.401-0.104,0.451-0.137   s0.149,0,0.149,0l0.447,0.281h0.265c0,0,0.348,0.033,0.447,0.083s0.182-0.05,0.248,0s0.232,0.014,0.232,0.014l0.232,0.184   c0,0,0.083-0.083,0.116-0.149c0.033-0.066,0.099-0.166,0.116-0.232c0.017-0.066,0.116-0.281,0.116-0.281s-0.05-0.017,0.099-0.149   s0.298-0.281,0.315-0.315c0.017-0.033,0.017-0.166,0.132-0.232c0.116-0.066,0.083-0.166,0.248-0.248   c0.166-0.083,0.149-0.232,0.199-0.281c0.05-0.05,0.182-0.166,0.265-0.149s0.166-0.099,0.298,0.149   c0.132,0.248,0.215,0.215,0.215,0.331s0,0.43,0,0.43s0,0.116,0,0.298s0,0.315,0.017,0.364c0.017,0.05,0.017,0.05,0.017,0.05   s-0.199,0.116,0,0.066s0.331-0.149,0.447-0.265s0.182-0.199,0.265-0.248c0.083-0.05,0.166-0.145,0.232-0.164   c0.066-0.018,0.099-0.134,0.199-0.184c0.099-0.05,0.315-0.166,0.381-0.265s0.232-0.232,0.232-0.232s0.05-0.066,0.199-0.066   s1.689,0.033,1.689,0.033l0.364-0.311h0.232c0,0,0.215,0.096,0.248,0.195s0.215,0.281,0.298,0.281s0.116,0,0.199-0.083   s0.182-0.281,0.248-0.232s0.066,0.017,0.149,0.281c0.083,0.265,0,0.116,0.083,0.265s0.116,0.033,0.166,0.215   s0.083,0.232,0.149,0.348c0.066,0.116-0.099,0.05,0.066,0.116c0.166,0.066,0.331,0.066,0.331,0.066l0.193-0.017l0.237-0.017   l0.248-0.083c0,0,0.017-0.116,0.05,0.132s0.017,0.149,0.033,0.248s0.058,0.083,0.103,0.331s0.017,0.195,0.056,0.462   s0.055,0.333,0.055,0.432s-0.088,0.331-0.119,0.439c-0.03,0.108-0.163,0.273-0.229,0.29s-0.232,0.083-0.232,0.083   s0,0.05,0.116,0.149s0.033-0.033,0.182,0.132c0.149,0.166,0.05,0.083,0.281,0.281c0.232,0.199,0.414,0.248,0.546,0.331   s0.166,0.166,0.265,0.248c0.099,0.083,0.033-0.066,0.182,0.132c0.149,0.199,0.348,0.348,0.43,0.348   c0.083,0,0.099-0.066,0.182,0.066s0.099,0.116,0.199,0.248s0.132,0.215,0.182,0.348c0.05,0.132,0.083,0.215,0.083,0.315   c0,0.099-0.008,0.265-0.083,0.348s-0.182,0.166-0.215,0.215s0.033-0.083-0.199,0.182s-0.215,0.265-0.281,0.348   c-0.066,0.083-0.099,0.014-0.265,0.215s-0.199,0.182-0.248,0.298c-0.05,0.116,0.033,0.099-0.099,0.232   c-0.132,0.132-0.083,0.149-0.166,0.265s-0.132,0.099-0.199,0.199c-0.066,0.099-0.066,0.017-0.166,0.132   c-0.099,0.116-0.033,0.066-0.166,0.199s-0.348,0.265-0.348,0.265s0.066-0.028-0.132,0.116c-0.199,0.143-0.166,0.232-0.166,0.232   l-0.066,0.132c0,0-0.132,0.116-0.215,0.083s0.033-0.127-0.381-0.304c-0.414-0.177-0.099-0.077-0.414-0.177   c-0.315-0.099-0.381-0.182-0.613-0.199c-0.232-0.017-0.149-0.05-0.381-0.05s0.166,0.05-0.43-0.149   c-0.596-0.199-0.795-0.232-0.894-0.281c-0.099-0.05-0.099-0.05-0.232-0.05s0.464,0.066-0.232,0   C56.883,56.3,56.734,56.3,56.734,56.3l-0.116-0.265c-0.182,0-0.066,0.017-0.265-0.017c-0.199-0.033-0.315-0.116-0.381-0.116   s-0.199,0-0.281-0.05c-0.083-0.05-0.315-0.232-0.364-0.248c-0.05-0.017-0.281-0.149-0.281-0.149s-0.166-0.149-0.281-0.215   c-0.116-0.066-0.248-0.099-0.298-0.149s-0.298-0.182-0.298-0.182s-0.066-0.281-0.017-0.331c0.05-0.05,0.017-0.132,0.017-0.132   l-0.116-0.132c0,0-0.083-0.05-0.132-0.083c-0.05-0.033-0.199-0.281-0.199-0.281s0.05-0.149-0.066-0.182s-0.298-0.099-0.298-0.099   l-0.364-0.248c0,0,0.099-0.017-0.116,0s-0.546,0.033-0.596,0s-0.315-0.166-0.364-0.166c-0.05,0-0.05-0.017-0.232,0   s-0.265,0.017-0.265,0.017l-0.182-0.05l-0.099-0.166c0,0-0.166-0.182-0.166-0.232s-0.132-0.04-0.149-0.152   s-0.099-0.212-0.099-0.212l-0.099-0.281c-0.099-0.083-0.629-0.331-0.629-0.331l-0.116-0.182l0.179-0.209   c0,0-0.001-0.001,0.046-0.046c0.046-0.045,0.123-0.117,0.123-0.117l0.075-0.067c0,0-0.08-0.115-0.088-0.139   c-0.008-0.025-0.024-0.06-0.024-0.06l-0.062-0.106c0,0,0-0.041,0-0.066s0-0.108,0-0.108l-0.248-0.149l-0.174-0.075l-0.153-0.072   c0,0-0.154-0.135-0.245-0.126s-0.179,0.037-0.203,0.043c-0.024,0.005-0.07,0.006-0.07,0.006l-0.057-0.067l-0.015-0.065l0.021-0.081   l0.1-0.16l0.043-0.064l0.061-0.073l0.037-0.029l0.242-0.153c0,0,0.006-0.005,0.042-0.023c0.036-0.018,0.095-0.041,0.095-0.041   s0.1-0.015,0.125-0.015s0.116,0,0.141,0c0.025,0,0.083,0,0.083,0h0.149l0.119-0.042L50.325,49.389z"> <title>Islay</title></path>
	<path id="0401" data-ng-click="$ctrl.openMap(2, '0401', true, $event)" fill="none" stroke="#020202" stroke-width="0.3" stroke-miterlimit="10" d="M46.306,43.623l0.199-0.611   c0.099-0.157,0.248-0.306,0.298-0.406c0.05-0.099-0.223-0.099,0-0.199c0.223-0.099,0.323-0.124,0.372-0.223   c0.05-0.099,0.199-0.248,0.223-0.348c0.025-0.099,0-0.397,0-0.397l0.571-0.273c0,0,0.124-0.124,0.248-0.223   s0.124-0.124,0.223-0.223s0.273-0.273,0.273-0.273s0.255-0.174,0.252-0.273c-0.003-0.099,0.071-0.248,0.146-0.298   s0.099-0.248,0.199-0.372s0.174-0.248,0.174-0.248s0.025-0.149,0-0.298c-0.025-0.149,0-0.298,0-0.447s-0.077-0.223,0.011-0.372   c0.088-0.149,0.039-0.348,0.138-0.422s0.248-0.348,0.323-0.422c0.075-0.075,0.174-0.149,0.298-0.149s0.397,0.149,0.596,0   s0.422,0.099,0.497,0s0.298-0.148,0.372-0.049s0.571,0.372,0.571,0.372s0.124-0.083,0.174,0.132s0.074,0.315,0,0.389   c-0.075,0.074,0.025-0.099-0.075,0.074c-0.099,0.174-0.124-0.025-0.099,0.174s0.372,0.472,0.372,0.472s-0.073,0.022,0.2,0.022   s0.099-0.05,0.273,0s0.546,0.05,0.546,0.05l0.273,0.149l0.546-0.273c0,0,0.099-0.025,0.174-0.025s0.199-0.372,0.199-0.372v-0.273   c0,0,0.199,0.025,0.397-0.124c0.199-0.149,0.273-0.083,0.372-0.265c0.099-0.182,0.124-0.257,0.323-0.356s0.397-0.202,0.397-0.202   l0.348-0.17c0,0,0.124,0.149,0.199,0s0.124-0.422,0.124-0.422h0.223c0,0,0.124-0.248,0.223-0.273   c0.099-0.025,0.124-0.348,0.124-0.397c0-0.05,0-0.472,0-0.472s0.695-0.199,0.72,0s0,0.72,0,0.72s0.199,0.298,0.223,0.223   c0.025-0.075,0.348-0.248,0.472-0.248s0.546,0,0.546,0v0.174l0.422-0.223l0.298-0.447l0.174-0.149l0.149-0.138   c0,0,0.149,0.011,0.248,0c0.099-0.011,0.099-0.011,0.099-0.011s0.196,0,0.359,0c0.163,0,0.659,0,0.659,0h0.273   c0,0,0.323-0.025,0.596,0s0-0.075,0.273,0.025c0.273,0.099,0.273,0.099,0.273,0.099l0.778,0.174c0,0,0.116,0.223,0.215,0.273   s0.223,0.149,0.472,0.298c0.248,0.149,0.273,0.075,0.397,0.199s0.199,0.174,0.273,0.223c0.074,0.05-0.099-0.099,0.074,0.05   c0.174,0.149,0.174,0.149,0.174,0.149s-0.05,0,0.124,0.025s0.323,0.025,0.323,0.025s0-0.075,0.124-0.149   c0.124-0.074,0.025-0.099,0.273-0.149s0.083-0.025,0.364-0.099s0.132-0.124,0.43-0.124s0.72,0,0.72,0s0.099,0,0.199,0   c0.099,0,0.944-0.124,0.944-0.124l0.447-0.323h0.646c0,0,0.422-0.174,0.497-0.273c0.075-0.099,0.248-0.363,0.372-0.318   s0.646-0.129,0.646-0.129s-0.023,0.521,0.051,0.72c0.074,0.199,0.148,0.397,0.148,0.397l0.149,0.298c0,0.248,0.149,0.05,0,0.248   c-0.149,0.199-0.107,0.13-0.265,0.289c-0.158,0.158-0.456,0.357-0.53,0.382c-0.075,0.025-0.099,0.025-0.248,0.074   c-0.149,0.05-0.149,0.05-0.149,0.05s0.004,0.238,0.076,0.38c0.073,0.142,0.395,0.936,0.395,0.936l0.174,0.621l0.025,0.72   c0,0-0.074,0.199-0.149,0.248c-0.074,0.05-0.372,0.174-0.372,0.174l-0.596,0.298l-0.397,0.248l-0.372,0.075l-0.174,0.074   l-0.124,0.621l0.273,0.571c0,0-0.05,0.075,0.025,0.199c0.075,0.124,0.124,0.546,0.124,0.546c0.025,0.149,0.025,0.646,0.025,0.646   l-0.025,0.298c0,0-0.273,0-0.422,0.025c-0.149,0.025-0.074,0.124-0.273,0.074c-0.199-0.05-0.248-0.099-0.397-0.074   c-0.149,0.025-0.248-0.149-0.248-0.149S68.429,43.9,68.33,43.9s-3.154-0.025-3.154-0.025v0.497l-0.447,0.397v0.869   c0,0-0.05,0.223,0.025,0.348c0.075,0.124-0.05,0.472-0.05,0.472s-0.199,0.075-0.174,0.298s-0.149,0.53-0.05,0.67   c0.099,0.141,0.099,0.422,0.099,0.422l-0.248,0.273l-0.323,0.124H63.71l-0.248-0.174l-0.124-0.223l-0.323,0.248l-0.472,0.199   l-0.497,0.199l-0.05,0.199c0,0,0,0.182-0.099,0.298s-0.099,0.116-0.099,0.116L61.55,49.19l-0.237,0.017c0,0-0.325,0.004-0.346,0   s-0.248-0.089-0.248-0.089l0.004-0.077l-0.119-0.247l-0.073-0.198l-0.123-0.117l-0.066-0.209l-0.117-0.301l-0.048-0.036   l-0.097,0.042l-0.053,0.066c0,0-0.027,0.038-0.043,0.057c-0.016,0.02-0.055,0.066-0.055,0.066l-0.077,0.06l-0.122,0.023   l-0.112-0.055l-0.149-0.157l-0.078-0.128l-0.208-0.136h-0.157h-0.075c0,0-0.14,0.12-0.168,0.143   c-0.027,0.023-0.197,0.168-0.197,0.168l-0.869-0.018l-0.897-0.008l-0.121,0.059c0,0-0.045,0.037-0.067,0.057   c-0.022,0.02-0.068,0.064-0.068,0.064l-0.097,0.111l-0.052,0.056l-0.149,0.108l-0.181,0.1l-0.134,0.131l-0.064,0.053l-0.042,0.02   l-0.291,0.225l-0.164,0.167l-0.149,0.127l-0.171,0.095l-0.127,0.042l-0.008-0.033l-0.002-0.061L54.916,49.3l-0.007-0.213   c0,0,0-0.814,0-0.825s-0.01-0.055-0.01-0.055s-0.071-0.084-0.077-0.091s-0.058-0.07-0.062-0.076s-0.109-0.179-0.109-0.179   l-0.081-0.078l-0.049-0.014c0,0-0.036-0.005-0.042,0s-0.009,0.006-0.016,0.007c-0.007,0.002-0.04,0.007-0.04,0.007   s-0.012,0-0.027-0.001s-0.045,0.002-0.045,0.002s-0.006,0-0.025,0.008c-0.02,0.008-0.088,0.049-0.099,0.057   c-0.011,0.008-0.03,0.023-0.039,0.03s-0.077,0.081-0.089,0.114s-0.065,0.137-0.065,0.137l-0.046,0.047l-0.056,0.035   c0,0-0.038,0.021-0.049,0.029s-0.024,0.018-0.032,0.025s-0.012,0.007-0.03,0.032c-0.019,0.025-0.028,0.039-0.028,0.039   s-0.014,0.023-0.024,0.038s-0.025,0.035-0.025,0.035s-0.006,0.011-0.024,0.025c-0.018,0.014-0.08,0.059-0.086,0.065   s0.001-0.006-0.015,0.017s-0.024,0.032-0.032,0.055c-0.009,0.023-0.012,0.03-0.016,0.048s-0.019,0.071-0.019,0.071l-0.01,0.014   c0,0-0.126,0.134-0.134,0.142s-0.056,0.053-0.067,0.064c-0.011,0.011-0.034,0.032-0.045,0.042c-0.011,0.01-0.024,0.022-0.041,0.037   c-0.017,0.016-0.01,0.008-0.032,0.029c-0.022,0.021-0.046,0.043-0.062,0.063c-0.015,0.021-0.023,0.072-0.023,0.072l-0.018,0.039   l-0.085,0.203l-0.067,0.16l-0.178,0.261l-0.226-0.185l-0.086,0.011l-0.107-0.008l-0.039-0.017l-0.035-0.013c0,0-0.03,0-0.05,0.006   s-0.053,0.016-0.068,0.018c-0.015,0.002-0.041,0.004-0.05,0.003c-0.01-0.001-0.213-0.058-0.213-0.058s-0.113-0.02-0.196-0.029   s-0.1-0.009-0.162-0.009s-0.186,0-0.186,0l-0.447-0.281l-0.6,0.137c0,0,0.039-0.2,0.035-0.256s-0.019-0.109-0.019-0.109   l-0.052-0.126c0,0-0.048-0.14-0.062-0.159c-0.014-0.02-0.076-0.099-0.076-0.099l-0.152-0.238l-0.098-0.125l-0.045-0.06l-0.067-0.07   l-0.036-0.018c0,0-0.034-0.018-0.05,0.027s-0.064,0.052-0.064,0.052l-0.082-0.02l-0.044-0.013l-0.06-0.022l-0.091-0.045   l-0.07-0.048l-0.142-0.142l-0.1-0.131l-0.136-0.196l-0.069-0.082c0,0-0.055-0.065-0.096-0.012c-0.042,0.053-0.04,0.061-0.04,0.067   s-0.042,0.02-0.042,0.02l-0.046-0.006l-0.02-0.003c0,0-0.12-0.013-0.156-0.015s-0.055-0.005-0.109-0.006   c-0.055,0-0.106-0.001-0.146,0.005s-0.089,0.021-0.117,0.026s-0.025,0.005-0.004-0.025c0.02-0.03,0.027-0.04,0.025-0.096   l-0.03-0.228l-0.042-0.516l0.162-0.345l0.022-0.049l0.082-0.182l0.151-0.336c0,0,0.027-0.061,0.029-0.065s0.027-0.06,0.027-0.06   l0.2-0.304l0.031-0.058l0.078-0.092l0.049-0.037c0,0,0.046-0.03,0.05-0.032s0.039-0.023,0.044-0.025   c0.005-0.003,0.058-0.034,0.058-0.034v-0.017l0.01-0.019l0.042-0.043l0.127-0.077l0.135-0.073c0,0,0.139-0.097,0.165-0.199   c0.025-0.102,0.066-0.219,0.035-0.344c-0.031-0.125-0.139-0.512-0.214-0.595c-0.075-0.084-0.069-0.112-0.135-0.145   c-0.065-0.033-0.173-0.04-0.173-0.04l-0.07,0.003l-0.039,0.002l-0.128,0.005l-0.147,0.006L46.306,43.623z"> <title>Arequipa</title></path>
	<path id="0406" data-ng-click="$ctrl.openMap(2, '0406', true, $event)" fill="none" stroke="#020202" stroke-width="0.3" stroke-miterlimit="10" d="M31.893,34.368l-0.166-0.43v-0.199   c0,0-0.033-0.232-0.001-0.331c0.033-0.099,0.084-0.662,0.074-0.762c-0.009-0.099,0.042-0.232-0.001-0.331   c-0.042-0.099,0-0.265,0-0.265c0.189-0.199,0.221-1.159,0.221-1.159h0.232l0.162-2.285l0.364-0.001c0,0,0.43-0.1,0.53-0.001   c0.1,0.1,0.398,0.695,0.398,0.695l0.596-0.133c0,0,0.066-0.099,0.165-0.166c0.099-0.067,0.099-0.298,0.297-0.398   c0.199-0.1,0.298-0.298,0.43-0.332c0.132-0.033,0.463-0.133,0.463-0.133l0.528-0.829l-0.001-0.464c0,0,0.165-0.133,0.231-0.232   c0.066-0.099-0.265,0.067,0.066-0.099s0.661-0.462,0.761-0.331c0.1,0.131,0.531,0.528,0.531,0.528l0.198-0.365l0.265-0.165   c0.132-0.266,0.132-0.266,0.132-0.266s-0.232,0,0-0.199c0.231-0.199,0.192-0.861,0.192-0.861l0.996-1.061l0.596,0.198l0.694-0.2   v-0.199l0.928-0.001l0.132-0.331c0,0,0.563-0.1,0.695-0.001c0.132,0.099,0.265-0.199,0.265-0.199l0.861-0.001l0.463-0.431   c0,0,0.165-0.298,0.198-0.431s-0.001-0.762-0.001-0.762l-0.597-0.794l0.96-0.432c0,0-0.099-0.066,0-0.199s0.264-0.365,0.264-0.365   l0.53-0.001l0.231-0.497l-0.001-0.364l0.513-0.001l0.183,0.298l0.429-0.66l0.331-0.001l0.331-0.202l-0.001-0.331v-0.199   l-0.307-0.521l-0.05-0.273l0.099-0.184l0.257-0.03l0.389-0.135l0.311-0.149c0,0,0.089-0.162,0.249-0.144   c0.16,0.019,0.284-0.002,0.284-0.002l0.521-0.154l0.794-0.332c0,0,0.167,0.016,0.183,0s0.016-0.017,0.016-0.017   s0.103,0.178,0.224,0.298c0.121,0.12,0.174,0.198,0.199,0.273c0.025,0.074,0.042,0.269,0.174,0.387   c0.133,0.118,0.448,0.382,0.448,0.382l0.168,0.185l0.227,0.211c0,0,0.127,0,0.152,0.099c0.025,0.099,0.05,0.05,0.001,0.348   s-0.219,0.296-0.146,0.483s0.201,0.311,0,0.312c-0.201,0-0.225,0-0.374-0.049s-0.298-0.099-0.298-0.099l-0.274-0.298   c0,0-0.075-0.174-0.174-0.248c-0.099-0.074-0.299-0.322-0.472-0.248c-0.174,0.075-0.251,0.1-0.411,0.174   c-0.16,0.075-0.185,0.075-0.334,0.15c-0.149,0.075,0.074-0.075-0.149,0.075c-0.223,0.149-0.099,0.047-0.422,0.235   s-0.521,0.586-0.521,0.586l-0.172,1.242c0,0-0.198,0.398-0.272,0.472c-0.074,0.075-0.347,0.249-0.446,0.324   c-0.099,0.075-0.869,0.25-0.893,0.324c-0.025,0.075-0.099,0.497-0.099,0.497l0.174,0.223c0,0,0.274,0.298,0.199,0.372   c-0.074,0.075-0.397,0.05-0.397,0.05l0.077,1.44l-0.621-0.098l-0.372,0.398c0,0-0.074,0.025-0.124,0.199   c-0.049,0.174-0.148,0.373-0.148,0.373l0.075,0.232c0.224,0.14,0.25,1.009,0.25,1.009l-0.447,0.001l-0.497-0.049v0.273l-0.571,0.1   l-0.022,1.664l-0.298,0.025l-0.049,0.323l-0.024,0.224c0,0-0.074,0.05-0.149,0.05c-0.074,0-0.472-0.024-0.596,0.001   c-0.124,0.025-0.422,0.1-0.422,0.1l-0.074,0.225l-0.447-0.024l-0.134-0.223l-0.487-0.049l-0.049,0.397h-0.223   c0,0-0.167,0.075-0.208,0.174c-0.04,0.099-0.189,0.199-0.189,0.273c0,0.074,0.05-0.05,0.05,0.248c0,0.298-0.025,0.124,0,0.298   s0.025,0.174,0.025,0.174s0.149,0.124,0.249,0.173c0.099,0.05,0.199,0.149,0.299,0.372s0.125,0.422,0.125,0.422l0.522,0.248   l0.348,0.074l0.124,0.174l0.299,0.347c0,0,0.274,0.298,0.274,0.496c0,0.199,0,0.199,0,0.199s-0.199-0.025,0.124,0.124   c0.323,0.148,0.323,0.148,0.323,0.148l0.348,0.446c0,0,0.075,0.124,0.075,0.273s-0.049,0.373-0.049,0.373l0.348,0.215l0.05,0.306   c0,0-0.149-0.149-0.248,0c-0.1,0.151-0.149,0.2-0.249,0.275c-0.099,0.075-0.323,0.001-0.397,0.125   c-0.074,0.124-0.372,0.125-0.397,0.199c-0.025,0.075-0.223,0.522-0.223,0.522c-0.049,0.174-0.049,0.323-0.024,0.397   c0.025,0.074,0.1,0.323,0.125,0.397c0.025,0.074-0.124,0.124-0.124,0.124l-0.472-0.148c0,0-0.193,0-0.357,0.025   c-0.164,0.025,0.06,0.174-0.164,0.025c-0.224-0.149-0.448-0.347-0.448-0.347l-0.199-0.197l-0.048,0.795l-0.323,0.001l0.002,1.217   l0.397-0.001l-0.022,1.664l0.348-0.001l0.001,0.422l0.001,0.323h0.273l0.002,0.968l0.323-0.001l0.051,0.67h0.223l0.001,0.621   l0.323-0.001l-0.064,1.169h-0.103c0,0-0.043-0.008-0.065-0.015s-0.049-0.013-0.049-0.013s-0.016-0.004-0.031-0.005   c-0.014-0.001,0.007-0.028-0.038,0.002s-0.045,0.03-0.045,0.03l-0.023-0.008c0,0-0.338-0.119-0.347-0.127s-0.09-0.157-0.09-0.157   l-0.057-0.072l-0.15-0.135l-0.393-0.416l-0.38-0.44l-0.231-0.272l-0.106-0.14l-0.045-0.079l-0.188-0.089l-0.149-0.05l-0.402-0.122   l-0.106-0.054l-0.08-0.061l-0.04-0.093l-0.053-0.089l-0.046-0.05l-0.034-0.036l-0.02-0.026l-0.021-0.036l-0.007-0.032l0.012-0.038   c0,0,0.001-0.004,0.018-0.018c0.016-0.014,0.037-0.034,0.037-0.034l0.015-0.034l-0.029-0.455l-0.011-0.14l-0.006-0.069   l-0.007-0.071l-0.009-0.088l-0.027-0.218l-0.041-0.216l-0.05-0.079l-0.088-0.024l-0.163-0.188l0.006-0.062l-0.038-0.105   c0,0-0.05-0.159-0.15-0.299c-0.1-0.14-0.162-0.251-0.162-0.251s-0.043-0.128-0.03-0.189c0.013-0.06,0.091-0.189,0.091-0.189   l-0.485-0.7l-0.032-0.047l-0.059-0.093l-0.035-0.065l-0.077-0.181l-0.058-0.079l-0.075-0.086l-0.1-0.096l-0.063-0.049l-0.097-0.05   l-0.125-0.028c0,0-0.072-0.011-0.081-0.012c-0.009-0.001-0.158-0.014-0.167-0.016s-0.312-0.042-0.312-0.042l-0.083,0.007   c0,0-0.045,0.007-0.055,0.009c-0.01,0.002-0.087,0.021-0.087,0.021s-0.063,0.018-0.073,0.021s-0.076,0.02-0.076,0.02l-0.308-0.003   l-0.001-0.397l-0.149-0.074l-0.688-0.031l-0.27-0.12c0,0-0.459-0.006-0.611,0.013s-0.318,0.042-0.318,0.042h-0.181h-0.19h-0.076   l-0.486,0.075l0.018-0.077l0.007-0.104l-0.008-0.101c0,0-0.053-0.153-0.057-0.245c-0.004-0.093,0.004-0.176,0.004-0.176   l0.017-0.071l0.009-0.045l-0.003-0.87c0,0-0.09-0.153-0.161-0.21s-0.395-0.233-0.462-0.259c-0.066-0.026-0.123-0.026-0.123-0.026   l-0.114-0.02l-0.056-0.013h-0.089h-0.056c0,0-0.021-0.015-0.033,0S31.893,34.368,31.893,34.368z"> <title>Condesuyos</title></path>
	<path id="0404" data-ng-click="$ctrl.openMap(2, '0404', true, $event)" fill="none" stroke="#020202" stroke-width="0.3" stroke-miterlimit="10" d="M51.223,36.819v-0.348v-0.968L50.9,35.305   l-0.323-0.472h-0.472c0,0-0.251,0.124-0.337,0.223s-0.408,0.323-0.408,0.323s0.298,0.248,0,0.248s-0.546,0-0.546,0v-0.199   l-0.472-0.149l-0.298-0.223v-0.223v-0.48v-0.29l-0.273-0.521v-0.497l0.397-0.174l0.025-0.323l0.472-0.372l0.05-0.422l0.323-0.397   c0,0,0.074-0.298,0.174-0.323s0.372-0.174,0.447-0.223c0.075-0.05,0.546-0.447,0.546-0.447s-0.036-0.174,0.156-0.273   c0.192-0.099,0.291-0.247,0.44-0.26s0.397,0.063,0.521,0s0.298-0.311,0.298-0.311h0.497l0.124-0.248h0.819v-3.75l0.174-0.174   v-0.546h0.397v-1.018h0.223v-0.447h0.298v-0.819l-0.348-0.174l-0.098-0.299h-0.298l0.099-0.397l0.074-0.745h-0.372l0.025-0.521   h0.323l0.025-1.043h0.298v-0.323h0.273v-0.571h-0.248l-0.099-0.968l-0.1-0.473l-0.05-0.283l-0.248,0.134l-0.149,0.571l-0.745,0.149   l0.074,0.298l-0.422,0.025c0,0-0.099,0.497-0.099,0.596c0,0.099-0.296,0.248-0.296,0.248l-0.672-0.149l-0.273-0.298l-0.174-0.248   l-0.291-0.231l-0.342,0.049l-0.583,0.256l-0.361,0.195l-0.42,0.278l-0.311,0.421l-0.092,0.657l-0.082,0.584l-0.203,0.373   L47.45,21.05l-0.894,0.323l-0.099,0.497c0,0,0.252,0.312,0.285,0.36s0.212,0.192,0.087,0.236c-0.125,0.044-0.397,0.05-0.397,0.05   l0.075,1.44l-0.621-0.099l-0.372,0.397l-0.273,0.571l0.075,0.232c0,0,0.14,0.075,0.188,0.438c0.048,0.364,0.061,0.571,0.061,0.571   l-0.944-0.05v0.273l-0.571,0.099l-0.025,1.664l-0.298,0.025l-0.075,0.546l-0.149,0.05l-0.557-0.005l-0.461,0.104l-0.075,0.223   l-0.447-0.025l-0.134-0.223l-0.487-0.05l-0.05,0.397h-0.226l-0.151,0.098l-0.088,0.128l-0.106,0.125l-0.052,0.096l0.049,0.186   l-0.009,0.262l0.035,0.273l0.184,0.136l0.146,0.092c0,0,0.169,0.147,0.243,0.383s0.097,0.357,0.097,0.357s0.29,0.138,0.338,0.161   s0.531,0.162,0.531,0.162s0.245,0.315,0.334,0.418s0.259,0.319,0.292,0.386s0.063,0.097,0.066,0.183s0.003,0.229,0.003,0.229   l-0.047,0.03l0.494,0.243c0,0,0.277,0.357,0.313,0.402c0.035,0.045,0.104,0.168,0.106,0.262s-0.046,0.428-0.046,0.428l0.348,0.215   l0.05,0.306c0,0-0.088-0.076-0.137-0.065s-0.108,0.062-0.139,0.105s-0.118,0.152-0.17,0.193s-0.122,0.069-0.122,0.069   s-0.085,0.011-0.104,0.013c-0.019,0.001-0.138,0.02-0.138,0.02l-0.059,0.033l-0.026,0.03l-0.153,0.098l-0.244,0.101   c0,0-0.092,0.223-0.104,0.248s-0.132,0.279-0.146,0.385c-0.013,0.106-0.02,0.217,0.019,0.344c0.039,0.127,0.106,0.339,0.106,0.339   s-0.072,0.141-0.124,0.124c-0.053-0.017-0.301-0.095-0.301-0.095l-0.171-0.054l-0.267,0.014l-0.09,0.011l-0.06,0.03l-0.024,0.01   l-0.02,0.025l-0.707-0.567l-0.047,0.751l-0.324,0.025v1.217h0.397l-0.025,1.664h0.348v0.745h0.273v0.968h0.323l0.05,0.67h0.223   v0.621h0.323l-0.066,1.169l0.226,0.135c0,0,0.056,0.071,0.072-0.175s0.048-0.31,0.103-0.385c0.055-0.075,0.236-0.323,0.236-0.323   s-0.153-0.094-0.102-0.117s0.128-0.034,0.201-0.043s0.267-0.047,0.333-0.005s0.254,0.191,0.289,0.216   c0.035,0.024,0.162,0.079,0.162,0.079s0.039,0.049,0.064-0.098s0.015-0.263,0.081-0.297c0.065-0.034,0.016-0.019,0.192-0.118   s0.272-0.162,0.272-0.162s0.086-0.214,0.155-0.078s0.092,0.211,0.092,0.211l0.076,0.14l0.103,0.21l0.112,0.095   c0,0,0.214,0.058,0.272,0.088s0.135,0.071,0.158,0.113s0.031,0.125,0.105,0.157c0.073,0.032,0.385,0.076,0.385,0.076l0.23,0.005   l0.199-0.611l0.298-0.406c0,0-0.02-0.057-0.053-0.091s-0.043-0.066,0.053-0.108s0.263-0.087,0.318-0.155   c0.055-0.068,0.048-0.071,0.102-0.144s0.169-0.227,0.176-0.272s0-0.397,0-0.397l0.571-0.273l0.896-0.842l0.083-0.099   c0,0,0.025-0.163,0.065-0.228c0.041-0.065,0.109-0.123,0.128-0.154c0.019-0.031,0.078-0.2,0.123-0.27   c0.045-0.071,0.219-0.319,0.219-0.319s0.008-0.225,0-0.298s-0.01-0.205-0.007-0.267c0.003-0.062,0.007-0.18,0.007-0.18   l-0.027-0.185l0.007-0.115l0.058-0.129l0.026-0.1l0.034-0.188l0.052-0.078c0,0,0.13-0.151,0.143-0.171   c0.013-0.019,0.087-0.129,0.087-0.129l0.052-0.074l0.082-0.087c0,0,0.143-0.138,0.279-0.108c0.136,0.029,0.223,0.059,0.301,0.061   c0.078,0.002,0.14,0.018,0.227-0.035s0.102-0.074,0.16-0.075s0.113,0.008,0.113,0.008s0.05,0.014,0.071,0.021   s0.039,0.015,0.062,0.022C51.233,37.154,51.223,36.819,51.223,36.819z"> <title>Castilla</title></path>
	<path id="0408" data-ng-click="$ctrl.openMap(2, '0408', true, $event)" fill="none" stroke="#020202" stroke-width="0.3" stroke-miterlimit="10" d="M31.501,26.15l0.352,0.19v0.695h0.124   l0.124,0.497h0.298l0.124,0.546h0.273v0.397l0.513,0.116l0.397,0.695l0.596-0.132l0.464-0.563l0.288-0.238l0.606-0.226l0.53-0.828   v-0.464l0.232-0.232l0.828-0.429l0.53,0.528l0.199-0.364l0.397-0.43l0.194-0.513v-0.546l0.998-1.06l0.482,0.161l0.809-0.161v-0.199   h0.928l0.132-0.331l0.266-0.034l0.429,0.034l0.265-0.199h0.745l0.579-0.43l0.199-0.43v-0.762l-0.596-0.792l0.96-0.43l-0.042-0.101   l0.042-0.098l0.265-0.364h0.53l0.232-0.497v-0.364h0.513l0.182,0.298l0.43-0.659h0.3l0.362-0.201V17.7l-0.306-0.521l-0.05-0.273   l0.099-0.184l-0.538-0.279l-0.232,0.279l-1.217-1.107l-0.074-0.348l-0.472-0.149l-0.149-1.451l-0.207-0.27l-0.923,0.443   l-0.621-0.074l-0.261,0.31l-0.381,0.116l-1.159-0.265l-0.596-0.273l-1.424-0.19l-0.203,0.389l-0.299,1.08l0.005,0.319l-0.132,0.232   l-1.051-0.041l-0.323,0.211l-0.248,0.112l-0.422-0.05l-0.124,0.372l-0.161,0.199l-0.385,0.687l-0.298,0.397l0.13,0.445l0.131,0.403   l0.264,0.386l0.138,0.157l0.101,0.505c0,0-0.065,0.234-0.135,0.347c-0.07,0.113-0.198,0.407-0.198,0.407v0.563l-0.207,0.248   c0,0-0.074,0.223-0.137,0.248c-0.062,0.025-0.473,0.508-0.473,0.508l-0.47,0.399l-0.447,0.77l-0.385,0.397l-0.277,0.628   l-0.157,0.398l-0.266,0.434l-0.381-0.081l-0.111-0.205H31.48l-0.257,0.422l-0.166,0.283l-0.008,0.586l0.182,0.348L31.501,26.15z"> <title>La Uniòn</title></path>
	<path id="0405" data-ng-click="$ctrl.openMap(2, '0405', true, $event)" fill="none" stroke="#020202" stroke-width="0.3" stroke-miterlimit="10" d="M54.645,16.421l0.557,1.091l0.464,0.195   l0.398,0.134l0.448,0.487l0.381,0.361l-0.164,0.408c0,0-0.438,0.249-0.488,0.324c-0.049,0.075-0.215-0.016-0.306,0.142   s-0.793,0.466-0.793,0.466l0.111,0.401l0.818,0.193l1.142-0.003l0.795,0.213l0.515,0.512l0.112,0.378l0.543,0.051l0.375-0.359   l0.095-0.511l0.247-0.323l0.272-0.398l0.374,0.471c0,0,0.447,0.073,0.397-0.125c-0.05-0.199-0.325-0.819-0.325-0.819   s0.108-0.472,0.065-0.621c-0.043-0.149,0.023-0.265,0.023-0.265l0.903,0.312l0.689,0.942l0.929,0.792l0.696,0.164l0.696,0.098   l0.23-0.497l0.165-0.166l1.06,0.063l0.63,0.429l0.234,0.742l-0.166-0.013l-0.361,0.23l-0.593,1.326l0.399,0.628l0.398,0.429   l0.2,0.496l-0.064,0.695l-0.33,0.398l0.08,0.395l0.517,0.134c0,0,0.265,0.132,0.53,0.264s0.729,0.131,0.729,0.131l0.346-0.448   l0.659,0.445l0.392,0.529l0.002,0.861l0.116,1.147l1.026,1.785l-0.508,0.642l-0.198,0.1l-0.166,0.249l0.999,1.769l0.656,0.647   l0.306,0.211l0.001,0.273l-0.645,0.13l-0.656,0.498l-0.51,0.097l-0.348,0.001l-0.446,0.324l-2.005,0.137l-0.651,0.217l-0.397,0.299   l-0.323-0.024l-0.647-0.445l-1.086-0.767l-0.779-0.172l-0.273-0.099l-0.869-0.023l-1.639,0.015l-0.619,0.562l-0.421,0.398V36   l-0.546,0.001l-0.471,0.25l-0.224-0.223l-0.002-0.72l-0.294-0.081l-0.426,0.083l-0.034,0.724l-0.311,0.42l-0.223,0.001   l-0.123,0.422l-0.199,0.001l-0.744,0.374c0,0-0.183,0.121-0.219,0.177c-0.036,0.056-0.136,0.232-0.136,0.232   s-0.152,0.093-0.245,0.153s-0.238,0.145-0.279,0.157s-0.211,0.029-0.211,0.029s0.007,0.261-0.022,0.337s-0.175,0.309-0.175,0.309   l-0.131,0.016l-0.588,0.284l-0.274-0.148l-0.654-0.063l-0.365-0.009c0,0-0.335-0.354-0.348-0.389   c-0.012-0.034-0.034-0.171-0.034-0.171l0.052-0.017l0.088-0.125l0.042-0.018c0,0,0.075-0.106,0.022-0.288s-0.089-0.227-0.089-0.227   l-0.046-0.021l-0.062,0.015l-0.404-0.239l-0.107-0.075l-0.061-0.056l-0.096-0.05l-0.132,0.011l-0.145,0.089l-0.096,0.017   l-0.076-0.029l0.044-1.564l-0.324-0.26l-0.324-0.471l-0.472,0.001l-0.284,0.176l-0.46,0.372l0.112,0.124l-0.045,0.118l-0.612,0.008   l-0.001-0.199l-0.472-0.148l-0.299-0.223l-0.003-0.993l-0.275-0.521l-0.001-0.497l0.397-0.175l0.024-0.323l0.471-0.374l0.049-0.422   l0.322-0.398l0.113-0.274l0.506-0.274l0.545-0.448l0.022-0.143l0.133-0.13c0,0,0.306-0.215,0.335-0.229   c0.03-0.014,0.092-0.033,0.123-0.034c0.031,0,0.207,0.015,0.232,0.017c0.025,0.002,0.186,0.045,0.271-0.017   s0.297-0.312,0.297-0.312l0.497-0.001l0.124-0.249l0.819-0.002l-0.01-3.75l0.173-0.174l-0.001-0.546l0.397-0.001l-0.003-1.018   l0.223-0.001l-0.001-0.447l0.298-0.001l-0.002-0.819l-0.348-0.173l-0.1-0.298l-0.298,0.001l0.098-0.398l0.073-0.745l-0.372,0.001   l0.023-0.522l0.323-0.001l0.022-1.043l0.298-0.001l-0.001-0.323l0.273-0.001l-0.001-0.571l-0.248,0.001l-0.084-0.795l-0.018-0.173   l-0.151-0.755l0.554-0.081l0.183-0.049l0.248-0.185"> <title>Caylloma</title></path>
	<path id="0403" data-ng-click="$ctrl.openMap(2, '0403', true, $event)" fill="none" stroke="#020202" stroke-width="0.3" stroke-miterlimit="10" d="M1.706,26.813l1.664,0.993h0.546l0.348,0.199   L4.14,28.153l0.745,0.646l0.712,0.223l0.397,0.066l0.455,0.157l0.822,0.584l1.065,0.533l0.737,0.215l1.051,0.455l0.894,0.124   l0.521,0.521l0.447,0.72l0.464,0.728l1.25,0.389l0.795-0.273l0.497,0.149v0.695l0.108,0.298l1.457,0.066l0.662,0.265l0.464,0.53   h0.662l0.16,0.257l0.171,1.2h0.833l0.59,0.563l0.298,0.298l0.563,0.265l0.364,0.199v0.596h0.993v0.331l0.762,0.099l0.364,0.298   h0.53l0.265,0.265l0.331,0.397l1.622,0.066l0.927,0.364l1.358,0.43l0.728-0.066l0.53,0.795h1.06v1.133h0.464l0.175-0.124   l0.198-0.097l0.148-0.134l0.101-0.17l0.023-0.476l0.117-0.098l0.041-0.102l0.42-0.402l-0.031-0.266c0,0,0.047-0.115,0.031-0.123   c-0.016-0.009-0.042-0.091-0.042-0.091l0.183-0.557V39.25l0.049-0.235l-0.184-0.114l-0.103-0.164l-0.06-0.281l0.025-0.596   l-0.05-0.248L32.2,37.464l-0.178-0.174v-0.248l-0.12-0.199l0.12-0.372l0.071-0.201l0.131-0.172l-0.012-0.295l-0.123-0.154   l-0.07-0.213l0.001-1.051l-0.137-0.033l-0.166-0.43l-0.012-0.322l-0.002-0.1l0.081-0.644l0.02-0.382l-0.011-0.174l-0.017-0.149   l0.017-0.115c0,0,0.1-0.168,0.13-0.331c0.03-0.163,0.093-0.827,0.093-0.827h0.232l0.166-2.285h0.364l0.017-0.513h-0.273   l-0.124-0.546H32.1l-0.124-0.497h-0.124v-0.695l-0.621-0.372l-0.411-0.023l-0.278,0.004l-0.18,0.202l-0.174-0.008l-0.236-0.012   l-0.199-0.037l-0.225-0.043l-0.202-0.078l-0.168-0.14l-0.149-0.211l-0.31-0.112l-0.273-0.05h-0.137c0,0-0.099,0.025-0.112,0.161   c-0.012,0.137-0.149,0.161-0.149,0.161s-0.559,0.062-0.608,0.074c-0.05,0.012-0.968,0.025-0.968,0.025s-0.154,0.324-0.223,0.269   c-0.07-0.054-0.695,0.066-0.695,0.066l-0.286,0.261l-0.497,0.087c0,0-0.286-0.062-0.323-0.087   c-0.037-0.025-0.062-0.025-0.186-0.099c-0.124-0.074-0.261-0.219-0.298-0.228c-0.037-0.008-0.199-0.132-0.199-0.132   s-0.385-0.497-0.484-0.559c-0.099-0.062-0.559-0.41-0.559-0.41l-0.199-0.112l-0.323-0.05h-0.559h-0.348c0,0-0.05,0.497-0.05,0.546   s-0.05,0.261-0.05,0.385s-0.062,0.497-0.075,0.534c-0.012,0.037-0.087,0.372-0.087,0.372s-0.186,0.211-0.199,0.261   c-0.012,0.05-0.174,0.497-0.174,0.497s-0.137,0.211-0.174,0.248s-0.273,0.174-0.273,0.174s-0.174,0.074-0.41,0.261   c-0.236,0.186-0.596,0.621-0.596,0.621l-0.298,0.435l-0.186,0.248l-0.261,0.211c0,0-0.161,0.112-0.199,0.124   c-0.037,0.012-0.174-0.261-0.174-0.261l-0.211-0.459c0,0-0.031-0.273-0.037-0.335c-0.006-0.063-0.149-0.472-0.149-0.472   s0.012-0.236,0.037-0.273c0.025-0.037,0.236-0.186,0.286-0.273c0.05-0.087,0.137-0.223,0.223-0.323   c0.087-0.099,0.199-0.372,0.199-0.372s-0.087-0.161-0.087-0.248c0-0.087-0.012-0.559-0.012-0.559l-0.298-0.236l-0.422,0.157   c0,0-0.174,0.141-0.211,0.141s-0.116,0.017-0.236,0.05c-0.12,0.033-0.174,0.075-0.211,0.112s-0.161,0.112-0.161,0.112   s-0.161,0.36-0.161,0.41s-0.037,0.31-0.037,0.31s0.01,0.244-0.07,0.234c-0.079-0.01-0.328-0.01-0.328-0.01l-0.459-0.112   c0,0-0.621-0.137-0.795-0.161c-0.174-0.025-0.819-0.062-0.819-0.062s-0.224-0.226-0.224-0.293c0-0.067,0-0.427,0-0.427l0.037-0.385   l0.025-0.521c0,0-0.05-0.236-0.099-0.273c-0.05-0.037-0.087-0.124-0.149-0.174s-0.271-0.175-0.271-0.175l-0.375,0.001l-0.459-0.385   l-0.247-0.21l0.191-0.241c0,0,0.206-0.704,0.206-0.778c0-0.074-0.099-0.497-0.099-0.497l-0.149-0.223l-0.062-0.444   c0,0-0.472-0.152-0.571-0.053c-0.099,0.099-0.124,0.186-0.41,0.186s-0.447-0.012-0.447-0.012l-0.171-0.339l-0.363-0.221   L9.975,21.65l-0.286-0.062l-0.708,0.05l-0.782,0.025c0,0-0.248,0.05-0.298,0.037c-0.05-0.012-0.534-0.236-0.571-0.286   s-0.484-0.323-0.484-0.323l-0.249-0.039l-0.792,0.3l-0.507,0.157l-0.385,0.223L4.454,21.98L4.04,22.146l-0.472,0.546   c0,0-0.17,0.26-0.193,0.339c-0.023,0.079-0.157,0.49-0.157,0.49L3.08,23.76l-0.103,0.457l-0.281,0.548l-0.299,0.421l-0.31,0.242   l-0.123,0.639L1.706,26.813z"> <title>Caravelí</title></path>
</g>
</svg>
