<?xml version="1.0" encoding="utf-8"?>
<svg xmlns="http://www.w3.org/2000/svg" xmlns:xlink="http://www.w3.org/1999/xlink" version="1.1" id="09" x="0px" y="0px" viewBox="0 0 74 71" enable-background="new 0 0 74 71" xml:space="preserve">
	<title>Huancavelica</title>
<g>
	<path id="0906" data-ng-click="$ctrl.openMap(2, '0906', true, $event)" fill="none" stroke="#020202" stroke-width="0.3" stroke-miterlimit="10" d="M22.568,50.277h0.714c0,0,0.169,0.639,0.306,0   c0.137-0.639,0.137-0.639,0.137-0.639l0,0c0,0,0.695-0.932,0.948-0.782c0.253,0.15,1.77,0,1.77,0s1.138-0.735,1.201-0.925   c0.063-0.19,0.632-0.716,0.885-0.896c0.253-0.179,0.687,0,0.687,0h0.561l0.395-0.08c0,0-0.316-0.42,0-0.544   c0.316-0.124,0.403-0.44,0.403-0.44s0.356-0.443,0.419-0.695s0-0.885,0-0.885l0.671-0.727c0,0,0.846-0.411,0.846-0.664   c0-0.253,0-2.023,0-2.023h1.249c0,0,0.079-0.506,0.584-0.569s0.632-0.063,0.948-0.253s0.379-0.443,0.632-0.506   c0.253-0.063,0.695-0.253,0.695-0.253s0.662,0.126,1.026,0c0.364-0.126,0.617-0.063,0.807,0c0.19,0.063,0.443,0.253,0.443,0.253   h1.328c0,0,0.695-0.316,0.885-0.253c0.19,0.063,0.569,0.044,0.885-0.073c0.316-0.117,0.379-0.496,0.379-0.496s0.379,0,0.632,0   s0.569,0.569,0.569,0.569c0.569-0.063,1.451,0,1.451,0h0.382c0,0-0.126-0.253,0.316,0.253c0.443,0.506,0.695,0.632,0.695,0.632   s0.316,0.316,0.316,0.822c0,0.506,0,1.075,0,1.075v0.316c0,0,0.126-0.126,0.443,0.316c0.316,0.443,0.759,0.506,0.759,0.506   l0.798,0.358l0.529,0.527c0,0,0.506,0.253-0.253,0.379s0-0.126-0.759,0.126s-1.328,0.253-1.328,0.253H46.23l-1.204-0.253   c0,0,0.445,0-0.44,0s-1.517,0.474-1.517,0.474l-1.138,0.411c0,0-0.19-0.632-0.379-0.253c-0.19,0.379-0.407,0.817-0.33,1.072   c0.077,0.255-0.365,0.192-0.176,0.571c0.19,0.379,0.695,1.075,0.695,1.075l0.752,0.823c0,0,0.196,0.567,0.196,0.884   s0,0.316,0,0.316l0.253,0.569h0.759c0,0,0.131-0.073,0.35,0.311c0.219,0.384,0.472,0.574,0.472,0.574l0.316,0.126l0.187,1.307   l0.192,1.095l-0.126,1.011l0.186,1.865l0.138,0.474l0.059,0.32l0.036,0.45c0,0-0.071,0.284-0.083,0.391   c-0.012,0.107-0.01,0.272-0.024,0.319c-0.014,0.047-0.095,0.061-0.13,0.179c-0.036,0.119-0.248,1.106-0.248,1.106l-0.229,0.495   l-0.649,1.161l0.616,0.936l0.19,0.415c0,0,0.002,0.117-0.012,0.19c-0.013,0.073,0.084,0.996,0.084,0.996l-0.409,0.151h-0.422   c0,0,0.005,0.173-0.032,0.189s0.032,0.324,0.044,0.359c0.012,0.036,0.225,0.059,0.225,0.13c0,0.071,0.594,1.434,0.594,1.434   l0.281,0.524c0,0,0.069,0.254,0.101,0.369s0.043,0.553,0.055,0.6c0.012,0.047,0.012,0.047,0.012,0.047l-1.109,0.228   c0,0-0.255,0.068-0.586,0.104c-0.331,0.036-0.306,0.091-0.635-0.033c-0.329-0.125-0.329-0.125-0.329-0.125l-0.885-0.379   c-0.459,0.276-0.664,0.581-0.664,0.581s-0.443,0.799-0.569,0.557c-0.126-0.242-0.664-0.032-0.664-0.032s-0.566,0.188-0.733-0.025   c-0.167-0.212-0.443-0.319-0.443-0.319l-0.388-0.51l-0.664-0.464l-0.553-0.169c0,0-0.063,0.067-0.253,0.16   s-0.664,0.384-0.664,0.384l-0.338,0.05l-0.263,0.039l-0.338-0.532l-0.483-0.559l-0.332-0.332l-0.663,0.357   c-0.46,0.306-0.586,0.306-1.218,0.306s-1.486-0.237-1.486-0.237l-1.17-0.142c0,0-0.411-0.109-0.205-0.616   c0.205-0.507,0.047-0.522,0.047-0.522l-0.323-0.122c0,0-0.206-0.11-0.467-0.091c-0.261,0.019-0.585,0.008-0.585,0.008l-0.664-0.009   l-0.522,0.071c0,0-0.399-0.205-0.511-0.258c-0.112-0.053-0.631-0.348-0.631-0.348l-0.312-0.39c0,0,0.108-0.215-0.311-0.389   c-0.42-0.175-1.022-0.574-1.022-0.574l-0.673-0.364l-0.279-0.189v-0.545v-0.213c0,0-0.012-0.054-0.424-0.063   c-0.411-0.008-0.309-0.025-0.609-0.076c-0.3-0.051-0.3-0.051-0.3-0.051l-0.427-0.126l-0.379,0.063l-0.265-0.187   c0,0-0.067,0.06-0.257-0.035c-0.19-0.095-0.332,0.19-0.403-0.047c-0.071-0.237-0.071-0.237-0.071-0.237s-0.373-0.026-0.494-0.262   c-0.122-0.236-0.122-0.236-0.122-0.236s-0.403-0.134,0.095-0.387c0.498-0.253,0.632-0.379,0.632-0.379l0.269-0.632l0.352-0.397   l0.393-0.427l-0.555-0.48l-0.308-0.379l-0.782-0.593l0.752-0.501l0.954-1.064l0.695-0.711c0,0-0.032-0.142-0.079-0.332   c-0.047-0.19-0.174-0.553-0.174-0.553l-0.474-0.664l-0.158-0.221l-0.023-1.267l0.023-0.504l0.885-0.885L22.568,50.277z"> <title>Huaytará</title></path>
	<path id="0904" data-ng-click="$ctrl.openMap(2, '0904', true, $event)" fill="none" stroke="#020202" stroke-width="0.3" stroke-miterlimit="10" d="M21.449,27.164h0.948h0.695   c0,0,0.506,0.158,0.695,0c0.19-0.158,0.316-0.46,0.759,0.07s0.379,0.783,0.695,0.973c0.316,0.19,0.063,0.063,0.443,0.632   s0.506,1.454,0.506,1.454l0.569,0.632v0.632c0,0,0.126,0.063,0.443,0c0.316-0.063,0.506-0.126,0.695-0.253   c0.19-0.126,0.316-0.253,0.569-0.379c0.253-0.126,0.236,0.126,0.75-0.253s0.071-0.822,0.514-0.379s0.174,1.131,0.846,1.292   c0.672,0.162,0.939,0.288,1.09,0.604c0.151,0.316,0.087,0.632,0.467,0.853c0.379,0.221,0.569,0.284,0.759,0   c0.19-0.284,0-0.79,0-0.79s0.475-0.316,0.87-0.316c0.395,0,0.774-0.063,1.28-0.253c0.506-0.19,0.443-0.19,0.822-0.19   c0.379,0,0.253-0.948,0.379,0s0,1.739,0,1.739s-0.267,0.726,0.056,1.801c0.323,1.075,0.323,1.454,0.323,1.454s-0.569-0.126,0,0.379   c0.569,0.506,1.026,0.822,1.026,0.822c0.238,1.011,0.167,0.381,0.238,1.011s0.071,0.631,0.071,0.631l0,0l-0.309,0.065   c0,0-0.065,0.019-0.111,0.028s-0.252,0.027-0.252,0.027h-0.152l-0.512-0.055l-0.307,0.123l-0.287,0.1l-0.231,0.088l-0.12,0.103   l-0.108,0.113l-0.275,0.231l-0.206,0.109l-0.193,0.064l-0.236,0.041l-0.218,0.027l-0.277,0.06l-0.135,0.078   c0,0-0.103,0.099-0.132,0.138c-0.029,0.039-0.135,0.305-0.135,0.305h-1.249V43c0,0-0.115,0.201-0.189,0.26   c-0.074,0.058-0.21,0.153-0.289,0.201c-0.079,0.048-0.367,0.203-0.367,0.203l-0.671,0.727c0,0,0.027,0.458,0.027,0.506   c0,0.047-0.014,0.3-0.014,0.3l-0.112,0.305c0,0-0.104,0.171-0.134,0.214s-0.187,0.255-0.187,0.255l-0.095,0.191l-0.074,0.09   l-0.113,0.096l-0.12,0.063l-0.101,0.078c0,0-0.058,0.126-0.022,0.222s0.123,0.244,0.123,0.244s-0.224,0.045-0.258,0.052   s-0.137,0.028-0.137,0.028h-0.561c0,0-0.253-0.074-0.336-0.076c-0.083-0.002-0.123-0.006-0.19,0.011   c-0.067,0.017-0.271,0.148-0.316,0.185c-0.045,0.038-0.108,0.091-0.157,0.136s-0.184,0.171-0.184,0.171l-0.204,0.21l-0.185,0.259   l-1.201,0.925l-0.633,0.048l-0.249,0.012l-0.189,0.005l-0.201,0.001h-0.154h-0.154l-0.105-0.036l-0.084-0.03l-0.178,0.015   c0,0-0.119,0.073-0.144,0.093S24.195,49.1,24.195,49.1l-0.47,0.538l-0.121,0.563l-0.069,0.26l-0.074,0.096l-0.067-0.032   l-0.084-0.161l-0.028-0.088h-0.34h-0.374l0.366-1.208c0,0-0.146-0.37,0.158-0.664c0.304-0.294,0.198-0.007,0.304-0.294   s-0.078-0.751-0.078-0.751s-0.524-0.496-0.621-0.588c-0.097-0.092-0.421-0.398-0.534-0.505c-0.113-0.107-0.714-0.675-0.714-0.675   l-0.378,0.529l-0.254,0.356c0,0-0.569-0.19-0.727-0.095c-0.158,0.095-0.537,0.221-0.537,0.221s0.068,0.026-0.632,0.253   c-0.701,0.227-0.986,0.287-1.107,0.313c-0.121,0.026-1.106,0.098-1.106,0.098l-0.318,0.399c0,0-0.435,0.245-0.497,0.077   c-0.062-0.168-0.284-0.152-0.386-0.255c-0.103-0.103-0.198-0.269-0.198-0.269l-0.247-0.196l-0.582-0.278c0,0-0.111,0-0.237-0.071   s-0.284,0-0.284,0l-0.281,0.039c0,0-0.193-0.015-0.288-0.062c-0.095-0.047-0.356-0.237-0.356-0.237l-0.379-0.237   c0,0-0.166-0.356-0.166-0.427c0-0.071,0.073-0.502,0.134-0.581c0.061-0.079,0.163-0.212,0.26-0.337s-0.027-0.051,0.227-0.204   c0.254-0.153,0.153-0.253,0.327-0.277c0.174-0.024,0.166-0.356,0.237-0.45c0.071-0.095,0.221-0.095,0.332-0.166   c0.111-0.071,0.633-0.266,0.633-0.266l0.221-0.185c0,0,0.284-0.925,0.356-1.09c0.071-0.166,0.3-0.687,0.292-0.901   c-0.008-0.213,0.19-0.948,0.19-0.948s-0.015,0.074,0.061-0.304c0.076-0.378,0.129-0.644,0.129-0.644l-0.435-1.162   c0,0,0.25-0.859,0.261-0.972c0.01-0.113-0.024-0.64,0.024-0.735s0.122-0.279,0.148-0.407c0.026-0.128,0.255-0.376,0.255-0.376   s0.047-0.095,0.213-0.119c0.166-0.024,0.292-0.15,0.545-0.15s0.119,0.324,0.522,0c0.403-0.324,0.554-0.61,0.554-0.61   s0.062-0.307,0.062-0.449c0-0.142,0.237-0.474,0.237-0.474l0.095-1.162l-0.427-0.308l-0.308-0.569l-0.166-0.474   c0,0,0.024-0.19,0.119-0.308c0.095-0.119,0.45-1.825,0.45-1.825l0.474-0.522l0.19-0.332c0,0,0.522-0.024,0.687-0.119   c0.166-0.095,0.522-0.308,0.522-0.308s0.332-0.19,0.64-0.332C20.856,27.543,21.449,27.164,21.449,27.164z"> <title>Castrovirreyna</title></path>
	<path id="0903" data-ng-click="$ctrl.openMap(2, '0903', true, $event)" fill="none" stroke="#020202" stroke-width="0.3" stroke-miterlimit="10" d="M58.999,31.305l-1.011,0.253   c0,0-0.063,0.126-0.379,0.316c-0.316,0.19-0.759,0.316-0.759,0.316h-1.011c0,0,0.506,1.517-0.253,0.853S54.321,32,54.321,32   s-0.632-0.569-0.822-0.695c-0.19-0.126-0.759-0.569-0.948-0.569s-1.79-0.379-1.79-0.379h-0.675v-0.316l-0.253-0.822   c0,0-1.249-0.379-1.098,0s0,0.885,0,0.885l-0.608-0.063v-0.695c0,0-0.19-0.4-0.379-0.295c-0.107,0.059-0.436,0.146-0.702,0.21   c-0.205,0.049-0.373,0.085-0.373,0.085c-0.126,0.443-0.822,0.506-0.822,0.506c-0.316,0.19-1.075,0.19-1.075,0.19   s-0.19-0.126-0.506,0.316c-0.316,0.443-0.885,0.519-0.885,0.765s0,0.246,0,0.246l-1.201,0.19c-0.569,0.253-0.885,0.253-0.885,0.253   v0.569v0.379l0.569,0.284l0.822,0.168c0,0,0.063,0.369-0.316,0.496c-0.379,0.126-0.443,0.253-0.695,0.316   c-0.253,0.063-0.379,0.569-0.379,0.569l-1.011,0.506c0,0-0.19,0.695,0,0.885s-0.19,1.011,0,1.517s0.273,2.013,0.273,2.013   l0.549-0.116c0,0,0.315,0.043,0.407,0.03s0.478-0.103,0.478-0.103l0.23-0.173l0.149-0.323h0.853l0.348,0.569h1.833l0.561,0.514   l0.451,0.371c0,0,0.273,0.389,0.295,0.605c0.022,0.216,0.022,1.607,0.022,1.607l0.443,0.316l0.346,0.332   c0,0,0.674-0.585,0.733-0.743c0.059-0.158,0.248-0.316,0.501-0.6c0.253-0.284,0.443-0.474,0.443-0.474s-0.068,0.154,0.124-0.129   c0.192-0.282,0.445-0.535,0.445-0.535s0.474-0.126,0.664-0.126c0.19,0,0.327,0.126,0.327,0.126l0.273-0.537v-0.316   c0.158-0.19,0.379-0.158,0.379-0.158s0.221,0.063,0.348,0.095c0.126,0.032,0.126,0.063,0.601,0.032   c0.474-0.032,0.411,0.063,0.664-0.032c0.253-0.095,0.98-0.158,1.138-0.253c0.158-0.095,0.158-0.095,0.664-0.095   c0.506,0,0.98-0.253,0.98-0.253s0.095-0.284,0.348-0.537c0.253-0.253,0.348-0.19,0.537-0.379c0.19-0.19,0.348-0.411,0.348-0.411   s0.126-0.506,0.221-0.664c0.095-0.158,0.095-0.569,0.126-0.695s0.095-0.506,0.158-0.601c0.063-0.095,0.443-0.632,0.443-0.632   l0.474-0.727c0,0,0.443,0.474,0.537,0.569s0.411,0.411,0.411,0.411l0.236,0.334l0.301-0.081l0.949-0.108l0.758,0.108l-0.19-1.106   l-0.154-0.955l-0.51,0.039l-0.474-0.316c0,0-0.316-1.138-0.379-1.328c-0.063-0.19-0.443-0.822-0.443-0.822L58.999,31.305z"> <title>Angaraes</title></path>
	<path id="0902" data-ng-click="$ctrl.openMap(2, '0902', true, $event)" fill="none" stroke="#020202" stroke-width="0.3" stroke-miterlimit="10" d="M46.514,28.618l-0.348-0.221l-0.443-0.379   l-0.79-0.601c0,0-0.284,0.158-0.316,0s0.032-0.664,0-0.853s-0.145-0.379-0.009-0.379c0.136,0,0.357,0.221,0.357,0   c0-0.221-0.063-1.486-0.063-1.486v-1.296l0.063-0.79c0,0-0.032-0.19,0.095-0.316s0.19-0.221,0.284-0.221c0.095,0,0.759,0,0.759,0   s0.221,0,0.411,0s0.759,0.032,0.948,0s0.917-0.19,0.917-0.19s0.773,0.759,1.05,0.948c0.277,0.19,1.036,1.138,1.036,1.138   s-0.053,0.537,0.464,0.759c0.516,0.221,0.738,0.221,0.959,0.522s0.284,0.427,0.601,0.743c0.316,0.316,0.79,0.94,0.79,0.94   s0.19,0.103,0.348,0.23c0.158,0.126,0.221,0.221,0.379,0.284c0.158,0.063,0.569,0.284,0.569,0.284s-0.158,0.158,0.284,0.158   c0.443,0,0.98-0.095,0.98-0.095l1.328,0.537c0.221,0.095,0.917,0.095,0.98,0.284c0.063,0.19,0.253,0.414,0.253,0.414   s0.474,0.376,0.727,0.692c0.253,0.316,0.348,0.316,0.284,0.537c-0.063,0.221-0.181,1.014-0.181,1.014l-1.241,0.282l-0.956,0.573   l-1.193,0.059l0.144,0.577l-0.002,0.371c0,0-0.175,0.085-0.323-0.038s-0.57-0.483-0.57-0.483l-1.331-1.109l-1.035-0.716   l-0.428-0.095l-0.444-0.092l-1.089-0.248h-0.675v-0.316l-0.253-0.822c0,0-0.649-0.15-0.727-0.158s-0.253-0.028-0.253-0.028   l-0.119,0.089c0,0,0.05,0.24,0.058,0.35c0.007,0.11-0.058,0.632-0.058,0.632l-0.608-0.063v-0.695l-0.254-0.297l-0.126,0.002   l-0.359,0.122l-0.343,0.088l-0.373,0.085L46.514,28.618z"> <title>Acobamba</title></path>
	<path xmlns="http://www.w3.org/2000/svg" id="0905" data-ng-click="$ctrl.openMap(2, '0905', true, $event)" fill="none" stroke="#020202" stroke-width="0.3" stroke-miterlimit="10" d="M48.379,21.886l-1.011-0.885   c0,0,0.126-0.253,0-0.569s0-0.695,0-0.695s-0.365-0.443-0.056-0.632c0.309-0.19,1.004-0.759,1.068-0.822s0.253-0.19,0.632-0.443   c0.379-0.253,0.443-0.316,0.695-0.443c0.253-0.126,1.222-0.506,1.222-0.506l-0.168-0.822V15.69l-0.549-0.885l-0.126-0.569   l0.675-0.253h0.842l0.316,0.379h0.632c0,0,0.316,0.695,0.253,1.011c-0.063,0.316,0,0.632,0,0.632c0.316,0,0.811,0,0.811,0h1.243   l0.537,0.063l1.201-0.063c0,0,0,0.885,0.126,1.328c0.126,0.443-0.316-0.316,0.126,0.443c0.443,0.759,0.506,1.391,0.506,1.391   l0.443,0.569l-0.063,0.695c0,0,0.379,0.379,0.632,0.569c0.253,0.19,1.145,0.697,1.145,0.697s0.625-0.128,0.499,0.251   c-0.126,0.379,0.126,0.379-0.253,1.201s-0.484,1.791-0.463,1.749c0.021-0.042-0.021,0.042-0.021,0.042l0.737,0.674h0.759v1.897   c0,0-0.316,0.126-0.379,0.379s-0.063,0.885-0.379,0.759c-0.316-0.126-0.582,0-0.582,0l-0.467,0.383l-0.153,0.358l-0.41-0.358   l-0.374-0.512l-0.401-0.095l-0.308-0.051l-0.268-0.089l-0.518-0.21l-0.691-0.28l-0.413,0.058l-0.567,0.037l-0.284-0.158   l-0.326-0.17l-0.362-0.179l-0.26-0.22l-0.348-0.23l-0.388-0.487l-0.54-0.596l-0.364-0.463l-0.353-0.368   c0,0-0.194-0.091-0.264-0.118c-0.07-0.027-0.161-0.061-0.161-0.061l-0.28-0.111l-0.168-0.096l-0.217-0.268l-0.078-0.395   l-0.256-0.312L48.379,21.886z"> <title>Churcampa</title></path>

	<path id="0901" data-ng-click="$ctrl.openMap(2, '0901', true, $event)" fill="none" stroke="#020202" stroke-width="0.3" stroke-miterlimit="10" d="M33.207,14.232l0.554,0.226   c0,0,0.584-0.131,0.679-0.113c0.095,0.018,0.506,0,0.506,0l0.695,0.397l0.777,0.443c0,0,0.171,0.681,0.266,0.799   c0.095,0.118,0.253,0.308,0.316,0.466c0.063,0.158,0.316,0.221,0.506,0.537c0.19,0.316,0.19,0.664,0.316,1.106   s0.134,1.075,0.134,1.075s-0.355,0.537-0.45,0.853c-0.095,0.316-0.316,0.849-0.316,0.849L37,21.317l-0.582,0.948l-0.619,0.221   L35.23,22.96c0,0-0.443,0.885-0.506,1.011s-0.126,0.032-0.158,0.411s-0.253,0.316,0.032,0.727c0.284,0.411,0.19,0.474,0.379,0.569   c0.19,0.095,0.604,0.158,0.604,0.158s-0.162,0.284,0.186,0c0.348-0.284,0.037-0.221,0.651-0.284   c0.614-0.063,0.993-0.158,0.993-0.158s0.032,0.443,0.032-0.221c0-0.664,0-0.822,0-0.822s-0.063,0.158,0-0.19   c0.063-0.348,0.063-0.474,0.095-0.695c0.032-0.221,0.032-0.443,0.126-0.632c0.095-0.19-0.19,0.032,0.095-0.19   c0.284-0.221,0.576-0.506,0.576-0.506s0.056-0.284,0.467-0.253c0.411,0.032,0.853,0,0.853,0l0.19-0.348   c0,0,0.274-0.253,0.358-0.284s0.274-0.136,0.242-0.384s0.004-0.469,0.004-0.469s-0.014-0.126-0.246-0.19   c-0.232-0.063-0.232-0.063-0.232-0.063l-0.158-0.885c0,0-0.032-0.19,0.095-0.19s0.541,0.032,0.541,0.032l0.787-0.221   c0,0-0.253,0.095,0.253-0.126c0.506-0.221,1.138-0.396,1.138-0.396l0.253-0.489c0,0,0.095-0.095,0.316-0.253   c0.221-0.158,0.537-0.411,0.537-0.411s-0.221-0.253,0-0.284c0.221-0.032,0.379-0.063,0.379-0.063l0.885,0.095v0.537l0.79,0.032   c0,0,0.19-0.063,0.284-0.063s0.158,0.19,0.221,0.411c0.063,0.221,0.253,0.221,0.253,0.221s0.063,0.124,0.158,0.268   s0.095,0.143,0.095,0.143l0.513,0.601c0,0-0.17,0.177-0.105,0.332s0.161,0.3,0.161,0.3s-0.042,0.176-0.047,0.229   s-0.013,0.275,0.017,0.371c0.03,0.096,0.068,0.204,0.075,0.259c0.007,0.055,0.045,0.294,0,0.35   c-0.045,0.056-0.045,0.056-0.045,0.056l1.011,0.885l-0.346,0.074l-0.397,0.083l-0.261,0.042c0,0-0.498,0-0.597-0.003   c-0.098-0.003-0.617-0.006-0.751-0.006c-0.134,0-0.683,0-0.683,0s-0.263,0.125-0.32,0.269c-0.057,0.144-0.096,0.725-0.096,0.725   l-0.027,0.821l0.033,1.5l0.03,0.795c0,0-0.034,0.125-0.135,0.08c-0.101-0.045-0.222-0.08-0.222-0.08s-0.076,0.041-0.033,0.21   c0.043,0.169,0.052,0.338,0.051,0.374s-0.018,0.486-0.018,0.486l0.009,0.163c0,0,0.053,0.09,0.139,0.066   c0.086-0.024,0.177-0.066,0.177-0.066l0.79,0.601l0.443,0.379l0.348,0.221l0.158,0.727c0,0-0.098,0.199-0.166,0.252   c-0.068,0.053-0.227,0.143-0.286,0.164c-0.059,0.021-0.37,0.09-0.37,0.09s-0.179,0.078-0.231,0.092   c-0.052,0.013-0.191,0.045-0.28,0.056c-0.089,0.012-0.268,0.03-0.357,0.035s-0.168,0.021-0.207,0.007s-0.151-0.014-0.206,0.021   c-0.055,0.035-0.219,0.191-0.219,0.191l-0.234,0.277l-0.167,0.134c0,0-0.206,0.129-0.25,0.155s-0.149,0.081-0.202,0.128   c-0.053,0.047-0.1,0.049-0.107,0.139c-0.006,0.09-0.006,0.283-0.006,0.283l-0.4,0.063l-0.42,0.066l-0.381,0.06   c0,0-0.372,0.145-0.416,0.158c-0.044,0.013-0.399,0.09-0.399,0.09l-0.071,0.005v0.948l0.569,0.284l0.822,0.168   c0,0,0.01,0.232-0.074,0.323c-0.084,0.09-0.084,0.09-0.084,0.09s-0.286,0.13-0.311,0.14c-0.024,0.011-0.165,0.079-0.224,0.114   c-0.059,0.034-0.138,0.084-0.207,0.108s-0.155,0.042-0.2,0.08c-0.045,0.037-0.22,0.296-0.255,0.411   c-0.036,0.115-0.036,0.115-0.036,0.115l-1.011,0.506c0,0-0.122,0.474-0.084,0.582c0,0,0.027,0.225,0.056,0.264   s0.08,0.111,0.081,0.189c0.001,0.077-0.05,0.465-0.066,0.573c-0.016,0.108-0.066,0.485-0.027,0.64s0.161,0.662,0.178,0.782   c0.017,0.119,0.1,0.902,0.1,0.902l0.035,0.484l-0.336,0.137h-1.328c0,0-0.309-0.198-0.376-0.225   c-0.067-0.028-0.565-0.092-0.565-0.092l-0.101-0.886l-0.208-0.756c0,0-0.647-0.496-0.723-0.56s-0.377-0.33-0.377-0.33l-0.168-0.208   c0,0-0.02-0.093,0.034-0.104c0.054-0.011,0.208,0.002,0.208,0.002s-0.041-0.331-0.05-0.379c-0.009-0.048-0.221-0.9-0.221-0.9   l-0.169-0.689c0,0-0.038-0.691-0.037-0.715s0.055-0.418,0.067-0.462c0.012-0.045,0.031-0.11,0.031-0.11s0.05-0.553,0.052-0.618   c0.002-0.065-0.007-0.642-0.007-0.642l-0.061-0.601l-0.033-0.227c0,0-0.015-0.089-0.056,0.032s-0.074,0.186-0.074,0.186   l-0.083,0.092l-0.081,0.035l-0.162,0.005l-0.184,0.012l-0.095,0.022c0,0-0.315,0.116-0.389,0.143   c-0.074,0.027-0.385,0.135-0.511,0.164s-0.233,0.057-0.37,0.072c-0.136,0.015-0.399,0.023-0.47,0.029   c-0.071,0.007-0.196,0.023-0.297,0.059c-0.101,0.036-0.532,0.256-0.532,0.256s0.072,0.285,0.077,0.332s0.025,0.22-0.017,0.324   c-0.042,0.104-0.125,0.237-0.184,0.27c-0.059,0.033-0.157,0.11-0.362,0.006c-0.205-0.103-0.409-0.238-0.434-0.266   c-0.025-0.028-0.125-0.162-0.156-0.264c-0.031-0.102-0.126-0.44-0.177-0.519c-0.051-0.079-0.12-0.201-0.275-0.28   c-0.155-0.079-0.298-0.14-0.444-0.18c-0.145-0.041-0.416-0.1-0.49-0.141s-0.234-0.131-0.298-0.312   c-0.064-0.181-0.15-0.488-0.15-0.488l-0.072-0.187l-0.065-0.116l-0.08-0.105l-0.094-0.096l-0.06-0.059c0,0-0.106,0.032-0.123,0.099   c-0.017,0.067-0.097,0.226-0.097,0.226l-0.142,0.148l-0.145,0.104l-0.124,0.073l-0.162,0.061l-0.13,0.004l-0.142,0.004l-0.08,0.03   l-0.193,0.111l-0.163,0.115l-0.145,0.107l-0.117,0.078l-0.146,0.077l-0.197,0.072l-0.254,0.063l-0.237,0.036l-0.165-0.004   l-0.09-0.022v-0.632l-0.569-0.632c0,0-0.136-0.753-0.305-1.079c-0.169-0.326-0.407-0.734-0.415-0.753   c-0.008-0.019-0.047-0.121-0.068-0.142c-0.02-0.021-0.291-0.181-0.363-0.301s-0.242-0.444-0.311-0.542s-0.254-0.334-0.322-0.392   s-0.188-0.142-0.289-0.149s-0.174,0.08-0.225,0.131c-0.051,0.05-0.103,0.115-0.168,0.135c-0.065,0.02-0.137,0.037-0.208,0.034   c-0.071-0.003-0.156-0.005-0.267-0.031c-0.111-0.026-0.157-0.039-0.157-0.039h-0.376h-0.803h-0.464l-0.535-0.65l-0.277-0.66   c0,0-0.509-0.866-0.5-0.937s-0.08-0.509-0.08-0.535c0-0.027-0.018-0.785,0-0.812c0.018-0.027-0.08-1.714-0.08-1.714l-0.203-0.396   c0,0,0.553-0.016,0.601,0.016s0.3,0.19,0.332,0.237c0.032,0.047,0.237,0.427,0.332,0.569c0.095,0.142,0.634,0.82,0.735,0.874   c0.101,0.054,0.639,0.182,0.703,0.231c0.064,0.049,0.206,0.017,0.269,0.08c0.063,0.063,0.569-0.063,0.569-0.063   s0.332-0.348,0.458-0.522c0.126-0.174,0.79-0.869,0.822-0.917c0.032-0.047,0.284-0.522,0.316-0.569   c0.032-0.047,0.427-1.185,0.427-1.185l0.88-0.269h0.464c0,0,0.356-0.345,0.363-0.411c0.008-0.066,0.062-0.524,0.062-0.524   l0.46-0.267l0.806-0.253l0.845-0.901l0.64-0.363l0.664-0.885l0.205-0.443l0.379-0.885l0.047-0.648c0,0,0.237-0.126,0.332-0.142   C31.579,14.205,33.207,14.232,33.207,14.232z"> <title>Huancavelica</title></path>
	<path id="0907" data-ng-click="$ctrl.openMap(2, '0907', true, $event)" fill="none" stroke="#020202" stroke-width="0.3" stroke-miterlimit="10" d="M33.335,13.994c0,0,0.662-1.233,0.741-1.38   c0.079-0.147,0.509-1.418,0.863-1.636c0.354-0.218,0.825-0.979,0.923-1.166c0.098-0.187,0.221-1.422,0.221-1.422   s-0.443-0.632-0.443-0.727s0.443-1.73,0.443-1.955c0-0.226,0.211-0.979,0.221-1.073s-0.068-1.393,0.032-1.555   s0.51-0.822,0.51-0.822l0.281-0.269h0.98l0.727,0.237l1.233,0.19l0.774,0.569l1.991,0.996c0,0,0.916,0.004,1.225-0.037   C44.365,3.9,45.441,3.92,45.441,3.92l2.18,0.202l0.276-0.927c0,0,0.872-0.776,1.033-0.857c0.161-0.081,0.792-0.097,0.793-0.097   c0.001,0,0.669-0.034,1.038-0.016c0.37,0.018,1.474,0.021,1.727,0.011c0.253-0.011,1.075,0.558,1.075,0.558l1.549,0.221   c0,0,0.34,0.225,0.506,0.284c0.165,0.06,0.601,0.885,0.695,1.011c0.095,0.126,0.822,1.17,0.98,1.328   c0.158,0.158,0.506,0.759,0.506,0.759L57.62,8.073c0,0-0.422,1.177-0.454,1.315c-0.032,0.138-0.253,0.897-0.253,0.897l-1.075,0.032   h-1.011c0,0-0.443,0.443-0.632,0.632c-0.19,0.19-0.363,0.197-0.624,0.415c-0.261,0.217-1.304,0.217-1.304,0.217   s-0.037,0.741-0.281,0.876s-0.734,0.263-0.699,0.389c0.035,0.126,0.158,0.19,0,0.316c-0.158,0.126-0.158,0.832-0.158,0.832   l-0.368-0.01l-0.675,0.253l0.126,0.569l0.549,0.885l0.168,1.201l-1.222,0.506l-2.395,1.707l-0.608-0.744l-0.158-0.268l-0.145-0.054   l-0.329-0.578l-0.284,0.063l-0.79-0.032v-0.537L44.4,16.891l-0.288-0.031l-0.379,0.063v0.284l-0.853,0.664l-0.253,0.489   l-1.391,0.523l-0.787,0.221l-0.541-0.032c0,0-0.138-0.054-0.058,0.397c0.08,0.451,0.121,0.678,0.121,0.678s0.259,0.066,0.321,0.099   c0.063,0.033,0.13,0.063,0.141,0.343c0.011,0.28-0.02,0.482-0.02,0.482s-0.105,0.113-0.211,0.182   c-0.106,0.069-0.311,0.198-0.358,0.284c-0.047,0.087-0.19,0.348-0.19,0.348h-0.853c0,0-0.19-0.045-0.304,0.055   c-0.115,0.1-0.162,0.198-0.162,0.198l-0.437,0.392l-0.237,0.19l-0.219,1.631l-0.032,1.043l-0.696,0.123l-0.727,0.098l-0.221,0.221   h-0.186l-0.604-0.158l-0.298-0.444l-0.224-0.441l0.12-0.492l0.058-0.219l0.151-0.231l0.446-0.891l0.569-0.474l0.619-0.221   L37,21.317l0.506-1.296l0.45-0.853v-0.332l-0.062-0.399l-0.114-0.507l-0.122-0.559l-0.152-0.384l-0.192-0.235l-0.254-0.219   l-0.158-0.261l-0.218-0.289l-0.266-0.799l-1.472-0.84l-0.379,0.008l-0.399,0.023l-0.407,0.082l-0.554-0.226L33.335,13.994z"> <title>Tayacaja</title></path>
</g>
</svg>
