<?xml version="1.0" encoding="utf-8"?>
<svg xmlns="http://www.w3.org/2000/svg" xmlns:xlink="http://www.w3.org/1999/xlink" version="1.1" id="10" x="0px" y="0px" viewBox="0 0 74 71" enable-background="new 0 0 74 71" xml:space="preserve">
	<title>Huánuco</title>
<g>
	<path id="1009" data-ng-click="$ctrl.openMap(2, '1009', true, $event)" fill="none" stroke="#020202" stroke-width="0.3" stroke-miterlimit="10" d="M44.815,35.826l-0.541,0.786l-0.492,0.442   c0,0-0.344,0.098-0.442,0.246s0,1.032,0,1.032s0.06,0-0.044,0.246s0,0.983,0,0.983s-0.104,0.492-0.3,0.59s-0.295-0.049-0.492,0.246   s0.246,0.246,0,0.737s0.142,0.688-0.052,0.885c-0.194,0.197-0.538,0.983-0.538,0.983l0.295,0.836l0.59,0.786   c0,0-0.295,0.295-0.541,0.393s-0.688,0.147-0.688,0.147s0.147-0.197,0,0.246c-0.147,0.442-0.147,0.442-0.147,0.442v0.688   l0.246,0.492c0.639,0.246,0.639,0.246,0.639,0.246l0.811,0.541c0,0,0.123,0,0.319,0s0.688,0.098,0.836,0.344   s0.442,0.541,0.442,0.541l0.098,0.295l0.786,0.492l1.18,0.496l0.66,0.339l0.962-0.59l0.344-0.492l0.393-0.393l0.234-0.39   l0.257-0.347l0.098-0.246l0.295-0.197l0.59-0.295l0.492-0.295c0,0,0.59-0.098,0.737-0.197s0.541-0.393,0.541-0.393l-0.098-0.983   l-0.344-0.639h1.131l1.032,0.885l0.639,0.442l0.393-0.147l0.639,0.147l0.639,0.147c0,0,0.147,0.393,0.393,0.295   s0.737,0,1.032-0.098s1.769-0.59,1.769-0.59l0.295-0.442l0.757-0.639l0.324-0.246l0.575-0.269l1.194-0.076h0.59l0.541-0.147   l0.737-0.737v-0.664v-0.516l0.447-0.638l0.585-0.836l0.393-1.524l0.197-0.688l0.008-0.365l0.188-0.864l0.344-0.688l0.639-0.393   l0.295-0.836l0.393-0.393l0.59-0.885l0.639-0.639c0,0,0.23-0.137,0.23-0.437c0-0.3,0.114-0.89,0.114-0.89l-0.098-0.393   c0,0,0.049-0.246-0.098-0.295c-0.147-0.049-0.393-0.197-0.59-0.492c-0.197-0.295-0.393-0.786-0.393-0.786l-0.098-0.492   c0,0-0.049-0.541-0.049-0.737c0-0.197-0.098-0.836-0.098-1.081c0-0.246-0.092-1.098-0.092-1.098l-0.006-0.377l0.049-1.229v-1.18   c0,0-0.049-0.442,0-0.59c0.049-0.147,0.197-0.197,0.344-0.492c0.147-0.295,0.147-0.983,0.147-0.983l0.869-1.311l0.507,0.033   l0.836-0.639l0.442-0.344l0.393-0.098l-0.344-0.885c0,0-0.197-0.59-0.197-0.836s0.049-0.465,0.049-0.465l-1.229-1.009l-1.057-0.209   L68.568,16.3l-0.75-0.086l-0.283,0.123l-0.737,0.295l-0.627,0.037c0,0-0.406-0.037-0.553,0.074   c-0.147,0.111-0.627,0.184-0.627,0.184l-0.442,0.295c0,0-0.442,0.149-0.7,0.149c-0.258,0-0.184,0.367-0.184,0.478   c0,0.111,0,1.18,0,1.29c0,0.111-0.147,0.479-0.332,0.516c-0.184,0.037-0.59,0.258-0.59,0.258s-0.061,0.025-0.233,0.233   c-0.172,0.209-0.393,0.799-0.393,0.799s-0.123,0.233-0.258,0.553c-0.135,0.319-0.332,0.774-0.332,0.774s-0.184,0.332-0.184,0.59   c0,0.258,0.037,0.811,0.037,0.811l-0.049,0.406c0,0-0.391,0.418-0.669,0.393c-0.278-0.025-0.29,0-0.646,0.049   c-0.356,0.049-0.356,0.049-0.356,0.049l-0.27-0.75l-0.332-0.369c0,0-0.258,0.184-0.516,0.111c-0.258-0.074-0.774,0.221-0.774,0.221   l-0.7,0.221l-0.958,0.553l-0.381,0.111l0.085,1.031l-0.405,1.549l-0.332,1.18c0,0-0.258,0.59-0.295,0.737   c-0.037,0.147,0-0.479-0.111,0.627c-0.111,1.106-0.147,1.585-0.147,1.585l-0.479,0.406c0,0,0.009,0.305-0.161,0.392   c-0.17,0.087-0.711,0.357-0.711,0.357s-0.197,0.209-0.233,0.319c-0.037,0.111-0.258,0.387-0.258,0.387s-0.074-0.227-0.295-0.215   c-0.221,0.012-0.664-0.061-0.664-0.061s-0.111,0-0.221,0c-0.111,0-0.258,0.037-0.516,0.074c-0.258,0.037-0.627,0.037-0.627,0.037   s-0.406-0.111-0.774-0.037c-0.369,0.074-0.59,0.074-0.59,0.074l-0.922,0.369l-0.209,0.037l-0.123,0.627l-0.147,0.295l-0.151,0.455   l-0.623,0.172l-0.528,0.221l-0.541,0.516l-0.258,0.184L44.815,35.826z"> <title>Puerto Inca</title></path>
	<path id="1010" data-ng-click="$ctrl.openMap(2, '1010', true, $event)" fill="none" stroke="#020202" stroke-width="0.3" stroke-miterlimit="10" d="M13.579,48.434c0,0,0.319,0.344,0.369,0.418   c0.049,0.074,0.246,0.295,0.27,0.369c0.025,0.074,0,0.393,0,0.393s-0.074,0.123-0.098,0.344c-0.025,0.221-0.087,0.413-0.216,0.563   c-0.128,0.15-0.184,0.224-0.227,0.42c-0.043,0.197-0.098,0.393-0.098,0.393l-0.221,0.614l-0.221,0.836l-0.098,0.442   c0,0-0.369,0.074-0.442,0.197c-0.074,0.123-0.295-0.049-0.319,0.221s-0.074,0.664-0.074,0.664s-0.03,0.305,0,0.516   c0.03,0.211,0.049,0.369,0.049,0.369l0.098,0.442c0,0,0.096,0.319,0.109,0.516c0.014,0.197,0-0.094,0.038,0.319   s0.05,0.513,0.064,0.637c0.014,0.125,0.014,0.125,0.014,0.125v0.909l0.463,0.466c0,0,0.362,0.298,0.417,0.419   s0.172,0.123,0.246,0.27c0.074,0.147,0.049,0.049,0.344,0.319c0.295,0.27,0.442,0.442,0.442,0.442s-0.074,0.393,0,0.492   s0.098-0.098,0.123,0.221c0.025,0.319,0.148,0.322,0.172,0.444c0.024,0.121,0.059,0.144,0.157,0.205s0.345,0.217,0.345,0.217   s0.118,0.017,0.152,0.128c0.034,0.112-0.064,0.125,0.231,0.284c0.295,0.159,0.442,0,0.442,0l0.506-0.123   c0,0,0.133-0.098,0.207-0.123c0.074-0.025,0.369-0.049,0.467-0.123c0.098-0.074,0.433-0.07,0.516-0.221s0.344-0.196,0.541-0.27   c0.196-0.074,0.205-0.126,0.385-0.186s0.519-0.355,0.519-0.355s0.042-0.07,0.251-0.221s0.27-0.344,0.27-0.344s0-0.098,0.123-0.098   s0.639-0.221,0.639-0.221l0.59-0.057c0,0,0.078-0.009,0.256-0.037c0.178-0.028,0.776-0.112,0.776-0.112s0.048-0.074,0.127-0.093   s0.217-0.487,0.192-0.61c-0.025-0.123-0.172-0.565-0.172-0.565l-0.639-0.406c0,0-0.147-0.552-0.147-0.65s0.049-0.37,0.049-0.578   c0-0.208-0.025-0.552,0-0.749s-0.025-0.811-0.025-0.934c0-0.123,0.123,0.025,0-0.516s-0.295-0.983-0.295-1.057   s-0.074-0.295-0.344-0.418c-0.27-0.123-0.344-0.172-0.639-0.246c-0.295-0.074-0.197,0-0.492-0.074   c-0.295-0.074-0.565-0.025-0.541-0.147c0.025-0.123,0.074-0.147,0.098-0.27c0.025-0.123,0.049-0.197,0.123-0.27   c0.074-0.074,0.27-0.393,0.27-0.393s-0.025-0.295,0.025-0.442s0.074-0.197,0.172-0.369c0.098-0.172,0.319-0.492,0.319-0.639   s0-0.86,0-0.86l-0.172-0.27c0,0-0.246-0.246-0.369-0.319c-0.123-0.074-0.516-0.147-0.639-0.246s-0.492-0.319-0.614-0.369   s-0.737-0.418-0.737-0.418s-0.183-0.319-0.374-0.319c-0.191,0-0.929-0.049-0.929-0.049s-0.319,0-0.442,0s-0.369-0.172-0.492,0   c-0.123,0.172-0.27,0.123-0.369,0.246c-0.098,0.123-0.246,0.197-0.295,0.246s-0.074,0.049-0.221,0.147   c-0.147,0.098-0.025-0.074-0.147,0.098c-0.123,0.172-0.098,0.295-0.246,0.344C14.046,48.409,13.579,48.434,13.579,48.434z"> <title>Lauricocha</title></path>
	<path id="1002" data-ng-click="$ctrl.openMap(2, '1002', true, $event)" fill="none" stroke="#020202" stroke-width="0.3" stroke-miterlimit="10" d="M21.714,54.234c0,0,0.172,0.147,0.442,0   l0.492-0.197h0.221l0.369,0.131h0.369c0,0,0.049-0.008,0,0.238s-0.172,0.418-0.172,0.541c0,0.123,0.418,0,0.418,0l0.221-0.123   c0,0,0.123-0.031,0.172-0.163c0.049-0.132,0.098-0.255,0.098-0.255v-0.147c0,0,0-0.172,0.172-0.221s0.516-0.123,0.516-0.123   s0.221,0,0.369-0.172c0.147-0.172,0.147-0.319,0.344-0.319c0.197,0,0,0.147,0.197,0c0.197-0.147,0.197-0.27,0.27-0.319   s0.295-0.147,0.295-0.147s0.049-0.147,0.319-0.221c0.27-0.074,0.442-0.319,0.516-0.393c0.074-0.074,0.049-0.123,0.221-0.147   c0.172-0.025,0.197-0.025,0.319-0.098c0.123-0.074,0.418-0.393,0.418-0.393s0.147-0.221,0.221-0.27s0.319-0.123,0.319-0.123v-0.221   c0,0,0.172,0.074,0.319,0c0.147-0.074,0.27,0,0.27,0l0.344-0.147v-0.246l0.123-0.369h0.123c0,0,0-0.246,0.197-0.221   c0.197,0.025,0.909-0.002,0.909-0.002v0.223c0,0-0.049,0.369,0,0.442c0.049,0.074,0.295,0.147,0.319,0.221   c0.025,0.074,0.098,0.172,0,0.541s-0.098,0.492-0.098,0.688s0.075,0.221,0.148,0.221c0.073,0,0.27,0,0.466,0   s0.319-0.074,0.442-0.074c0.123,0,0.418-0.025,0.467,0.074s0.049,0.328,0.074,0.41c0.025,0.082,0.59,0.106,0.59,0.106   s-0.221,0-0.319,0.344s-0.123,0.516-0.123,0.516s0.098,0.098,0.098,0.27c0,0.172,0,0,0.049,0.344   c0.049,0.344,0.098,0.172,0.049,0.344c-0.049,0.172-0.147,0.344-0.147,0.344c0.049,0.147,0.197,0.221,0.221,0.467   c0.025,0.246,0.172,0.319,0.172,0.319s0.098,0.197,0.098,0.319s0,0.319,0,0.319s0-0.075-0.172,0.11   c-0.172,0.185-0.172,0.185-0.172,0.185s-0.049,0.442-0.074,0.664c-0.025,0.221,0.025,0.098-0.025,0.221   c-0.049,0.123-0.098,0.295-0.049,0.418c0.049,0.123,0.049,0.516,0.098,0.59c0.049,0.074,0.049,0,0.172,0   c0.123,0,0.147-0.057,0.221,0.033c0.074,0.09,0,0.926,0,0.926l0.147,1.18c0,0,0,0.172,0,0.344s-0.049,0.442-0.098,0.541   S33.51,62.12,33.51,62.12s-0.369,0.003-0.442-0.144c-0.074-0.147-0.319-0.344-0.442-0.393c-0.123-0.049-0.358-0.495-0.498-0.481   c-0.14,0.014-0.263-0.06-0.509-0.256c-0.246-0.197-0.55-0.519-0.688-0.516c-0.138,0.003-0.264-0.088-0.759-0.278   s-0.617-0.263-0.765-0.312s-0.565-0.371-0.565-0.371s-0.319,0.198-0.418,0.371c-0.098,0.172-0.262,0.272-0.315,0.406   c-0.053,0.134-0.324,0.257-0.373,0.331c-0.049,0.074-0.192,0.172-0.192,0.172l-0.054-0.787c0,0-0.295-0.418-0.295-0.639   c0-0.221,0.137-1.208,0.137-1.208l0.01-0.34l-0.05-0.155l-0.196-0.189l-0.369-0.074c0,0-0.074-0.025-0.246-0.025   s-0.355,0.025-0.497,0.025c-0.142,0-0.535-0.025-0.535-0.025s0,0.074-0.123,0.197c-0.123,0.123-0.48,0.046-0.498,0.158   c-0.018,0.112-0.067-0.035-0.289,0.137c-0.221,0.172-0.565,0.246-0.565,0.246s-0.393,0.221-0.516,0.27s0.177,0.147-0.123,0.049   c-0.3-0.098-0.737-0.191-0.737-0.191l-0.295,0.191l-0.639-0.406l-0.147-0.65l0.042-0.417l0.01-1.274l-0.015-0.323l-0.012-0.248   l0.038-0.086l0.003-0.225l-0.079-0.367l-0.03-0.117L21.714,54.234z"> <title>Ambo</title></path>
	<path id="1008" data-ng-click="$ctrl.openMap(2, '1008', true, $event)" fill="none" stroke="#020202" stroke-width="0.3" stroke-miterlimit="10" d="M33.584,62.12h0.719l0.23-0.07l0.267-0.065   l0.295-0.018l0.147-0.111l0.157-0.166c0,0,0.111-0.101,0.147-0.147c0.037-0.046,0.184-0.286,0.184-0.313s0.083-0.203,0.083-0.24   s0.065-0.359,0.083-0.406s0.175-0.544,0.184-0.581c0.009-0.037-0.009-0.332,0.018-0.442c0.028-0.111,0.018-0.424,0.028-0.488   c0.009-0.065-0.037-0.498-0.037-0.498s0.039-0.092,0.038-0.12s0.057-0.166,0.057-0.166l0.44-0.046l0.94-0.304   c0,0,0.267-0.101,0.304-0.138s0.182-0.219,0.178-0.261c-0.003-0.043,0.092-0.307,0.092-0.307l-0.05-0.74   c0,0,0.147-0.157,0.249-0.147c0.101,0.009,0.608,0.092,0.82,0.092c0.212,0,0.581-0.028,0.581-0.028s0.147,0,0.194,0   c0.046,0,0.258,0.009,0.323,0.009c0.065,0,0.138,0,0.138,0l0.885-0.166c0,0,0.181-0.069,0.215-0.141   c0.034-0.071,0.182-0.154,0.218-0.219c0.037-0.065,0.184-0.304,0.184-0.304s0.037-0.037,0.065-0.101   c0.028-0.065,0.046-0.184,0.046-0.184l-0.037-0.194l0.037-0.157l0.184-0.406c0,0,0.147,0,0.203-0.065   c0.055-0.065,0.313-0.332,0.313-0.332l0.157-0.535l-0.074-0.507l0.074-0.71v-0.258l0.433-0.249l0.581-0.839l0.24-0.415   c0,0,0.258-0.894,0.258-0.931s0.11-0.415,0.157-0.479c0.046-0.065,0.253-0.321,0.253-0.321l-0.14-0.28l-0.152-0.17l-0.094-0.116   l-0.08-0.111l-0.112-0.151l-0.091-0.07c0,0-0.073-0.043-0.106-0.058c-0.034-0.015-0.068-0.031-0.123-0.049   c-0.055-0.018-0.139-0.041-0.139-0.041s0.058,0.003-0.081-0.018c-0.139-0.021-0.186-0.024-0.186-0.024s-0.146-0.002-0.192-0.002   s-0.169,0-0.169,0l-0.811-0.541l-0.639-0.246l-0.246-0.492v-0.688l0.167-0.505l0.038-0.141l0.006-0.05l0.178-0.027l0.129-0.024   c0,0,0.249-0.056,0.317-0.088s0.172-0.093,0.172-0.093l0.369-0.3l-0.553-0.738l-0.036-0.049l-0.295-0.836l0.22-0.465l0.092-0.174   l0.084-0.146l0.102-0.149c0,0,0.128-0.092,0.092-0.223c-0.036-0.131-0.059-0.209-0.059-0.209l-0.02-0.103l-0.24-0.399   c0,0-0.147-0.025-0.246,0c-0.098,0.025-0.516,0.098-0.516,0.098l-0.246,0.319c0,0-0.098-0.221-0.246,0.049   c-0.147,0.27-0.27,0.27-0.27,0.27l-0.27,0.492l-0.786,0.442c0,0-0.35-0.123-0.421,0.123c-0.071,0.246-0.027,0.565,0,0.639   c0.027,0.074,0.199-0.049,0.249,0.369c0.049,0.418,0.123,0.664,0.123,0.664s-0.074,1.032-0.074,1.18s0.049,0,0,0.147   s-0.541,0.123-0.541,0.123l-0.197-0.27l-0.098-0.197l-0.344-0.123c0,0-0.197,0.27-0.295,0.27s-0.467-0.418-0.467-0.418   s-0.221-0.27-0.393-0.246c-0.172,0.025-0.688,0.27-0.688,0.27l-0.172,0.123c-0.172,0.147-0.344,0.147-0.516,0.147   c-0.172,0-0.59,0-0.59,0s0-0.049-0.123,0.147c-0.123,0.197-0.737,0.319-0.737,0.319s-0.319-0.197-0.541-0.147   c-0.221,0.049-0.442-0.025-0.664,0.123s-0.319,0.147-0.319,0.246s0.172-0.123,0,0.221c-0.172,0.344-0.295,0.492-0.295,0.492   s-0.344,0.019-0.369,0.194c-0.025,0.175-0.541,0.568-0.541,0.568s0.074,0.098,0,0.246s-0.049-0.319-0.074,0.147   s-0.221,1.008-0.221,1.008l-0.147,0.811v0.246l-0.043,0.466l0.11,0.144c0,0,0.018,0.006,0.098,0.053s0.129,0.099,0.129,0.099   s0.036,0.088,0.042,0.136c0.006,0.047-0.042,0.405-0.042,0.405l-0.088,0.426l-0.011,0.263c0,0,0.002,0.183,0.075,0.202   s0.18,0.019,0.18,0.019h0.221h0.138l0.219-0.03l0.078-0.02l0.145-0.024l0.231-0.001l0.118,0.013l0.07,0.022   c0,0,0.065,0.069,0.075,0.126c0.01,0.056,0.027,0.198,0.03,0.225c0.004,0.027,0.017,0.099,0.017,0.099l0.157,0.062l0.092,0.015   l0.131,0.015l0.102,0.008l-0.047,0.075l-0.078,0.085c0,0-0.033,0.049-0.044,0.077c-0.011,0.028-0.048,0.133-0.059,0.172   c-0.011,0.039-0.042,0.157-0.049,0.187c-0.007,0.03-0.058,0.271-0.058,0.271l0.063,0.101c0,0,0.036,0.132,0.036,0.169   c0,0.037,0.081,0.507,0.081,0.507l0.035,0.113l-0.165,0.413l0.108,0.18c0,0,0.097,0.177,0.105,0.232   c0.008,0.055,0.09,0.289,0.09,0.289l0.09,0.086l0.088,0.242c0,0,0.011,0.124,0.011,0.17c0,0.046,0,0.227,0,0.227l-0.081,0.022   l-0.263,0.273l-0.074,0.664l-0.025,0.221l-0.066,0.255l0.027,0.197c0,0,0.034,0.221,0.037,0.259   c0.004,0.037,0.015,0.148,0.02,0.177s0.031,0.12,0.031,0.12l0.02,0.022l0.071-0.008l0.126-0.017l0.078-0.013l0.063,0.015   c0,0,0.061,0.047,0.065,0.181c0.004,0.134,0.003,0.217,0.003,0.217l-0.005,0.144l-0.027,0.419l0.021,0.166l0.041,0.33l0.035,0.277   l0.024,0.19l0.027,0.217v0.428l-0.024,0.177l-0.04,0.187l-0.034,0.093l-0.067,0.14L33.51,62.12L33.584,62.12z"> <title>Pachitea</title></path>
	<path id="1011" data-ng-click="$ctrl.openMap(2, '1011', true, $event)" fill="none" stroke="#020202" stroke-width="0.3" stroke-miterlimit="10" d="M15.671,47.207v-0.678V46.05l0.291-0.221   c0,0-0.037-0.369,0.147-0.479c0.184-0.111,0.147-0.221,0.258-0.369c0.111-0.147,0.248-0.369,0.248-0.369l0.379-0.332l-0.379-0.295   l-0.506-0.442v-0.184c0,0,0.311-0.258,0.506-0.258c0.195,0,0.047-0.037,0.379-0.111c0.332-0.074,0.339-0.184,0.339-0.184   l0.398-0.442l0.295-0.184c0,0,0.553,0.147,0.7,0c0.147-0.147,0.627-0.184,0.627-0.184l0.184,0.479c0,0-0.037,0.037,0.184,0.037   s0.744,0,0.744,0s0.399,0,0.657-0.037c0.258-0.037,0.107-0.074,0.348-0.074c0.241,0,0.684,0.111,0.684,0.111l0.7-0.184   c0,0-0.074,0.442,0,0.737s0,0.848,0,0.848s-0.332-0.111-0.221,0.147c0.111,0.258,0.25,0.493,0.254,0.542   c0.004,0.048-0.004,0.122,0,0.343c0.004,0.221,0.033,0.369,0,0.479c-0.033,0.111-0.07,0.074-0.217,0.221s0.147-0.074-0.147,0.147   c-0.295,0.221-0.406,0.221-0.369,0.479c0.037,0.258,0.27,0.111,0.319,0.442c0.049,0.332,0.03,0.028,0.003,0.493   c-0.027,0.465-0.003,0.686-0.003,0.686l-0.319,0.369c0,0-0.221,0.037-0.516,0c-0.295-0.037-0.221-0.041-0.516,0.016   c-0.295,0.057-0.074-0.311-0.295,0.057c-0.221,0.369-0.184,0-0.221,0.369c-0.037,0.369,0.087,0.479-0.141,0.7   c-0.228,0.221-0.228,0.221-0.228,0.221v-0.356c0,0-0.086-0.135-0.108-0.169c-0.022-0.034-0.064-0.101-0.064-0.101l-0.133-0.127   l-0.1-0.089l-0.052-0.043l-0.084-0.06l-0.182-0.071c0,0-0.093-0.029-0.152-0.047c-0.059-0.019-0.172-0.058-0.172-0.058   l-0.081-0.036l-0.052-0.033l-0.102-0.073l-0.149-0.095l-0.107-0.064l-0.123-0.07l-0.195-0.096l-0.109-0.059l-0.255-0.146   l-0.312-0.184c0,0-0.131-0.179-0.15-0.198s-0.079-0.073-0.117-0.091c-0.038-0.018-0.085-0.028-0.085-0.028   s-0.013-0.001-0.068-0.003c-0.056-0.002-0.088-0.003-0.139-0.005s-0.167-0.008-0.167-0.008l-0.125-0.007l-0.129-0.008l-0.134-0.008   l-0.148-0.009l-0.065-0.003l-0.442-0.002L15.671,47.207z"> <title>Yarowilca</title></path>
	<path id="1003" data-ng-click="$ctrl.openMap(2, '1003', true, $event)" fill="none" stroke="#020202" stroke-width="0.3" stroke-miterlimit="10" d="M23.096,42.124c0,0,0.184-0.203,0.258-0.221   c0.074-0.018,0.369-0.166,0.369-0.166l0.387-0.276l0.221-0.184c0,0,0.166-0.083,0.221-0.152c0.055-0.069,0.166-0.309,0.276-0.474   c0.111-0.166,0.387-0.608,0.387-0.608s-0.074-0.129,0-0.295c0.074-0.166,0.24-0.535,0.24-0.535s-0.147-0.074,0-0.147   c0.147-0.074,0.645-0.221,0.645-0.221s-0.074-0.203,0.203-0.24c0.276-0.037,1.032-0.111,1.087-0.111s0.24,0.332,0.35,0.313   c0.111-0.018,0.203-0.129,0.24-0.184c0.037-0.055,0.147-0.221,0.332-0.221c0.184,0,0.571-0.037,0.664-0.074   c0.092-0.037,0.184,0.031,0.258-0.104c0.074-0.135,0.203-0.135,0.313-0.264c0.111-0.129,0.406-0.406,0.406-0.479   c0-0.074-0.129-0.387-0.129-0.387s-0.276-0.258-0.332-0.313c-0.055-0.055-0.055-0.129-0.184-0.35   c-0.129-0.221-0.313-0.454-0.313-0.454l-0.387-0.301c0,0-0.018-0.161-0.074-0.173c-0.055-0.012-0.424,0.03-0.479,0   c-0.055-0.03-0.147-0.122-0.35-0.122c-0.203,0-0.332-0.24-0.498-0.018c-0.166,0.221-0.166,0.092-0.313,0.313   c-0.147,0.221-0.092,0.123-0.276,0.301c-0.184,0.178-0.276,0.178-0.424,0.233c-0.147,0.055-0.332,0.074-0.387,0.166   c-0.055,0.092-0.59,0.424-0.59,0.424s-0.037,0.958-0.037,1.032c0,0.074-0.461,0.074-0.59,0.092s-1.862,0.074-1.862,0.074   l-0.442,0.387c0,0-0.074,0.166-0.129,0.221c-0.055,0.055-0.553,0.091-0.553,0.091s-0.719,0.167-0.793,0.222   c-0.074,0.055-0.35,0.074-0.424,0.221s-0.111,0.129-0.221,0.166c-0.111,0.037-2.654,0.055-2.654,0.055s-0.184,0.24-0.258,0.313   c-0.074,0.074-0.424,0.203-0.424,0.203s-0.113,0.129-0.213,0.24c-0.1,0.111-0.174,0.221-0.248,0.221   c-0.074,0-0.295,0.111-0.406,0.147c-0.111,0.037-0.387,0.221-0.461,0.295c-0.074,0.074-0.958,0.184-1.014,0.221   c-0.055,0.037-0.369,0.009-0.498,0.124c-0.129,0.115-0.553,0.41-0.571,0.484c-0.018,0.074,0.147,0.369,0,0.387   s-0.332,0.037-0.553,0.129c-0.221,0.092-0.811,0.313-0.866,0.332c-0.055,0.018-0.664,0.055-0.7,0.166   c-0.037,0.111-0.387,0.313-0.369,0.387c0.018,0.074,0.147,0.221,0.147,0.221s0.295-0.018,0.442,0.037   c0.147,0.055,0.516,0.258,0.516,0.258s0.147,0.498,0.203,0.719c0.055,0.221,0.22,1.143,0.22,1.143s0.033,0.406,0.075,0.535   c0.042,0.129,0.129,0.553,0.184,0.59c0.055,0.037,0.166,0.111,0.221,0.24c0.055,0.129,0.111,0.203,0.111,0.313   c0,0.111,0.221,0.774,0.221,0.774l0.184,0.276l0.123,0.319h0.283c0,0,0.085-0.029,0.139-0.037c0.054-0.008,0.146-0.014,0.193-0.037   c0.047-0.023,0.119-0.097,0.131-0.124c0.012-0.028,0.114-0.22,0.114-0.22l0.048-0.066l0.099-0.032l0.221-0.147l0.078-0.059   l0.156-0.122c0,0,0.074-0.076,0.098-0.096c0.024-0.02,0.184-0.094,0.184-0.094l0.087-0.055l0.06-0.066l0.132-0.076l0.068,0.005   V46.05l0.272-0.206c0,0,0.012-0.014,0.017-0.1c0.004-0.085,0.006-0.113,0.012-0.146c0.007-0.033,0.021-0.094,0.035-0.123   c0.014-0.029,0.018-0.048,0.046-0.077s0.014-0.021,0.056-0.049c0.042-0.028,0.073-0.049,0.096-0.076   c0.022-0.027,0.105-0.21,0.139-0.259c0.034-0.049,0.103-0.146,0.118-0.167c0.014-0.021,0.153-0.223,0.153-0.223l0.379-0.344   l-0.885-0.737v-0.184c0,0,0.172-0.127,0.228-0.158c0.056-0.031,0.166-0.091,0.243-0.096c0.077-0.005,0.101,0.009,0.158-0.022   s0.174-0.071,0.256-0.092c0.081-0.021,0.114-0.006,0.208-0.067s0.067-0.047,0.156-0.145c0.089-0.098,0.25-0.277,0.296-0.329   c0.046-0.051,0.077-0.085,0.077-0.085l0.295-0.184c0,0,0.15,0.034,0.203,0.042c0.053,0.008,0.091,0.018,0.176,0.021   c0.085,0.002,0.082,0.028,0.183-0.005s0.156-0.084,0.212-0.11c0.056-0.026,0.069-0.04,0.167-0.064s0.252-0.052,0.252-0.052   l0.135-0.016l0.184,0.479c0,0-0.023,0.029,0.081,0.033s0.176,0.004,0.176,0.004l1.051-0.011l0.08-0.005l0.122-0.011l0.076-0.009   l0.102-0.019l0.027-0.008l0.063-0.029c0,0,0.065-0.015,0.086-0.016c0.021-0.001,0.071-0.002,0.071-0.002s0.205,0.016,0.258,0.024   c0.052,0.008,0.132,0.02,0.249,0.046c0.116,0.026,0.177,0.04,0.177,0.04l0.7-0.184L23.096,42.124z"> <title>Dos de Mayo</title></path>
	<path id="1004" data-ng-click="$ctrl.openMap(2, '1004', true, $event)" fill="none" stroke="#020202" stroke-width="0.3" stroke-miterlimit="10" d="M5.53,21.517l0.35-0.485v-0.258l0.596-0.627   h0.596h0.731c0,0,0.2,0.387,0.395,0.685c0.195,0.298,0.195,0.298,0.195,0.298l0.737,0.639c0,0,0.393,0.197,0.541,0   s1.259-0.442,1.259-0.442s0.363-0.049,0.56,0.049s0.492,0.246,0.492,0.246l0.208,0.836h0.387h0.683v-0.485h0.59   c0,0,0.295-0.203,0.639-0.203s0.983-0.049,0.983-0.049s0.295-0.085,0.492,0.253s0.442,0.485,0.442,0.485s0.029,0.295,0.211,0.541   c0.182,0.246,0.565,0.59,0.718,0.885c0.153,0.295,0.251-0.355,0.349,0.437c0.098,0.792,0.344,1.234,0.541,1.431   c0.197,0.197,0.197,0.197,0.197,0.197h0.393l0.474,0.442c0,0,0.263-0.098,0.41,0s0.393,0,0.541,0c0.147,0,0.737-0.441,0.737-0.441   l0.836-0.001l0.666-0.197c0,0,0.438,0,0.426,0.197c-0.011,0.197,0,1.08,0,1.08l0.234,1.033c0,0-0.321,1.057-0.234,1.143   c0.087,0.086,0,0.811,0,0.811h0.922l0.688,0.17l0.344,0.236l0.934,0.098c0,0,0.197-0.123,0,0.233   c-0.197,0.356-0.295,0.504-0.541,0.553s-0.442,0.049-0.688,0.147s-0.688,0.147-0.836,0.098s-0.59-0.492-0.59-0.492   s-0.786-0.27-0.934-0.307c-0.147-0.037-0.147,0.184-0.344,0s-0.389-0.233-0.389-0.233l-0.545-0.334l-0.836-0.981h-0.84   c0,0-0.339-0.209-0.536-0.209s-0.344-0.098-0.492-0.147c-0.147-0.049-0.246-0.098-0.492-0.197s-0.664-0.197-0.664-0.197   s-1.106-0.197-1.106-0.246s-0.023-0.098-0.257-0.147c-0.234-0.049-0.382-0.197-0.627-0.049c-0.246,0.147-0.541,0.541-0.541,0.541   l-0.086,0.283l-1.094-0.184l-0.455-0.111l-0.444-0.332l-0.942-0.553l-0.494-0.258l-0.655-0.37l-0.801-0.81l-0.578-0.295   l-0.51-0.276L7.76,25.369l-0.688-0.288l-0.351-0.979l-0.147-0.613l-0.756-1.032L5.53,21.517z"> <title>Huacaybamba</title></path>
	<path id="1007" data-ng-click="$ctrl.openMap(2, '1007', true, $event)" fill="none" stroke="#020202" stroke-width="0.3" stroke-miterlimit="10" d="M2.249,14.347l0.295-0.536l0.774-0.243   c0,0,0.167-0.107,0.63-0.401c0.463-0.295,1.096-0.186,1.296-0.216c0.2-0.03,0.738-0.167,0.738-0.167l0.709-0.305l0.424-0.098   L7.7,12.784l0.398,0.727l1.081,1.131l0.243-0.125c0,0-0.096-0.367,0.346-0.121c0.442,0.246,0.714,0.386,0.947,0.439   c0.233,0.053,0.101,0.061,0.872,0.151c0.771,0.09,1.18,0.197,1.475,0.147c0.295-0.049,0.639-0.246,0.639-0.246l0.59-0.37   c0,0,0.246-0.465,0.442-0.465c0.197,0-0.295,0,0.197,0s0.934-0.241,0.934-0.241l1.204,0.096l0.811,0.243l0.393-0.339   c0,0,0.924,0.241,0.978,0.241c0.054,0,0.414-0.215,0.539-0.289s0.645-0.203,0.645-0.203l0.688-0.147l0.442,0.398l0.737,0.683   c0,0,0.295-0.128,0.246,0.354s0.035,0.91,0.035,0.91l-0.183,0.457l0.59,0.049l0.492-0.836l-0.049-0.639   c0,0-0.246-0.461,0.049-0.476c0.295-0.015,0.442-0.605,0.442-0.605s-0.447-0.098-0.199-0.541c0.248-0.442,0.248-0.688,0.248-0.688   s-0.393-0.639-0.049-0.492c0.344,0.147,0,0.541,0.344,0.147c0.344-0.393,0.344-0.393,0.344-0.393l0.688-0.295l0.983,0.098   c0,0,0.295,0.59,0.344,0.836c0.049,0.246,0.147,1.081,0.147,1.081s0.333,0.755,0.437,1.066s0.301,0.704,0.301,0.704l0.246,0.59   c0,0,0.344,0.147,0.442,0.442c0.098,0.295,0.311,0.149,0.278,0.628c-0.032,0.48-0.108,1.414,0.003,1.499   c0.112,0.085,0.221,0.62,0.357,0.92c0.136,0.3,0.482,1.278,0.482,1.278v0.885v0.836l-0.384,1.573l-0.492,0.983   c0,0-0.147,0.319-0.442,0.356c-0.295,0.037-0.541,0.184-0.688,0.233s-0.492,0.101-0.737,0.493   c-0.246,0.392-0.464,0.539-0.699,0.539c-0.235,0-0.579,0.344-0.776,0c-0.197-0.344-0.246-0.472-0.344-0.629   s-0.442-0.636-0.442-0.636s-0.59-0.037-0.737,0c-0.147,0.037-0.442,0.332-0.442,0.332l-0.234,0.393l-0.141-0.152l-0.18-0.038   l-0.105-0.007l-0.666,0.197l-0.836,0.001l-0.737,0.441l-0.44,0.036l-0.203-0.073l-0.167,0.001l-0.141,0.035l-0.474-0.442H18.42   l-0.327-0.359l-0.191-0.365l-0.146-0.478l-0.124-0.711l-0.064-0.124l-0.163,0.05l-0.129-0.173l-0.103-0.144   c0,0-0.329-0.375-0.388-0.443c-0.059-0.068-0.268-0.368-0.268-0.368l-0.113-0.376l-0.21-0.177l-0.232-0.307l-0.177-0.191   l-0.173-0.065l-0.142,0.004l-0.395,0.026c0,0-0.293,0.015-0.348,0.017s-0.24,0.006-0.24,0.006l-0.438,0.098l-0.2,0.106h-0.59v0.485   h-1.07l-0.208-0.836l-0.584-0.279l-0.467-0.016l-0.326,0.08l-0.403,0.115L9.878,21.64l-0.206,0.128l-0.214,0.086l-0.327-0.086   l-0.277-0.24l-0.308-0.267L8.33,21.033l-0.526-0.886H6.476L5.88,20.773v0.258l-0.35,0.485l-0.885-1.561l-0.596-1.112   c0,0-0.51-1.235-0.565-1.235c-0.055,0-0.553-0.7-0.553-0.7l-0.313-0.424l-0.074-1.131L2.249,14.347z"> <title>Marañón</title></path>
	<path id="1001" data-ng-click="$ctrl.openMap(2, '1001', true, $event)" fill="none" stroke="#020202" stroke-width="0.3" stroke-miterlimit="10" d="M29.813,37.674l0.404-0.557   c0,0,0.098-0.282,0.59,0c0.492,0.282,0.492,0.282,0.492,0.282s0.221,0.305,0.602,0.275c0.381-0.03,0.381-0.03,0.381-0.03   s-0.295-0.572,0.393-0.31c0.688,0.261,0.836,0.342,0.836,0.342s0.147-0.313,0.27,0c0.123,0.313-0.123,0.411,0.369,0.411   c0.492,0,0.983,0,0.983,0s0.197,0.246,0.492,0c0.295-0.246,0.435-0.347,0.562-0.493c0.127-0.146,0.225-0.316,0.323-0.477   s-0.246-0.456,0.246-0.505s0.737-0.246,0.737-0.246s0.173,0.049,0.455,0s0.626,0,0.626,0s0.541-0.947,0.688-0.867   s-0.197,0.031,0.147,0.08s0.492,0.05,0.492,0.393s0,0.639,0,0.639s-0.049-0.124,0,0.233c0.049,0.357,0.147,0.16,0.246,0.75   c0.098,0.59,0,0.59,0.295,0.983s0.098,0.098,0.295,0.393s0.688,1.327,0.688,1.327s0.246,0.344,0.246,0.492s0,0.333,0,0.333   l-0.492,0.429c0,0-0.246-0.172-0.516,0.319c-0.27,0.492-0.27,0.492-0.27,0.492l-0.786,0.442l-0.421,0.123v0.639   c0,0,0.209,0.094,0.249,0.369c0.039,0.275,0.081,1.269,0.081,1.269l-0.032,0.574c0,0,0.024,0.25-0.258,0.26   c-0.282,0.01-0.479-0.26-0.479-0.26l-0.442-0.319l-0.295,0.27c0,0-0.039,0.034-0.253-0.192c-0.214-0.226-0.607-0.472-0.607-0.472   l-0.86,0.393l-0.516,0.147l-0.713,0.147c0,0-0.018,0.121-0.378,0.22s-0.63,0.065-0.63,0.065l-0.27-0.113l-0.664,0.123l-0.319,0.246   c-0.295,0.713-0.295,0.713-0.295,0.713s-0.17-0.079-0.369,0.194c-0.199,0.273-0.541,0.568-0.541,0.568l-0.17,0.977l-0.273,1.234   l-1.025,0.137l-0.106,0.207h-0.123l-0.123,0.369v0.246l-0.344,0.147l-0.16-0.031l-0.185,0.053l-0.245-0.022v0.221   c0,0-0.192,0.059-0.256,0.091c-0.064,0.032-0.285,0.302-0.285,0.302s-0.156,0.162-0.194,0.199c-0.038,0.037-0.097,0.1-0.16,0.147   c-0.063,0.047,0.08-0.021-0.063,0.047s-0.319,0.098-0.319,0.098s-0.086,0.009-0.118,0.034c-0.032,0.025-0.038,0.041-0.103,0.114   s-0.114,0.132-0.166,0.178c-0.052,0.047-0.217,0.161-0.217,0.161s-0.218,0.073-0.282,0.113s-0.171,0.163-0.171,0.163l-0.085,0.039   l-0.21,0.109c0,0-0.053,0.08-0.107,0.15c-0.054,0.07-0.163,0.17-0.163,0.17l-0.104,0.033l-0.093-0.033c0,0-0.086-0.004-0.125,0.033   c-0.039,0.036-0.07,0.071-0.094,0.108C25.5,53.601,25.4,53.742,25.4,53.742l-0.102,0.087c0,0-0.104,0.056-0.14,0.064   s-0.127,0.021-0.127,0.021l-0.221,0.049l-0.209,0.05l-0.174,0.07l-0.084,0.175v0.147l-0.098,0.255l-0.04,0.07l-0.132,0.093   l-0.221,0.123l-0.134,0.033c0,0-0.038-0.021-0.1,0C23.557,55,23.557,55,23.557,55l-0.069-0.004c0,0-0.054-0.039-0.054-0.049   c0-0.011,0.042-0.162,0.042-0.162l0.033-0.08l0.045-0.114l0.045-0.15l0.024-0.133l0-0.118c0,0-0.02-0.021-0.055-0.021   c-0.035,0-0.118,0-0.118,0h-0.212l-0.136-0.048l-0.117-0.041l-0.116-0.041l-0.233,0.005c0,0-0.335,0.134-0.373,0.149   s-0.128,0.055-0.149,0.064c-0.021,0.009-0.104,0.035-0.104,0.035s-0.054,0.014-0.102,0.009s-0.093-0.011-0.126-0.027   c-0.033-0.016-0.067-0.038-0.067-0.038l-0.241-0.057c0,0-0.186-0.599-0.206-0.689c-0.02-0.09-0.002-0.061-0.026-0.132   c-0.024-0.071-0.06-0.192-0.173-0.27c-0.113-0.078-0.334-0.195-0.477-0.247c-0.143-0.052-0.389-0.123-0.454-0.131   c-0.065-0.008-0.112-0.007-0.151-0.01s-0.032,0.003-0.106-0.013c-0.074-0.016-0.084-0.021-0.144-0.032   c-0.06-0.012-0.01-0.008-0.111-0.02s-0.148-0.016-0.208-0.023c-0.06-0.007-0.112-0.011-0.139-0.026   c-0.027-0.015-0.072-0.021-0.037-0.109s0.08-0.189,0.086-0.218c0.006-0.029,0.03-0.131,0.043-0.161   c0.014-0.03,0.046-0.084,0.069-0.109c0.024-0.025,0.086-0.106,0.094-0.117s0.189-0.29,0.189-0.29s-0.012-0.184-0.003-0.271   c0.009-0.087,0.021-0.172,0.06-0.264s0.162-0.315,0.162-0.315l0.17-0.282l0.098-0.197c0,0,0.029-0.068,0.029-0.134s0-0.463,0-0.463   v-0.027l0.155-0.151l0.138-0.144l0.06-0.113l0.015-0.093l-0.004-0.146l0.002-0.253l0.017-0.159c0,0-0.001-0.042,0.016-0.045   c0.017-0.003,0.095-0.045,0.125-0.088c0.03-0.043,0.117-0.185,0.117-0.185l0.1,0.006c0,0,0.06,0.033,0.101,0.028   c0.042-0.005,0.178-0.032,0.198-0.036c0.021-0.004,0.121-0.015,0.158-0.011c0.037,0.004,0.163,0.021,0.201,0.025   c0.038,0.004,0.213,0.016,0.251,0.016c0.038,0,0.265-0.016,0.265-0.016l0.319-0.369c0,0-0.014-0.542,0.008-0.76   c0.022-0.218,0.022-0.218,0.022-0.218s-0.027-0.202-0.037-0.239s-0.032-0.101-0.051-0.124c-0.019-0.023-0.049-0.053-0.069-0.065   s-0.05-0.025-0.079-0.044s-0.061-0.041-0.075-0.065c-0.014-0.024-0.039-0.091-0.042-0.137s-0.003-0.112,0.012-0.143   S22.226,46,22.31,45.943c0.084-0.058,0.273-0.195,0.291-0.208c0.017-0.013,0.046-0.041,0.046-0.041s-0.003-0.024,0.04-0.064   c0.043-0.039,0.178-0.15,0.178-0.15s0.046-0.081,0.04-0.209c-0.006-0.128-0.016-0.67-0.016-0.67l-0.271-0.591   c0,0-0.021-0.106,0.047-0.113c0.068-0.008,0.099-0.009,0.145,0.003c0.046,0.012,0.046,0.012,0.046,0.012s0.035-0.445,0.033-0.528   s-0.009-0.212-0.026-0.292c-0.017-0.08-0.036-0.233-0.037-0.271s0.015-0.49,0.015-0.49s0.245-0.196,0.282-0.235   c0.038-0.039,0.126-0.122,0.139-0.134c0.014-0.011,0.058-0.048,0.092-0.059c0.034-0.011,0.146-0.059,0.187-0.078   c0.041-0.019,0.14-0.058,0.181-0.088c0.041-0.029,0.356-0.25,0.387-0.276c0.031-0.026,0.151-0.126,0.179-0.149   c0.028-0.023,0.039-0.032,0.073-0.052c0.034-0.019,0.097-0.056,0.126-0.078c0.028-0.022,0.052-0.036,0.075-0.071   c0.023-0.035,0.234-0.41,0.234-0.41l0.419-0.659c0,0-0.054-0.119-0.027-0.207c0.027-0.088,0.267-0.623,0.267-0.623   s-0.081-0.043-0.065-0.078c0.016-0.036,0.029-0.055,0.085-0.079s0.625-0.212,0.625-0.212s-0.027-0.114,0.024-0.157   c0.052-0.044,0.1-0.073,0.195-0.085c0.095-0.012,1.045-0.107,1.045-0.107s0.034-0.006,0.058,0.019   c0.024,0.025,0.145,0.171,0.145,0.171l0.098,0.096l0.055,0.025c0,0,0.064-0.001,0.111-0.036c0.047-0.035,0.147-0.148,0.147-0.148   s0.101-0.127,0.131-0.148c0.03-0.021,0.112-0.068,0.237-0.073c0.125-0.005,0.417-0.032,0.468-0.04   c0.051-0.008,0.095-0.015,0.117-0.021c0.022-0.006,0.061-0.023,0.097-0.024c0.037-0.001,0.072,0.004,0.102-0.007   c0.03-0.011,0.076-0.046,0.088-0.066s0.025-0.046,0.043-0.066c0.019-0.02,0.067-0.06,0.067-0.06s0.139-0.078,0.233-0.179   S29.813,37.674,29.813,37.674z"> <title>Huánuco</title></path>
	<path id="1006" data-ng-click="$ctrl.openMap(2, '1006', true, $event)" fill="none" stroke="#020202" stroke-width="0.3" stroke-miterlimit="10" d="M25.793,30.518l1.008-0.246h0.59   c0,0,0.221-0.258,0.406-0.258c0.184,0,0.774,0,0.774,0l0.553,0.504h0.516h0.809h0.66l0.632,0.233c0,0,0.406,0.147,0.479,0.258   c0.074,0.111-0.074-0.111,0.332,0.295c0.406,0.406,0.479,0.59,0.479,0.59l-0.037,0.7l0.037,0.295c0,0,0.037,0.516-0.369,0.295   c-0.406-0.221-1.253,0-1.253,0l-0.301,0.295l-0.66,0.147c0,0-0.367,0.258-0.496,0.442c-0.129,0.184-0.467,0.369-0.63,0.479   c-0.163,0.111-0.384,0.717-0.384,0.717L28.533,35.5l0.074,0.173l0.329,0.256l0.276,0.347l0.236,0.433l0.376,0.383l0.129,0.387   l0.168-0.229l0.096-0.132c0,0,0.11-0.142,0.232-0.122c0.122,0.02,0.27,0.072,0.39,0.14s0.46,0.263,0.46,0.263   s0.198,0.204,0.326,0.237c0.129,0.033,0.657,0.009,0.657,0.009s-0.095-0.199-0.057-0.27c0.038-0.071,0.085-0.132,0.214-0.104   s1.073,0.406,1.073,0.406s0.103-0.172,0.16-0.134s0.135,0.161,0.143,0.252c0.008,0.09-0.008,0.261,0.099,0.275   c0.107,0.014,1.22,0.018,1.22,0.018s0.176,0.152,0.297,0.102c0.121-0.05,0.676-0.476,0.798-0.645   c0.122-0.169,0.282-0.427,0.282-0.427s0.033-0.029,0.004-0.17c-0.03-0.141-0.049-0.222,0.012-0.26   c0.061-0.038,0.12-0.061,0.23-0.075c0.109-0.014,0.302-0.052,0.352-0.067c0.05-0.015,0.128-0.042,0.16-0.056   c0.032-0.014,0.226-0.122,0.226-0.122s0.141,0.033,0.276,0.02s0.339-0.038,0.339-0.038s0.212-0.008,0.339,0.005   c0.127,0.013,0.127,0.013,0.127,0.013s0.335-0.531,0.361-0.567c0.026-0.036,0.132-0.171,0.152-0.192s0.081-0.079,0.095-0.088   c0.015-0.009,0.034-0.034,0.062-0.023c0.029,0.01,0.046,0.02,0.05,0.026s0.013,0.014,0.003,0.019s-0.003,0.023-0.003,0.023   l0.125,0.018l0.233,0.037c0,0,0.096,0.019,0.134,0.049c0.038,0.03,0.084,0.068,0.097,0.136c0.013,0.068,0.019,0.81,0.019,0.81   l-0.022,0.015c0,0,0.001,0.033,0.002,0.043c0.001,0.011,0.002,0.031,0.004,0.05s0.002,0.022,0.004,0.037   c0.002,0.015,0.004,0.035,0.007,0.059c0.003,0.024,0.01,0.07,0.014,0.09c0.004,0.019,0.023,0.096,0.034,0.12   s0.044,0.08,0.055,0.098c0.011,0.018,0.036,0.063,0.042,0.075s0.052,0.128,0.073,0.227c0.02,0.099,0.048,0.267,0.052,0.296   c0.004,0.029,0.032,0.279,0.036,0.308c0.003,0.029,0.021,0.148,0.029,0.175c0.008,0.026,0.031,0.095,0.054,0.136   c0.022,0.04,0.073,0.12,0.082,0.134c0.009,0.013,0.113,0.154,0.123,0.168c0.011,0.014,0.077,0.1,0.084,0.109s0.044,0.047,0.06,0.07   s0.234,0.374,0.259,0.42s0.088,0.164,0.119,0.225c0.031,0.061,0.137,0.27,0.167,0.329s0.219,0.465,0.246,0.503   s0.131,0.199,0.163,0.262c0.032,0.064,0.083,0.148,0.083,0.189s0,0.374,0,0.374l0.029,0.039c0,0,0.105,0.006,0.121,0   c0.016-0.006,0.153-0.034,0.153-0.034l0.213,0.006l0.13,0.215c0,0,0.07-0.004,0.084,0c0.014,0.004,0.081-0.163,0.088-0.177   c0.007-0.014,0.119-0.233,0.093-0.329c-0.026-0.096-0.081-0.18-0.099-0.218c-0.018-0.038-0.041-0.102-0.014-0.156   c0.027-0.054,0.071-0.132,0.117-0.173c0.046-0.042,0.066-0.071,0.123-0.084c0.057-0.013,0.153-0.02,0.177-0.025   s0.128-0.019,0.183-0.091s0.126-0.203,0.147-0.261c0.021-0.059,0.082-0.273,0.082-0.273s-0.03-0.269-0.035-0.335   c-0.004-0.066-0.013-0.284-0.011-0.336c0.002-0.052,0.002-0.107,0.011-0.164c0.009-0.056,0.006-0.073,0.028-0.13   c0.023-0.057,0.023-0.049,0.041-0.107c0.017-0.058,0.014-0.089,0-0.25c-0.014-0.161-0.032-0.487-0.032-0.487l-0.001-0.201   l0.015-0.169c0,0,0.014-0.107,0.117-0.168c0.103-0.061,0.269-0.132,0.303-0.143s0.139-0.096,0.139-0.096l0.402-0.362l0.595-0.88   l-0.586-0.051l-0.23-0.12l-0.147-0.138l-0.074-0.147l-0.166-0.129l-0.009-0.055L43.5,34.419l-0.221-0.129   c0,0-0.017-0.006-0.149-0.05c-0.133-0.044-0.404-0.135-0.404-0.135s-0.146-0.101-0.218-0.151s-0.446-0.347-0.446-0.421   s-0.037-0.295,0-0.479c0.037-0.184,0.037-0.516,0.037-0.516l-0.129-0.498c0,0-0.064-0.355-0.232-0.472   c-0.168-0.118-0.284-0.431-0.284-0.431l-0.369-0.313l-0.276-0.276c0,0-0.232-0.406-0.332-0.535c-0.1-0.128-0.59-0.627-0.59-0.627   l-0.578-1.18c0,0-0.197-0.608-0.197-0.7c0-0.092-0.516-0.742-0.516-0.742l-0.332-0.659l-0.147-0.111l-0.295-0.138   c0,0-0.117-0.378-0.086-0.599c0.031-0.221-0.043-0.535-0.043-0.535l-0.184-0.756l-0.258-0.535l-0.442-0.682l-0.166-2.23l0.045-0.81   l-0.118-0.959l-0.221-0.866l-0.424-0.737l-0.276-0.995h-0.162l0.113-0.233l0.074-0.147l0.316-0.269l-0.58-0.125l-0.111-1.327   l0.621-1.364l0.147-0.406c0,0,0.309-0.745,0.316-0.809c0.007-0.064,0.197-0.786,0.197-0.786l-0.045-0.825l-0.129-0.528   l-0.707-0.098l-0.59-0.332c0,0-0.397-0.103-0.4-0.103s-0.547,0.01-0.645,0.063c-0.098,0.053-0.348,0.042-0.472,0.069   c-0.124,0.027-0.793,0.205-0.793,0.205s-0.258,0.135-0.369,0.246c-0.111,0.111-0.315,0.688-0.315,0.688l-0.176,0.958l-0.185,0.577   l-0.048,1.247l-0.009,0.544l0.034,0.527c0,0-0.02,0.276-0.025,0.349s-0.009,0.672-0.009,0.672l-0.018,0.507   c0,0-0.101,0.848-0.101,0.885c0,0.037-0.249,0.977-0.249,0.977l-0.077,0.965l-0.43,0.86l-0.092,0.295l-0.774,0.522h-0.498h-0.362   l0.229,0.654v1.7l-0.393,1.592l-0.53,1.047c0,0-0.177,0.205-0.309,0.254c-0.132,0.049-0.235,0.026-0.453,0.119   c-0.218,0.093-0.451,0.158-0.57,0.215c-0.119,0.057-0.333,0.181-0.448,0.354c-0.115,0.173-0.244,0.353-0.328,0.421   c-0.085,0.068-0.136,0.115-0.217,0.14c-0.081,0.024-0.208,0.032-0.251,0.043c-0.043,0.01-0.095,0.026-0.127,0.039   c-0.032,0.013-0.118,0.053-0.188,0.074c-0.069,0.021-0.101,0.037-0.156,0.034c-0.055-0.004-0.145-0.011-0.197-0.082   s-0.355-0.632-0.355-0.632l-0.483-0.704c0,0-0.594-0.026-0.676-0.009c-0.082,0.016-0.173,0.056-0.25,0.118   c-0.077,0.062-0.218,0.188-0.236,0.205c-0.018,0.017-0.152,0.242-0.152,0.242l-0.101,0.154l0.001,1.095l0.234,1.033   c0,0-0.222,0.811-0.235,0.934c-0.013,0.123-0.022,0.158,0.001,0.209c0.023,0.051,0.045,0.197,0.037,0.349   c-0.008,0.152-0.037,0.462-0.037,0.462h0.922l0.688,0.17l0.344,0.236L25.793,30.518z"> <title>Leoncio Prado</title></path>
	<path id="1005" data-ng-click="$ctrl.openMap(2, '1005', true, $event)" fill="none" stroke="#020202" stroke-width="0.3" stroke-miterlimit="10" d="M11.318,38.917l-0.166,0.535   c0,0-0.13,0.066-0.222,0.217c-0.091,0.152-0.239,0.152-0.313,0.281c-0.074,0.129-0.215,0.166-0.295,0.332   c-0.08,0.166-0.449,0.509-0.449,0.509s-0.012-0.119-0.169,0.119c-0.157,0.239-0.378,0.017-0.415,0.349   c-0.037,0.332-0.172,0.295-0.16,0.369c0.012,0.074,0.068,0.078,0.123,0.223c0.055,0.145,0.147,0.256,0.221,0.44   c0.074,0.184,0.092,0.258,0.184,0.516c0.092,0.258,0.074,0.332,0.129,0.369c0.055,0.037,0.313,0.24,0.313,0.24l0.363-0.018   c0,0,0.135-0.055,0.246-0.092s0.22-0.084,0.22-0.084l0.001-0.211l0.221-0.227l0.147-0.16l0.7-0.166l0.41-0.153l0.841-0.284   l0.168-0.023v-0.387L13.64,41.4l0.35-0.276L14.488,41l1.014-0.221l0.265-0.192l0.601-0.251l0.461-0.461l0.424-0.203l0.258-0.313   l2.654-0.055l0.221-0.166l0.129-0.111l0.952-0.3l0.688-0.123l0.129-0.221l0.442-0.387l2.451-0.166l0.037-1.032l0.59-0.424   l0.387-0.166l0.424-0.233c0,0,0.267-0.313,0.33-0.374s0.179-0.147,0.179-0.147l0.167-0.17c0,0,0.092,0.038,0.3,0.071   c0.209,0.033,0.462,0.146,0.462,0.146h0.479l0.406-0.234l0.321-0.655l0.239-0.175l0.261-0.179l0.192-0.187l0.496-0.442l0.66-0.147   l0.301-0.295c0,0,0.454-0.092,0.628-0.095c0.174-0.002,0.545,0.059,0.545,0.059l0.207,0.085l0.171-0.048l0.072-0.231l-0.019-0.221   l-0.017-0.138l0.037-0.7l-0.374-0.482l-0.381-0.358l-0.131-0.111l-0.09-0.054l-0.946-0.372h-1.985l-0.553-0.504h-0.829l-0.35,0.258   h-0.59l-1.008,0.246l0.042,0.151l-0.184,0.326l-0.171,0.204l-0.144,0.082l-0.187,0.042l-0.201,0.031l-0.195,0.038l-0.101,0.029   l-0.245,0.081l-0.216,0.044l-0.165,0.019l-0.203,0.002l-0.156,0.003l-0.145-0.159l-0.383-0.352l-0.831-0.277l-0.103-0.03   l-0.138,0.044l-0.098,0.026l-0.188-0.136l-0.225-0.135l-0.208-0.108l-0.334-0.205l-0.087-0.053l-0.836-0.981h-0.84l-0.404-0.186   l-0.269-0.039l-0.354-0.132l-0.807-0.301l-0.348-0.092l-0.992-0.202l-0.114-0.044l-0.257-0.147l-0.337-0.103l-0.29,0.054   l-0.375,0.341l-0.206,0.334l-0.045,0.149l0.627,0.24l0.366,0.384c0,0,0.113,0.096,0.15,0.206c0.037,0.111,0.276,0.406,0.332,0.553   c0.055,0.147,0.037,0.184,0.129,0.35c0.092,0.166,0.424,0.332,0.424,0.332l0.104,0.332l0.117,0.339c0,0,0.037,0.435,0,0.546   c-0.037,0.111-0.007,0.1-0.117,0.343s-0.268,0.31-0.223,0.389s0.088,0.356-0.017,0.337c-0.104-0.018-0.366-0.074-0.558-0.092   c-0.192-0.018-0.376-0.129-0.376-0.129s-0.369-0.203-0.461-0.221c-0.092-0.018-0.442-0.074-0.645-0.037   c-0.203,0.037-0.147-0.018-0.406,0.111c-0.258,0.129-0.184,0.092-0.35,0.166c-0.166,0.074-0.168-0.074-0.397,0.203   c-0.23,0.276-0.327,0.414-0.451,0.59c-0.124,0.176-0.129,0.184-0.313,0.516c-0.184,0.332-0.424,0.866-0.424,0.866   s-0.518,1.132-0.546,1.193c-0.027,0.061-0.007,1.461-0.007,1.461l0.092,0.793L11.318,38.917z"> <title>Huamalíes</title></path>

</g>
</svg>
