<?xml version="1.0" encoding="utf-8"?>
<svg xmlns="http://www.w3.org/2000/svg" xmlns:xlink="http://www.w3.org/1999/xlink" version="1.1" id="14" x="0px" y="0px" viewBox="0 0 74 71" enable-background="new 0 0 74 71" xml:space="preserve">
	<title>Lambayeque</title>
<path id="1403" data-ng-click="$ctrl.openMap(2, '1403', true, $event)" fill="none" stroke="#020202" stroke-width="0.3" stroke-miterlimit="10" d="M7.112,36.903l0.953-1.297l1.125-2.25  c0,0-0.625-1.375,0-1.75s1.485-1.552,1.485-1.552s-0.138,0.123,0.438-0.6c0.576-0.723,1.773-2.309,1.773-2.309l0.553-1.414  l1.247-1.053l1.003-2.572l2.5-1.375v-0.875l1.375-1.25l0.74-0.564l1.885,0.064h1.375l2.625-0.25L27,17l0.566-0.269  c0,0-0.378-0.437,0.5-1.25c0.878-0.812,1.875-1.687,1.875-1.687l0.688-1.125c1.063-0.688,1.063-1.188,1.063-1.188v-2.5l0.438-0.571  c0,0,0.229,0.071,0.396-0.929c0.167-1-0.083-1.812-0.083-1.812s0.125,0.062-0.125-1c-0.25-1.063,1-2.063,1-2.063l1.375-1.533  c1.25,0,2.281,0.345,2.281,0.345l0.719,2.813v1.125l0.375,0.625c0,0-1.211-0.328,0.269,0.586s0.606,1.039,1.856,1.789  s1.464,0.008,1.25,0.75c-0.214,0.742,0.072,1.25,0.072,1.25s-0.877,0.765-0.037,0.757s0.84-0.007,0.84-0.007l0.653,0.638  c0,0-0.278,1.487-0.278,2.112s0,1.375,0,1.375h2.875c0,0,0.215-0.54,0.783-0.396C47,15,47,15,47,15s-0.059-0.769,0.566,0.606  s1.063,3.688,1.063,3.688l0.778,0.627c0,0,0.285-1.565,1.66-0.94s1.875,0,2.25,0.625s1.42,1.049,1.42,1.049  C55.417,20.981,55,22,55,22s0.941,1.981,0.941,2.481s0.75,0.25,0,1.125s-0.75,0.875-0.75,0.875l0.227,3.573  c-0.352,0.552-0.727,1.427-1.102,2.052c-0.375,0.625-0.75,0.5-1.125,1.625s-0.875,1.75-1.375,2.875s-1.25,0.875-1.25,0.875  c-0.25,1.25-0.25,1.625-0.625,1.875s-1.5,0.75-1.875,0.875s-0.75-0.625-1.125,0s-1.25,0.625-1.5,1s-1.542,0.75-1.542,0.75  l-1.208-0.625l-1.75-1c0,0-0.5,0.125-0.75,0.875s1-0.625-0.25,0.75s-1.586,1.125-1.606,1.875s-0.394,2.25-0.519,3.625  s-0.125,1.375-0.125,1.375l0.644,1.25c0,0,1.106,0.875,0.731,1.625s-0.75,0.75-1.375,0.75s-1.625,0.375-1.625,0.375  s-0.375,0.125-0.625,0.625s-0.75,1.125-1,1.5s-1,0.625-1,0.625s-0.139,1.5-0.715,0s0.007-0.625-0.576-1.5  c-0.583-0.875-1.25-1.25-1.25-1.25l-0.833-0.75l-1.667-0.417l-1.583-1.458c0,0-0.583-1.125-1.5-1.375  c-0.917-0.25-1-0.083-1.875-0.75c-0.875-0.667,2.204,0.75-0.875-0.667s-3.079-1.417-3.079-1.417l-0.796-0.792  c0,0,2.25,0.75-0.75-0.375s-4.375-1.917-4.375-1.917c-0.75-0.333,0-0.167-1.5-0.958c-1.5-0.792-0.016-0.531-2.266-1.156  S7.581,40.09,7.581,40.09l-0.766-0.484l-1-0.583l0.629-1.667L7.112,36.903z"> <title>Lambayeque</title></path>
<path id="1401" data-ng-click="$ctrl.openMap(2, '1401', true, $event)" fill="none" stroke="#020202" stroke-width="0.3" stroke-miterlimit="10" d="M38.967,51.291c0,0,0.128,0.028,0.314,0.052  c0.297,0.038,0.741,0.065,1.048-0.052c0.5-0.191,1.125,0,1.125,0s0.688-0.202,1.25,0.085c0.563,0.287,0.625,0.287,1.438,0.787  s1.313,0.875,1.563,1s0.563,0.312,0.563,0.312s0.125,0.313,0.625,0c0.5-0.312,1.563-0.312,1.813-0.437s-0.438-1.318,0.563-0.628  c1,0.69,1.108,1.204,1.108,1.204s0.767-0.076,0.829-0.451s0.188-0.813,0.188-1.063s0.625,0.025-0.25-0.894  c-0.875-0.919-1.188-0.856-1.375-1.169c-0.188-0.313,0.25,0.125-0.188-0.313c-0.438-0.437-1.813-1.125-2-1.25s-0.5-0.687-0.5-0.687  s-0.25-0.563-0.375-0.75c-0.125-0.188-0.5-1.25-0.5-1.25l-0.125-0.563c0,0-0.5-0.062,0-0.5c0.5-0.437,0.188-0.687,0.688-0.812  s1.375-0.313,1.375-0.313s1.063,0.188,1.375,0.313s1.188,0.375,1.375,0.437c0.188,0.063,0.62,0.25,0.716,0.063  c0.096-0.188,0.596-0.688,0.846-0.813s0.938-0.437,1.125-0.437s1.125-0.25,1.125-0.25s0.354-0.271,0.688,0.396  s0.083,0.5,0.375,1.167c0.292,0.667,0.507,1.063,0.507,1.063c1.055,0,1.055,0,1.055,0s0.15-0.523,0.606,0.207  c0.456,0.73,0.269,0.543,0.331,1.043s0.625,1.875,0.625,1.875s0.133,0.647,0.566,0.948c0.434,0.302-0.004,0.052,0.434,0.302  s1,0.312,1,0.312s0.292-0.25,0.562,0c0.271,0.25,2.313,0.125,2.313,0.125c1.625,0.625,1.625,0.625,1.625,0.625l1.438,0.625  c0,0,0.875,0.25,1.063,0.438c0.188,0.187,0.208,0.062,0.188,0.75c-0.021,0.687,0.313,0.381-0.188,1.128  c-0.5,0.747-0.875,1.435-1.188,1.247c-0.313-0.188,0.313-0.688-0.313-0.188s-0.125,0.125-0.625,0.5s-0.5-0.042-1.063,0.667  c-0.563,0.708-1.187,1.396-1.187,1.396s-0.875,0.562-1.188,0.812c-0.312,0.25-0.25,0.063-0.5,0.688s-0.5,0.812-0.687,1.125  c-0.188,0.312-0.2,0.875-0.412,1.125c-0.213,0.25-0.626,0.427-0.588,1.125c0.044,0.794-0.447,2.343-0.667,2.239  c0,0,0.292,0.073-0.708,0.011c-1-0.063-1,0.425-1.25,0.025c-0.25-0.4-0.438-1.088-0.813-1.275c-0.375-0.188-1.359-0.451-1.461-0.569  c-0.102-0.118-1.675-0.375-1.675-0.375s-0.218,0.507-0.76,1.007c-0.542,0.5-2.042,0.813-2.042,0.813l-1.375,1.854  c0,0-0.5,0.667-1.25,1.208s-0.771,0.479-1.417,0.958c-0.646,0.479-1.208,1.042-1.458,1.104c-0.25,0.062-0.875-0.188-0.875-0.188  s-0.438-0.5-1-0.937c-0.563-0.438-3.125-2.75-3.313-2.813c-0.188-0.062-0.479-0.368-1.375-1.5C37.808,62.843,37.296,62.1,37,61.662  c-0.296-0.438-0.608-0.375-0.858-0.875s0.042-0.979-0.688-1.188c-0.729-0.208-0.875-0.271-1.063-0.792  c-0.188-0.521-0.438-0.771-0.5-0.958c-0.063-0.187-0.313-0.562-0.313-0.75c0-0.187-0.313-1.625-0.313-1.625  c0.674-0.328,1-0.625,1-0.625l0.391-0.551c0,0-0.033,0.122,0.288-0.413s0.03-0.135,0.321-0.536c0.291-0.4,0.625-0.625,0.625-0.625  c0.845-0.258,0.592-0.258,1.108-0.317s1.238-0.095,1.382-0.2C38.527,52.104,38.967,51.291,38.967,51.291z"> <title>Chiclayo</title></path>
<path id="1402" data-ng-click="$ctrl.openMap(2, '1402', true, $event)" fill="none" stroke="#020202" stroke-width="0.3" stroke-miterlimit="10" d="M38.967,51.291c0,0,0.466,0.108,0.591,0  c0.125-0.108,0.771,0,0.771,0l0.396-0.081h0.235c0,0,0.472,0.313,0.493,0.081c0.021-0.233,0.216-0.114,0.521-0.081  c0.305,0.033,0.542,0.167,0.542,0.167L43.876,52c0,0,0.287,0.173,0.462,0.285s0.427,0.274,0.427,0.274s0.297,0.214,0.618,0.409  c0.321,0.194,0.508,0.293,0.508,0.293l0.72,0.339l0.28-0.125l0.677-0.232c0.31-0.055,0.802-0.127,0.802-0.127l0.333-0.079v-0.619  l0.286-0.173c0,0-0.028-0.062,0.277,0.165c0.305,0.227,0.455,0.355,0.455,0.355s0.422,0.361,0.538,0.605  c0.116,0.244,0.116,0.244,0.116,0.244l0.699-0.248l0.195-0.533l0.091-0.45l0.246-0.535l-0.464-0.641l-0.25-0.056l-1.313-1.425  c0,0-0.102-0.127-0.444-0.344s-0.599-0.37-0.715-0.435c-0.116-0.066-0.636-0.353-0.636-0.353s-0.427-0.355-0.51-0.484  c-0.082-0.129-0.241-0.466-0.406-0.769c-0.165-0.302-0.643-0.189-0.561-0.615c0.083-0.426,0.021-0.375-0.104-0.937  c-0.125-0.563-0.471-0.678-0.298-0.87c0.173-0.192,0.34-0.292,0.425-0.495c0.085-0.203,0.435-0.51,0.435-0.51l0.832-0.194  c0,0,0.731,0.011,0.918,0c0.187-0.011,1.673,0.417,1.858,0.473c0.185,0.056,0.517,0.158,0.517,0.158l0.716,0.063l0.846-0.813  l0.704-0.313c0,0,0.775-0.338,0.9-0.429c0.125-0.091,0.646,0.054,0.646,0.054s0.6-0.146,0.539-0.396s0-0.958,0-0.958  s0.144-0.25,0-0.417c-0.144-0.167-0.133-0.446,0-0.625s0.315-0.708,0.315-0.708s0.083-0.417,0.125-0.583  c0.042-0.167-0.167,0,0.042-0.833c0.208-0.833,0.042-0.5,0.208-1.042c0.167-0.542-0.083-0.708,0-0.917  c0.083-0.208,0.076-0.292,0.059-0.417s-0.1-0.404,0.108-0.598c0.208-0.194,0.375-0.402,0.625-0.485s1.875-0.667,1.875-0.667  c0.208-0.167,0.208-0.167,0.625-0.5c0.417-0.333,0.542-0.5,0.875-0.667c0.333-0.167,0.958-0.333,0.958-0.333l1.321-0.917  c-0.155-0.874-0.054-1.458,0-1.624c0.054-0.167,0.054-0.333,0.179-0.708s0.333-1.042,0.333-1.042s0.058-0.375,0.341-0.583  s0.075-0.333,0.534-0.708s0.534-0.36,0.542-0.667c0.008-0.306,0.533-0.542,0.533-0.542v-2.083v-0.25c0,0,0.258,0-0.242,0  s-0.625,0-0.875,0s-0.109,0-0.492,0s-0.841,0-0.841,0s-0.083-0.125-0.083-0.25s-0.083-0.75-0.083-0.75l0.042-0.458  c0,0-0.588-0.839-0.875-0.875c-0.287-0.036-0.287-0.036-0.287-0.036s-0.138-0.531-0.379-0.047c-0.242,0.483-0.583,1.167-0.583,1.167  s-0.042,0.332-0.042,0.5c0,0.168,0,0.168,0,0.168l-0.583,0.04l-1.324-0.801l-1.651-0.491l-0.268,0.111l-0.648-0.513  c0,0-0.433-0.027-0.383,0.194c0.051,0.221,0.056,0.234,0.141,0.627c0.085,0.392,0.065,0.253,0.176,0.831  c0.111,0.578-0.021,0.528,0.189,1.081c0.211,0.553,0.35,1.003,0.35,1.003l-0.333,0.333c0,0-0.032,0.038-0.391,0.456  c-0.359,0.419-0.359,0.419-0.359,0.419l0.227,1.381c0,0,0.1-0.05,0,0.286s-0.068,0.831-0.047,1.163  c0.021,0.332,0.096-0.246,0.021,0.332c-0.075,0.578-0.015,0.438-0.253,0.899c-0.238,0.461-0.287,0.561-0.398,0.777  c-0.111,0.217-0.698,1.137-0.698,1.137s-0.184,0.161-0.28,0.266s0.125-0.205-0.096,0.105c-0.221,0.31-0.477,0.904-0.477,0.904  l-0.113,0.312c0,0-0.027,0.156-0.303,0.688c-0.276,0.532-0.294,0.564-0.364,0.696c-0.071,0.132,0.309-0.56-0.299,0.563  c-0.608,1.123-0.633,1.21-0.799,1.311s-0.421,0.189-0.421,0.189l-0.326-0.008c0,0-0.101,0.525-0.107,0.556  c-0.006,0.03,0.004-0.003-0.052,0.271s0.076,0.403-0.195,0.726c-0.271,0.323-0.964,0.693-0.964,0.693l-0.593,0.269  c0,0-0.333,0.261-0.589,0.236s-0.081,0.043-0.407-0.101c-0.326-0.145-0.718,0.101-0.718,0.101s0.15-0.008-0.186,0.227  s-0.639,0.378-0.639,0.378L45.267,41.1c0,0-0.224,0.225-0.454,0.333c-0.23,0.107-1.088,0.417-1.088,0.417l-0.398-0.206l-0.81-0.419  c0,0-0.139-0.079-0.301-0.172c-0.162-0.092-1.131-0.646-1.131-0.646l-0.319-0.182c0,0-0.351,0.205-0.433,0.305  c-0.081,0.1-0.081,0.014-0.199,0.292C40.017,41.1,40.017,41.1,40.017,41.1l0.227,0.155L40,42l-0.834,0.459l-0.199,0.179L39,43  l-0.82,0.521c0,0-0.018,0.244-0.034,0.416c-0.016,0.172-0.023,0.249-0.049,0.418c-0.026,0.17-0.052,0.34-0.079,0.502  c-0.028,0.162-0.148,0.857-0.148,0.857s0.227-0.233-0.084,0.514c-0.311,0.747-0.269,2.497-0.269,2.497l0.341,0.662  c0,0,0.04,0.077,0.171,0.332c0.132,0.255,0.45,0.558,0.541,0.669c0.091,0.111,0.304,0.477,0.304,0.477L38.967,51.291z"> <title>Ferreñafe</title></path>
</svg>
