<svg xmlns="http://www.w3.org/2000/svg" xmlns:xlink="http://www.w3.org/1999/xlink" version="1.1" id="15" x="0px" y="0px" viewBox="-260 385.89 74 71" style="enable-background:new -260 385.89 74 71;" xml:space="preserve">
	<title>Lima</title>
<path id="1502" data-ng-click="$ctrl.openMap(2, '1502', true, $event)" d="M-245.155,388.696h0.2h0.237c0,0,0.529,0.067,0.695,0.067c0.166,0,0.466,0.133,0.466,0.133l0.599,0.233  l1.131-0.1c0,0-0.166,0.2-0.233,0.333s-0.699,0.599-0.699,0.599l-0.333,0.2c0,0-0.442,0.235-0.599,0.432  c-0.157,0.197-0.699,0.2-0.798,0.333s-0.229,0.457-0.229,0.457s-0.137,0.141-0.237,0.374c-0.1,0.233-0.466,0.798-0.466,0.798  s0.067,0.333-0.033,0.499c-0.1,0.166-0.399,0.1-0.233,0.432c0.166,0.333,0.366,0.566,0.366,0.566c0.333-0.067,0.931-0.2,0.931-0.2  s0.166-0.266,0.366-0.1c0.2,0.166,0.067-0.233,0.399,0.399s0.266,0.466,0.333,0.632c0.067,0.166,0.266,0.1,0.432,0.133  c0.166,0.033,0.477-0.499,0.599-0.233c0.122,0.266-0.033,1.375-0.033,1.375s0.393,0.937,0.466,1.053  c0.095,0.154-0.23,1.058-0.31,1.031c0,0,0.077,0.2-0.023,0.266s-0.1,0.067-0.1,0.067s-0.1,0.067,0,0s0.37,0.026,0.435,0.03  s0.064,0.004,0.064,0.004l0.699-0.299h0.233l0.965-0.1c0,0,0.166,0.133,0.333,0c0.166-0.133,0.732,0,0.765-0.166  c0.033-0.166,0.466-0.832,0.466-0.965s0.166,1.065,0.166,1.065c-0.067,0.233-0.233,0.466-0.233,0.466l-0.2,0.299l-0.599,0.206  l-0.166,0.226l-0.166,0.499l-0.333,0.2l-0.1,0.2l-0.033,1.164l0.133,0.333c0,0,0.1-0.033,0.166,0.067s0.067,0.033,0.067,0.266  c0,0.233,0.532,0.532-0.033,0.632c-0.566,0.1-1.031,0-1.131-0.033s0-0.1-0.299-0.166s-0.748-0.366-0.873-0.466  s-0.857-0.665-0.857-0.665c-0.432,0.033-1.064-0.067-1.064-0.067s0.166,0.033-0.067,0.166c-0.233,0.133-0.599,0.133-0.599,0.133  l-0.599-0.067l-0.366-0.166l-0.1-0.665c0,0-0.165-0.067-0.149-0.266s-0.483-0.566-0.483-0.566s0.1-0.2,0-0.299  s-0.015-0.32-0.157-0.459c-0.142-0.14-0.142-0.572-0.309-0.605c-0.166-0.033-0.499-0.366-0.499-0.366  c-0.333-0.299-0.366-0.299-0.432-0.466s-0.299-0.2-0.399-0.366c-0.1-0.166-0.366-0.632-0.599-0.798s-0.366-0.044-0.466-0.355  c-0.1-0.31-0.333-0.71-0.333-0.71s-0.266-0.366-0.1-0.399c0.166-0.033,0.266-0.216,0.266-0.216s-0.1,0.216,0.166,0.083  s0.299-0.133,0.432-0.166c0.133-0.033,0.432-0.166,0.632-0.1s0.26,0.147,0.46,0.081s0.345-0.184,0.522-0.216  c0.177-0.031,0.448,0.168,0.365-0.065c-0.083-0.233,0-0.466,0-0.732s0.009-0.435,0.009-0.435s0.173-0.025,0.016-0.297  c-0.156-0.272-0.375-0.655-0.375-0.655l-0.101-0.328c0,0,0.434-0.746,0.467-0.879s0.133-0.699,0.2-0.798  c0.067-0.1,0.133-0.499,0.133-0.499l-0.033-0.432l1.005-0.418L-245.155,388.696z"> <title>Barranca</title></path>
<path id="1503" data-ng-click="$ctrl.openMap(2, '1503', true, $event)" d="M-229.95,397.372h0.754h0.887l0.599-0.421l0.377-0.133l0.2-0.488l0.444-0.177v-3.105h0.421v-0.621l0.444-0.355  v-0.288l0.288-0.133l0.377-0.2l-0.177-0.887l-0.244-0.421c0,0-0.444-0.333-0.51-0.399c-0.067-0.067-0.798-0.909-0.798-0.909  l-0.284-0.5v-0.587l-0.049-0.421l0.049-0.1l-0.625,0.367c0,0-0.333-0.022-0.377,0.155c-0.044,0.177-0.222,0.266-0.222,0.266h-0.51  l-0.155,0.067l-0.488,0.155c0,0-0.288,0.061-0.399,0.286c-0.111,0.225-0.394,0.38-0.394,0.38l-1.048,0.577  c0,0-0.488,0.355-0.488,0.466c0,0.111,0,0.288,0,0.288l0.133,0.51c0,0,0.068-0.116-0.31,0.153c-0.378,0.268-0.433,0.113-0.483,0.268  c-0.05,0.155-0.249,0.31-0.36,0.466s-0.266,0.288-0.355,0.399c-0.089,0.111-0.083,0.399-0.083,0.399v0.788  c0,0-0.006,0.187-0.028,0.298c-0.022,0.111-0.909,0.51-0.909,0.51h-0.488l-0.532,0.266c0,0-0.599,0.2-0.688,0.222  c-0.089,0.022-0.31,0.155-0.466,0.244c-0.155,0.089-0.416,0.133-0.416,0.133l-0.116,0.288l-0.377,0.377l0.393,0.259l0.339,0.251  l0.16,0.363c0,0,0.128,0.191,0.239,0.258s0.562,0.298,0.562,0.298l0.215,0.123l0.211,0.079l0.21,0.032l0.2-0.001l0.399-0.021  l0.286-0.049l0.699-0.15l0.168-0.068l0.145-0.1l0.13-0.122l0.147-0.149l0.288-0.184l0.222,0.266l0.88,0.189l0.273,0.01  L-229.95,397.372z"> <title>Cajatambo</title></path>
<path id="1508" data-ng-click="$ctrl.openMap(2, '1508', true, $event)" d="M-237.947,413.933l0.222-0.333l0.2-0.133c0,0,0.2-0.155,0.244-0.222c0.044-0.067,0.177-0.222,0.2-0.377  c0.022-0.155-0.022-0.133,0-0.31c0.022-0.177,0.006-0.399,0.006-0.399s-0.094-0.177,0.005-0.288c0.099-0.111,0.276-0.31,0.276-0.31  s0.044-0.155,0.089-0.222c0.044-0.067,0.155-0.399,0.155-0.399l0.133-0.266c0,0,0.044-0.111,0.155-0.155  c0.111-0.044,0.111-0.133,0.244,0c0.133,0.133,0.51,0.266,0.51,0.266s0.089,0.067,0.177,0.222c0.089,0.155,0.133,0.222,0.222,0.31  c0.089,0.089,0.466,0.222,0.554,0.333c0.089,0.111,0.31,0.222,0.377,0.288c0.067,0.067,0-0.067,0.067,0.067  c0.067,0.133,0.133,0.187,0.133,0.187s0.377,0.168,0.444,0.146s0.133-0.137,0.222-0.146s0.177-0.054,0.2-0.142  c0.022-0.089,0.044-0.222,0.177-0.333c0.133-0.111,0.577-0.399,0.577-0.399s0.044-0.044,0.111-0.244s0.155-0.31,0.155-0.31  s0.177-0.089,0.266-0.155c0.089-0.067,0.421-0.159,0.421-0.159l0.444-0.307c0,0,0.044-0.133,0.044-0.444s-0.022-0.444,0-0.599  c0.022-0.155,0-0.399,0-0.399l-0.554-0.2c0,0,0.022-0.935,0.022-0.977s0-0.398,0-0.464s0.133-0.488,0.133-0.488  s0.397,0.044,0.409,0.111c0.012,0.067-0.054,0.111,0.101,0.288c0.155,0.177,0.222,0.288,0.377,0.333  c0.155,0.044,0.022,0.089,0.155,0.044c0.133-0.044,0.377-0.222,0.377-0.222l0.244-0.266l0.687-0.444l0.244-0.288  c0,0,0.466,0.022,0.665,0c0.2-0.022,0.244,0.022,0.577,0c0.333-0.022,0.444-0.044,0.665,0c0.222,0.044,0.821,0.111,0.821,0.111  l0.089,0.333c0,0,0.133,0.022,0.244,0.022s0.266-0.177,0.333-0.222s0.244-0.229,0.288-0.27c0.044-0.041,0.111-0.241,0.133-0.329  c0.022-0.089-0.044-0.244,0.133-0.333c0.177-0.089,0.421-0.244,0.488-0.288c0.067-0.044,0.266-0.399,0.421-0.177  c0.155,0.222,0.222,0.266,0.222,0.488s-0.288,0.288-0.089,0.288c0.2,0,0.333-0.2,0.466-0.222c0.133-0.022,0.532,0,0.599-0.044  s0.333-0.266,0.399-0.288s0.133-0.089,0.333-0.111c0.2-0.022,0.665-0.167,0.865-0.183c0.2-0.016,0.31-0.127,0.51-0.127  c0.2,0,0.466-0.133,0.466-0.133s0.155,0.111,0.266,0c0.111-0.111,0.288-0.2,0.288-0.2l-0.2-0.843c0,0,0.044-0.022,0.044-0.133  c0-0.111,0-0.377,0-0.488c0-0.111,0-0.158,0-0.334s-0.067-0.398-0.133-0.553s-0.067-0.333-0.067-0.399  c0-0.067-0.044-0.133-0.022-0.266c0.022-0.133-0.687-0.621-0.687-0.621c-0.155,0.266-0.155,0.222-0.288,0.355  c-0.133,0.133-0.399,0.2-0.399,0.2s-0.177,0.067-0.288,0.133s-0.399,0.111-0.532,0.2c-0.133,0.089,0,0.222-0.222,0.089  s-0.31-0.31-0.444-0.266c-0.133,0.044-0.089-0.067-0.222,0.067s-0.843,0.665-0.843,0.665s0.044,0.133-0.222,0.2  s-0.377,0.067-0.554,0.067s-0.621-0.089-0.643-0.155c-0.022-0.067-0.222-0.177-0.333-0.288c-0.111-0.111,0.177,0.022-0.288-0.244  c-0.466-0.266-0.71-0.421-0.71-0.421s-0.044-0.067-0.155-0.222s-0.665-0.532-0.665-0.532s0.643,0.044-0.067,0.133  c-0.71,0.089-1.131,0.133-1.131,0.133s-0.266,0.111-0.377,0.244c-0.111,0.133,0.111-0.089-0.31,0.355s-0.399,0.177-0.843,0.821  c-0.444,0.643-0.599,0.931-0.754,1.131c-0.155,0.2-0.022,0-0.155,0.2c-0.133,0.2-0.067,0.333-0.466,0.466  c-0.399,0.133-0.665,0.222-0.865,0.2c-0.2-0.022-0.665-0.111-0.754-0.2c-0.089-0.089-0.155,0-0.2-0.266  c-0.044-0.266,0.022-0.377-0.067-0.377c-0.089,0-0.2,0.089-0.266-0.044c-0.067-0.133-0.111-0.2-0.133-0.266  c-0.022-0.067-0.044-0.31-0.044-0.31s-0.022-0.355,0.111-0.444c0.133-0.089,0.2-0.111,0.31-0.421s0.044-0.399,0.133-0.577  c0.089-0.177,0.089-0.288,0.133-0.377c0.044-0.089-0.089-0.244-0.155-0.399c-0.067-0.155-0.266-0.222-0.288-0.444  c-0.022-0.222-0.155-0.333-0.089-0.51c0.067-0.177,0.022-0.111,0.111-0.288c0.089-0.177-0.044-0.111,0.089-0.288  c0.133-0.177,0.155-0.155,0.266-0.244c0.111-0.089,0.111-0.111,0.31-0.177s0.643-0.111,0.865-0.177  c0.222-0.067,0.621-0.089,0.843-0.155c0.222-0.067,0.288,0,0.444-0.133c0.155-0.133,0.754-0.665,0.754-0.665l-0.022-0.2  l-1.242-0.532c0,0,0.133,0.022-0.177,0c-0.31-0.022-0.976-0.2-0.976-0.2l-0.222-0.266c0,0-0.244,0.133-0.333,0.222  c-0.089,0.089-0.155,0.2-0.377,0.333s-1.064,0.244-1.153,0.266c-0.089,0.022-0.532,0.022-0.599,0.022  c-0.067,0-0.333-0.044-0.421-0.111c-0.089-0.067-0.665-0.355-0.665-0.355l-0.111-0.067l-0.288-0.31c0,0-0.067-0.244-0.111-0.31  s-0.732-0.51-0.732-0.51s0.054-0.09-0.106,0.121c-0.16,0.211-0.16,0.211-0.16,0.211l-0.244,0.177l-0.189,0.133  c0,0-0.078-0.044-0.122,0.067c-0.044,0.111-0.022,0.067-0.067,0.244c-0.044,0.177,0.022,0.477,0.022,0.477s-0.149-0.124-0.037,0.151  c0.112,0.274,0.079,0.05,0.112,0.274s0.05,0.342,0.05,0.342l0.042,0.298c0,0-0.071,0.194-0.115,0.271  c-0.044,0.077-0.011,0.033-0.118,0.195c-0.107,0.161-0.2,0.299-0.2,0.299s-0.258,0.089-0.332,0.114  c-0.073,0.025-0.267,0.092-0.267,0.092l-0.166,0.226c0,0-0.013,0.04-0.053,0.16c-0.04,0.12-0.113,0.339-0.113,0.339l-0.432,0.399  c0,0-0.011,0.377-0.015,0.511c-0.004,0.134-0.006,0.201-0.009,0.311c-0.003,0.111-0.01,0.342-0.01,0.342l0.133,0.333l0.166,0.067  c0,0,0.038,0.164,0.067,0.266c0.029,0.102,0.029,0.102,0.029,0.102l0.161,0.254l0.022,0.165c-0.128,0.081-0.245,0.111-0.245,0.111  s-0.035,0.013-0.172,0.024c-0.136,0.011-0.271,0.018-0.338,0.018c-0.067,0-0.247-0.011-0.247-0.011s-0.138-0.014-0.204-0.027  c-0.066-0.013-0.301-0.15-0.301-0.15l-0.168-0.054c0,0-0.123-0.028-0.233-0.081s-0.25-0.129-0.25-0.129l-0.174-0.106l-0.216-0.15  l-0.201-0.157l-0.221-0.172l-0.435-0.336l-0.166,0.007c0,0,0.043,0.009-0.178-0.004c-0.221-0.013-0.221-0.013-0.221-0.013l0,0  l-0.183-0.017l-0.132-0.015l-0.252,0.141l-0.273,0.096l-0.179,0.028l-0.249-0.002l-0.263-0.029l0.169,0.34  c0,0,0.185,0.022,0.296,0.089c0.111,0.067,0.177,0.089,0.2,0.222s0.111,0.288,0.067,0.554c-0.044,0.266-0.044,0.599-0.044,0.754  s0.089,0.222,0.044,0.444s-0.044,0.444-0.044,0.688c0,0.244-0.089,0.377-0.089,0.377l0.554,0.71c0.044,0.155,0.022-0.089,0.111,0.31  c0.089,0.399,0.111,0.909,0.155,0.976c0.044,0.067,0.155,0.155,0.222,0.266c0.067,0.111-0.067-0.244,0.067,0.111  c0.133,0.355,0.177,0.466,0.2,0.532c0.022,0.067,0.111,0.177,0.111,0.177l0.111,0.444l-0.133,0.133c0,0-0.399-0.022-0.399,0.067  s-0.067,0.2-0.067,0.2s-0.266,0.177-0.333,0.177c-0.067,0-0.16,0.129-0.16,0.129s-0.061-0.262-0.172,0.093s-0.2,0.444-0.177,0.51  c0.022,0.067-0.044-0.155,0.022,0.067s0.089,0.244,0.089,0.355c0,0.111-0.044,0.577-0.044,0.577s0.022,0.022,0.133,0.044  c0.111,0.022,0.31-0.2,0.377,0.044s0.177,0.288,0.266,0.355c0.089,0.067,0.488,0.532,0.488,0.532l0.843,0.177l0.732,0.207  l0.821,0.392c0,0,0.177,0.089,0.244,0.177s-0.022,0.2,0.133,0.355s0.244,0.177,0.31,0.222c0.067,0.044,0.288,0.111,0.288,0.111  l0.288,0.111L-237.947,413.933z"> <title>Huaura</title></path>
<path id="1504" data-ng-click="$ctrl.openMap(2, '1504', true, $event)" d="M-230.371,417.805l0.402-0.251c0,0,0.033,0.05,0.216,0c0.183-0.05,0.416,0.083,0.532,0s0.349-0.139,0.399-0.161  c0.05-0.022,0.083-0.039,0.133-0.089c0.05-0.05,0.083-0.067,0.116-0.233s0.133-0.333,0.133-0.333l0.1-0.432l0.183,0.266l0.133-0.033  l0.466-0.15c0,0-0.2-0.1,0-0.083c0.2,0.017,0.499,0,0.499,0s0.116-0.083,0.15-0.15c0.033-0.067,0.083-0.399,0.083-0.399v-0.249  c0,0-0.166,0.067-0.233,0s-0.183-0.116-0.183-0.116l-0.183-0.133l-0.067-0.299c0,0-0.05-0.299,0-0.316s0.216-0.033,0.366,0  s0.383,0.05,0.466,0.05c0.083,0,0.15-0.072,0.266-0.069c0.116,0.003,0.15-0.097,0.416-0.164c0.266-0.067,0.482-0.183,0.482-0.183  v-0.216c0,0,0.067-0.072,0.15-0.128c0.083-0.055,2.129,0,2.129,0l0.333-0.338l-0.116-0.366h0.582v-1.381l0.482,0.1l0.649-0.1v0.399  l0.249-0.399c0,0,0.15-0.15,0.2-0.166c0.05-0.017,0.299-0.2,0.299-0.2l0.283-0.116l0.233,0.249l0.349,0.017  c0,0,0.133,0.366,0.249,0.366c0.116,0,1.247,0.116,1.247,0.116l0.532-0.067l0.366,0.067l0.566,0.383c0,0,0.116,0.333,0.133,0.449  s0.067,0.233,0.083,0.283s-0.033,0.383-0.033,0.383l-0.074,0.322l0.041,0.36l0.532,0.15l0.31,0.142l-0.16,0.922l-0.782,0.083  c0,0,0.05-0.416-0.1-0.416c-0.15,0-0.516,0-0.566,0c-0.05,0-0.449-0.349-0.449-0.349s0.166-0.133-0.166-0.133s-0.482,0-0.482,0  l-0.183,0.133c0,0-0.249,0.166-0.283,0.266s-0.133,0.067-0.15,0.216c-0.017,0.15-0.05,0.266-0.033,0.316s-0.033,0.166-0.033,0.166  s-0.133,0.033-0.183,0.133c-0.05,0.1-0.299-0.067-0.249,0.399s0,0.915,0,0.915s-0.233-0.15-0.333,0.067  c-0.1,0.216-0.083,0.352-0.1,0.5c-0.017,0.148-0.166,0.082-0.349,0.248c-0.183,0.166-0.133,0.033-0.183,0.166  s-0.133,0.2-0.349,0.316c-0.216,0.116-0.366,0.333-0.516,0.366c-0.15,0.033-0.2-0.216-0.499,0s-0.133,0.233-0.449,0.299  c-0.316,0.067-0.682,0.166-0.682,0.166l-0.582,0.482l-0.416,0.183l-0.582,0.599c0,0-0.1,0.033-0.166,0  c-0.067-0.033-0.316,0.015-0.316,0.015l-0.083,0.451c0,0-0.233,0.1-0.283,0.116s-0.183-0.017-0.233,0s-0.266,0.177-0.266,0.177h-0.1  h-0.078l-0.16-0.396l-0.15-0.186l-0.322-0.061l-0.293-0.044l-0.273-0.029l-0.163,0.023l-0.546,0.199l-0.355,0.222v0.271  l-0.577-0.227l-0.18-0.154l-0.13-0.201l-0.019-0.06l-0.011-0.118l0.03-0.177l0-0.133l-0.018-0.139l0.015-0.49l0.003-0.037  l-0.348-0.042l-0.482,0.031l-0.284,0.011l-0.074-0.009l-0.077-0.07l-0.066-0.143l-0.035-0.117l-0.004-0.107l0.026-0.241l0.045-0.19  l0.064-0.231l0.058-0.191l0.054-0.228L-230.371,417.805z"> <title>Canta</title></path>
<path id="1505" data-ng-click="$ctrl.openMap(2, '1505', true, $event)" d="M-222.601,434.625l0.355-0.1h0.355c0,0,0.189,0.067,0.222,0.1c0.033,0.033,0.632,0,0.632,0l0.111-0.299v-0.122  c0,0,0.111-0.377,0.155-0.421c0.044-0.044,0.067-0.41,0.067-0.41l0.388-0.166v-0.366l0.577,0.055l0.244-0.011l0.089,1.641h0.277  c0,0-0.055,0.333,0,0.499c0.055,0.166,0.366,0.273,0.366,0.273l0.288,0.403h0.798l0.166-0.403c0,0,0.111-0.051,0.244-0.096  c0.133-0.044,0.266-0.2,0.299-0.255c0.033-0.055,0.277-0.155,0.366-0.2c0.089-0.044,0.122-0.344,0.122-0.344l0.444-0.366v-0.222  l0.444,0.211l0.333,0.078l0.344,0.366c0,0-0.122,1.408-0.122,1.519c0,0.111-0.022,0.51-0.067,0.887  c-0.044,0.377-0.111,1.076-0.111,1.164s-0.022,0.288-0.022,0.288l0.266,0.2c0,0,0.266,0.155,0.288,0.211  c0.022,0.055,0.033,0.189,0.067,0.233c0.033,0.044,0.189,0.078,0.222,0.089c0.033,0.011,0.189-0.055,0.244,0.067  c0.055,0.122,0.067,0.222,0.067,0.222l0.155,0.111c0,0-0.055-0.1,0.055,0s0.189,0.111,0.244,0.144c0.055,0.033,0.41,0.2,0.466,0.2  c0.055,0-0.055,0.288-0.078,0.322c-0.022,0.033-0.211,1.286-0.211,1.286l-0.41,0.1c0,0-0.078,0.333-0.055,0.488  c0.022,0.155-0.078,0.377-0.078,0.377s-0.266,0.2-0.266,0.244c0,0.044-0.022,0.177,0.022,0.255c0.044,0.078,0.31,0.377,0.31,0.377  s0.111,0.033,0.166,0.044c0.055,0.011,0.566,0,0.566,0s-0.113,0.333,0.049,0.477c0.162,0.144,0.218,0.31,0.24,0.366  c0.022,0.055,0.266,0.2,0.266,0.2s0.133,0.089,0.177,0.2c0.044,0.111,0.089,0.355,0.299,0.344c0.211-0.011,0.366,0.222,0.366,0.222  s0.055,0.255,0.111,0.333c0.055,0.078,0.055,0.055,0.155,0.122c0.1,0.067,0.344,0.133,0.366,0.078  c0.022-0.055,0.044-0.344,0.067-0.388c0.022-0.044,0.1-0.255,0.266-0.399c0.166-0.144,0.211-0.255,0.288-0.377  s0.067-0.288,0.166-0.355c0.1-0.067,0.344-0.233,0.377-0.277s0.055-0.177,0.122-0.189s0.299-0.078,0.31-0.122  c0.011-0.044,0.177-0.432,0.177-0.432l0.377-0.222l0.238-0.205c0,0,0.233-0.033,0.316,0c0.083,0.033,0.133-0.033,0.2,0.067  s0.249,0.316,0.266,0.383s0.033,0.15,0.166,0.233c0.133,0.083,0.366,0.216,0.366,0.216v0.216l0.383,0.233l0.216,0.266  c0,0,0.083,0.067,0.166,0.116c0.083,0.05,0.299,0.15,0.299,0.15s0.166,0.449,0.166,0.516s0.116,0.299,0,0.299  s-0.599-0.083-0.649-0.067s-0.499,0.183-0.499,0.183l-0.017,1.83l0.2,0.083c0,0,0.266,0,0.249,0.183  c-0.017,0.183-0.033,0.266,0.133,0.316c0.166,0.05,0.349,0,0.349,0l0.05,0.133l0.075,0.225l0.075,0.59c0,0-0.042,0.175-0.05,0.249  s-0.008,0.225-0.025,0.274s-0.091,0.208-0.091,0.208s-0.058,0.042-0.125,0.075s-0.188,0.074-0.319,0.136  c-0.131,0.062-0.388,0.238-0.513,0.329c-0.125,0.091-0.457,0.166-0.457,0.166s-0.416,0.74-0.449,0.748  c-0.033,0.008-0.376,0.077-0.467,0.126c-0.091,0.049-0.199,0.115-0.373,0.207c-0.175,0.091-0.258,0.125-0.324,0.183  s-0.042,0.058-0.183,0.175s-0.208,0.233-0.208,0.233l-0.057,0.308l-0.051,0.083l-0.071,0.054l-0.738,0.309l-0.09,0.984  c0,0-0.175,0.424-0.166,0.474s-0.08,0.292-0.125,0.383c-0.045,0.091-0.133,0.366-0.141,0.391c-0.008,0.025,0.017,0.033-0.042,0.141  c-0.058,0.108-0.141,0.208-0.141,0.208l-0.341,0.274c0,0-0.474-0.108-0.474-0.067c0,0.042-0.258,0.067-0.383,0  s-0.249-0.416-0.366-0.408c-0.116,0.008-0.141-0.116-0.358-0.266s-0.374-0.258-0.449-0.416c-0.075-0.158-0.158-0.441-0.191-0.474  s-0.549-0.732-0.549-0.732s-0.308-0.499-0.366-0.541c-0.058-0.042-0.607-0.466-0.607-0.466s-0.724-0.574-0.79-0.566  c-0.067,0.008-0.491-0.408-0.491-0.408l-0.541-0.615l-0.249-0.441l-0.732-1.339c0,0-0.166-0.208-0.166-0.25  c0-0.042-0.075-0.274-0.075-0.316c0-0.042,0.008-0.466,0-0.507c-0.008-0.042,0.025-0.482,0.025-0.582c0-0.1-0.033-0.657-0.033-0.657  l-0.05-0.557c0,0,0.083-0.141,0.1-0.225s-0.183-0.408-0.183-0.408l-0.166-0.258l-1-0.865l-0.364-0.283l-0.266,0.033l-0.532,0.1  l0.067-0.566l-0.133-0.432l-0.233-0.399c0,0,0,0.033-0.033-0.2c-0.033-0.233-0.033-0.466-0.033-0.466l-0.566-0.244l-0.166-0.255  l0.233-0.432l0.033-0.432c0,0,0.033-0.166-0.067-0.233s-0.399-0.299-0.399-0.299l-0.233-0.399l-0.466-0.699l-0.133-0.333  l-0.599-0.133c0,0,0.067,0-0.166-0.1c-0.233-0.1-0.299-0.2-0.333-0.299s-0.366-0.333-0.366-0.333l-0.366-0.166l-0.299-0.166  l0.333-0.266l0.2-0.399v-0.399l0.067-0.266l0.166-0.233l0.204-0.116l0.162-0.582l0.149,0.089l0.138-0.016l0.117-0.088l0.052-0.019  l0.202,0.018c0,0,0.126,0.03,0.144,0.034s0.145,0.02,0.145,0.02l0.089,0.002l0.162-0.018l0.129-0.031l0.089-0.069l-0.026-0.076  l-0.016-0.057l0.004-0.075l0.016-0.04l0.026-0.05l0.063-0.098l0.052-0.099L-222.601,434.625z"> <title>Cañete</title></path>
<path id="1507" data-ng-click="$ctrl.openMap(2, '1507', true, $event)" d="M-207.798,425.853c0,0,0.233,0.133,0.266,0.366c0.033,0.233,0,0.532,0,0.532s-0.166,0.277-0.266,0.488  c-0.1,0.211-0.266,0.41-0.266,0.51s0.1-0.2,0,0.1c-0.1,0.299-0.166,0.333-0.366,0.466c-0.2,0.133-0.499,0.133-0.532,0.233  s0,0.665,0,0.832s0.103,0.399-0.015,0.532s-0.251,0-0.318,0.266c-0.067,0.266-0.166,0.266-0.033,0.532  c0.133,0.266,0.166,0,0.133,0.266c-0.033,0.266-0.166,0.067-0.333,0.366c-0.166,0.299-0.118,0.233-0.325,0.399  s-0.939,0.299-1.039,0.399s-0.366,0.266-0.532,0.333c-0.166,0.067-0.432,0.499-0.532,0.366s-0.266-0.133-0.499,0  c-0.233,0.133-0.499,0.399-0.599,0.466s-0.166,0.133-0.299,0c-0.133-0.133-0.233-0.399-0.299-0.466s-0.266-0.432-0.366-0.399  s-0.299,0.1-0.432,0.399c-0.133,0.299-0.266,0.42-0.399,0.543c-0.133,0.123-0.133-0.276-0.133,0.123  c0,0.399-0.277,0.599-0.277,0.599s-0.261-0.043-0.333-0.078c-0.072-0.034-0.444-0.211-0.444-0.211v0.144v0.078l-0.444,0.366  l-0.122,0.344l-0.305,0.15l-0.36,0.305l-0.244,0.096l-0.166,0.403h-0.798l-0.288-0.403c0,0-0.342-0.107-0.366-0.273s0-0.499,0-0.499  h-0.277l-0.089-1.641c0,0-0.71-0.044-0.765-0.044c-0.055,0-0.055,0.366-0.055,0.366l-0.388,0.166c0,0-0.032,0.344-0.067,0.41  c-0.035,0.066-0.155,0.421-0.155,0.421v0.2l-0.111,0.222l-0.51,0.014l-0.122-0.014l-0.222-0.1h-0.355l-0.418,0.102l0.022-0.157  l0.021-0.326l0.017-0.101l0.047-0.239l0.642-0.542c0,0,0.146-0.109,0.176-0.122c0.03-0.012,0.069-0.026,0.069-0.026v-0.64  c0,0-0.105-0.282-0.116-0.316c-0.011-0.034-0.089-0.316-0.089-0.316l-0.046-0.212c0,0-0.053-0.307-0.052-0.319  c0.001-0.012,0.03,0.05,0.041,0.066c0.011,0.016,0.044-0.104,0.044-0.104l-0.058-0.068l-0.059-0.049l-0.074-0.052l-0.059-0.036  l-0.155-0.084l-0.132-0.062l-0.31-0.532l0.044-1.153h-0.919c0,0,0.061-0.155,0.052-0.208c-0.009-0.053-0.086-0.183-0.08-0.222  s0.082-0.113,0.12-0.148s0.09-0.088,0.108-0.147s0.041-0.137,0.175-0.139s0.26-0.005,0.32-0.017s0.267-0.095,0.267-0.095  l-0.355-0.843c0,0-0.268-0.035-0.385-0.088c-0.117-0.054-0.181-0.092-0.202-0.113c-0.021-0.021-0.058-0.065-0.064-0.075  c-0.006-0.01-0.021-0.039-0.024-0.048c-0.003-0.009-0.009-0.041-0.003-0.055c0.006-0.015,0.016-0.032,0.026-0.04  c0.01-0.008,0.044-0.024,0.044-0.024v-0.532l0.357-0.003c0,0,0.294-0.062,0.407-0.105c0.112-0.042,0.201-0.087,0.244-0.114  c0.043-0.028,0.076-0.053,0.16-0.058c0.084-0.005,0.173-0.008,0.27-0.068s0.156-0.103,0.156-0.103l0.095-0.073l0.046-0.045  c0,0,0.011-0.002-0.052-0.048c-0.064-0.046-0.085-0.067-0.096-0.082c-0.011-0.015-0.065-0.103-0.08-0.179  c-0.016-0.076-0.042-0.218-0.042-0.218l-0.004-0.021l-0.003-0.015h-0.023l-0.017-0.006l-0.012-0.016l-0.011-0.018  c0,0-0.1-0.204-0.116-0.228s-0.069-0.087-0.08-0.097c-0.011-0.01-0.049-0.038-0.064-0.044c-0.016-0.006-0.039-0.011-0.039-0.011  s-0.121-0.203-0.202-0.28c-0.081-0.077-0.15-0.135-0.193-0.159c-0.043-0.024-0.138-0.068-0.155-0.076  c-0.017-0.008-0.067-0.033-0.091-0.048c-0.024-0.015-0.036-0.02-0.053-0.038c-0.017-0.018-0.03-0.026-0.028-0.04  s0.011-0.024,0.011-0.024h-0.577l-0.399,0.222l-1.02,0.266v0.266l-0.665,0.133c0,0-0.582,0-0.633,0s-0.093,0.001-0.093,0.001  l-0.06,0.002l-0.042,0.002l-0.033,0.002l-0.031,0.003c0,0-0.067,0.012-0.009,0.023c0.058,0.011,0.058,0.011,0.058,0.011  s0.002,0.142-0.002,0.165c-0.004,0.023-0.045,0.129-0.076,0.167c-0.031,0.038-0.08,0.093-0.111,0.125  c-0.031,0.032-0.077,0.079-0.077,0.079l-0.059,0.045c0,0-0.088,0.05-0.181,0.032c-0.093-0.018-0.122-0.023-0.168-0.043  c-0.046-0.021-0.08-0.038-0.08-0.038s-0.089,0.01-0.16-0.002c-0.071-0.013-0.2-0.036-0.249-0.081s-0.095-0.066-0.116-0.087  c-0.021-0.021-0.041-0.041-0.058-0.058c-0.017-0.017-0.017-0.017-0.017-0.017s-0.014-0.037,0.008-0.044  c0.022-0.007,0.055-0.027,0.058-0.072c0.003-0.045,0.002-0.182-0.046-0.329c-0.048-0.147-0.028-0.102-0.028-0.102  s-0.015-0.119-0.004-0.244c0.012-0.125,0.02-0.21,0.02-0.21s0.022-0.374,0.032-0.431c0.009-0.057,0.073-0.363,0.073-0.363  l-0.443,0.055l-0.012-0.046c0,0,0.022-0.025,0.024-0.04s0.004-0.027-0.005-0.042c-0.008-0.015-0.027-0.049-0.027-0.049l-0.013-0.032  l-0.008-0.026l-0.009-0.039l-0.011-0.061l-0.012-0.082l-0.009-0.06l-0.006-0.039c0,0-0.025-0.127-0.032-0.153  c-0.007-0.026-0.017-0.063-0.017-0.063l-0.015-0.048l-0.013-0.037l-0.02-0.054l-0.011-0.034l-0.007-0.033l-0.002-0.028l0.003-0.021  c0,0,0.017-0.04,0.068-0.016c0.051,0.024,0.222,0.151,0.222,0.151l0.467-0.153c0,0,0.268-0.092,0.308-0.125  c0.04-0.033,0.107-0.088,0.116-0.144c0,0,0.029-0.064,0.039-0.095c0.01-0.031,0.046-0.192,0.046-0.192s0.129,0,0.167,0  s0.115,0.004,0.16-0.007s0.126-0.036,0.173-0.057c0.047-0.02,0.493-0.264,0.493-0.264l0.249-0.161v-0.261h0.193l0.218-0.161  l0.067-0.021l0.147,0.009l0.334-0.121l0.083-0.451l0.203-0.026h0.061l0.052,0.011l0.028,0.009l0.056,0.005l0.053-0.007l0.03-0.007  l0.051-0.052l0.201-0.206l0.331-0.34l0.416-0.183l0.557-0.462l0.04-0.025l0.811-0.2c0,0,0.074-0.03,0.149-0.128  c0.075-0.098,0.185-0.155,0.212-0.171c0.028-0.015,0.12-0.056,0.16-0.052s0.065,0.004,0.123,0.037  c0.058,0.033,0.115,0.088,0.199,0.039s0.242-0.181,0.242-0.181l0.061-0.052l0.062-0.048l0.064-0.044l0.07-0.04l0.078-0.044  l0.103-0.067c0,0,0.097-0.087,0.117-0.127s0.069-0.136,0.069-0.136l0.044-0.018l0.101-0.079l0.077-0.059l0.093-0.047  c0,0,0.081-0.028,0.102-0.039c0.021-0.011,0.061-0.032,0.069-0.068c0.008-0.036,0.014-0.103,0.016-0.122s0.006-0.122,0.018-0.179  c0.012-0.057,0.023-0.105,0.039-0.147c0.016-0.042,0.044-0.112,0.062-0.133c0.018-0.021,0.038-0.048,0.07-0.058  c0.032-0.01,0.071-0.018,0.099-0.013s0.138,0.049,0.138,0.049l0.014-0.189c0,0,0.007-0.378,0.006-0.416  c-0.001-0.038-0.006-0.131-0.006-0.131l-0.008-0.11l-0.011-0.113l-0.003-0.072l0.006-0.083c0,0,0.017-0.104,0.068-0.126  c0.052-0.023,0.153-0.047,0.153-0.047s0.062-0.077,0.082-0.093c0.02-0.016,0.13-0.068,0.13-0.068l0.029-0.088l0-0.115l0.052-0.339  c0,0-0.004-0.017,0.028-0.044s0.076-0.062,0.076-0.062s0.029-0.052,0.041-0.071s0.043-0.057,0.043-0.057l0.064-0.062l0.054-0.044  l0.295-0.215c0,0,0.113,0,0.166,0s0.241,0,0.279,0c0.038,0,0.151,0.007,0.167,0.011s0.096,0.017,0.078,0.058  c-0.018,0.041-0.041,0.064-0.041,0.064l0.36,0.296l0.073,0.047l0.017,0.007h0.527h0.038c0,0,0.065,0.002,0.083,0.076  c0.018,0.074,0.017,0.34,0.017,0.34l0.782-0.083l0.16-0.898l0.705,0.432l0.044,0.344l0.172,0.514l0.217,0.096l0.344,0.111  l0.222,0.078c0,0-0.033,0.055,0.067,0.1c0.1,0.044,0.731,0.037,0.731,0.037l0.921-0.081l0.322-0.011c0,0-0.133,0.344-0.211,0.444  c-0.078,0.1-0.299,0.51-0.299,0.51l0.033,0.654l0.272,0.608c0,0,0.13,0.379,0.162,0.457c0.032,0.078,0.074,0.172,0.094,0.25  c0.019,0.078,0.116,0.249,0.116,0.249s-0.03,0.121,0.033,0.366c0.063,0.245,0.155,0.51,0.155,0.51s0.133,0.211,0.144,0.266  c0.011,0.055,0.17,0.391,0.17,0.391l0.226,0.246l0.347,0.372l1.153,1.253c0,0,0.155,0.189,0.177,0.222s0.255,0.355,0.282,0.408  s0.04,0.157,0.04,0.235c0,0.078,0.011,0.166,0.078,0.355s0.055,0.166,0.122,0.288c0.067,0.122,0.177,0.31,0.177,0.31  s0.122,0.222,0.2,0.366c0.078,0.144,0.432,0.665,0.432,0.665L-207.798,425.853z"> <title>Huarochirí</title></path>
<path id="1506" data-ng-click="$ctrl.openMap(2, '1506', true, $event)" d="M-237.947,413.933l0.244,0.074l0.349,0.22c0,0,0.116,0.267,0.15,0.383c0.033,0.116,0.333,0.415,0.333,0.415  l0.116,0.166l0.233,0.266l0.216,0.216l0.2,0.233l0.183,0.166c0,0,0.1,0.067,0.1,0.116s0.033,0.061,0.116,0.188  c0.083,0.128,0.166,0.41,0.166,0.41s-0.05,0.15,0,0.266c0.05,0.116,0.133,0.338,0.133,0.338l0.299,0.144v0.186l0.383,0.313  c0,0,0.05,0.033,0.083,0.1s0.183,0.299,0.183,0.299l0.15,0.166l0.488,0.565h0.868c0,0,0.135,0.017,0.158,0  c0.023-0.017,0.3-0.19,0.3-0.19l0.093-0.076l0.189-0.222v-0.444l0.565-0.31v-0.532h1.242l0.035,0.378l0.174-0.074l0.127-0.079  l0.102-0.064l0.119,0.019l0.229-0.029l0.121,0.016l0.28-0.006l0.179-0.087l0.22-0.074l0.206-0.122l0.044-0.2l0.04-0.136l0.066-0.148  l0.069-0.233l0.057-0.248l0.183,0.266l0.524-0.159l0.068-0.077l0.046,0.023l0.057-0.048l0.144,0.002l0.171-0.004l0.057-0.002  l0.046-0.012c0,0,0.08-0.068,0.09-0.079c0.01-0.011,0.037-0.04,0.045-0.06c0.008-0.02,0.024-0.077,0.03-0.102  s0.018-0.087,0.022-0.108c0.004-0.021,0.032-0.174,0.032-0.22s0-0.219,0-0.219s-0.051,0.019-0.085,0.024  c-0.034,0.005-0.055,0.009-0.08,0.005c-0.026-0.005-0.05-0.012-0.067-0.028c-0.017-0.016-0.027-0.026-0.053-0.043  s-0.047-0.033-0.089-0.053s-0.057-0.031-0.071-0.041c-0.013-0.01-0.169-0.176-0.169-0.176l-0.016-0.071l-0.019-0.085l-0.018-0.079  l-0.009-0.066l-0.006-0.051l-0.006-0.082l0-0.05l0.021-0.067l0.124-0.017l0.094,0c0.076,0.006,0.149,0.018,0.149,0.018  c0.059,0.011,0.141,0.024,0.141,0.024l0.109,0.013l0.049,0.004l0.083,0.006l0.083,0.003c0.043-0.008,0.061-0.011,0.098-0.026  c0.037-0.015,0.168-0.043,0.168-0.043l0.072-0.014l0.083-0.044l0.088-0.046l0.118-0.044l0.137-0.038l0.401-0.16v-0.216l0.15-0.128  l0.375-0.023l1.754,0.023l0.333-0.338l-0.116-0.366h0.582v-1.381l0.482,0.1l0.649-0.1v0.399l0.249-0.399l0.2-0.166l0.299-0.2  l0.283-0.116l0.233,0.249l0.349,0.017l0.163,0.31c0,0,0.037,0.047,0.26,0.068c0.223,0.02,1.074,0.104,1.074,0.104  s0.383-0.048,0.458-0.057c0.075-0.009,0.274,0.027,0.274,0.027l0.167,0.03l0.067-0.175l-0.316-0.225c0,0-0.283-0.249-0.299-0.274  c-0.017-0.025-0.109-0.102-0.128-0.16c-0.019-0.057-0.009-0.163-0.022-0.298c-0.013-0.135-0.008-0.16,0.004-0.215  s0.029-0.167,0.029-0.2s0.017-0.59,0.017-0.59l-0.222-0.572c0,0-0.069-0.16-0.111-0.193s-0.158-0.158-0.183-0.216  s-0.183-0.191-0.166-0.274s0-0.383,0-0.432c0-0.05-0.042-0.125-0.042-0.208c0-0.083,0.058-0.091,0.042-0.158  s-0.017-0.158-0.017-0.158s0.017-0.17,0.017-0.243s0-0.439,0-0.472s0.067-0.649,0.067-0.69c0-0.042-0.058-0.366-0.058-0.416  s-0.133-0.233-0.133-0.283s-0.033-0.141-0.058-0.183c-0.025-0.042-0.274-0.266-0.274-0.266s-0.171-0.446-0.202-0.481  c-0.031-0.035-0.172-0.234-0.172-0.234l-0.1-0.055l-0.215,0.136l-0.074,0.064l-0.033,0.025l-0.042,0.018l-0.047,0.006l-0.033-0.004  l-0.036-0.009l-0.076-0.036l-0.101,0.045l-0.101,0.037c0,0-0.038,0.014-0.08,0.024c-0.042,0.01-0.098,0.021-0.118,0.023  s-0.146,0.011-0.165,0.015c-0.02,0.004-0.084,0.021-0.121,0.035c-0.037,0.014-0.164,0.058-0.164,0.058l-0.126,0.024l-0.226,0.04  l-0.185,0.044c0,0-0.083,0.02-0.108,0.026c-0.025,0.006-0.158,0.038-0.158,0.038s-0.048,0.012-0.099,0.021  c-0.05,0.009-0.094,0.012-0.145,0.022c-0.05,0.01-0.103,0.025-0.103,0.025s-0.066,0.026-0.081,0.033  c-0.015,0.007-0.152,0.077-0.152,0.077l-0.059,0.041l-0.121,0.091l-0.161,0.122l-0.045,0.015l-0.032,0.005l-0.112,0.009  c0,0-0.1,0.003-0.119,0.003s-0.081,0.002-0.081,0.002s0.025-0.004-0.075,0.002c-0.1,0.006-0.135,0.01-0.135,0.01l-0.079,0.032  l-0.097,0.065l-0.092,0.062l-0.037,0.021l-0.14,0.007l-0.019-0.021c0,0-0.01-0.025-0.007-0.028s0.036-0.041,0.036-0.041l0.037-0.062  l0.017-0.055l0.003-0.098c0,0-0.009-0.076-0.011-0.082c-0.001-0.006-0.023-0.073-0.023-0.073l-0.026-0.051l-0.048-0.073  l-0.042-0.058l-0.04-0.055c0,0-0.035-0.049-0.04-0.056s-0.045-0.042-0.045-0.042l-0.059-0.017l-0.083,0.027l-0.057,0.043  l-0.038,0.037c0,0-0.026,0.028-0.034,0.037c-0.008,0.009-0.052,0.061-0.052,0.061l-0.044,0.044l-0.198,0.125l-0.116,0.069  l-0.123,0.068l-0.051,0.027c0,0-0.047,0.028-0.059,0.039c-0.012,0.011-0.033,0.036-0.038,0.045s-0.017,0.028-0.022,0.054  c-0.005,0.026-0.009,0.066-0.009,0.082c0,0.016,0,0.031,0,0.031l-0.002,0.06l-0.091,0.276l-0.029,0.054l-0.035,0.039  c0,0-0.038,0.037-0.046,0.045c-0.008,0.008-0.025,0.025-0.036,0.036s-0.125,0.119-0.125,0.119s-0.045,0.038-0.062,0.051  c-0.017,0.013-0.079,0.066-0.089,0.075c-0.01,0.009-0.084,0.071-0.092,0.077s-0.075,0.048-0.075,0.048l-0.055,0.02  c0,0-0.003,0.017-0.015,0.017c-0.013,0-0.236-0.035-0.236-0.035l-0.117-0.336c0,0-0.56-0.068-0.665-0.085  c-0.105-0.017-0.26-0.043-0.26-0.043l-0.066-0.005l-0.072-0.002l-0.103,0.004l-0.113,0.008l-0.13,0.01l-0.091,0.006  c0,0-0.021,0.002-0.072,0.003c-0.051,0.001-0.198-0.002-0.198-0.002l-0.116-0.008l-0.078-0.001l-0.085,0.006h-0.665l-0.154,0.182  l-0.023,0.027l-0.067,0.079l-0.066,0.043l-0.075,0.048c0,0-0.07,0.045-0.09,0.058c-0.02,0.013-0.216,0.139-0.216,0.139  s-0.081,0.052-0.091,0.059c-0.011,0.007-0.114,0.074-0.114,0.074l-0.057,0.046c0,0-0.022,0.024-0.052,0.057  c-0.03,0.033-0.081,0.089-0.103,0.113c-0.022,0.024-0.067,0.073-0.067,0.073l-0.145,0.098c0,0-0.043,0.028-0.075,0.046  c-0.032,0.019-0.069,0.042-0.113,0.06c-0.044,0.018-0.022,0.011-0.044,0.018c-0.022,0.007-0.053,0.016-0.053,0.016l-0.18-0.092  l-0.047-0.029c0,0-0.041-0.033-0.047-0.039c-0.006-0.006-0.051-0.053-0.051-0.053l-0.035-0.04l-0.045-0.054l-0.04-0.047l-0.05-0.059  l-0.041-0.054c0,0-0.017-0.024-0.025-0.043s-0.019-0.058-0.019-0.058l0.001-0.068l0.001-0.045l-0.023-0.025l-0.031-0.014  l-0.169-0.044l-0.186-0.028l-0.088,0.295l-0.045,0.193l-0.022,1.441l0.554,0.2c0,0,0.008,0.309,0,0.399s-0.008,0.258-0.008,0.258  s0.004,0.117,0.004,0.129c0,0.013,0.003,0.268,0.003,0.268l-0.044,0.388l-0.444,0.307c0,0-0.315,0.102-0.355,0.122  c-0.04,0.021-0.119,0.073-0.147,0.09s-0.185,0.102-0.185,0.102s-0.097,0.154-0.126,0.232c-0.029,0.078-0.088,0.237-0.104,0.265  s-0.036,0.058-0.036,0.058l-0.123,0.081l-0.135,0.09l-0.143,0.098c0,0-0.081,0.058-0.093,0.067  c-0.012,0.009-0.082,0.063-0.082,0.063s-0.049,0.045-0.063,0.064c-0.014,0.018-0.047,0.069-0.047,0.069l-0.021,0.045  c0,0-0.036,0.128-0.046,0.155c-0.01,0.027-0.039,0.07-0.039,0.07l-0.048,0.038c0,0-0.038,0.019-0.063,0.025  c-0.025,0.006-0.05,0.01-0.05,0.01l-0.04,0.013c0,0-0.031,0.014-0.056,0.036c-0.025,0.022-0.065,0.058-0.065,0.058l-0.06,0.04  l-0.056-0.004c0,0-0.039-0.008-0.08-0.022c-0.041-0.014-0.061-0.021-0.082-0.029c-0.021-0.008-0.09-0.035-0.105-0.041  s-0.043-0.018-0.072-0.03c-0.029-0.013-0.066-0.038-0.075-0.049c-0.01-0.011-0.024-0.027-0.036-0.045  c-0.012-0.018-0.023-0.029-0.046-0.071c-0.023-0.042-0.07-0.092-0.07-0.092l-0.085-0.068c0,0-0.067-0.045-0.077-0.052  c-0.011-0.007-0.067-0.045-0.067-0.045l-0.166-0.14l-0.068-0.058l-0.071-0.044c0,0-0.046-0.025-0.057-0.031  c-0.012-0.006-0.055-0.028-0.086-0.044c-0.032-0.016-0.141-0.071-0.153-0.078c-0.011-0.006-0.123-0.08-0.151-0.111  c-0.028-0.031-0.067-0.081-0.067-0.081l-0.058-0.086l-0.065-0.111l-0.066-0.101l-0.064-0.076l-0.047-0.044l-0.076-0.029  c0,0-0.087-0.036-0.097-0.04c-0.01-0.005-0.167-0.081-0.167-0.081l-0.066-0.038l-0.055-0.037l-0.048-0.041l-0.065-0.055  l-0.071-0.009l-0.04,0.025l-0.069,0.039l-0.097,0.068l-0.045,0.061l-0.059,0.118c0,0-0.109,0.238-0.12,0.271  c-0.011,0.033-0.042,0.117-0.042,0.117s-0.02,0.052-0.026,0.068c-0.006,0.015-0.005,0.023-0.03,0.071  c-0.024,0.047-0.049,0.091-0.06,0.119s-0.053,0.15-0.053,0.15s-0.132,0.149-0.165,0.186c-0.033,0.037-0.141,0.12-0.148,0.195  c-0.007,0.075,0.003,0.146,0.014,0.173s0.032,0.231,0.02,0.356c-0.012,0.125-0.019,0.164-0.013,0.214  c0.006,0.05,0.02,0.119,0.005,0.184c-0.016,0.066-0.115,0.258-0.126,0.273c-0.011,0.015-0.132,0.169-0.168,0.201  c-0.037,0.032-0.115,0.102-0.175,0.141c-0.059,0.04-0.174,0.116-0.174,0.116L-237.947,413.933z"> <title>Huaral</title></path>
<path id="1509" data-ng-click="$ctrl.openMap(2, '1509', true, $event)" d="M-225.195,391.458l0.806,0.516l0.643,0.648l0.601,0.536l-0.314,0.464l0.333,0.574c0,0-0.027-0.011,0.149,0.143  s0.309,0.221,0.363,0.376c0.054,0.156,0.274,0.445,0.274,0.445l0.393,0.823l-0.004,0.599c0,0-0.422,0.019-0.069,0.31  s0.617,0.537,0.617,0.537s0.184,0.008,0.165,0.223s0.094,0.755,0.094,0.755s-0.337,0.275-0.121,0.376  c0.217,0.101,0.281,0.468,0.281,0.468l0.393,0.834l0.13,0.4l0.3,0.727l-0.469-0.362l-0.291,0.353l-0.401,0.197l-0.551,0.222  l-0.272,0.105l-0.222,0.087l-0.442-0.269l-0.461,0.263c0,0-0.09,0.07-0.116,0.09c-0.026,0.02-0.201,0.153-0.201,0.153l-0.291,0.218  c0,0,0.002,0.074-0.033,0.103c-0.034,0.029-0.293,0.124-0.403,0.138c-0.11,0.014-0.342,0.019-0.342,0.019l-0.234-0.026  c0,0-0.187-0.036-0.251-0.057c-0.064-0.021-0.156-0.077-0.156-0.077s-0.084-0.091-0.116-0.116c-0.031-0.024-0.215-0.175-0.215-0.175  l-0.04-0.094c0,0-0.076-0.051-0.135-0.086c-0.059-0.035-0.148-0.087-0.23-0.135c-0.082-0.048-0.269-0.16-0.33-0.197  c-0.06-0.037-0.259-0.16-0.259-0.16s-0.159-0.236-0.2-0.276s-0.13-0.119-0.13-0.119l-0.115-0.093l-0.166-0.126l-0.061-0.044  l-0.311,0.042l-0.617,0.07l-0.311,0.033l-0.105,0.011l-0.21,0.108l-0.106,0.076l-0.132,0.153l-0.244,0.257l-0.253,0.226  l-0.129,0.085l-0.127,0.093l-0.098,0.098l-0.165,0.206c0,0-0.118,0.166-0.14,0.198c-0.023,0.033-0.074,0.106-0.11,0.16  s-0.196,0.292-0.236,0.354c-0.041,0.062-0.353,0.522-0.353,0.522l-0.113,0.135l-0.095,0.155l-0.103,0.189l-0.137,0.108l-0.178,0.074  l-0.097,0.031l-0.114,0.036c0,0-0.13,0.04-0.161,0.049c-0.031,0.009-0.14,0.038-0.14,0.038l-0.123-0.001l-0.144,0.042l-0.089-0.002  l-0.124-0.018l-0.178-0.034l-0.121-0.028l-0.078-0.02l-0.081-0.025l-0.096-0.036l-0.074-0.044l-0.112-0.065l-0.041-0.047  l-0.044-0.155l-0.015-0.189l0.001-0.104l-0.049-0.085l-0.098,0.018l-0.069,0.009l-0.099-0.073l-0.089-0.172l-0.043-0.095l-0.031-0.2  c0,0-0.01-0.044-0.011-0.111s0.001-0.2,0.001-0.2s0.053-0.204,0.113-0.243c0.059-0.039,0.184-0.153,0.184-0.153l0.082-0.147  l0.048-0.119l0.09-0.432l0.183-0.52c0,0-0.038-0.181-0.055-0.212c-0.017-0.03-0.133-0.249-0.133-0.249l-0.073-0.086l-0.143-0.183  l-0.045-0.186l-0.031-0.113l-0.031-0.086l-0.026-0.103l0.015-0.141l0.077-0.215l0.061-0.133l0.017-0.151l0.194-0.232l0.122-0.086  c0,0,0.067-0.086,0.189-0.13s0.122-0.045,0.122-0.045l0.261-0.058l0.356-0.059l0.586-0.117l0.439-0.069l0.406-0.079l0.253-0.193  l0.613-0.535l-0.021-0.2l1.641,0.012l0.602-0.417l0.378-0.13l0.203-0.486l0.445-0.174l0.021-3.038l0-0.067l0.421,0.003l0.004-0.621  l0.446-0.352l0.002-0.288L-225.195,391.458z"> <title>Oyón</title></path>
<path id="1510" data-ng-click="$ctrl.openMap(2, '1510', true, $event)" d="M-207.611,426.029l0.562-0.076c0,0-0.116,0,0.249,0.033s0.617,0.061,0.617,0.061l0.233-0.095  c0,0,0.144,0.003,0.395,0.085c0.251,0.082,1.049,0.182,1.049,0.182l0.805,0.2c0,0,0.925,0.077,0.925,0.288  c0,0.211,0.665,0.377,0.665,0.377s0.499,0.366,0.665,0.466c0.166,0.1,0.915,0.549,0.915,0.549l0.532,0.449l0.549,0.798l-0.211,0.222  c0,0-0.255,0.055-0.255,0.333c0,0.277-0.2,0.444-0.2,0.444l0.244,0.366l0.421,0.765c0,0,0.322-0.166,0.399,0.067  c0.078,0.233,0.466,0.466,0.466,0.466s0.333,0.2,0.333,0.399c0,0.2,0.163,0.448,0.299,0.679c0.136,0.231,0.305,0.515,0.305,0.515  s0.072,0.425,0.117,0.613c0.044,0.189-0.011,0.765-0.011,0.765s0.402,0.423,0.299,0.61c-0.103,0.187-0.111,0.634-0.111,0.909  c0.001,0.275-0.066,1.241-0.066,1.241s-0.3,0.456-0.3,0.788c0,0.333-0.299,0.655-0.266,0.998s0.365,0.676,0.315,0.754  c-0.049,0.078,0.339,0.577,0.339,0.577v0.887c0,0,0.044,0.616,0.022,0.663s0.351,0.658,0.351,0.658l0.194,0.463l0.19,0.537  c0,0-0.197,0.252-0.546,0.385c-0.349,0.133-0.566,0.233-0.715,0.349c-0.15,0.116-0.615,0.316-0.615,0.316s-0.299,0.797-0.333,0.781  c-0.033-0.016-0.083,0.234-0.2,0.55c-0.116,0.316-0.116,0.316-0.116,0.316l0.033,0.549l0.516,0.615l0.1,0.316l-0.532,0.732h-0.798  c0,0-0.396-0.142-0.664-0.237c-0.268-0.096-0.733,0.037-0.733,0.037l-0.621-0.022l-0.392,0.479l-0.318,0.541h-0.466  c0,0-1.024-0.579-1.343-0.689c-0.32-0.11-1.276-0.555-1.276-0.555l-0.707,0.046l-0.166-0.682h-0.349l-0.133-0.316l-0.449-0.266  l0.017-1.83l0.499-0.183l0.649,0.067l-0.166-0.815l-0.466-0.266l-0.599-0.499v-0.216l-0.456-0.291l-0.076-0.158l-0.266-0.383  l-0.111-0.057c0,0-0.143-0.023-0.177-0.023s-0.228,0.014-0.228,0.014l-0.238,0.205l-0.377,0.222l-0.177,0.432l-0.31,0.122  l-0.122,0.189l-0.442,0.36c0,0-0.04,0.171-0.101,0.272s-0.095,0.188-0.191,0.282c-0.097,0.095-0.251,0.277-0.266,0.301  s-0.104,0.193-0.118,0.291c-0.014,0.098-0.046,0.29-0.046,0.29s-0.315-0.02-0.418-0.11c-0.103-0.09-0.165-0.224-0.19-0.323  c-0.025-0.099-0.077-0.18-0.143-0.225c-0.066-0.046-0.069-0.075-0.158-0.085c-0.089-0.01-0.22-0.046-0.22-0.046l-0.109-0.148  l-0.059-0.16l-0.177-0.2l-0.207-0.139l-0.153-0.253l-0.146-0.174l-0.062-0.099l-0.023-0.178l0.037-0.2h-0.566l-0.166-0.044  l-0.31-0.377l-0.025-0.209c0,0,0.015-0.081,0.083-0.139c0.068-0.059,0.186-0.151,0.186-0.151l0.077-0.271  c0,0-0.004-0.23,0.005-0.299c0.009-0.07,0.051-0.294,0.051-0.294l0.41-0.1l0.211-1.286l0.092-0.278l-0.014-0.044l-0.751-0.377  l-0.066-0.004l-0.103-0.073l-0.033-0.135l-0.034-0.087l-0.114-0.074l-0.058,0.002l-0.073,0.005l-0.222-0.089l-0.067-0.233  c0,0-0.033-0.042-0.078-0.074c-0.045-0.032-0.476-0.336-0.476-0.336l0.322-3.859l-0.344-0.366c0,0,0.14-0.137,0.177-0.211  s0.073-0.162,0.084-0.224c0.011-0.062,0.017-0.229,0.017-0.229s-0.036-0.045,0.049-0.051c0.085-0.006,0.166-0.067,0.243-0.163  c0.077-0.096,0.127-0.165,0.157-0.219s0.114-0.238,0.149-0.288c0.035-0.05,0.096-0.13,0.15-0.167  c0.053-0.037,0.218-0.111,0.218-0.111s0.08,0.025,0.119,0.069c0.039,0.045,0.145,0.194,0.185,0.249  c0.04,0.054,0.111,0.149,0.149,0.221c0.039,0.072,0.063,0.145,0.137,0.235c0.074,0.091,0.155,0.153,0.155,0.153  s0.091,0.041,0.218-0.062s0.416-0.342,0.416-0.342l0.27-0.168l0.213-0.054c0,0,0.109,0.006,0.154,0.052s0.093,0.125,0.217,0.004  c0.124-0.121,0.199-0.219,0.28-0.271c0.081-0.052,0.178-0.097,0.178-0.097l0.136-0.074c0,0,0.216-0.142,0.242-0.164  c0.026-0.022,0.122-0.089,0.122-0.089l0.088-0.034l0.131-0.043l0.29-0.088l0.276-0.095l0.295-0.183l0.086-0.085l0.134-0.232  l0.089-0.121l0.198-0.115l0.057-0.251l-0.093-0.063l-0.116-0.297l0.099-0.318l0.068-0.142c0,0,0.027-0.025,0.102-0.049  s0.174-0.116,0.174-0.116l0.028-0.107c0,0-0.046-0.596-0.049-0.696c-0.003-0.1,0.009-0.52,0.009-0.52s0.069-0.065,0.161-0.092  c0.092-0.026,0.217-0.066,0.217-0.066s0.264-0.149,0.279-0.16s0.118-0.115,0.118-0.115l0.089-0.17l0.034-0.195l0.044-0.124  l0.17-0.287l0.073-0.143l0.245-0.445l0.014-0.244l0.001-0.132l-0.015-0.157"> <title>Yauyos</title></path>
<path id="07" data-ng-click="$ctrl.openMap(2, '07', true, $event)" d="M-229.304,430.985l0.214-0.091l0.383-0.055l0.153-0.065c0,0,0.441-0.119,0.576-0.141  c0.135-0.022,0.181-0.182,0.181-0.182s0.156-0.229,0.108-0.299c-0.048-0.07-0.186-0.115-0.235-0.185  c-0.049-0.07,0.201-0.235,0.162-0.326c-0.039-0.092-0.184-0.095-0.184-0.095s-0.076-0.32-0.223-0.239  c-0.147,0.08-0.056,0.097-0.056,0.097s-0.074-0.005-0.131-0.053s-0.19-0.064-0.19-0.064s0.036-0.086,0-0.171  c-0.036-0.085-0.13-0.135-0.13-0.135s0.168-0.072-0.153-0.062c-0.321,0.01-0.422,0.071-0.422,0.071l-0.039-0.218  c0,0,0.195-0.029,0.086-0.127c-0.109-0.098-0.172-0.162-0.172-0.162l-0.236-0.044c0,0-0.01-0.194,0.125-0.216  c0.135-0.022,0.082-0.275,0.082-0.275s0.048-0.142-0.089-0.21s-0.322-0.112-0.337-0.159c-0.015-0.048-0.177-0.407-0.177-0.407  s-0.082-0.124-0.111-0.288c-0.029-0.164-0.024-0.177-0.111-0.266c-0.087-0.089-0.244-0.274-0.244-0.274s-0.251-0.197-0.216-0.284  c0.02-0.049-0.243-0.005-0.295-0.127c-0.052-0.122-0.176,0.02-0.176,0.02h-0.31c-0.054,0.173-0.031,0.274-0.149,0  c-0.054-0.126-0.25,0.266-0.25,0.266s-0.373-0.166-0.351-0.048c0.022,0.117-0.199,0.241-0.199,0.241l0.023,0.123l-0.139,0.144  c0,0,0.027-0.109,0.265,0.223c0.238,0.333-0.411,0.289-0.265,0.397c0.146,0.109,0.091,0.401,0.376,0.659  c0.285,0.258,0.552,0.13,0.739,0.393s1.117,0.835,1.117,0.835s0.277,1.173,0.274,1.216c-0.003,0.043-0.054,0.389-0.125,0.564  c-0.07,0.175,0.078,0.346,0.078,0.346l0.691-0.081L-229.304,430.985z"> <title>Callao</title></path>
<path id="1501" data-ng-click="$ctrl.openMap(2, '1501', true, $event)" d="M-233.851,419.235l0.466-0.024c0,0,0.249-0.003,0.274-0.003c0.025,0,0.283,0.027,0.283,0.027l0.258-0.124  l0.186-0.15l0.189-0.222v-0.444l0.565-0.31v-0.532h1.242l0.036,0.412l-0.006,0.324l-0.112,0.419l-0.096,0.354l-0.039,0.355  l0.086,0.279l0.17,0.12l0.284-0.011l0.482-0.031l0.348,0.042v0.369v0.225c0,0,0.012,0.135,0,0.205  c-0.012,0.069-0.019,0.295-0.019,0.295l0.097,0.182l0.137,0.152l0.179,0.114l0.493,0.194v-0.271l0.355-0.222l0.546-0.199l0.288-0.01  l0.366,0.048l0.397,0.072l0.347,0.546l-0.037,0.297l-0.554,0.333l-0.361,0.149l-0.327,0.007l-0.175,0.41l-0.801,0.3l-0.176-0.124  l-0.072-0.076l-0.071,0.037l0.239,0.888l-0.061,0.122l0.496-0.049l-0.128,1.075c0,0,0.013,0.155,0.026,0.206  c0.013,0.05,0.034,0.161,0.034,0.161s0.015,0.08,0.018,0.114c0.003,0.034,0.009,0.049,0.007,0.086  c-0.003,0.037,0.011,0.071-0.025,0.09s-0.036,0.019-0.036,0.019l0.042,0.095l0.055,0.047l0.087,0.065c0,0,0.053,0.031,0.119,0.05  c0.066,0.019,0.188,0.054,0.2,0.054s0.089-0.021,0.089-0.021s0.141,0.092,0.247,0.081c0.106-0.01,0.181-0.032,0.181-0.032  l0.09-0.076l0.123-0.132l0.111-0.208l-0.007-0.117l-0.009-0.086l0.86-0.007l0.645-0.129l0.02-0.004v-0.266l1.02-0.266l0.399-0.222  h0.577l0.016,0.064l0.188,0.107l0.185,0.109c0,0,0.158,0.14,0.215,0.224c0.057,0.083,0.106,0.162,0.106,0.162  s0.128,0.047,0.183,0.152c0.055,0.105,0.127,0.246,0.127,0.246l0.055,0.037c0,0,0.024,0.171,0.046,0.239s0.032,0.15,0.104,0.206  c0.072,0.056,0.124,0.103,0.124,0.103s-0.263,0.207-0.316,0.231c-0.053,0.025-0.046,0.04-0.149,0.049s-0.225,0.023-0.263,0.067  c-0.038,0.044-0.159,0.094-0.159,0.094s-0.08,0.025-0.109,0.032c-0.028,0.006-0.398,0.096-0.398,0.096h-0.342v0.532l-0.07,0.064  l0.027,0.104l0.102,0.128l0.096,0.038l0.453,0.11l0.355,0.843l-0.587,0.112c0,0-0.067-0.009-0.175,0.139  c-0.108,0.147-0.108,0.147-0.108,0.147s-0.109,0.084-0.112,0.13c-0.004,0.046,0,0.063,0.028,0.128  c0.028,0.064,0.049,0.144,0.049,0.144l-0.057,0.176h0.919l-0.043,1.117l0.309,0.569c0,0,0.332,0.174,0.376,0.204  c0.044,0.03,0.081,0.116,0.081,0.116l0.015,0.098l0.004,0.128l0.278,1.02v0.626l-0.526,0.385l-0.361,0.305l-0.107,0.823  l-0.157,0.287l0.038,0.208l-0.218,0.062c0,0-0.323,0.046-0.36,0.04c-0.036-0.005-0.314-0.051-0.314-0.051l-0.12,0.013  c0,0-0.138,0.109-0.196,0.106s-0.082,0.064-0.166-0.042c-0.085-0.105-0.566-0.59-0.582-0.615c-0.017-0.025-0.451-0.555-0.499-0.629  c-0.048-0.074-0.19-0.349-0.211-0.384c-0.022-0.035-0.678-0.423-0.763-0.525c-0.085-0.102-0.273-0.258-0.273-0.258  s-0.158,0.258-0.175,0.299c-0.017,0.042-0.283,0.15-0.308,0.175c-0.025,0.025-0.252,0.03-0.225-0.133  c0.028-0.164,0.029-0.26-0.085-0.517c-0.114-0.257-0.24-0.297-0.403-0.401s-0.511-0.269-0.511-0.269s-0.171-0.166-0.29-0.308  s-0.175-0.21-0.217-0.211c-0.042-0.001-0.213,0-0.45-0.042s-0.271-0.097-0.271-0.097l0.114-0.35l0.214-0.091l0.383-0.055  c0,0,0.222-0.084,0.333-0.113c0.112-0.029,0.43-0.102,0.43-0.102s0.08-0.027,0.114-0.1s0.116-0.217,0.116-0.217  s0.073-0.125,0.006-0.177c-0.067-0.052-0.215-0.163-0.215-0.163s-0.011-0.044,0.032-0.098c0.043-0.054,0.122-0.164,0.122-0.164  s0.045-0.017,0.008-0.064c-0.037-0.047-0.116-0.084-0.116-0.084l-0.068-0.011l-0.033-0.099l-0.081-0.126l-0.065-0.027l-0.077,0.032  l-0.113,0.051l-0.111-0.062l-0.12-0.028c0,0,0.032-0.118,0-0.171s-0.098-0.114-0.098-0.114l-0.094-0.083l-0.206,0.007l-0.263,0.047  l-0.043,0.018l-0.039-0.219l0.084-0.028l0.001-0.099l-0.172-0.162l-0.236-0.044l0.008-0.084l0.037-0.085l0.119-0.063l0.042-0.066  l0.001-0.193l-0.009-0.132l-0.08-0.078l-0.108-0.047l-0.229-0.112l-0.075-0.178l-0.139-0.296l-0.074-0.221l-0.111-0.266  l-0.156-0.172l-0.224-0.228l-0.078-0.114l-0.002-0.044c0,0-0.121-0.03-0.168-0.045c-0.047-0.015-0.127-0.082-0.127-0.082  l-0.066-0.048l-0.11,0.068h-0.197h-0.114c0,0-0.021,0.083-0.028,0.108s-0.074-0.004-0.074-0.004l-0.047-0.104l-0.107,0.034  c0,0-0.08,0.114-0.112,0.173c-0.032,0.06-0.099,0.032-0.106,0.029s-0.259-0.055-0.259-0.055l-0.017,0.037c0,0-0.1-0.533-0.104-0.566  c-0.005-0.033-0.22-0.76-0.232-0.805c-0.012-0.044-0.099-0.626-0.113-0.694c-0.014-0.068-0.453-0.992-0.453-0.992l-0.122-0.355  c0,0-0.079-0.358-0.05-0.397c0.029-0.039-0.248-0.453-0.248-0.453s-0.323-0.43-0.279-0.475c0.044-0.045,0.154-0.131,0.238-0.187  c0.084-0.057,0.339-0.218,0.339-0.218s-0.26-0.84-0.275-0.887c-0.015-0.047,0.008-0.377,0.008-0.377l-0.389-0.487L-233.851,419.235z  "> <title>Lima</title></path>
</svg>
