<?xml version="1.0" encoding="utf-8"?><svg xmlns="http://www.w3.org/2000/svg" xmlns:xlink="http://www.w3.org/1999/xlink" version="1.1" id="16" x="0px" y="0px" viewBox="-260 385.89 74 71" enable-background="new -260 385.89 74 71" xml:space="preserve">
<title>Loreto</title>
<g>
	<path id="1608" data-ng-click="$ctrl.openMap(2, '1608', true, $event)" fill="none" stroke="#020202" stroke-width="0.3" stroke-miterlimit="10" d="M-233.004,395.162l0.52,0.339l0.469,0.147   c0,0,0.293,0.293,0.44,0.381c0.147,0.088,0.452,0.322,0.452,0.322s0.398,0.381,0.457,0.498s0.528,0.528,0.528,0.528l0.498,0.176   l0.44,0.703l0.264,0.41l0.264,0.41l0.406,0.147c0,0,0.151,0.234,0.151,0.322c0,0.088-0.088,0.234,0,0.41   c0.088,0.176,0.205,0.352,0.205,0.352h0.264c0,0,0.234,0.205,0.322,0.205c0.088,0,0.41,0,0.41,0l0.44,0.234   c0,0,0.176,0.088,0.381,0.205s0.293,0.205,0.381,0.234c0.088,0.029,0.586,0.147,0.586,0.147l0.322,0.205l0.264,0.147l0.234,0.234   h0.205l0.469,0.264c0,0,0.293-0.147,0.293,0c0,0.147,0,0.733,0,0.733v0.205v0.22v1.07v0.293l0.234,0.293l0.322,0.264l0.674,0.293   l0.293,0.352v0.528l0.205,0.41l0.264,0.234v0.352l0.352,0.322v0.381l0.264,0.205l0.498,0.586c0,0,0.029,0.352,0.322,0.469   s0.557,0,0.557,0s0.352-0.072,0.469,0.052c0.117,0.124,0.85,0.329,0.85,0.329s0.41-0.059,0.616,0s0.645-0.059,0.791,0   s0.799,0.337,0.799,0.337l1.407-0.088l0.154-0.264h0.594l0.352-0.22c0,0,0.172-0.069,0.24-0.161   c0.068-0.092,0.112-0.147,0.112-0.147l0.396-0.022l0.022,0.176l0.11,0.044h0.176l0.264-0.022l0.308,0.022l0.33-0.044h0.769   l0.137-0.071l0.088-0.022l0.057-0.017l0.086-0.032l0.104-0.033l0.033,0.049v0.088l0.126,0.06l0.126,0.027l0.099,0.016l0.115,0.022   l0.058,0.037l0.085,0.205l0.06,0.176l0.071,0.148l0.159,0.203l0.104,0.088l0.253,0.203l0.167,0.117l0.041-0.025   c0,0-0.012-0.015,0.028-0.02c0.041-0.004,0.17,0.015,0.17,0.015l0.154,0.019l0.489,0.085c0,0,0.105-0.066,0.159-0.063   s0.132,0.033,0.146,0.052c0.014,0.019,0.063,0.113,0.06,0.135s-0.005,0.055-0.005,0.055s0.011,0.014,0.088,0.044   c0.077,0.03,0.451,0.129,0.451,0.129l0.055,0.019l0.058,0.008l0.201,0.08l0.964,0.332l0.594,0.33l0.264,0.322l0.038,0.032   c0,0,0.083,0.039,0.135,0.053c0.052,0.014,0.106,0.045,0.106,0.045l0.108,0.074l0.099,0.099l0.17,0.102l0.135,0.082l0.181,0.118   l0.118,0.047l0.152,0.045l0.142,0.045l0.148,0.012c0,0,0.176-0.008,0.286,0.066c0.11,0.074,0.327,0.225,0.327,0.225l0.121,0.049   l0.289,0.126l0.134,0.049c0,0,0.07-0.016,0.152,0.026c0.082,0.041,0.261,0.148,0.261,0.148l0.142,0.066l0.108,0.032l0.179,0.003   c0,0,0.159,0.016,0.231,0.036c0.071,0.019,0.173,0.07,0.173,0.07l0.038,0.013c0,0,0.055,0.019,0.077,0.044   c0.022,0.025,0.19,0.291,0.195,0.305c0.005,0.014,0.099,0.146,0.135,0.179c0.036,0.033,0.154,0.129,0.2,0.158   c0.047,0.029,0.107,0.051,0.138,0.056s0.098,0.066,0.138,0.096s0.178,0.174,0.178,0.174l0.106,0.108c0,0,0.028,0.061,0.126,0.089   c0.098,0.028,0.221,0.058,0.221,0.058l0.072,0.019l0.085,0.029c0,0,0.038,0.021-0.005,0.051c-0.043,0.03-0.064,0.021-0.063,0.055   c0.001,0.034,0.09,0.13,0.142,0.147s0.137,0.048,0.137,0.048l0.072,0.037l0.054,0.025l-0.013,0.028c0,0,0.1,0.02,0.112,0.018   c0.012-0.002,0.111-0.008,0.111-0.008l0.091-0.021l0.07-0.215l0.066-0.108l0.098-0.089l0.198-0.088l0.098-0.241l0.176-0.22   l0.1-0.275l0.082-0.269l0.103-0.137l0.307-0.205l0.231-0.234l0.166-0.462l0.151-0.272l0.276-0.365l0.341-0.55l0.212-0.425   l0.096-0.301l0.198-0.165l0.221-0.231l0.175-0.293l0.15-0.158l0.242-0.359l0.081-0.253l-0.077-0.11l-0.187-0.169l-0.03-0.031   l0.097-0.134l-0.03-0.135l-0.11-0.172l-0.191,0.209l-0.209,0.121l-0.175-0.066l-0.038-0.073l0.11-0.081l-0.117-0.139l-0.032-0.114   l-0.063,0.004l-0.167,0.095l-0.102-0.055c0,0,0.037-0.318-0.024-0.318c-0.061,0-0.138-0.264-0.138-0.264l-0.169-0.128l-0.118,0.055   l-0.263,0.084l-0.203,0.068l-0.051-0.162l0.033-0.114c0,0,0.083-0.085,0.188-0.072c0.105,0.013,0.222-0.082,0.222-0.082   l-0.132-0.088l-0.42,0l-0.181,0.022c0,0-0.071,0.096-0.154,0.103c-0.083,0.007-0.171,0.018-0.171,0.018l-0.115-0.326l-0.103-0.169   l-0.352,0.029l-0.086-0.068l-0.312-0.181l0.105,0.235c0,0,0.016,0.073-0.017,0.073s-0.112,0.101-0.112,0.101l-0.04,0.002   l-0.161,0.066c0,0-0.079,0.094-0.103,0.006s-0.072-0.038-0.054-0.169c0.018-0.131,0.009-0.229,0.009-0.229l-0.094-0.239   l-0.193,0.076l-0.143-0.088l0.022-0.088c0,0,0.01,0.038,0.065-0.054s0.073-0.125,0.073-0.125l-0.227-0.176l-0.11-0.015   l-0.256-0.044l-0.161-0.059l-0.065-0.231l-0.118-0.084l-0.169,0.015l-0.114,0.096l-0.141-0.062l-0.163-0.306l-0.165-0.191   l-0.187,0.037l-0.099,0.154l-0.161-0.004l-0.07-0.264l-0.183-0.004l-0.165,0.136l-0.047,0.289l-0.177,0.012l-0.242-0.023   l-0.183,0.063l-0.176,0.015l-0.134,0.021l0.066,0.202v0.171c0,0-0.099,0.11-0.132,0.132s-0.158,0.091-0.158,0.091   s-0.165,0.045-0.203,0.018c-0.039-0.028-0.211-0.182-0.211-0.182l-0.245,0.104l-0.149-0.085l-0.247,0.151l-0.234,0.088   l-0.141,0.073l-0.072,0.022l-0.109-0.059c0,0-0.145-0.176-0.154-0.242c-0.008-0.065-0.198-0.429-0.198-0.429l-0.143-0.176   l-0.122,0.011l-0.073,0.205v0.206c0,0-0.029,0.093-0.115,0.05c-0.086-0.043-0.185-0.149-0.185-0.149s-0.033-0.224-0.033-0.268   c0-0.044,0.064-0.273,0.064-0.273l-0.185-0.112c0,0-0.163,0.081-0.236,0.07c-0.073-0.011-0.322-0.125-0.322-0.125l-0.286-0.154   c0,0-0.17-0.051-0.191,0.007c-0.021,0.058-0.088,0.103-0.088,0.103l-0.186-0.022l-0.063-0.131l0.107-0.287l-0.143-0.121   l-0.162,0.129l-0.312,0.315l-0.229,0.029l-0.152,0.189l-0.053,0.261l-0.072,0.257c0,0-0.125,0.122-0.197,0.145   c-0.072,0.023-0.278-0.022-0.278-0.022l-0.011,0.26l-0.005,0.116l-0.174,0.113l-0.22,0.038l-0.148-0.143l-0.247-0.173l-0.187,0.184   l-0.202,0.159l-0.16,0.231l-0.148,0.159l-0.044,0.137l-0.198-0.192l-0.104,0.016l-0.099,0.132l-0.268-0.088l-0.117,0.015   l-0.076,0.162c-0.187,0.06-0.308,0.159-0.308,0.159l-0.129-0.028l-0.249,0.015l-0.176-0.015l-0.14-0.021l-0.081-0.254l-0.198,0.005   l-0.152-0.073l-0.264,0.005l-0.288-0.021l-0.195-0.001l-0.205-0.02l-0.027-0.104l-0.164-0.132l-0.188-0.016l0,0.148   c0,0-0.016,0.033-0.093,0.093c-0.077,0.06-0.151,0.075-0.151,0.075l-0.124-0.042c0,0,0.041,0.072-0.06-0.005   c-0.102-0.077-0.291-0.121-0.291-0.121l-0.165-0.011l-0.044-0.115c0,0-0.026-0.05-0.085-0.05c-0.059,0-0.129,0.022-0.129,0.022   s-0.06,0.022-0.154,0.077c-0.093,0.055-0.286,0.115-0.286,0.115s-0.044,0.005-0.093,0.055c-0.049,0.049-0.033,0.055-0.143,0.066   c-0.11,0.011-0.297,0.071-0.297,0.071l-0.154,0.022l-0.154-0.242v-0.115l-0.214-0.33l-0.105-0.006l-0.065-0.005l-0.14-0.142   l-0.069-0.051l-0.151,0.095l-0.102,0.032l-0.089-0.134l-0.12-0.014l-0.07-0.03l-0.088-0.161l-0.132-0.147l-0.248-0.179   c0,0-0.012-0.102-0.001-0.246c0.012-0.144,0.009-0.083,0.012-0.144s0.147-0.045,0.17-0.17c0.023-0.125,0.155-0.286,0.155-0.286   l0.07-0.093l0.179-0.142c0,0,0.074,0.026-0.008-0.089c-0.082-0.115-0.095-0.201-0.095-0.201l0.016-0.164l-0.091-0.135l-0.202-0.173   l0.076-0.201l0.126-0.066v-0.33l-0.027-0.335l-0.093-0.038l-0.143,0.017v-0.237c0,0-0.026-0.093-0.026-0.148   c0-0.055-0.029-0.197-0.029-0.197s-0.163-0.028-0.158,0.005c0.004,0.033-0.06,0.055-0.071,0.077   c-0.011,0.022-0.035,0.034-0.062-0.027c-0.026-0.061-0.088-0.132-0.088-0.132s0.023-0.001,0.007-0.105   c-0.016-0.104-0.098-0.143-0.104-0.115c-0.007,0.028-0.037-0.006-0.071,0.022c-0.034,0.028-0.084,0.11-0.084,0.11   s-0.029,0.033-0.049,0.066s-0.021,0.038-0.037,0.065c-0.016,0.027-0.11,0.005-0.126-0.038c-0.016-0.044,0.132-0.099-0.049-0.06   c-0.181,0.038-0.181,0.038-0.181,0.038s-0.048,0.027-0.071,0.049c-0.023,0.022-0.005,0.104-0.022,0.121   c-0.016,0.016-0.137,0.016-0.137,0.016s-0.016,0.011-0.088-0.055s-0.115-0.077-0.137-0.093c-0.022-0.017-0.104-0.066-0.121-0.066   c-0.016,0-0.202-0.061-0.209-0.022s-0.077,0.044-0.11,0.071c-0.033,0.027-0.033,0.082-0.082,0.022   c-0.049-0.06-0.071-0.066-0.104-0.126s-0.077-0.115-0.104-0.17c-0.027-0.055-0.06-0.093-0.06-0.093l-0.148-0.055l-0.055-0.024   c0,0-0.05-0.015-0.088-0.015s-0.052,0.023-0.122,0.001c-0.07-0.022-0.103-0.022-0.109-0.044c-0.005-0.022-0.054-0.077-0.055-0.104   c-0.001-0.027-0.04-0.005,0.015-0.104c0.055-0.099,0.067-0.11,0.144-0.237c0.077-0.126,0.148-0.198,0.192-0.269   s0.06-0.176,0.06-0.176l0.021-0.175c0,0-0.069-0.147-0.061-0.198c0.007-0.051-0.007-0.161-0.007-0.161l-0.085-0.289l-0.252-0.4   l-0.125-0.154l-0.044-0.11l-0.088-0.256l-0.03-0.108c0,0,0.102-0.159,0.044-0.143c-0.058,0.016-0.343,0.016-0.343,0.016   l-0.015-0.117v-0.11l-0.051-0.212c0,0-0.271,0.066-0.264,0.029c0.007-0.037-0.088-0.147-0.088-0.147h-0.212l-0.198-0.029   l-0.125-0.103l-0.095,0.073c0,0-0.176,0.096-0.212,0.084c-0.037-0.011-0.249-0.055-0.249-0.055l-0.183-0.051l-0.138-0.043   l-0.096-0.352c0,0-0.126-0.025-0.085-0.093c0.04-0.068-0.047-0.178-0.047-0.178l-0.11-0.198c0,0,0.071,0.021-0.071,0.03   c-0.141,0.009-0.151,0.059-0.187,0.011c-0.036-0.048-0.131-0.18-0.131-0.18l-0.004-0.081c0,0-0.183,0.084-0.214,0.06   c-0.031-0.023-0.148-0.06-0.148-0.06l-0.044-0.432l0.029-0.044c0,0-0.017,0.036-0.103,0.066c-0.085,0.03-0.176,0.007-0.198,0.022   s-0.015,0.015-0.11,0.037c-0.095,0.022-0.242-0.037-0.264-0.037c-0.022,0-0.205-0.015-0.205-0.037c0-0.022-0.139-0.191-0.139-0.191   s-0.031-0.065-0.089-0.054s-0.263-0.012-0.285-0.012c-0.022,0-0.271-0.059-0.271-0.059l-0.181-0.238l-0.044-0.143   c0,0-0.149-0.224-0.149-0.257c0-0.033-0.038-0.142-0.038-0.142l-0.147-0.037l0.004-0.169l0.121-0.029c0,0,0.093,0.091,0.137,0.047   s0.111-0.065,0.105-0.131c-0.006-0.066,0.016-0.198,0.016-0.198l-0.328-0.296l-0.134-0.078l-0.258-0.234   c0,0,0.089-0.098,0.117-0.183c0.028-0.085,0.064-0.075,0.031-0.131s-0.038-0.14-0.038-0.14l-0.176-0.066l0.073-0.117   c0,0-0.145-0.535-0.189-0.546c-0.044-0.011-0.089-0.12-0.089-0.12l-0.191-0.103c0,0,0.017-0.067-0.017-0.14   c-0.034-0.073-0.066-0.132-0.066-0.132l-0.308-0.143l-0.203-0.018l-0.237-0.268l-0.187-0.165l-0.118-0.293l-0.249,0.037   l-0.117-0.161l-0.103-0.125l-0.176-0.154l-0.169,0.029l-0.125-0.103l-0.212-0.183c0,0-0.073,0-0.213,0   c-0.139,0-0.189-0.031-0.189-0.031l-0.082-0.101l0.198-0.264v-0.125l-0.101-0.179l-0.148-0.078l-0.175,0.087l-0.088,0.117   c0,0-0.073,0.059-0.081,0.081s-0.044,0.059-0.066,0.059s-0.243-0.029-0.243-0.029l-0.139-0.073c0,0-0.153-0.059-0.145-0.081   s0.037-0.103,0.015-0.11c-0.022-0.007-0.174-0.051-0.174-0.051s-0.056-0.007-0.065-0.06c-0.009-0.052-0.009-0.102-0.009-0.102   l-0.03-0.124l-0.182,0.015l-0.11-0.11c0,0-0.081-0.066-0.103-0.073s-0.37-0.271-0.37-0.271l-0.18-0.074l-0.088-0.051l-0.227-0.103   l-0.191-0.037l-0.104-0.205l-0.131,0.053l-0.124,0.085c0,0,0.081-0.044-0.029,0.081c-0.11,0.125-0.161,0.242-0.161,0.242   l-0.117,0.125c0,0-0.021,0.087-0.044,0.117s-0.103,0.081-0.132,0.095c-0.029,0.015-0.01-0.028-0.06,0.008s-0.109,0.08-0.109,0.08   l-0.258,0.022c0,0-0.248,0.014-0.27,0.036c-0.022,0.022-0.154,0.059-0.154,0.059s-0.037,0.059-0.073,0.022   s-0.103-0.161-0.103-0.161l-0.125,0.022l-0.132,0.045l-0.125-0.104l-0.205-0.139l-0.118-0.117l-0.113,0.044   c0,0-0.055,0.065-0.055,0.087s0.029,0.081,0,0.103c-0.029,0.022,0,0.117,0,0.117l0.103,0.147l0.077,0.112   c0,0,0.106-0.002,0.106,0.02c0,0.022,0.059,0.198,0.059,0.198l0.088,0.139c0,0,0.059,0.029,0.059,0.117   c0,0.088,0.022,0.212,0.037,0.249c0.015,0.037,0.11,0.286,0.139,0.322c0.029,0.037,0.021,0.11,0.087,0.176s0.021,0.015,0.066,0.066   c0.045,0.051,0.155,0.212,0.155,0.212l0.17,0.144c0,0,0.057,0.164,0.065,0.186s0.005,0.023,0.102,0.044   c0.096,0.021,0.192,0.043,0.192,0.043s0.095,0.081,0.154,0.154c0.059,0.073,0.095,0.104,0.161,0.162   c0.066,0.058,0.111,0.058,0.132,0.095c0.021,0.037,0.123,0.184,0.123,0.184h0.11l0.103,0.117l-0.094,0.102   c0,0-0.018-0.027-0.015,0.037s0.029,0.103,0.029,0.103l0.044,0.249l-0.001,0.154l-0.183,0.117l-0.138,0.102   c0,0,0.003,0.186-0.006,0.229s-0.022,0.144-0.001,0.189s0.073,0.264,0.051,0.271c-0.022,0.007-0.032,0.175-0.032,0.175l0.067,0.038   l0.089,0.021L-233.004,395.162z"> <title>Putumayo</title></path>
	<path id="1601" data-ng-click="$ctrl.openMap(2, '1601', true, $event)" fill="none" stroke="#020202" stroke-width="0.3" stroke-miterlimit="10" d="M-237.558,403.382c0,0,0.074-0.071,0.11-0.112   c0.036-0.041,0.043-0.102,0.06-0.13s0-0.069,0-0.069s0.025-0.057,0.06-0.095c0.035-0.038,0.082-0.076,0.103-0.117   s0.053-0.116,0.053-0.116l0.013-0.134c0,0,0.064-0.064,0.085-0.075c0.02-0.011,0.136-0.071,0.153-0.077s0.207-0.049,0.238-0.084   s0.118-0.032,0.118-0.087c0-0.055-0.003-0.132,0-0.16c0.003-0.027-0.023-0.047,0.059-0.111c0.081-0.064,0.126-0.169,0.133-0.203   s-0.04-0.07,0.021-0.105c0.061-0.035,0.164-0.076,0.203-0.103c0.038-0.027,0.09-0.148,0.09-0.181c0-0.033,0.032-0.119,0.053-0.148   c0.021-0.029,0.062-0.168,0.082-0.196c0.02-0.028,0.066-0.094,0.116-0.128c0.05-0.034,0.174-0.074,0.214-0.098   c0.039-0.024,0.16-0.111,0.16-0.111s0.002,0.089,0.092,0s0.054-0.17,0.107-0.225s0.107-0.179,0.107-0.179v-0.195   c0,0-0.059-0.066-0.035-0.073c0.023-0.007,0.108-0.109,0.108-0.109l0.012-0.275c0,0,0.006-0.091,0.035-0.112   s0.113-0.377,0.113-0.377s-0.006,0.144-0.007,0.146c0,0.002,0.059-0.296,0.059-0.296s0.041-0.095,0.037-0.11   c-0.005-0.015,0-0.201,0-0.201s-0.044-0.085,0.016-0.084c0.06,0.001,0.175-0.202,0.175-0.202s-0.007-0.092,0-0.139   s-0.037-0.124,0-0.174c0.037-0.05,0.121-0.17,0.121-0.17s-0.025-0.368-0.025-0.385s0-0.131,0-0.131l0.123-0.078l0.059-0.406v-0.093   c0,0,0.104-0.059,0.093-0.096c-0.01-0.037,0.04-0.117,0.04-0.117l0.081-0.064v-0.343h0.118c0,0,0.002,0.013,0.109,0.055   s0.166,0.092,0.166,0.092l0.105,0.179c0,0-0.006,0,0.032-0.002s0.21-0.01,0.247-0.011c0.037-0.002,0.048-0.002,0.094-0.004   c0.046-0.002,0.117-0.027,0.141-0.042c0.024-0.015,0.084-0.054,0.087-0.095c0.003-0.041,0.003-0.057,0.047-0.063   c0.044-0.005,0.121-0.022,0.143-0.049c0.022-0.027,0.032-0.123,0.032-0.123l-0.181-0.069c0,0-0.094-0.066-0.071-0.082   s0.063-0.041,0.078-0.055c0.015-0.014,0.091-0.071,0.091-0.071l-0.032-0.237l-0.012-0.092l-0.234-0.155l0.016-0.099l0.066-0.082   l0.048-0.033h0.075l0.059,0.016l0.418,0.272l0.469,0.147l0.243,0.228l0.166,0.134c0,0,0.185,0.122,0.217,0.145   c0.032,0.023,0.265,0.196,0.265,0.196s0.229,0.228,0.245,0.245s0.137,0.149,0.157,0.175s0.069,0.102,0.069,0.102l0.1,0.116   l0.413,0.388l0.498,0.176l0.967,1.524l0.406,0.147l0.115,0.207l0.036,0.116c0,0-0.023,0.111-0.029,0.151   c-0.006,0.04-0.019,0.137,0.005,0.198c0.024,0.061,0.229,0.413,0.229,0.413h0.264c0,0,0.149,0.118,0.158,0.124   c0.009,0.006,0.103,0.063,0.103,0.063s0.018,0.019,0.136,0.019s0.336,0,0.336,0l0.619,0.328l0.255,0.143l0.302,0.193   c0,0,0.113,0.035,0.143,0.043c0.03,0.008,0.469,0.114,0.469,0.114l0.268,0.17l0.318,0.181l0.234,0.234h0.205l0.469,0.264   c0,0,0.115-0.047,0.136-0.052c0.021-0.005,0.098-0.02,0.119-0.007c0.021,0.013,0.038,0.011,0.038,0.071c0,0.06,0,0.339,0,0.339   v0.711v1.459l0.234,0.293l0.322,0.264l0.674,0.293l0.293,0.352v0.528l0.205,0.41l0.264,0.234v0.352l0.352,0.322v0.381l0.264,0.205   l0.498,0.586c0,0,0.035,0.188,0.088,0.263s0.087,0.13,0.157,0.166c0.07,0.037,0.182,0.088,0.289,0.089   c0.107,0.001,0.228-0.009,0.289-0.03s0.179-0.046,0.27-0.04c0.091,0.005,0.14,0.012,0.164,0.021   c0.024,0.009,0.066,0.031,0.09,0.052c0.024,0.021,0.053,0.045,0.121,0.076c0.068,0.031,0.228,0.094,0.274,0.11   c0.046,0.016,0.454,0.143,0.454,0.143s0.236-0.024,0.294-0.025c0.058-0.001,0.16-0.003,0.218,0.006   c0.058,0.008,0.079,0.016,0.12,0.023c0.041,0.007,0.1,0.015,0.167,0.012c0.066-0.003,0.307-0.024,0.334-0.026   s0.144-0.009,0.169-0.007c0.025,0.001,0.082,0.007,0.105,0.017c0.023,0.009,0.216,0.09,0.216,0.09l0.291,0.123l0.291,0.124   l-0.022,0.236v0.027c0,0,0.031,0.049,0.044,0.058c0.013,0.009,0.242,0.14,0.242,0.14l0.066,0.132l0.295,0.19   c0,0,0.111,0.041,0.128,0.047c0.017,0.006,0.063,0.018,0.083,0.028c0.02,0.009,0.093,0.036,0.093,0.036l0.041,0.04h0.049   l0.072,0.024l0.074,0.033h1.539l0.044,0.132c0,0-0.049,0.152-0.059,0.198c-0.01,0.047-0.029,0.112-0.029,0.131   c0,0.019,0.076,0.172,0.118,0.222c0.042,0.05,0.217,0.228,0.241,0.255c0.024,0.026,0.153,0.17,0.167,0.188   c0.013,0.018,0.063,0.082,0.069,0.104c0.005,0.022-0.003,0.023,0.036,0.052s0.111,0.091,0.111,0.091s0.227,0.144,0.244,0.169   c0.018,0.025,0.185,0.145,0.193,0.158s0.121,0.08,0.121,0.08l0.102,0.065l0.034,0.021l0.026,0.01l0.011,0.013   c0,0,0.066,0.044,0.074,0.047c0.008,0.003,0.103,0.071,0.103,0.071l0.06,0.061l0.041,0.088l0.051,0.069l0.052,0.073l0.036,0.091   l0.026,0.06l0.045,0.047c0,0,0.09,0.061,0.113,0.088c0.023,0.027,0.082,0.112,0.082,0.112l0.077,0.121l0.052,0.083l0.111,0.111   l0.065,0.065l0.071,0.022l0.104,0.066l0.195,0.04c0,0,0.175-0.005,0.166,0.098c-0.009,0.103-0.031,0.455-0.031,0.455l0.286,0.352   l-0.14,0.188l-0.092,0.113c0,0-0.052,0.035-0.066,0.068c-0.015,0.033-0.027,0.083-0.032,0.122c-0.005,0.039-0.013,0.099-0.033,0.14   s-0.053,0.112-0.081,0.133s-0.105,0.064-0.105,0.064l-0.088,0.046l-0.093,0.036l-0.059,0.024l-0.057,0.008h-0.068l0.144,0.268   l-0.16,0.122l-0.136,0.103l-0.11,0.087c0,0-0.015,0.032-0.004,0.058c0.011,0.026,0.031,0.062,0.031,0.112   c0,0.05-0.012,0.109-0.022,0.141c-0.011,0.033-0.01,0.1-0.006,0.127c0.004,0.027,0.022,0.131,0.024,0.158s0.004,0.09,0.004,0.09   l-0.016,0.138l-0.003,0.069l-0.001,0.093l-0.006,0.207l0.007,0.066l-0.001,0.037l-0.011,0.031l0.002,0.027l-0.017,0.072   l-0.012,0.034l-0.012,0.028c0,0,0.021,0.032,0.025,0.052c0.004,0.02,0.014,0.098,0.014,0.098l-0.026,0.254h-0.037   c0,0-0.033,0.039-0.058,0.058s-0.043,0.028-0.046,0.029s-0.008,0.002-0.018,0.004s-0.087-0.007-0.087-0.007v0.154h-0.154   l-0.11,0.154c0,0-0.145,0.13-0.183,0.167c-0.038,0.036-0.125,0.119-0.125,0.119v0.176c0,0-0.115,0.044-0.136,0.055   c-0.021,0.011-0.09,0.037-0.091,0.063c-0.001,0.025-0.021,0.038,0.006,0.073c0.027,0.035,0.049,0.086,0.049,0.086l0.005,0.119   l0.005,0.106l0.002,0.048l-0.017,0.088l-0.044,0.106l-0.034,0.049l-0.183,0.341l-0.179,0.295l-0.15-0.01l-0.13-0.009l-0.137-0.003   l-0.111,0.003l-0.076,0.007l-0.08,0.007l-0.121,0.012l-0.043,0.002l-0.162,0.034l-0.04,0.096l-0.07,0.168l-0.016,0.127l-0.014,0.09   l-0.009,0.029l-0.046,0.056l-0.069,0.005c0,0-0.034,0.109-0.036,0.114c-0.003,0.005-0.05,0.058-0.05,0.058l-0.06,0.043   l-0.145,0.035l-0.041,0.002l-0.173,0.012l-0.027-0.004l-0.133-0.07l-0.044,0.081l-0.062,0.085c0,0-0.084,0.077-0.096,0.099   c-0.012,0.022-0.029,0.055-0.029,0.055l-0.031,0.062l-0.018,0.022l-0.013,0.01l-0.012,0.024c0,0,0.011-0.003,0.002,0.009   s-0.019,0.032-0.02,0.041c-0.001,0.009,0.017,0.103,0.02,0.112c0.004,0.009,0.007,0.037,0.007,0.037l-0.004,0.06l-0.027,0.049   l-0.029,0.03l-0.034,0.025l-0.043,0.007l-0.043,0.007l-0.05,0.014c0,0-0.069-0.014-0.1-0.021c-0.031-0.007-0.078-0.017-0.078-0.017   l-0.075-0.017l-0.065,0.001l-0.122-0.037l-0.134-0.044l-0.02-0.022l-0.041-0.028l-0.049-0.017l-0.02-0.004l-0.039,0.007   l-0.033,0.02l-0.035,0.038l-0.08,0.027l-0.025,0.018l-0.065,0.027l-0.056,0.024c0,0-0.072,0.035-0.082,0.035   c-0.01,0-0.071,0.019-0.071,0.019l-0.021,0.008l-0.031,0.012l-0.064,0.032l-0.052,0.026l-0.103,0.051l-0.016,0.008l-0.105,0.02   l-0.314-0.127l-0.15-0.061l-0.149-0.06l-0.062-0.007l-0.049,0.003l-0.042-0.012l-0.046,0.014l-0.061,0.02l-0.072,0.049   c0,0-0.015,0.028-0.022,0.035c-0.007,0.007-0.022,0.036-0.022,0.036l-0.062,0.049l-0.072,0.013l-0.093,0.003l0.009,0.025   l-0.013,0.045l0.005,0.057l-0.01,0.052l-0.028,0.064l-0.021,0.031l-0.037,0.019l-0.049,0.005c0,0-0.04,0.018-0.052,0.024   c-0.012,0.006-0.031,0.003-0.031,0.003l-0.056-0.045l-0.117-0.029l-0.077-0.03l-0.047,0.004l-0.096,0.013l-0.079,0.016   c0,0-0.009,0.001-0.069,0.016c-0.059,0.015-0.149,0.039-0.149,0.039v0.142l-0.057-0.025l-0.119-0.052l-0.051,0.053l-0.02,0.02   l-0.043-0.043l-0.064-0.108l-0.036-0.15l-0.004-0.091l-0.019-0.082l-0.038-0.073l-0.035-0.045l-0.019-0.03l-0.072-0.153   l-0.026-0.068l-0.033-0.086l-0.069-0.038l-0.053-0.029l-0.049-0.027l-0.037-0.033l-0.027-0.027l0.017-0.064l0.01-0.049l0.007-0.078   l-0.002-0.065l-0.013-0.06l-0.019-0.036l-0.019-0.037l-0.016-0.037l0.007-0.045l0.028-0.013l-0.041-0.053l-0.076-0.1l0.022-0.11   l0.055-0.083l0.04-0.077l0.003-0.033l-0.018-0.038l-0.036-0.054l-0.154,0.022l-0.054,0.108l-0.056,0.112l-0.11,0.154l-0.071,0.063   l-0.139,0.126l-0.137,0.105l-0.023,0.046l0.001,0.025c0,0-0.015,0.043-0.017,0.041s-0.038-0.032-0.038-0.032l-0.089-0.093   l-0.072-0.046l-0.065-0.014l-0.034,0.01l-0.065,0.032v0.176c0,0-0.214,0.068-0.247,0.079c-0.034,0.011-0.13,0.04-0.13,0.04   l-0.129,0.058l-0.093,0.065l-0.126,0.133l-0.068,0.009l-0.118,0.016l-0.076,0.016l-0.09,0.026l-0.109,0.025l-0.076,0.003   l-0.079-0.028l-0.062-0.011l-0.045-0.029l-0.083-0.027l-0.082-0.023l-0.074-0.014l-0.092,0.001l-0.018,0.055l-0.046-0.031   l-0.272-0.25l-0.089-0.086c0,0-0.037-0.034-0.015-0.084s0.023-0.05,0.023-0.05l-0.288-0.198l-0.112-0.253l-0.096-0.174   c0,0-0.03-0.035-0.05-0.022c-0.021,0.013-0.057,0.075-0.057,0.075l-0.674-0.381v-0.176l-0.326-0.548l-0.011-0.03l-0.011-0.027   l-0.006-0.04c0,0-0.005-0.019,0.014-0.018c0.019,0,0.056,0.007,0.056,0.007l0.021,0.012v-0.533l-0.003-0.375   c0,0-0.015-0.094-0.049-0.136c-0.035-0.042-0.124-0.134-0.132-0.139c-0.008-0.004-0.049-0.038-0.052-0.072   s-0.003-0.058,0.006-0.079c0.009-0.021,0.047-0.065,0.047-0.065l-0.169-0.184l-0.058-0.04l-0.065-0.053l-0.058-0.052l-0.053-0.06   l-0.042-0.051l-0.057-0.055l-0.051-0.05l-0.054-0.056l-0.041-0.052l-0.025-0.047l-0.059-0.091l-0.073-0.104l-0.06-0.074   l-0.069-0.088l-0.054-0.065l-0.322-0.147l-0.212-0.279l-0.206-0.222l-0.549-0.173l-0.352-0.293l-0.091-0.054l-0.059-0.047   l-0.172-0.28l-0.322-0.234h-0.176l-0.234-0.088l-0.186-0.075l-0.138-0.082c0,0-0.05-0.053-0.042-0.08   c0.009-0.027,0.073-0.086,0.073-0.086l-0.051-0.12l-0.039-0.099l-0.039-0.09l-0.073-0.096l-0.032-0.037l-0.048-0.046l-0.052-0.052   l-0.056-0.059l-0.027-0.032c0,0-0.018-0.038-0.006-0.048c0.012-0.011,0.018-0.019,0.059-0.021c0.041-0.002,0.041-0.002,0.041-0.002   l-0.067-0.134l-0.078-0.14l-0.1-0.151c0,0-0.09-0.088-0.113-0.11c-0.023-0.022-0.097-0.129-0.097-0.129l-0.102-0.157l-0.134-0.022   l-0.059-0.006l-0.03-0.009l-0.051-0.017l-0.031-0.023l-0.046-0.026l-0.077-0.034l-0.111-0.041l-0.137-0.05l-0.134-0.081   l-0.037-0.054l-0.059-0.067l-0.065-0.068l-0.078-0.08l-0.066-0.067l-0.137-0.092l-0.093-0.062l-0.115-0.077l-0.023,0.025h-0.042   l-0.073-0.081l-0.192-0.212v-0.703l-0.234-0.205v-0.703l0.088-0.264l0.146-0.205v-0.234c0,0-0.022-0.061-0.025-0.088   c-0.003-0.027-0.008-0.108,0.003-0.137s0.02-0.077,0.02-0.077s-0.001-0.065-0.009-0.101c-0.008-0.037-0.008-0.192-0.008-0.192   v-2.211l-0.036-0.139l-0.033-0.137l-0.044-0.09l-0.05-0.065c0,0-0.127-0.065-0.136-0.07c-0.009-0.005-0.095-0.043-0.095-0.043   l-0.112-0.05l-0.031-0.039l-0.029-0.044l-0.007-0.024c0,0-0.004-0.041-0.002-0.082c0.003-0.041,0.003-0.148,0.003-0.148   s0.014-0.181,0.015-0.191c0.001-0.01,0.007-0.056,0.007-0.056l-0.066-0.209l0.034-0.152c0,0-0.001-0.037-0.052-0.054   s-0.121-0.025-0.121-0.025l-0.039-0.001l-0.059,0.004l-0.07-0.002l-0.05-0.003l-0.023-0.014l0.013-0.018l-0.008-0.021l-0.031-0.036   l-0.021-0.028l-0.081-0.111l-0.044-0.044l-0.066-0.105l-0.044-0.093l-0.539-0.374l-0.004-0.055l-0.021-0.042l-0.047-0.04   l-0.028-0.024l-0.051-0.078l-0.054-0.067l-0.059-0.068l-0.029-0.022l-0.055-0.023l-0.084-0.026l-0.064-0.011l-0.098,0.005   l-0.052-0.052l-0.051-0.051l-0.056-0.05l-0.092-0.04l-0.089-0.027l-0.06-0.055l-0.072-0.077l-0.051-0.045l-0.241-0.106   l-0.088-0.031l-0.041-0.018l-0.071-0.025l-0.05,0.019l-0.071-0.012l-0.06,0l-0.162,0.008h-0.088l-0.181-0.069l-0.049-0.039   c0,0-0.014-0.025-0.014-0.033s0.012-0.023,0.017-0.041c0.005-0.018,0.007-0.071,0.007-0.071l-0.09-0.048l-0.073-0.036l-0.062-0.027   l-0.072,0.022l-0.034,0.004l-0.34-0.004l-0.179-0.18l-0.217-0.08l-0.109-0.004l-0.22-0.077l-0.297,0.077h-0.434L-237.558,403.382z"> <title>Maynas</title></path>
	<path id="1605" data-ng-click="$ctrl.openMap(2, '1605', true, $event)" fill="none" stroke="#020202" stroke-width="0.3" stroke-miterlimit="10" d="M-236.382,434.317l0.077,0.046l0.254,0.126   l1.768-0.089c0,0,0.124,0.019,0.168,0.029s0.114,0.009,0.156,0.003s0.142-0.048,0.173-0.058c0.031-0.01,0.325-0.098,0.393-0.081   s0.586,0.015,0.586,0.015l0.364-0.189l0.28-0.208l0.197-0.11l0.448-0.167l0.101-0.096l0.157-0.068l0.269-0.153l-0.075-0.03   l-0.01-0.061l0.084-0.031l0.333-0.131l0.116-0.122l0.063-0.126l0.12-0.135l0.072-0.043l0.171,0.062l0.063,0.112l0,0.294   l-0.052,0.141l0.042,0.066l0.127,0.027l0.172-0.026l0.079,0.026l0.041-0.094l0.031-0.141l0.263,0.134l0.276,0.151   c0,0,0.096,0.133-0.003,0.234c-0.087,0.089-0.114,0.19-0.114,0.19s0.03,0.041,0.051,0.14c0.017,0.081-0.079,0.032-0.033,0.102   l-0.081,0.057l-0.07,0.097l-0.107-0.115l-0.211,0.242c0,0-0.001-0.031,0.004,0.059c0.005,0.09,0.009,0.28,0.009,0.28   s0.013,0.068-0.015,0.136c-0.028,0.068-0.022,0.058-0.05,0.115c-0.027,0.058-0.124,0.259-0.124,0.259v0.147l-0.123,0.113   c0,0-0.07,0.064-0.104,0.096c-0.034,0.032-0.154,0.142-0.154,0.142l0.064,0.108c0,0-0.027,0.139-0.039,0.132   c-0.015-0.009-0.16,0.125-0.16,0.125l-0.129,0.163c0,0,0.006,0.047,0,0.12c-0.006,0.073-0.02,0.161-0.04,0.207   c-0.02,0.046-0.02,0.046-0.02,0.046l-0.058,0.126c0,0-0.134,0.134-0.178,0.178c-0.044,0.044-0.203,0.203-0.203,0.203   s-0.003,0.089-0.063,0.212c-0.06,0.123-0.083,0.375-0.082,0.374l0.017,0.138c0,0,0.007,0.242,0.004,0.316   c-0.003,0.075-0.025,0.366-0.025,0.366h0.267c0.042,0.18,0.042,0.18,0.042,0.18s0.001,0.151,0.046,0.201   c0.045,0.049,0.091,0.107,0.091,0.107s0.084,0.174,0.085,0.18c0,0.006,0.019,0.149,0.019,0.149l0.123,0.287l0.217,0.274   l-0.065,0.322l0.057,0.142c0,0,0.118,0.057,0.176,0.112s0.017-0.057,0.114,0.145c0.098,0.202,0.098,0.202,0.098,0.202l-0.035,0.103   l-0.22,0.271l-0.125,0.081l-0.029,0.161c0,0-0.085,0.022-0.119,0.121c-0.034,0.099-0.109-0.041-0.061,0.259   s0.085,0.485,0.085,0.485s-0.004-0.002-0.003,0.149c0.001,0.151,0.003,0.32,0.003,0.32l0.089,0.154   c0.212,0.143,0.174,0.176,0.174,0.176l0.376-0.002c0.147,0,0.245,0.13,0.245,0.13l0.236,0.102c0.254,0.038,0.446,0.047,0.446,0.047   s-0.263-0.13,0.045,0.009c0.308,0.139,0.336,0.047,0.464,0.055c0.128,0.008,0.169,0.012,0.169,0.012l0.12-0.092l0.157-0.137   l0.149-0.09c0,0,0.081-0.029,0.114-0.035c0.033-0.005,0.165,0.002,0.165,0.002s0.136,0.032,0.205,0.051s0.182,0.059,0.197,0.062   c0.015,0.003,0.176,0.045,0.176,0.045s0.173,0.076,0.209,0.099c0.036,0.022,0.222,0.16,0.271,0.183s0.421,0.198,0.432,0.198   c0.011,0,0.072-0.057,0.178,0.051c0.106,0.108,0.38,0.318,0.38,0.318l0.109,0.144c0,0-0.002,0.052,0.061,0.057   c0.063,0.005-0.182-0.017,0.111,0.004s0.355,0.034,0.355,0.034s0.026,0.039,0.165,0.042c0.139,0.003,0.15,0.038,0.234,0.063   c0.084,0.026,0.255,0.167,0.27,0.177s0.164,0.111,0.164,0.111s0.083,0.052,0.1,0.06c0.017,0.008,0.148,0.03,0.164,0.03   s0.052,0.003,0.074-0.022c0.022-0.026,0.029-0.067,0.077-0.132c0.049-0.065,0.081-0.213,0.081-0.213l0.065-0.23   c0,0-0.023-0.133-0.041-0.186s-0.055-0.21-0.055-0.21l-0.059-0.128l-0.007-0.055l-0.022-0.099l0.158,0.022   c0,0,0.144,0.028,0.167,0.022c0.024-0.006,0.313-0.008,0.322-0.021c0.009-0.013,0.048-0.07,0.064-0.093s-0.078-0.022,0.058-0.033   c0.136-0.011,0.308-0.011,0.326-0.015s0.135,0.004,0.202-0.018c0.066-0.022,0.449-0.06,0.449-0.06s0.098-0.079,0.121-0.139   c0.024-0.06-0.006-0.13,0.005-0.185c0.011-0.055-0.006-0.17,0.004-0.197c0.01-0.027-0.104-0.077-0.096-0.128   c0.009-0.051-0.096-0.164-0.096-0.164s-0.044-0.155-0.064-0.202s-0.166-0.163-0.159-0.199c0.007-0.037-0.116-0.113-0.116-0.113   l-0.102-0.133l-0.175-0.362c0,0,0.115,0.034,0.18-0.047c0.065-0.082,0.096-0.136,0.18-0.178s0.223-0.118,0.223-0.118l-0.018-0.184   c0,0-0.08-0.138-0.124-0.193s-0.084-0.087-0.092-0.173c-0.008-0.086-0.023-0.253-0.023-0.253l0.132-0.161   c0,0,0.295-0.289,0.293-0.337s0.029-0.22,0.029-0.22l0.142-0.186c0,0,0.132-0.14,0.143-0.148c0.011-0.008,0.102-0.17,0.126-0.195   c0.025-0.025,0.06-0.154,0.11-0.17c0.049-0.016,0.08,0.011,0.179-0.019c0.099-0.03,0.26-0.098,0.26-0.098s0.243-0.163,0.254-0.174   c0.011-0.011,0.131-0.135,0.138-0.14s0.305-0.225,0.305-0.225s0.106,0.01,0.151-0.001s0.205-0.011,0.219-0.017   s0.278-0.153,0.278-0.153s0.066-0.106,0.068-0.126c0.002-0.02,0.006-0.045,0.006-0.045l0.107-0.071c0,0,0.15,0.038,0.19,0.033   c0.04-0.005,0.062-0.026,0.136-0.02c0.074,0.005,0.173-0.014,0.225-0.022c0.052-0.008,0.042,0.002,0.11-0.004   c0.068-0.007,0.266,0.018,0.277,0.015s0.133-0.06,0.142-0.088c0.009-0.028,0.039-0.044,0.053-0.077   c0.014-0.033,0.06-0.179,0.066-0.19c0.005-0.011,0.173-0.014,0.179-0.022s0.21-0.253,0.21-0.253s0.078-0.17,0.103-0.195   c0.025-0.025,0.082-0.066,0.088-0.135c0.005-0.069,0.014-0.201,0.033-0.239c0.019-0.038,0.036-0.159,0.038-0.19   s-0.041-0.107-0.063-0.137c-0.022-0.03-0.115-0.146-0.115-0.146l-0.144-0.386c0,0-0.035-0.153-0.026-0.194   s-0.019-0.104-0.019-0.104s0-0.126-0.049-0.143c-0.049-0.016-0.246-0.124-0.246-0.124l-0.07-0.035l-0.017-0.042   c0,0-0.093-0.299-0.102-0.302c-0.008-0.003-0.247-0.316-0.247-0.316s0.003-0.069,0.008-0.085c0.005-0.017,0.052-0.107,0.071-0.129   c0.019-0.022,0.081-0.035,0.081-0.035l0.012-0.075c0,0,0.069-0.272,0.074-0.291c0.005-0.019,0.02-0.147,0.02-0.147l0.057-0.301   l0.128-0.014c0,0,0.08-0.071,0.094-0.085c0.014-0.014,0.018-0.094,0.015-0.103c-0.002-0.009-0.01-0.059-0.01-0.059   s0.055-0.292,0.058-0.301c0.003-0.009,0.072-0.14,0.083-0.159c0.011-0.019,0.116-0.156,0.118-0.175   c0.003-0.019,0.051-0.086,0.047-0.114c-0.003-0.029,0.079-0.182,0.104-0.199s0.248-0.126,0.248-0.126h0.117l0.115-0.163   l0.146-0.225c0,0,0.069-0.025,0.077-0.033c0.008-0.008,0.045-0.001,0.062-0.042c0.017-0.041,0.226-0.373,0.229-0.383   s0.083-0.133,0.083-0.133s0.059-0.27,0.072-0.352c0.014-0.082,0.095-0.236,0.117-0.288c0.022-0.051,0.055-0.245,0.062-0.264   c0.007-0.018-0.039-0.207-0.044-0.228s-0.135-0.238-0.11-0.267c0.025-0.028,0.032-0.33,0.032-0.377   c0-0.048-0.033-0.167,0.006-0.166c0.039,0.001,0.117,0.001,0.117,0.001s0.036-0.007,0.054-0.04   c0.018-0.033,0.065-0.098,0.083-0.148c0.018-0.049,0.067-0.201,0.104-0.232c0.037-0.031,0.069-0.138,0.087-0.172   c0.018-0.034,0.187-0.397,0.187-0.397s-0.011-0.161,0-0.187c0.011-0.026,0.146-0.225,0.114-0.267   c-0.032-0.043-0.118-0.273-0.122-0.283c-0.003-0.01-0.08-0.122-0.051-0.146s0.088-0.143,0.088-0.143l0.04-0.001l0.018-0.017   l-0.044-0.088l-0.058-0.065c0,0-0.062-0.011-0.162-0.045c-0.1-0.034-0.135-0.052-0.15-0.061c-0.014-0.009-0.099-0.093-0.099-0.093   l-0.248-0.068l-0.142-0.04l-0.205-0.068l-0.038-0.019l-0.034-0.025l-0.022-0.029l-0.052-0.021l-0.088-0.044l-0.065-0.052   l-0.059-0.023h-0.066h-0.041l-0.033,0.025l-0.02-0.002l-0.176-0.073l-0.056-0.008l-0.077-0.025l-0.094-0.056l-0.054-0.029   l-0.07-0.028l-0.109-0.044l-0.067-0.015h-0.381l0.043-0.13l0.035-0.104l0.024-0.091l0.059-0.068l0.059-0.075l0.049-0.091   l0.069-0.074l0.062-0.074l0.096-0.126l0.031-0.087l0.039-0.065l0.061-0.097l0.049-0.05l0.066-0.095l0.136-0.136l0.132-0.132   l0.104-0.104v-0.088c0,0,0.032-0.024,0.039-0.031c0.007-0.007,0.116-0.194,0.116-0.194l0.045-0.099l0.035-0.082l0.099-0.154   l0.172-0.319v-0.103l0.008-0.28l-0.002-0.563l-0.532-0.215l-0.082-0.033l-0.062-0.007l-0.061,0l-0.044,0l-0.094,0.025l-0.046,0.017   c0,0-0.033,0.026-0.037,0.043c-0.004,0.017-0.033,0.061-0.033,0.061s-0.047,0.042-0.062,0.049s-0.046,0.011-0.072,0.013   c-0.027,0.003-0.093,0.003-0.093,0.003l0.004,0.044c0,0-0.01,0.015-0.008,0.026c0.002,0.012,0.005,0.057,0.005,0.057   s-0.002,0.03-0.006,0.041c-0.004,0.011-0.019,0.046-0.026,0.06c-0.006,0.014-0.027,0.045-0.027,0.045l-0.037,0.019   c0,0-0.028-0.003-0.038,0.001c-0.01,0.004-0.035,0.008-0.048,0.012c-0.012,0.004-0.036,0.002-0.044,0.004   c-0.008,0.002-0.022-0.002-0.04-0.016c-0.018-0.014-0.023-0.012-0.062-0.025c-0.039-0.013-0.073-0.018-0.073-0.018l-0.086-0.029   l-0.057,0.005l-0.373,0.082v0.142l-0.176-0.076l-0.071,0.073l-0.043-0.043c0,0-0.014-0.024-0.032-0.054s-0.036-0.067-0.036-0.067   l-0.018-0.074l-0.02-0.122c0,0-0.007-0.07-0.011-0.084c-0.003-0.014-0.05-0.094-0.05-0.094l-0.066-0.121l-0.056-0.118l-0.05-0.119   l-0.021-0.041l-0.105-0.048l-0.07-0.034l-0.083,0.036c0,0-0.038,0.028-0.052,0.037s-0.044,0.033-0.04,0.048   c0.003,0.015-0.048,0.058-0.057,0.07c-0.008,0.013-0.115,0.094-0.115,0.094v0.077l-0.123,0.088l-0.044,0.092   c0,0-0.029,0.063-0.021,0.072c0.008,0.009-0.013,0.088-0.023,0.094c-0.01,0.006-0.043,0.074-0.049,0.087   c-0.006,0.013-0.035,0.096-0.035,0.096s-0.02,0.047-0.026,0.051c-0.006,0.004-0.063,0.044-0.063,0.044s-0.014,0.001-0.025,0.014   c-0.011,0.013-0.025,0.055-0.025,0.055l-0.044,0.044l-0.087,0.078c0,0-0.038,0.036-0.047,0.047   c-0.009,0.011-0.042,0.056-0.042,0.056l-0.029,0.014l-0.037-0.003l-0.077,0.081l-0.05,0.037l-0.137,0.101l-0.092,0.075l-0.049,0.03   l-0.025,0.055l0.005,0.044l0.021,0.071l0.022,0.05l0.034,0.071l-0.033,0.068l-0.06,0.058l-0.094,0.037l-0.095,0.051l-0.062,0.02   l-0.066,0.025l-0.041,0.011l-0.025,0.005c0,0-0.043,0.004-0.049,0.004c-0.005,0.001-0.054,0.006-0.068,0.007   c-0.014,0.001-0.056,0.01-0.056,0.01s-0.05,0.018-0.064,0.025c-0.014,0.008-0.055,0.032-0.055,0.032l-0.057,0.038l-0.076,0.055   l-0.027,0.02l-0.085,0.166l-0.085,0.065l-0.061,0.049l-0.085,0.152l-0.066,0.101l-0.02,0.053l-0.019,0.065l-0.037,0.06   l-0.141,0.189c0,0-0.029-0.01-0.049,0c-0.02,0.01-0.043,0.024-0.043,0.024s-0.079,0-0.136-0.001   c-0.057-0.001-0.133,0.014-0.162,0.022c-0.029,0.008-0.098,0.031-0.121,0.064s-0.113,0.246-0.113,0.246l-0.117,0.249l-0.308-0.011   l-0.374-0.165l-0.373,0.204l-0.022-0.021l-0.025-0.006l-0.051,0.055l-0.502,0.511l-0.104,0.236c0,0-0.078,0.076-0.105,0.095   c-0.026,0.019-0.055,0.087-0.055,0.108c0,0.021,0,0.088,0,0.088l-0.401,0.159l-0.377-0.015l-0.316,0.02l-0.176,0.121   c0,0,0.005,0.072-0.012,0.092s-0.075,0.094-0.075,0.094l-0.083,0.075l-0.176,0.124l-0.269,0.027c0,0-0.041-0.035-0.079-0.025   s-0.09,0.039-0.11,0.062c-0.02,0.023-0.147,0.179-0.147,0.179l-0.269,0.179l-0.396,0.148l-0.077,0.086l-0.549,0.595l-0.113,0.036   c0,0-0.029-0.008-0.117,0.036c-0.089,0.044-0.098,0.057-0.098,0.057l-0.01,0.023l-0.031,0.014l-0.06-0.002   c0,0-0.053,0.034-0.085,0.055c-0.033,0.021-0.111,0.089-0.111,0.089l-0.259,0.148l-0.049,0.099l-0.311,0.044l-0.195,0.084   l-0.055,0.022l-0.177,0.049l-0.09,0.023l-0.083,0.027l-0.106,0.034l-0.197,0.057h-0.137l-0.055-0.099c0,0-0.089-0.027-0.169-0.036   c-0.08-0.01-0.152-0.014-0.152-0.014l-0.118,0.045c0,0-0.011,0.062-0.044,0.071s-0.178,0.053-0.178,0.053l-0.081,0.024   l-0.115,0.066l-0.082,0.11l-0.039,0.066l-0.037,0.097l-0.032,0.048l-0.035,0.048l-0.164,0.212c0,0-0.162,0.099-0.211,0.128   c-0.05,0.029-0.14,0.083-0.208,0.105c-0.068,0.021-0.158,0.042-0.255,0.049c-0.097,0.006-0.342,0.025-0.342,0.025l-0.082,0.01   l-0.049-0.01l-0.011-0.005l-0.241,0.175l-0.341,0.032c0,0-0.059,0.151-0.064,0.175s-0.024,0.103-0.024,0.103   s-0.002,0.062-0.019,0.085c-0.016,0.024-0.032,0.049-0.055,0.061s-0.095,0.016-0.095,0.016s-0.095,0.01-0.138,0.053   c-0.043,0.043-0.145,0.206-0.145,0.206l-0.076,0.136l-0.161,0.132l-0.079,0.121l-0.017,0.127l-0.05,0.122l-0.042,0.156   l-0.046,0.237l-0.163,0.159l-0.211,0.192l-0.081,0.07l-0.13,0.173l-0.072,0.087l-0.085,0.101l-0.099,0.061l-0.12,0.09l-0.067,0.062   l-0.082,0.109l-0.27,0.33L-236.382,434.317z"> <title>Requena</title></path>
	<path id="1602" data-ng-click="$ctrl.openMap(2, '1602', true, $event)" fill="none" stroke="#020202" stroke-width="0.3" stroke-miterlimit="10" d="M-240.325,414.927c0,0-0.308,0.198-0.337,0.271   s-0.205,0.278-0.205,0.278s-0.088-0.019-0.132,0.078c-0.044,0.098-0.015,0.142-0.132,0.361c-0.117,0.22-0.147,0.381-0.191,0.469   c-0.044,0.088-0.103,0.176-0.161,0.366c-0.059,0.191-0.176,0.616-0.176,0.689s0,0.256,0,0.256s0.073,0.256,0.117,0.3   c0.044,0.044,0.044,0.015,0.117,0.132c0.073,0.117,0.073,0.117,0.073,0.117s0.147,0.234,0.147,0.308s-0.029,0.088,0,0.191   c0.029,0.103,0.22,0.22,0.212,0.249c-0.007,0.029,0.081,0.161,0.169,0.191c0.088,0.029,0.059-0.015,0.132,0.103   s0.132,0.088,0.132,0.278s0.073,0.249,0,0.454s-0.117,0.22-0.161,0.337c-0.044,0.117-0.073,0.176-0.147,0.352   c-0.073,0.176-0.044,0.132-0.125,0.322c-0.081,0.191,0.037,0.689,0,0.733c-0.037,0.044-0.095,0.25,0,0.33s0.154,0.227,0.242,0.33   c0.088,0.103,0.191,0.176,0.191,0.176s0.073,0.088,0.161,0.205s0.176,0.197,0.176,0.311c0,0.114,0.132,0.225,0.132,0.225   s-0.029,0.05,0.015,0.094c0.044,0.044,0.249,0.396,0.249,0.396l0.103,0.249c0,0,0.205,0.117,0.278,0.22   c0.073,0.103,0.147,0,0.205,0.176s0.088,0.308,0.117,0.352c0.029,0.044,0.029,0.059,0.103,0.161   c0.073,0.103,0.234,0.176,0.322,0.308c0.088,0.132,0.088,0.191,0.161,0.147c0.073-0.044,0.132-0.103,0.176-0.103   c0.044,0,0.22,0.117,0.22,0.117s-0.073,0.015,0.103,0.088s0.403,0.117,0.48,0.161c0.077,0.044,0.136,0.073,0.253,0.161   c0.117,0.088,0.103,0.153,0.205,0.15s0.205-0.032,0.22,0.085c0.015,0.117,0.059,0.161-0.059,0.176   c-0.117,0.015-0.161,0.015-0.322,0.029c-0.161,0.015-0.029-0.015-0.234,0c-0.205,0.015-0.425,0.008-0.469,0.004   c-0.044-0.004-0.073-0.019-0.132,0.113c-0.059,0.132-0.103,0.234-0.117,0.278c-0.015,0.044,0.176,0.074-0.103,0.081   c-0.278,0.007-0.278,0.007-0.278,0.007s0.161-0.014-0.103-0.007c-0.264,0.007-0.41,0-0.41,0s-0.161-0.184-0.249-0.316   c-0.088-0.132-0.147-0.278-0.22-0.278s-0.425-0.015-0.513,0c-0.088,0.015-0.234,0.059-0.352,0.073   c-0.117,0.015-0.733-0.103-0.733-0.103s0,0.015-0.191-0.015c-0.191-0.029-0.293-0.176-0.293-0.176l-0.352-0.015v0.117   c0,0,0.006-0.084-0.082,0.092c-0.088,0.176-0.058,0.37-0.058,0.37s-0.065,0.014-0.124,0.26c-0.059,0.246,0.147,0.275,0,0.451   c-0.147,0.176-0.147,0.481-0.176,0.49s-0.232,0.134-0.232,0.134s-0.171-0.009-0.233,0.138s0.026,0-0.062,0.147   c-0.088,0.147-0.295,0.175-0.295,0.175l-0.174,0.228c0,0,0.059,0.287,0,0.382s0.147,0.179,0,0.328   c-0.147,0.148-0.087,0.059-0.087,0.059l-0.236,0.387c0,0,0,0-0.176,0.159s-0.293,0.217-0.381,0.217c-0.088,0-0.557,0-0.557,0   s0-0.032,0,0.16c0,0.192,0.117,0.265,0.117,0.463s-0.029-0.037,0,0.198c0.029,0.234-0.176,0.322-0.117,0.41   s0.006,0.404,0.006,0.404l0.171,0.21l0.09,0.152c0,0,0.039,0.071,0.071,0.17s0.081,0.181,0.081,0.181s0.073,0.105,0.056,0.143   c-0.016,0.038,0.026,0.164,0.032,0.205c0.006,0.042,0.089,0.256,0.089,0.256l0.121,0.198l0.147,0.191c0,0,0.045,0.088,0.069,0.099   c0.024,0.011,0.067,0.096,0.067,0.096l0.228,0.103l0.111-0.071c0,0,0.17,0.015,0.192,0.01c0.022-0.004,0.027-0.004,0.079,0   c0.052,0.004,0.152-0.044,0.152-0.044l0.061-0.025c0,0,0.051,0.014,0.068,0.018s0.109,0.063,0.196,0.07   c0.087,0.007,0.151,0.046,0.191,0.015c0.04-0.031,0.086-0.085,0.138-0.102c0.052-0.017,0.116-0.058,0.132-0.069   c0.016-0.011,0.082-0.059,0.191-0.122c0.109-0.062,0.271-0.147,0.271-0.147s0.115-0.033,0.131-0.039   c0.016-0.005,0.095-0.06,0.095-0.06l0.17-0.103l0.164-0.095l0.085-0.04l0.044,0.103c0,0-0.019,0.08-0.002,0.135   s0.016,0.064,0.025,0.128c0.009,0.064,0.007,0.202,0.007,0.202l0.029,0.202l-0.007,0.117l-0.013,0.242l0.023,0.139l0.179,0.031   l0.129,0.127l0.132,0.088l0.172,0.033l0.212,0.044l0.187,0.066l0.428,0.012l0.275-0.033c0,0,0.056-0.162,0.1-0.176   s0.205-0.11,0.205-0.11l0.047-0.043l0.159-0.022l0.293,0.051l0.109,0.006l0.088,0.03c0,0,0.102,0.053,0.139,0.081   c0.037,0.028,0.045-0.014,0.08,0.074c0.034,0.087,0.023,0.021,0.034,0.087c0.011,0.066,0.054,0.077,0.054,0.077h0.058l0.041-0.066   l0.058-0.027l0.071,0.002l0.134,0.04l0.034,0.029c0,0-0.006,0.001,0.077,0.022s0.012,0.022,0.083,0.022s0.136-0.055,0.136-0.055   l0.108-0.11c0,0,0.046-0.095,0.052-0.053c0.006,0.042,0.042,0.09,0.042,0.09s0.007,0.059,0.029,0.059s0.063-0.037,0.112,0.004   s0.057,0.033,0.094,0.04s0.195,0.031,0.258,0.031s0.179,0.036,0.184-0.038c0.005-0.074,0.054-0.109,0.099-0.132   s0.045-0.162,0.045-0.162v-0.059l0.035-0.043l0.068-0.083l0.108-0.132l0.141-0.182l0.113-0.099l0.173-0.114l0.286-0.362   l0.454-0.421c0,0,0.036-0.201,0.046-0.237c0.01-0.037,0.032-0.116,0.032-0.116l0.061-0.161l0.017-0.127l0.079-0.121v-0.667   l0.147-0.469l0.081-0.073l-0.037-0.249l-0.163,0.031l-0.124-0.023l-0.065,0.007l-0.176-0.001l-0.073-0.161l-0.308-0.088   l-0.092-0.142l-0.227-0.109c0,0-0.062-0.018-0.048-0.083s0.09-0.272,0.09-0.272l0.155-0.396l0.066-0.176l0.05-0.089l-0.025-0.043   l-0.014-0.007l-0.049-0.249l-0.139-0.199l-0.045,0.024l-0.037-0.325l-0.035-0.19l-0.016-0.057l0.025-0.218l0.106-0.127l0.036-0.044   l0.119-0.102l0.3-0.184l0.083-0.144l0.044-0.113l0.04-0.094l0.052-0.084l0.146-0.063l0.1-0.131l0.06-0.041l0.067-0.026l0.051,0.022   l0.283-0.018l0.199-0.012l0.118-0.009l0.056-0.022l0.019-0.042h0.103v-0.132l-0.33-0.287l-0.119-0.034l-0.093-0.001   c0,0-0.218-0.079-0.281-0.12c-0.063-0.041-0.086-0.056-0.086-0.056l-0.246-0.252l-0.218,0.021l-0.198,0.02   c0,0-0.181,0.003-0.222-0.002c-0.041-0.005-0.187-0.028-0.187-0.028l-0.099-0.028l-0.103-0.022l-0.091-0.014l-0.025,0.04   l-0.37,0.003l-0.162-0.523l-0.072-0.086l-0.055-0.088l-0.042-0.073l-0.081-0.2l-0.054-0.137l-0.062-0.182l-0.075-0.234l-0.158-0.28   l-0.061-0.028l-0.037-0.044l0.037-0.117l-0.214-0.112c0,0-0.104-0.269-0.122-0.339c-0.018-0.07-0.078-0.299-0.074-0.349   c0.005-0.05-0.048-0.176-0.064-0.219c-0.016-0.043-0.044-0.139-0.038-0.185s0.028-0.188,0.028-0.188l-0.048-0.022l-0.045,0.018   c0,0-0.094-0.054-0.133-0.098s-0.207-0.235-0.207-0.235l-0.085-0.062l-0.065-0.084l-0.057-0.073l-0.031-0.049l-0.045-0.086   l-0.017-0.042c0,0-0.019-0.134-0.02-0.145c-0.001-0.01-0.009-0.163-0.009-0.163l-0.044-0.132l-0.025-0.096l-0.032-0.177   l-0.022-0.103l-0.024-0.14c0,0-0.074-0.112-0.085-0.15c-0.011-0.038-0.072-0.167-0.072-0.167l-0.052-0.12   c0,0-0.1-0.259-0.122-0.295s-0.072-0.114-0.072-0.114l-0.158-0.058l-0.103-0.097l-0.195-0.184l-0.078-0.073l-0.045-0.087   l-0.027-0.057l-0.06-0.17l-0.044-0.1l-0.073-0.109l-0.074-0.064l-0.016-0.064l0.004-0.144l0.01-0.079l-0.006-0.105l-0.042-0.286   l-0.027-0.132l-0.171-0.039l0.019-0.088l-0.014-0.125l-0.004-0.126l-0.089-0.057l-0.039-0.314c0,0-0.03-0.085-0.033-0.093   c-0.003-0.008-0.014-0.212-0.014-0.212l-0.019-0.123l-0.085-0.24l0.014-0.107l0.003-0.066l-0.002-0.135l0.06-0.11l0.058-0.11   l0.07-0.084l0.085-0.221l-0.024-0.202l0.006-0.141l-0.02-0.238L-240.325,414.927z"> <title>Alto Amazonas</title></path>
	<path id="1607" data-ng-click="$ctrl.openMap(2, '1607', true, $event)" fill="none" stroke="#020202" stroke-width="0.3" stroke-miterlimit="10" d="M-242.912,407.948l-0.088,0.066l-0.099,0.077   l-0.186,0.214l-0.165,0.082l-0.166,0.077c0,0-0.092,0.093-0.164,0.087s-0.331,0.132-0.331,0.132s-0.222,0.064-0.286,0.088   s-0.396,0.176-0.396,0.176s-0.154-0.04-0.209,0c-0.055,0.04-0.361,0.112-0.361,0.112s-0.173,0.125-0.22,0.104   s-0.221,0.081-0.221,0.081l-0.22,0.055l-0.22,0.066l-0.209,0.088l-0.319,0.11l-0.198,0.074l-0.088,0.091l-0.175,0.011h-0.198   l-0.169,0.06c0,0,0.016,0.083-0.105,0.083s-0.265,0.099-0.265,0.099l-0.219,0.036l-0.232,0.129h-0.187l-0.329,0.077l-0.231,0.076   l-0.067,0.077l-0.253,0.121l-0.343,0.018l-0.191,0.037l-0.18,0.132c0,0-0.152,0.089-0.221,0.11   c-0.069,0.021-0.209,0.055-0.209,0.055s-0.067,0.121-0.132,0.11c-0.065-0.012-0.319,0.077-0.319,0.077l-0.252,0.108l-0.11,0.067   c0,0-0.182-0.047-0.217-0.018s-0.189,0.106-0.189,0.106l-0.136,0.275l0.02,0.154l0.071,0.099l0.066,2.198l0.115,0.176l0.019,0.154   l0.059,0.454l0.059,0.22l0.103,0.191l0.052,0.153l0.329,0.169h0.088l0.161,0.234l0.06,0.304l0.17,0.209l0.038,0.242l-0.019,0.228   l-0.118,0.168c0,0-0.034,0.039-0.079,0.103s-0.038,0.257-0.038,0.257l0.214,0.3l0.216,0.165l0.198,0.134l0.132,0.207l-0.022,0.363   l0.004,0.194l0.073,0.136l-0.082,0.422l0.033,0.183l-0.039,0.44l-0.099,0.198l0.061,0.103l-0.191,0.234   c0,0-0.025,0.289-0.025,0.322c0,0.033-0.019,0.198-0.019,0.198s-0.045,0.125,0.014,0.213c0.059,0.088,0.072,0.116,0.087,0.205   s0.073,0.182,0.073,0.182s0.088,0.008,0.059,0.104c-0.029,0.096-0.121,0.407-0.121,0.407s-0.093,0.132-0.093,0.176   c0,0.044,0.01,0.187,0.01,0.187s-0.159,0.019-0.205,0.059c-0.047,0.04-0.085,0.04-0.195,0.128c-0.11,0.088-0.17,0.132-0.165,0.187   c0.006,0.055-0.016,0.22-0.016,0.22l0.08,0.164l-0.063,0.286c0,0,0.003,0.09-0.099,0.154c-0.102,0.064-0.213,0.157-0.258,0.154   c-0.045-0.003-0.219,0.241-0.219,0.241h-0.084l-0.196,0.269l-0.161,0.37l-0.054,0.275l0.068,0.18l0.052,0.261l0.099,0.332   l0.304,0.327c0,0,0.043,0.294,0.029,0.366c-0.014,0.073,0.059,0.528,0.059,0.528l0.049,0.216l0.066,0.429l0.045,0.368l0.171,0.211   c0,0,0.001,0.177,0.022,0.263c0.022,0.085,0.1,0.356-0.009,0.422c-0.11,0.066-0.097,0.228-0.097,0.228l0.148,0.031l0.115-0.031   l0.205-0.028l0.131,0.008l0.178,0.077c0,0,0.021,0.119,0.086,0.132s0.202,0.174,0.224,0.195s0.214,0.195,0.214,0.195   s0.106,0.11,0.139,0.127c0.033,0.016,0.033,0.154,0.055,0.258c0.022,0.104-0.027,0.226-0.027,0.226s0.132,0.062,0.154,0.064   c0.021,0.002,0.144,0.03,0.172,0.039c0.028,0.009,0.064,0.069,0.187,0.087s0.261,0.1,0.293,0.065   c0.032-0.035,0.192-0.003,0.325,0.009s0.203,0.021,0.203,0.021l0.137-0.071l0.159-0.005c0,0,0.081,0.033,0.104,0   c0.024-0.033,0.086,0.071,0.112,0.077s0.075,0.093,0.075,0.093s0.156,0.095,0.174,0.104s0.107,0.055,0.134,0.05   c0.027-0.005,0.038,0,0.132-0.011c0.093-0.011,0.093-0.011,0.093-0.011s0.063-0.018,0.11,0.022   c0.047,0.041,0.016,0.089,0.058,0.097s0.063,0.04,0.091,0.051s0.033,0.011,0.115,0.016c0.082,0.006,0.115,0.011,0.192,0.044   c0.077,0.033,0.187,0.082,0.187,0.082l0.187,0.06c0,0,0.082,0.068,0.118,0.091s0.195,0.112,0.206,0.129   c0.011,0.016,0.242,0.209,0.242,0.209h0.14c0,0,0.19,0.137,0.201,0.148c0.011,0.011,0.056,0.056,0.113,0.104   s0.191,0.105,0.209,0.099c0.018-0.006,0.176-0.096,0.176-0.096l-0.023-0.028l0.006-0.038l0.007-0.06l0.009-0.161l-0.009-0.092   l-0.011-0.037c0,0-0.034-0.046-0.004-0.094c0.03-0.049,0.086-0.144,0.086-0.144l0.028-0.093l0.003-0.068l-0.01-0.085l0.003-0.054   l0.005-0.055l-0.001-0.06l-0.004-0.037l-0.018-0.075l-0.02-0.052l-0.028-0.064c0,0-0.035-0.07-0.041-0.129   s-0.006-0.234-0.006-0.234l0.571-0.001c0,0,0.061-0.009,0.096-0.025c0.034-0.016,0.116-0.065,0.145-0.087s0.097-0.079,0.097-0.079   l0.205-0.184l0.164-0.27l0.064-0.106c0,0-0.021,0.038,0.025-0.004c0.045-0.042,0.089-0.088,0.089-0.088l0.028-0.05   c0,0,0.017-0.036,0-0.077s-0.054-0.118-0.054-0.118s-0.012-0.021,0.001-0.049s0.028-0.063,0.03-0.106   c0.002-0.043,0.001-0.113-0.005-0.159s-0.019-0.128-0.019-0.128l0.174-0.228c0,0,0.081-0.019,0.105-0.029   c0.024-0.01,0.072-0.03,0.101-0.053s0.065-0.053,0.088-0.093c0.024-0.039,0.041-0.073,0.041-0.073s0.001-0.028,0.015-0.06   c0.015-0.032,0.025-0.055,0.045-0.075c0.02-0.019,0.057-0.047,0.08-0.055s0.114-0.022,0.114-0.022l0.232-0.134l0.024-0.079   c0,0,0.03-0.154,0.046-0.202s0.026-0.075,0.04-0.104c0.015-0.029,0.032-0.062,0.049-0.083c0.017-0.021,0.035-0.036,0.049-0.068   c0.014-0.032,0.027-0.066,0.019-0.094c-0.007-0.028-0.039-0.106-0.039-0.106l-0.019-0.068c0,0-0.01-0.048-0.001-0.092   c0.008-0.044,0.02-0.097,0.034-0.137c0.014-0.04,0.003-0.05,0.028-0.086c0.025-0.036,0.07-0.081,0.07-0.081s0.005-0.043,0-0.072   c-0.005-0.029,0.003-0.13,0.012-0.167c0.01-0.037,0.017-0.037,0.027-0.089s0.023-0.055,0.042-0.087   c0.018-0.031,0.029-0.048,0.044-0.064c0.015-0.016,0.015-0.101,0.015-0.101l0.352,0.015c0,0,0.079,0.09,0.135,0.118   c0.056,0.028,0.211,0.074,0.28,0.073c0.069-0.001,0.564,0.082,0.564,0.082l0.197,0.02l0.153-0.021l0.239-0.053h0.513   c0,0,0.049,0.014,0.075,0.05s0.106,0.168,0.106,0.168l0.287,0.376l0.564,0.006l0.358-0.015c0,0,0.018-0.018,0-0.033   c-0.018-0.016-0.028-0.039-0.028-0.039l0.037-0.093l0.061-0.142l0.062-0.122c0,0,0.012-0.038,0.089-0.034   c0.077,0.004,0.359,0.002,0.359,0.002l0.198-0.01l0.069,0.008l0.077-0.004l0.168-0.014l0.154-0.015l0.04-0.008   c0,0,0.048,0.008,0.038-0.05c-0.009-0.058-0.03-0.156-0.03-0.156s-0.008-0.034-0.044-0.042c-0.036-0.008-0.117-0.006-0.117-0.006   l-0.073,0.001c0,0-0.041-0.004-0.07-0.038s-0.136-0.13-0.136-0.13l-0.102-0.069l-0.125-0.073l-0.108-0.042l-0.214-0.064   l-0.158-0.056l-0.096-0.049l-0.007-0.04l-0.069-0.044l-0.126-0.067c0,0-0.052-0.001-0.065,0.006s-0.088,0.059-0.088,0.059   l-0.048,0.032c0,0-0.037,0.059-0.093-0.035c-0.056-0.094-0.11-0.165-0.11-0.165l-0.094-0.087l-0.082-0.065   c0,0-0.081-0.069-0.104-0.102c-0.023-0.033-0.065-0.098-0.065-0.098l-0.038-0.063l-0.027-0.062l-0.025-0.079l-0.032-0.107   l-0.033-0.104l-0.02-0.049c0,0-0.033-0.052-0.061-0.061s-0.066-0.019-0.066-0.019s-0.028-0.011-0.059-0.048   c-0.031-0.036-0.106-0.107-0.159-0.143c-0.053-0.036-0.119-0.077-0.119-0.077l-0.051-0.123l-0.052-0.126l-0.047-0.08l-0.059-0.099   l-0.039-0.064l-0.086-0.132l-0.039-0.058c0,0-0.008-0.013,0-0.035c0.007-0.022-0.021-0.042-0.051-0.083   c-0.03-0.041-0.062-0.092-0.067-0.122c-0.005-0.03-0.01-0.082-0.01-0.082s-0.015-0.064-0.047-0.109   c-0.032-0.045-0.086-0.112-0.086-0.112l-0.102-0.132l-0.099-0.123c0,0-0.079-0.063-0.099-0.082s-0.052-0.047-0.079-0.08   c-0.028-0.033-0.076-0.101-0.102-0.142c-0.025-0.041-0.085-0.13-0.098-0.145c-0.012-0.015-0.027-0.031-0.027-0.031   s-0.05-0.044-0.06-0.069s-0.022-0.062-0.019-0.099c0.002-0.037,0-0.048,0.01-0.083c0.01-0.036,0.007-0.044,0.024-0.075   c0.018-0.03,0.027-0.053,0.024-0.09c-0.002-0.037-0.012-0.136-0.012-0.136l-0.006-0.06l-0.009-0.094l-0.008-0.136l0-0.062   l0.002-0.055c0,0,0.006-0.069,0.016-0.099s0.037-0.095,0.037-0.095l0.036-0.097l0.04-0.109l0.099-0.234l0.068-0.168l0.048-0.1   l0.075-0.142l0.038-0.095l0.03-0.122l-0.009-0.148l-0.018-0.114l-0.003-0.07l-0.015-0.121l-0.054-0.079l-0.063-0.078l-0.043-0.066   l-0.024-0.02l-0.065-0.016l-0.071-0.044l-0.05-0.053l-0.035-0.053l-0.026-0.065l-0.069-0.064l-0.098-0.101l-0.033-0.06   l-0.013-0.066l0.003-0.047l0.007-0.036l0.003-0.041l-0.012-0.052l-0.029-0.067l-0.058-0.109l-0.056-0.094l-0.073-0.116   l-0.046-0.065l-0.042-0.036l-0.021-0.018l-0.02-0.03l-0.032-0.073l-0.065-0.198c0,0-0.002-0.26,0.005-0.296   s0.066-0.277,0.066-0.277l0.078-0.28c0,0,0.073-0.224,0.089-0.259c0.016-0.035,0.062-0.127,0.078-0.157   c0.015-0.029,0.028-0.055,0.028-0.055l0.094-0.259l0.04-0.095c0,0,0.108-0.222,0.117-0.243s0.02-0.058,0.025-0.077   c0.005-0.019,0.031-0.12,0.031-0.12s0.025-0.069,0.059-0.084c0.033-0.015,0.082-0.018,0.082-0.018s0.149-0.186,0.164-0.209   c0.015-0.023,0.062-0.1,0.062-0.1s0.101-0.09,0.132-0.113s0.184-0.128,0.184-0.128l-0.039-0.09l-0.046-0.069l-0.03-0.177   l-0.018-0.106l-0.053-0.314l-0.136-0.036l0.04-0.164l0.018-0.074l-0.057-0.201c0,0-0.115-0.124-0.152-0.167   s-0.049-0.062-0.056-0.097c-0.008-0.035-0.016-0.124-0.016-0.165c0-0.041,0.005-0.352,0.005-0.352v-0.062l-0.001-0.052l-0.025-0.02   l-0.015-0.005l-0.04-0.047l-0.051-0.074l-0.043-0.069l-0.035-0.056l-0.094-0.212l-0.047-0.116l0.086-0.237l0.148-0.407   l-0.042-0.001l-0.019-0.006l0.012-0.046l0.038-0.192c0,0,0.028-0.158,0.035-0.222c0.007-0.064,0.006-0.197,0.006-0.197   l-0.011-0.061h-0.053c0,0-0.049-0.092-0.053-0.117c-0.003-0.025-0.013-0.134-0.006-0.182s0.035-0.179,0.035-0.179h0.396   l-0.055-0.092l-0.209-0.348l-0.177-0.204c0,0-0.118-0.206-0.135-0.241c-0.017-0.035-0.303-0.478-0.303-0.478l-0.44-0.264   l-0.22-0.22l-0.018-0.616l-0.478-0.021L-242.912,407.948z"> <title>Datem del Marañón</title></path>
	<path id="1606" data-ng-click="$ctrl.openMap(2, '1606', true, $event)" fill="none" stroke="#020202" stroke-width="0.3" stroke-miterlimit="10" d="M-236.383,434.396l0.139,0.051   c0,0,0.029,0.029,0.066,0.051c0.037,0.022,0.176,0.09,0.176,0.09l0.191,0.035c0,0,0.078-0.043,0.087,0.004   c0.008,0.047,0.079,0.092,0.11,0.121c0.03,0.029,0.089,0.139,0.089,0.139l0.103,0.073c0,0,0.001-0.041,0.059,0   s0.138,0.015,0.153,0.077c0.015,0.062-0.029,0.062,0.096,0.128c0.125,0.066,0.137,0.029,0.154,0.103   c0.017,0.074,0.044,0.264,0.044,0.264s-0.015,0.125-0.044,0.147c-0.029,0.022-0.059,0.055-0.103,0.064s-0.222-0.048-0.21-0.016   s0.027,0.128-0.003,0.186c-0.029,0.059-0.019,0.572-0.019,0.572l0.077,0.11l-0.014,0.109l-0.007,0.125c0,0,0.066,0.073,0.11,0.147   s0.044,0.073,0.044,0.073s0.03,0.087,0.059,0.147c0.028,0.059,0.005,0.036,0,0.103s-0.017,0.12-0.066,0.132   s-0.069-0.022-0.103,0.088s-0.051,0.125-0.059,0.176s-0.051,0.205-0.051,0.278s0.032,0.14,0.032,0.14l0.093,0.095   c0,0,0.059,0.044,0.059,0.073c0,0.029-0.022,0.22-0.022,0.22c0.014,0.129,0.007,0.256,0.015,0.278c0.007,0.022,0.007,0.088,0,0.161   s-0.007,0.073-0.007,0.073l0.051,0.169l0.022,0.088c0,0-0.116,0.087-0.147,0.103c-0.03,0.015-0.096,0.059-0.096,0.059   s-0.118,0.11-0.176,0.132c-0.058,0.021-0.121,0.033-0.121,0.033s-0.039,0.025-0.083,0.04c-0.044,0.015-0.154,0.051-0.154,0.051   l-0.096-0.029c0,0-0.101-0.103-0.109-0.125c-0.007-0.022-0.044-0.154-0.044-0.154l-0.044-0.11l-0.038-0.08l-0.087-0.03   c0,0-0.117-0.04-0.125-0.031c-0.007,0.009,0.029,0.024-0.022,0.038c-0.051,0.015-0.213-0.015-0.213-0.015l-0.097-0.149   c0,0-0.035-0.166-0.093-0.261c-0.059-0.095-0.059-0.164-0.088-0.21c-0.029-0.046-0.05-0.091-0.08-0.12   c-0.03-0.029-0.063-0.045-0.094-0.07c-0.031-0.025-0.098-0.017-0.098-0.017l-0.08,0.007c0,0,0.007,0.11,0,0.139   c-0.007,0.029,0.003-0.017-0.009,0.061c-0.013,0.078-0.042,0.181-0.086,0.181c-0.044,0-0.293,0.073-0.293,0.073l-0.148,0.008   l-0.085,0.07c0,0-0.002,0.033-0.064,0.018c-0.062-0.015-0.099-0.03-0.136-0.03c-0.037,0-0.073-0.015-0.103-0.015   c-0.029,0-0.125,0.022-0.125,0.022s0.007,0-0.081,0c-0.088,0-0.181-0.036-0.181-0.036v0.051l-0.12,0.14c0,0,0.008,0.021,0.03,0.036   c0.022,0.015,0.015,0.132,0.015,0.132s0.064-0.102-0.03,0.037c-0.094,0.139-0.036,0.065-0.094,0.139s-0.095,0.11-0.095,0.11   l-0.029,0.037v0.095l0.044,0.073l0.054,0.025c0,0-0.039,0.173-0.039,0.228c0,0.055-0.005,0.275-0.005,0.275l0.004,0.191l0.084,0.1   l0.121,0.181c0,0,0.059-0.013,0.062,0.029s-0.002,0.136-0.002,0.136s-0.005,0.085-0.039,0.145s-0.025,0.101-0.06,0.136   s-0.061,0.104-0.061,0.104s-0.049,0.077-0.033,0.143c0.016,0.066,0.076,0.113,0.074,0.14c-0.002,0.027-0.019,0.058-0.014,0.135   c0.005,0.077,0.02,0.187,0.02,0.187l-0.021,0.147c0,0-0.029-0.002-0.032,0.023c-0.003,0.025,0.029,0.01-0.027,0.035   s-0.1,0.02-0.177,0.064c-0.077,0.044-0.187,0.063-0.187,0.063s0.007-0.017-0.076,0.034c-0.083,0.051-0.182,0.089-0.221,0.1   s-0.067-0.049-0.099,0s-0.06,0.148-0.06,0.148l-0.121,0.137l-0.041,0.156l-0.189,0.157l-0.049,0.136v0.089l0.027,0.365   l-0.081,0.059l-0.11,0.059c0,0-0.022,0.011-0.04,0.02c-0.018,0.009-0.112,0.022-0.092,0.046c0.02,0.024,0.05,0.081,0.05,0.081   l0.161,0.234l0.007,0.076c0,0,0.063-0.008,0.045,0.048c-0.018,0.056-0.012,0.078,0.004,0.117c0.016,0.038,0.011,0.038,0.033,0.077   c0.022,0.038,0.104,0.137,0.132,0.143c0.027,0.005,0.041,0.018,0.071,0.027c0.03,0.01,0.049,0.038,0.088,0.038   s0.059,0.044,0.059,0.044s0.099,0.175,0.094,0.205s0.044,0.102,0.044,0.102s0.027,0.016,0.055,0.06   c0.027,0.044-0.016,0.027,0.027,0.044c0.044,0.017,0.088,0,0.088,0l0.058,0.013l0.023,0.081c0,0,0.065,0.216,0.069,0.237   c0.004,0.021-0.013-0.045,0.017,0.06s0.037,0.15,0.037,0.15l-0.012,0.157c0,0-0.093,0.06-0.132,0.088   c-0.038,0.027-0.03,0.011-0.081,0.058c-0.051,0.047-0.084,0.08-0.084,0.08l0.011,0.181c0,0-0.004,0.062-0.002,0.1   c0.002,0.038,0.019,0.103,0.019,0.103s0.104,0.143,0.104,0.165c0,0.022,0.037,0.096,0.037,0.096s0.055,0.026,0.071,0.033   s0.074,0.069,0.074,0.069h0.109l0.188,0.291l0.113,0.128l0.046,0.098l0.027,0.1l0.058,0.069l0.116,0.19l0.085,0.14l0.085,0.08   l0.091,0.03c0,0,0.014-0.019,0.044-0.038c0.03-0.02,0.11-0.038,0.148-0.049c0.038-0.011,0.165-0.033,0.165-0.033   s0.001-0.039,0.017-0.046c0.016-0.006,0.085-0.031,0.085-0.031l0.151,0.022l0.066,0.011c0,0,0.082,0.093,0.093,0.126   c0.011,0.033,0.049,0.099,0.049,0.115s0.005,0.066,0.005,0.066l-0.011,0.297c0,0,0.113,0.076,0.082,0.082   c-0.03,0.006-0.036,0.093-0.018,0.115c0.018,0.022,0.018,0.061,0.018,0.061v0.093l-0.077,0.226l-0.064,0.035   c0,0-0.107,0.008-0.129,0.019s-0.17,0.035-0.17,0.035s-0.06,0.007-0.082,0c-0.022-0.007-0.037,0.035-0.079,0.022   c-0.042-0.013-0.108,0.031-0.108,0.031l-0.054,0.137v0.082c0,0-0.034,0.099-0.034,0.115s-0.016,0.055-0.016,0.082   c0,0.027,0.011,0.093,0.011,0.093l0.06,0.187l0.054,0.187c0,0-0.032,0.103,0.001,0.115c0.033,0.012,0.049,0.088,0.049,0.104   c0,0.016-0.008,0.081-0.008,0.081l-0.101,0.243c0,0-0.017,0.012-0.06,0.06c-0.043,0.048-0.131,0.07-0.131,0.07l-0.074,0.032   c0,0-0.082-0.034-0.092,0s-0.097,0.239-0.097,0.239l0.169,0.11h0.094l0.06-0.015c0,0-0.034-0.059-0.027,0.059   s0.084,0.316,0.084,0.316s-0.042,0.146-0.05,0.19c-0.008,0.044-0.081,0.249-0.081,0.249l-0.218,0.575l0.038,0.159   c0,0-0.031,0.196-0.038,0.225c-0.007,0.029,0.223,0.016,0.173,0.037c-0.05,0.021-0.094,0.08-0.094,0.08l-0.022,0.044l0.015,0.07   l0.037,0.062l0.081,0.234l0.088,0.066h0.242c0,0,0.007-0.03,0.037-0.059c0.029-0.029,0.11-0.125,0.11-0.125s0.02-0.116,0.065-0.109   c0.045,0.007,0.124-0.011,0.132-0.012c0.008-0.001,0.03,0.004,0.085-0.058c0.056-0.062,0.125-0.187,0.125-0.187l0.127-0.124   l0.089-0.147c0,0-0.032-0.111-0.039-0.131c-0.007-0.02,0.031-0.192,0.031-0.192l0.089-0.198l0.182-0.065h0.17l0.146-0.125   c0,0,0.035-0.05,0.065-0.109c0.03-0.059,0.088-0.147,0.088-0.147l0.14-0.169l0.007-0.073l0.204,0.037l0.133-0.066l0.103-0.066   c0,0,0.079-0.067,0.141-0.07c0.063-0.003,0.115,0.018,0.115,0.018s0.122-0.014,0.153,0.026c0.03,0.04,0.038,0.032,0.067,0.073   c0.029,0.04,0.15,0.163,0.15,0.163l0.05,0.083l0.167,0.044h0.088c0,0,0.146-0.008,0.168-0.008c0.022,0.001,0.131,0.008,0.131,0.008   l-0.036-0.162c0,0-0.015-0.075-0.019-0.118c-0.004-0.043-0.062-0.101-0.062-0.101s-0.066-0.074-0.095-0.089   c-0.029-0.015-0.096-0.072-0.096-0.072l-0.044-0.074l-0.117-0.176c0,0-0.029-0.081-0.01-0.114c0.019-0.033,0.034-0.063,0.022-0.121   c-0.012-0.058-0.022-0.143,0.033-0.231c0.055-0.088,0.055-0.088,0.055-0.088l0.165-0.121l0.087-0.117c0,0,0.038-0.092,0.078-0.109   c0.04-0.017,0.121-0.214,0.121-0.214l0.036-0.087l0.063-0.055c0,0,0.077-0.033,0.154-0.055c0.077-0.022,0.22-0.055,0.22-0.055   l0.237-0.128c0,0-0.005,0.043,0.071-0.037c0.076-0.08,0.222-0.08,0.222-0.08l0.36,0.19l0.121,0.022h0.088   c0,0,0.049-0.026,0.036-0.112c-0.014-0.086,0.063-0.262,0.063-0.262s-0.065-0.259,0-0.224c0.065,0.034,0.031-0.068,0.065-0.141   c0.034-0.074,0.056-0.162,0.1-0.184s0.193-0.139,0.193-0.139l0.324-0.081l0.38-0.065l0.126,0.021l0.314,0.066l0.236,0.131   l0.396,0.033h0.308l0.396-0.044l0.395-0.12l0.293-0.073l0.378-0.147l0.222-0.102l0.293-0.454l0.221-0.378l0.16-0.311l0.17-0.107   l-0.077-0.22l-0.151-0.128l-0.166-0.249l0.097-0.107c0,0-0.072-0.264-0.074-0.297c-0.003-0.033-0.124-0.187-0.124-0.187   l-0.165-0.231l-0.088-0.22l0.022-0.286l0.066-0.264l0.132-0.11l0.133-0.381l0.185-0.268l0.01-0.23l-0.431,0.007l-0.25-0.068   l-0.056-0.012l-0.077-0.016l-0.105-0.022l-0.092-0.015l-0.057-0.001l-0.045,0.011l-0.037,0.021l-0.072-0.016l-0.322-0.227h-0.44   l-0.264-0.33l-0.031-0.637l-0.006-0.018l-0.047-0.26l-0.001-0.039l0.01-0.062c0,0-0.021-0.08-0.025-0.106   c-0.002-0.014,0.056-0.048,0.056-0.048s0.016-0.037,0.019-0.043c0.003-0.006,0.017-0.028,0.022-0.035   c0.006-0.007,0.048-0.051,0.048-0.051l0.048-0.035l0.004-0.021l0.025-0.14l0.216-0.165l0.169-0.257c0,0,0.02-0.025-0.005-0.032   c-0.024-0.008-0.021-0.032-0.028-0.059c-0.008-0.027-0.036-0.044-0.036-0.044l-0.007-0.049l-0.008-0.042l-0.019-0.009l-0.013-0.028   l-0.019-0.031l-0.025-0.031l-0.02-0.021l-0.037-0.034l-0.068-0.05l-0.108-0.062l-0.014-0.036l-0.008-0.02   c0,0-0.022-0.005-0.025-0.008c-0.003-0.003,0.019-0.006,0,0c-0.005,0.002,0.012-0.025,0.012-0.025l-0.02-0.01   c0,0-0.008-0.021-0.006-0.023c0.001-0.002,0.004-0.021,0.004-0.021l0.028-0.075l0.023-0.127c0,0,0.014-0.051,0.014-0.068   s0.008-0.039-0.003-0.042c-0.011-0.003,0.002-0.01,0.002-0.01s-0.1-0.111-0.129-0.149s-0.073-0.101-0.088-0.125   s-0.046-0.072-0.054-0.087c-0.008-0.014-0.029-0.05-0.029-0.05s-0.024-0.082-0.025-0.084s-0.014-0.059-0.016-0.066   c-0.002-0.007-0.008-0.043-0.01-0.053c-0.001-0.009-0.006-0.045-0.007-0.057c-0.001-0.012-0.001-0.031-0.002-0.04   c-0.001-0.009-0.002-0.024-0.006-0.037c-0.004-0.013-0.031-0.072-0.038-0.084c-0.007-0.012-0.02-0.034-0.04-0.06   c-0.02-0.026-0.041-0.052-0.046-0.057c-0.005-0.006-0.045-0.05-0.045-0.05s-0.044-0.189-0.046-0.201   c-0.003-0.012-0.042-0.18-0.042-0.18h-0.267l0.011-0.118c0,0,0.011-0.159,0.011-0.174s0.003-0.075,0.003-0.075l0.002-0.06   l0.001-0.114c0,0-0.004-0.118-0.006-0.143s-0.013-0.103-0.018-0.125c-0.005-0.022,0.01-0.056,0.008-0.077s0.042-0.076,0.018-0.113   c-0.018-0.028,0.031-0.059,0.016-0.074c-0.014-0.013,0.025-0.086,0.042-0.123c0.017-0.037,0.036-0.084,0.043-0.112   c0.007-0.028,0.02-0.099,0.02-0.099l0.381-0.381c0,0,0.07-0.148,0.078-0.172s0.018-0.053,0.024-0.079   c0.006-0.027,0.016-0.088,0.016-0.128s0-0.12,0-0.12s0.054-0.075,0.072-0.096s0.042-0.05,0.057-0.067   c0.016-0.017,0.028-0.031,0.045-0.047c0.017-0.016,0.028-0.028,0.045-0.042c0.016-0.014,0.038-0.029,0.055-0.046   c0.018-0.017,0.044-0.046,0.049-0.069c0.005-0.022,0.01-0.046,0-0.071c-0.01-0.025-0.026-0.054-0.034-0.063   s-0.026-0.028-0.026-0.028l0.381-0.352v-0.147c0,0,0.132-0.274,0.146-0.306c0.014-0.033,0.028-0.068,0.028-0.068   s0.015-0.065,0.015-0.136c0-0.071-0.003-0.176-0.004-0.19c-0.001-0.014-0.005-0.09-0.005-0.09l-0.004-0.059   c0,0,0.074-0.092,0.078-0.098c0.004-0.006,0.044-0.057,0.057-0.069c0.012-0.012,0.043-0.039,0.064-0.042   c0.022-0.003,0.03-0.006,0.047,0c0.017,0.006,0.043,0.022,0.052,0.032c0.009,0.01,0.025,0.03,0.025,0.03l0.176-0.205   c0,0-0.041-0.052-0.046-0.09s-0.004-0.067-0.002-0.08c0.003-0.012,0.011-0.043,0.017-0.056c0.006-0.013,0.032-0.058,0.04-0.069   c0.008-0.011,0.05-0.057,0.057-0.065c0.007-0.008,0.03-0.035,0.035-0.044c0.005-0.009,0.021-0.046,0.023-0.056   c0.002-0.01,0.001-0.043-0.001-0.051c-0.002-0.008-0.026-0.053-0.03-0.058c-0.004-0.005-0.017-0.019-0.024-0.025   c-0.007-0.006-0.028-0.022-0.033-0.026c-0.005-0.003-0.051-0.03-0.058-0.033c-0.006-0.003-0.03-0.013-0.03-0.013l-0.418-0.213   l-0.044,0.199c0,0-0.005,0.016-0.028,0.035c-0.016,0.014-0.037,0.03-0.049,0.05c-0.005,0.008-0.008,0.016-0.009,0.025   c-0.004,0.032-0.015,0.061-0.016,0.074c-0.001,0.013,0.008,0.046,0.011,0.034s0.004-0.046,0.004-0.05s0.001-0.032,0.001-0.037   c0-0.004,0.011-0.069,0.011-0.069l-0.006-0.019c0,0-0.011-0.022-0.014-0.025c-0.003-0.004-0.013-0.009-0.013-0.009l-0.021-0.005   c0,0-0.002-0.001-0.01-0.001c-0.008,0-0.019,0-0.028,0.001c-0.009,0.001-0.035,0.006-0.041,0.007s-0.029,0.008-0.037,0.01   c-0.008,0.003-0.035,0.013-0.035,0.013s-0.069-0.014-0.076-0.016c-0.007-0.002-0.046-0.01-0.051-0.011   c-0.004-0.002-0.028-0.013-0.033-0.026c-0.006-0.013-0.009-0.032-0.009-0.041c0.001-0.009,0.004-0.031,0.006-0.038   c0.002-0.007,0.012-0.036,0.017-0.047c0.005-0.011,0.029-0.056,0.029-0.056v-0.264c0,0-0.002-0.042-0.016-0.064   s-0.042-0.053-0.055-0.063c-0.013-0.01-0.034-0.024-0.048-0.032c-0.014-0.008-0.115-0.046-0.115-0.046l-0.147,0.088l-0.147,0.293   l-0.043,0.026l-0.008,0.004l-0.01,0.005l-0.009,0.005l-0.008,0.005c0,0-0.064,0.033-0.072,0.036s-0.06,0.027-0.064,0.028   c-0.004,0.002-0.081,0.032-0.12,0.044s-0.102,0.029-0.108,0.031s-0.027,0.009-0.031,0.011c-0.004,0.002-0.018,0.009-0.022,0.011   c-0.004,0.003-0.018,0.013-0.019,0.018c-0.001,0.005-0.003,0.014,0.003,0.021c0.006,0.007,0.012,0.015,0.025,0.022   c0.013,0.007,0.037,0.018,0.037,0.018l0.037,0.012c0,0-0.087,0.056-0.093,0.06c-0.006,0.004-0.05,0.029-0.05,0.029l-0.048,0.026   l-0.031,0.016l-0.013,0.006l-0.013,0.006l-0.011,0.005l-0.01,0.004c0,0-0.01,0.004-0.012,0.005   c-0.002,0.001-0.017,0.006-0.017,0.006s-0.004,0.001-0.008,0.003c-0.004,0.001-0.016,0.005-0.016,0.005s-0.017,0.005-0.02,0.006   c-0.003,0.001-0.025,0.01-0.029,0.012c-0.004,0.002-0.031,0.017-0.033,0.018c-0.002,0.001-0.022,0.015-0.022,0.015   s-0.068,0.058-0.079,0.07c-0.011,0.012-0.023,0.027-0.023,0.027l-0.214,0.08c0,0-0.227,0.084-0.234,0.087   c-0.006,0.003-0.098,0.044-0.109,0.05c-0.01,0.006-0.044,0.027-0.052,0.033c-0.008,0.006-0.024,0.018-0.036,0.027   c-0.012,0.009-0.087,0.067-0.095,0.074c-0.008,0.007-0.109,0.089-0.109,0.089l-0.293,0.176l-0.147,0.059c0,0-0.336,0-0.361,0   c-0.026,0-0.137,0.002-0.157,0.002c-0.021,0.001-0.156,0.009-0.169,0.011c-0.013,0.001-0.117,0.013-0.144,0.018   c-0.027,0.005-0.087,0.017-0.098,0.02c-0.011,0.003-0.04,0.012-0.05,0.016c-0.01,0.004-0.018,0.007-0.028,0.012   s-0.015,0.009-0.028,0.015s-0.034,0.014-0.04,0.016s-0.013,0.005-0.034,0.008c-0.021,0.003-0.027,0.005-0.042,0.006   s-0.058,0.003-0.058,0.003s-0.093-0.005-0.098-0.005c-0.006-0.001-0.025-0.003-0.025-0.003s-0.125-0.022-0.143-0.026   s-0.579-0.005-0.579-0.005l-1.171,0.093l-0.335-0.18l-0.013,0.063l-0.001,0.023V434.396z"> <title>Ucayali</title></path>
	<path id="1604" data-ng-click="$ctrl.openMap(2, '1604', true, $event)" fill="none" stroke="#020202" stroke-width="0.3" stroke-miterlimit="10" d="M-215.536,427.286v-0.117c0,0,0,0-0.044-0.088   c-0.044-0.088-0.088-0.073-0.249-0.117c-0.161-0.044-0.22-0.147-0.22-0.147s-0.44-0.117-0.56-0.161s-0.129-0.088-0.129-0.088   s-0.161-0.059-0.205-0.117c-0.044-0.059-0.176,0.015-0.22,0s-0.176-0.073-0.176-0.073s-0.103,0-0.205-0.073   s-0.073-0.029-0.147-0.073c-0.073-0.044-0.176-0.059-0.176-0.059s-0.132,0-0.176,0c-0.044,0-0.205,0-0.205,0   s0.044-0.132,0.088-0.264s0.073-0.103,0.161-0.249s0.161-0.191,0.22-0.278c0.059-0.088,0,0,0.088-0.176   c0.088-0.176,0.103-0.117,0.132-0.191c0.029-0.073,0.191-0.176,0.249-0.264c0.059-0.088,0.132-0.103,0.176-0.176   s0.073-0.147,0.088-0.191c0.015-0.044,0.088-0.132,0.117-0.234c0.029-0.103,0.073-0.132,0.147-0.249   c0.073-0.117,0.117-0.205,0.155-0.293c0.037-0.088,0.007-0.293,0.007-0.293s0.015-0.073,0-0.176c-0.015-0.103,0-0.132,0-0.132   s0-0.132,0-0.176c0-0.044,0-0.169,0-0.169l0.105-0.02l0.223-0.111l0.086-0.032c0,0,0.083-0.028,0.092-0.032   c0.009-0.004,0.085-0.036,0.094-0.04s0.074-0.015,0.074-0.032s0.065-0.028,0.074-0.032s0.022-0.009,0.022-0.009l0.035-0.038   l0.033-0.02l0.039-0.007l0.044,0.009l0.041,0.022l0.025,0.018c0.013,0.019,0.056,0.034,0.069,0.038   c0.013,0.004,0.075,0.024,0.085,0.028c0.011,0.003,0.002,0.001,0.034,0.011s0.047,0.014,0.077,0.023   c0.03,0.009,0.076,0.002,0.076,0.002s0.245,0.055,0.253,0.055s0.039-0.012,0.039-0.012l0.097-0.017l0.025-0.016   c0,0,0.02-0.016,0.029-0.027c0.009-0.01,0.017-0.02,0.025-0.033c0.008-0.014,0.018-0.046,0.018-0.046v-0.032l-0.01-0.047   c0,0-0.005-0.016-0.009-0.031c-0.004-0.015-0.008-0.031-0.008-0.031l-0.003-0.022l-0.001-0.018c0,0,0.001-0.016,0.005-0.025   c0.004-0.008,0.016-0.025,0.016-0.025s-0.012-0.025,0.01-0.033c0.022-0.008,0.046-0.057,0.05-0.067s0.006-0.014,0.012-0.027   c0.006-0.013,0.023-0.047,0.029-0.055c0.006-0.009,0.023-0.031,0.03-0.038c0.007-0.007-0.003,0.002,0.023-0.021   c0.026-0.023,0.033-0.03,0.042-0.04c0.009-0.01,0.011-0.011,0.027-0.034c0.016-0.023,0.027-0.038,0.034-0.051   c0.008-0.013,0.019-0.033,0.024-0.042c0.005-0.009,0.02-0.039,0.02-0.039l0.058,0.031c0.031,0.02,0.075,0.04,0.075,0.04   l0.027,0.004l0.023,0.005l0.151-0.016l0.054-0.006l0.132-0.031c0,0,0.087-0.061,0.091-0.066s0.024-0.039,0.031-0.059   c0.007-0.019,0.025-0.09,0.025-0.09l0.069-0.005c0,0,0.041-0.044,0.046-0.056c0.004-0.012,0.013-0.045,0.013-0.045l0.004-0.025   c0,0,0.015-0.121,0.016-0.13s0.006-0.047,0.006-0.047s0.023-0.054,0.027-0.066c0.005-0.012,0.082-0.198,0.082-0.198l0.162-0.034   l0.321-0.029c0,0,0.067-0.003,0.111-0.003c0.044,0,0.106,0.002,0.137,0.003c0.031,0.001,0.28,0.019,0.28,0.019l0.122-0.19   l0.076-0.14l0.099-0.188l0.103-0.188l0.057-0.174l-0.012-0.273l-0.022-0.051l-0.037-0.064c0,0-0.016-0.044,0.029-0.07   c0.045-0.026,0.107-0.052,0.107-0.052l0.072-0.03l0.021-0.009v-0.044v-0.077v-0.055l0.125-0.119l0.132-0.116l0.074-0.083   c0,0,0.025-0.035,0.038-0.053s0.049-0.069,0.049-0.069s0.099,0,0.11,0c0.011,0,0.044,0,0.044,0v-0.154c0,0,0.079,0.017,0.115,0   c0.036-0.018,0.094-0.084,0.094-0.084h0.037l0.009-0.049c0,0,0.019-0.132,0.02-0.142s-0.004-0.099-0.004-0.099   s-0.009-0.046-0.012-0.061c-0.003-0.015-0.025-0.041-0.025-0.052c0-0.011,0.018-0.039,0.018-0.039l0.011-0.045   c0,0,0.008-0.022,0.012-0.041c0.004-0.019-0.009-0.047,0-0.062c0.009-0.015,0.009-0.015,0.009-0.015v-0.084   c0,0-0.008,0-0.009-0.019s-0.001-0.021,0-0.044c0.001-0.022,0.002-0.04,0.004-0.062c0.001-0.022,0.003-0.048,0.003-0.048   s0.001-0.029,0.002-0.044c0-0.015,0.001-0.033,0.001-0.051c0-0.018,0.001-0.081,0.001-0.081l0.002-0.03l0.007-0.047l0.01-0.107   c0,0-0.006-0.089-0.007-0.094c-0.001-0.006-0.007-0.045-0.01-0.059c-0.003-0.014-0.013-0.077-0.013-0.077l-0.004-0.047   c0,0-0.001-0.025,0-0.036s0.016-0.069,0.016-0.069l0.005-0.014l0.01-0.043l0.003-0.027l-0.002-0.053l-0.007-0.031   c0,0-0.012-0.032-0.013-0.035s-0.007-0.017-0.007-0.017l-0.007-0.021l-0.002-0.019c0,0,0.006-0.021,0.011-0.027   s0.028-0.026,0.028-0.026s0.001,0,0.032-0.024c0.032-0.024,0.036-0.027,0.049-0.037c0.013-0.009,0.047-0.035,0.047-0.035   s0.036-0.027,0.047-0.036c0.012-0.009,0.05-0.038,0.063-0.048c0.013-0.01,0.048-0.037,0.048-0.037l0.091-0.07l-0.131-0.244   l-0.013-0.024h0.028c0,0,0.034,0.001,0.04,0c0.006-0.001,0.036-0.006,0.042-0.008s0.034-0.01,0.034-0.01s0.044-0.015,0.05-0.017   c0.006-0.002-0.001,0,0.017-0.006s0.018-0.007,0.03-0.011c0.012-0.005,0.023-0.009,0.035-0.015   c0.013-0.006,0.059-0.029,0.059-0.029s0.029-0.017,0.039-0.024c0.011-0.007,0.079-0.046,0.079-0.046l0.015-0.011l0.013-0.013   c0,0,0.075-0.109,0.087-0.18c0.012-0.071,0.017-0.105,0.017-0.105s-0.004-0.013,0-0.019c0.004-0.005,0.008-0.026,0.011-0.037   s0.005-0.018,0.009-0.026c0.004-0.008,0.013-0.025,0.018-0.031c0.005-0.005,0.012-0.014,0.024-0.024   c0.013-0.01,0.023-0.02,0.032-0.029c0.009-0.009,0.03-0.032,0.036-0.038s0.196-0.262,0.196-0.262l-0.286-0.352l0.016-0.252   l0.003-0.041l0.001-0.023l0.002-0.036c0,0,0.003-0.013,0.005-0.021s0.006-0.051,0.006-0.051s-0.001-0.025-0.001-0.031   c-0.001-0.006-0.002-0.015-0.004-0.021c-0.002-0.006-0.006-0.017-0.006-0.017l-0.011-0.016c0,0-0.041-0.023-0.145-0.045   s-0.126-0.026-0.126-0.026s-0.002,0-0.011-0.002s-0.026-0.005-0.032-0.006c-0.006-0.001-0.027-0.005-0.027-0.005   s0.007,0.003-0.027-0.014s-0.033-0.016-0.056-0.028c-0.024-0.012,0.005-0.025-0.021-0.024s-0.055-0.014-0.055-0.014l-0.038-0.03   l-0.043-0.043l-0.102-0.102l-0.022-0.03c0,0-0.015-0.023-0.019-0.031c-0.005-0.008-0.028-0.044-0.028-0.044l-0.015-0.024   l-0.02-0.031l-0.041-0.063l-0.017-0.026l-0.015-0.021l-0.009-0.012l-0.034-0.041l-0.029-0.027l-0.027-0.022   c0,0-0.004-0.003-0.009-0.007s-0.019-0.014-0.031-0.023s-0.027-0.021-0.032-0.025s-0.015-0.013-0.015-0.013   s-0.012-0.012-0.015-0.017c-0.003-0.005-0.01-0.017-0.013-0.024c-0.003-0.007,0.001,0.004-0.007-0.018   c-0.007-0.022-0.014-0.041-0.014-0.041s-0.004-0.012-0.006-0.018c-0.002-0.006-0.022-0.051-0.022-0.051l-0.023-0.038   c0,0-0.024-0.03-0.029-0.035c-0.005-0.005-0.023-0.026-0.023-0.026l-0.037-0.058c0,0-0.009-0.03-0.012-0.036   c-0.003-0.006-0.015-0.03-0.02-0.036c-0.005-0.007-0.017-0.022-0.025-0.029c-0.007-0.007-0.036-0.032-0.036-0.032   s-0.028-0.022-0.041-0.03c-0.012-0.008-0.111-0.072-0.111-0.072l-0.025-0.016c0,0-0.01-0.023-0.037-0.023   c-0.027-0.001-0.08-0.05-0.08-0.05l-0.03-0.018c0,0-0.176-0.116-0.18-0.119s-0.013-0.011-0.019-0.016s-0.052-0.044-0.052-0.044   s-0.024-0.02-0.029-0.024c-0.005-0.004-0.097-0.082-0.107-0.09c-0.009-0.008-0.199-0.13-0.199-0.13l-0.129-0.11l-0.018-0.034   l-0.023-0.044l-0.021-0.029l-0.092-0.111l-0.099-0.109l-0.093-0.099l-0.088-0.091l-0.059-0.065l-0.044-0.065l-0.027-0.044   l-0.022-0.04l-0.017-0.041l-0.007-0.033l0.035-0.158l0.019-0.065l0.034-0.107l-0.044-0.132h-0.267h-1.272l-0.042-0.026   l-0.089-0.018l-0.063-0.03c0,0-0.026-0.03-0.041-0.022c-0.016,0.008-0.053-0.017-0.059-0.02s-0.045-0.019-0.053-0.022   s-0.018-0.006-0.047-0.016s-0.029-0.01-0.055-0.018s-0.04-0.013-0.04-0.013s-0.007-0.002-0.016-0.005   c-0.008-0.003-0.033-0.015-0.033-0.015l-0.295-0.19l-0.066-0.132c0,0-0.22-0.12-0.242-0.14s-0.044-0.058-0.044-0.058l0.022-0.264   l1.407-0.088l0.154-0.264h0.594l0.352-0.22c0,0,0.128-0.014,0.24-0.161c0.112-0.147,0.112-0.147,0.112-0.147l0.396-0.022   l0.022,0.176l0.057,0.034l0.16,0.01l0.313-0.019l0.145,0.006l0.182,0.013l0.33-0.044h0.769l0.083-0.028l0,0l0.08-0.091   c0.202,0.01,0.107,0.037,0.205-0.024c0.163-0.101,0.132,0.092,0.137,0.104c0.044,0.104,0.257,0.072,0.22,0.119l0.175-0.018   l0.13,0.062l0.178,0.447c0,0,0.061,0.127,0.139,0.216c0.078,0.09,0.255,0.248,0.255,0.248l0.337,0.237l0.004-0.019l0.01-0.021   l0.048-0.012l0.078,0.001l0.119,0.014l0.398,0.063l0.218,0.041c0,0,0.147-0.086,0.214-0.061c0.067,0.025,0.132,0.072,0.137,0.14   c0.005,0.067,0.009,0.1,0.009,0.1s0.087,0.056,0.182,0.081c0.095,0.026,0.372,0.088,0.41,0.098c0.038,0.01,0.231,0.086,0.231,0.086   l0.15,0.053l0.68,0.246l0.163,0.048l0.594,0.33c0,0,0.27,0.346,0.302,0.354s0.183,0.043,0.241,0.098   c0.058,0.055,0.231,0.182,0.231,0.182s0.175,0.101,0.2,0.122c0.025,0.021,0.121,0.096,0.126,0.099s0.051,0.041,0.154,0.077   s0.252,0.086,0.252,0.086s0.088,0.054,0.249,0.057c0.161,0.003,0.233,0,0.389,0.107c0.156,0.107,0.254,0.18,0.279,0.19   c0.025,0.011,0.303,0.137,0.303,0.137l0.225,0.081c0,0,0.018-0.037,0.213,0.064c0.195,0.102,0.339,0.175,0.342,0.176   c0.004,0.001,0.096,0.029,0.096,0.029l0.128,0.009h0.113c0,0,0.105,0.014,0.111,0.015c0.006,0.001,0.127,0.031,0.127,0.031   l0.109,0.05l0.031,0.02l0.035-0.007l0.035,0.028c0,0,0.084,0.133,0.139,0.211s0.133,0.193,0.133,0.193l0.05,0.072   c0,0,0.127,0.124,0.229,0.187c0.102,0.064,0.176,0.046,0.316,0.183c0.14,0.137,0.281,0.292,0.281,0.292s0.095,0.054,0.187,0.076   c0.092,0.021,0.181,0.043,0.181,0.043l0.04,0.011l0.045,0.016l0.028,0.017l0.006,0.011c0,0-0.003,0.011-0.009,0.016   c-0.006,0.005-0.01,0.008-0.016,0.013c-0.006,0.004-0.003,0.002-0.017,0.011c-0.014,0.009-0.026,0.019-0.026,0.019l-0.02,0.025   c0,0-0.005,0.003-0.003,0.014s-0.003,0.009,0.004,0.02s0.017,0.023,0.022,0.027c0.005,0.004,0.028,0.023,0.046,0.034   c0.018,0.011,0.026,0.016,0.034,0.02c0.007,0.004,0.036,0.019,0.036,0.019s-0.006-0.002,0.02,0.01   c0.026,0.013,0.045,0.022,0.051,0.024s0.003,0.004,0.036,0.014c0.032,0.011,0.036,0.012,0.043,0.014s0.068,0.007,0.093,0.041   c0.025,0.035,0.011,0.046,0.011,0.046l0.047,0.01l0.125,0.004c0,0,0.042-0.004,0.052-0.005c0.01-0.002,0.048-0.021,0.061-0.012   s0.065-0.024,0.065-0.024s-0.075,0.198-0.079,0.204c-0.004,0.006-0.048,0.033-0.048,0.033l-0.039,0.081   c0,0-0.033,0.039-0.037,0.046c-0.004,0.006-0.137,0.219-0.137,0.219s-0.068,0.078-0.056,0.132c0.012,0.054-0.077,0.121-0.077,0.121   l-0.088,0.066l-0.077,0.099l-0.098,0.12c0,0-0.01,0.021-0.066,0.11c-0.056,0.088-0.131,0.142-0.143,0.187s-0.044,0.077-0.11,0.165   c-0.066,0.088-0.066,0.088-0.066,0.088s-0.054,0.109,0.066,0.132s0.087-0.142,0.12,0.022c0.033,0.165-0.022,0.077,0.033,0.165   c0.055,0.088,0.055,0.088,0.055,0.088l0.176,0.055c0.077,0,0.221,0.032,0.221,0.032c0.077-0.011,0.231,0,0.231,0   s0.022,0.033,0.055,0.033c0.033,0-0.044-0.044,0.033,0c0.077,0.044,0.075,0.077,0.131,0.099c0.056,0.022,0.122,0.066,0.122,0.066   l0.175,0.088c0,0,0.197,0.055,0.165,0s0.078-0.055,0.078-0.055s0.097,0.012,0.164,0c0.067-0.011,0.089-0.088,0.089-0.088h0.176   l0.116-0.021c0,0,0.049-0.011,0.082-0.044c0.033-0.033,0.052-0.052,0.099-0.121c0.047-0.069-0.066-0.121,0-0.132   c0.066-0.011,0.237-0.102,0.237-0.102l0.015-0.048l0.095-0.026c0,0,0.027,0.098,0.06,0.109s0.006-0.032,0.09,0.022   c0.084,0.055,0.14,0.043,0.162,0.076c0.022,0.033,0.005,0.096,0.058,0.147c0.052,0.051,0.106,0.099,0.106,0.099l0.07,0.132   l0.132,0.088c0,0,0.094-0.051,0.095,0c0.001,0.051,0.073,0.154,0.073,0.154s0.071,0.018,0.115,0.007   c0.044-0.011,0.12-0.007,0.12-0.007v0.084l0.067,0.231c0.077,0.154,0.066,0.088,0.077,0.154s0,0.077,0.011,0.154   c0.011,0.077,0.044,0.209,0.044,0.209l-0.038,0.048c0,0,0.126,0.051,0.192,0.106s0.165,0.066,0.165,0.066l0.055-0.011   c0,0,0.033-0.044,0.055,0c0.022,0.044-0.033-0.022,0.022,0.044c0.055,0.066,0.083,0.147,0.083,0.147l0.082-0.004   c0.077,0.077,0.074,0.128,0.121,0.154s0.122,0.144,0.176,0.231c0.054,0.087,0.056,0.165,0.105,0.198s0.031-0.06,0.126,0.153   s0.094,0.213,0.094,0.213s0.031,0.014,0.071,0.062s0.154,0.044,0.154,0.044c0.047,0.151,0.038,0.016,0.047,0.151   c0.008,0.135,0.025,0.191,0,0.256c-0.025,0.065-0.147,0.198-0.147,0.198s-0.005-0.045,0.001,0.098   c0.006,0.143,0.011,0.319,0.011,0.319s0.142,0.118,0.025,0.118c-0.117,0-0.034-0.014-0.117,0c-0.083,0.014-0.162,0.041-0.205-0.022   c-0.043-0.063-0.131-0.074-0.164-0.118c-0.033-0.044-0.154-0.088-0.165-0.121s0.011,0.033-0.011-0.033   c-0.022-0.066-0.034-0.124-0.034-0.124l0.066-0.095c0,0,0.133,0.01,0.001-0.066s-0.198-0.132-0.198-0.132l-0.099-0.044   l-0.115-0.131c0,0,0.049-0.022-0.094,0c-0.143,0.022-0.143,0.022-0.143,0.022l-0.107,0.052l0.008,0.311c0,0,0.143,0.011,0.033,0.11   c-0.11,0.099-0.044,0.099-0.11,0.099s0.063-0.022-0.132-0.011c-0.195,0.012-0.187,0.033-0.198-0.033s0-0.143-0.055-0.198   c-0.055-0.055-0.176-0.099-0.187-0.132c-0.011-0.033-0.145-0.069-0.188-0.117c-0.043-0.048,0.045,0.018-0.043-0.048   c-0.088-0.066-0.044,0.011-0.088-0.066c-0.044-0.077,0.006-0.128,0.006-0.128l0.088-0.11l0.022-0.11c0,0-0.017-0.026-0.017-0.092   s0.034-0.099-0.011-0.165c-0.045-0.065-0.187-0.165-0.187-0.165l-0.165-0.099l-0.03,0.052l-0.058,0.025l-0.022,0.088   c0,0-0.077,0.033-0.088,0c-0.011-0.033-0.087-0.173-0.154-0.187c-0.067-0.014-0.024,0.016-0.155-0.014   c-0.131-0.03-0.242-0.029-0.242-0.029c-0.11,0.117-0.111,0.048-0.11,0.117c0.001,0.069-0.027,0.143-0.073,0.183   c-0.047,0.04-0.139,0.044-0.139,0.044s0.097,0.014-0.072,0.007c-0.17-0.007-0.253-0.066-0.253-0.066   c-0.044-0.066-0.085-0.146-0.085-0.146l-0.088-0.088c0,0,0.017-0.045-0.025,0.069s-0.127,0.216-0.11,0.275   c0.017,0.059,0.098-0.007,0.017,0.059c-0.081,0.066-0.127,0.051-0.127,0.051l-0.203-0.051l-0.081-0.051   c0,0-0.025-0.063-0.025-0.107s0-0.176,0-0.176l-0.041-0.135l-0.058-0.107c0,0-0.028-0.063-0.055-0.011   c-0.027,0.052-0.077,0.11-0.077,0.11s-0.011,0.044-0.011,0.077c0,0.033-0.012,0.048,0.01,0.085   c0.022,0.037-0.081,0.139-0.081,0.139l-0.095,0.029c0,0-0.021,0.033-0.032,0.065c-0.011,0.033,0.025,0.015-0.034,0.096   c-0.059,0.081-0.059,0.081-0.059,0.081l-0.094-0.011l-0.28-0.208c0,0,0.09,0.028-0.072-0.044c-0.162-0.073-0.162-0.073-0.162-0.073   s0.069-0.029,0,0c-0.069,0.029,0.096-0.026-0.069,0.029s-0.165,0.055-0.165,0.055s-0.082-0.025-0.096,0.048   c-0.015,0.073,0.061,0.019-0.015,0.073c-0.076,0.054,0.017-0.001-0.076,0.054c-0.093,0.055-0.075-0.065-0.093,0.055   c-0.017,0.12-0.023,0.118-0.037,0.191c-0.014,0.073-0.014,0.128-0.025,0.183c-0.011,0.055,0-0.033-0.011,0.055   c-0.011,0.088-0.045,0.151-0.045,0.151l-0.098,0.036c0,0,0.022-0.066-0.044,0.077s-0.066,0.143-0.066,0.143l0,0   c0,0-0.011,0-0.066,0.011c-0.055,0.011-0.122,0.026-0.122,0.026s-0.01,0.007-0.01,0.051c0,0.044,0.012-0.059,0,0.044   s-0.05,0.154-0.05,0.154l-0.124,0.103c0,0-0.036-0.015-0.069-0.015c-0.033,0-0.176-0.087-0.176-0.087h-0.077l-0.155-0.081   l-0.06,0.081l-0.092,0.076l-0.11,0.209c-0.045-0.014-0.121-0.022-0.121-0.022l-0.107,0.008l-0.036-0.052l-0.162,0.022   c0,0-0.036-0.044-0.069-0.033s-0.047,0.003-0.099,0.033c-0.052,0.03-0.06,0.125-0.06,0.125l-0.05,0.018l-0.143-0.055l-0.011-0.099   c0,0,0.016-0.08-0.052-0.04c-0.069,0.04-0.058-0.004-0.123,0.051s0.016-0.001-0.066,0.055c-0.082,0.055-0.082,0.055-0.082,0.055   s0.005,0.087-0.028,0.054c-0.033-0.033-0.148-0.091-0.148-0.091s0.097,0.006-0.039-0.052c-0.137-0.058-0.209-0.099-0.209-0.099   s-0.008-0.04-0.045,0.033c-0.037,0.073-0.021,0.208-0.021,0.208c-0.066,0.066,0.005,0.133-0.14,0.165s-0.145,0.032-0.145,0.032   l-0.044,0.11l-0.099-0.066l-0.022-0.055l-0.187-0.033c0,0,0.011-0.044-0.077-0.022c-0.088,0.022-0.2,0.045-0.254,0.055   c-0.054,0.01-0.054,0.01-0.054,0.01l-0.159,0.114c0,0-0.061-0.004-0.061,0.029c0,0.033-0.033,0.044-0.077-0.011   c-0.044-0.055-0.077-0.132-0.11-0.132s-0.176-0.033-0.176-0.033s-0.077,0-0.077,0.033c0,0.033,0-0.044,0,0.033s0.088-0.022,0,0.077   c-0.088,0.099-0.176,0.099-0.176,0.099s-0.077,0-0.121,0c-0.044,0-0.099-0.022-0.154,0c-0.055,0.022-0.05-0.074-0.055,0.022   s-0.005,0.096-0.005,0.096l0.005,0.091c0,0-0.017,0.003-0.077,0.066c-0.06,0.063,0.012,0.071-0.06,0.063   c-0.072-0.008-0.169-0.008-0.169-0.008c-0.057-0.011,0.009,0.011-0.057-0.011c-0.066-0.022-0.109-0.033-0.143-0.088   c-0.034-0.054-0.077-0.132-0.077-0.132l-0.154,0.022l-0.077,0.066c0,0-0.286,0.077-0.319,0.077s-0.206-0.021-0.206-0.021   s0.03-0.033-0.025-0.066c-0.055-0.033,0.044-0.066-0.055-0.033c-0.099,0.033-0.204,0.091-0.264,0.077   c-0.06-0.014-0.14-0.007-0.14-0.007c-0.091,0.095,0.031,0.05-0.091,0.095c-0.122,0.044-0.319,0.033-0.319,0.033   c-0.111,0.063-0.143,0.055-0.176,0.055s-0.154,0-0.154,0h-0.154l-0.077,0.066l0.099,0.099l-0.045,0.063l-0.032,0.08   c0,0,0.025-0.043-0.063,0.118c-0.088,0.161-0.088,0.161-0.088,0.161l0,0l-0.233,0.161l-0.265,0.11l-0.125,0.037l-0.227,0.103   c0,0-0.064,0.021-0.076,0.102s-0.121,0.088-0.165,0.132c-0.044,0.044-0.017,0.129-0.118,0.147   c-0.101,0.018-0.064-0.023-0.178,0.073s-0.088,0.121-0.143,0.154c-0.055,0.033-0.154,0.11-0.187,0.121   c-0.033,0.011-0.05-0.003-0.107,0.026c-0.058,0.029-0.161,0.088-0.161,0.088c-0.05,0.073-0.027,0.048-0.11,0.066   c-0.083,0.018-0.188-0.045-0.204,0.018c-0.016,0.063-0.286,0.022-0.319,0.022s-0.188,0.011-0.188,0.011l-0.051,0.147   c-0.103,0.088-0.205,0.117-0.205,0.117s-0.094,0.01-0.105,0.087c-0.011,0.077,0.041-0.022-0.011,0.077   c-0.052,0.099-0.011,0.11-0.077,0.165s-0.163,0.122-0.181,0.176c-0.017,0.054-0.374,0.11-0.374,0.11s0.003,0.136-0.051,0.161   s-0.098,0.08-0.098,0.08s0.186,0.059,0.017,0.081c-0.169,0.022-0.193-0.004-0.226-0.004s-0.176-0.022-0.176-0.022   s0.167-0.076,0.021,0.048c-0.147,0.125-0.147,0.125-0.147,0.125s0.027-0.019-0.061,0.036c-0.088,0.055-0.088,0.055-0.088,0.055   l-0.088,0.011c-0.044,0.077-0.099,0.088-0.099,0.132c0,0.044,0.022-0.088,0,0.044c-0.022,0.132-0.022,0.132-0.022,0.132   l-0.407,0.176c0,0-0.022-0.022-0.088,0.011c-0.066,0.033-0.098,0.018-0.154,0.055c-0.056,0.037-0.121,0.033-0.165,0.044   c-0.044,0.011-0.132,0.044-0.132,0.044s0.023,0.012-0.038,0.044c-0.061,0.033,0.06-0.044-0.061,0.033   c-0.121,0.077-0.203,0.085-0.203,0.085l-0.083,0.014c-0.093,0.14-0.093,0.14-0.093,0.14s0.038-0.03-0.061,0.003   c-0.099,0.033-0.209,0.055-0.209,0.055C-215.313,427.048-215.536,427.286-215.536,427.286z"> <title>Mariscal Ramón Castilla</title></path>
	<path id="1603" data-ng-click="$ctrl.openMap(2, '1603', true, $event)" fill="none" stroke="#020202" stroke-width="0.3" stroke-miterlimit="10" d="M-242.639,407.833c0,0,0.159-0.17,0.181-0.181   c0.022-0.011,0.132-0.126,0.132-0.126s0.071-0.088,0.121-0.11c0.049-0.022,0.148-0.071,0.181-0.099   c0.033-0.027,0.203-0.17,0.203-0.17s0.033-0.077,0.071-0.093c0.038-0.016,0.088-0.06,0.126-0.082   c0.038-0.022,0.143-0.126,0.17-0.137c0.027-0.011,0.06-0.06,0.126-0.11c0.066-0.049,0.121-0.11,0.121-0.11s0.159-0.077,0.181-0.088   c0.022-0.011,0.22-0.187,0.22-0.187s0.154-0.088,0.192-0.104s0.165-0.082,0.187-0.115c0.022-0.033,0.258-0.231,0.258-0.231   s0.247-0.115,0.269-0.143c0.022-0.027,0.132-0.132,0.132-0.132s0.099-0.115,0.115-0.132c0.016-0.017,0.27-0.217,0.297-0.242   s0.137-0.066,0.137-0.066s0.085-0.048,0.115-0.055c0.03-0.007,0.17-0.115,0.17-0.115s0.121-0.203,0.148-0.214   s0.159-0.115,0.159-0.115l0.014-0.148l0.019-0.094l0.379-0.258c0,0,0.027-0.092,0.063-0.109c0.036-0.017,0.135-0.11,0.135-0.11   s0.011-0.209,0-0.225c-0.011-0.016,0.06-0.126,0.06-0.126s0.113,0.019,0.12-0.029s0.062-0.125,0.062-0.125l0.066-0.038l0.102-0.049   l0.074,0.055h0.058h0.376l0.297-0.077l0.22,0.077h0.099l0.227,0.084l0.179,0.18l0.34,0.004c0,0,0.092-0.028,0.105-0.026   c0.013,0.002,0.16,0.076,0.16,0.076l0.064,0.035c0,0,0.008,0.03-0.007,0.071s-0.027,0.072,0.033,0.101   c0.06,0.029,0.195,0.08,0.195,0.08l0.233-0.007l0.09-0.002l0.04,0.009l0.019,0.004c0,0,0.031-0.022,0.05-0.019   s0.096,0.034,0.096,0.034l0.242,0.091c0,0,0.089,0.043,0.103,0.053c0.013,0.01,0.123,0.122,0.123,0.122l0.06,0.055   c0,0,0.115,0.034,0.131,0.041c0.015,0.007,0.049,0.022,0.063,0.035s0.147,0.144,0.147,0.144s0.1-0.009,0.129-0.003   c0.028,0.006,0.118,0.034,0.136,0.042c0.017,0.008,0.044,0.014,0.066,0.037c0.022,0.023,0.078,0.09,0.091,0.106   c0.012,0.016,0.047,0.06,0.055,0.076c0.008,0.016,0.018,0.031,0.018,0.031s0.019,0.017,0.028,0.024s0.036,0.025,0.047,0.04   c0.011,0.015,0.02,0.031,0.021,0.055s0.003,0.042,0.003,0.042l0.219,0.16l0.319,0.213c0,0,0.038,0.081,0.044,0.093   c0.006,0.011,0.038,0.068,0.046,0.08c0.008,0.012,0.02,0.031,0.027,0.031c0.007,0.001,0.004-0.013,0.004-0.013   s0.122,0.176,0.134,0.19c0.012,0.014,0.031,0.036,0.031,0.036s0.01,0.015,0.008,0.021c-0.002,0.006-0.007,0.015-0.013,0.018   c-0.006,0.003,0.023,0.014,0.023,0.014l0.12,0.005l0.077-0.006c0,0,0.048,0.005,0.067,0.009s0.074,0.019,0.074,0.019   s0.055,0.014,0.052,0.054c-0.003,0.041-0.034,0.152-0.034,0.152l0.066,0.209c0,0-0.022,0.173-0.022,0.198s0,0.118,0,0.118   s-0.001,0.059-0.003,0.079s-0.004,0.048-0.002,0.063c0.002,0.015,0.007,0.04,0.017,0.055s0.054,0.07,0.054,0.07l0.112,0.05   l0.095,0.043l0.136,0.07c0,0,0.047,0.061,0.05,0.065c0.002,0.004,0.039,0.074,0.044,0.09s0.015,0.056,0.015,0.056l0.029,0.124   l0.026,0.096v2.367c0,0,0.017,0.079,0.018,0.098s-0.001,0.057-0.006,0.073c-0.005,0.016-0.019,0.047-0.022,0.067   c-0.003,0.019,0,0.098,0.003,0.114c0.003,0.016,0.025,0.323,0.025,0.323l-0.146,0.205l-0.088,0.264v0.703l0.234,0.205v0.703   l0.264,0.293h0.042l0.023-0.025l0.345,0.23c0,0,0.191,0.195,0.208,0.215c0.017,0.019,0.096,0.121,0.096,0.121   s0.113,0.072,0.134,0.081c0.021,0.009,0.181,0.066,0.181,0.066l0.11,0.042l0.064,0.033l0.047,0.034l0.051,0.017l0.223,0.037   l0.132,0.203c0,0,0.09,0.115,0.11,0.131c0.02,0.017,0.055,0.046,0.07,0.062c0.015,0.016,0.138,0.211,0.138,0.211l0.107,0.214   l-0.068,0.003c0,0-0.065,0.017-0.025,0.068s0.183,0.189,0.183,0.189s0.096,0.119,0.104,0.133c0.008,0.014,0.032,0.065,0.039,0.09   s0.09,0.219,0.09,0.219s-0.087,0.058-0.071,0.099c0.016,0.041,0.035,0.093,0.178,0.149c0.143,0.056,0.421,0.163,0.421,0.163h0.176   c0,0,0.19,0.137,0.222,0.16c0.031,0.023,0.126,0.094,0.139,0.109c0.013,0.014,0.077,0.106,0.094,0.146   c0.018,0.04,0.04,0.1,0.04,0.1l0.502,0.394l0.549,0.173c0,0,0.177,0.185,0.206,0.222c0.03,0.036,0.212,0.279,0.212,0.279   l0.322,0.147c0,0,0.186,0.23,0.203,0.254s0.088,0.127,0.104,0.157c0.016,0.029,0.036,0.068,0.053,0.088   c0.017,0.021,0.097,0.102,0.108,0.112c0.011,0.01,0.062,0.058,0.075,0.072c0.013,0.014,0.06,0.076,0.081,0.097   s0.092,0.083,0.102,0.09c0.01,0.008,0.081,0.06,0.081,0.06l0.189,0.185c0,0-0.047,0.05-0.055,0.073   c-0.007,0.023-0.015,0.056-0.006,0.079c0.009,0.023,0.031,0.054,0.076,0.095c0.045,0.04,0.124,0.121,0.14,0.17   c0.015,0.05,0.021,0.052,0.021,0.187c0,0.135,0,0.802,0,0.802s-0.096-0.043-0.09,0s0.028,0.097,0.028,0.097l0.326,0.548v0.176   c0,0,0.293,0.153,0.326,0.172c0.033,0.019,0.348,0.209,0.348,0.209s0.026-0.054,0.036-0.062s0.031-0.024,0.048-0.013   s0.053,0.056,0.07,0.092c0.017,0.036,0.165,0.36,0.165,0.36l0.283,0.194c0,0-0.049,0.074-0.019,0.121   c0.03,0.047,0.418,0.381,0.418,0.381l0.018-0.055c0,0,0.027-0.008,0.05-0.007s0.137,0.02,0.215,0.047   c0.078,0.027,0.174,0.063,0.174,0.063s0.038,0.027,0.08,0.028s0.095-0.002,0.136-0.014c0.041-0.012,0.154-0.045,0.175-0.05   c0.022-0.005,0.225-0.03,0.225-0.03s0.099-0.112,0.126-0.133c0.027-0.021,0.093-0.065,0.093-0.065l0.208-0.082l0.297-0.094v-0.176   c0,0,0.065-0.038,0.098-0.042c0.033-0.004,0.069-0.01,0.106,0.027c0.037,0.037,0.141,0.141,0.141,0.141l0.033-0.024   c0,0,0.001-0.044,0.02-0.062c0.019-0.018,0.123-0.098,0.17-0.141c0.048-0.043,0.178-0.162,0.178-0.162l0.11-0.154l0.11-0.22   l0.145-0.021c0,0,0.03,0.003,0.045,0.053c0.015,0.05,0.027,0.067,0,0.11c-0.027,0.043-0.08,0.121-0.08,0.121l-0.022,0.11   l0.117,0.153c0,0-0.047,0.022-0.035,0.058c0.012,0.036,0.036,0.069,0.046,0.092s0.026,0.078,0.025,0.116   c-0.001,0.037-0.008,0.121-0.022,0.169c-0.014,0.049-0.014,0.049-0.014,0.049l0.037,0.06l-0.097,0.053c0,0-0.037,0.035-0.067,0.075   c-0.03,0.04-0.086,0.108-0.105,0.121c-0.019,0.013-0.066,0.044-0.066,0.044v0.077l-0.123,0.088c0,0-0.023,0.055-0.047,0.115   c-0.024,0.061-0.03,0.094-0.035,0.108s-0.079,0.173-0.079,0.173s-0.01,0.022-0.012,0.029c-0.002,0.007,0.001,0.015,0.001,0.015   l-0.063,0.086c0,0-0.04,0.009-0.051,0.022c-0.011,0.013-0.024,0.051-0.024,0.051s-0.063,0.066-0.079,0.08s-0.07,0.062-0.07,0.062   l-0.031,0.033l-0.042,0.056c0,0-0.028,0.018-0.043,0.016c-0.016-0.002-0.023-0.005-0.023-0.005l-0.077,0.082l-0.016,0.017   l-0.041,0.025l-0.056,0.035l-0.026,0.021l-0.114,0.095l-0.054,0.048l-0.022,0.023l-0.022,0.034c0,0,0.014,0.07,0.017,0.081   c0.003,0.011,0.01,0.034,0.01,0.034s0,0.016,0.017,0.042c0.017,0.026,0.038,0.061,0.038,0.061s0.007,0.018-0.009,0.045   s-0.047,0.064-0.047,0.064l-0.036,0.035l-0.04,0.018l-0.055,0.019l-0.064,0.029l-0.051,0.023l-0.043,0.019l-0.04,0.018   l-0.081,0.021l-0.153,0.016c0,0-0.054,0.013-0.088,0.029s-0.09,0.052-0.11,0.067c-0.021,0.015-0.112,0.081-0.112,0.081   l-0.077,0.154c0,0-0.018,0.021-0.075,0.065c-0.056,0.043-0.079,0.062-0.079,0.062s-0.072,0.13-0.08,0.143   c-0.007,0.013-0.071,0.111-0.071,0.111s-0.02,0.051-0.022,0.063s-0.015,0.057-0.031,0.083c-0.016,0.026-0.164,0.222-0.164,0.222   s-0.03-0.008-0.049,0c-0.02,0.008-0.043,0.024-0.043,0.024s-0.123-0.005-0.183,0.003s-0.14,0.016-0.183,0.044   c-0.043,0.028-0.062,0.035-0.086,0.093c-0.023,0.058-0.077,0.184-0.077,0.184l-0.12,0.256l-0.308-0.011l-0.374-0.165l-0.373,0.204   l-0.01-0.01c0,0,0.016-0.038-0.016-0.023c-0.033,0.015-0.185,0.174-0.185,0.174l-0.283,0.293l-0.106,0.104l-0.104,0.236   c0,0-0.087,0.073-0.105,0.095s-0.052,0.069-0.053,0.094c-0.001,0.026-0.001,0.102-0.001,0.102l-0.401,0.159l-0.23-0.005   l-0.121-0.011l-0.341,0.022l-0.176,0.121c0,0,0.003,0.02,0.001,0.033s-0.023,0.092-0.088,0.154   c-0.065,0.062-0.165,0.144-0.194,0.162c-0.029,0.018-0.066,0.037-0.066,0.037l-0.269,0.027c0,0-0.046-0.033-0.079-0.025   c-0.033,0.007-0.072,0.011-0.129,0.086s-0.115,0.148-0.115,0.148l-0.28,0.187l-0.336,0.117l-0.06,0.031l-0.217,0.242l-0.409,0.439   l-0.113,0.036c0,0-0.022-0.008-0.065,0.011c-0.043,0.019-0.141,0.069-0.141,0.069s-0.022,0.035-0.035,0.04   c-0.013,0.005-0.055,0.004-0.055,0.004s-0.047,0.017-0.08,0.04c-0.033,0.023-0.136,0.109-0.136,0.109l-0.108,0.053l-0.15,0.095   l-0.049,0.099l-0.311,0.044c0,0-0.203,0.088-0.224,0.097c-0.02,0.009-0.119,0.04-0.172,0.052c-0.053,0.011-0.099,0.021-0.167,0.045   c-0.067,0.024-0.089,0.031-0.105,0.037c-0.016,0.006-0.039,0.009-0.039,0.009l-0.197,0.057h-0.137l-0.055-0.099l-0.322-0.051   l-0.118,0.045c0,0-0.004,0.027-0.014,0.042c-0.009,0.015-0.024,0.027-0.024,0.027l-0.265,0.08l-0.115,0.066   c0,0-0.091,0.124-0.098,0.137c-0.008,0.013-0.05,0.108-0.053,0.117s-0.017,0.033-0.017,0.033l-0.083,0.127l-0.023,0.034   l-0.114,0.133l-0.099,0.061l-0.084,0.05c0,0-0.074,0.044-0.097,0.058c-0.024,0.014-0.083,0.044-0.083,0.044   s-0.107,0.039-0.148,0.047c-0.041,0.008-0.148,0.02-0.162,0.021c-0.014,0.001-0.127,0.008-0.136,0.009   c-0.009,0-0.105,0.007-0.125,0.008s-0.082,0.008-0.1,0.009c-0.017,0.002-0.055,0.007-0.072,0.009s-0.052-0.016-0.052-0.016   l-0.143,0.111l-0.098,0.064l-0.341,0.032l-0.045,0.123l-0.02,0.057l-0.023,0.099c0,0-0.003,0.066-0.025,0.095   c-0.022,0.029-0.034,0.049-0.063,0.057c-0.03,0.008-0.096,0.01-0.113,0.014c-0.017,0.004-0.069,0.018-0.095,0.04   c-0.027,0.022-0.046,0.047-0.09,0.11c-0.043,0.063-0.119,0.197-0.123,0.203c-0.003,0.006-0.019,0.038-0.019,0.038l-0.161,0.132   v-0.667l0.147-0.469l0.081-0.074l-0.037-0.249l-0.163,0.031l-0.124-0.023l-0.241,0.006l-0.073-0.161l-0.308-0.088l-0.092-0.142   l-0.227-0.109c0,0-0.064-0.008-0.048-0.083s0.025-0.109,0.041-0.15s0.111-0.274,0.111-0.274s0.134-0.347,0.171-0.426   s0.036-0.078,0.036-0.078l0.004-0.045l-0.026-0.005l-0.013,0.007l-0.05-0.264l-0.139-0.199l-0.045,0.024   c0,0-0.033-0.284-0.037-0.325s-0.02-0.133-0.035-0.19c-0.016-0.057-0.009-0.151-0.003-0.196c0.006-0.045,0.012-0.079,0.012-0.079   l0.143-0.171l0.143-0.122l0.276-0.163l0.083-0.144l0.074-0.19l0.063-0.101l0.146-0.063c0,0,0.089-0.117,0.13-0.143   c0.04-0.026,0.098-0.055,0.098-0.055l0.051,0.022c0,0,0.298-0.02,0.357-0.023c0.058-0.003,0.242-0.017,0.242-0.017l0.056-0.022   l0.019-0.042h0.103v-0.132l-0.194-0.161l-0.113-0.104l-0.024-0.022l-0.119-0.034l-0.093-0.001l-0.173-0.069l-0.114-0.055   l-0.079-0.051l-0.246-0.252l-0.283,0.028c0,0-0.155,0.016-0.163,0.016c-0.008,0-0.12,0.003-0.183-0.004s-0.109-0.012-0.277-0.052   c-0.168-0.04-0.206-0.042-0.212-0.042c-0.006,0-0.019,0.017-0.019,0.017l-0.006,0.023c0,0-0.082,0.008-0.106,0.008   c-0.023,0-0.264-0.005-0.264-0.005s-0.061-0.202-0.067-0.221c-0.006-0.018-0.095-0.303-0.095-0.303s-0.066-0.076-0.076-0.092   c-0.01-0.016-0.079-0.128-0.079-0.128l-0.066-0.133l-0.11-0.308l-0.053-0.177l-0.056-0.163l-0.158-0.28l-0.061-0.028l-0.037-0.044   l0.037-0.117l-0.223-0.117c0,0-0.087-0.225-0.112-0.334c-0.026-0.109-0.087-0.413-0.087-0.413l-0.051-0.155l-0.028-0.083   c0,0-0.015-0.067-0.01-0.102c0.005-0.035,0.028-0.188,0.028-0.188l-0.048-0.022l-0.055,0.022l-0.123-0.102l-0.207-0.235   l-0.085-0.062l-0.065-0.084l-0.045-0.058l-0.02-0.026c0,0-0.056-0.095-0.062-0.11c-0.006-0.015-0.023-0.055-0.023-0.055   l-0.026-0.19l-0.003-0.118c0,0-0.056-0.176-0.061-0.195c-0.005-0.019-0.029-0.106-0.035-0.148   c-0.006-0.042-0.052-0.304-0.052-0.304l-0.057-0.085l-0.175-0.408l-0.098-0.239l-0.072-0.114l-0.158-0.058l-0.376-0.353   c0,0-0.063-0.12-0.071-0.144c-0.008-0.024-0.053-0.155-0.06-0.17c-0.006-0.016-0.046-0.096-0.054-0.11   c-0.008-0.014-0.055-0.092-0.068-0.102s-0.07-0.06-0.07-0.06l-0.016-0.064c0,0,0.015-0.211,0.014-0.24s-0.012-0.157-0.017-0.19   c-0.004-0.033-0.027-0.158-0.032-0.184c-0.005-0.026-0.027-0.132-0.027-0.132s-0.074-0.012-0.09-0.014   c-0.016-0.003-0.027-0.005-0.039-0.009s-0.041-0.016-0.041-0.016l0.019-0.088l-0.014-0.125l0.007-0.125l-0.099-0.059l-0.105-0.742   l-0.085-0.24c0,0,0.024-0.1,0.02-0.145c-0.004-0.046-0.005-0.162-0.005-0.162s0.106-0.18,0.147-0.242   c0.041-0.062,0.041-0.062,0.041-0.062l0.085-0.221c0,0-0.024-0.12-0.024-0.202s0-0.206-0.003-0.25   c-0.004-0.044-0.009-0.122-0.011-0.129c-0.002-0.008-0.017-0.063-0.022-0.079c-0.004-0.016-0.037-0.134-0.037-0.134   s-0.071-0.132-0.075-0.139c-0.004-0.007-0.011-0.02-0.011-0.02s-0.036-0.214-0.038-0.225c-0.002-0.011-0.029-0.173-0.031-0.181   s-0.033-0.191-0.033-0.191l-0.136-0.036l0.057-0.239l-0.057-0.201c0,0-0.145-0.158-0.152-0.167   c-0.007-0.009-0.067-0.077-0.071-0.17s-0.001-0.267-0.001-0.267l0.002-0.291c0,0-0.006-0.015-0.032-0.022   c-0.026-0.006-0.1-0.125-0.1-0.125l-0.1-0.161l-0.119-0.292l0.232-0.638l-0.053,0.001l0.028-0.169l0.039-0.201   c0,0,0.014-0.121,0.015-0.142c0.001-0.021,0.003-0.159,0.003-0.159l-0.011-0.061h-0.053c0,0-0.052-0.094-0.056-0.141   c-0.004-0.048-0.002-0.162,0.001-0.19s0.031-0.147,0.031-0.147h0.396l-0.264-0.44l-0.209-0.249l-0.103-0.196l-0.127-0.211   l-0.176-0.267l-0.193-0.116l-0.172-0.103l-0.055-0.033l-0.019-0.011l-0.22-0.22v-0.615l-0.496-0.022L-242.639,407.833z"> <title>Loreto</title></path>
</g>
</svg>
