<?xml version="1.0" encoding="utf-8"?>
<svg xmlns="http://www.w3.org/2000/svg" xmlns:xlink="http://www.w3.org/1999/xlink" version="1.1" id="17" x="0px" y="0px" viewBox="0 0 74 71" enable-background="new 0 0 74 71" xml:space="preserve">
	<title>Madre de Dios</title>
<g>
	<path id="1701" data-ng-click="$ctrl.openMap(2, '1701', true, $event)" fill="none" stroke="#020202" stroke-width="0.3" stroke-miterlimit="10" d="M66.375,60.644l-12.63,6.234l-13.956-4.031   v-0.681l0.287-0.394l0.107-0.394l0.179-0.215v-0.251c0,0,0-0.179,0-0.269s0-0.305,0-0.305v-0.502c0,0,0.251-0.143,0.251-0.251   c0-0.107,0-0.466,0-0.466v-0.322l0.322-0.251l0.107-0.322c0,0,0.322,0.179,0.502,0c0.179-0.179,0.251-0.358,0.358-0.43   c0.107-0.072,0.537-0.287,0.537-0.287l0.107-0.251c0,0,0,0.036,0-0.251c0-0.287,0-0.287,0-0.287s0.107-0.322,0.287-0.466   c0.179-0.143,0.394-0.358,0.394-0.358s-0.072-0.107,0.072-0.287c0.143-0.179,0.143-0.179,0.143-0.179l0.86-0.358l0.322-0.215   l0.573-0.143l0.322-0.43v-1.577c0,0,0,0.036-0.143-0.215c-0.143-0.251-0.215-0.43-0.215-0.43l-0.215-0.215l-0.358-0.143   c0,0-0.322-0.107-0.43-0.179c-0.107-0.072-0.717-0.322-0.824-0.358s-0.107-0.036-0.107-0.036l-0.86-0.394c0,0-0.036-0.036,0-0.179   c0.036-0.143,0.036-0.358,0.036-0.502s0-0.322,0-0.502s0.107-0.394,0-0.466s-0.609-0.681-0.609-0.681l-0.143-0.609l-0.967-1.147   l-0.896-1.147c-0.287-0.179,0.107-0.107-0.287-0.179c-0.394-0.072-0.609,0-0.609,0s0.394-0.107-0.322-0.322   c-0.717-0.215-0.143-0.824-0.752-0.681C37.209,44.466,37,44.646,37,44.646l-0.758-0.537l-0.143-0.287l-0.251-0.322l-0.287-0.179   v-0.43c0,0-0.072,0.143-0.251,0c-0.179-0.143,0.215-0.072-0.609-0.215c-0.824-0.143-0.824-0.143-0.824-0.143s-0.322-0.287-0.502,0   s-0.358,0.394-0.358,0.394l-0.179-0.251l-0.502-0.466c0,0-0.143-0.251-0.251-0.251c-0.107,0-0.251-0.036-0.358,0   c-0.107,0.036-0.215,0.183-0.322-0.016c-0.107-0.199-0.681-0.486-0.681-0.486l-0.215-0.215h-0.215l-0.215,0.179l-0.43-0.179   l-0.251-0.179l-0.645-0.394c-0.251-0.072-0.466-0.251-0.466-0.251l-0.287-0.215v-0.179v-0.215v-0.179V39.45l-0.251-0.287   l-0.251-0.43c-0.251-0.215-0.251-0.215-0.251-0.215l-0.251-0.143c0,0,0.036,0.072-0.179,0c-0.215-0.072-0.717,0-0.717,0   c-0.573-0.072-0.752-0.032-0.752-0.032v-0.147c0,0-0.251-0.143-0.358-0.179c-0.107-0.036-0.645-0.287-0.645-0.287   s0.036-0.072,0-0.179c-0.036-0.107-0.215-0.215-0.215-0.215s-0.107-0.143-0.215-0.143c-0.107,0-0.502,0-0.502,0l-0.466-0.788   c-0.188-0.107-1.129-0.726-1.129-0.726s0.134-0.197,0-0.179c-0.134,0.018-0.511-0.116-0.511-0.116l-0.215-0.161l-0.215-0.215   l-0.215-0.242l-0.376-0.296c-0.188-0.107-0.457-0.269-0.457-0.269s-0.107-0.081-0.242-0.188c-0.134-0.107-0.376-0.242-0.376-0.242   s0.161-0.054,0-0.134c-0.161-0.081-0.403-0.296-0.403-0.296h-0.161h-0.215c0.027-0.242-0.054-0.296,0-0.403   c0.054-0.107-0.019-0.322-0.019-0.322s0.089-0.296,0-0.376c-0.089-0.081-0.357-0.269-0.357-0.269l-0.591-0.457   c0,0,0.215,0.027,0-0.134s-0.376-0.296-0.376-0.296s0.081,0.134-0.134,0c-0.215-0.134-0.43-0.269-0.43-0.269   s-0.215-0.134-0.43-0.134c-0.215,0-0.242,0-0.43,0c-0.188,0-0.511,0-0.511,0s0.054,0.134,0,0.215   c-0.054,0.081,0.081,0.054-0.054,0.081c-0.134,0.027-0.242,0.054-0.349,0.054s-0.403-0.054-0.403-0.054   c0-0.134-0.296-0.296-0.296-0.296h-0.269c0,0-0.054-0.054-0.296,0c-0.242,0.054-0.887,0.215-0.887,0.215s-0.134,0.107-0.161,0.188   c-0.027,0.081,0,0.242,0,0.242l-0.699-0.027l-3.144-0.027v-0.215l0.215-0.134l0.054-0.266v-0.164c0,0-0.054-0.215-0.269-0.161   s-0.376,0.215-0.564,0.161c-0.188-0.054-0.418-0.17-0.418-0.17H7.47c0,0,0.296,0.009,0,0.197c-0.296,0.188-0.296,0.242-0.322,0.322   c-0.027,0.081,0.107,0.027-0.027,0.081c-0.134,0.054-0.484-0.269-0.484-0.269l-0.349-0.215c-0.054-0.161,0-0.591,0-0.591   l0.511-0.296l0.269-0.188c0,0,0.027-0.107,0.081-0.188c0.054-0.081,0.054-0.081,0.054-0.081l0.09-0.609v-0.86l0.358-0.215   c0,0,0.063-0.09,0.143-0.224c0.081-0.134,0.107-0.322,0.161-0.43c0.054-0.107,0.197-0.278,0.197-0.278l0.282-0.29   c0,0,0.354-0.346,0.434-0.399c0.081-0.054,0.43,0.107,0.564,0c0.134-0.107,0.672-0.134,0.752-0.161   c0.081-0.027,0.081,0.027,0.242,0c0.161-0.027,0.134,0.027,0.537,0c0.403-0.027,0.081,0.081,0.645,0   c0.564-0.081,0.511,0.065,0.833-0.008c0.322-0.073,0.564,0.1,0.779,0c0.215-0.1,0.215-0.1,0.215-0.1s-0.215-0.296,0.564,0   c0.779,0.296,0.779,0.296,0.779,0.296s0.215,0.107,0.511,0.215c0.296,0.107,0.43,0.134,0.645,0.134   c0.215,0,0.403-0.054,0.699,0.027c0.296,0.081,2.015,0.081,2.015,0.081h1.156c0,0,0.484,0.269,0.591,0.322   c0.107,0.054,1.048,0.726,1.129,0.752c0.081,0.027,0.403,0.161,0.484,0.188c0.081,0.027,0.994,0.161,0.994,0.161   s-0.054-0.054,0.134,0c0.188,0.054,0.484,0.027,0.645,0.188c0.161,0.161,0.242,0.188,0.457,0.296   c0.215,0.107,0.376,0.081,0.484,0.161c0.107,0.081,1.236,0.269,1.236,0.269l0.86,0.027l0.43-0.054l1.075,0.564   c0,0-0.027-0.107,0.161,0.054c0.188,0.161,0.322,0.215,0.699,0.296c0.376,0.081,1.317,0.134,1.317,0.134h0.779   c0,0,0.107,0.027,0.107,0.242s-0.134-0.027,0,0.215c0.134,0.242,0.43,0.296,0.511,0.376c0.081,0.081,0.269,0.242,0.269,0.242   s0.296,0.188,0.457,0.349c0.161,0.161,0.322,0.215,0.457,0.43c0.134,0.215,0.269,0.322,0.349,0.376   c0.081,0.054,0.349,0.269,0.376,0.376c0.027,0.107,0.188,0.212,0.188,0.212h6.261l0.107,0.272c0,0,1.29-0.161,1.29,0.027   c0,0.188,0.054,0.591,0.081,0.672c0.027,0.081,0.376,0.188,0.43,0.349c0.054,0.161-0.161-0.242,0.054,0.161   c0.215,0.403,0.43,0.511,0.537,0.699c0.107,0.188-0.027,0,0.188,0.322c0.215,0.322,0.537,0.394,0.618,0.546   c0.081,0.152,0.322,0.314,0.322,0.314l0.269,0.511c0,0,0.403,0.161,0.43,0.242c0.027,0.081,0.296,0.242,0.296,0.242l0.726,0.107   h0.269c0,0,0.296,0.242,0.376,0.296c0.081,0.054-0.027-0.107,0.081,0.054c0.107,0.161-0.107,0.161,0.107,0.161   c0.215,0,0.591-0.134,0.591-0.134c0.296,0.054,0.269,0.027,0.43,0.188c0.161,0.161,0.349,0.296,0.349,0.296   s0.161-0.054,0.269-0.054c0.107,0-0.081-0.161,0.107,0c0.188,0.161,0.403,0.349,0.403,0.349s-0.107,0.054,0.054,0.161   c0.161,0.107,0.564,0.188,0.618,0.269c0.054,0.081-0.134-0.081,0.054,0.081c0.188,0.161,0.107,0.296,0.403,0.322   c0.296,0.027,0.484,0.027,0.591,0.027s0.376,0.054,0.484,0.054s0.349-0.054,0.376,0.107c0.027,0.161,0.027,0.161,0.027,0.161   s0.322-0.054,0.403-0.134c0.081-0.081,0.484-0.107,0.484-0.107l0.215-0.161c0,0,0.027-0.107,0.107-0.134   c0.081-0.027,0.134-0.134,0.296-0.134c0.161,0,0.43-0.054,0.564-0.054c0.134,0,0.269-0.027,0.376,0   c0.107,0.027,0.349,0.296,0.349,0.296s0.672,0.242,0.779,0.43c0.107,0.188,0.376,0.322,0.484,0.484   c0.107,0.161,0.134,0.054,0.349,0.188c0.215,0.134,0.349,0.188,0.511,0.269c0.161,0.081,0.349,0.107,0.537,0.107   c0.188,0,0.296,0,0.376,0c0.081,0,0.591,0.107,0.672,0.188c0.081,0.081,0.107,0.134,0.215,0.188   c0.107,0.054,0.484-0.081,0.537,0.054c0.054,0.134-0.134,0.296,0.081,0.322c0.215,0.027,0.645,0.027,0.645,0.027L59.415,41   l0.242-0.081c0,0,0.457,0,0.564,0c0.107,0,0.591,0.027,0.591,0.027h0.511c0,0,0.107,0.054,0.134,0.161   c0.027,0.107-0.134,0.027,0.027,0.107c0.161,0.081,0.779,0.081,0.86,0.081c0.081,0,0.296,0,0.403,0s0.779,0,0.86,0   c0.081,0,0.269-0.027,0.457-0.027c0.188,0,1.102,0,1.102,0l0.403,0.215l0.555,0.672c0,0,0.09,0.197,0.125,0.287   c0.036,0.09,0.072,0.125,0.09,0.251s0.09,0.179,0.143,0.269c0.054,0.09,0.233,0.305,0.233,0.305l0.269,0.251   c0,0,0.054-0.054,0.197,0.107c0.143,0.161,0.269,0.161,0.269,0.34s0.125,0.43,0.125,0.43s-0.054-0.036,0,0.098   c0.054,0.135,0.072,0.117,0.107,0.296s0.09,0.233,0.09,0.394c0,0.161,0.269,0.663,0.269,0.663l0.107,0.143c0,0-0.072-0.215,0,0.09   c0.072,0.305,0.125,0.394,0.125,0.448s0.197,0.376,0.233,0.502s0.161,0.358,0.197,0.43c0.036,0.072,1.827,3.081,1.827,3.081   l0.137,0.914l-0.048,0.322c0,0-0.09,0.161-0.125,0.215c-0.036,0.054-0.018-0.018-0.09,0.161c-0.072,0.179-0.161,0.412-0.161,0.412   s-0.036,0.107-0.161,0.251s-0.215,0.107-0.322,0.233s-0.143,0.107-0.197,0.215c-0.054,0.107-0.179,0.107-0.179,0.251   c0,0.143,0.018,0.036,0,0.143s-0.018,0.107-0.018,0.107l0.072,0.466l0.072,0.125l0.215,0.269l0.143,0.054   c0,0-0.179,0.233-0.251,0.358c-0.072,0.125-0.197,0.251-0.269,0.287c-0.072,0.036-0.573,0.663-0.573,0.663s-0.054,0.018-0.143,0.09   s-0.215,0.179-0.287,0.215c-0.072,0.036-0.305,0.161-0.305,0.161l-0.179,0.412c0,0-0.036,0.09-0.036,0.215   s-0.036,0.215-0.072,0.394c-0.036,0.179-0.143,0.645-0.143,0.645l-0.125,0.287c0,0-0.125,0.09-0.197,0.125   c-0.072,0.036-0.143,0.143-0.143,0.143l-0.269,1.254l-0.287,0.448c0,0,0,0.09-0.107,0.179   C66.375,60.644,66.375,60.644,66.375,60.644z"> <title>Tambopata</title></path>
	<path id="1703" data-ng-click="$ctrl.openMap(2, '1703', true, $event)" fill="none" stroke="#020202" stroke-width="0.3" stroke-miterlimit="10" d="M65.246,41.134v-0.502v-0.358l-0.161-0.322   l-0.358-0.717l-0.466-0.394l-0.358-0.448l-0.394-0.412l-0.394-0.645l-0.394-0.609l-0.054-0.537l-0.233-0.43l-0.752-0.967   l-0.445-0.337l-0.269-0.466l-0.504-0.881l-0.322-0.412c0,0-0.322-0.412-0.358-0.52c-0.036-0.107-0.251-0.466-0.251-0.466   l-0.394-0.466l-0.681-0.681l0.072-0.573l-0.43-0.788c0,0-0.036-0.036-0.072-0.215c-0.036-0.179-0.179-0.466-0.179-0.466   l-0.125-0.448l-0.269-0.43l-0.072-0.376l-0.179-0.143l-0.394-0.287l-0.376-0.376l-0.125-0.197l-0.358-0.394l-0.466-0.645   l-0.098-0.358l-0.188-0.287l-0.322-0.358L54.479,23.9l-0.466-0.394h-0.788h-0.358l-0.251,0.322l-0.215-0.036h-0.824l-0.681-1.039   l-0.752,0.107l-0.43,0.107c0,0-0.215-0.072-0.537-0.072c-0.322,0-1.218,0.036-1.218,0.036l-0.251,0.036l-0.186,0.107   c0,0-0.137,0.287-0.316,0.466c-0.179,0.179-0.179,0.179-0.179,0.179s-0.107,0.215-0.43,0.215c-0.322,0-1.791-0.143-1.791-0.143   l-0.609,0.537c0,0-0.287-0.179-0.287,0.143c0,0.322,0,0.752,0,0.752l-1.935-0.107h-0.645l-0.752-0.036l-1.827,0.036v-0.86h-0.752   l-0.442-0.824c0,0-0.531-0.233-0.555-0.143s-0.239,0.197-0.293,0.197s-0.054,0-0.054,0l-0.448,0.484l-0.878,0.251l0.125-20.101   l-0.721,0.272l-0.074,0.604l-0.054,0.617L34,5.869V6.37l-2.631,1.693v3.655l-0.43,0.788l-0.681,0.645l-0.412,0.376l-2.759,1.863   c0,0-0.905,0.985-0.949,1.272c-0.045,0.287-0.279,0.687-0.314,0.717c-0.035,0.03-0.188,0.358-0.188,0.358l-1.226,0.717   c0,0-0.117,1.156-0.064,1.505c0.054,0.349,0,0.645,0,0.645l-0.269,0.524l-0.175,0.242l-0.843,0.844l0.283,0.253l-0.283,0.438   c0,0-0.094,0.131-0.125,0.156c-0.031,0.025-0.738,0.409-0.738,0.409l-1.003-0.107l-1.362,0.394l-1.114,0.157l-0.298,0.083   l-0.7-0.042l-1.033-0.113c0,0-0.121-0.013-0.161,0c-0.04,0.013-0.142-0.036-0.185,0.024c-0.043,0.06-0.099,0.071-0.165,0.106   c-0.065,0.035-0.215,0.082-0.215,0.082l-0.215,0.025c0,0-0.139,0.062-0.139,0.062c0,0-0.184,0.082-0.184,0.082l-0.242,0.09   l-2.051-0.555l-0.287-0.43l-1.106-0.142l-0.578,0.284l-1.362,0.789l-2.183,0.124l-0.272,0.879l0.394,0.502l0.376,0.269l0.492-0.01   l0.26-0.232h0.564l0.218-0.079l0.776-0.083l0.376,0.007l0.396,0.003l0.463-0.017l0.417-0.006l0.193,0.025l0.376-0.038l0.214,0.026   l0.444-0.047l0.131-0.061c0,0-0.111-0.197,0.203-0.114c0.315,0.083,1.202,0.439,1.202,0.439s0.576,0.337,1.172,0.318   c0.596-0.019,0.672,0.059,1.057,0.075c0.384,0.016,2.682,0.062,2.682,0.062s0.452,0.156,0.79,0.387s0.944,0.639,0.944,0.639   s0.422,0.198,0.699,0.243s0.817,0.127,0.817,0.127s0.6,0.044,0.707,0.132s0.345,0.319,0.656,0.402   c0.311,0.084,0.924,0.332,1.501,0.363c0.577,0.031,0.778,0.064,1.08,0.027c0.302-0.038,1.377,0.527,1.377,0.527   s-0.03-0.071,0.177,0.067c0.207,0.139,0.384,0.289,1.192,0.353c0.808,0.064,1.564,0.064,1.564,0.064s0.139,0.097,0.129,0.209   s-0.049,0.131-0.049,0.131s0.008-0.003,0.001,0.027c-0.007,0.03,0.049,0.09,0.049,0.09s0.08,0.15,0.253,0.236   s0.453,0.318,0.453,0.318l0.588,0.467l0.261,0.21l0.188,0.242l0.118,0.146l0.239,0.197l0.194,0.168l0.169,0.25l0.142,0.128h0.06   h6.201l0.107,0.272c0,0,0.683-0.086,0.934-0.064c0.25,0.022,0.365-0.029,0.371,0.326c0.006,0.356,0.066,0.436,0.066,0.436   s0.36,0.243,0.386,0.279c0.025,0.036,0.117,0.343,0.321,0.564c0.204,0.221,0.312,0.333,0.375,0.49   c0.063,0.157,0.25,0.397,0.386,0.464c0.136,0.067,0.323,0.225,0.342,0.253c0.018,0.027,0.211,0.242,0.211,0.242l0.13,0.099   l0.269,0.511c0,0,0.362,0.162,0.396,0.202c0.034,0.04,0.174,0.234,0.329,0.282c0.156,0.048,0.994,0.107,0.994,0.107l0.376,0.296   l0.033-0.001l0.048,0.055l0.011,0.145c0,0,0.051,0.021,0.223,0.005c0.173-0.016,0.345-0.083,0.405-0.103   c0.059-0.02,0.297,0.003,0.358,0.051s0.467,0.403,0.467,0.403s0.075-0.018,0.193-0.035c0.118-0.017,0.156-0.002,0.156-0.002   l0.064,0.013l0.101,0.087l0.279,0.243c0,0-0.074,0.074,0.015,0.132c0.09,0.059,0.576,0.24,0.605,0.258s0.057,0.063,0.057,0.063   l0.089,0.096c0,0,0.071,0.113,0.116,0.166c0.046,0.053,0.061,0.115,0.394,0.13c0.333,0.014,0.564,0.026,0.695,0.043   s0.243,0.021,0.335,0.019c0.092-0.002,0.117-0.027,0.18,0.012s0.088,0.041,0.103,0.165s0.005,0.128,0.194,0.058   c0.189-0.069,0.263-0.148,0.456-0.173c0.193-0.025,0.331-0.03,0.427-0.161c0.096-0.131,0.164-0.171,0.231-0.217   c0.067-0.046,0.144-0.075,0.144-0.075l0.167-0.012l0.352-0.041l0.419-0.018c0,0,0.113,0.001,0.243,0.127s0.179,0.179,0.179,0.179   s0.413,0.173,0.467,0.202c0.055,0.029,0.235,0.143,0.254,0.161c0.019,0.018,0.133,0.167,0.133,0.167l0.315,0.278l0.165,0.186   c0,0,0.201,0.062,0.278,0.109c0.077,0.047,0.601,0.35,0.834,0.363c0.234,0.013,0.594-0.038,0.877,0.065   c0.283,0.104,0.337,0.08,0.45,0.206c0.113,0.126,0.168,0.14,0.292,0.128c0.124-0.012,0.239-0.025,0.284-0.017   c0.045,0.008,0.117,0.001,0.117,0.081c0,0.08-0.059,0.261-0.02,0.259c0.038-0.001-0.056,0.074,0.372,0.062s0.852-0.154,0.852-0.154   l1.666,0.027c0,0,0.071,0.052,0.084,0.067c0.012,0.015,0.048,0.068,0.051,0.094c0.003,0.026-0.037,0.064-0.041,0.065   s0.034,0.047,0.139,0.067c0.104,0.02,1.43,0.097,2.052,0.056c0.622-0.041,1.559-0.027,1.559-0.027L65.246,41.134z"> <title>Tahuamanu</title></path>
	<path id="1702" data-ng-click="$ctrl.openMap(2, '1702', true, $event)" fill="none" stroke="#020202" stroke-width="0.3" stroke-miterlimit="10" d="M6.234,30.6l-0.215,0.806l-0.43,0.269   l-0.107,0.484l-0.233,0.699l0.018,0.86l-0.233,0.287l-0.09,0.305c0,0-0.054,0.143-0.054,0.448s0.215,0.036,0,0.305   C4.675,35.33,4.675,35.276,4.568,35.5s0.072,0.331-0.107,0.528c-0.179,0.197-0.026-0.054-0.148,0.376s-0.39,0.699-0.39,0.699   l-0.025,0.344l-0.19,0.319l-0.376,0.107v0.412l0.197,0.842l0.466,0.43l0.43,0.179l0.143,0.752v1.218v0.179h1.29l0.054,0.967   l0.161,0.752l1.344-0.269l1.451,0.806v1.559l0.161,0.967l0.754,0.663l1.127,0.09l0.806,0.054l0.537,0.43l-0.967,0.537l-0.591,1.129   l-0.967,0.376l-0.358,0.322l0.09,0.322v0.914l1.129,0.305l0.301,0.748c0,0,0.344,0.793,0.487,0.936   c0.143,0.143,0.466,0.681,0.466,0.681l-0.054,0.77L12.2,55.43h0.143l0.448-0.054l0.036-0.125c0,0-0.09-0.233,0.072-0.197   c0.161,0.036,0.394,0.036,0.394,0.036s0.161,0.018,0.233,0.018s0.34,0.054,0.34,0.054l0.054,0.43l-0.054,0.215   c0,0-0.143-0.036,0.251,0.09c0.394,0.125,0.43,0.125,0.484,0.161c0.054,0.036,1.093,0.663,1.093,0.663v0.591l0.914,0.322   l1.093-0.555l0.788-0.269l1.272,0.663l0.573,0.287l0.609,0.448l1.2,0.072l0.86,0.878l1.236,0.52l0.699,0.197l1.469,0.699   l0.484,0.197l0.52-0.322l0.645,0.197l2.06,0.86l1.756,0.215l1.021,0.699l1.612-0.054l0.107-0.466l0.233-0.018l0.842,0.143   c0,0,0.251,0.125,0.466,0.125c0.215,0,1.057-0.107,1.057-0.107l0.663-0.125c0,0,0.161-0.233,0.215-0.233   c0.054,0,0.717-0.018,0.717-0.018s0.251,0.09,0.322,0.143c0.072,0.054,0.322,0.412,0.322,0.484s0.34,0.412,0.34,0.412v-0.537   l0.287-0.394l0.107-0.394l0.179-0.215v-1.326l0.251-0.251v-0.788l0.322-0.251l0.107-0.322l0.375,0.067c0,0,0.34-0.414,0.485-0.497   c0.145-0.084,0.537-0.287,0.537-0.287l0.107-0.251V56.72l0.165-0.331l0.515-0.493c0,0-0.051-0.091,0.01-0.189   c0.061-0.098,0.205-0.277,0.205-0.277s0.847-0.349,0.941-0.412s0.262-0.166,0.262-0.166l0.552-0.138l0.322-0.43v-1.577   l-0.358-0.645l-0.215-0.215l-0.76-0.306c0,0-1.305-0.569-1.537-0.675s-0.325-0.083-0.294-0.255   c0.031-0.171,0.054-0.723,0.047-1.001s0.062-0.369,0.043-0.455c-0.02-0.086-0.591-0.64-0.627-0.718   c-0.036-0.079-0.168-0.639-0.168-0.639l-1.863-2.293l-0.113-0.102l0.012-0.038l-0.706-0.058l0.016-0.054l-0.041-0.085l-0.299-0.138   l-0.27-0.106c0,0-0.161-0.122-0.188-0.21c-0.027-0.087-0.066-0.302-0.066-0.302s-0.024-0.149-0.213-0.109   c-0.189,0.04-0.571,0.153-0.676,0.204C37.139,44.559,37,44.646,37,44.646l-0.758-0.537l-0.182-0.337l-0.212-0.273l-0.287-0.179   v-0.43c0,0-0.077,0.155-0.191,0.04c-0.114-0.115-0.142-0.156-0.142-0.156l-0.811-0.148l-0.478-0.083l-0.062-0.011   c0,0-0.203-0.135-0.28-0.126s-0.174,0.067-0.174,0.067l-0.243,0.314l-0.163,0.14l-0.179-0.251l-0.287-0.267l-0.167-0.155   l-0.047-0.044c0,0-0.097-0.281-0.325-0.255c-0.228,0.026-0.313,0.017-0.313,0.017l-0.118,0.061l-0.109-0.009l-0.042-0.043   l-0.058-0.083l-0.142-0.132l-0.318-0.206l-0.187-0.101l-0.215-0.215h-0.215l-0.215,0.179l-0.43-0.179l-0.871-0.558l-0.777-0.481   V39.45l-0.307-0.383l-0.194-0.333c0,0-0.167-0.167-0.334-0.263s-0.184-0.067-0.184-0.067s-0.197-0.051-0.317-0.056   c-0.12-0.005-0.509,0.02-0.509,0.02l-0.117-0.001l-0.188-0.019l-0.5-0.005v-0.147l-1.003-0.466c0,0,0.048-0.146-0.023-0.225   c-0.071-0.079-0.157-0.147-0.157-0.147l-0.099-0.092l-0.1-0.064l-0.553-0.011l-0.466-0.788l-1.129-0.726   c0,0,0.039-0.057,0.049-0.092c0.01-0.035-0.008-0.082-0.079-0.087c-0.072-0.005-0.182-0.027-0.182-0.027l-0.124-0.033l-0.123-0.039   l-0.108-0.061l-0.124-0.093l-0.298-0.296l-0.202-0.214l-0.283-0.223l-0.513-0.313l-0.304-0.234l-0.314-0.195   c0,0,0.118-0.064,0.041-0.109c-0.077-0.045-0.465-0.321-0.465-0.321l-0.353-0.025l0.003-0.085l-0.019-0.163l-0.001-0.094   c0,0,0.043-0.08,0.033-0.163c-0.01-0.084-0.038-0.196-0.038-0.196l0.039-0.244c0,0,0.07-0.063-0.163-0.232   c-0.233-0.169-0.702-0.532-0.702-0.532l-0.122-0.094l0.061-0.001l0.031-0.038l-0.051-0.062l-0.094-0.074l-0.068-0.052l-0.107-0.084   l-0.148-0.12l-0.007,0.058l-0.063-0.021l-0.149-0.09l-0.168-0.105c0,0-0.148-0.109-0.261-0.155   c-0.113-0.046-0.115-0.061-0.345-0.089c-0.23-0.029-0.941,0-0.941,0l0.016,0.057l0.006,0.092l-0.034,0.099l0.007,0.036   l-0.362,0.063l-0.439-0.053l-0.147-0.197l-0.109-0.075c0,0-0.053-0.023-0.093-0.023c-0.04,0-0.175,0-0.175,0h-0.04l-0.148-0.023   l-0.217,0.039l-0.241,0.057L12.99,30.8c0,0-0.217,0.053-0.266,0.066c-0.049,0.012-0.122,0.03-0.122,0.03s-0.101,0.081-0.131,0.134   c-0.03,0.054-0.03,0.296-0.03,0.296l-3.843-0.054v-0.215l0.215-0.134c0,0,0.095-0.347,0.054-0.43   c-0.041-0.083-0.085-0.145-0.13-0.156c-0.046-0.011-0.058-0.031-0.138-0.005c-0.08,0.026-0.278,0.146-0.394,0.158   c-0.116,0.012-0.208-0.009-0.208-0.009l-0.244-0.095l-0.099-0.046l-0.053,0.057l-0.046,0.062l-0.135,0.095l-0.183,0.139   L7.16,30.807l-0.012,0.035l-0.027,0.081l-0.104-0.009l-0.135-0.07l-0.21-0.16c0,0-0.1-0.071-0.116-0.08s-0.118-0.073-0.118-0.073   l-0.15-0.092L6.234,30.6z"> <title>Manu</title></path>
</g>
</svg>
