<?xml version="1.0" encoding="utf-8"?>
<svg xmlns="http://www.w3.org/2000/svg" xmlns:xlink="http://www.w3.org/1999/xlink" version="1.1" id="20" x="0px" y="0px" viewBox="0 0 74 71" enable-background="new 0 0 74 71" xml:space="preserve">
	<title>Piura</title>
<g>
	<path id="2007" data-ng-click="$ctrl.openMap(2, '2007', true, $event)" fill="none" stroke="#020202" stroke-width="0.3" stroke-miterlimit="10" d="M16.844,4.064l0.095,0.683   c0,0,0.727,0.485,0.727,0.617c0,0.132,0.071,0.341,0.071,0.341s-0.034,0.036,0.054,0.234c0.088,0.198,0.162,0.261,0.008,0.504   c-0.154,0.242-0.308,0.441-0.375,0.727c-0.066,0.286-0.007,0.088-0.103,0.661c-0.095,0.573,0.046,0.661,0.046,0.661   s1.29,0.066,1.379,0.198c0.088,0.132,0.11,0.529,0.176,0.705c0.066,0.176,0.573,0.529,0.573,0.529l0.661,0.661   c0,0,0.286-0.463,0,0.397c-0.286,0.859-0.242,0.705-0.375,1.08c-0.132,0.375-0.286,0.837-0.286,0.837l-0.132,0.947l-0.617,0.507   c0,0-0.529,0.375-0.617,0.441c-0.088,0.066-0.286,0.771-0.308,0.903c-0.022,0.132-0.198,0.198,0.044,0.242   c0.242,0.044,0.595,0.022,0.595,0.022s0.186-0.154,0.104,0.286c-0.082,0.441-0.324,0.837-0.479,1.014   c-0.154,0.176-0.176,0.022-0.286,0.176c-0.11,0.154-0.264,0.198-0.088,0.573c0.176,0.375-0.11,0.154,0.375,0.683   c0.485,0.529,0.727,0.529,0.837,0.859c0.11,0.331,0.242,0.573,0.308,0.837c0.066,0.264,0.22,0.419,0.22,0.683   s-0.081,0.529-0.081,0.529s-0.235,0-0.47,0s0.235-0.353-0.235,0c-0.47,0.353-0.646,0.059-0.881,0.47   c-0.235,0.411-0.972,0.492-0.972,0.492s0.208,0.272-0.321-0.022c-0.529-0.294-0.881-0.47-1.058-0.47c-0.176,0,0.294-0.529-0.176,0   c-0.47,0.529-0.413,0.379-0.618,0.601s-0.381-0.163-0.557,0c-0.176,0.163-0.235-0.021-0.646,0.071s-1.175,0-1.175,0   s-0.118-0.01-0.353,0.041c-0.235,0.051-0.999,0.463-0.999,0.463h-0.646c0,0-0.176,0.294-0.411,0.235   c-0.235-0.059-0.823-0.353-0.823-0.353l-0.646-1.175L8.03,21.544l-0.411-0.646l-0.47-0.294l-0.411-0.235l-0.705-0.529V19.4   l0.529-0.206c0,0,0.118-0.118,0.176-0.411s-0.118,0.294,0.059-0.294c0.176-0.588,0.235-0.999,0.235-0.999   c-0.029-0.25,0.588-1.175,0.588-1.175s0.176-0.353,0-1.058c-0.176-0.705-0.254-1.48-0.254-1.48L7.266,12.79l0.47-0.176l0.059-0.411   l0.411-0.235V11.38c0,0-0.118-0.294,0-0.47c0.118-0.176,0.118-0.059,0.176-0.529c0.059-0.47,0.059-0.705,0.059-0.881   c0-0.176,0-1.41,0-1.41L8.324,7.413l0.264-0.529h0.969l0.545-0.793c0,0,0.101-0.176,0.395-0.353s0.588-0.601,0.823-0.565   c0.235,0.036,0.441,0.405,0.529,0s0.353-0.581,0.353-0.581l0.132-0.529l0.22-0.499V3.183l0.999-0.441h1.066   c0,0-0.065-0.456,0.256-0.441s0.321,0.016,0.321,0.016l0.498-0.06c0,0,0.21,0.086,0.24,0.133c0.03,0.047,0.289,0.176,0.289,0.176   s-0.052,0.121,0.003,0.145c0.055,0.024,0.262,0,0.245,0.131c-0.017,0.131,0.137,0.244,0.161,0.349   C16.655,3.296,16.844,4.064,16.844,4.064z"> <title>Talara</title></path>
	<path id="2005" data-ng-click="$ctrl.openMap(2, '2005', true, $event)" fill="none" stroke="#020202" stroke-width="0.3" stroke-miterlimit="10" d="M15.859,39.935c0,0,0.022-0.485,0.132-0.529   c0.11-0.044,0.375-0.176,0.375-0.176s0.11,0,0.11-0.154c0-0.154-0.088-0.132,0-0.353c0.088-0.22,0-0.375,0-0.463   c0-0.088-0.639-0.485-0.617-0.617c0.022-0.132,0.198-0.837,0.198-0.837s0.154-0.044,0.22-0.132   c0.066-0.088,0.211-0.331,0.237-0.375s0.291-0.176,0.379-0.176s0.286-0.198,0.507,0.022c0.22,0.22,0.639,0.485,0.727,0.529   c0.088,0.044,0.529,0.198,0.661,0.286c0.132,0.088-0.066,0.11,0.353,0.242c0.419,0.132,0.639,0.132,0.639,0.132   c0.069-0.051,0.162,0.133,0-0.22c-0.186-0.405-0.793-1.168-0.529-1.388c0.264-0.22,0.375-0.375,0.419-0.507   c0.044-0.132,0.176-0.397,0.11-0.705c-0.066-0.308-0.176-0.308,0-0.639c0.176-0.33,0.088-0.11,0.308-0.617   c0.22-0.507,0.331-0.353,0.353-0.859c0.022-0.507-0.252-0.903-0.159-1.498c0.093-0.595,0-4.914,0-4.914s-1.383,0.044-1.67,0   c-0.286-0.044-1.432-0.419-1.432-0.419s0-0.242,0-0.308c0-0.066-0.463-0.397-0.375-0.441c0.088-0.044,0.176-0.331,0.176-0.331   l0.11-0.639c0,0,0.022-0.198,0.044-0.264c0.022-0.066,0.088-0.154,0.176-0.198c0.088-0.044,0.198-0.132,0.198-0.132l-0.242-0.154   l-0.22-0.154l-0.132-0.11l-0.285-0.222l-0.365-0.194c0,0-0.14-0.075-0.201-0.106c-0.061-0.032-0.207-0.103-0.207-0.103   l-0.294-0.115c0,0-0.099-0.175-0.133-0.179c-0.033-0.004-0.059,0.026-0.175,0.155c-0.117,0.129,0.024,0.028-0.239,0.258   c-0.263,0.23,0.075,0.38-0.379,0.343s-0.351-0.075-0.454-0.038s-0.258,0.092-0.417,0.088c-0.159-0.004-0.215,0.002-0.332,0.02   s-0.419,0.04-0.485,0.04s-0.2-0.007-0.501-0.022c-0.301-0.015-0.542,0.023-0.542,0.023s-0.235,0.08-0.411,0.165   c-0.176,0.085-0.203,0.097-0.326,0.161c-0.123,0.064-0.166,0.137-0.262,0.137s-0.206,0-0.272,0s-0.375,0-0.375,0   s-0.078,0.151-0.192,0.194s-0.3-0.128-0.219,0.041c0.081,0.169,0.147,0.059,0.301,0.389c0.154,0.331,0.11,0.242,0.353,0.441   c0.242,0.198,0.507,0.573,0.507,0.573s-0.022,0.132,0,0.331s-0.198,0.419-0.044,0.529c0.154,0.11,0.11,0.088,0.242,0.22   c0.132,0.132,0.154,0.176,0.397,0.308c0.242,0.132,0-0.154,0.242,0.132c0.242,0.286,0.066,0.022,0.331,0.419   c0.264,0.397-0.11,0.154,0.264,0.397c0.375,0.242,0.331,0.157,0.617,0.507c0.286,0.35,0.242,0.264,0.353,0.485   c0.11,0.22,0.132-0.022,0.198,0.331c0.066,0.353,0.066,0.176,0.066,0.617s0.154,0.044-0.022,0.727s-0.397,0.705-0.397,1.058   c0,0.353-0.595,0.595-0.595,0.595l-0.375-0.154c0,0-0.022,0.022-0.22,0.066s-0.375,0.044-0.463,0.044   c-0.088,0-0.11-0.353-0.286,0.066s-0.375,0.485-0.375,0.705c0,0.22-0.242,0.881-0.242,0.881s0.308-0.683-0.132,0.154   c-0.441,0.837-0.485,0.331-0.441,0.837c0.044,0.507,0.044,0.727,0.176,1.234c0.132,0.507,0,0.661,0.286,0.815   c0.286,0.154,0.463,0.22,0.463,0.22s0.044,0.176,0.331,0.353c0.286,0.176,1.256,1.168,1.256,1.168s0.088,0.044,0.176,0.132   c0.088,0.088,0.282,0.397,0.339,0.474c0.058,0.077,0.3,0.253,0.344,0.407c0.044,0.154,0.242,0.441,0.331,0.507   c0.088,0.066,0.198,0.22,0.264,0.264c0.066,0.044,0.727,0.22,0.727,0.22s0-0.154,0.154,0c0.154,0.154,0.242,0.176,0.308,0.176   C15.353,40.112,15.859,39.935,15.859,39.935z"> <title>Paita</title></path>
	<path id="2006" data-ng-click="$ctrl.openMap(2, '2006', true, $event)" fill="none" stroke="#020202" stroke-width="0.3" stroke-miterlimit="10" d="M20.283,37.115l-0.193-0.264l0.193-0.705   l-0.097-0.264c0,0-0.05-0.132,0.257-0.22c0.307-0.088,0.748-0.353,0.748-0.353l0.264-0.397l0.264-0.529   c0,0,0.264-0.441,0.264-0.573c0-0.132,0-0.573,0-0.573l0.397-0.397l0.529-0.485c0,0,0-0.529,0.176-0.749   c0.176-0.22,0.176-0.523,0.308-0.592c0.132-0.069,0.485-0.289,0.529-0.422c0.044-0.132,0.132-0.749,0-0.969   c-0.132-0.22-0.088-0.485,0-0.705c0.088-0.22-0.037-1.014,0.07-1.146c0.106-0.132,0.679-0.176,0.679-0.176s0.264-0.132,0.573-0.308   c0.308-0.176,0.176-0.176,0.573-0.308c0.397-0.132,1.058-0.264,1.234-0.353c0.176-0.088,0.132-0.044,0.308-0.22   c0.176-0.176,0.749-1.014,0.925-1.102c0.176-0.088,0.308-0.176,0.441-0.397c0.132-0.22-0.264-0.485,0.264-0.661   c0.529-0.176-0.485-0.397,0.793-0.485c1.278-0.088,1.895-0.366,2.292-0.271c0.397,0.095,1.014,0.037,1.278,0   c0.264-0.037,0.397-0.081,0.617-0.302c0.22-0.22,0.22-0.441,0.441-0.661c0.22-0.22,0.132-0.32,0.308-0.892   c0.176-0.573,0.088-0.914,0.088-1.311c0-0.397-0.308-0.837-0.308-0.837s-0.705-0.529-0.353-0.705s1.146-0.617,1.146-0.617   s-0.22,0,0.22-0.22c0.441-0.22,0.661-0.353,1.014-0.705C36.88,16.888,36.592,16.8,37,16.8s1.642,0.044,1.775,0   c0.132-0.044,0.264-0.22,0.264-0.441c0-0.22-0.353-1.234-0.353-1.234v-0.397c0,0,0-0.264,0-0.485c0-0.22-0.044-1.014-0.044-1.014   l-0.529-0.881l-0.661-0.529L37,11.424c0,0-0.253,0.176-0.649,0.397c-0.397,0.22-0.264-0.264-0.397,0.22   c-0.132,0.485-0.176,0.573-0.485,0.705c-0.308,0.132-0.441-0.051-0.661,0.129c-0.22,0.18-0.485-0.136-0.617,0   c-0.132,0.136-1.719-0.261-1.719-0.261l-0.198-1.19l-0.155-0.529l0.617-1.675c0,0,0.264-0.132,0.441-0.308   c0.176-0.176,0.705-0.485,0.793-0.617c0.088-0.132,0.308-0.397,0.308-0.397l-0.22-0.925c0,0-0.044-0.264,0.176-0.353   c0.22-0.088,0.641-0.287,0.761-0.43c0.12-0.143,0.473-0.363,0.473-0.363s0.264-0.176-0.088-0.22   c-0.353-0.044,0.176,0.044-0.353-0.044s-0.881,0-0.881,0L33.31,5.43c0,0,0.088,0-0.22-0.044c-0.308-0.044-1.058-0.088-1.058-0.088   l0.154-0.424V4.681L31.9,3.139l-0.264-0.573l-0.176-0.529l-0.22-0.529c0,0-0.485-0.088-0.573,0.308   c-0.088,0.397-0.088,0.397-0.088,0.397s-0.393,0.126-0.489,0.317c-0.096,0.191-0.439,0.343-0.524,0.564   c-0.086,0.221-0.415,0.524-0.415,0.524s-0.025,0.005-0.246,0.314c-0.22,0.308-1.102,1.19-1.102,1.19s0.008,0.184-0.271,0.387   c-0.278,0.203,0.006,0.582-0.523,0.406C26.48,5.739,26.48,5.739,26.48,5.739l-0.617,0.353c0,0-0.136-0.023-0.264-0.044   c-0.129-0.022-0.97-0.163-0.97-0.163l-0.264-0.85c0,0-0.161,0.288-0.308,0.14c-0.147-0.148-0.485-0.493-0.485-0.493l-0.441,0.088   l-1.193-0.173c0,0,0.194-0.092-0.276-0.004c-0.47,0.088-0.617-0.176-0.867,0.176c-0.25,0.353,0.602,0.353-0.25,0.353   s-0.852,0-0.852,0s-0.118,0-0.308-0.088c-0.191-0.088-0.903-0.486-0.903-0.486s0.307,0.12-0.196-0.094   c-0.502-0.214-0.209-0.331-0.767-0.273c-0.558,0.059-0.984-0.25-0.676-0.118c0.308,0.132,0.076,0.302,0.076,0.302l0.019,0.381   c0,0,0.412,0.237,0.57,0.427s0.025-0.162,0.157,0.19c0.132,0.353,0.132-0.022,0.132,0.529c0,0.551,0.176,0.276,0,0.551   s-0.211,0.258-0.293,0.493s-0.03-0.087-0.082,0.235c-0.051,0.321-0.074,0.235-0.103,0.661c-0.029,0.426,0.046,0.661,0.046,0.661   l0.506,0.036c0.259,0.025,0.529,0.06,0.529,0.06c0.343,0.102,0.353,0.037,0.436,0.422c0.083,0.385,0.477,0.781,0.477,0.781   l0.84,0.794c0,0-0.629,2.085-0.661,2.314c-0.032,0.229-0.019,0.139-0.076,0.543c-0.056,0.404-0.056,0.404-0.056,0.404   s-0.21,0.173-0.413,0.34c-0.203,0.167,0.076-0.031-0.203,0.167c-0.28,0.199-0.617,0.441-0.617,0.441s-0.167,0.385-0.199,0.493   c-0.032,0.108-0.109,0.41-0.109,0.41l0.044,0.242c0,0,0.043,0.006,0.109,0.013c0.066,0.007,0.222,0.014,0.222,0.014l0.264-0.005   c0.104,0.286,0.147,0.173,0.08,0.395s0.078-0.101-0.067,0.221c-0.145,0.322-0.185,0.394-0.185,0.394s0,0.026-0.101,0.158   c-0.101,0.132-0.388,0.308-0.388,0.308s-0.105,0.109-0.13,0.162c-0.025,0.052-0.039,0.18-0.02,0.244   c0.019,0.064-0.027,0.343-0.027,0.343l0.807,0.838l0.106,0.087c0,0,0.183,0.06,0.285,0.251c0.102,0.19,0.024-0.025,0.102,0.19   c0.079,0.216,0.22,0.221,0.187,0.485c-0.033,0.264,0.316,0.853,0.316,0.853l0.026,0.182c0,0,0,0.13-0.021,0.249   c-0.021,0.119-0.09,0.06-0.156,0.17c-0.066,0.11-0.375,0.11-0.375,0.11h-0.235c-0.119,0.078-0.352,0.179-0.352,0.179   s-0.101,0.018-0.177,0.034s-0.233,0.109-0.353,0.257c-0.12,0.148-0.272,0.275-0.383,0.321s-0.241,0.223-0.241,0.223l-0.198,0.088   c0,0-0.308-0.176-0.176-0.022c0.132,0.154,0.485,0.419,0.485,0.419l0.104,0.066l-0.28,0.683c0,0-0.025,0.146-0.045,0.26   c-0.02,0.114-0.065,0.379-0.065,0.379s0.025,0.057-0.076,0.194c-0.1,0.137-0.1,0.137-0.1,0.137l0.147,0.206l0.227,0.235v0.308   l0.599,0.19c0,0-0.06-0.018,0.105,0.032c0.166,0.05-0.245-0.064,0.166,0.05c0.411,0.114,0.428,0.135,0.562,0.147   c0.134,0.011,0.199,0.015,0.287,0.017c0.088,0.002,0.683,0,0.837-0.003c0.154-0.003,0.543-0.146,0.546-0.013   s0.001,0.022,0.008,0.419c0.007,0.396,0.028,1.983,0.028,1.983c0.001,0.132,0.001,0.044,0.003,0.353   c0.002,0.309,0.003-0.088,0.002,0.463c-0.001,0.551,0.042,0.507-0.041,0.859c-0.083,0.353,0.066,1.676,0.066,1.676   c0.038,0.168,0.07,0.341,0.07,0.341l-0.038,0.673c-0.118,0.186-0.096,0.112-0.194,0.309c-0.098,0.196-0.031,0.045-0.098,0.196   c-0.066,0.151-0.086,0.207-0.132,0.297c-0.046,0.09-0.176,0.32-0.176,0.32s-0.087,0.109-0.088,0.224   c-0.001,0.115,0.088,0.415,0.088,0.415l0.008,0.288l-0.118,0.418l-0.069,0.137c0,0-0.083,0.114-0.114,0.147   c-0.031,0.033-0.236,0.223-0.236,0.223s-0.071,0.066-0.055,0.155s-0.053-0.009,0.069,0.221c0.123,0.229,0.123,0.229,0.193,0.346   c0.07,0.117,0.125,0.208,0.125,0.208s0.079,0.113,0.122,0.233s0.074,0.225,0.074,0.225v0.22c0.176,0.022,0.308,0,0.308,0   L20.283,37.115z"> <title>Sullana</title></path>
	<path id="2001" data-ng-click="$ctrl.openMap(2, '2001', true, $event)" fill="none" stroke="#020202" stroke-width="0.3" stroke-miterlimit="10" d="M16.476,38.261h0.661l0.22,0.264l0.925,0.617   l0.264,0.397l0.925,0.22l0.81,0.353c0.379,0,1.085,0.353,1.085,0.353s0.088-0.176,0.353,0c0.264,0.176,1.014,0.308,1.014,0.308   v0.22l1.058,0.308l0.22,0.264l1.498,0.529l0.397,0.264c0,0,0.045,0.005,0.115,0.014c0.017,0.002,0.035,0.005,0.055,0.007   c0.028,0.004,0.058,0.008,0.09,0.013c0.031,0.005,0.063,0.01,0.095,0.016c0.022,0.004,0.044,0.008,0.066,0.013   c0.028,0.006,0.056,0.012,0.083,0.018c0.031,0.007,0.061,0.015,0.09,0.023c0.03,0.009,0.059,0.018,0.086,0.027   c0.04,0.014,0.074,0.03,0.101,0.046c0.027,0.017,0.046,0.035,0.054,0.054c0.004,0.01,0.005,0.021,0.002,0.033   c-0.013,0.052-0.022,0.089-0.029,0.115C26.7,42.8,26.7,42.8,26.7,42.8s-0.261,0.088,0.046,0.176c0.307,0.088,0.175-0.22,0.615,0   c0.441,0.22,0.749,0.351,0.969,0.462s0.22,0.111,0.22,0.111s0.308,0.22,0.353,0.969c0.044,0.749,0.176,1.058,0.176,1.19   c0,0.132-0.132-0.044,0,0.308c0.132,0.353,0.132,0.353,0.132,0.353s0.308,0.308,0.705,0.837c0.397,0.529,0.088,0.441,0.397,0.529   c0.308,0.088,0.705-0.088,0.837,0c0.132,0.088,0.617-0.302,0.969,0.025c0.353,0.327,1.763,0.9,1.763,0.9h1.454   c0,0,1.014,0.485,1.234,0.485c0.22,0,0.429,0,0.429,0l0.497,0.793c0,0,0.925,0.485,1.146,0.485c0.22,0,0.441-0.264,0.661,0   c0.22,0.264,0.441,0.353,0.705,0.617c0.264,0.264,1.058,0.661,1.058,0.661s1.234,0.969,1.41,1.014   c0.176,0.044,0.617,0.308,0.617,0.308h0.575c0,0,0.306,0.264,0.394,0c0.088-0.264,0.308-0.617,0.308-0.617s0.308-0.308,0.353-0.441   c0.044-0.132,0.132-0.353,0.132-0.353s0.176,0.044,0.308-0.132c0.132-0.176,0.441-0.705,0.441-0.705l0.088-0.705   c0,0-0.088,0.044,0-0.264c0.088-0.308,0.22-0.573,0.22-0.705c0-0.132-0.088-0.32,0-0.49c0.088-0.171,0.529-1.14,0.397-1.36   c-0.132-0.22-0.132-0.353-0.176-0.573c-0.044-0.22,0.088-0.353-0.353-0.397c-0.441-0.044-0.793-0.088-1.058-0.22   c-0.264-0.132-0.485-0.36-0.485-0.36l-1.366-0.654c0,0-0.529-0.176-0.749-0.441c-0.22-0.264-0.969-1.366-0.969-1.366   s-0.529-0.441-0.661-0.485c-0.132-0.044-0.573-0.264-0.661-0.441c-0.088-0.176-0.132-0.088-0.22-0.485   c-0.088-0.397-0.22-0.749-0.22-0.749s-0.264-0.353-0.353-0.529c-0.088-0.176-0.132-0.485-0.485-0.881   c-0.353-0.397-0.529-0.485-1.058-0.837c-0.529-0.353-0.176-0.353-0.749-0.573c-0.573-0.22-2.084-0.972-2.084-1.104   c0-0.132,0.056-0.306,0.056-0.57c0-0.264-0.044-0.842-0.044-1.082c0-0.24,0-0.416,0-0.681c0-0.264-0.044-0.529,0.132-0.705   c0.176-0.176,0.353-0.397,0.397-0.573c0.044-0.176,0.088-0.264,0.176-0.529c0.088-0.264-0.088-0.397,0.132-0.661   c0.22-0.264,0.176-0.264,0.353-0.529c0.176-0.264,0.397-0.655,0.573-0.812c0.176-0.157-0.773,0.239,0.561-0.201   s1.554-0.441,1.554-0.441s0.132,0.044-0.264-0.397c-0.397-0.441-0.617,0.132-0.617-0.661c0-0.793,0-1.102,0-1.102l0.661-1.058   l0.705,0.573c0,0,0.264,0.176,0.397,0.176s0.132,0.044,0.441-0.132s0.132-0.264,0.573-0.308c0.441-0.044,1.102-0.573,1.102-0.573   s0.176,0.132,0.132-0.264c-0.044-0.397-0.176-0.617-0.088-0.969c0.088-0.353-0.088-0.353,0.176-0.661   c0.264-0.308,0.353-0.441,0.353-0.573c0-0.132,0.22-0.176,0-0.529c-0.22-0.353-0.22-0.485-0.22-0.617   c0-0.132-0.044-0.441,0.22-0.529c0.264-0.088,0.132-0.044,0.529-0.22c0.397-0.176,0.397-0.176,0.397-0.176l-0.441-0.435   c0,0-0.132-0.711,0.088-0.711c0.22,0,0.441-0.088,0.617-0.22c0.176-0.132,0.573-0.353,0.793-0.397   c0.22-0.044,0.353,0.044,0.573-0.22c0.22-0.264,0.22-0.264,0.22-0.264s0.308-0.969,0.132-1.014c-0.176-0.044-0.441,0-0.441,0   l-0.485-0.617c0,0,0.088-0.441-0.441,0c-0.529,0.441-1.278,0.441-1.278,0.441l-0.925,0.507c0,0-0.132-0.419-0.132-0.596   s0.044-0.705-0.088-0.749c-0.132-0.044-0.22,0.308-0.353,0c-0.132-0.308,0-0.529-0.353-0.705c-0.353-0.176-0.793-0.441-0.793-0.441   h-0.308L38.775,16.8c0,0-0.22-0.019-0.353,0c-0.132,0.019-0.485-0.009-0.485-0.009h-0.22l-0.264,0.015L37,16.8l-0.473,0.441   c0,0-0.014,0.044-0.215,0.201c-0.2,0.157-0.579,0.283-0.799,0.504c-0.22,0.22-0.22,0.22-0.22,0.22l-0.555,0.304   c0,0-0.131,0.074-0.361,0.193c-0.23,0.119-0.148-0.1-0.23,0.119s0.353,0.705,0.353,0.705s0.029-0.049,0.147,0.257   c0.118,0.306,0.078-0.188,0.118,0.306s0.03,0.761,0.015,0.869c-0.016,0.108,0.072,0.684,0.072,0.684s0,0.264-0.441,0.925   c-0.441,0.661-0.441,0.661-0.441,0.661s-0.101,0.183-0.359,0.242s-0.83,0.151-1.183,0.105c-0.353-0.046,0.438-0.109-0.353-0.046   c-0.791,0.063-0.794-0.143-1.014,0c-0.22,0.143-0.217,0.157-0.614,0.202c-0.397,0.046-0.131,0.022-0.397,0.046   c-0.266,0.023-0.266,0.023-0.266,0.023l-0.546,0.075c-0.247,0.409-0.399,0.189-0.45,0.518c-0.051,0.329,0.114,0.332-0.062,0.552   c-0.176,0.22-0.441,0.397-0.441,0.397s-0.034-0.035-0.357,0.383c-0.323,0.418-0.568,0.498-0.568,0.498l-0.308,0.441l-0.501,0.151   l-0.495,0.13c0,0-0.076,0.013-0.237,0.071c-0.162,0.058-0.174,0.047-0.373,0.178c-0.199,0.131,0.112-0.031-0.33,0.204   s-0.442,0.235-0.442,0.235s-0.229,0.025-0.294,0.038c-0.066,0.013-0.149-0.001-0.267,0.069s-0.075-0.129-0.118,0.07   s-0.04,0.944-0.04,0.944l-0.07,0.322c0,0-0.025,0.04-0.033,0.16s0.073,0.425,0.073,0.425s0.023,0.004,0.043,0.115   s0.029,0.172,0.027,0.281c-0.003,0.109,0.022,0.095-0.024,0.334c-0.045,0.239-0.132,0.354-0.132,0.354l-0.121,0.101   c0,0-0.038,0.033-0.127,0.089c-0.089,0.056-0.195,0.117-0.195,0.117s-0.078,0.079-0.103,0.145s-0.031,0.093-0.07,0.189   c-0.039,0.097-0.039,0.097-0.039,0.097s-0.151,0.138-0.201,0.38c-0.05,0.242-0.049,0.132-0.06,0.331   c-0.012,0.199-0.012,0.199-0.012,0.199l-0.173,0.158l-0.104,0.095l-0.252,0.231c0,0-0.176,0.176-0.231,0.231   c-0.055,0.055,0.055-0.055-0.055,0.055c-0.11,0.11-0.11,0.331-0.11,0.331s-0.132,0.11-0.154,0.286   c-0.022,0.176-0.022,0.176-0.022,0.176s0.086,0.157-0.001,0.31c-0.087,0.153-0.224,0.426-0.224,0.426s-0.05,0.139-0.128,0.256   c-0.078,0.117,0,0-0.132,0.198c-0.132,0.198-0.268,0.276-0.268,0.276l-0.123,0.066c0,0-0.157,0.085-0.268,0.127   c-0.111,0.043,0.035-0.138-0.222,0.082c-0.257,0.22-0.2,0.378-0.2,0.378s0.033,0.128-0.032,0.365   c-0.065,0.237-0.047,0.172-0.085,0.309s0.156,0.402,0.156,0.402s0.012-0.013-0.091,0.103c-0.103,0.117,0.074-0.103-0.169,0.007   c-0.242,0.11-0.058,0.13-0.242,0.11c-0.184-0.02-0.296-0.042-0.296-0.042l-0.184-0.044c0,0-0.003,0.01-0.158-0.046   s-0.353-0.242-0.353-0.242s-0.015-0.015-0.105-0.056c-0.09-0.041-0.23-0.099-0.321-0.135s-0.235-0.096-0.235-0.096   s-0.162-0.096-0.229-0.141c-0.067-0.045-0.211-0.133-0.354-0.26c-0.144-0.128-0.296-0.221-0.296-0.221l-0.184,0.011   c0,0,0.02-0.001-0.17,0.061S16.515,36.3,16.515,36.3s-0.083-0.11-0.193,0.066c-0.11,0.176,0.044-0.088-0.11,0.176   c-0.154,0.264-0.202,0.456-0.202,0.456s-0.025,0.098-0.059,0.244s-0.091,0.402-0.091,0.402s0.022,0.074,0.071,0.122   s0.248,0.217,0.307,0.265C16.296,38.079,16.476,38.261,16.476,38.261z"> <title>Piura</title></path>
	<path id="2002" data-ng-click="$ctrl.openMap(2, '2002', true, $event)" fill="none" stroke="#020202" stroke-width="0.3" stroke-miterlimit="10" d="M41.551,26.891h0.617h0.353   c0,0.529,0,1.278,0,1.278l-0.22,0.353l0.22,0.397l1.763,0.661c0,0,0.088-0.22,0.264-0.22c0.176,0,1.102,0.529,1.102,0.529   l0.686,0.22c0,0,0.592-0.044,0.725-0.176c0.132-0.132-0.088,0.176,0.132-0.132c0.22-0.308,0.793-0.749,0.881-0.925   c0.088-0.176,0.529-0.837,0.529-0.837l0.308-0.353l1.014,0.308V28.5c0,0,0,0.066,0.308,0.198c0.308,0.132,1.234,0.22,1.234,0.22   v0.573c0,0,1.454,0.485,1.454,0.617c0,0.132-0.22,0.529,0,0.661c0.22,0.132,1.763,0.485,1.763,0.485l0.315,0.486l0.302,0.087   c0,0,0.881,0,1.014,0c0.132,0,0.132-0.044,0.264-0.22c0.132-0.176,0.529-0.592,0.529-0.592s-0.441-0.245,0-0.201   c0.441,0.044,0.353,0.138,0.573,0.201c0.22,0.063,1.058,0.328,1.058,0.328h1.322c0,0,0.176-0.214,0.176-0.328   c0-0.113-0.088-0.422,0-0.554c0.088-0.132,0.176-1.102,0.176-1.102l0.264-1.278c0,0,0.132-0.22,0.397-0.529   c0.264-0.308,0.176-0.264,0.573-0.661c0.397-0.397,0.32-0.441,0.689-0.705c0.369-0.264,0.986-0.661,0.986-0.661   s0.132-0.441,0.22-0.749c0.088-0.308,0-1.036,0-1.036l-0.573-0.639c0,0-0.088-0.441-0.132-0.573   c-0.044-0.132-0.308-0.837-0.308-0.837l-0.193-0.441l-0.248-0.617l-0.617-1.454c0,0-0.308-0.264-0.353-0.573   c-0.044-0.308-0.353-0.705-0.353-0.705s-0.257-0.529-0.194-0.661c0.062-0.132-0.132-0.449-0.132-0.449s-0.026-0.52,0.018-0.652   c0.044-0.132,0.132-0.485,0.22-0.661c0.088-0.176,0.308-0.485,0.088-0.485c-0.22,0-1.146,0.176-1.146,0.176l-0.573-0.176   l-0.529-0.22l-0.485-0.397c0,0-0.353-0.308-0.353-0.441c0-0.132,0.264-0.044,0.088-0.353c-0.176-0.308-0.793-1.146-0.793-1.146   s0.661-0.176-0.308-0.176c-0.969,0-2.6,0.881-2.6,0.881s-0.264,0-0.397,0.22c-0.132,0.22-0.661,0.397-0.661,0.397l-0.749,0.088   h-1.014l-0.353-0.088L50.32,13.23c0,0-0.043-0.051-0.33-0.356c-0.287-0.305-0.243-0.79-0.243-0.79s0.065,0.027-0.276-0.119   c-0.341-0.146-1.046-0.587-1.046-0.587c-0.264,0-1.014-0.132-1.014-0.132s-0.044-0.22-0.264-0.264   c-0.22-0.044-0.813-0.264-0.813-0.264s-0.421-0.176-0.509-0.308c-0.088-0.132,0.044-0.266-0.22-0.573   c-0.264-0.306-0.485-0.749-0.485-0.749h-0.881c0,0,0,0-0.22,0c-0.22,0-0.925,0-0.925,0s0.22,0-0.22-0.22   c-0.441-0.22-0.969-0.22-1.058-0.485c-0.088-0.264-0.617-0.485-0.617-0.485l-0.617,0.044v0.441l-0.837,0.481   c0,0-0.044,0.134-0.132,0.4c-0.088,0.266,0.044,0.048-0.088,0.266c-0.132,0.218-0.044-0.046-0.132,0.218   c-0.088,0.264-0.132,0.397-0.353,0.397c-0.22,0-0.176,0.264-0.308,0.353c-0.132,0.088-0.573,0.176-0.705,0.22   c-0.132,0.044-0.441-0.529-0.617-0.044C37.232,11.159,37,11.424,37,11.424l0.453,0.397l0.661,0.529c0,0,0.441,0.169,0.485,0.525   s0.019-0.128,0.044,0.356c0.025,0.484,0.035,0.704,0.035,0.704s0.009,0.398,0.009,0.795c0,0.397-0.047-0.031,0.215,1.059   s0.263,1.09,0.263,1.09l0.58,0.054c0,0-0.068-0.032,0.241,0.141c0.309,0.173,1.037,0.608,1.037,0.608s-0.485,0.397-0.132,0.397   s0.448,0.263,0.447,0.395s-0.05,0.309,0.038,0.629c0.088,0.32,0.088,0.32,0.088,0.32l0.925-0.507l0.817-0.171l0.461-0.27h0.441   l0.485,0.617h0.441l-0.016,0.59c0,0,0.332-0.018-0.116,0.423c-0.448,0.441-0.927,0.514-1.072,0.585   c-0.145,0.071-0.515,0.297-0.515,0.297l-0.617,0.22l-0.041,0.563l0.394,0.583l-0.397,0.176l-0.529,0.22l-0.22,0.529l0.22,0.617   v0.529l-0.353,0.573c0,0-0.156,0.292-0.176,0.661c-0.021,0.369-0.016,0.42,0.019,0.588C41.649,26.413,41.551,26.891,41.551,26.891z   "> <title>Ayabaca</title></path>
	<path id="2004" data-ng-click="$ctrl.openMap(2, '2004', true, $event)" fill="none" stroke="#020202" stroke-width="0.3" stroke-miterlimit="10" d="M50.1,46.898l0.529-0.617   c0,0,0.088-0.22,0.22-0.353c0.132-0.132,0.22-0.441,0.573-0.485c0.353-0.044,0.353-0.044,0.353-0.044l0.264-0.441   c0,0,0.044-0.088,0.264-0.264c0.22-0.176,0.705-0.881,0.705-0.881s0.176-0.044,0.353,0c0.176,0.044-0.132,0.088,0.176,0.044   c0.308-0.044,0.485-0.064,0.485-0.064v-0.356v-0.374c0,0,0.132-0.573-0.308-0.573s-1.014,0-1.014,0l-1.014-0.793   c0.264-0.22,0.705-0.485,0.705-0.485l0.176-0.353l0.529-0.749c0,0,0.397,0.044,0.529,0c0.132-0.044-0.007,0.176,0.415,0   c0.422-0.176,0.775-0.308,0.775-0.308l0.397-0.264c0,0-0.044-0.353,0-0.485c0.044-0.132-0.308-0.529-0.308-0.705   c0-0.176-0.441-1.366-0.441-1.498c0-0.132-0.397-0.661-0.397-0.661l-0.132-0.397l-0.308-0.827c0,0-0.176-0.715-0.132-0.936   c0.044-0.22,0.044-0.749,0.088-0.881c0.044-0.132,0.044-0.441,0.132-0.573c0.088-0.132,0.22-0.22,0.353-0.22   c0.132,0,0.617,0.132,0.749,0c0.132-0.132,0.485-0.529,0.485-0.529l-0.617-0.573c0,0-0.117,0.076-0.22,0   c-0.104-0.076-0.167-0.088-0.466-0.165c-0.299-0.076-0.68-0.075-0.68-0.075l-0.397-0.245v-0.661c0,0-0.371-0.219-0.5-0.269   s-0.545-0.206-0.545-0.206l-0.409-0.142c0,0,0,0.044,0-0.264c0-0.308,0.31-0.274,0-0.308c-0.31-0.035-1.234-0.22-1.234-0.22   l-0.308-0.705l-1.014-0.308l-0.308,0.353l-0.529,0.837c-0.383,0.406-0.179,0.21-0.383,0.406c-0.204,0.195-0.63,0.652-0.63,0.652   l-0.725,0.176l-0.686-0.22c0,0-0.329-0.185-0.469-0.256s-0.633-0.273-0.633-0.273l-0.264,0.22c0,0-0.43-0.161-0.613-0.23   c-0.184-0.069-1.149-0.431-1.149-0.431l-0.22-0.397l0.22-0.353c0-0.353,0-0.705,0-0.705l-0.118-0.486l-0.455-0.087h-0.397   l-0.563,0.374l-0.818,0.263l-0.286,0.421l-0.449-0.044c-0.397-0.176-0.712-0.432-0.712-0.432l-0.39-0.317l-0.408,0.654   l-0.253,0.404c0,0,0,0.044,0,0.308s-0.311-0.122,0,0.573s0.311,0.695,0.311,0.695s0.042-0.21,0.306,0.186   c0.264,0.397,0.264,0.397,0.264,0.397s0.221-0.042,0,0c-0.221,0.042-0.52,0.12-0.52,0.12s-0.071,0.016-0.335,0.098   c-0.265,0.082-0.265,0.082-0.265,0.082s-0.546,0.156-0.77,0.249c-0.225,0.093-0.225,0.093-0.225,0.093s-0.012-0.052-0.22,0.268   c-0.209,0.32-0.227,0.339-0.353,0.544c-0.126,0.205-0.353,0.529-0.353,0.529l-0.108,0.434c0,0,0.318,0.23-0.117,0.493   c-0.435,0.263-0.48,0.836-0.48,0.836s0.132,0,0,0.353c-0.132,0.353-0.132,0-0.132,0.353s-0.021,0.175,0,0.681   c0.021,0.506-0.062,0.377-0.009,0.73c0.053,0.353-0.018,1.111-0.018,1.111l1.156,0.429l0.464,0.259   c0.478,0.228,0.914,0.53,0.914,0.53s-0.013,0.056,0.313,0.271c0.326,0.215,0.622,0.382,0.84,0.61   c0.218,0.228,0.218,0.228,0.218,0.228l1.058,2.159l0.08,0.268l0.802,0.658l0.661,0.485c0,0,0.199,0.299,0.466,0.674   c0.266,0.376,0.504,0.692,0.504,0.692l0.479,0.329l0.504,0.223l0.317,0.151L43.61,45.4l0.629,0.301l1.542,0.58l0.264-0.308   c0,0,0.084-0.072,0.152-0.301c0.068-0.228,0.112-0.537,0.112-0.537l0.441-0.617l0.044-0.308l0.132-0.308l0.485-0.308l0.661-0.044   l0.529-0.111l0.793,0.64c0,0-0.156,0.203,0.076,0.432c0.232,0.229,0.364,1.154,0.364,1.154s-0.264,0.353,0,0.793   C50.1,46.898,50.1,46.898,50.1,46.898z"> <title>Morropón</title></path>
	<path id="2003" data-ng-click="$ctrl.openMap(2, '2003', true, $event)" fill="none" stroke="#020202" stroke-width="0.3" stroke-miterlimit="10" d="M49.836,46.898l0.176,0.176l0.278,0.237   l0.104,0.321l0.411,0.147c0,0,0.072,0.038,0.231,0.264c0.16,0.227,0.267,0.325,0.267,0.325l0.56,0.145l0.416,0.317   c0.145,0.638,0.046,0.523,0.05,0.793c0.004,0.27,0.138,0.084,0.029,0.417c-0.108,0.333-0.363,0.191-0.108,0.333   s0.7,0.284,0.7,0.284s0.176,0.235,0.264,0.235s0.343,0.068,0.343,0.068s0.186-0.038,0.215,0.197c0.029,0.235-0.077,0.943-0.215,1   c-0.138,0.058-0.402,0.41-0.402,0.498s0.529,0.485,0.529,0.485c0.088,0.279-0.217,0.103,0.093,0.191   c0.31,0.088-0.005-0.059,0.495,0c0.499,0.059,0.411,0.029,0.764,0.059c0.353,0.029,0.118,0.294,0.353,0.029   c0.235-0.264,0.353-0.279,0.353-0.279s0.969-0.044,0.94,0c-0.029,0.044,0.089,0.06,0.001,0.287   c-0.089,0.227,0.117,0.874,0.117,0.874s-0.204,0.646-0.117,0.911c0.088,0.264-0.001,0.118,0.088,0.264   c0.088,0.147,0.147,0.176,0.235,0.323c0.088,0.147,0.161,0.114,0.294,0.382c0.133,0.268,0.133,0.268,0.133,0.268l0.161,0.291   c0,0,0.529,0,0.646-0.029c0.118-0.029,1.146-0.088,1.146-0.235s0.117-0.318,0.117-0.318s0.305-0.029,0.535,0.115   c0.23,0.144,0.318-0.091,0.524,0.203s0.705,0.323,0.911,0.441c0.206,0.118,0.122,0.274,0.384,0.328   c0.262,0.054,0.85,0.788,0.967,0.788c0.118,0,0.099,0.441,0.27,0s0.259-0.353,0.259-0.734s0-0.705,0-0.705   s-0.059-0.059,0.147-0.206s0.264-0.382,0.529-0.441c0.264-0.059,0.793-0.353,0.881-0.382c0.088-0.029,0.294,0.323,0.147-0.264   c-0.147-0.588-0.235-1.087-0.353-1.293c-0.118-0.206-0.573-0.867-0.573-0.867s-0.632-0.495-0.661-0.578   c-0.029-0.083,0-0.406-0.029-0.495s-0.235-0.823-0.235-0.911s0-0.264,0.029-0.47c0.029-0.206,0.176-1.293,0.264-1.44   s0.235-0.734,0.294-0.911c0.059-0.176,0.147-0.734,0.147-1.028s0.206-0.793,0.029-0.911c-0.176-0.118-0.852-0.793-0.852-0.793   l-0.029-0.382c0,0,0-0.206,0.059-0.411c0.059-0.206,0.235-0.441,0.235-0.441l2.056-0.323c0,0-0.147,0.235,0.176,0   c0.323-0.235,0.382-0.206,0.499-0.382c0.118-0.176,0.264-0.353,0.264-0.558c0-0.206,0.176-0.558,0.059-0.823   c-0.118-0.264-0.323-0.47-0.235-0.823s-0.588-2.468-0.588-2.468l-0.382-0.059c0,0-0.558-0.294-0.441-0.588s0.176-0.264,0.147-0.734   c-0.029-0.47-0.118-0.969-0.118-0.969s-0.088-0.294-0.235-0.294c-0.147,0-0.881-0.059-0.852-0.176   c0.029-0.118-0.029-0.588,0.088-0.793c0.118-0.206,0.176-0.323,0.176-0.588c0-0.264,0-0.793,0-0.793l0.411-0.382l0.382-0.176   c0,0,0.088,0,0.206,0s0.264-1.028,0.264-1.028s0.067-0.023,0.411-0.206c0.344-0.183,0.58-0.425,0.804-0.477   c0.224-0.052,0.488-0.111,0.488-0.111l-0.088-1.058c0,0-0.294,0.206-0.088-0.147s0.294-0.676,0.47-0.823s0.47-0.529,0.47-0.529   l0.241-0.294c0,0-0.388-1.058-0.476-1.116c-0.088-0.059-0.147,0.059-0.206-0.118c-0.059-0.176-0.529-0.823-0.529-0.823   l-0.264-0.529l-0.823-0.499c0,0-0.176-0.147-0.235-0.411c-0.059-0.264-0.264-0.206-0.353-0.499s-0.382-0.47-0.382-0.47   s-0.088,0-0.323-0.147c-0.235-0.147-0.815-0.179-0.815-0.179s0.024,0.116,0.016,0.356c-0.008,0.24-0.051,0.488-0.128,0.747   c-0.077,0.259,0.019,0.345-0.131,0.443c-0.15,0.098-0.375,0.245-0.382,0.249c-0.007,0.005,0.143-0.104-0.231,0.154   c-0.373,0.258-0.756,0.621-0.756,0.621s-0.036,0.057-0.307,0.342c-0.271,0.285-1.002,1.345-1.002,1.345s-0.034,0.163-0.059,0.288   c-0.026,0.124-0.012,0.056-0.092,0.446c-0.081,0.39-0.295,1.652-0.295,1.652l-0.012,0.535c-0.273,0.053-0.273-0.079-0.42,0.053   c-0.147,0.132-0.176,0.132-0.441,0.132c-0.264,0-1.872-0.462-1.959-0.483c-0.087-0.021-0.259-0.046-0.259-0.046   s0.244-0.061,0,0.201c-0.244,0.262-0.294,0.316-0.352,0.382c-0.058,0.066,0.061-0.078-0.058,0.066   c-0.119,0.144-0.119,0.144-0.119,0.144s0.264-0.22,0,0c-0.264,0.22-0.455,0.22-0.544,0.22c-0.088,0-0.088,0-0.088,0   s-0.382,0-0.646,0c-0.264,0-0.278,0.308-0.278,0.308c-0.346,0.273-0.486,0.277-0.486,0.277l-0.293-0.035   c0,0,0.175-0.242-0.177-0.022c-0.353,0.22-0.353,0.22-0.353,0.22s-0.057,0.168-0.095,0.37c-0.038,0.202-0.177,1.032-0.114,1.396   c0.063,0.364,0.22,0.892,0.262,1.005c0.042,0.113,0.067,0.179,0.117,0.313s0.021,0.046,0.101,0.288   c0.081,0.242,0.28,0.525,0.28,0.525s0.089,0.094,0.143,0.236c0.054,0.142,0.223,0.718,0.223,0.718l0.115,0.353   c0,0,0.068,0.158,0.112,0.364c0.044,0.206,0.095,0.362,0.095,0.362s0.095,0.159,0.162,0.283c0.067,0.124,0.096,0.75,0.096,0.75   l-0.397,0.264l-0.602,0.237c0,0,0.028,0.149-0.28,0.11c-0.308-0.039-0.454-0.021-0.454-0.021s-0.097,0.006-0.24-0.006   c-0.143-0.012-0.015-0.193-0.143-0.012c-0.128,0.181-0.287,0.407-0.287,0.407s0.064-0.091-0.089,0.126   c-0.153,0.216-0.329,0.569-0.329,0.569s0.108-0.086-0.214,0.135s-0.491,0.35-0.491,0.35l1.014,0.793h1.014l0.22,0.08l0.103,0.266   c0,0-0.015-0.147-0.015,0.227c0,0.374,0,0.602,0,0.602v0.127l-0.485,0.064l-0.176-0.044c-0.353,0-0.387,0.052-0.473,0.17   c-0.086,0.118-0.248,0.333-0.248,0.333s0.123-0.112-0.107,0.133s-0.23,0.245-0.23,0.245l-0.264,0.264   c-0.264,0.441-0.409,0.459-0.409,0.459s-0.06-0.015-0.208,0.026c-0.148,0.041-0.191-0.005-0.324,0.161   c-0.132,0.166-0.249,0.323-0.249,0.323l-0.22,0.353c-0.284,0.331-0.284,0.331-0.284,0.331L50.1,46.898H49.836z"> <title>Huancabamba</title></path>
	<path id="2008" data-ng-click="$ctrl.openMap(2, '2008', true, $event)" fill="none" stroke="#020202" stroke-width="0.3" stroke-miterlimit="10" d="M15.645,40.008l0.523,0.677v0.198   c0,0,0.276,0.028,0.402,0.201c0.126,0.173,0.391,0.482,0.391,0.482l0.176,0.132c0,0,0.198,0.154,0.286,0.22   c0.088,0.066,0.264,0.176,0.264,0.176l0.176,0.154c0,0,0.11-0.044,0.154,0.11c0.044,0.154,0.11,0.198,0.176,0.375   c0.066,0.176,0.264,0.529,0.264,0.529s0.088,0.463,0.11,0.573c0.022,0.11,0.132,0.661,0.198,0.793   c0.066,0.132,0.353,0.573,0.353,0.573l0.22,0.463l0.308,0.507l0.441,0.441c0,0,0.176,0.375,0.22,0.485   c0.044,0.11,0.176,0.749,0.176,0.749s0-0.132,0,0.154c0,0.286,0,0.4,0,0.727s0,0.639-0.088,0.925   c-0.088,0.286-0.198,0.551-0.242,0.903c-0.044,0.353-0.088,0.661-0.11,0.793c-0.022,0.132-0.066,0.264-0.066,0.264   s-0.066,0.375-0.132,0.529c-0.066,0.154-0.132,0.22-0.176,0.308c-0.044,0.088-0.176,0.22-0.286,0.353   c-0.11,0.132-0.463,0.353-0.551,0.397c-0.088,0.044-0.639,0.375-0.639,0.375s-0.066-0.22-0.353-0.066   c-0.286,0.154-0.529,0.308-0.529,0.308s-0.242,0.022-0.441,0c-0.198-0.022-0.397-0.088-0.507-0.154   c-0.11-0.066-0.331-0.514-0.507-0.521C15.683,53.134,15,52.869,15,52.869l-0.264-0.132l-0.485-0.198l-0.331-0.264   c0,0-0.088-0.022-0.154,0.132c-0.066,0.154-0.022,0.308-0.176,0.353c-0.154,0.044-0.044-0.044-0.264,0.198   c-0.22,0.242-0.331,0.286-0.353,0.419c-0.022,0.132,0.242,0.132,0,0.353c-0.242,0.22-0.353,0.33-0.353,0.33s0.022-0.11-0.198,0.154   c-0.22,0.264-0.419,0.264-0.573,0.419c-0.154,0.154-0.793,0.903-0.793,0.903l0.507,1.036l0.088,0.485c0,0-0.022,0.375-0.044,0.485   c-0.022,0.11,0.044,0.375,0.044,0.375l-0.066,1.41L12.841,61l2.38,1.212l1.08,0.573l0.992,0.419c0,0,0.947,0.749,1.432,0.903   c0.485,0.154,0.639,0.154,0.639,0.154l0.727,0.242l0.397,0.573l0.749,1.079c0,0,0.154,0.485,0.22,0.595   c0.066,0.11,0.419,0.463,0.441,0.529c0.022,0.066,0.154,0.11,0.154,0.11l0.595,0.154l1.675,0.859l0.595,0.176   c0,0,0.463,0.286,0.573,0.331c0.11,0.044,0.639,0.198,0.639,0.198h0.375l0.397,0.198c0,0,0.264,0.198,0.375,0.154   c0.11-0.044,0.485,0.006,0.485,0.006l0.308-0.006l0.331-0.639l0.176-0.419l0.201-0.51l0.966-1.693l-0.169-0.538l0.169-0.696   c0,0,0.286-0.353,0.375-0.463c0.088-0.11,0.673-0.632,0.673-0.632l0.992-1.304l0.567-0.747l0.412-0.468   c0,0,0.308-0.419,0.286-0.595c-0.021-0.176,0.441-0.463,0.441-0.463l0.397-0.551l0.419-0.639l0.22-0.264   c0,0,0.308-0.331,0.485-0.441c0.176-0.11,0.617-0.551,0.617-0.551l0.463-0.551c0,0,0.044-0.397,0.11-0.507   c0.066-0.11,0.235-0.424,0.292-0.476c0.057-0.052,0.054-0.049,0.31-0.282s0.285-0.255,0.372-0.321   c0.088-0.067,0.501-0.306,0.501-0.306l1.653-0.112l1.022,0.109l1.182-0.043l0.353-0.176l0.375-0.646l0.441-0.059   c0,0,0.176-0.353,0.235-0.441c0.059-0.088,0.382-0.375,0.382-0.375v-0.228l0.22-0.411h-0.441l-0.468-0.251l-0.402-0.206   l-0.284-0.201l-0.353-0.263l-0.374-0.287l-0.251-0.168l-0.267-0.145l-0.253-0.148l-0.299-0.2L39.78,50.84l-0.477-0.417   l-0.177-0.112l-0.334,0.08l-0.15,0.032l-1.146-0.485L37,49.146h-0.429l-1.234-0.485h-1.454l-1.572-0.759c0,0-0.277-0.22-0.471-0.27   c-0.194-0.05-0.305,0.032-0.305,0.032l-0.206,0.061c0,0,0.001,0.029-0.089,0.02c-0.09-0.009-0.222-0.034-0.222-0.034   s-0.194,0.023-0.273,0.032c-0.079,0.009-0.201,0.017-0.201,0.017l-0.231-0.024l-0.162-0.089c0,0-0.19-0.394-0.368-0.615   c-0.178-0.221-0.571-0.663-0.571-0.663l-0.189-0.541l0.056-0.12l-0.033-0.19l-0.062-0.3l-0.028-0.176l-0.029-0.238l-0.019-0.219   l-0.024-0.267l-0.03-0.167l-0.037-0.14l-0.061-0.164l-0.082-0.153l-0.124-0.145c0,0-0.289-0.146-0.446-0.219   c-0.157-0.073-0.421-0.196-0.421-0.196s-0.398-0.217-0.497-0.227c-0.1-0.01-0.15,0.004-0.15,0.004l-0.073,0.043l-0.077,0.032   l-0.141-0.01l-0.034-0.074l-0.055-0.044l0.047-0.073l0.021-0.085l0.017-0.109c0,0,0.011-0.003-0.021-0.029   s-0.072-0.011-0.072-0.011s-0.034-0.05-0.04-0.053c-0.007-0.003-0.107-0.035-0.107-0.035l-0.129-0.032l-0.063-0.013   c0,0-0.025-0.005-0.036-0.007c-0.011-0.002-0.054-0.01-0.054-0.01l-0.043-0.007l-0.071-0.011l-0.198-0.025l-0.113-0.075   l-0.048-0.032l-0.235-0.157l-0.851-0.301l-0.647-0.228l-0.22-0.264l-1.058-0.308v-0.22c0,0-0.318-0.064-0.423-0.092   c-0.105-0.028-0.376-0.114-0.376-0.114l-0.124-0.052c0,0-0.054-0.028-0.072-0.039c-0.018-0.011-0.058-0.036-0.075-0.045   c-0.017-0.009-0.084-0.034-0.084-0.034s-0.076-0.022-0.118-0.003c-0.042,0.019-0.094,0.071-0.094,0.071s-0.586-0.247-0.66-0.269   s-0.212-0.059-0.265-0.067c-0.052-0.008-0.16-0.016-0.16-0.016l-0.81-0.353l-0.925-0.22l-0.264-0.397l-0.925-0.617l-0.22-0.264   h-0.661l0.039,0.273c0,0-0.023,0.149-0.039,0.19s-0.034,0.195-0.034,0.195l0.028,0.098c0,0,0.01,0.019,0.006,0.06   c-0.004,0.041-0.022,0.098-0.022,0.098l-0.088,0.056l-0.329,0.157l-0.046,0.019c0,0-0.037,0.028-0.051,0.062   c-0.014,0.034-0.052,0.189-0.052,0.189l-0.03,0.278L15.645,40.008z"> <title>Sechura</title></path>
</g>
</svg>
