<?xml version="1.0" encoding="utf-8"?>
<svg xmlns="http://www.w3.org/2000/svg" xmlns:xlink="http://www.w3.org/1999/xlink" version="1.1" id="25" x="0px" y="0px" viewBox="0 0 74 71" enable-background="new 0 0 74 71" xml:space="preserve">
	<title>Ucayali</title>
<g>
	<path id="2504" data-ng-click="$ctrl.openMap(2, '2504', true, $event)" fill="none" stroke="#020202" stroke-width="0.3" stroke-miterlimit="10" d="M50.457,43.468c0,0,0.029,0.403-0.023,0.504   c-0.052,0.101-0.118,0.227,0.016,0.302c0.133,0.076,0.158,0.151,0.209,0.277c0.05,0.126,0.176,0.378,0.176,0.478s0,0.403,0,0.403   s0.327,0.151,0,0.176c-0.327,0.025-0.248-0.176-0.464,0c-0.216,0.176-0.367,0.277-0.367,0.277h-0.201l-0.101,0.176h-1.485   c0,0-0.05,0.151-0.126,0.176c-0.076,0.025-0.378,0-0.378,0v0.352h-0.554l-0.151,0.352c0,0-0.151,0.025-0.201,0.101   c-0.05,0.076-0.277,0.138-0.277,0.295c0,0.158-0.025,0.535,0,0.687c0.025,0.151,0.101,0.755,0.101,0.755l0.327,0.176   c0,0,0.277,0.403,0.277,0.554s-0.176,0.478-0.176,0.478s0.403,0.302,0.554,0.428s0.126,0.352,0.101,0.428   c-0.025,0.076,0.025,0.076-0.101,0.277c-0.126,0.201-0.101,0.176-0.189,0.327c-0.088,0.151-0.063,0-0.088,0.151   c-0.025,0.151,0.227-0.076-0.025,0.151c-0.252,0.227-0.378,0.126-0.428,0.227c-0.05,0.101-0.101,0.176-0.151,0.352   c-0.05,0.176-0.213,0.755-0.213,0.755l0.263,1.032l0.277,0.302c0,0,0.101,0.126,0.151,0.352c0.05,0.227,0.025,0.529,0.076,0.629   c0.05,0.101,0.478,0.277,0.478,0.277s0.302-0.151,0.352,0c0.05,0.151,0.378,0.378,0.478,0.378c0.101,0-0.042-0.101,0.155-0.076   c0.197,0.025,1.129,0.076,1.129,0.076v0.378c0,0-0.025,0.151,0.176,0.151s0.201,0,0.201,0l0.178-0.341l1.534-0.087   c0,0,0.252-0.201,0.378-0.252c0.126-0.05,0.419-0.226,0.629-0.327s0.352-0.227,0.504-0.176c0.151,0.05,0.629,0.101,0.629,0.101   l0.201,0.302l1.485,0.453l0.126-0.126l0.227-0.101c0,0,0.186-0.001,0.302-0.076c0.116-0.075,0.393-0.052,0.554-0.05   c0.161,0.002,0.655,0.05,0.655,0.05s0.41,0.059,0.533-0.021c0.122-0.08,0.827-0.13,0.827-0.13l0.957-0.277   c0,0,0.579,0.126,0.705,0.076c0.126-0.05,0.504-0.227,0.579-0.352s0.227-0.352,0.227-0.352l-0.199-0.178l0.715-0.722l0.189-0.41   v-0.932l0.045-0.579l0.862-0.504l0.352-0.755l0.327-0.529l0.277-0.277l0.529-0.378l0.378-0.277l0.252-0.201l0.906-0.554   l0.227-0.252l0.478-0.453l0.227-0.403l0.076-2.467v-0.252l1.591-1.02l0.172-0.189v-0.352l0.453-0.151l0.151-0.302l0.035-0.135   l-0.038-0.429l0.507-0.191v-0.755l0.428-0.428h0.428l0.252-0.076V39.49l-0.705-0.604l-0.05-0.705l0.881-0.856l0.176-0.201V36.67   v-0.403l-0.453-0.126h-0.327l-0.126,0.176l-0.579,0.453l-0.277,0.403l-0.302,0.201c0,0-0.68,0.655-0.755,0.73   c-0.076,0.076-0.806,0.781-0.806,0.781s-0.453,0.05-0.529,0.076c-0.076,0.025-0.554,0.302-0.554,0.302l-0.176,0.277l-0.478,0.781   l-0.277,0.126c0,0-0.05-0.05-0.227,0c-0.176,0.05-0.176,0.025-0.176,0.176c0,0.151-0.025,0.378-0.076,0.478s0.076,0.025-0.05,0.101   c-0.126,0.076-0.453,0.025-0.453,0.025h-0.227c0,0-0.101,0.025-0.227,0.05c-0.126,0.025-0.277,0.076-0.277,0.076   s-0.025,0.101-0.151,0.151c-0.126,0.05-0.076,0.05-0.302,0.201c-0.227,0.151-0.352,0.151-0.352,0.151l-0.151,0.05   c0,0-0.176,0.176-0.227,0.352c-0.05,0.176-0.101,0.428-0.101,0.428l-0.126,0.227c0,0-0.529,0.302-0.705,0.302   c-0.176,0-0.655,0.05-0.655,0.05c-0.151-0.126-0.352-0.352-0.352-0.352l-0.252,0.151l-0.302,0.403H50.457z"> <title>Purús</title></path>
	<path id="2501" data-ng-click="$ctrl.openMap(2, '2501', true, $event)" fill="none" stroke="#020202" stroke-width="0.3" stroke-miterlimit="10" d="M22.119,42.222l0.264-0.214v-0.352   c0,0,0.193-0.113,0.304-0.189c0.111-0.076,0.414-0.264,0.414-0.264s0.113-0.076,0.227-0.227s-0.264-0.227,0-0.34   c0.264-0.113,0.038,0.189,0.264-0.113c0.227-0.302,0.34-0.378,0.453-0.415c0.113-0.038,0.68-0.189,0.68-0.189l0.302-0.302h1.284   l0.378,0.227c0.264,0.113,0.491-0.227,0.491-0.227s-0.038-0.076,0.264,0c0.302,0.076,0.604,0,0.604,0   c0.453-0.189,0.384-0.302,0.683-0.189s0.035,0.038,0.299,0.113c0.264,0.076,0.227,0.038,0.453,0.113   c0.227,0.076,0.491,0.151,0.491,0.151s-0.302,0,0-0.189c0.302-0.189,0.302-0.189,0.302-0.189l0.264-0.415   c0.453-0.264,0.566-0.34,0.68-0.378c0.113-0.038,0.302-0.264,0.302-0.264s0.227-0.227,0.302,0c0.076,0.227,0.264,0.453,0.453,0.68   c0.189,0.227,0.453,0.566,0.604,0.642c0.151,0.076,0.038-0.038,0.415,0.302c0.378,0.34-0.076-0.038,0.378,0.34   c0.453,0.378,0.604,0.604,0.68,0.718s0.227,0,0.264,0.264s0,0.453,0,0.453l0.68,0.239c0,0,0.302-0.101,0.415,0   c0.113,0.101,0.076,0.063,0.227,0.214c0.151,0.151-0.151-0.076,0.151,0.151c0.302,0.227,0.378,0.227,0.529,0.491   c0.151,0.264,0.153,0.113,0.379,0.604c0.225,0.491,0.225,0.491,0.225,0.491s0.264-0.227,0.453,0   c0.189,0.227,0.302,0.491,0.302,0.491s0,0.227,0.189,0.227c0.189,0,0.34,0.189,0.453,0c0.113-0.189,0-0.453,0-0.453l0.264-0.227   c0,0,0.076-0.529,0.189-0.529s0.151-0.038,0-0.264c-0.151-0.227-0.415-0.378-0.415-0.491s0-0.378,0-0.378l-0.415-0.327   c0,0-0.34-0.407-0.378-0.493c-0.038-0.086-0.113-0.615-0.113-0.615l-0.189-0.453l-0.151-0.415l-0.113-1.586l-0.151-0.176   c0,0-0.076-0.201,0.038-0.352s0.151-0.378,0.151-0.378l-0.189-0.271l-0.15-0.598l0.364-0.504l-0.063-0.293   c0,0,0.057-0.167,0.113-0.167c0.057,0,0.397-0.205,0.397-0.205s0.107-0.078,0.132-0.21c0.025-0.132,0.019-0.189,0.076-0.227   c0.057-0.038,0.189-0.17,0.189-0.17s0.076-0.264,0.17-0.359c0.094-0.094,0.296-0.485,0.296-0.485s0.063-0.138,0.12-0.195   C38.85,33.8,38.85,33.8,38.85,33.8s0.18-0.076,0.326-0.094c0.146-0.019,0.505-0.107,0.505-0.107l0.101-0.302   c0,0,0.069-0.082,0.201-0.271c0.132-0.189,0.34-0.189,0.34-0.189l0.365-0.195l-0.05-2.065l-0.352-0.201v-0.277l-1.41-1.032   l-0.138-0.459l-0.17-0.491l-0.245-0.264l-0.705-0.85l-0.252,0.05l-0.364-0.039l-0.322-0.011l-0.302-0.057l-0.422-0.094   l-0.201-0.472c0,0-0.088-0.183-0.094-0.283c-0.006-0.101-0.006-0.352-0.006-0.352s-0.164-0.138-0.164-0.214s0.013-0.29,0.013-0.29   l0.082-0.183l0.17-0.208l0.076-0.227l-0.176-0.29h-0.252l-0.384-0.107l-0.17-0.145l-0.378-0.459l-0.277-0.296l-0.403-0.12   l-0.201-0.132h-0.352l-0.088-0.378l0.057-0.208l-0.069-0.774l-0.554-0.604c0,0-0.025-0.17-0.05-0.302   c-0.025-0.132-0.025-0.434-0.025-0.434s-0.113-0.057-0.076-0.17c0.038-0.113,0-0.352,0-0.352l-0.453-0.655   c0,0-0.038-0.22-0.038-0.277c0-0.057,0.038-0.227,0.038-0.227l-0.227-0.264l-0.932-0.793h-0.252l-0.554-0.806l0.101-0.403h0.453   h0.403l0.063-0.264l0.088-0.189l-0.013-0.699v-0.208l-0.359-0.189l-0.529-0.094c0,0-0.227-0.094-0.283-0.113   c-0.057-0.019-0.378-0.189-0.378-0.189l-0.403-0.321l-0.296-0.245l-0.397-0.208l-0.214-0.201l-0.403-0.302l-0.05-0.352   l-0.302-0.201l-0.252-0.252l0.126-0.164l-0.076-0.227l-0.115-0.175l-0.277-0.155L26.7,11.581l-0.126-0.05l-0.262-0.089   l-0.242-0.121l-0.186-0.093c0,0-0.063-0.005-0.138,0c-0.076,0.005-0.228-0.076-0.228-0.076l-0.32,0.035l-0.184-0.01l-0.174-0.114   l-0.455-0.515l-0.126-0.151l-0.437-0.213l-0.569-0.203l-0.375-0.174l-0.189-0.137l-0.419-0.305c0,0-0.319-0.095-0.451-0.114   c-0.132-0.019-0.255-0.196-0.43-0.163s-0.59,0-0.59,0l-0.871,0.579l-0.126,0.529l-0.352,0.629c0,0-0.216,0.152-0.151,0.252   c0.065,0.1-0.139,0.198-0.162,0.289c-0.023,0.09-0.113,0.453-0.113,0.453l-0.038,0.491c0,0.113-0.23,0.027-0.04,0.202   c0.191,0.175,0.227,0.277,0.227,0.277l0.247,0.295l0.076,0.208l0.097,0.202l0.127,0.27l0.04,0.15l-0.167,0.183   c0,0,0.044,0.093,0.124,0.2c0.08,0.107,0.213,0.334,0.213,0.334l0.3,0.246l0.04,0.245c-0.115,0.133-0.397,0.264-0.397,0.264   l-0.096,0.297c0,0-0.098,0.156-0.145,0.257c-0.047,0.101-0.177,0.315-0.177,0.315l-0.132,0.234l-0.176,0.176l-0.151,0.327   l-0.076,0.126l-0.227,0.277l-0.365,0.092c0,0-0.099,0.091-0.214,0.11c-0.115,0.018-0.327,0.101-0.327,0.101   s-0.237,0.147-0.327,0.126c-0.09-0.022-0.392,0.066-0.392,0.066l-0.16,0.084l-0.128,0.102c0,0,0.809-0.09-0.174-0.045   c-0.984,0.045-1.341,0.076-1.341,0.076l-0.237,0.037l-0.101-0.076l-0.209-0.017l-0.405-0.226l-0.369-0.095   c0,0-0.181-0.171-0.283-0.113c-0.103,0.058-0.2-0.058-0.302,0c-0.103,0.058-0.34-0.057-0.397,0.057   c-0.057,0.113-0.067,0.135-0.213,0.152c-0.146,0.017-0.4,0.1-0.4,0.1s0,0.014-0.166,0.126c-0.166,0.112-0.166,0.112-0.166,0.112   l-0.172,0.316c0,0-0.074,0.213-0.093,0.326c-0.019,0.113-0.003,0.27-0.059,0.429c-0.056,0.159-0.017-0.089-0.149,0.213   c-0.132,0.302-0.044,0.318-0.132,0.302c-0.088-0.016-0.208-0.038-0.208-0.038s-0.291-0.071-0.329-0.174   c-0.038-0.102-0.29-0.153-0.29-0.153s0.054-0.102-0.099-0.051c-0.153,0.051-0.283,0.189-0.283,0.189l-0.529,0.283   c0,0-0.113,0-0.378,0.094c-0.264,0.094-0.155-0.001-0.264,0.094c-0.109,0.095-0.08,0.043-0.17,0.245   c-0.09,0.202-0.09,0.202-0.09,0.202l0.039,0.1l0.176,0.093l0.219,0.116c0,0,0.094,0.038,0.109,0.043   c0.015,0.005,0.311,0.092,0.311,0.092l0.172,0.042l0.143,0.028l0.13,0.014l0.487,0.039l0.114-0.009l0.1-0.013l0.092,0.004   c0,0,0.156,0.019,0.167,0.02c0.011,0.001,0.121,0.002,0.121,0.002l0.219-0.04l0.045,0l-0.004,0.023l0.337,0.04l0.104,0.012   l0.163,0.02l0.34,0.041c0,0,0.398,0.118,0.429,0.127c0.031,0.008,0.109,0.029,0.109,0.029l0.096,0.024l0.244,0.035l0.075,0.001   l0.053-0.001l0.1-0.004l0.433-0.003l0.095,0.011c0,0,0.048,0.04,0.074,0.108c0.026,0.067,0.067,0.202,0.067,0.202l0.054,0.25   c0,0,0.069,0.128,0.091,0.165c0.022,0.037,0.271,0.492,0.271,0.492s0.016,0.07,0.01,0.101c-0.006,0.031-0.029,0.106-0.029,0.106   l-0.005,0.067l-0.051,0.688c0,0,0.084,0.438,0.086,0.452c0.002,0.014,0.012,0.091,0.012,0.091s0.052,0.086,0.147,0.146   c0.095,0.061,0.17,0.103,0.17,0.103l0.208,0.434L15,25.435l-0.189,0.529l-0.071,0.361l-0.06,0.183l-0.058,0.044l-0.057,0.036   l-0.034,0.036l-0.054,0.062l-0.05,0.067c0,0-0.027,0.035-0.032,0.062c-0.005,0.027-0.008,0.11-0.008,0.11l0.012,0.5   c0,0,0.006,0.11,0.054,0.193s0.1,0.154,0.133,0.172c0.032,0.018,0.073,0.042,0.081,0.05c0.008,0.007,0.04,0.045,0.044,0.056   c0.004,0.011,0.02,0.112,0.02,0.112l0,0.072l-0.033,0.265c0,0,0,0.069,0,0.09c0,0.021,0,0.21,0,0.21s-0.007,0.102-0.052,0.236   c-0.044,0.134-0.062,0.201-0.062,0.201l-0.078,0.21l-0.061,0.108l-0.048,0.075l-0.078,0.084l-0.069,0.064l-0.029,0.096l0.101,0.042   c0,0,0.046,0.081,0.051,0.087c0.005,0.006,0.073,0.066,0.073,0.066l0.082,0.296l0.024,0.067c0,0,0.033,0.013,0.132,0.009   c0.1-0.004,0.27-0.039,0.27-0.039s0.028-0.006,0.111-0.021c0.083-0.015,0.132-0.05,0.179-0.126   c0.047-0.076,0.085-0.264,0.085-0.264s0.047-0.094,0.066-0.264c0.019-0.17,0.013-0.252,0.013-0.252s-0.013-0.126,0.016-0.183   c0.028-0.057,0.079-0.271,0.132-0.397s0.104-0.17,0.142-0.274c0.038-0.104-0.047-0.085,0.113-0.274s0.12-0.195,0.161-0.189   c0.041,0.006,0.161-0.113,0.161-0.113l0.256-0.119c0,0,0.216-0.221,0.216-0.278c0-0.057-0.066-0.397-0.066-0.444   c0-0.047,0-0.293,0.019-0.321c0.019-0.028,0.362-0.176,0.397-0.186c0.035-0.01,0.203-0.098,0.267-0.14s0.106,0,0.174-0.063   c0.068-0.064,0.22-0.149,0.22-0.149l0.274,0.038l0.293-0.132l0.255-0.085c0,0,0.12,0.035,0.208,0.009   c0.088-0.025,0.227-0.009,0.227-0.009s-0.059-0.007,0.093,0.011c0.152,0.017,0.273-0.027,0.273-0.027h0.246   c0,0,0.16,0.032,0.197,0.039c0.036,0.007,0.144,0.118,0.144,0.118l0.217,0.17c0,0,0.076,0.019,0.161,0.057   c0.085,0.038,0.209,0.14,0.209,0.14l0.084,0.069l-0.038,0.471c0,0,0.142,0.236,0.161,0.283c0.019,0.047,0.086,0.253,0.086,0.253   s-0.01,0.096-0.067,0.153c-0.057,0.057-0.153,0.058-0.194,0.09s-0.026,0.065-0.124,0.096c-0.098,0.031-0.183,0.05-0.183,0.05   l-0.415,0.161c0,0-0.097,0.01-0.132,0.113c-0.035,0.103-0.132,0.076-0.189,0.142c-0.057,0.066-0.076,0.076-0.094,0.123   c-0.019,0.047-0.113,0.293-0.113,0.293s-0.028,0.132-0.028,0.179c0,0.047-0.003,0.123-0.028,0.274   c-0.025,0.151-0.077,0.237-0.077,0.238c0,0.001-0.027,0.111-0.045,0.178s-0.079-0.129-0.079,0.138s0,0.321,0,0.362s0,0.245,0,0.283   c0,0.038-0.012,0.415-0.012,0.415l0.034,0.255c0,0-0.016,0.58-0.008,0.635c0.008,0.055,0.103,0.404,0.103,0.432   c0,0.028-0.019,0.33-0.019,0.359c0,0.028,0,0.123,0,0.151c0,0.028,0.085,0.349,0.085,0.349l0.179,0.189l0.066,0.255   c0,0,0.217,0.406,0.227,0.434c0.009,0.028,0.101,0.211,0.101,0.211s0.013,0.12,0.003,0.167c-0.009,0.047-0.095,0.219-0.062,0.289   c0.033,0.07,0.052,0.183,0,0.23c-0.052,0.047-0.258,0.134-0.258,0.134l-0.187,0.187l-0.302,0.453c0,0-0.135,0.191-0.145,0.261   c-0.009,0.07,0,0.06-0.066,0.173c-0.066,0.113-0.076,0.179-0.076,0.179l0.038,0.217c0,0,0.132,0.047,0.132,0.076   s0.137,0.222,0.137,0.222s0.26,0.038,0.274,0.038c0.014,0,0.076-0.019,0.109-0.019c0.033,0,0.212,0.052,0.212,0.052   s0.052,0.005,0.104,0c0.052-0.005,0.123,0.009,0.123,0.009l0.109,0.071c0,0,0.024,0.014,0.038,0.052   c0.014,0.038,0.052,0.137,0.052,0.137l0.061,0.165c0,0,0.033,0.057,0.042,0.127c0.009,0.071,0.019,0.184,0.019,0.184   s0.052,0.033-0.005,0.123c-0.057,0.09-0.132,0.217-0.132,0.217l-0.071,0.038c0,0-0.038,0.019-0.057,0.028   c-0.019,0.009-0.033,0.024-0.042,0.038c-0.009,0.014,0.005-0.014-0.009,0.014c-0.014,0.028-0.038,0.038-0.019,0.061   c0.019,0.024,0.142,0.071,0.165,0.076c0.024,0.005,0.033-0.019,0.052,0.019c0.019,0.038-0.052,0.038,0.042,0.071   c0.094,0.033,0.094-0.009,0.198,0.085c0.104,0.094,0.061,0.113,0.17,0.113s0.08-0.052,0.142,0.005c0.061,0.057,0.5,0.142,0.5,0.142   s0.08,0.104,0.08,0.165c0,0.061,0.028,0.165,0.028,0.165l-0.009,0.217l-0.009,0.156l0.033,0.194l0.085,0.722   c0,0,0.066,0.222,0.071,0.236c0.005,0.014,0.312,0.312,0.312,0.326c0,0.014,0.028,0.255,0.028,0.255s0.085,0.137,0.09,0.151   c0.005,0.014,0.009,0.283,0.009,0.283l0.071,0.538c0,0,0.019,0.175,0.019,0.194s0.042,0.113,0.042,0.113l0.127,0.028L22.119,42.222   z"> <title>Coronel Portillo</title></path>
	<path id="2502" data-ng-click="$ctrl.openMap(2, '2502', true, $event)" fill="none" stroke="#020202" stroke-width="0.3" stroke-miterlimit="10" d="M37.365,36.167l6.194-0.05l0.705,0.378   l0.73,0.239l0.504,0.164l0.189,0.076l1.347-0.151l0.352,0.101l0.617,0.239l0.138,0.214l0.529,0.327l0.478,0.076v0.755l0.164,0.365   c0,0,0.214,0.491,0.214,0.529s0.063,0.34,0.063,0.34l-0.39,0.025l-0.063,0.113c0,0,0,0.201,0.038,0.277   c0.038,0.076,0.126,0.151,0.138,0.214c0.013,0.063,0.378,0.164,0.378,0.164l0.315-0.013c0,0,0.453,0.29,0.478,0.327   c0.025,0.038,0.264,0.415,0.227,0.466s-0.151,0.541-0.176,0.592c-0.025,0.05-0.138,0.34-0.138,0.34l0.126,0.352l-0.063,0.843   l0.007,0.309l-0.03,0.195l-0.062,0.164c0,0,0.026,0.09,0.105,0.155c0.079,0.066,0.156,0.197,0.156,0.197l0.134,0.316l0.062,0.182   l0.005,0.446l0.113,0.07l0.023,0.07l-0.1,0.033l-0.098,0.006h-0.076l-0.054-0.021l-0.068-0.031l-0.059-0.022l-0.064,0.017   l-0.121,0.088l-0.327,0.244h-0.201l-0.101,0.176h-1.485l-0.126,0.176h-0.378v0.352h-0.554l-0.151,0.352   c0,0-0.095,0.005-0.148,0.053c-0.053,0.048-0.121,0.106-0.121,0.106s-0.207,0.115-0.209,0.238c-0.003,0.122,0,0.687,0,0.687   l0.101,0.755l0.327,0.176c0,0,0.158,0.252,0.181,0.296c0.023,0.044,0.076,0.138,0.086,0.198c0.01,0.06-0.005,0.17-0.031,0.238   c-0.026,0.067-0.135,0.3-0.135,0.3l0.5,0.384c0,0,0.114,0.087,0.137,0.154c0.023,0.067,0.081,0.147,0.011,0.353   c-0.07,0.205-0.194,0.412-0.194,0.412l-0.088,0.159l-0.05,0.068l-0.021,0.008c0,0-0.016,0.046-0.017,0.075   c-0.001,0.029,0.044,0.055,0.044,0.055l0.014,0.02l-0.067,0.061l-0.107,0.087l-0.089,0.051l-0.081,0.03   c0,0-0.137,0.036-0.144,0.043s-0.024,0.031-0.024,0.031s-0.116,0.232-0.144,0.329c-0.028,0.097-0.083,0.293-0.096,0.339   c-0.013,0.047-0.123,0.439-0.123,0.439l0.263,1.032c0,0,0.232,0.253,0.245,0.267c0.014,0.015,0.099,0.123,0.133,0.223   s0.062,0.189,0.072,0.302c0.01,0.113,0.018,0.336,0.03,0.397c0.012,0.061,0.028,0.117,0.084,0.155   c0.056,0.038,0.418,0.216,0.418,0.216s0.113-0.05,0.161-0.057c0.049-0.008,0.111-0.014,0.138,0.002   c0.027,0.016,0.065,0.094,0.096,0.132c0.031,0.038,0.099,0.107,0.129,0.131c0.029,0.024,0.181,0.13,0.226,0.147   c0.045,0.017,0.092,0.027,0.103,0.02s0.006-0.055,0.029-0.064s0.094-0.008,0.148-0.003c0.054,0.005,1.084,0.071,1.084,0.071v0.378   c0,0-0.006,0.109,0.066,0.128c0.072,0.02,0.312,0.023,0.312,0.023h0.073l-0.086,0.277l0.189,0.277l0.352,0.264l0.214,0.05   l-0.074,0.146l-0.172,0.288c0,0-0.038,0.126-0.069,0.157c-0.031,0.031-0.097,0.111-0.097,0.111s-0.19,0.253-0.209,0.264   c-0.019,0.011-0.135,0.142-0.135,0.167s-0.038,0.094-0.038,0.138c0,0.044,0,0.441,0,0.441l-0.048,0.289l-0.349,0.599   c0,0-0.195,0.069-0.252,0.088c-0.057,0.019-0.22,0.006-0.302,0c-0.082-0.006-0.258-0.019-0.535,0   c-0.277,0.019-0.743,0.22-0.743,0.22l-0.327,0.185c0,0-0.201-0.104-0.227,0c-0.025,0.104-0.088,0.205-0.164,0.218   c-0.076,0.013-0.428,0.126-0.428,0.126l-0.151,0.252h-0.252l-0.113,0.277l-0.126,0.151l-0.113,0.076l-0.076,0.113   c0,0-0.063-0.04-0.181,0c-0.118,0.04-0.247,0.053-0.285,0.055c-0.038,0.002-0.088,0.083-0.164,0.008   c-0.076-0.076-0.142-0.178-0.142-0.178s-0.148-0.061-0.173-0.112c-0.025-0.05-0.088-0.15-0.113-0.214   c-0.025-0.064-0.29-0.126-0.29-0.126s-0.126-0.05-0.189-0.05c-0.063,0-0.242,0.101-0.242,0.101s-0.186-0.038-0.224-0.076   c-0.038-0.038-0.164-0.088-0.201-0.113c-0.038-0.025-0.504-0.214-0.504-0.214s-0.13,0.002-0.214,0.038   c-0.084,0.036-0.378,0.113-0.415,0.164c-0.038,0.05-0.105,0.101-0.214,0.101c-0.109,0-0.201-0.025-0.302-0.013   s-0.164-0.038-0.164-0.038s-0.121-0.105-0.18-0.16s-0.21-0.092-0.261-0.105c-0.05-0.013-0.084,0.027-0.224-0.044   s-0.177-0.116-0.292-0.145c-0.116-0.029-0.29-0.101-0.29-0.101s-0.043-0.043-0.122-0.122s-0.079-0.079-0.13-0.18   s0.025,0.025,0-0.17c-0.025-0.195,0,0.006-0.025-0.195c-0.025-0.201-0.063-0.29-0.063-0.29l-0.126-0.327l-0.002-0.101   c0,0-0.124-0.076-0.2,0c-0.076,0.076-0.138,0.101-0.189,0.138c-0.05,0.038-0.504,0.239-0.504,0.239s-0.038,0.025-0.164,0.05   s-0.189,0-0.264,0.05c-0.076,0.05-0.277,0.201-0.453,0.176c-0.176-0.025-0.352,0.025-0.466,0s-0.176,0.038-0.239,0.025   c-0.063-0.013-0.151,0.126-0.264,0.088c-0.113-0.038-0.113-0.038-0.113-0.038l-0.214,0.088c0,0-0.309,0.201-0.345,0.217   c-0.036,0.017-0.008,0.098-0.196,0.085c-0.189-0.013-0.278-0.126-0.352-0.038c-0.075,0.088-0.19,0.101-0.277,0.113   c-0.088,0.013-0.242,0.025-0.242,0.025l-0.173-0.113l-0.212,0.324c0,0-0.04,0.091-0.09,0.142c-0.05,0.05-0.06,0.057-0.138,0.088   c-0.078,0.031-0.129,0.149-0.227,0.138s-0.113,0.05-0.189,0.025s-0.189-0.252-0.189-0.252s-0.176-0.176-0.239-0.214   c-0.063-0.038-0.252-0.227-0.29-0.239c-0.038-0.013-0.126-0.138-0.126-0.138l0.025-0.252v-0.315v-0.655l-0.025-0.625l-0.112-0.823   l-0.064-0.403l-0.366-0.341l-0.402-0.301l-0.227-0.176l-0.106-0.189l-0.046-0.592l0.05-0.604l-0.227-0.277l-0.169-0.399   l-0.498-0.368l-0.576-0.367l-0.312-0.285l-0.161-0.236c0,0-0.12-0.038-0.135-0.094c-0.016-0.057-0.44,0.04-0.44,0.04   s-0.01-0.002-0.085,0.054c-0.076,0.057-0.113,0.094-0.113,0.208c0,0.113-0.009,0.283-0.009,0.283l-0.058,0.248   c0,0-0.273,0.119-0.282,0.276c-0.009,0.156-0.038,0.289-0.038,0.289l0.019,0.444c0,0,0,0.057,0,0.208s-0.113,0.472-0.113,0.472   s-0.142,0.264-0.189,0.302c-0.047,0.038-0.157,0.112-0.157,0.112s-0.091,0.137-0.102,0.164c-0.011,0.027-0.093,0.338-0.093,0.338   v0.283c0,0,0,0.642,0,0.793s0,0.123,0,0.378c0,0.255-0.016,0.34-0.035,0.463c-0.019,0.123,0.168,0.138,0.035,0.161   c-0.133,0.022-0.261,0.044-0.261,0.044s-0.085-0.01-0.165-0.041s-0.172-0.122-0.25-0.125c-0.079-0.003-0.102,0.041-0.202-0.003   c-0.1-0.044-0.205-0.119-0.27-0.129s-0.11-0.123-0.11-0.123s-0.088-0.264-0.088-0.415s-0.047-0.198-0.057-0.302   c-0.009-0.104-0.123-0.359-0.123-0.359s-0.066-0.349-0.094-0.463c-0.028-0.113-0.085-0.302-0.085-0.302l-0.84-0.179l-0.216-0.015   c0,0-0.35-0.004-0.379-0.004c-0.028,0-0.198-0.028-0.274,0c-0.076,0.028-0.381-0.025-0.472,0.076   c-0.091,0.101-0.137,0.064-0.17,0.113s-0.298,0.151-0.298,0.151s-0.203,0.038-0.325,0.104c-0.123,0.066-0.208,0-0.312,0.066   c-0.104,0.066-0.324,0.128-0.324,0.128l-0.129,0.146l-0.397,0.047l-0.708-0.028l-0.264-0.019l-0.263-0.538L21.606,55.9   l-0.261-0.176l-0.497-0.12c0,0-0.286-0.145-0.324-0.192c-0.038-0.047-0.227-0.208-0.236-0.245   c-0.009-0.038-0.044-0.268-0.044-0.268s0.025-0.054,0.091-0.091c0.066-0.038,0.211-0.11,0.211-0.11l0.393-0.57   c0,0,0.217-0.151,0.236-0.179c0.019-0.028,0.009-0.085,0.076-0.113c0.066-0.028,0.434-0.057,0.434-0.057s0.109-0.066,0.161-0.132   c0.052-0.066,0.359-0.161,0.425-0.217c0.066-0.057,0.161-0.085,0.217-0.151s0.009-0.047,0.113-0.142   c0.104-0.094,0.529-0.387,0.529-0.387s0.208-0.113,0.227-0.142c0.019-0.028,0.113-0.161,0.113-0.161s0.34-0.33,0.359-0.387   c0.019-0.057,0.17-0.245,0.189-0.274c0.019-0.028,0.208-0.189,0.208-0.189s0.175,0,0.177,0.019c0.002,0.019,0.172,0.11,0.172,0.11   l0.076,0.041c0,0,0.151,0.047,0.227,0.047s0.453,0,0.453,0l0.217-0.038l-0.016-0.05L25.5,51.465l-0.052-0.094   c0,0-0.015-0.057,0-0.104c0.015-0.047-0.015-0.17,0-0.198c0.015-0.028,0.001-0.305,0-0.378s0-0.179,0-0.179v-0.189v-0.151   c0,0-0.136-0.444-0.136-0.482c0-0.038-0.076-0.189-0.076-0.189s-0.258-0.088-0.308-0.091s-0.258-0.154-0.286-0.173   s-0.321-0.293-0.321-0.293s-0.17-0.047-0.217-0.047c-0.047,0-0.321-0.047-0.444-0.066c-0.123-0.019-0.179-0.009-0.255-0.076   c-0.076-0.066-0.151-0.161-0.151-0.161l-0.179-0.482l-0.274-0.028c0,0-0.179-0.132-0.293-0.161   c-0.113-0.028-0.33-0.132-0.349-0.161c-0.019-0.028-0.057-0.104-0.057-0.151c0-0.047-0.006-0.094,0-0.17   c0.006-0.076,0.245-0.425,0.245-0.425l0.274-0.104l0.132-0.009c0,0,0.312,0,0.368,0c0.057,0,0.878-0.312,0.878-0.312   s0.094-0.104,0.094-0.151s0.009-0.104,0.019-0.132c0.009-0.028,0.009-0.123,0.009-0.123l-0.028-0.123l-0.255-0.217l-0.321-0.293   l-0.161-0.236L23.13,45.13l-0.255-0.29l-0.214-0.264l-0.214-0.183l-0.17-0.176l-0.082-0.352l-0.021-0.145l-0.067-0.516   l-0.057-0.227l0.088-0.29l-0.179-0.357l0.425-0.323v-0.352c0,0,0.506-0.32,0.568-0.359c0.062-0.039,0.222-0.153,0.222-0.153   l0.153-0.168c0,0,0.024-0.096-0.017-0.141s-0.078-0.119-0.078-0.119s0.035-0.059,0.096-0.08c0.061-0.021,0.105-0.026,0.105-0.026   l0.036,0.022l0.008,0.027l0.063-0.065l0.164-0.212c0,0,0.138-0.178,0.24-0.226c0.102-0.048,0.356-0.121,0.356-0.121l0.426-0.115   l0.302-0.302h1.284l0.255,0.153c0,0,0.093,0.099,0.197,0.093c0.104-0.005,0.135-0.004,0.188-0.037   c0.053-0.033,0.133-0.098,0.133-0.098l0.073-0.081l0.023-0.031c0,0,0.069-0.034,0.088-0.032s0.144,0.025,0.144,0.025l0.114,0.024   l0.234,0.017l0.253-0.026l0.175-0.07l0.211-0.118l0.129-0.051l0.204,0.043l0.17,0.075l0.946,0.265l0.034-0.082l0.165-0.114   l0.231-0.144l0.264-0.415l0.556-0.323l0.196-0.096l0.121-0.105l0.109-0.118l0.129-0.087c0,0,0.115-0.041,0.15,0.038   c0.035,0.079,0.125,0.265,0.155,0.31c0.03,0.045,0.162,0.223,0.162,0.223l0.21,0.255l0.308,0.364l0.198,0.187l0.156,0.074   l0.165,0.131l0.277,0.251c0,0,0.631,0.569,0.691,0.636c0.059,0.067,0.232,0.298,0.232,0.298s0.045,0.045,0.085,0.057   c0.04,0.012,0.123,0.046,0.142,0.088c0.019,0.042,0.047,0.189,0.05,0.246c0.003,0.056-0.013,0.327-0.013,0.327l0.68,0.239   c0,0,0.174-0.056,0.264-0.044s0.138,0.033,0.188,0.077c0.049,0.044,0.22,0.214,0.22,0.214s0.027,0.049,0.088,0.095   c0.062,0.046,0.17,0.124,0.2,0.144c0.03,0.021,0.153,0.098,0.207,0.159c0.055,0.062,0.14,0.199,0.186,0.266   c0.046,0.067,0.177,0.226,0.199,0.262s0.099,0.181,0.148,0.288c0.049,0.107,0.225,0.491,0.225,0.491s0.096-0.064,0.133-0.076   c0.037-0.012,0.126-0.029,0.162-0.02c0.035,0.009,0.159,0.096,0.184,0.128s0.168,0.248,0.184,0.276   c0.015,0.027,0.083,0.161,0.083,0.161l0.057,0.179c0,0,0.052,0.058,0.142,0.071s0.169,0.039,0.169,0.039l0.095,0.044l0.124-0.018   l0.098-0.141c0,0,0.018-0.12,0.017-0.139c-0.001-0.019-0.05-0.239-0.05-0.239l0.264-0.227l0.059-0.291l0.062-0.174l0.068-0.064   l0.086-0.022l0.011-0.054l-0.097-0.189l-0.122-0.149l-0.243-0.241l-0.04-0.06l-0.01-0.419l-0.415-0.327   c0,0-0.312-0.393-0.321-0.405c-0.009-0.012-0.068-0.125-0.068-0.125l-0.03-0.138L37.755,40.9l-0.329-0.839l-0.011-0.03   l-0.113-1.586l-0.151-0.176l-0.017-0.229l0.055-0.123l0.083-0.151l0.068-0.227l-0.189-0.271l-0.15-0.598L37.365,36.167z"> <title>Atalaya</title></path>
	<path id="2503" data-ng-click="$ctrl.openMap(2, '2503', true, $event)" fill="none" stroke="#020202" stroke-width="0.3" stroke-miterlimit="10" d="M2.612,26.84l-0.084-0.264H2.88l0.203-0.102   l0.248-0.298l0.052-0.104l0.372-0.12l0.215-0.321l0.312-0.494L4.236,24.82l0.004-0.179l0.241-0.368l0.313-0.112h0.291l0.208-0.133   l0.264-0.397l0.151-0.302l0.093-0.226l0.172,0.018l0.459-0.082l0.419-0.233l0.46,0.077l0.417,0.484l0.227,0.17l0.541-0.044   l0.225,0.013c0,0-0.072,0.124-0.086-0.215s-0.014-0.339-0.014-0.339l-0.327-0.205c0,0-0.025-0.043-0.101-0.171   c-0.075-0.128,0.005-0.234-0.126-0.203c-0.13,0.03-0.151-0.227-0.151-0.227l0.021-0.404L7.916,21.39l0.201-0.302   c0,0,0.184-0.302,0.294-0.302c0.109,0,0.4-0.253,0.4-0.253l0.396,0.209l0.42,0.135l0.445,0.084l0.601,0.029l0.359,0.011   l0.381-0.015l0.17,0.02l0.434,0.052l0.77,0.168l0.449,0.088l0.756,0.003l0.074,0.108l0.121,0.452l0.361,0.657l-0.05,0.616   l-0.026,0.347l0.094,0.529l0.057,0.088l0.264,0.176l0.208,0.434l-0.09,0.665l-0.193,0.594l-0.131,0.512c0,0-0.215,0.14-0.252,0.244   c-0.037,0.104-0.037,0.104-0.037,0.104l0.004,0.379l0.019,0.279c0,0,0.09,0.225,0.171,0.275c0.081,0.05,0.112,0.083,0.112,0.083   s0.04,0.061,0.033,0.207s-0.033,0.397-0.033,0.397v0.168l-0.113,0.437l-0.139,0.318l-0.126,0.16L14.25,29.61l-0.006,0.082   l-0.397,0.019l-0.367,0.183c0,0-0.2,0.213-0.256,0.232c-0.057,0.019-0.283,0.038-0.283,0.038l-0.208,0.094l-0.151,0.151l0,0.434   l0,0.303l-0.22,0.699l-0.29,0.68c0,0-0.076,0.321-0.076,0.415c0,0.095-0.013,0.648-0.013,0.648s0.12,0.252,0,0.302   c-0.12,0.05-0.478,0.39-0.535,0.409c-0.057,0.019-0.623,0.296-0.623,0.296L9.97,34.746l-0.579-0.145c0,0-0.639,0.057-0.619,0.104   c0.021,0.047-0.262,0.142-0.262,0.142v0.554l-0.216,0.151L7.975,35.64l-0.283,0.223l-0.264,0.155c0,0-0.234,0.09-0.287,0.036   c-0.053-0.055-0.36,0.101-0.412,0.002c-0.052-0.099-0.378-0.227-0.378-0.227l-0.157-0.337l-0.031-0.248L6.03,35.13l-0.263-0.058   c0,0-0.248-0.064-0.228-0.216s0.038-0.456,0-0.563c-0.038-0.107-0.166-0.443-0.166-0.443l-0.231-0.381l-0.208-0.264l-0.302-0.271   L4.33,32.581l-0.038-0.113l-0.189-0.468L3.85,31.501l-0.332-0.506l-0.18-0.187l-0.132-0.852l-0.359-0.623l0.104-0.453   c0,0-0.151-0.359-0.151-0.415c0-0.057-0.015-0.689-0.015-0.689l-0.061-0.491"> <title>Padre Abad</title></path>
</g>
</svg>
