<svg width="24" height="24" viewBox="0 0 24 24" fill="none" xmlns="http://www.w3.org/2000/svg">
<path d="M19.1405 9.76382C18.2474 9.76382 17.4453 10.1525 16.8912 10.7644V6.62142C16.8912 5.17426 15.7169 4 14.2698 4H9.6058C8.15865 4 6.98438 5.17426 6.98438 6.62142V10.7231C6.42206 10.1359 5.64473 9.76382 4.76817 9.76382C3.07293 9.76382 1.7002 11.1365 1.7002 12.8318V17.9589C1.7002 18.9843 2.53541 19.8278 3.56909 19.8278H6.96784H9.50657H16.8829C16.8829 19.8278 16.9077 19.8278 16.9243 19.8278H20.3313C21.3567 19.8278 22.2002 18.9925 22.2002 17.9589V12.8318C22.2002 11.1365 20.8275 9.76382 19.1322 9.76382H19.1405ZM6.96784 19.0008H3.56082C2.99023 19.0008 2.51887 18.5377 2.51887 17.9589V12.8318C2.51887 11.5996 3.52775 10.5908 4.7599 10.5908C5.91762 10.5908 6.86034 11.4756 6.97611 12.6002V18.9925L6.96784 19.0008ZM10.3418 19.0008V14.9736C10.3418 14.5105 10.7139 14.1384 11.177 14.1384H12.682C13.1451 14.1384 13.5173 14.5105 13.5173 14.9736V19.0008H10.3418ZM16.0643 19.0008H14.3525V14.9736C14.3525 14.0557 13.6082 13.3114 12.6903 13.3114H11.1853C10.2674 13.3114 9.52311 14.0557 9.52311 14.9736V19.0008H7.82787C7.82787 19.0008 7.82787 18.9843 7.82787 18.9677V12.8318C7.82787 12.7491 7.81133 12.6747 7.80306 12.6002V6.62142C7.80306 5.62908 8.6052 4.82695 9.59753 4.82695H14.2615C15.2538 4.82695 16.056 5.62908 16.056 6.62142V19.0008H16.0643ZM21.3815 17.9589C21.3815 18.5294 20.9184 19.0008 20.3396 19.0008L16.8995 18.9677V12.8318C16.8995 11.5996 17.9083 10.5908 19.1405 10.5908C20.3726 10.5908 21.3815 11.5996 21.3815 12.8318V17.9589V17.9589Z" fill="#797B7F"/>
<path d="M13.8162 8.07684H12.8238V7.08451C12.8238 6.91912 12.6915 6.7868 12.5261 6.7868H11.3436C11.1782 6.7868 11.0459 6.91912 11.0459 7.08451V8.07684H10.0536C9.88817 8.07684 9.75586 8.20915 9.75586 8.37454V9.55707C9.75586 9.72246 9.88817 9.85478 10.0536 9.85478H11.0459V10.8471C11.0459 11.0125 11.1782 11.1448 11.3436 11.1448H12.5261C12.6915 11.1448 12.8238 11.0125 12.8238 10.8471V9.85478H13.8162C13.9816 9.85478 14.1139 9.72246 14.1139 9.55707V8.37454C14.1139 8.20915 13.9816 8.07684 13.8162 8.07684V8.07684Z" fill="#D81E05"/>
</svg>
