<svg width="24" height="24" viewBox="0 0 24 24" fill="none" xmlns="http://www.w3.org/2000/svg">
<path d="M15.0727 10.5097C15.1827 10.5397 15.3127 10.5397 15.3527 10.4397C13.7527 8.08967 12.1527 5.73967 10.5527 3.38967C10.4027 3.17967 10.1927 2.93967 9.95271 2.99967C9.85271 3.01967 9.76271 3.09967 9.69271 3.16967C9.22271 3.62967 8.82271 4.15967 8.49271 4.71967C8.40271 4.86967 7.55271 6.47967 7.67271 6.54967C10.1027 7.84967 12.5227 9.15967 14.9527 10.4597C14.9927 10.4797 15.0327 10.4897 15.0727 10.5097Z" fill="#D81E05"/>
<path d="M5.68315 21.0097C5.19315 21.0097 4.70315 20.9997 4.21315 20.9897C3.93315 20.9797 3.67315 20.7997 3.57315 20.5397C3.46315 20.2697 3.53315 19.9697 3.73315 19.7697L9.31315 14.1497C7.44315 13.5897 5.74315 12.4097 4.59315 10.8497C3.70315 9.63968 3.13315 8.19968 2.93315 6.68968C2.86315 6.13968 2.83315 5.58968 2.86315 5.04968C2.86315 4.72968 2.86315 4.22968 3.29315 4.03968C3.72315 3.84968 4.18315 4.09968 4.43315 4.22968L15.0231 9.91968C15.0931 9.71968 15.1531 9.51968 15.2131 9.30968C15.2931 9.02968 15.3831 8.75968 15.4831 8.48968C15.8331 7.55968 16.3431 6.93968 17.0131 6.63968C17.7131 6.31968 18.5731 6.37968 19.3831 6.78968C20.0031 7.09968 20.5031 7.57968 20.9331 7.98968C21.1931 8.24968 21.2231 8.66968 20.9931 8.94968C20.7331 9.26968 20.4231 9.48968 20.1131 9.70968C19.8331 9.90968 19.5631 10.1097 19.3831 10.3397C19.0831 10.7397 19.0331 11.3097 18.9731 11.9097C18.9531 12.0897 18.9331 12.2597 18.9131 12.4397C18.6931 14.0397 17.9131 15.5397 16.7231 16.6697C15.5631 17.7697 14.0331 18.4797 12.4131 18.6797C12.2531 18.6997 12.0931 18.7097 11.9331 18.7297C11.2331 18.7997 10.5831 18.8597 10.1531 19.2397C10.0031 19.3797 9.87315 19.5597 9.73315 19.7597C9.50315 20.0897 9.24315 20.4697 8.80315 20.6997C8.39315 20.9197 7.94315 20.9397 7.62315 20.9497C6.98315 20.9997 6.33315 21.0097 5.68315 21.0097ZM4.90315 20.0097C5.79315 20.0297 6.69315 20.0097 7.57315 19.9797C7.87315 19.9697 8.14315 19.9497 8.33315 19.8397C8.55315 19.7197 8.71315 19.4897 8.90315 19.2097C9.06315 18.9697 9.23315 18.7297 9.46315 18.5197C10.1331 17.9097 11.0231 17.8297 11.8131 17.7497C11.9631 17.7397 12.1231 17.7197 12.2731 17.6997C13.6831 17.5297 15.0131 16.9097 16.0231 15.9597C17.0531 14.9897 17.7231 13.6897 17.9131 12.3197C17.9331 12.1597 17.9531 11.9897 17.9631 11.8297C18.0331 11.1597 18.1031 10.3897 18.5631 9.76968C18.8331 9.39968 19.1831 9.15968 19.5131 8.91968C19.6931 8.78968 19.8731 8.66968 20.0131 8.52968C19.6831 8.21968 19.3131 7.89968 18.9031 7.68968C18.3731 7.41968 17.8131 7.36968 17.4031 7.55968C16.8831 7.78968 16.5731 8.38968 16.4031 8.84968C16.3131 9.09968 16.2331 9.34968 16.1631 9.60968C16.0631 9.94968 15.9631 10.2897 15.8231 10.6097C15.7431 10.7997 15.5931 10.9397 15.4031 11.0097C15.2131 11.0797 14.9931 11.0597 14.8231 10.9697L4.00315 5.13968C3.96315 5.10968 3.91315 5.08968 3.86315 5.05968V5.09968C3.84315 5.57968 3.86315 6.06968 3.92315 6.54968C4.10315 7.89968 4.61315 9.17968 5.40315 10.2497C6.51315 11.7597 8.19315 12.8597 10.0331 13.2897C10.2831 13.3497 10.4931 13.5397 10.5631 13.7897C10.6331 14.0397 10.5631 14.2997 10.3831 14.4797L4.90315 20.0097Z" fill="#797B7F"/>
</svg>
