<svg width="35" height="35" viewBox="0 0 35 35" fill="none" xmlns="http://www.w3.org/2000/svg">
<path fill-rule="evenodd" clip-rule="evenodd" d="M21.006 5.0418C21.9806 4.62754 23.0259 4.41406 24.082 4.41406C25.1381 4.41406 26.1834 4.62754 27.158 5.0418C28.1326 5.45605 29.0168 6.06269 29.7607 6.82613C30.5048 7.58913 31.0941 8.49403 31.4958 9.48867C31.8976 10.4834 32.1042 11.5489 32.1042 12.6246C32.1042 13.7003 31.8976 14.7659 31.4958 15.7606C31.094 16.7553 30.5046 17.6603 29.7604 18.4234L18.0426 30.4439C17.9054 30.5847 17.7171 30.6641 17.5205 30.6641C17.3239 30.6641 17.1356 30.5847 16.9984 30.4439L5.2804 18.4232C3.77822 16.8822 2.9375 14.7961 2.9375 12.6246C2.9375 10.4532 3.77822 8.367 5.2804 6.82601C6.7832 5.28439 8.82545 4.41479 10.959 4.41479C13.0925 4.41479 15.1347 5.28439 16.6375 6.82601L17.5205 7.73178L18.4033 6.82613C18.4034 6.82609 18.4033 6.82617 18.4033 6.82613C19.1472 6.06274 20.0315 5.45602 21.006 5.0418ZM24.082 5.8724C23.2227 5.8724 22.3714 6.04605 21.5765 6.38392C20.7815 6.72182 20.058 7.21759 19.4478 7.84385L18.0426 9.28536C17.9054 9.42615 17.7171 9.50555 17.5205 9.50555C17.3239 9.50555 17.1356 9.42615 16.9984 9.28537L15.5933 7.84398C14.3609 6.5798 12.6935 5.87312 10.959 5.87312C9.2244 5.87312 7.557 6.5798 6.32466 7.84398C5.0917 9.10878 4.39583 10.8281 4.39583 12.6246C4.39583 14.4211 5.0917 16.1405 6.32466 17.4053L17.5205 28.8903L28.7163 17.4053C29.3268 16.7793 29.8122 16.0349 30.1436 15.2144C30.475 14.3939 30.6458 13.5138 30.6458 12.6246C30.6458 11.7354 30.475 10.8553 30.1436 10.0348C29.8122 9.21437 29.3269 8.4701 28.7164 7.8441C28.1062 7.21784 27.3825 6.72182 26.5875 6.38392C25.7926 6.04605 24.9413 5.8724 24.082 5.8724Z" fill="#797B7F"/>
<path fill-rule="evenodd" clip-rule="evenodd" d="M20.3789 12.7584C20.8441 12.7434 21.2678 13.0245 21.4349 13.4589L24.8111 22.237H29.8932C30.4973 22.237 30.987 22.7267 30.987 23.3307C30.987 23.9348 30.4973 24.4245 29.8932 24.4245H24.0599C23.6073 24.4245 23.2015 24.1458 23.039 23.7234L20.521 17.1764L17.8122 25.8445C17.6764 26.279 17.2857 26.5839 16.8313 26.6102C16.3768 26.6364 15.9536 26.3784 15.7687 25.9624L13.7934 21.5178L12.6423 23.8199C12.4571 24.1904 12.0783 24.4245 11.6641 24.4245H5.10156C4.4975 24.4245 4.00781 23.9348 4.00781 23.3307C4.00781 22.7267 4.4975 22.237 5.10156 22.237H10.9881L12.8733 18.4666C13.0626 18.088 13.4533 17.8527 13.8764 17.8623C14.2995 17.8719 14.6791 18.1248 14.851 18.5115L16.5895 22.4231L19.3701 13.5253C19.5089 13.0811 19.9137 12.7733 20.3789 12.7584Z" fill="#D81E05"/>
</svg>
