<svg width="24" height="24" viewBox="0 0 24 24" fill="none" xmlns="http://www.w3.org/2000/svg">
<path d="M7 15.8359C7 15.6581 7.17909 15.5139 7.4 15.5139H16.6C16.8209 15.5139 17 15.6581 17 15.8359V17.678C17 17.8558 16.8209 18 16.6 18H7.4C7.17909 18 7 17.8558 7 17.678V15.8359Z" fill="#D81E05"/>
<path fill-rule="evenodd" clip-rule="evenodd" d="M19.3658 9.49342L18.2713 4.90614C18.1406 4.359 17.6288 3.96582 17.0306 3.95308H6.65098C6.04157 3.94738 5.51312 4.34677 5.38996 4.90614L4.28208 9.49342H19.3658ZM3.19269 9.75338L4.40007 4.68374C4.6356 3.69692 5.57193 2.99651 6.65092 3.00001H17.0306C18.111 3.00497 19.0445 3.70858 19.2814 4.69645L20.435 9.60185C21.3422 9.8838 21.997 10.6841 22 11.6283V16.0758C21.9979 16.7307 21.6823 17.3163 21.1864 17.7078V19.043C21.1827 20.1248 20.2459 21 19.0915 21C17.9372 21 17.0003 20.1248 16.9966 19.043V18.2107H7.05078V19.0431C7.05078 19.5621 6.83078 20.0598 6.43918 20.4268C6.04758 20.7938 5.51645 21 4.96264 21C4.40766 21.0017 3.87479 20.7963 3.48172 20.4291C3.08865 20.0619 2.86772 19.5632 2.86773 19.0431V17.7492C2.34078 17.3583 2.00214 16.7542 2 16.0758V11.6283C2.00256 10.819 2.48398 10.1155 3.19269 9.75338ZM3.86888 10.491C3.37328 10.6502 3.01702 11.0907 3.01702 11.6092V16.0568C3.01702 16.7094 3.5816 17.2385 4.27804 17.2385H19.7221C20.4107 17.2386 20.972 16.7211 20.9831 16.0758V11.6283C20.9831 11.0874 20.5954 10.6314 20.0662 10.491H3.86888ZM3.88474 18.2489V19.0685C3.92929 19.5937 4.3971 19.9987 4.95931 19.9987C5.52153 19.9987 5.98934 19.5937 6.03389 19.0685V18.2489H3.88474ZM18.0136 18.2488V19.0621C18.0136 19.62 18.4962 20.0723 19.0916 20.0723C19.6869 20.0723 20.1695 19.62 20.1695 19.0621V18.2488H18.0136ZM4.00799 13.8878C4.25673 14.4456 4.83975 14.8077 5.48476 14.8051C6.36203 14.8016 7.07121 14.1342 7.0712 13.312C7.0712 12.7075 6.68228 12.1627 6.08611 11.932C5.48993 11.7012 4.80413 11.8301 4.34901 12.2585C3.89389 12.6868 3.75926 13.3301 4.00799 13.8878ZM4.94689 13.1087C5.03782 12.9063 5.25044 12.7757 5.48473 12.7783C5.79773 12.7817 6.05056 13.0187 6.05422 13.312C6.05697 13.5316 5.91758 13.7308 5.70163 13.816C5.48569 13.9013 5.23619 13.8555 5.07051 13.7002C4.90483 13.5449 4.85596 13.3111 4.94689 13.1087ZM18.6441 14.8051C17.7642 14.8051 17.0509 14.1367 17.0509 13.312C17.0509 12.4874 17.7642 11.8189 18.6441 11.8189C19.524 11.8189 20.2373 12.4874 20.2373 13.312C20.2373 13.708 20.0695 14.0878 19.7707 14.3678C19.4719 14.6478 19.0667 14.8051 18.6441 14.8051ZM18.6442 12.7783C18.4105 12.7783 18.1999 12.9106 18.1111 13.1132C18.0224 13.3158 18.0729 13.5485 18.2391 13.7025C18.4054 13.8564 18.6543 13.9011 18.8694 13.8155C19.0845 13.7299 19.2232 13.531 19.2204 13.312C19.2167 13.0162 18.9598 12.7783 18.6442 12.7783Z" fill="#797B7F"/>
</svg>
