<svg width="24" height="24" viewBox="0 0 24 24" fill="none" xmlns="http://www.w3.org/2000/svg">
<path d="M22 10H3V13H22V10Z" fill="#D81E05"/>
<path fill-rule="evenodd" clip-rule="evenodd" d="M4.01 7C3.45614 7 3 7.45614 3 8.01V17.99C3 18.5439 3.45614 19 4.01 19H19.99C20.5439 19 21 18.5439 21 17.99V8.01C21 7.45614 20.5439 7 19.99 7H4.01ZM2 8.01C2 6.90386 2.90386 6 4.01 6H19.99C21.0961 6 22 6.90386 22 8.01V17.99C22 19.0961 21.0961 20 19.99 20H4.01C2.90386 20 2 19.0961 2 17.99V8.01Z" fill="#797B7F"/>
<path d="M10.5 17H4.5C4.22 17 4 16.78 4 16.5C4 16.22 4.22 16 4.5 16H10.5C10.78 16 11 16.22 11 16.5C11 16.78 10.78 17 10.5 17Z" fill="#797B7F"/>
</svg>
