<svg width="24" height="24" viewBox="0 0 24 24" fill="none" xmlns="http://www.w3.org/2000/svg">
<path d="M17.241 13.4306C17.2338 13.4306 17.2266 13.4333 17.2185 13.4333C17.1138 13.4333 16.9947 13.372 16.8034 13.2321C16.7582 13.1987 16.7104 13.1626 16.6563 13.1202C16.6139 13.0868 16.5687 13.0507 16.52 13.0119C16.5173 13.0101 16.5146 13.0083 16.5128 13.0056C16.4604 12.9632 16.4081 12.9217 16.3883 12.9081L15.6717 12.4235C15.5598 12.3477 15.4479 12.271 15.336 12.1952C15.0148 11.9759 14.6818 11.7485 14.3488 11.541C14.2243 11.4634 14.1025 11.3803 13.9815 11.2955C13.8615 11.2107 13.7433 11.1232 13.6269 11.0374C13.1035 10.6503 12.609 10.2839 12.017 10.145C11.5595 10.0376 11.0695 10.0917 10.6363 10.2966C10.4342 10.3922 10.26 10.5366 10.0759 10.69C9.85843 10.8705 9.63283 11.0582 9.34315 11.1791C8.89917 11.365 8.45248 11.3524 8.01571 11.1394C7.76755 11.0185 7.34522 10.7848 7.29469 10.5736C7.27664 10.4978 7.29288 10.4193 7.33981 10.3588C7.34793 10.3489 8.66274 8.6632 8.66274 8.6632C8.67627 8.64605 8.69252 8.63161 8.70966 8.61898C8.1258 8.49264 7.66197 8.31667 7.35785 8.1795C7.3389 8.2165 7.31725 8.2535 7.29469 8.2887L4.42773 12.6654C4.5649 12.8432 4.74358 13.0679 4.94752 13.3106L5.45107 12.7168C5.62072 12.5174 5.85805 12.3956 6.11885 12.3739C6.37964 12.3522 6.63412 12.4344 6.83356 12.604L6.90124 12.6618C7.04652 12.7854 7.1503 12.9442 7.20445 13.1229C7.35876 12.9902 7.55007 12.909 7.75672 12.8919C8.01661 12.8711 8.26748 12.9514 8.46601 13.1202L8.54542 13.1879C8.74395 13.3557 8.86488 13.5912 8.88563 13.8502C8.89827 14.0046 8.8739 14.1553 8.81705 14.2942C9.02911 14.3078 9.23938 14.3863 9.41354 14.5343C9.7357 14.8077 9.8467 15.2399 9.72938 15.6208C9.95499 15.6262 10.1806 15.7056 10.3665 15.8626C10.4739 15.9538 10.5578 16.0629 10.6174 16.1812C10.7708 16.4862 10.7644 16.8553 10.5894 17.1585C10.5632 17.2036 10.5325 17.2478 10.4991 17.2893C10.75 17.4355 11.0072 17.57 11.259 17.6891C11.3194 17.718 11.3799 17.7459 11.4404 17.7721C11.5685 17.829 11.6948 17.8822 11.8167 17.9282C12.0215 18.0058 12.5296 18.1638 12.8274 17.9535C13.071 17.782 13.0602 17.4472 12.9257 17.2198C12.8553 17.1016 12.7579 17.0024 12.6469 16.9139C12.6135 16.8877 12.5801 16.8625 12.5449 16.8372C12.4935 16.8011 12.4411 16.7668 12.3879 16.7334C12.3355 16.7009 12.2832 16.6694 12.23 16.6378C12.2282 16.6369 12.2263 16.636 12.2254 16.6351C12.1469 16.5881 12.0702 16.5421 11.9971 16.4943L10.9648 15.8184L10.889 15.7688C10.8475 15.7417 10.8357 15.6857 10.8628 15.6442C10.8899 15.6027 10.9458 15.591 10.9873 15.6181L11.0631 15.6677L12.0946 16.3436C12.1668 16.3914 12.2435 16.4374 12.322 16.4835C12.3382 16.4934 12.3536 16.5024 12.3698 16.5123C12.424 16.5448 12.4781 16.5773 12.5314 16.6116C12.5837 16.645 12.6351 16.6802 12.6857 16.7172C12.7091 16.7343 12.7326 16.7515 12.7561 16.7704C12.8057 16.8029 12.8562 16.8345 12.9059 16.867C12.9681 16.9076 13.0286 16.9509 13.0881 16.9933C13.3192 17.1567 13.5366 17.311 13.8182 17.3344C14.0934 17.3579 14.3768 17.2298 14.5555 16.9996C14.7242 16.7831 14.7729 16.5187 14.6881 16.2741C14.6358 16.1216 14.541 15.9971 14.4264 15.8879C14.3813 15.8554 14.3362 15.8238 14.292 15.7913C14.2008 15.7254 14.107 15.6578 14.0113 15.5955C13.9987 15.5874 13.9869 15.5784 13.9743 15.5711C13.9328 15.545 13.8931 15.5197 13.8525 15.4935C13.7983 15.4592 13.7451 15.4249 13.6928 15.3925C13.4608 15.2445 13.2488 15.1073 13.0493 14.9773L11.9249 14.241L11.887 14.2166C11.8455 14.1895 11.8338 14.1336 11.8609 14.0921C11.8879 14.0506 11.9439 14.0388 11.9854 14.0659L13.1477 14.8275C13.3598 14.9665 13.5872 15.1127 13.8362 15.2715C13.8877 15.3049 13.9418 15.3383 13.996 15.3726C14.0212 15.3888 14.0447 15.4033 14.07 15.4195C14.0988 15.4376 14.1259 15.4565 14.1539 15.4755C14.2369 15.5314 14.319 15.5892 14.3975 15.646C14.4472 15.6821 14.495 15.7173 14.5437 15.7516C14.7143 15.8725 14.8857 15.9808 15.0834 16.0521C15.4191 16.173 15.8739 16.1685 16.1338 15.8861C16.326 15.6767 16.3747 15.3365 16.2547 15.0387C16.1816 14.8564 16.0616 14.7211 15.9199 14.6037C15.8071 14.5099 15.6799 14.4278 15.549 14.3439C15.5382 14.3366 15.5274 14.3303 15.5165 14.3231C15.4886 14.3051 15.4606 14.287 15.4326 14.269L15.3586 14.2211L15.2007 14.1183L12.9988 12.6762L12.9266 12.6293C12.8851 12.6022 12.8734 12.5463 12.9004 12.5047C12.9275 12.4632 12.9835 12.4515 13.025 12.4786L13.1513 12.5616L15.3433 13.9973L15.5012 14.1002L15.5301 14.1192C15.568 14.1444 15.6068 14.1688 15.6447 14.1932C15.6492 14.1959 15.6546 14.1995 15.6591 14.2022C15.7809 14.2807 15.9037 14.361 16.0174 14.453C16.2863 14.5839 16.5579 14.6633 16.7979 14.6164C16.9875 14.5803 17.1409 14.4684 17.2672 14.2753C17.4278 14.0298 17.3863 13.6968 17.2401 13.4342L17.241 13.4306Z" fill="#D81E05"/>
<path d="M7.08374 7.84289C7.09998 7.78063 7.10901 7.71746 7.11081 7.65249C7.11262 7.59022 7.1072 7.52795 7.09457 7.46569C7.04945 7.25091 6.92401 7.06682 6.74083 6.9468L6.14253 6.55516C6.00446 6.46492 5.84834 6.4216 5.69403 6.4216C5.42602 6.4216 5.16342 6.55245 5.0064 6.79249L2.13403 11.1773C1.88587 11.5554 1.99235 12.0653 2.37046 12.3134L2.96876 12.7051C3.15195 12.8251 3.37123 12.8666 3.58601 12.8215C3.72317 12.7926 3.84861 12.7303 3.95238 12.6419C3.99841 12.6022 4.03992 12.5571 4.07692 12.5065C4.08594 12.4939 4.09587 12.4813 4.10489 12.4677L6.97726 8.08293C7.02599 8.00803 7.06118 7.92682 7.08374 7.84289V7.84289Z" fill="#D81E05"/>
<path d="M10.3645 15.8626C10.1795 15.7056 9.95394 15.6262 9.72744 15.6208C9.84475 15.2399 9.73466 14.8086 9.4116 14.5343C9.23743 14.3863 9.02807 14.3078 8.8151 14.2942C8.87105 14.1552 8.89542 14.0036 8.88369 13.8502C8.86203 13.5912 8.74201 13.3557 8.54348 13.1879L8.46407 13.1202C8.26554 12.9523 8.01467 12.8711 7.75477 12.8919C7.54812 12.909 7.35681 12.9902 7.2025 13.1229C7.14836 12.9451 7.04458 12.7854 6.89929 12.6618L6.83161 12.604C6.63218 12.4344 6.3768 12.3522 6.1169 12.3739C5.85611 12.3955 5.61877 12.5174 5.44912 12.7168L4.94558 13.3106L4.82736 13.4505L4.70824 13.5903L4.30216 14.0695C3.95203 14.4819 4.00256 15.1028 4.41496 15.4529L4.48264 15.5098C4.62793 15.6334 4.80209 15.7092 4.98709 15.7336C4.88151 15.9077 4.83187 16.109 4.84902 16.3165C4.87068 16.5755 4.9907 16.811 5.18923 16.9789L5.26954 17.0466C5.45183 17.2018 5.67563 17.2776 5.89852 17.2776C6.07539 17.2776 6.25136 17.2288 6.40567 17.135C6.4535 17.3426 6.5654 17.5366 6.73957 17.6846C6.93178 17.8479 7.16731 17.9273 7.40193 17.9273C7.56076 17.9273 7.71778 17.8894 7.86216 17.8181C7.90457 18.041 8.01918 18.2504 8.20508 18.4083C8.39729 18.5716 8.63282 18.651 8.86744 18.651C9.15802 18.651 9.44769 18.5283 9.64983 18.2892L10.3672 17.4436L10.3799 17.4292L10.4394 17.3597L10.4837 17.3083C10.4837 17.3083 10.4837 17.3074 10.4846 17.3065C10.4891 17.301 10.4927 17.2947 10.4981 17.2893C10.5324 17.2469 10.5622 17.2036 10.5883 17.1585C10.7643 16.8553 10.7706 16.4862 10.6163 16.1812C10.5568 16.0629 10.4728 15.9537 10.3654 15.8626H10.3645ZM10.2301 16.8679C10.2075 16.9202 10.1777 16.9708 10.1389 17.0168L10.1344 17.0222L10.1101 17.0511L10.0514 17.1206L10.018 17.1603L9.99275 17.19L9.30692 17.9986C9.10207 18.2404 8.7393 18.2693 8.49746 18.0645C8.289 17.8876 8.23847 17.5925 8.36119 17.3597L8.88639 16.7406L9.00551 16.5999L9.12553 16.4591L9.35655 16.1866C9.45762 16.1108 9.57944 16.0711 9.70217 16.0711C9.83392 16.0711 9.96567 16.1162 10.0731 16.2073C10.2238 16.3346 10.2914 16.5241 10.2725 16.7073C10.2671 16.7623 10.2526 16.8164 10.231 16.8688L10.2301 16.8679ZM7.03014 17.3407C6.82168 17.1639 6.77115 16.8679 6.89388 16.6351L7.51022 15.9086L7.62934 15.7678L7.74575 15.6307L8.4018 14.8582C8.50287 14.7815 8.6256 14.7427 8.74742 14.7427C8.87918 14.7427 9.01093 14.7878 9.11831 14.879C9.35926 15.0838 9.38904 15.4466 9.18419 15.6884L9.03258 15.8671L8.71945 16.2362L8.60033 16.3761L8.48031 16.5178L7.9903 17.0953L7.8387 17.274C7.63385 17.5158 7.27018 17.5447 7.02924 17.3398L7.03014 17.3407ZM5.94093 16.8255C5.80196 16.8363 5.6666 16.793 5.56102 16.7036L5.48071 16.636C5.37422 16.5457 5.30925 16.4194 5.29842 16.2804C5.28759 16.1414 5.33 16.0061 5.42024 15.9005L5.75053 15.5107L6.1548 15.0342L6.27122 14.8979L6.38672 14.7617L7.10504 13.9152L7.43532 13.5254C7.52556 13.4189 7.6519 13.3539 7.79087 13.3431C7.80531 13.3422 7.81975 13.3413 7.83419 13.3413C7.95782 13.3413 8.07603 13.3846 8.17079 13.4649L8.2502 13.5326C8.35668 13.6228 8.42165 13.7492 8.43248 13.8881C8.44331 14.0271 8.4 14.1625 8.30976 14.268L8.07964 14.5397L7.36945 15.3771L7.25304 15.5143L7.13482 15.6541L6.52479 16.3725L6.29468 16.6441C6.20444 16.7506 6.0781 16.8155 5.93913 16.8264L5.94093 16.8255ZM4.64598 14.3619L5.00784 13.9351L5.12606 13.7961L5.24337 13.6571L5.79294 13.0101C5.88408 12.9018 6.01222 12.8368 6.1539 12.8251C6.16834 12.8242 6.18368 12.8233 6.19812 12.8233C6.32355 12.8233 6.44358 12.8675 6.54013 12.9496L6.60781 13.0074C6.7161 13.0985 6.78108 13.2267 6.79281 13.3683C6.80093 13.4685 6.78017 13.5669 6.73505 13.6544L6.0393 14.4738L5.92379 14.6101L5.80738 14.7463L5.43378 15.1867C5.35437 15.2463 5.26052 15.2833 5.15945 15.2923C5.01867 15.304 4.88151 15.2598 4.77322 15.1677L4.70554 15.1109C4.48264 14.9214 4.45557 14.5866 4.64417 14.3637L4.64598 14.3619Z" fill="#797B7F" stroke="#797B7F" stroke-width="0.3"/>
<path d="M21.2662 10.6819L18.5066 6.46853C18.355 6.23661 18.1222 6.07869 17.8515 6.02184C17.5808 5.96589 17.3037 6.01823 17.0727 6.16983L16.2606 6.70135C16.0286 6.85296 15.8707 7.08578 15.8139 7.3565C15.7922 7.46118 15.7868 7.56586 15.7967 7.66964C15.4791 7.78695 14.601 8.0306 13.6174 7.6182C13.4604 7.52615 12.3856 6.96034 10.9192 7.74273L9.34269 8.36178L9.0079 8.49354L8.75703 8.5919C8.73989 8.59912 8.72364 8.60814 8.7083 8.61897C8.69115 8.6316 8.67491 8.64604 8.66138 8.66319C8.66138 8.66319 7.34657 10.3489 7.33844 10.3588C7.29152 10.4193 7.27528 10.4978 7.29332 10.5736C7.34296 10.7848 7.76619 11.0194 8.01435 11.1394C8.45021 11.3515 8.8969 11.365 9.34179 11.1791C9.63146 11.0582 9.85707 10.8705 10.0745 10.69C10.2586 10.5366 10.4328 10.3922 10.6349 10.2965C11.0681 10.0917 11.5581 10.0376 12.0156 10.1449C12.6067 10.2839 13.1012 10.6494 13.6255 11.0374C13.7419 11.1232 13.8602 11.2107 13.9802 11.2955C14.1002 11.3812 14.2229 11.4643 14.3474 11.541C14.6813 11.7485 15.0134 11.9759 15.3347 12.1952C15.4466 12.2719 15.5585 12.3477 15.6704 12.4235L16.3869 12.9081C16.4067 12.9217 16.4591 12.9632 16.5114 13.0056C16.5141 13.0074 16.5168 13.0092 16.5186 13.0119C16.5674 13.0516 16.6125 13.0868 16.6549 13.1202C16.7091 13.1626 16.7569 13.1987 16.802 13.2321C16.9933 13.372 17.1133 13.4333 17.2171 13.4333C17.2243 13.4333 17.2324 13.4315 17.2397 13.4306C17.2523 13.4297 17.2649 13.4288 17.2776 13.4261V13.4243C17.292 13.4216 17.3101 13.4171 17.3299 13.4126C17.3561 13.4062 17.3868 13.3972 17.4211 13.3873C17.7477 13.2916 18.4083 13.0317 18.8604 12.5183C19.0571 12.7114 19.3197 12.8161 19.5868 12.8161C19.7818 12.8161 19.9785 12.761 20.1526 12.6473L20.9648 12.1158C21.4431 11.8027 21.5766 11.1592 21.2635 10.681L21.2662 10.6819ZM20.7203 11.7386L19.9081 12.2701C19.6383 12.447 19.2746 12.3712 19.0986 12.1014L16.3391 7.88892C16.2533 7.75807 16.2236 7.60196 16.256 7.44855C16.2876 7.29604 16.3779 7.16429 16.5078 7.07856L17.32 6.54704C17.4165 6.48387 17.5266 6.45138 17.6394 6.45138C17.6791 6.45138 17.7198 6.4559 17.7604 6.46402C17.9138 6.4956 18.0446 6.58584 18.1303 6.71579L20.8899 10.9282C21.0668 11.1981 20.9901 11.5617 20.7203 11.7386ZM17.2279 12.9749C17.126 12.9208 16.894 12.7358 16.802 12.6609C16.7289 12.6022 16.6757 12.5598 16.6396 12.5354L15.9231 12.0508C15.8112 11.975 15.7002 11.8992 15.5892 11.8234C15.2634 11.6014 14.9277 11.3713 14.5857 11.1583C14.3529 11.014 14.13 10.8488 13.8944 10.6747C13.4947 10.3787 13.085 10.0755 12.6202 9.87422C12.4605 9.80473 12.2945 9.74698 12.1194 9.70637C12.0878 9.69915 12.0571 9.69374 12.0256 9.68742C11.8983 9.66306 11.7702 9.64862 11.6411 9.6432C11.6104 9.6423 11.5789 9.6405 11.5482 9.6405C11.1701 9.6405 10.7911 9.72442 10.4427 9.88956C10.1892 10.0096 9.98431 10.1792 9.78668 10.3435C9.58544 10.5104 9.39594 10.6683 9.16853 10.7631C8.84908 10.8966 8.52692 10.8867 8.21288 10.7342C8.11542 10.6864 7.92411 10.5772 7.80499 10.4951C8.08203 10.1395 8.80576 9.21185 8.97902 8.98896L9.58273 8.75162L9.9825 8.5946L10.3227 8.46105L11.0961 8.15694C11.1042 8.15333 11.1123 8.14972 11.1204 8.14611C12.4398 7.43682 13.3557 7.98638 13.3936 8.00984C13.4044 8.01616 13.4153 8.02248 13.4261 8.02699C14.5496 8.50436 15.5377 8.24628 15.9366 8.09918L17.7486 10.866L18.5861 12.1447C18.1628 12.6897 17.4183 12.9208 17.2261 12.9731L17.2279 12.9749Z" fill="#797B7F" stroke="#797B7F" stroke-width="0.3" stroke-linejoin="round"/>
</svg>
