<svg width="24" height="24" viewBox="0 0 24 24" fill="none" xmlns="http://www.w3.org/2000/svg">
<path fill-rule="evenodd" clip-rule="evenodd" d="M11.5996 2.0719C11.8515 1.97603 12.1299 1.97603 12.3819 2.0719L19.2726 4.69362C19.6994 4.85599 19.9814 5.26512 19.9814 5.72172V11.958C19.9814 14.6849 18.3951 16.9614 16.7171 18.6132C15.0306 20.2734 13.1798 21.374 12.4974 21.7531C12.1791 21.93 11.8023 21.93 11.4841 21.7531C10.8016 21.374 8.95089 20.2734 7.26436 18.6132C5.58631 16.9614 4 14.6849 4 11.958V5.72172C4 5.26512 4.28208 4.85599 4.70884 4.69362L11.5996 2.0719ZM12.0263 3.00654C12.0034 2.99782 11.9781 2.99782 11.9552 3.00654L5.06444 5.62825C5.02564 5.64301 5 5.68021 5 5.72172V11.958C5 14.289 6.36269 16.3224 7.96587 17.9005C9.56057 19.4703 11.3233 20.5198 11.9698 20.879C11.981 20.8853 11.9878 20.8858 11.9907 20.8858C11.9936 20.8858 12.0004 20.8853 12.0117 20.879C12.6582 20.5198 14.4209 19.4703 16.0156 17.9005C17.6187 16.3224 18.9814 14.289 18.9814 11.958V5.72172C18.9814 5.68021 18.9558 5.64301 18.917 5.62825L12.0263 3.00654Z" fill="#797B7F"/>
<path d="M11.1804 6.72521V6H12.8272V6.72521C14.2529 6.94568 14.9848 7.78112 14.9848 9.1039V9.41139H13.0788V9.00527C13.0788 8.30907 12.7128 8.04219 12.0724 8.04219C11.432 8.04219 11.0661 8.30907 11.0661 9.00527C11.0661 9.70148 11.432 10.1888 12.7891 11.0127C14.4358 12.0164 15 12.7822 15 13.8961C15 15.2189 14.2529 16.0659 12.8196 16.2922V17H11.1804V16.2922C9.73189 16.0717 9 15.2189 9 13.8961V13.2289H10.906V13.9947C10.906 14.6909 11.31 14.9404 11.9504 14.9404C12.5909 14.9404 12.9949 14.6909 12.9949 13.9947C12.9949 13.2985 12.629 12.7996 11.2719 11.9873C9.62516 11.0011 9.05337 10.2178 9.05337 9.1039C9.05337 7.79852 9.77001 6.96308 11.1804 6.72521Z" fill="#D81E05"/>
</svg>
