<svg width="35" height="35" viewBox="0 0 35 35" fill="none" xmlns="http://www.w3.org/2000/svg">
<path d="M22.0036 26.76C21.6391 26.7891 21.3328 26.5121 21.3036 26.1766V25.7975C20.7641 25.71 20.2682 25.4912 19.8599 25.1412C19.5391 24.835 19.3349 24.5433 19.2036 24.135C19.1453 23.96 19.1307 23.6683 19.2182 23.5079C19.3495 23.3037 19.5536 23.1725 19.787 23.1287C20.1807 23.0266 20.6036 23.2162 20.7786 23.5662C20.8516 23.7558 20.9682 23.9454 21.1286 24.0912C21.3474 24.2516 21.6099 24.3246 21.887 24.31C22.1641 24.3246 22.4411 24.2225 22.6453 24.0475C22.8349 23.8871 22.9516 23.6391 22.937 23.3912C22.937 23.1725 22.8495 22.9829 22.6891 22.8371C22.5578 22.735 22.412 22.6475 22.2661 22.56C22.0182 22.4287 21.7703 22.2975 21.5078 22.1954C20.9974 22.0204 20.5161 21.7433 20.1224 21.3787C19.7578 21.0141 19.5536 20.5183 19.5682 19.9933C19.5682 19.7454 19.612 19.5121 19.6995 19.2787C19.787 19.06 19.9182 18.8558 20.0932 18.6808C20.2682 18.4912 20.4724 18.3454 20.7057 18.2287C20.8953 18.1266 21.0995 18.0391 21.3182 17.9808V17.5871C21.362 17.2079 21.712 16.9454 22.0911 16.9891C22.412 17.0329 22.6599 17.2662 22.7036 17.5871V17.9516C23.0245 18.01 23.3161 18.1412 23.5786 18.3162C23.7682 18.4621 23.9286 18.6225 24.0745 18.7975C24.1911 18.9433 24.2495 19.1475 24.2057 19.3225C24.1474 19.5266 24.0161 19.7162 23.812 19.8037C23.4474 19.9933 23.0099 19.9204 22.7036 19.6579C22.5286 19.4683 22.2807 19.3662 22.0036 19.3662C21.7995 19.3516 21.5807 19.4246 21.4203 19.5558C21.2891 19.6579 21.2016 19.8037 21.2161 19.9787C21.2161 20.1246 21.2745 20.2558 21.3766 20.3579C21.6391 20.5475 21.9307 20.7079 22.2516 20.81C22.6016 20.9558 22.9516 21.1162 23.3016 21.2912C23.5495 21.4225 23.7682 21.5829 23.9724 21.7725C24.3953 22.1808 24.6286 22.735 24.6141 23.3183C24.6141 23.8871 24.4099 24.4412 24.0161 24.8787C23.6807 25.2871 23.2141 25.5787 22.7036 25.7246V26.1621C22.6599 26.5266 22.3536 26.7891 22.0036 26.76Z" fill="#D81E05"/>
<path fill-rule="evenodd" clip-rule="evenodd" d="M6.91453 5.52021C8.35536 4.79979 10.2946 4.375 12.3958 4.375C14.4971 4.375 16.4363 4.79979 17.8771 5.52021C19.2741 6.21869 20.4167 7.31854 20.4167 8.75V13.7667H18.9583V8.75C18.9583 8.16896 18.4676 7.44589 17.2249 6.82458C16.0262 6.22521 14.3196 5.83333 12.3958 5.83333C10.4721 5.83333 8.76547 6.22521 7.56672 6.82458C6.3241 7.44589 5.83333 8.16896 5.83333 8.75V23.3333C5.83333 23.9144 6.3241 24.6374 7.56672 25.2588C8.76547 25.8581 10.4721 26.25 12.3958 26.25C13.0312 26.25 13.6473 26.2075 14.2277 26.1269C13.6084 25.0144 13.2258 23.7423 13.1573 22.3952C13.1248 22.1995 13.1249 22.0164 13.125 21.8935C13.125 21.8871 13.125 21.881 13.125 21.875C13.125 19.9048 13.7767 18.0735 14.8773 16.6219L16.0394 17.5031C15.1275 18.7056 14.5833 20.2286 14.5833 21.875C14.5833 22.0321 14.5856 22.1059 14.5983 22.1695L14.6093 22.2241L14.6118 22.2797C14.6779 23.748 15.1939 25.1103 16.0133 26.2074L16.6772 27.0961L15.5981 27.3531C14.6182 27.5864 13.5256 27.7083 12.3958 27.7083C10.2946 27.7083 8.35536 27.2835 6.91453 26.5631C5.51757 25.8646 4.375 24.7648 4.375 23.3333V8.75C4.375 7.31854 5.51757 6.21869 6.91453 5.52021Z" fill="#797B7F"/>
<path fill-rule="evenodd" clip-rule="evenodd" d="M7.56594 6.82419C6.32392 7.4452 5.83333 8.16821 5.83333 8.75C5.83333 9.33179 6.32392 10.0548 7.56594 10.6758C8.76434 11.275 10.4709 11.6667 12.3958 11.6667C14.3207 11.6667 16.0273 11.275 17.2257 10.6758C18.4677 10.0548 18.9583 9.33179 18.9583 8.75C18.9583 8.16821 18.4677 7.4452 17.2257 6.82419C16.0273 6.22499 14.3207 5.83333 12.3958 5.83333C10.4709 5.83333 8.76434 6.22499 7.56594 6.82419ZM6.91375 5.51982C8.35441 4.79949 10.2936 4.375 12.3958 4.375C14.498 4.375 16.4373 4.79949 17.8779 5.51982C19.275 6.21834 20.4167 7.31825 20.4167 8.75C20.4167 10.1817 19.275 11.2817 17.8779 11.9802C16.4373 12.7005 14.498 13.125 12.3958 13.125C10.2936 13.125 8.35441 12.7005 6.91375 11.9802C5.51671 11.2817 4.375 10.1817 4.375 8.75C4.375 7.31825 5.51671 6.21834 6.91375 5.51982Z" fill="#797B7F"/>
<path fill-rule="evenodd" clip-rule="evenodd" d="M6.91453 16.9954C5.51757 16.2969 4.375 15.1971 4.375 13.7656H5.83333C5.83333 14.3467 6.3241 15.0697 7.56672 15.691C8.76547 16.2904 10.4721 16.6823 12.3958 16.6823C13.4392 16.6823 14.4143 16.5709 15.2815 16.3541L15.6352 17.7689C14.6357 18.0187 13.54 18.1406 12.3958 18.1406C10.2946 18.1406 8.35536 17.7158 6.91453 16.9954Z" fill="#797B7F"/>
<path fill-rule="evenodd" clip-rule="evenodd" d="M6.91453 21.972C5.51757 21.2735 4.375 20.1736 4.375 18.7422H5.83333C5.83333 19.3232 6.3241 20.0463 7.56672 20.6676C8.76547 21.267 10.4721 21.6589 12.3958 21.6589C12.8787 21.6589 13.3517 21.6313 13.8173 21.5889L13.9493 23.0413C13.4525 23.0864 12.9338 23.1172 12.3958 23.1172C10.2946 23.1172 8.35536 22.6924 6.91453 21.972Z" fill="#797B7F"/>
<path fill-rule="evenodd" clip-rule="evenodd" d="M6.91453 26.5657C5.51757 25.8672 4.375 24.7674 4.375 23.3359H5.83333C5.83333 23.917 6.3241 24.64 7.56672 25.2614C8.76547 25.8607 10.4721 26.2526 12.3958 26.2526C13.4244 26.2526 14.4026 26.1412 15.2603 25.937L15.5981 27.3557C14.6182 27.589 13.5256 27.7109 12.3958 27.7109C10.2946 27.7109 8.35536 27.2861 6.91453 26.5657Z" fill="#797B7F"/>
<path fill-rule="evenodd" clip-rule="evenodd" d="M14.875 16.6299C15.9887 15.1344 17.5807 14.003 19.4311 13.4766L19.8302 14.8792C18.2973 15.3153 16.9727 16.2547 16.0446 17.5009L14.875 16.6299Z" fill="#797B7F"/>
<path fill-rule="evenodd" clip-rule="evenodd" d="M21.875 29.1667C25.9021 29.1667 29.1667 25.9021 29.1667 21.875C29.1667 17.8479 25.9021 14.5833 21.875 14.5833C17.8479 14.5833 14.5833 17.8479 14.5833 21.875C14.5833 25.9021 17.8479 29.1667 21.875 29.1667ZM21.875 30.625C26.7075 30.625 30.625 26.7075 30.625 21.875C30.625 17.0425 26.7075 13.125 21.875 13.125C17.0425 13.125 13.125 17.0425 13.125 21.875C13.125 26.7075 17.0425 30.625 21.875 30.625Z" fill="#797B7F"/>
</svg>
