<svg width="35" height="35" viewBox="0 0 35 35" fill="none" xmlns="http://www.w3.org/2000/svg">
<path d="M15.999 10.5891L13.3302 11.9161C13.2135 11.9745 13.1406 12.1057 13.1406 12.237V14.4536C13.1406 15.7953 15.6052 17.137 15.999 17.3411C16.0427 17.3557 16.0719 17.3557 16.1156 17.3411C16.5094 17.137 18.974 15.7953 18.974 14.4536V12.237C18.974 12.1057 18.901 11.9745 18.7698 11.9161L16.1302 10.5891C16.0865 10.5745 16.0281 10.5745 15.999 10.5891Z" fill="#D81E05"/>
<path d="M21.1484 21.8724H10.9401C10.5318 21.8724 10.2109 21.5516 10.2109 21.1432C10.2109 20.7349 10.5318 20.4141 10.9401 20.4141H21.1484C21.5568 20.4141 21.8776 20.7349 21.8776 21.1432C21.8776 21.5516 21.5568 21.8724 21.1484 21.8724Z" fill="#797B7F"/>
<path d="M21.1484 24.7943H10.9401C10.5318 24.7943 10.2109 24.4734 10.2109 24.0651C10.2109 23.6568 10.5318 23.3359 10.9401 23.3359H21.1484C21.5568 23.3359 21.8776 23.6568 21.8776 24.0651C21.8776 24.4734 21.5568 24.7943 21.1484 24.7943Z" fill="#797B7F"/>
<path d="M18.2318 27.7083H10.9401C10.5318 27.7083 10.2109 27.3875 10.2109 26.9792C10.2109 26.5708 10.5318 26.25 10.9401 26.25H18.2318C18.6401 26.25 18.9609 26.5708 18.9609 26.9792C18.9609 27.3875 18.6401 27.7083 18.2318 27.7083Z" fill="#797B7F"/>
<path fill-rule="evenodd" clip-rule="evenodd" d="M8.00885 7.29427C7.60948 7.29427 7.29427 7.60948 7.29427 8.00885V29.913C7.29427 30.3124 7.60948 30.6276 8.00885 30.6276H24.0797C24.4767 30.6276 24.7871 30.3177 24.7798 29.9115L24.7796 29.8984H24.7797V8.00885C24.7797 7.60948 24.4645 7.29427 24.0651 7.29427H8.00885ZM5.83594 8.00885C5.83594 6.80406 6.80406 5.83594 8.00885 5.83594H24.0651C25.2699 5.83594 26.238 6.80406 26.238 8.00885V29.8926C26.256 31.1163 25.2845 32.0859 24.0797 32.0859H8.00885C6.80406 32.0859 5.83594 31.1178 5.83594 29.913V8.00885Z" fill="#797B7F"/>
<path fill-rule="evenodd" clip-rule="evenodd" d="M8.75 5.08698C8.75 3.88219 9.71813 2.91406 10.9229 2.91406H26.9937C28.1985 2.91406 29.1667 3.88219 29.1667 5.08698V26.9911C29.1667 28.1959 28.1985 29.1641 26.9937 29.1641H24.7917V8.00365C24.7917 7.60427 24.4765 7.28906 24.0771 7.28906H8.75V5.08698ZM10.9229 4.3724C10.5235 4.3724 10.2083 4.6876 10.2083 5.08698V5.83073H24.0771C25.2819 5.83073 26.25 6.79886 26.25 8.00365V27.7057H26.9937C27.3931 27.7057 27.7083 27.3905 27.7083 26.9911V5.08698C27.7083 4.6876 27.3931 4.3724 26.9937 4.3724H10.9229Z" fill="#797B7F"/>
</svg>
