<svg width="24" height="24" viewBox="0 0 24 24" fill="none" xmlns="http://www.w3.org/2000/svg">
<path fill-rule="evenodd" clip-rule="evenodd" d="M11.6103 2.09604C11.8623 2.00017 12.1407 2.00017 12.3926 2.09604L19.2833 4.71776C19.7101 4.88012 19.9922 5.28925 19.9922 5.74586V11.9822C19.9922 14.709 18.4059 16.9855 16.7278 18.6373C15.0413 20.2975 13.1905 21.3981 12.5081 21.7773C12.1898 21.9541 11.8131 21.9541 11.4948 21.7773C10.8124 21.3981 8.96163 20.2975 7.2751 18.6373C5.59705 16.9855 4.01074 14.709 4.01074 11.9822V5.74586C4.01074 5.28925 4.29282 4.88012 4.71958 4.71776L11.6103 2.09604ZM12.037 3.03068C12.0141 3.02196 11.9888 3.02196 11.9659 3.03068L5.07518 5.65239C5.03639 5.66715 5.01074 5.70435 5.01074 5.74586V11.9822C5.01074 14.3132 6.37344 16.3465 7.97662 17.9247C9.57131 19.4945 11.334 20.544 11.9805 20.9031C11.9918 20.9094 11.9985 20.9099 12.0015 20.9099C12.0044 20.9099 12.0112 20.9094 12.0224 20.9031C12.6689 20.544 14.4316 19.4945 16.0263 17.9247C17.6295 16.3465 18.9922 14.3132 18.9922 11.9822V5.74586C18.9922 5.70435 18.9665 5.66715 18.9277 5.65239L12.037 3.03068Z" fill="#797B7F"/>
<path fill-rule="evenodd" clip-rule="evenodd" d="M11.2 9C11.0895 9 11 9.08954 11 9.2V11H9.2C9.08954 11 9 11.0895 9 11.2V12.8C9 12.9105 9.08954 13 9.2 13H11V14.8C11 14.9105 11.0895 15 11.2 15H12.8C12.9105 15 13 14.9105 13 14.8V13H14.8C14.9105 13 15 12.9105 15 12.8V11.2C15 11.0895 14.9105 11 14.8 11H13V9.2C13 9.08954 12.9105 9 12.8 9H11.2Z" fill="#D81E05"/>
</svg>
