<svg width="45" height="44" viewBox="0 0 45 44" fill="none" xmlns="http://www.w3.org/2000/svg">
<path fill-rule="evenodd" clip-rule="evenodd" d="M22.7498 38.5003C31.8625 38.5003 39.2498 31.113 39.2498 22.0003C39.2498 12.8876 31.8625 5.50033 22.7498 5.50033C13.6371 5.50033 6.24984 12.8876 6.24984 22.0003C6.24984 31.113 13.6371 38.5003 22.7498 38.5003ZM22.7498 40.3337C32.8751 40.3337 41.0832 32.1255 41.0832 22.0003C41.0832 11.8751 32.8751 3.66699 22.7498 3.66699C12.6246 3.66699 4.4165 11.8751 4.4165 22.0003C4.4165 32.1255 12.6246 40.3337 22.7498 40.3337Z" fill="#797B7F"/>
<path fill-rule="evenodd" clip-rule="evenodd" d="M20.7943 14.667C20.5243 14.667 20.3054 14.8859 20.3054 15.1559V19.5559H15.9054C15.6354 19.5559 15.4165 19.7748 15.4165 20.0448V23.9559C15.4165 24.2259 15.6354 24.4448 15.9054 24.4448H20.3054V28.8448C20.3054 29.1148 20.5243 29.3337 20.7943 29.3337H24.7054C24.9754 29.3337 25.1943 29.1148 25.1943 28.8448V24.4448H29.5943C29.8643 24.4448 30.0832 24.2259 30.0832 23.9559V20.0448C30.0832 19.7748 29.8643 19.5559 29.5943 19.5559H25.1943V15.1559C25.1943 14.8859 24.9754 14.667 24.7054 14.667H20.7943Z" fill="#D81E05"/>
</svg>
