<svg width="24" height="24" viewBox="0 0 24 24" fill="none" xmlns="http://www.w3.org/2000/svg">
<path fill-rule="evenodd" clip-rule="evenodd" d="M14.3058 3.3724C13.1007 2.95534 11.785 2.90626 10.5264 3.17849C8.61489 3.60041 6.8952 4.80038 5.89943 6.4755L5.8988 6.47657C4.88589 8.17088 4.77942 10.3503 5.34894 12.2676L5.34908 12.2681C6.05499 14.653 7.64798 16.7027 9.40726 18.6111L9.40749 18.6114C9.98193 19.2353 10.5662 19.8394 11.1703 20.4335L11.1732 20.4365C11.3502 20.6135 11.5211 20.7639 11.6891 20.8619C11.8535 20.9578 11.9785 20.9823 12.0822 20.966L12.0869 20.9653L12.0869 20.9653C12.2408 20.9427 12.402 20.8205 12.6561 20.5665L12.6583 20.5643C13.4595 19.773 14.2316 18.9514 14.9747 18.1092L14.9756 18.1082C16.0658 16.8792 17.075 15.6043 17.8174 14.1968L17.8194 14.193L17.8194 14.193C18.2204 13.4483 18.5343 12.6483 18.7337 11.8324C18.9039 11.1228 18.9886 10.4068 18.9798 9.69336C18.8651 6.91899 16.9272 4.28353 14.3058 3.3724ZM10.3139 2.20132C11.7348 1.89381 13.2386 1.94478 14.6332 2.42752L14.6338 2.42771C17.65 3.47593 19.8511 6.47684 19.9792 9.65989L19.9798 9.67343L19.9796 9.67343C19.9902 10.4774 19.8949 11.2789 19.7058 12.0667L19.7054 12.0686C19.4849 12.9717 19.1393 13.8506 18.7009 14.6651C17.9035 16.1766 16.8333 17.5209 15.7242 18.7712C14.9677 19.6286 14.1804 20.4664 13.3621 21.2747C13.1363 21.5004 12.7587 21.8763 12.2348 21.9543C11.8294 22.0172 11.4702 21.8919 11.1852 21.7256C10.9039 21.5616 10.6603 21.3377 10.4675 21.145C9.85214 20.5397 9.25688 19.9242 8.67179 19.2887L9.03964 18.95L8.67202 19.2889C8.67194 19.2888 8.67186 19.2887 8.67179 19.2887C6.89115 17.3571 5.16425 15.167 4.3902 12.5519C4.39025 12.5521 4.39029 12.5522 4.39033 12.5524L4.86964 12.41L4.3902 12.5519C3.75993 10.4296 3.85345 7.94946 5.04015 5.964C5.04005 5.96417 5.03994 5.96435 5.03984 5.96452L5.46964 6.22001L5.04048 5.96345C5.04037 5.96363 5.04026 5.96382 5.04015 5.964C6.18426 4.03968 8.144 2.67997 10.3119 2.20175L10.3139 2.20132L10.3139 2.20132Z" fill="#797B7F"/>
<path d="M12 12C13.1046 12 14 11.1046 14 10C14 8.89543 13.1046 8 12 8C10.8954 8 10 8.89543 10 10C10 11.1046 10.8954 12 12 12Z" fill="#D81E05"/>
<path fill-rule="evenodd" clip-rule="evenodd" d="M12 5.90909C9.74065 5.90909 7.90909 7.74065 7.90909 10C7.90909 12.2593 9.74065 14.0909 12 14.0909C14.2593 14.0909 16.0909 12.2593 16.0909 10C16.0909 7.74065 14.2593 5.90909 12 5.90909ZM7 10C7 7.23858 9.23858 5 12 5C14.7614 5 17 7.23858 17 10C17 12.7614 14.7614 15 12 15C9.23858 15 7 12.7614 7 10Z" fill="#797B7F"/>
</svg>
