<svg width="24" height="24" viewBox="0 0 24 24" fill="none" xmlns="http://www.w3.org/2000/svg">
<path d="M14.4805 21.43H9.48047V16.65C9.48047 15.98 10.0205 15.43 10.7005 15.43H13.2705C13.9405 15.43 14.4905 15.97 14.4905 16.65V21.43H14.4805Z" fill="#D81E05"/>
<path fill-rule="evenodd" clip-rule="evenodd" d="M12.5962 3.25356C12.2615 2.91882 11.6981 2.91882 11.3633 3.25356L3.26332 11.3536C2.70928 11.9076 3.10384 12.85 3.87977 12.85H4.47977C4.75591 12.85 4.97977 13.0739 4.97977 13.35V19.86C4.97977 20.4539 5.45591 20.93 6.04977 20.93H17.9098C18.5036 20.93 18.9798 20.4539 18.9798 19.86V13.35C18.9798 13.0739 19.2036 12.85 19.4798 12.85H20.0798C20.8557 12.85 21.2503 11.9076 20.6962 11.3536L12.5962 3.25356ZM10.6562 2.54645C11.3815 1.82119 12.5781 1.82119 13.3033 2.54645L21.4033 10.6464C22.5893 11.8324 21.7438 13.85 20.0798 13.85H19.9798V19.86C19.9798 21.0061 19.0559 21.93 17.9098 21.93H6.04977C4.90363 21.93 3.97977 21.0061 3.97977 19.86V13.85H3.87977C2.2157 13.85 1.37025 11.8324 2.55621 10.6464L10.6562 2.54645Z" fill="#797B7F"/>
</svg>
