<svg width="24" height="24" viewBox="0 0 24 24" fill="none" xmlns="http://www.w3.org/2000/svg">
<path d="M14 8C12.35 8 11 6.65 11 5C11 3.35 12.35 2 14 2C15.65 2 17 3.35 17 5C17 6.65 15.65 8 14 8ZM14 3C12.9 3 12 3.9 12 5C12 6.1 12.9 7 14 7C15.1 7 16 6.1 16 5C16 3.9 15.1 3 14 3Z" fill="#797B7F"/>
<path d="M15.25 22H12.75C12.36 22 12.02 21.71 11.98 21.32L11.31 16H9.78C9.35 16 9 15.65 9 15.22V14.21C9 12.79 9.59 11.41 10.62 10.41C11.59 9.46999 12.85 8.96999 14.14 8.99999C15.43 9.03999 16.63 9.55999 17.53 10.46C18.48 11.4 19 12.66 19 14V15.22C19 15.65 18.65 16 18.22 16H16.69L16.03 21.32C15.98 21.71 15.65 22 15.25 22ZM12.94 21H15.06L15.72 15.68C15.77 15.29 16.1 15 16.5 15H18V14C18 12.92 17.58 11.92 16.83 11.18C16.11 10.45 15.15 10.03 14.11 9.99999C13.1 9.97999 12.09 10.37 11.31 11.13C10.48 11.94 10 13.07 10 14.21V15H11.5C11.89 15 12.23 15.29 12.27 15.68L12.94 21Z" fill="#797B7F"/>
<path d="M7.5 22C7.22 22 7 21.78 7 21.5V13.5C7 12.95 6.55 12.5 6 12.5C5.45 12.5 5 12.95 5 13.5V15.5C5 15.78 4.78 16 4.5 16C4.22 16 4 15.78 4 15.5V13.5C4 12.4 4.9 11.5 6 11.5C7.1 11.5 8 12.4 8 13.5V21.5C8 21.78 7.78 22 7.5 22Z" fill="#D81E05"/>
</svg>
