<svg width="45" height="44" viewBox="0 0 45 44" fill="none" xmlns="http://www.w3.org/2000/svg">
<path d="M26.7965 39.2881H17.6299V30.5248C17.6299 29.2964 18.6199 28.2881 19.8665 28.2881H24.5782C25.8066 28.2881 26.8149 29.2781 26.8149 30.5248V39.2881H26.7965Z" fill="#D81E05"/>
<path fill-rule="evenodd" clip-rule="evenodd" d="M23.3437 5.9645C22.73 5.35081 21.6971 5.35081 21.0834 5.9645L6.23341 20.8145C5.21766 21.8302 5.94102 23.558 7.36356 23.558H8.46356C8.96982 23.558 9.38022 23.9684 9.38022 24.4746V36.4096C9.38022 37.4984 10.2532 38.3713 11.3419 38.3713H33.0852C34.174 38.3713 35.0469 37.4984 35.0469 36.4096V24.4746C35.0469 23.9684 35.4573 23.558 35.9636 23.558H37.0636C38.4861 23.558 39.2094 21.8302 38.1937 20.8145L23.3437 5.9645ZM19.787 4.66813C21.1167 3.33849 23.3104 3.33849 24.6401 4.66813L39.4901 19.5181C41.6643 21.6924 40.1144 25.3913 37.0636 25.3913H36.8802V36.4096C36.8802 38.5109 35.1865 40.2046 33.0852 40.2046H11.3419C9.24063 40.2046 7.54689 38.5109 7.54689 36.4096V25.3913H7.36356C4.31276 25.3913 2.76278 21.6924 4.93704 19.5181L19.787 4.66813Z" fill="#797B7F"/>
</svg>
