<svg width="41" height="42" viewBox="0 0 41 42" fill="none" xmlns="http://www.w3.org/2000/svg">
<path fill-rule="evenodd" clip-rule="evenodd" d="M4.80859 21.4145L7.51087 18.3262V32.6282C7.51087 35.3896 9.74945 37.6281 12.5109 37.6281H36.0778V40.3304H4.80859V21.4145Z" fill="#E0E0E0"/>
<path fill-rule="evenodd" clip-rule="evenodd" d="M4.80859 23.7311L21.7943 6.35929L20.2502 5.20117L4.80859 21.4148V23.7311Z" fill="#E0E0E0"/>
<path fill-rule="evenodd" clip-rule="evenodd" d="M33.7596 15.2379L29.5132 10.6054V9.44727L33.7596 13.3077V15.2379Z" fill="#E0E0E0"/>
<mask id="path-4-outside-1_4958_51960" maskUnits="userSpaceOnUse" x="-0.694336" y="0.142578" width="42" height="42" fill="black">
<rect fill="white" x="-0.694336" y="0.142578" width="42" height="42"/>
<path fill-rule="evenodd" clip-rule="evenodd" d="M21.2369 2.49352C20.7921 2.0256 20.046 2.0256 19.6012 2.49352C19.5294 2.56906 19.47 2.65206 19.4231 2.73993C19.3665 2.78063 19.3129 2.82721 19.263 2.87967L1.61628 21.4417C1.20213 21.8773 1.20213 22.5611 1.61628 22.9968C2.06113 23.4647 2.80716 23.4647 3.25201 22.9968L4.84482 21.3214H4.91501V40.2372H36.1103V21.414L37.2479 22.6106C37.6927 23.0786 38.4388 23.0786 38.8836 22.6106C39.2978 22.175 39.2978 21.4912 38.8836 21.0556L21.2369 2.49352Z"/>
</mask>
<path d="M19.6012 2.49352L20.4709 3.32034L20.4709 3.32034L19.6012 2.49352ZM21.2369 2.49352L20.3672 3.32034L20.3672 3.32034L21.2369 2.49352ZM19.4231 2.73993L20.1237 3.7142L20.3503 3.55125L20.4817 3.30503L19.4231 2.73993ZM19.263 2.87967L20.1327 3.70648L20.1327 3.70648L19.263 2.87967ZM1.61628 21.4417L0.746578 20.6149L0.746577 20.6149L1.61628 21.4417ZM1.61628 22.9968L0.746576 23.8236L0.746577 23.8236L1.61628 22.9968ZM3.25201 22.9968L4.12171 23.8236H4.12171L3.25201 22.9968ZM4.84482 21.3214V20.1214H4.3299L3.97512 20.4945L4.84482 21.3214ZM4.91501 21.3214H6.11501V20.1214H4.91501V21.3214ZM4.91501 40.2372H3.71501V41.4372H4.91501V40.2372ZM36.1103 40.2372V41.4372H37.3103V40.2372H36.1103ZM36.1103 21.414L36.98 20.5872L34.9103 18.4101V21.414H36.1103ZM37.2479 22.6106L38.1176 21.7838L38.1176 21.7838L37.2479 22.6106ZM38.8836 22.6106L38.0139 21.7838V21.7838L38.8836 22.6106ZM38.8836 21.0556L39.7533 20.2287L39.7533 20.2287L38.8836 21.0556ZM20.4709 3.32034C20.4427 3.34999 20.3954 3.34999 20.3672 3.32034L22.1066 1.66671C21.1887 0.701201 19.6494 0.7012 18.7315 1.66671L20.4709 3.32034ZM20.4817 3.30503C20.4782 3.31155 20.4743 3.31676 20.4709 3.32034L18.7315 1.66671C18.5845 1.82135 18.4618 1.99256 18.3645 2.17482L20.4817 3.30503ZM20.1327 3.70648C20.1307 3.70858 20.1277 3.71132 20.1237 3.7142L18.7225 1.76566C18.6054 1.84993 18.495 1.94583 18.3933 2.05286L20.1327 3.70648ZM2.48598 22.2685L20.1327 3.70648L18.3933 2.05286L0.746578 20.6149L2.48598 22.2685ZM2.48598 22.17C2.51223 22.1976 2.51223 22.2409 2.48598 22.2685L0.746577 20.6149C-0.107973 21.5138 -0.107974 22.9247 0.746576 23.8236L2.48598 22.17ZM2.38231 22.17C2.41051 22.1403 2.45778 22.1403 2.48598 22.17L0.746577 23.8236C1.66447 24.7891 3.20382 24.7891 4.12171 23.8236L2.38231 22.17ZM3.97512 20.4945L2.38231 22.17L4.12171 23.8236L5.71452 22.1482L3.97512 20.4945ZM4.91501 20.1214H4.84482V22.5214H4.91501V20.1214ZM6.11501 40.2372V21.3214H3.71501V40.2372H6.11501ZM36.1103 39.0372H4.91501V41.4372H36.1103V39.0372ZM34.9103 21.414V40.2372H37.3103V21.414H34.9103ZM38.1176 21.7838L36.98 20.5872L35.2406 22.2408L36.3782 23.4374L38.1176 21.7838ZM38.0139 21.7838C38.0421 21.7542 38.0894 21.7542 38.1176 21.7838L36.3782 23.4374C37.2961 24.403 38.8354 24.403 39.7533 23.4374L38.0139 21.7838ZM38.0139 21.8824C37.9877 21.8548 37.9877 21.8114 38.0139 21.7838L39.7533 23.4374C40.6079 22.5386 40.6079 21.1276 39.7533 20.2287L38.0139 21.8824ZM20.3672 3.32034L38.0139 21.8824L39.7533 20.2287L22.1066 1.66671L20.3672 3.32034Z" fill="#221F1F" mask="url(#path-4-outside-1_4958_51960)"/>
<mask id="path-6-outside-2_4958_51960" maskUnits="userSpaceOnUse" x="-0.694336" y="0.142578" width="42" height="25" fill="black">
<rect fill="white" x="-0.694336" y="0.142578" width="42" height="25"/>
<path fill-rule="evenodd" clip-rule="evenodd" d="M19.6012 2.49352C20.046 2.0256 20.7921 2.0256 21.2369 2.49352L38.8836 21.0556C39.2978 21.4912 39.2978 22.175 38.8836 22.6106C38.4388 23.0786 37.6927 23.0786 37.2479 22.6106L20.4335 4.92408L3.25201 22.9968C2.80716 23.4647 2.06113 23.4647 1.61628 22.9968C1.20213 22.5611 1.20213 21.8773 1.61628 21.4417L19.263 2.87967C19.3129 2.82721 19.3665 2.78063 19.4231 2.73993C19.47 2.65206 19.5294 2.56906 19.6012 2.49352Z"/>
</mask>
<path d="M21.2369 2.49352L20.3672 3.32034L20.3672 3.32034L21.2369 2.49352ZM19.6012 2.49352L20.4709 3.32034L20.4709 3.32034L19.6012 2.49352ZM38.8836 21.0556L39.7533 20.2287L39.7533 20.2287L38.8836 21.0556ZM38.8836 22.6106L38.0139 21.7838V21.7838L38.8836 22.6106ZM37.2479 22.6106L38.1176 21.7838L38.1176 21.7838L37.2479 22.6106ZM20.4335 4.92408L21.3032 4.09727L20.4335 3.18246L19.5638 4.09727L20.4335 4.92408ZM3.25201 22.9968L4.12171 23.8236L4.12172 23.8236L3.25201 22.9968ZM1.61628 22.9968L0.746576 23.8236L0.746577 23.8236L1.61628 22.9968ZM1.61628 21.4417L0.746578 20.6149L0.746577 20.6149L1.61628 21.4417ZM19.263 2.87967L20.1327 3.70648L20.1327 3.70648L19.263 2.87967ZM19.4231 2.73993L20.1237 3.7142L20.3503 3.55125L20.4817 3.30503L19.4231 2.73993ZM22.1066 1.66671C21.1887 0.701201 19.6494 0.7012 18.7315 1.66671L20.4709 3.32034C20.4427 3.34999 20.3954 3.34999 20.3672 3.32034L22.1066 1.66671ZM39.7533 20.2287L22.1066 1.66671L20.3672 3.32034L38.0139 21.8824L39.7533 20.2287ZM39.7533 23.4374C40.6079 22.5386 40.6079 21.1276 39.7533 20.2287L38.0139 21.8824C37.9877 21.8548 37.9877 21.8114 38.0139 21.7838L39.7533 23.4374ZM36.3782 23.4374C37.2961 24.403 38.8354 24.403 39.7533 23.4374L38.0139 21.7838C38.0421 21.7542 38.0894 21.7542 38.1176 21.7838L36.3782 23.4374ZM19.5638 5.75089L36.3782 23.4374L38.1176 21.7838L21.3032 4.09727L19.5638 5.75089ZM19.5638 4.09727L2.38231 22.17L4.12172 23.8236L21.3032 5.75089L19.5638 4.09727ZM2.38231 22.17C2.41051 22.1403 2.45778 22.1403 2.48598 22.17L0.746577 23.8236C1.66447 24.7891 3.20382 24.7891 4.12171 23.8236L2.38231 22.17ZM2.48598 22.17C2.51223 22.1976 2.51223 22.2409 2.48598 22.2685L0.746577 20.6149C-0.107973 21.5138 -0.107974 22.9247 0.746576 23.8236L2.48598 22.17ZM2.48598 22.2685L20.1327 3.70648L18.3933 2.05286L0.746578 20.6149L2.48598 22.2685ZM20.1327 3.70648C20.1307 3.70858 20.1277 3.71132 20.1237 3.7142L18.7225 1.76566C18.6054 1.84993 18.495 1.94583 18.3933 2.05286L20.1327 3.70648ZM18.7315 1.66671C18.5845 1.82135 18.4618 1.99256 18.3645 2.17482L20.4817 3.30503C20.4782 3.31155 20.4743 3.31676 20.4709 3.32034L18.7315 1.66671Z" fill="#221F1F" mask="url(#path-6-outside-2_4958_51960)"/>
<path d="M17.1606 32.2241C17.1606 30.5184 18.5433 29.1357 20.249 29.1357C21.9546 29.1357 23.3373 30.5184 23.3373 32.2241V36.4705H17.1606V32.2241Z" fill="white" stroke="#221F1F"/>
<path d="M33.6423 15.161L33.2075 15.5744L33.2537 15.623L33.3095 15.6602L33.6423 15.161ZM29.5122 10.8167H28.9122V11.0564L29.0774 11.2301L29.5122 10.8167ZM33.7586 6.81546L33.1586 6.81545V6.81545L33.7586 6.81546ZM33.7585 15.2385L33.4257 15.7377L34.3585 16.3596L34.3585 15.2385L33.7585 15.2385ZM34.0772 14.7476L29.9471 10.4033L29.0774 11.2301L33.2075 15.5744L34.0772 14.7476ZM30.1122 10.8167V9.4479H28.9122V10.8167H30.1122ZM30.1122 9.4479V6.81502H28.9122V9.4479H30.1122ZM30.1122 6.81502C30.1122 6.04198 30.7388 5.41543 31.5122 5.41543V4.21543C30.0764 4.21543 28.9122 5.37892 28.9122 6.81502H30.1122ZM31.5122 5.41543H31.7586V4.21543H31.5122V5.41543ZM31.7586 5.41543C32.5318 5.41543 33.1586 6.04224 33.1586 6.81545L34.3586 6.81546C34.3586 5.37951 33.1946 4.21543 31.7586 4.21543V5.41543ZM33.1586 6.81545L33.1585 15.2385L34.3585 15.2385L34.3586 6.81546L33.1586 6.81545ZM34.0913 14.7393L33.9751 14.6618L33.3095 15.6602L33.4257 15.7377L34.0913 14.7393Z" fill="#221F1F"/>
<rect x="14.4595" y="38.7871" width="11.5812" height="1.54416" fill="white" stroke="#221F1F"/>
<rect x="15.6162" y="37.6289" width="9.26495" height="1.15812" fill="white" stroke="#221F1F"/>
<rect x="16.3896" y="36.5674" width="7.72079" height="0.965099" fill="white" stroke="#221F1F"/>
<path d="M17.502 17.1683C17.502 15.6515 18.7316 14.4219 20.2484 14.4219C21.7652 14.4219 22.9948 15.6515 22.9948 17.1683V19.5287H17.502V17.1683Z" fill="#8DB602"/>
<path d="M17.502 17.1683C17.502 15.6515 18.7316 14.4219 20.2484 14.4219C21.7652 14.4219 22.9948 15.6515 22.9948 17.1683V19.5287H17.502V17.1683Z" stroke="white" stroke-width="3"/>
<path d="M17.502 17.1683C17.502 15.6515 18.7316 14.4219 20.2484 14.4219C21.7652 14.4219 22.9948 15.6515 22.9948 17.1683V19.5287H17.502V17.1683Z" stroke="#221F1F" stroke-width="3"/>
<rect x="14.0718" y="21.0283" width="12.3533" height="1.54416" rx="0.772079" fill="white" stroke="#221F1F"/>
<path d="M14.8452 22.5732H25.6543C25.6543 24.7053 23.926 26.4336 21.7939 26.4336H18.7056C16.5736 26.4336 14.8452 24.7053 14.8452 22.5732Z" fill="white" stroke="#221F1F"/>
<path d="M16.3896 23.3447H24.1104C24.1104 24.6239 23.0734 25.661 21.7942 25.661H18.7059C17.4267 25.661 16.3896 24.6239 16.3896 23.3447Z" fill="#E0E0E0"/>
<rect x="19.8623" y="14.0801" width="0.772079" height="5.79059" fill="white"/>
<path d="M4.80859 38.7868H14.4596" stroke="#221F1F"/>
<path d="M26.0405 38.7868H36.0776" stroke="#221F1F"/>
<path d="M29.5132 6.74575H33.7596" stroke="#221F1F" stroke-width="1.2"/>
</svg>
