<svg width="24" height="24" viewBox="0 0 24 24" fill="none" xmlns="http://www.w3.org/2000/svg">
<path fill-rule="evenodd" clip-rule="evenodd" d="M12 21C16.9706 21 21 16.9706 21 12C21 7.02944 16.9706 3 12 3C7.02944 3 3 7.02944 3 12C3 16.9706 7.02944 21 12 21ZM12 22C17.5228 22 22 17.5228 22 12C22 6.47715 17.5228 2 12 2C6.47715 2 2 6.47715 2 12C2 17.5228 6.47715 22 12 22Z" fill="#797B7F"/>
<path fill-rule="evenodd" clip-rule="evenodd" d="M13.8296 8.26725C13.8226 8.26432 13.8147 8.26114 13.8062 8.25821C13.1593 8.04109 12.4611 7.92273 11.7333 7.92273C11.0092 7.92273 10.3143 8.03995 9.67006 8.25515C9.64715 8.26292 9.62934 8.27107 9.61596 8.27987C9.40411 8.37211 9.25755 8.57101 9.25755 8.80175C9.25755 8.92419 9.29867 9.03759 9.36934 9.13099L11.4517 12.4413C11.5012 12.539 11.6087 12.6068 11.7333 12.6068C11.855 12.6068 11.9606 12.542 12.0114 12.4476L14.0945 9.13608C14.1686 9.04116 14.2122 8.92483 14.2122 8.79895C14.2122 8.55979 14.0543 8.35466 13.8296 8.26725ZM7.70481 9.35358C7.69957 9.35702 7.69419 9.36084 7.68825 9.36505C7.25973 9.69747 6.88559 10.103 6.58956 10.5764C6.29533 11.0473 6.10212 11.5464 6.00427 12.0527C6.00082 12.0709 6.00013 12.0858 6.0011 12.0981C5.98536 12.2735 6.07769 12.4496 6.25351 12.5436C6.34695 12.5932 6.45031 12.6126 6.55009 12.6044L9.92178 12.5965C10.0165 12.6043 10.1118 12.5618 10.1625 12.4809C10.2117 12.4016 10.2055 12.3069 10.1542 12.2354L8.47518 9.53438C8.43267 9.44774 8.36187 9.37205 8.26609 9.32122C8.08351 9.22387 7.86283 9.24311 7.70481 9.35358ZM15.7616 9.35358C15.6036 9.24311 15.3827 9.22387 15.2003 9.32122C15.1044 9.37205 15.0335 9.44774 14.9911 9.53438L13.3121 12.2354C13.2608 12.3069 13.2544 12.4016 13.3038 12.4809C13.3545 12.5618 13.4498 12.6043 13.5442 12.5965L16.9161 12.6044C17.0161 12.6126 17.1194 12.5932 17.2128 12.5436C17.3886 12.4496 17.4808 12.2735 17.4651 12.0981C17.4664 12.0858 17.4653 12.0709 17.4619 12.0527C17.3642 11.5464 17.1711 11.0473 16.8767 10.5764C16.5808 10.103 16.2066 9.69747 15.7779 9.36505C15.7722 9.36084 15.7667 9.35702 15.7616 9.35358ZM12.2333 13.5293V16.4118H11.2338V13.5293C10.7563 13.5292 10.1329 13.5274 9.89708 13.5197L6.58294 13.5271C6.30223 13.5403 6.01365 13.4809 5.75378 13.3426C5.25005 13.0739 4.97942 12.5787 5.00122 12.0802C5.00177 12.0061 5.01061 11.9419 5.02027 11.8908C5.13827 11.2808 5.37067 10.6798 5.72411 10.1151C6.07907 9.54737 6.52926 9.05874 7.04568 8.65841C7.39236 8.42231 7.8776 8.30369 8.3242 8.37594C8.45034 7.98248 8.7465 7.65707 9.13196 7.47181C9.2051 7.43308 9.2737 7.40632 9.33042 7.38734C10.0816 7.13646 10.8912 7 11.7333 7C12.5794 7 13.393 7.13786 14.1477 7.39129C14.5819 7.56546 14.969 7.92999 15.1312 8.36485C15.5578 8.27451 15.9989 8.3623 16.3462 8.60566C16.8627 9.00612 17.3871 9.54737 17.7423 10.1151C18.0956 10.6798 18.328 11.2808 18.4459 11.8908C18.4557 11.9419 18.4645 12.0061 18.4651 12.0802C18.4872 12.5787 18.2161 13.0739 17.7124 13.3426C17.4525 13.4809 17.1643 13.5403 16.8835 13.5271L13.5691 13.5197C13.3334 13.5274 12.7107 13.5292 12.2333 13.5293Z" fill="#D81E05"/>
</svg>
