<svg width="45" height="44" viewBox="0 0 45 44" fill="none" xmlns="http://www.w3.org/2000/svg">
<path d="M28.9522 17.6346C28.5939 17.2749 28.1684 16.9895 27.7 16.7949C27.2317 16.6002 26.7297 16.5 26.2228 16.5C25.7159 16.5 25.2139 16.6002 24.7456 16.7949C24.2773 16.9895 23.8518 17.2749 23.4934 17.6346L22.7496 18.3807L22.0059 17.6346C21.282 16.9084 20.3002 16.5004 19.2765 16.5004C18.2528 16.5004 17.271 16.9084 16.5471 17.6346C15.8232 18.3608 15.4165 19.3457 15.4165 20.3727C15.4165 21.3997 15.8232 22.3847 16.5471 23.1109L17.2908 23.857L22.7496 29.3333L28.2085 23.857L28.9522 23.1109C29.3108 22.7514 29.5952 22.3245 29.7892 21.8547C29.9833 21.3849 30.0832 20.8813 30.0832 20.3727C30.0832 19.8642 29.9833 19.3606 29.7892 18.8908C29.5952 18.4209 29.3108 17.9941 28.9522 17.6346Z" fill="#D81E05"/>
<path fill-rule="evenodd" clip-rule="evenodd" d="M22.7498 38.5003C31.8625 38.5003 39.2498 31.113 39.2498 22.0003C39.2498 12.8876 31.8625 5.50033 22.7498 5.50033C13.6371 5.50033 6.24984 12.8876 6.24984 22.0003C6.24984 31.113 13.6371 38.5003 22.7498 38.5003ZM22.7498 40.3337C32.8751 40.3337 41.0832 32.1255 41.0832 22.0003C41.0832 11.8751 32.8751 3.66699 22.7498 3.66699C12.6246 3.66699 4.4165 11.8751 4.4165 22.0003C4.4165 32.1255 12.6246 40.3337 22.7498 40.3337Z" fill="#797B7F"/>
</svg>
