<svg width="24" height="24" viewBox="0 0 24 24" fill="none" xmlns="http://www.w3.org/2000/svg">
<path fill-rule="evenodd" clip-rule="evenodd" d="M11.6103 2.09604C11.8623 2.00017 12.1407 2.00017 12.3926 2.09604L19.2833 4.71776C19.7101 4.88012 19.9922 5.28925 19.9922 5.74586V11.9822C19.9922 14.709 18.4059 16.9855 16.7278 18.6373C15.0413 20.2975 13.1905 21.3981 12.5081 21.7773C12.1898 21.9541 11.8131 21.9541 11.4948 21.7773C10.8124 21.3981 8.96163 20.2975 7.2751 18.6373C5.59705 16.9855 4.01074 14.709 4.01074 11.9822V5.74586C4.01074 5.28925 4.29282 4.88012 4.71958 4.71776L11.6103 2.09604ZM12.037 3.03068C12.0141 3.02196 11.9888 3.02196 11.9659 3.03068L5.07518 5.65239C5.03639 5.66715 5.01074 5.70435 5.01074 5.74586V11.9822C5.01074 14.3132 6.37344 16.3465 7.97662 17.9247C9.57131 19.4945 11.334 20.544 11.9805 20.9031C11.9918 20.9094 11.9985 20.9099 12.0015 20.9099C12.0044 20.9099 12.0112 20.9094 12.0224 20.9031C12.6689 20.544 14.4316 19.4945 16.0263 17.9247C17.6295 16.3465 18.9922 14.3132 18.9922 11.9822V5.74586C18.9922 5.70435 18.9665 5.66715 18.9277 5.65239L12.037 3.03068Z" fill="#797B7F"/>
<path d="M15.7175 9.38406C15.7175 8.8913 15.3594 8.5 14.9084 8.5C14.683 8.5 14.4707 8.60145 14.3248 8.77536L11.8313 11.5145L11.0488 12.3696L10.253 11.5C10.1071 11.3406 9.89489 11.2246 9.66941 11.2246C9.21846 11.2246 8.86035 11.6159 8.86035 12.1087C8.86035 12.3696 8.96646 12.587 9.11235 12.7464L10.452 14.2246C10.4652 14.2391 10.4652 14.2536 10.4785 14.2536L10.4917 14.2681C10.6376 14.413 10.8233 14.5 11.0355 14.5C11.2478 14.5 11.4334 14.413 11.5793 14.2681L11.5926 14.2536C11.6059 14.2391 11.6191 14.2391 11.6191 14.2246L12.9057 12.8188L15.4655 10.0217C15.6247 9.86232 15.7175 9.63043 15.7175 9.38406Z" fill="#D81E05"/>
</svg>
