<svg width="24" height="24" viewBox="0 0 24 24" fill="none" xmlns="http://www.w3.org/2000/svg">
<path fill-rule="evenodd" clip-rule="evenodd" d="M4.58121 13.7702L3.19144 14.8563C3.17503 14.8687 3.16847 14.8823 3.1666 14.8975C3.16464 14.9135 3.16784 14.9353 3.18469 14.9584L6.31205 18.9493C6.32452 18.9657 6.33805 18.9723 6.35324 18.9742C6.36928 18.9761 6.39116 18.9729 6.4144 18.9559L7.80415 17.8698C7.82057 17.8573 7.82713 17.8438 7.82899 17.8286C7.83096 17.8126 7.82776 17.7908 7.8109 17.7676L4.68355 13.7768C4.67107 13.7604 4.65755 13.7538 4.64235 13.7519C4.62632 13.75 4.60444 13.7532 4.58121 13.7702ZM5.60918 13.0671C5.18323 12.511 4.40862 12.4363 3.87362 12.8429L2.48209 13.9304C1.92575 14.3563 1.85093 15.1311 2.25762 15.6662L5.38641 19.659C5.81235 20.215 6.58698 20.2898 7.12197 19.8832L8.51348 18.7957C9.06984 18.3699 9.14467 17.595 8.73798 17.0599L5.60918 13.0671Z" fill="#797B7F"/>
<path fill-rule="evenodd" clip-rule="evenodd" d="M19.1032 12.2958C20.0474 11.6719 21.3173 12.0096 21.8241 13.0231C22.2464 13.8678 21.9771 14.9002 21.182 15.4258C21.1814 15.4262 21.1809 15.4265 21.1804 15.4269L15.6621 19.1135C15.1813 19.4285 14.5755 19.5182 14.0244 19.3298L7.62352 17.1962C7.31797 17.0943 7.15284 16.764 7.25469 16.4585C7.35654 16.153 7.6868 15.9878 7.99235 16.0897L14.3956 18.2241L14.4007 18.2258C14.5947 18.2925 14.8265 18.2657 15.021 18.1391L20.5382 14.4532C20.8381 14.2554 20.9414 13.8657 20.7809 13.5447C20.588 13.1588 20.1089 13.0299 19.747 13.2683C19.7467 13.2685 19.7473 13.2681 19.747 13.2683L16.3541 15.5303C16.0861 15.7089 15.7241 15.6365 15.5454 15.3685C15.3667 15.1005 15.4392 14.7385 15.7071 14.5598L19.1012 12.2971L19.1032 12.2958Z" fill="#797B7F"/>
<path fill-rule="evenodd" clip-rule="evenodd" d="M9.96309 12.1442C9.76589 12.0764 9.53727 12.1069 9.36043 12.2269L9.35648 12.2296L9.35647 12.2296L6.3823 14.2123C6.11432 14.391 5.75225 14.3186 5.57359 14.0506C5.39494 13.7826 5.46735 13.4205 5.73533 13.2419L8.70769 11.2603C9.18293 10.9388 9.79188 10.853 10.3396 11.0403L15.3264 12.7065C15.327 12.7066 15.3275 12.7068 15.3281 12.707C16.4144 13.0645 16.9202 14.3024 16.4127 15.3175L16.4105 15.3218C15.9908 16.1444 15.0313 16.5533 14.1469 16.2642L14.1429 16.2629L14.143 16.2629L11.7053 15.4464C11.3999 15.3441 11.2352 15.0136 11.3375 14.7082C11.4398 14.4028 11.7703 14.2382 12.0757 14.3405L14.5111 15.1561C14.8385 15.2622 15.2068 15.1122 15.3705 14.7938C15.5607 14.4102 15.3675 13.9475 14.9628 13.8147L14.9598 13.8137L14.9598 13.8137L9.96786 12.1458L9.96309 12.1442Z" fill="#797B7F"/>
<path d="M11 9.42254C11.0685 9.27615 11.184 9.22828 11.3454 9.22846C14.1193 9.2316 16.893 9.23073 19.6669 9.2309C19.7078 9.2309 19.7497 9.22933 19.7893 9.23736C19.8999 9.2599 19.9822 9.35021 19.9975 9.4587C20.0128 9.56735 19.957 9.67828 19.8453 9.72877C19.6139 9.83323 19.3818 9.93717 19.1453 10.0298C18.387 10.3262 17.6079 10.5526 16.8032 10.6871C16.0091 10.8199 15.214 10.8365 14.4157 10.7193C13.2963 10.5547 12.2305 10.2181 11.2027 9.75427C11.1095 9.71217 11.0451 9.64963 11.0004 9.56211V9.42271L11 9.42254Z" fill="#D81E05"/>
<path d="M14.2191 4.73752C14.2365 4.93912 14.2529 5.12359 14.2684 5.30789C14.3193 5.90987 14.37 6.51185 14.4208 7.11366C14.4285 7.20624 14.437 7.29883 14.4437 7.39159C14.456 7.55859 14.5736 7.67127 14.7258 7.66079C14.8785 7.65031 14.9827 7.52418 14.9695 7.35648C14.9406 6.98876 14.9081 6.62138 14.8771 6.25383C14.8325 5.72714 14.7881 5.20045 14.7434 4.67376C14.7335 4.55794 14.724 4.4423 14.7129 4.32665C14.6934 4.11999 14.802 4.00051 15.0125 4.00033C15.3376 3.99998 15.6627 3.99981 15.9878 4.00033C16.1965 4.00068 16.3032 4.12209 16.2854 4.32875C16.2266 5.01161 16.1704 5.69465 16.1127 6.37769C16.0862 6.69021 16.0582 7.00273 16.0322 7.31525C16.0285 7.3584 16.0248 7.40312 16.0322 7.4454C16.0545 7.57502 16.171 7.66603 16.3011 7.66149C16.4295 7.65695 16.5403 7.55685 16.5521 7.42478C16.5838 7.07191 16.6121 6.71868 16.6417 6.36564C16.6847 5.85047 16.7275 5.33531 16.7706 4.82015C16.7722 4.80024 16.7773 4.7805 16.7843 4.73927C16.9492 4.81316 17.1073 4.88287 17.2637 4.95641C17.2771 4.9627 17.2857 4.99519 17.2841 5.01441C17.2382 5.57586 17.1906 6.13732 17.1431 6.69877C17.1241 6.92447 17.1022 7.14999 17.0857 7.37587C17.0746 7.52575 17.1871 7.65205 17.3326 7.66114C17.4766 7.67005 17.5973 7.56611 17.6101 7.41622C17.6693 6.72462 17.7271 6.03285 17.7855 5.34125C17.7869 5.32431 17.7892 5.30754 17.7924 5.28011C17.8174 5.29461 17.8375 5.30352 17.8546 5.31645C18.7638 6.00647 19.3068 6.90805 19.4494 8.03952C19.4632 8.14887 19.4718 8.2598 19.4693 8.36968C19.466 8.51467 19.5031 8.63189 19.6687 8.70369H11.333C11.4945 8.63189 11.525 8.51467 11.5297 8.37038C11.5688 7.19821 12.0577 6.23968 12.9444 5.47419C13.0233 5.40606 13.1079 5.34475 13.2051 5.26823C13.2206 5.44135 13.2348 5.5956 13.2479 5.75003C13.2949 6.30572 13.3408 6.86141 13.3888 7.41692C13.4016 7.56593 13.5231 7.6704 13.6668 7.66096C13.8125 7.65153 13.9252 7.52505 13.913 7.37499C13.8662 6.80184 13.8167 6.22903 13.7681 5.65587C13.75 5.4417 13.7304 5.2277 13.7153 5.01336C13.7137 4.9917 13.7325 4.95658 13.7514 4.94768C13.9012 4.8771 14.0534 4.81124 14.2191 4.73752V4.73752Z" fill="#D81E05"/>
</svg>
