<svg width="24" height="24" viewBox="0 0 24 24" fill="none" xmlns="http://www.w3.org/2000/svg">
<path d="M21.3597 15.9453V15.5266C21.3597 13.1085 20.548 10.7929 19.0868 8.99856V7.87922C19.0868 7.09312 18.4375 6.44374 17.6514 6.44374C17.2583 6.44374 16.8994 6.60608 16.6346 6.86242C16.0792 6.52918 15.4896 6.27285 14.8744 6.06778C14.5326 4.88009 13.456 4 12.1572 4H11.7727C10.4654 4 9.36316 4.89718 9.03846 6.1105C8.45743 6.30703 7.90204 6.56336 7.38082 6.87097C7.11594 6.60608 6.75707 6.44374 6.35548 6.44374C5.56938 6.44374 4.92 7.08458 4.92 7.87922V9.01564C3.45888 10.81 2.64715 13.1085 2.64715 15.5266V15.9453C1.76706 16.1162 1.10059 16.8852 1.10059 17.8165C1.10059 18.859 1.95504 19.7134 2.99747 19.7134H21.0094C22.0518 19.7134 22.9063 18.859 22.9063 17.808C22.9063 16.8852 22.2398 16.1162 21.3597 15.9453ZM3.00602 18.9444C2.38227 18.9444 1.87814 18.4403 1.87814 17.8165C1.87814 17.3124 2.20283 16.9023 2.64715 16.7485C2.75823 16.7143 2.87785 16.6801 2.99747 16.6801H21.0094C21.1375 16.6801 21.2486 16.7143 21.3597 16.7485C21.804 16.9023 22.1287 17.3038 22.1287 17.7994C22.1287 18.4232 21.6246 18.9359 21.0008 18.9359H3.00602V18.9444ZM16.9934 7.87068C16.9934 7.62288 17.1301 7.42636 17.3267 7.30674C17.4207 7.24692 17.5317 7.21275 17.6514 7.21275C18.0188 7.21275 18.3178 7.51181 18.3178 7.87068V11.2458C18.3178 11.6132 18.0188 11.9037 17.6514 11.9037C17.2839 11.9037 16.9934 11.6046 16.9934 11.2458V7.87068ZM5.69755 7.87068C5.69755 7.50326 5.99661 7.21275 6.35548 7.21275C6.48365 7.21275 6.58618 7.25547 6.68871 7.31528C6.88524 7.42636 7.02195 7.63143 7.02195 7.87068V11.2458C7.02195 11.6132 6.72289 11.9037 6.35548 11.9037C5.98806 11.9037 5.69755 11.6046 5.69755 11.2458V7.87068V7.87068ZM3.4247 15.518C3.4247 13.6297 3.95446 11.8183 4.92 10.3059V11.2458C4.92 12.0319 5.56084 12.6813 6.35548 12.6813C7.15012 12.6813 7.79096 12.0404 7.79096 11.2458V7.87068C7.79096 7.7596 7.77387 7.65706 7.75678 7.55453C8.13274 7.33237 8.52579 7.13585 8.92738 6.9735V12.1771C8.92738 12.7838 9.11536 13.3563 9.44006 13.8177C9.12391 13.3306 8.93593 12.7582 8.93593 12.1344C8.93593 11.6046 9.08119 11.1176 9.31189 10.6904C9.34607 10.6306 9.3717 10.5708 9.40588 10.5195C9.49132 10.3828 9.59386 10.2546 9.69639 10.135V6.83679C9.69639 6.46083 9.80747 6.11905 9.97836 5.81144C10.3372 5.18769 10.9952 4.76901 11.7642 4.76901H12.1487C12.9006 4.76901 13.55 5.17915 13.9174 5.77726C14.1054 6.08487 14.2165 6.44374 14.2165 6.83679V10.0324C14.3617 10.1862 14.4899 10.3486 14.601 10.528C14.601 10.528 14.601 10.528 14.601 10.5366C14.7804 10.8185 14.9086 11.1347 14.9855 11.4679V6.93932C15.4212 7.11021 15.8485 7.31528 16.2501 7.55453C16.2244 7.65706 16.2159 7.7596 16.2159 7.87068V11.2458C16.2159 12.0319 16.8567 12.6813 17.6514 12.6813C18.446 12.6813 19.0868 12.0404 19.0868 11.2458V10.2973C20.0609 11.8183 20.5821 13.6297 20.5821 15.518V15.9025H3.4247V15.518Z" fill="#797B7F"/>
<path d="M14.9931 11.4679C14.9162 11.1347 14.7795 10.8185 14.6086 10.5366C14.6086 10.5366 14.6086 10.5366 14.6086 10.528C14.4976 10.3486 14.3694 10.1862 14.2241 10.0324C14.1045 9.90427 13.9763 9.7932 13.8311 9.69066C13.3184 9.30616 12.6947 9.07545 12.0111 9.07545C11.3275 9.07545 10.6952 9.30616 10.1911 9.69066C10.0117 9.81883 9.85787 9.97263 9.71261 10.135C9.61008 10.2546 9.50754 10.3828 9.4221 10.5195C9.38792 10.5707 9.36229 10.6306 9.32811 10.6904C9.09741 11.1261 8.95215 11.6132 8.95215 12.1344C8.95215 12.7582 9.14013 13.3392 9.45628 13.8177C10.0031 14.6465 10.943 15.2019 12.0196 15.2019C13.7115 15.2019 15.0871 13.8262 15.0871 12.1344C15.0871 11.9037 15.0529 11.673 15.0102 11.4594L14.9931 11.4679ZM12.0025 10.7587C12.763 10.7587 13.3868 11.3825 13.3868 12.1429C13.3868 12.9034 12.763 13.5272 12.0025 13.5272C11.2421 13.5272 10.6183 12.9034 10.6183 12.1429C10.6183 11.3825 11.2421 10.7587 12.0025 10.7587V10.7587Z" fill="#D81E05"/>
</svg>
