<svg width="24" height="24" viewBox="0 0 24 24" fill="none" xmlns="http://www.w3.org/2000/svg">
<path fill-rule="evenodd" clip-rule="evenodd" d="M12 21C16.9706 21 21 16.9706 21 12C21 7.02944 16.9706 3 12 3C7.02944 3 3 7.02944 3 12C3 16.9706 7.02944 21 12 21ZM12 22C17.5228 22 22 17.5228 22 12C22 6.47715 17.5228 2 12 2C6.47715 2 2 6.47715 2 12C2 17.5228 6.47715 22 12 22Z" fill="#797B7F"/>
<path fill-rule="evenodd" clip-rule="evenodd" d="M10.9333 8C10.7861 8 10.6667 8.11939 10.6667 8.26667V10.6667H8.26667C8.11939 10.6667 8 10.7861 8 10.9333V13.0667C8 13.2139 8.11939 13.3333 8.26667 13.3333H10.6667V15.7333C10.6667 15.8806 10.7861 16 10.9333 16H13.0667C13.2139 16 13.3333 15.8806 13.3333 15.7333V13.3333H15.7333C15.8806 13.3333 16 13.2139 16 13.0667V10.9333C16 10.7861 15.8806 10.6667 15.7333 10.6667H13.3333V8.26667C13.3333 8.11939 13.2139 8 13.0667 8H10.9333Z" fill="#D81E05"/>
</svg>
