<svg width="24" height="24" viewBox="0 0 24 24" fill="none" xmlns="http://www.w3.org/2000/svg">
<path d="M20.4008 20.4984H4.27871C4.22485 20.4984 4.17871 20.4522 4.17871 20.3984V10.5343C4.17871 10.4805 4.22485 10.4343 4.27871 10.4343H20.4008C20.4546 10.4343 20.5008 10.4805 20.5008 10.5343V20.3984C20.5008 20.4522 20.4546 20.4984 20.4008 20.4984Z" stroke="#797B7F"/>
<path d="M14.6061 15.2928H10.4956C10.1655 15.2928 9.89551 15.0228 9.89551 14.6927V12.7185C9.89551 12.3884 10.1655 12.1184 10.4956 12.1184H14.6061C14.9362 12.1184 15.2062 12.3884 15.2062 12.7185V14.6927C15.2062 15.0228 14.9362 15.2928 14.6061 15.2928ZM11.0957 14.0927H14.0061V13.3186H11.0957V14.0927Z" fill="#D81E05"/>
<path d="M4.16413 10.4346L4.16411 10.4346C4.16491 10.4398 4.16669 10.4453 4.17137 10.4524C4.17611 10.4596 4.18526 10.4705 4.20176 10.4825C4.21652 10.4918 4.23869 10.5 4.27239 10.5L4.2948 10.4999L4.30725 10.4997L4.16413 10.4346ZM4.16413 10.4346L4.16343 10.4304L3.50071 6.38321C3.49829 6.36589 3.50212 6.34911 3.51479 6.33212C3.52817 6.31418 3.55187 6.29642 3.58726 6.28974C3.58765 6.28967 3.58803 6.2896 3.58842 6.28953L19.7033 3.50268L19.7033 3.5027L19.7085 3.50174C19.7388 3.49617 19.7733 3.50426 19.795 3.51939C19.8136 3.53229 19.8236 3.54411 19.8286 3.55177C19.8333 3.55889 19.8351 3.56437 19.8359 3.56954L19.8359 3.56954L19.8366 3.5738L20.4991 7.61983C20.4992 7.6202 20.4992 7.62058 20.4993 7.62095C20.5017 7.63827 20.4979 7.65506 20.4852 7.67205C20.4718 7.68999 20.4481 7.70776 20.4127 7.71443C20.4123 7.7145 20.412 7.71457 20.4116 7.71464L4.30728 10.4997L4.16413 10.4346Z" stroke="#797B7F"/>
</svg>
