<svg width="24" height="24" viewBox="0 0 24 24" fill="none" xmlns="http://www.w3.org/2000/svg">
<path fill-rule="evenodd" clip-rule="evenodd" d="M6.66355 3.92265C6.82037 3.68741 7.09562 3.5 7.42957 3.5H16.4996C16.8325 3.5 17.1245 3.67894 17.2815 3.94806L17.2826 3.95009L21.8115 11.7981C21.8118 11.7986 21.812 11.7991 21.8123 11.7996C21.972 12.0745 21.972 12.4255 21.8123 12.7004C21.812 12.7009 21.8118 12.7014 21.8115 12.7019L17.2746 20.5639L17.2656 20.5773C17.1088 20.8126 16.8335 21 16.4996 21H7.42957C7.0966 21 6.80467 20.8211 6.64768 20.5519L6.6465 20.5499L2.11768 12.7019C2.11744 12.7015 2.1172 12.7011 2.11697 12.7007C1.9571 12.4256 1.9571 12.0744 2.11697 11.7993C2.1172 11.7989 2.11744 11.7985 2.11768 11.7981L6.65458 3.9361L6.66355 3.92265ZM7.48373 4.5L3.01144 12.25L7.48373 20H16.4454L20.9177 12.25L16.4454 4.5H7.48373Z" fill="#797B7F"/>
<path d="M7.13031 13.14C7.13031 13.07 7.12031 13.01 7.09031 12.96C7.06031 12.91 7.00031 12.86 6.91031 12.8C6.82031 12.75 6.68031 12.69 6.50031 12.63C6.33031 12.57 6.17031 12.51 6.01031 12.44C5.86031 12.36 5.72031 12.28 5.59031 12.18C5.46031 12.08 5.37031 11.97 5.29031 11.84C5.22031 11.7 5.18031 11.55 5.18031 11.37C5.18031 11.14 5.24031 10.95 5.38031 10.79C5.51031 10.63 5.69031 10.5 5.91031 10.41C6.14031 10.32 6.39031 10.28 6.68031 10.28C6.96031 10.28 7.21031 10.33 7.43031 10.42C7.65031 10.51 7.82031 10.65 7.94031 10.83C8.06031 11.02 8.13031 11.23 8.13031 11.48H7.14031C7.14031 11.4 7.12031 11.32 7.09031 11.26C7.05031 11.2 7.00031 11.15 6.93031 11.11C6.86031 11.08 6.77031 11.06 6.66031 11.06C6.55031 11.06 6.46031 11.08 6.39031 11.1C6.32031 11.12 6.26031 11.17 6.22031 11.22C6.18031 11.27 6.17031 11.32 6.17031 11.38C6.17031 11.45 6.20031 11.51 6.25031 11.56C6.31031 11.61 6.38031 11.66 6.48031 11.7C6.58031 11.74 6.70031 11.79 6.83031 11.83C7.10031 11.92 7.34031 12.02 7.53031 12.14C7.72031 12.26 7.87031 12.4 7.97031 12.56C8.07031 12.72 8.12031 12.91 8.12031 13.13C8.12031 13.36 8.06031 13.56 7.94031 13.72C7.82031 13.88 7.66031 14.01 7.44031 14.09C7.23031 14.18 6.98031 14.22 6.69031 14.22C6.49031 14.22 6.29031 14.19 6.10031 14.14C5.91031 14.1 5.74031 14.02 5.58031 13.91C5.42031 13.8 5.30031 13.67 5.21031 13.5C5.12031 13.33 5.07031 13.13 5.07031 12.9H6.06031C6.06031 13.01 6.07031 13.09 6.10031 13.16C6.13031 13.23 6.16031 13.29 6.22031 13.33C6.28031 13.37 6.34031 13.4 6.42031 13.42C6.50031 13.44 6.59031 13.45 6.70031 13.45C6.81031 13.45 6.90031 13.44 6.96031 13.41C7.02031 13.38 7.07031 13.34 7.10031 13.29C7.12031 13.24 7.13031 13.19 7.13031 13.14Z" fill="#D81E05"/>
<path d="M11.9603 12.31C11.9603 12.71 11.8903 13.05 11.7403 13.33C11.5903 13.61 11.4003 13.84 11.1403 13.99C10.8803 14.14 10.6003 14.22 10.2703 14.22C9.94031 14.22 9.64031 14.14 9.39031 13.99C9.14031 13.84 8.93031 13.62 8.79031 13.33C8.65031 13.04 8.57031 12.71 8.57031 12.31V12.2C8.57031 11.8 8.64031 11.46 8.79031 11.18C8.93031 10.89 9.13031 10.67 9.39031 10.52C9.65031 10.37 9.93031 10.28 10.2603 10.28C10.5903 10.28 10.8803 10.36 11.1403 10.51C11.4003 10.66 11.6003 10.89 11.7403 11.17C11.8903 11.46 11.9603 11.8 11.9603 12.19V12.31ZM10.9603 12.19C10.9603 11.95 10.9303 11.74 10.8803 11.58C10.8203 11.42 10.7403 11.3 10.6403 11.21C10.5403 11.13 10.4103 11.09 10.2603 11.09C10.1103 11.09 9.98031 11.13 9.88031 11.21C9.78031 11.29 9.70031 11.42 9.65031 11.58C9.60031 11.74 9.57031 11.95 9.57031 12.19V12.31C9.57031 12.55 9.60031 12.75 9.65031 12.91C9.70031 13.08 9.78031 13.2 9.88031 13.29C9.98031 13.37 10.1103 13.42 10.2703 13.42C10.4203 13.42 10.5403 13.38 10.6503 13.29C10.7503 13.2 10.8303 13.08 10.8803 12.91C10.9303 12.74 10.9603 12.54 10.9603 12.31V12.19Z" fill="#D81E05"/>
<path d="M13.1901 14.17H12.1201L13.5301 10.33H14.2001L14.0901 11.26L13.1901 14.17ZM14.8001 13.53H12.8301V12.73H14.8001V13.53ZM13.9101 11.26L13.7801 10.33H14.4601L15.8801 14.17H14.8101L13.9101 11.26Z" fill="#D81E05"/>
<path d="M18.9302 11.13H15.7002V10.33H18.9302V11.13ZM17.7902 14.17H16.8002V10.33H17.7902V14.17Z" fill="#D81E05"/>
</svg>
