<svg width="24" height="24" viewBox="0 0 24 24" fill="none" xmlns="http://www.w3.org/2000/svg">
<path d="M9.16237 17.1518L10.0134 19.4504C10.1011 19.7486 10.0134 20.082 9.8028 20.3013L9.11851 20.9856C9.02201 21.0821 8.85532 21.0646 8.78514 20.9418L6.46907 17.1869L2.74055 14.906C2.61773 14.8358 2.60019 14.6691 2.69669 14.5726L3.38098 13.8883C3.60031 13.669 3.93368 13.5812 4.23196 13.6777L6.5568 14.5638L9.16237 17.1606V17.1518Z" fill="#D81E05"/>
<path d="M21.1904 2.50097C20.0674 1.37802 17.6373 2.36937 16.7425 3.26421L13.5491 6.45758L5.8903 3.46599C5.013 3.17648 4.05675 3.41335 3.39877 4.06256L2.53025 4.93985C2.38988 5.08899 2.31092 5.282 2.32847 5.48378C2.34602 5.68556 2.45129 5.86979 2.61798 5.99261L9.31176 10.7037L6.3114 13.7041L4.3638 13.2566C3.90761 13.1163 3.41632 13.2391 3.07417 13.5812L2.38988 14.2655C2.24951 14.4059 2.17933 14.6077 2.20565 14.8095C2.23197 15.0112 2.34602 15.1867 2.5127 15.2832L6.15349 17.5115L8.41692 21.1786C8.52219 21.3541 8.69765 21.4681 8.89943 21.4945C8.92575 21.4945 8.95207 21.4945 8.97839 21.4945C9.15385 21.4945 9.31176 21.4243 9.43458 21.3015L10.1189 20.6172C10.4522 20.2838 10.5838 19.7837 10.4522 19.3626L10.0048 17.3887L13.0052 14.3884L17.7163 21.0821C17.8303 21.2488 18.0146 21.3541 18.2251 21.3716C18.4269 21.3892 18.6287 21.319 18.769 21.1699L19.6463 20.2926C20.3043 19.6346 20.5324 18.6871 20.2341 17.7835L17.2425 10.1598L20.4359 6.96641C20.9272 6.47512 21.3571 5.66801 21.5676 4.85212C21.8308 3.84323 21.6992 3.0098 21.1991 2.51851L21.1904 2.50097ZM20.7079 4.61525C20.5412 5.26445 20.1815 5.95752 19.8042 6.32598L16.1985 9.93168L19.3919 18.0642C19.5761 18.6257 19.427 19.2398 19.0059 19.6609L18.2865 20.3803L13.1105 13.0198L9.03102 17.0992L9.5925 19.5732C9.63636 19.7223 9.5925 19.8802 9.48722 19.9855L9.00471 20.468L6.77637 16.8623L3.20577 14.6779L3.68828 14.1953C3.79356 14.0901 3.96024 14.0462 4.12693 14.0988L6.58336 14.6603L10.6628 10.5809L3.30227 5.40482L4.02165 4.68544C4.44276 4.26433 5.04809 4.11519 5.59202 4.29065L13.7509 7.49279L17.3566 3.8871C18.0847 3.15894 19.9446 2.50097 20.5675 3.12385C20.8307 3.38704 20.8745 3.93973 20.7079 4.62403V4.61525Z" fill="#797B7F"/>
</svg>
