<svg width="24" height="24" viewBox="0 0 24 24" fill="none" xmlns="http://www.w3.org/2000/svg">
<path fill-rule="evenodd" clip-rule="evenodd" d="M4.58121 13.7702L3.19144 14.8563C3.17503 14.8687 3.16847 14.8823 3.1666 14.8975C3.16464 14.9135 3.16784 14.9353 3.18469 14.9584L6.31205 18.9493C6.32452 18.9657 6.33805 18.9723 6.35324 18.9742C6.36928 18.9761 6.39116 18.9729 6.4144 18.9559L7.80415 17.8698C7.82057 17.8573 7.82713 17.8438 7.82899 17.8286C7.83096 17.8126 7.82776 17.7908 7.8109 17.7676L4.68355 13.7768C4.67107 13.7604 4.65755 13.7538 4.64235 13.7519C4.62632 13.75 4.60444 13.7532 4.58121 13.7702ZM5.60918 13.0671C5.18323 12.511 4.40862 12.4363 3.87362 12.8429L2.48209 13.9304C1.92575 14.3563 1.85093 15.1311 2.25762 15.6662L5.38641 19.659C5.81235 20.215 6.58698 20.2898 7.12197 19.8832L8.51348 18.7957C9.06984 18.3699 9.14467 17.595 8.73798 17.0599L5.60918 13.0671Z" fill="#797B7F"/>
<path fill-rule="evenodd" clip-rule="evenodd" d="M19.1032 12.2958C20.0474 11.6719 21.3173 12.0096 21.8241 13.0231C22.2464 13.8678 21.9771 14.9002 21.182 15.4258C21.1814 15.4262 21.1809 15.4265 21.1804 15.4269L15.6621 19.1135C15.1813 19.4285 14.5755 19.5182 14.0244 19.3298L7.62352 17.1962C7.31797 17.0943 7.15284 16.764 7.25469 16.4585C7.35654 16.153 7.6868 15.9878 7.99235 16.0897L14.3956 18.2241L14.4007 18.2258C14.5947 18.2925 14.8265 18.2657 15.021 18.1391L20.5382 14.4532C20.8382 14.2554 20.9414 13.8657 20.7809 13.5447C20.588 13.1588 20.1089 13.0299 19.747 13.2683C19.7467 13.2685 19.7473 13.2681 19.747 13.2683L16.3541 15.5303C16.0861 15.7089 15.7241 15.6365 15.5454 15.3685C15.3667 15.1005 15.4392 14.7385 15.7071 14.5598L19.1012 12.2971L19.1032 12.2958Z" fill="#797B7F"/>
<path fill-rule="evenodd" clip-rule="evenodd" d="M9.96309 12.1442C9.76589 12.0764 9.53727 12.1069 9.36043 12.2269L9.35648 12.2296L9.35647 12.2296L6.3823 14.2123C6.11432 14.391 5.75225 14.3186 5.57359 14.0506C5.39494 13.7826 5.46735 13.4205 5.73533 13.2419L8.70769 11.2603C9.18293 10.9388 9.79188 10.853 10.3396 11.0403L15.3264 12.7065C15.327 12.7066 15.3275 12.7068 15.3281 12.707C16.4144 13.0645 16.9202 14.3024 16.4127 15.3175L16.4105 15.3218C15.9908 16.1444 15.0313 16.5533 14.1469 16.2642L14.1429 16.2629L14.143 16.2629L11.7053 15.4464C11.3999 15.3441 11.2352 15.0136 11.3375 14.7082C11.4398 14.4028 11.7703 14.2382 12.0757 14.3405L14.5111 15.1561C14.8385 15.2622 15.2068 15.1122 15.3705 14.7938C15.5607 14.4102 15.3675 13.9475 14.9628 13.8147L14.9598 13.8137L14.9598 13.8137L9.96786 12.1458L9.96309 12.1442Z" fill="#797B7F"/>
<path fill-rule="evenodd" clip-rule="evenodd" d="M13.8828 4.88235C13.8828 3.84276 14.7256 3 15.7652 3C16.8048 3 17.6475 3.84276 17.6475 4.88235C17.6475 5.92195 16.8048 6.76471 15.7652 6.76471C14.7256 6.76471 13.8828 5.92195 13.8828 4.88235Z" fill="#D81E05"/>
<path fill-rule="evenodd" clip-rule="evenodd" d="M14.5098 7.23529C13.1237 7.23529 12 8.49943 12 10.0588V10.5294C12 10.7893 12.1873 11 12.4183 11H19.1111C19.3421 11 19.5294 10.7893 19.5294 10.5294V10.0588C19.5294 8.49943 18.4057 7.23529 17.0196 7.23529H14.5098Z" fill="#D81E05"/>
</svg>
