<svg width="24" height="24" viewBox="0 0 24 24" fill="none" xmlns="http://www.w3.org/2000/svg">
<path fill-rule="evenodd" clip-rule="evenodd" d="M17 7.55532C15.9261 7.55532 15.0555 8.42586 15.0555 9.49973C15.0555 10.5736 15.9261 11.4441 17 11.4441C18.0738 11.4441 18.9444 10.5736 18.9444 9.49973C18.9444 8.42586 18.0738 7.55532 17 7.55532ZM14.5 9.49973C14.5 8.11904 15.6193 6.99977 17 6.99977C18.3807 6.99977 19.4999 8.11904 19.4999 9.49973C19.4999 10.8804 18.3807 11.9997 17 11.9997C15.6193 11.9997 14.5 10.8804 14.5 9.49973Z" fill="#797B7F"/>
<path fill-rule="evenodd" clip-rule="evenodd" d="M18.6656 13.1075H15.3328C13.7989 13.1075 12.5555 14.351 12.5555 15.8848V16.4403H21.4429V15.8848C21.4429 14.351 20.1994 13.1075 18.6656 13.1075ZM15.3328 12.552C13.4921 12.552 12 14.0442 12 15.8848V16.4403C12 16.7471 12.2487 16.9958 12.5555 16.9958H21.4429C21.7497 16.9958 21.9984 16.7471 21.9984 16.4403V15.8848C21.9984 14.0442 20.5062 12.552 18.6656 12.552H15.3328Z" fill="#797B7F"/>
<path fill-rule="evenodd" clip-rule="evenodd" d="M6.99996 7.55532C5.92609 7.55532 5.05555 8.42586 5.05555 9.49973C5.05555 10.5736 5.92609 11.4441 6.99996 11.4441C8.07383 11.4441 8.94438 10.5736 8.94438 9.49973C8.94438 8.42586 8.07383 7.55532 6.99996 7.55532ZM4.5 9.49973C4.5 8.11904 5.61927 6.99977 6.99996 6.99977C8.38065 6.99977 9.49993 8.11904 9.49993 9.49973C9.49993 10.8804 8.38065 11.9997 6.99996 11.9997C5.61927 11.9997 4.5 10.8804 4.5 9.49973Z" fill="#797B7F"/>
<path fill-rule="evenodd" clip-rule="evenodd" d="M8.66557 13.1075H5.33278C3.79891 13.1075 2.55546 14.351 2.55546 15.8848V16.4403H11.4429V15.8848C11.4429 14.351 10.1994 13.1075 8.66557 13.1075ZM5.33278 12.552C3.49214 12.552 2 14.0442 2 15.8848V16.4403C2 16.7471 2.24869 16.9958 2.55546 16.9958H11.4429C11.7497 16.9958 11.9984 16.7471 11.9984 16.4403V15.8848C11.9984 14.0442 10.5062 12.552 8.66557 12.552H5.33278Z" fill="#797B7F"/>
<path d="M12.0844 17.9988C10.5806 17.9988 9.07671 17.9997 7.57286 17.9988C6.88368 17.9984 6.78599 17.9071 6.80122 17.2412C6.81825 16.4849 6.76179 15.714 6.89129 14.9759C7.35732 12.3174 9.81429 10.5189 12.5997 10.7304C15.2359 10.9307 17.3618 13.1748 17.4155 15.82C17.4258 16.3346 17.4209 16.8498 17.4187 17.3644C17.4164 17.8618 17.2869 17.9953 16.7698 17.997C15.2082 18.0024 13.6465 17.9988 12.0844 17.9988V17.9988Z" fill="#D81E05"/>
<path d="M9.39356 7.54689C9.39042 6.13185 10.5582 4.98812 11.9939 5.00009C13.4211 5.01206 14.5643 6.1354 14.5696 7.53137C14.575 8.94419 13.4081 10.0835 11.9661 10.0737C10.5344 10.064 9.39715 8.94641 9.39356 7.54689V7.54689Z" fill="#D81E05"/>
</svg>
